# Alias OBJ Model File
# Exported from SketchUp, (c) 2000-2012 Trimble Navigation Limited
# File units = meters

mtllib towerDefense_087.mtl

g Mesh1 Group1 Model

usemtl Grass
v 1 0.2 -1
vt 39.3701 7.87402
vn 1 -1.30377e-024 -2.33782e-014
v 1 0.34 -0.75
vt 29.5276 13.3858
v 1 0.2 -0.75
vt 29.5276 7.87402
f 1/1/1 2/2/1 3/3/1

v 1 0.4 -0.75
vt 29.5276 15.748
f 2/2/1 1/1/1 4/4/1

v 1 0.4 -1
vt 39.3701 15.748
f 4/4/1 1/1/1 5/5/1

vt -39.3701 7.87402
vn -1.17406e-014 0 -1
v 0 0.4 -1
vt -4.62229e-013 15.748
vt -39.3701 15.748
f 1/6/2 6/7/2 5/8/2

v 0 0.2 -1
vt -4.62229e-013 7.87402
f 6/7/2 1/6/2 7/9/2

usemtl Dirt
v 1 0 -1
vt -39.3701 0
f 8/10/2 7/9/2 1/6/2

v 0 0 -1
vt -4.62229e-013 0
f 7/9/2 8/10/2 9/11/2

vt -39.3701 39.3701
vn 0 -1 -0
v 1.15506e-014 0 -0
vt -4.54747e-013 0
vt 0 39.3701
f 8/12/3 10/13/3 9/14/3

v 1 0 -1.15506e-014
vt -39.3701 4.54747e-013
f 10/13/3 8/12/3 11/15/3

vt 39.3701 3.22463e-013
vn 1 -8.19056e-015 -1.20003e-014
v 1 0.2 -1.15506e-014
vt -1.77057e-014 7.87402
vt -1.77057e-014 3.22463e-013
f 8/16/4 12/17/4 11/18/4

v 1 0.2 -0.25
vt 9.84252 7.87402
f 12/17/4 8/16/4 13/19/4

f 13/19/4 8/16/4 3/3/4

f 3/3/4 8/16/4 1/1/4

usemtl Water
vt 39.3701 39.3701
vn 0 1 -0
v 2.88765e-015 0.2 -0.75
vt 1.13687e-013 29.5276
vt 39.3701 29.5276
f 1/20/5 14/21/5 3/22/5

f 14/21/5 1/20/5 7/14/5

usemtl Dirt
vt -39.3701 4.58965e-028
vn -1 9.7145e-016 1.20003e-014
vt -29.5276 7.87402
f 9/23/6 14/24/6 7/6/6

v 1.44382e-014 0.2 -0.25
vt -9.84252 7.87402
f 9/23/6 15/25/6 14/24/6

vt 5.45711e-027 4.41764e-028
f 10/26/6 15/25/6 9/23/6

v 1.15506e-014 0.2 -0
vt 5.45711e-027 7.87402
f 15/25/6 10/26/6 16/27/6

vt 4.54747e-013 0
vn 1.17406e-014 0 1
vt 4.54747e-013 7.87402
f 10/28/7 12/1/7 16/29/7

vt 39.3701 0
f 12/1/7 10/28/7 11/30/7

usemtl Water
vt 39.3701 4.54747e-013
vt 5.68434e-013 9.84252
f 12/31/5 15/32/5 16/28/5

vt 39.3701 9.84252
f 15/32/5 12/31/5 13/33/5

usemtl Grass
vn 1 -8.69181e-025 2.83161e-015
v 1 0.4 -1.15506e-014
vt 5.66228e-013 15.748
vt 5.66228e-013 7.87402
f 13/19/8 17/34/8 12/35/8

v 1 0.4 -0.25
vt 9.84252 15.748
f 17/34/8 13/19/8 18/36/8

v 1 0.34 -0.25
vt 9.84252 13.3858
f 18/36/8 13/19/8 19/37/8

usemtl Water
vn -1.18276e-014 0 -1
v 1.44382e-014 0.34 -0.25
vt -6.84848e-013 13.3858
vt -39.3701 13.3858
f 13/6/9 20/38/9 19/39/9

vt -6.84848e-013 7.87402
f 20/38/9 13/6/9 15/40/9

f 3/22/5 15/32/5 13/33/5

f 15/32/5 3/22/5 14/21/5

vt 39.3701 13.3858
vn 1.18276e-014 0 1
vt 4.62927e-013 7.87402
f 2/41/10 14/42/10 3/1/10

v 2.88765e-015 0.34 -0.75
vt 4.62927e-013 13.3858
f 14/42/10 2/41/10 21/43/10

f 20/32/5 2/22/5 21/21/5

f 2/22/5 20/32/5 19/33/5

usemtl Grass
v 1.44382e-014 0.4 -0.25
vt -6.84848e-013 15.748
vn -1.18276e-014 1.46796e-024 -1
f 22/44/11 19/39/11 20/38/11

f 19/39/11 22/44/11 18/8/11

f 22/32/5 17/31/5 18/33/5

v 1.15506e-014 0.4 -0
f 17/31/5 22/32/5 23/28/5

vt -9.84252 15.748
vn -1 1.30377e-024 2.02695e-014
vt 9.21752e-027 7.87402
vt 9.21752e-027 15.748
f 22/45/12 16/46/12 23/47/12

f 16/46/12 22/45/12 15/25/12

vt -9.84252 13.3858
f 15/25/12 22/45/12 20/48/12

usemtl Water
vt -29.5276 13.3858
vn -1 0 1.33819e-014
f 21/49/13 15/25/13 20/48/13

f 15/25/13 21/49/13 14/24/13

usemtl Grass
vn -1 4.34591e-025 2.77023e-016
f 21/49/14 6/8/14 14/24/14

v 2.88765e-015 0.4 -0.75
vt -29.5276 15.748
f 6/8/14 21/49/14 24/50/14

vn 1.18276e-014 -1.46797e-024 1
vt 4.62927e-013 15.748
f 21/43/15 4/5/15 24/51/15

f 4/5/15 21/43/15 2/41/15

f 5/20/5 24/21/5 4/22/5

f 24/21/5 5/20/5 6/14/5

f 14/24/14 6/8/14 7/6/14

vn 1.17126e-014 0 1
vt 4.54747e-013 15.748
f 16/29/16 17/5/16 23/52/16

f 17/5/16 16/29/16 12/1/16

usemtl Water
vn 1 -2.36364e-024 -1.33819e-014
f 19/37/17 3/3/17 2/2/17

f 3/3/17 19/37/17 13/19/17

