# Alias OBJ Model File
# Exported from SketchUp, (c) 2000-2012 Trimble Navigation Limited
# File units = meters

mtllib towerDefense_035.mtl

g Mesh1 Group1 Model

usemtl Brick_Light
v 0.765026 0 -0.765026
vt 30.1191 7.69288e-030
vn 1 -2.55415e-031 4.89389e-015
v 0.765026 0.13 -0.234974
vt 9.25096 5.11811
v 0.765026 4.51195e-017 -0.234974
vt 9.25096 1.77636e-015
f 1/1/1 2/2/1 3/3/1

v 0.765026 0.13 -0.765026
vt 30.1191 5.11811
f 2/2/1 1/1/1 4/4/1

vt -30.1191 0
vn -1.95756e-014 0 -1
v 0.234974 0.13 -0.765026
vt -9.25096 5.11811
vt -30.1191 5.11811
f 1/5/2 5/6/2 4/7/2

v 0.234974 0 -0.765026
vt -9.25096 0
f 5/6/2 1/5/2 6/8/2

usemtl FrontColor
vt -30.1191 9.25096
vn 7.45363e-031 -1 7.6467e-017
vt -9.25096 30.1191
vt -30.1191 30.1191
f 3/9/3 6/10/3 1/11/3

v 0.234974 4.51195e-017 -0.234974
vt -9.25096 9.25096
f 6/10/3 3/9/3 7/12/3

usemtl Brick_Light
vn 1.95756e-014 0 1
vt 30.1191 1.77636e-015
f 2/4/4 7/3/4 3/13/4

v 0.234974 0.13 -0.234974
f 7/3/4 2/4/4 8/2/4

v 0.795026 0.13 -0.204974
vt -31.3002 8.06985
vn 0 -1 -0
f 9/14/5 8/12/5 2/9/5

v 0.204974 0.13 -0.204974
vt -8.06985 8.06985
f 10/15/5 8/12/5 9/14/5

v 0.204974 0.13 -0.795026
vt -8.06985 31.3002
f 8/12/5 10/15/5 11/16/5

usemtl Brick
vt -8.06985 5.11811
vn -1 1.03508e-030 -1.46817e-014
v 0.204974 0.4 -0.795026
vt -31.3002 15.748
vt -31.3002 5.11811
f 10/17/6 12/18/6 11/19/6

v 0.204974 0.4 -0.204974
vt -8.06985 15.748
f 12/18/6 10/17/6 13/20/6

vt 8.06985 5.11811
vn 1.95756e-014 -1.32121e-030 1
v 0.795026 0.4 -0.204974
vt 31.3002 15.748
vt 8.06985 15.748
f 10/21/7 14/22/7 13/23/7

vt 31.3002 5.11811
f 14/22/7 10/21/7 9/24/7

v 0.795026 0.13 -0.795026
vn 1 -2.05993e-031 4.89389e-015
f 15/24/8 14/23/8 9/21/8

v 0.795026 0.4 -0.795026
f 14/23/8 15/24/8 16/22/8

vn -1.95756e-014 -2.373e-030 -1
f 15/19/9 12/20/9 16/18/9

f 12/20/9 15/19/9 11/17/9

usemtl Brick_Light
vt -31.3002 31.3002
f 5/10/5 11/16/5 15/25/5

f 11/16/5 5/10/5 8/12/5

vn -1 7.66245e-031 -1.46817e-014
vt -9.25096 1.77636e-015
f 5/7/10 7/26/10 8/6/10

vt -30.1191 7.0885e-030
f 7/26/10 5/7/10 6/27/10

usemtl FrontColor
vt 30.1191 9.25096
vn -1.49878e-030 1 -7.6467e-017
vt 9.25096 30.1191
vt 9.25096 9.25096
f 2/28/11 5/29/11 8/30/11

vt 30.1191 30.1191
f 5/29/11 2/28/11 4/31/11

usemtl Brick_Light
f 9/14/5 2/9/5 4/11/5

f 4/11/5 15/25/5 9/14/5

f 5/10/5 15/25/5 4/11/5

usemtl Brick
vt 8.06985 31.3002
vn -7.45363e-031 1 -7.6467e-017
vt 31.3002 8.06985
vt 31.3002 31.3002
f 12/32/12 14/33/12 16/34/12

vt 8.06985 8.06985
f 14/33/12 12/32/12 13/35/12

