# Alias OBJ Model File
# Exported from SketchUp, (c) 2000-2012 Trimble Navigation Limited
# File units = meters

mtllib towerDefense_030.mtl

g Mesh1 Group2 Group1 Model

usemtl Grass
v 0.5 0.591442 -0.5
vt 11.4236 10.293
vn 0.707107 -1.39546e-016 -0.707107
v 0.705173 0.33 -0.294827
vt 2.00972e-013 1.68269e-029
v 0.5 0.33 -0.5
vt 11.4236 1.95243e-029
f 1/1/1 2/2/1 3/3/1

vt 8.07768 13.0841
vn 0.786677 0.617364 4.27726e-015
vt 2.27374e-013 3.50931e-014
v 0.705173 0.33 -0.705173
vt 16.1554 3.48505e-014
f 1/4/2 2/5/2 4/6/2

v 0.294827 0.33 -0.294827
vt -16.1554 7.00173e-014
vn 9.5301e-015 0.617364 0.786677
vt -5.68434e-014 1.40372e-013
vt -8.07768 13.0841
f 5/7/3 2/8/3 1/9/3

v 0.294827 0.33 -0.705173
vt -16.1554 16.1554
vn 0 -1 -0
vt -2.27374e-013 5.68434e-014
vt 1.13687e-013 16.1554
f 6/10/4 2/11/4 5/12/4

vt -8.07768 8.07768
f 2/11/4 6/10/4 3/13/4

vt -16.1554 0
f 4/14/4 3/13/4 6/10/4

f 3/13/4 4/14/4 2/11/4

vt 22.8471 0
vn 0.707107 0 -0.707107
vt 11.4236 0
f 6/15/5 1/1/5 3/16/5

vt 16.1554 -9.97374
vn -9.54402e-015 0.617364 -0.786677
vt 8.07768 3.1104
vt -2.27386e-013 -9.97374
f 6/17/6 1/18/6 4/19/6

vt -8.07768 3.1104
vn -0.786677 0.617364 -9.82419e-015
vt -16.1554 -9.97374
vt 2.8405e-013 -9.97374
f 1/20/7 6/21/7 5/22/7

g Mesh2 Group1 Model

usemtl Brick
v 0.294827 0.48 -0.705173
vt 11.6074 27.7627
vn -1.61308e-029 1 -1.0043e-015
v 0.204974 0.48 -0.795026
vt 8.06985 31.3002
v 0.204974 0.48 -0.705173
vt 8.06985 27.7627
f 7/23/8 8/24/8 9/25/8

v 0.294827 0.48 -0.795026
vt 11.6074 31.3002
f 8/24/8 7/23/8 10/26/8

vt 27.7627 18.8976
vn 1 1.61308e-029 -0
v 0.294827 0.4 -0.795026
vt 31.3002 15.748
vt 31.3002 18.8976
f 7/27/9 11/28/9 10/29/9

v 0.294827 0.4 -0.705173
vt 27.7627 15.748
f 11/28/9 7/27/9 12/30/9

vt 11.6074 18.8976
vn 0 1.0043e-015 1
v 0.204974 0.4 -0.705173
vt 8.06985 15.748
vt 11.6074 15.748
f 7/31/10 13/32/10 12/33/10

vt 8.06985 18.8976
f 13/32/10 7/31/10 9/34/10

vt -31.3002 18.8976
vn -1 -3.19331e-016 -1.24895e-014
vt -27.7627 15.748
vt -27.7627 18.8976
f 8/35/11 13/36/11 9/37/11

v 0.204974 0.27 -0.795026
vt -31.3002 10.6299
f 14/38/11 13/36/11 8/35/11

v 0.204974 0.4 -0.548391
vt -21.5902 15.748
f 14/38/11 15/39/11 13/36/11

v 0.204974 0.4 -0.451609
vt -17.7799 15.748
f 14/38/11 16/40/11 15/39/11

v 0.204974 0.4 -0.294827
vt -11.6074 15.748
f 14/38/11 17/41/11 16/40/11

v 0.204974 0.27 -0.204974
vt -8.06985 10.6299
f 18/42/11 17/41/11 14/38/11

v 0.204974 0.48 -0.294827
vt -11.6074 18.8976
f 18/42/11 19/43/11 17/41/11

v 0.204974 0.48 -0.204974
vt -8.06985 18.8976
f 19/43/11 18/42/11 20/44/11

vt 8.06985 10.6299
vn 1.68774e-014 3.19331e-015 1
v 0.294827 0.4 -0.204974
f 18/45/12 21/33/12 20/34/12

v 0.705173 0.4 -0.204974
f 21/33/12 18/45/12 22/30/12

v 0.795026 0.27 -0.204974
vt 31.3002 10.6299
f 23/46/12 22/30/12 18/45/12

v 0.795026 0.48 -0.204974
f 22/30/12 23/46/12 24/29/12

vn 1 -1.11766e-015 4.84217e-015
v 0.795026 0.4 -0.294827
f 23/45/13 25/33/13 24/34/13

v 0.795026 0.27 -0.795026
f 25/33/13 23/45/13 26/46/13

usemtl FrontColor
vn -1.68977e-030 1 -7.6467e-017
vt 31.3002 8.06985
vt 31.3002 31.3002
f 14/24/14 23/47/14 26/48/14

vt 8.06985 8.06985
f 23/47/14 14/24/14 18/49/14

usemtl Brick_Light
vn -1 1.04164e-030 -1.22347e-014
v 0.204974 4.51195e-017 -0.204974
vt -8.06985 1.77636e-015
f 14/38/15 27/50/15 18/42/15

v 0.204974 0 -0.795026
vt -31.3002 8.40591e-030
f 27/50/15 14/38/15 28/51/15

vn -2.20225e-014 0 -1
v 0.795026 0 -0.795026
vt -31.3002 0
vt -8.06985 0
f 14/42/16 29/52/16 28/53/16

f 29/52/16 14/42/16 26/38/16

usemtl Brick
vn -1.59831e-014 3.19331e-015 -1
f 14/42/17 11/41/17 26/38/17

f 11/41/17 14/42/17 8/44/17

f 11/41/17 8/44/17 10/43/17

v 0.451609 0.4 -0.795026
f 26/38/17 11/41/17 30/40/17

vn 1.48439e-015 1 -1.25538e-015
v 0.451609 0.4 -0.705173
vt 17.7799 27.7627
vt 17.7799 31.3002
f 11/26/18 31/54/18 30/55/18

f 31/54/18 11/26/18 12/23/18

vn 1.52672e-014 -5.30056e-015 1
v 0.294827 0.33 -0.705173
vt 11.6074 12.9921
vt 17.7799 15.748
f 12/33/19 32/56/19 31/57/19

v 0.294827 0.4 -0.548391
vt 21.5902 15.748
vn 1 -4.73578e-014 1.09586e-014
vt 27.7627 12.9921
f 33/58/20 32/59/20 12/30/20

v 0.294827 0.4 -0.451609
f 34/57/20 32/59/20 33/58/20

v 0.294827 0.4 -0.294827
f 35/33/20 32/59/20 34/57/20

v 0.294827 0.33 -0.294827
f 32/59/20 35/33/20 36/56/20

vn -1.45176e-014 7.3143e-015 -1
vt -27.7627 12.9921
vt -11.6074 12.9921
f 35/41/21 2/60/21 36/61/21

v 0.705173 0.4 -0.294827
f 2/60/21 35/41/21 37/36/21

v 0.451609 0.4 -0.294827
f 37/36/21 35/41/21 38/40/21

vt 11.6074 8.06985
vn -3.29864e-016 1 -1.50645e-015
vt 17.7799 11.6074
vt 11.6074 11.6074
f 21/62/22 38/63/22 35/64/22

v 0.451609 0.4 -0.204974
vt 17.7799 8.06985
f 38/63/22 21/62/22 39/65/22

v 0.548391 0.4 -0.204974
f 21/33/12 40/58/12 39/57/12

f 40/58/12 21/33/12 22/30/12

vt 27.7627 8.06985
vn -1.0618e-029 1 -1.0043e-015
v 0.548391 0.4 -0.294827
vt 21.5902 11.6074
vt 21.5902 8.06985
f 22/66/23 41/67/23 40/68/23

vt 27.7627 11.6074
f 41/67/23 22/66/23 37/69/23

vt -8.06985 15.748
vn -1 -1.61379e-029 1.60688e-014
v 0.705173 0.48 -0.294827
f 22/70/24 42/43/24 37/41/24

v 0.705173 0.48 -0.204974
f 42/43/24 22/70/24 43/44/24

f 22/30/12 24/29/12 43/27/12

v 0.795026 0.48 -0.294827
vt 31.3002 11.6074
vn -3.22758e-029 1 -1.0043e-015
f 44/71/25 43/66/25 24/47/25

f 43/66/25 44/71/25 42/69/25

vt -31.3002 15.748
vn 0 -1.0043e-015 -1
f 25/72/26 42/37/26 44/35/26

f 42/37/26 25/72/26 37/36/26

vn 0 1 -0
v 0.705173 0.4 -0.451609
vt 27.7627 17.7799
f 25/71/27 45/73/27 37/69/27

v 0.795026 0.4 -0.451609
vt 31.3002 17.7799
f 45/73/27 25/71/27 46/74/27

f 25/33/13 26/46/13 46/57/13

v 0.795026 0.4 -0.548391
f 46/57/13 26/46/13 47/58/13

v 0.795026 0.4 -0.705173
f 47/58/13 26/46/13 48/30/13

v 0.795026 0.48 -0.705173
f 48/30/13 26/46/13 49/27/13

v 0.795026 0.48 -0.795026
f 49/27/13 26/46/13 50/29/13

v 0.705173 0.4 -0.795026
f 26/38/17 51/36/17 50/35/17

v 0.548391 0.4 -0.795026
f 51/36/17 26/38/17 52/39/17

f 52/39/17 26/38/17 30/40/17

v 0.451609 0.48 -0.795026
vt -17.7799 18.8976
f 53/75/17 52/39/17 30/40/17

v 0.548391 0.48 -0.795026
vt -21.5902 18.8976
f 52/39/17 53/75/17 54/76/17

vn 9.89591e-016 1 -2.51075e-015
v 0.548391 0.48 -0.705173
vt 21.5902 27.7627
vt 21.5902 31.3002
f 53/55/28 55/77/28 54/78/28

v 0.451609 0.48 -0.705173
f 55/77/28 53/55/28 56/54/28

vn -1 9.89591e-016 -1.60688e-014
f 53/35/29 31/36/29 56/37/29

f 31/36/29 53/35/29 30/72/29

v 0.548391 0.4 -0.705173
vt 17.7799 18.8976
f 57/58/19 56/79/19 31/57/19

vt 21.5902 18.8976
f 56/79/19 57/58/19 55/80/19

vn 1 -9.89591e-016 1.60688e-014
f 52/28/30 55/27/30 57/30/30

f 55/27/30 52/28/30 54/29/30

v 0.705173 0.4 -0.705173
vt 27.7627 27.7627
vn -2.80384e-015 1 -1.75753e-015
f 58/81/31 52/78/31 57/77/31

vt 27.7627 31.3002
f 52/78/31 58/81/31 51/82/31

vn -1 5.0215e-016 -0
v 0.705173 0.48 -0.795026
f 58/36/32 59/35/32 51/72/32

v 0.705173 0.48 -0.705173
f 59/35/32 58/36/32 60/37/32

vn 0 5.0215e-016 1
f 58/30/33 49/29/33 60/27/33

f 49/29/33 58/30/33 48/28/33

v 0.705173 0.4 -0.548391
vt 27.7627 21.5902
vt 31.3002 27.7627
f 61/83/27 48/84/27 58/81/27

vt 31.3002 21.5902
f 48/84/27 61/83/27 47/85/27

v 0.705173 0.48 -0.548391
vn 0 0 -1
f 62/37/34 47/72/34 61/36/34

v 0.795026 0.48 -0.548391
f 47/72/34 62/37/34 63/35/34

v 0.795026 0.48 -0.451609
f 62/83/27 64/74/27 63/85/27

v 0.705173 0.48 -0.451609
f 64/74/27 62/83/27 65/73/27

vn -1 1.69837e-029 -5.27782e-015
f 62/76/35 45/40/35 65/75/35

f 61/39/35 45/40/35 62/76/35

f 4/60/35 45/40/35 61/39/35

f 2/61/35 45/40/35 4/60/35

f 45/40/35 2/61/35 37/41/35

usemtl FrontColor
vn 1.73613e-017 1 -2.60419e-016
f 32/23/36 2/69/36 4/81/36

f 2/69/36 32/23/36 36/64/36

usemtl Brick
vn 1 -3.1026e-014 1.00097e-014
v 0.294827 0.28 -0.705173
vt 27.7627 11.0236
f 36/56/37 66/86/37 32/59/37

v 0.294827 0.28 -0.294827
vt 11.6074 11.0236
f 66/86/37 36/56/37 67/87/37

vn -1.45595e-014 4.59644e-015 -1
v 0.705173 0.28 -0.294827
vt -27.7627 11.0236
vt -11.6074 11.0236
f 36/61/38 68/88/38 67/89/38

f 68/88/38 36/61/38 2/60/38

vn -1 2.40965e-029 -5.27782e-015
f 4/60/39 68/89/39 2/61/39

v 0.705173 0.28 -0.705173
f 68/89/39 4/60/39 69/88/39

vn 1.45595e-014 -4.59644e-015 1
f 4/59/40 66/87/40 69/86/40

f 66/87/40 4/59/40 32/56/40

f 58/30/19 32/56/19 4/59/19

f 32/56/19 58/30/19 31/57/19

f 31/57/19 58/30/19 57/58/19

f 4/60/35 61/39/35 58/36/35

vn -3.09457e-030 1 -2.19909e-016
f 66/23/41 68/69/41 69/81/41

f 68/69/41 66/23/41 67/64/41

vn 0 0 1
f 45/30/42 64/29/42 65/27/42

f 64/29/42 45/30/42 46/28/42

f 46/57/13 47/58/13 64/79/13

f 63/80/13 64/79/13 47/58/13

vn 5.0215e-016 1 -5.0215e-016
f 49/84/43 59/82/43 60/81/43

f 59/82/43 49/84/43 50/48/43

f 50/35/17 51/36/17 59/37/17

f 44/31/13 24/34/13 25/33/13

f 37/36/21 38/40/21 41/39/21

v 0.451609 0.48 -0.294827
f 70/75/21 41/39/21 38/40/21

v 0.548391 0.48 -0.294827
f 41/39/21 70/75/21 71/76/21

vn 3.29864e-016 1 -1.50645e-015
v 0.548391 0.48 -0.204974
f 70/63/44 72/68/44 71/67/44

v 0.451609 0.48 -0.204974
f 72/68/44 70/63/44 73/65/44

vn -1 3.29864e-016 -1.60688e-014
f 70/43/45 39/70/45 73/44/45

f 39/70/45 70/43/45 38/41/45

f 39/57/12 72/80/12 73/79/12

f 39/57/12 40/58/12 72/80/12

vn 1 -3.29864e-016 3.9443e-031
f 41/33/46 72/34/46 40/32/46

f 72/34/46 41/33/46 71/31/46

vn 1 8.10458e-030 -8.0344e-015
v 0.294827 0.48 -0.204974
f 35/33/47 74/34/47 21/32/47

v 0.294827 0.48 -0.294827
f 74/34/47 35/33/47 75/31/47

f 35/41/26 19/44/26 75/43/26

f 19/44/26 35/41/26 17/70/26

vt 8.06985 17.7799
vt 8.06985 11.6074
f 35/64/27 16/90/27 17/91/27

vt 11.6074 17.7799
f 16/90/27 35/64/27 34/92/27

v 0.294827 0.48 -0.451609
f 76/31/42 16/32/42 34/33/42

v 0.204974 0.48 -0.451609
f 16/32/42 76/31/42 77/34/42

v 0.204974 0.48 -0.548391
vt 8.06985 21.5902
f 76/92/27 78/93/27 77/90/27

v 0.294827 0.48 -0.548391
vt 11.6074 21.5902
f 78/93/27 76/92/27 79/94/27

f 79/80/20 76/79/20 33/58/20

f 34/57/20 33/58/20 76/79/20

vn -6.42752e-014 0 -1
f 33/41/48 78/44/48 79/43/48

f 78/44/48 33/41/48 15/70/48

f 33/94/27 13/25/27 15/93/27

f 13/25/27 33/94/27 12/23/27

f 15/39/11 16/40/11 78/76/11

f 78/76/11 16/40/11 77/75/11

vn -1.61735e-029 1 -1.0043e-015
f 19/91/49 74/62/49 75/64/49

f 74/62/49 19/91/49 20/49/49

f 20/34/12 21/33/12 74/31/12

usemtl Brick_Light
vn 1 -2.90017e-031 5.50562e-015
vt 31.3002 9.07758e-030
f 23/45/50 29/95/50 26/46/50

v 0.795026 4.51195e-017 -0.204974
vt 8.06985 1.77636e-015
f 29/95/50 23/45/50 80/96/50

vn 2.20225e-014 0 1
vt 31.3002 1.77636e-015
f 23/46/51 27/96/51 80/97/51

f 27/96/51 23/46/51 18/45/51

usemtl FrontColor
vt -8.06985 31.3002
vn 7.45363e-031 -1 7.6467e-017
vt -31.3002 8.06985
vt -8.06985 8.06985
f 28/98/52 80/99/52 27/100/52

vt -31.3002 31.3002
f 80/99/52 28/98/52 29/101/52

