# Alias OBJ Model File
# Exported from SketchUp, (c) 2000-2012 Trimble Navigation Limited
# File units = meters

mtllib towerDefense_017.mtl

g Mesh1 Group1 Model

usemtl Brick_Light
v 0.204974 0.4 -0.204974
vt 8.06985 8.06985
vn 5.93014e-016 1 -5.93014e-016
v 0.243017 0.4 -0.243017
vt 9.56759 9.56759
v 0.204974 0.4 -0.243017
vt 8.06985 9.56759
f 1/1/1 2/2/1 3/3/1

v 0.243017 0.4 -0.204974
vt 9.56759 8.06985
f 2/2/1 1/1/1 4/4/1

vt 8.06985 15.748
vn 1.83615e-014 -1.1965e-015 1
v 0.243017 0.3 -0.204974
vt 9.56759 11.811
vt 9.56759 15.748
f 1/5/2 5/6/2 4/7/2

v 0.243017 0.2 -0.204974
vt 9.56759 7.87402
f 1/5/2 6/8/2 5/6/2

v 0.243017 0.1 -0.204974
vt 9.56759 3.93701
f 1/5/2 7/9/2 6/8/2

v 0.204974 4.51195e-017 -0.204974
vt 8.06985 -7.87923e-015
f 8/10/2 7/9/2 1/5/2

v 0.281059 0.1 -0.204974
vt 11.0653 3.93701
f 8/10/2 9/11/2 7/9/2

v 0.281059 4.51195e-017 -0.204974
vt 11.0653 -7.87923e-015
f 9/11/2 8/10/2 10/12/2

usemtl Brick
vt -8.06985 8.06985
vn 7.45363e-031 -1 7.6467e-017
v 0.204974 0 -0.795026
vt -8.06985 31.3002
vt -11.0653 8.06985
f 8/13/3 11/14/3 10/15/3

v 0.204974 0 -0.718941
vt -8.06985 28.3048
f 8/13/3 12/16/3 11/14/3

v 0.204974 4.51195e-017 -0.281059
vt -8.06985 11.0653
f 12/16/3 8/13/3 13/17/3

usemtl Brick_Light
vt -8.06985 -4.05141e-014
vn -1 -5.24054e-015 6.18491e-014
v 0.204974 0.1 -0.243017
vt -9.56759 3.93701
vt -11.0653 -4.05141e-014
f 8/18/4 14/19/4 13/20/4

vt -9.56759 15.748
f 8/18/4 3/21/4 14/19/4

vt -8.06985 15.748
f 3/21/4 8/18/4 1/22/4

v 0.204974 0.3 -0.243017
vt -9.56759 11.811
f 14/19/4 3/21/4 15/23/4

usemtl Brick
v 0.204974 0.4 -0.756983
vt -29.8025 15.748
vn -1 -2.0626e-016 -1.50022e-014
f 16/24/5 15/23/5 3/21/5

v 0.204974 0.3 -0.281059
vt -11.0653 11.811
f 15/23/5 16/24/5 17/25/5

v 0.204974 0.2 -0.281059
vt -11.0653 7.87402
f 17/25/5 16/24/5 18/26/5

v 0.204974 0.1 -0.281059
vt -11.0653 3.93701
f 18/26/5 16/24/5 19/27/5

vt -11.0653 1.11865e-016
f 19/27/5 16/24/5 13/28/5

v 0.204974 0.3 -0.718941
vt -28.3048 11.811
f 13/28/5 16/24/5 20/29/5

v 0.204974 0.3 -0.756983
vt -29.8025 11.811
f 20/29/5 16/24/5 21/30/5

usemtl Brick_Light
v 0.204974 0.4 -0.795026
vt -31.3002 15.748
vn -1 4.30232e-031 -7.59057e-014
f 22/31/6 21/30/6 16/24/6

v 0.204974 0.2 -0.756983
vt -29.8025 7.87402
f 21/30/6 22/31/6 23/32/6

v 0.204974 0.1 -0.756983
vt -29.8025 3.93701
f 23/32/6 22/31/6 24/33/6

vt -31.3002 3.47191e-030
f 11/34/6 24/33/6 22/31/6

vt -28.3048 3.47191e-030
f 12/35/6 24/33/6 11/34/6

v 0.204974 0.1 -0.718941
vt -28.3048 3.93701
f 24/33/6 12/35/6 25/36/6

usemtl Brick
vt -28.3048 -1.66449e-015
v 0.204974 0.2 -0.718941
vt -28.3048 7.87402
f 12/37/5 26/38/5 25/36/5

f 12/37/5 20/29/5 26/38/5

f 20/29/5 12/37/5 13/28/5

usemtl Brick_Light
f 21/30/6 26/38/6 20/29/6

f 26/38/6 21/30/6 23/32/6

usemtl Brick
f 23/32/5 25/36/5 26/38/5

f 25/36/5 23/32/5 24/33/5

usemtl Brick_Light
v 0.243017 0.1 -0.795026
vn -2.09092e-014 8.28861e-016 -1
vt -8.06985 -2.59435e-014
f 27/19/7 11/39/7 22/22/7

v 0.281059 0 -0.795026
vt -11.0653 -2.59435e-014
f 11/39/7 27/19/7 28/40/7

v 0.281059 0.1 -0.795026
f 29/27/7 28/40/7 27/19/7

usemtl Brick
vn -2.83389e-014 2.70717e-016 -1
v 0.718941 0 -0.795026
vt -28.3048 -8.4735e-015
vt -11.0653 -8.4735e-015
f 29/27/8 30/41/8 28/42/8

v 0.718941 0.1 -0.795026
f 30/41/8 29/27/8 31/36/8

v 0.243017 0.2 -0.795026
vt -9.56759 7.87402
f 29/27/8 32/43/8 31/36/8

f 32/43/8 29/27/8 27/19/8

usemtl Brick_Light
f 27/19/7 22/22/7 32/43/7

v 0.281059 0.2 -0.795026
f 32/43/7 22/22/7 33/26/7

v 0.243017 0.3 -0.795026
f 33/26/7 22/22/7 34/23/7

v 0.243017 0.4 -0.795026
f 34/23/7 22/22/7 35/21/7

vt 8.06985 31.3002
vn 0 1 -0
v 0.243017 0.4 -0.756983
vt 9.56759 29.8025
vt 9.56759 31.3002
f 22/44/9 36/45/9 35/46/9

vt 8.06985 29.8025
f 36/45/9 22/44/9 16/47/9

usemtl Brick
vn -1.15166e-016 1 -2.26139e-016
f 16/47/10 2/2/10 36/45/10

f 2/2/10 16/47/10 3/3/10

v 0.756983 0.4 -0.204974
vt 29.8025 8.06985
f 2/2/10 37/48/10 36/45/10

f 37/48/10 2/2/10 4/4/10

vn 2.32543e-014 -2.8103e-015 1
vt 29.8025 15.748
f 5/6/11 37/49/11 4/7/11

v 0.281059 0.3 -0.204974
vt 11.0653 11.811
f 38/50/11 37/49/11 5/6/11

v 0.718941 0.3 -0.204974
vt 28.3048 11.811
f 39/51/11 37/49/11 38/50/11

v 0.756983 0.3 -0.204974
vt 29.8025 11.811
f 37/49/11 39/51/11 40/52/11

usemtl Brick_Light
vn 2.27542e-014 -1.31682e-015 1
v 0.718941 0.2 -0.204974
vt 28.3048 7.87402
f 39/51/12 41/53/12 40/52/12

usemtl Brick
f 38/50/11 41/53/11 39/51/11

v 0.281059 0.2 -0.204974
vt 11.0653 7.87402
f 42/54/11 41/53/11 38/50/11

v 0.756983 0.2 -0.204974
vt 29.8025 7.87402
f 42/54/11 43/55/11 41/53/11

f 7/9/11 43/55/11 42/54/11

f 9/11/11 43/55/11 7/9/11

v 0.718941 0.1 -0.204974
vt 28.3048 3.93701
f 44/56/11 43/55/11 9/11/11

v 0.756983 0.1 -0.204974
vt 29.8025 3.93701
f 43/55/11 44/56/11 45/57/11

usemtl Brick_Light
v 0.718941 4.51195e-017 -0.204974
vt 28.3048 -8.85019e-015
f 44/56/12 46/58/12 45/57/12

usemtl Brick
vt 11.0653 -2.09023e-014
vt 28.3048 -2.09023e-014
f 44/56/11 10/59/11 46/60/11

f 10/59/11 44/56/11 9/11/11

vt -11.0653 31.3002
vt -28.3048 8.06985
f 10/15/3 28/61/3 46/62/3

f 10/15/3 11/14/3 28/61/3

vt -28.3048 31.3002
f 46/62/3 28/61/3 30/63/3

v 0.795026 4.51195e-017 -0.204974
vt -31.3002 8.06985
f 46/62/3 30/63/3 47/64/3

v 0.795026 4.51195e-017 -0.281059
vt -31.3002 11.0653
f 47/64/3 30/63/3 48/65/3

v 0.795026 0 -0.718941
vt -31.3002 28.3048
f 48/65/3 30/63/3 49/66/3

v 0.795026 0 -0.795026
vt -31.3002 31.3002
f 50/67/3 49/66/3 30/63/3

usemtl Brick_Light
vt 31.3002 1.20512e-013
vn 1 -3.85019e-015 5.06038e-014
v 0.795026 0.1 -0.718941
vt 28.3048 1.20512e-013
f 50/68/13 51/56/13 49/69/13

v 0.795026 0.1 -0.756983
f 51/56/13 50/68/13 52/57/13

v 0.795026 0.2 -0.756983
f 52/57/13 50/68/13 53/55/13

v 0.795026 0.3 -0.756983
f 53/55/13 50/68/13 54/52/13

v 0.795026 0.4 -0.756983
f 54/52/13 50/68/13 55/49/13

v 0.795026 0.4 -0.795026
vt 31.3002 15.748
f 55/49/13 50/68/13 56/70/13

vt -31.3002 2.57343e-014
vn -2.10849e-015 -8.22177e-016 -1
v 0.756983 0.1 -0.795026
f 50/71/14 57/33/14 56/31/14

f 50/71/14 31/36/14 57/33/14

vt -28.3048 2.57343e-014
f 31/36/14 50/71/14 30/72/14

usemtl Brick
f 31/36/8 32/43/8 57/33/8

v 0.756983 0.2 -0.795026
f 57/33/8 32/43/8 58/32/8

f 58/32/8 32/43/8 33/26/8

v 0.718941 0.2 -0.795026
f 58/32/8 33/26/8 59/38/8

v 0.281059 0.3 -0.795026
f 60/25/8 59/38/8 33/26/8

v 0.718941 0.3 -0.795026
f 59/38/8 60/25/8 61/29/8

f 60/25/8 35/21/8 61/29/8

f 35/21/8 60/25/8 34/23/8

usemtl Brick_Light
f 60/25/7 33/26/7 34/23/7

usemtl Brick
v 0.756983 0.3 -0.795026
f 61/29/8 35/21/8 62/30/8

v 0.756983 0.4 -0.795026
f 62/30/8 35/21/8 63/24/8

v 0.756983 0.4 -0.243017
vt 29.8025 9.56759
vt 29.8025 31.3002
f 35/46/10 64/73/10 63/74/10

f 35/46/10 37/48/10 64/73/10

f 36/45/10 37/48/10 35/46/10

usemtl Brick_Light
v 0.795026 0.4 -0.204974
vt 31.3002 8.06985
f 65/75/9 64/73/9 37/48/9

v 0.795026 0.4 -0.243017
vt 31.3002 9.56759
f 64/73/9 65/75/9 66/76/9

v 0.795026 0.1 -0.243017
vn 1 -5.66834e-015 -4.07642e-014
f 67/9/15 66/7/15 65/5/15

v 0.795026 0.2 -0.243017
f 66/7/15 67/9/15 68/8/15

usemtl Brick
v 0.795026 0.1 -0.281059
vn 1 -5.4659e-015 3.4641e-015
f 69/11/16 68/8/16 67/9/16

v 0.795026 0.2 -0.281059
f 68/8/16 69/11/16 70/54/16

vt 28.3048 1.71084e-013
f 69/11/16 49/77/16 70/54/16

vt 11.0653 1.7286e-013
f 49/77/16 69/11/16 48/78/16

usemtl Brick_Light
vt 11.0653 1.79197e-013
f 67/9/15 48/79/15 69/11/15

vt 8.06985 1.79197e-013
f 67/9/15 47/80/15 48/79/15

f 47/80/15 67/9/15 65/5/15

vt 31.3002 -8.85019e-015
f 45/57/12 47/81/12 65/70/12

f 47/81/12 45/57/12 46/58/12

f 45/57/12 65/70/12 43/55/12

f 43/55/12 65/70/12 41/53/12

f 41/53/12 65/70/12 40/52/12

f 40/52/12 65/70/12 37/49/12

usemtl Brick
v 0.795026 0.145669 -0.40055
vt 15.7697 5.73499
f 70/54/16 49/77/16 71/82/16

v 0.795026 0.145669 -0.50055
vt 19.7067 5.73499
f 71/82/16 49/77/16 72/83/16

v 0.795026 0.195669 -0.50055
vt 19.7067 7.7035
f 72/83/16 49/77/16 73/84/16

v 0.795026 0.130091 -0.586558
vt 23.0928 5.1217
f 73/84/16 49/77/16 74/85/16

v 0.795026 0.130091 -0.636558
vt 25.0613 5.1217
f 74/85/16 49/77/16 75/86/16

v 0.795026 0.170091 -0.636558
vt 25.0613 6.6965
f 75/86/16 49/77/16 76/87/16

v 0.795026 0.3 -0.718941
f 77/51/16 76/87/16 49/77/16

f 55/49/16 76/87/16 77/51/16

v 0.795026 0.245337 -0.613016
vt 24.1345 9.65894
f 55/49/16 78/88/16 76/87/16

v 0.795026 0.245337 -0.533016
vt 20.9849 9.65894
f 55/49/16 79/89/16 78/88/16

v 0.795026 0.195669 -0.40055
vt 15.7697 7.7035
f 55/49/16 80/90/16 79/89/16

v 0.795026 0.3 -0.281059
f 55/49/16 81/50/16 80/90/16

f 66/7/16 81/50/16 55/49/16

v 0.795026 0.3 -0.243017
f 81/50/16 66/7/16 82/6/16

usemtl Brick_Light
f 66/7/15 68/8/15 82/6/15

f 70/54/15 82/6/15 68/8/15

f 82/6/15 70/54/15 81/50/15

usemtl Brick
f 70/54/16 71/82/16 81/50/16

f 80/90/16 81/50/16 71/82/16

usemtl Grey
vn 1 0 -0
f 72/83/17 80/90/17 71/82/17

f 80/90/17 72/83/17 73/84/17

usemtl Brick
f 79/89/16 80/90/16 73/84/16

v 0.795026 0.205337 -0.533016
vt 20.9849 8.08413
f 79/89/16 73/84/16 83/91/16

f 73/84/16 74/85/16 83/91/16

v 0.795026 0.170091 -0.586558
vt 23.0928 6.6965
f 84/92/16 83/91/16 74/85/16

v 0.795026 0.205337 -0.613016
vt 24.1345 8.08413
f 83/91/16 84/92/16 85/93/16

f 85/93/16 84/92/16 76/87/16

usemtl Grey
f 84/92/17 75/86/17 76/87/17

f 75/86/17 84/92/17 74/85/17

usemtl Brick
f 85/93/16 76/87/16 78/88/16

usemtl Grey
f 79/89/17 85/93/17 78/88/17

f 85/93/17 79/89/17 83/91/17

usemtl Brick
v 0.756983 0.4 -0.756983
vt 29.8025 29.8025
vt 31.3002 29.8025
f 86/94/10 66/76/10 55/95/10

f 66/76/10 86/94/10 64/73/10

f 63/74/10 64/73/10 86/94/10

usemtl Brick_Light
vn 1.77904e-015 1 -5.93014e-016
f 55/95/18 63/74/18 86/94/18

vt 31.3002 31.3002
f 63/74/18 55/95/18 56/96/18

f 56/31/14 62/30/14 63/24/14

f 56/31/14 58/32/14 62/30/14

f 56/31/14 57/33/14 58/32/14

f 62/30/14 58/32/14 61/29/14

f 61/29/14 58/32/14 59/38/14

usemtl Brick
f 55/49/16 77/51/16 54/52/16

usemtl Brick_Light
f 77/51/13 53/55/13 54/52/13

v 0.795026 0.2 -0.718941
f 53/55/13 77/51/13 87/53/13

usemtl Brick
f 77/51/16 51/56/16 87/53/16

f 77/51/16 49/77/16 51/56/16

f 52/57/16 87/53/16 51/56/16

f 87/53/16 52/57/16 53/55/16

f 6/8/11 7/9/11 42/54/11

usemtl Brick_Light
f 38/50/2 6/8/2 42/54/2

f 5/6/2 6/8/2 38/50/2

f 13/20/4 14/19/4 19/27/4

usemtl Brick
f 14/19/5 18/26/5 19/27/5

v 0.204974 0.2 -0.243017
f 18/26/5 14/19/5 88/43/5

usemtl Brick_Light
f 14/19/4 15/23/4 88/43/4

f 17/25/4 88/43/4 15/23/4

f 88/43/4 17/25/4 18/26/4

