# Alias OBJ Model File
# Exported from SketchUp, (c) 2000-2012 Trimble Navigation Limited
# File units = meters

mtllib towerDefense_101.mtl

g Mesh1 Group1 Model

usemtl Dirt
v 4.33147e-014 0 -1
vt -1.7053e-012 39.3701
vn 0 -1 -0
v 1 0 -0
vt -39.3701 0
v 0 0 -3.46517e-014
vt 0 1.36424e-012
f 1/1/1 2/2/1 3/3/1

v 1 0 -1
vt -39.3701 39.3701
f 2/2/1 1/1/1 4/4/1

v 4.33147e-014 0.2 -1
vt -2.12621e-013 7.87402
vn 3.79141e-014 0 -1
vt -2.12621e-013 0
f 5/5/2 4/2/2 1/6/2

v 1 0.2 -1
vt -39.3701 7.87402
f 4/2/2 5/5/2 6/7/2

v 0.125 0.2 -1
vt -4.92126 7.87402
f 6/7/2 5/5/2 7/8/2

usemtl Grass
v 4.33147e-014 0.4 -1
vt -2.1081e-012 15.748
vn -1.02311e-014 3.80472e-028 -1
vt -2.1081e-012 7.87402
f 8/9/3 7/8/3 5/10/3

v 0.125 0.37 -1
vt -4.92126 14.5669
f 7/8/3 8/9/3 9/11/3

v 0.125 0.4 -1
vt -4.92126 15.748
f 9/11/3 8/9/3 10/12/3

v 4.47585e-014 0.4 -0.875
vt 1.75506e-012 34.4488
vn 4.49909e-016 1 3.45717e-017
vt 4.92126 39.3701
vt 1.69822e-012 39.3701
f 11/13/4 10/14/4 8/15/4

v 0.0163158 0.4 -0.876069
vt 0.642353 34.4909
f 10/14/4 11/13/4 12/16/4

usemtl Dirt
v 4.47585e-014 0.37 -0.875
vt 2.25306 14.5669
vn 0.0654031 -1.64208e-017 0.997859
vt 2.89679 15.748
vn 0.130526 -1.36283e-017 0.991445
vt 2.25306 15.748
f 13/17/5 12/18/6 11/19/5

v 0.0163158 0.37 -0.876069
vt 2.89679 14.5669
f 12/18/6 13/17/5 14/20/6

vt 1.76274e-012 34.4488
vn -4.09948e-017 1 1.9143e-017
v 0.11421 0.37 -0.132486
vt 4.49647 5.21597
f 13/21/7 15/22/7 14/16/7

v 1.01068e-014 0.37 -0.125
vt 3.98501e-013 4.92126
f 15/22/7 13/21/7 16/23/7

vt -34.4488 14.5669
vn -1 1.69862e-014 -4.36716e-014
v 7.21911e-015 0.2 -0.125
f 13/24/8 17/8/8 16/11/8

v 4.18709e-014 0.2 -0.875
vt -34.4488 7.87402
f 17/8/8 13/24/8 18/25/8

usemtl Grass
vn -1 8.23135e-015 9.94198e-016
vt -39.3701 15.748
f 13/24/9 8/26/9 18/25/9

vt -34.4488 15.748
f 8/26/9 13/24/9 11/27/9

f 18/25/9 8/26/9 5/7/9

usemtl Dirt
vt 1.64846e-012 34.4488
vn 0 1 -0
v 1 0.2 -0
vt 39.3701 0
vt 1.7053e-012 39.3701
f 18/28/10 19/29/10 5/30/10

vt 2.84217e-013 4.92126
f 17/31/10 19/29/10 18/28/10

v 0 0.2 -3.46517e-014
f 19/29/10 17/31/10 20/3/10

usemtl Grass
vt -1.36424e-012 7.87402
vn -1 8.23135e-015 -7.29367e-014
v 1.01068e-014 0.4 -0.125
f 20/32/11 21/12/11 17/8/11

v 0 0.4 -3.46517e-014
vt -1.36424e-012 15.748
f 21/12/11 20/32/11 22/33/11

vt -5.1724e-026 7.87402
vn -3.79141e-014 0 1
v 1 0.4 -0
vt 39.3701 15.748
vt -5.1724e-026 15.748
f 20/34/12 23/35/12 22/36/12

vt 39.3701 7.87402
f 23/35/12 20/34/12 19/37/12

usemtl Dirt
vt -5.1724e-026 0
f 3/38/12 19/37/12 20/34/12

f 19/37/12 3/38/12 2/29/12

vn 1 0 3.79141e-014
vt 1.49268e-012 7.87402
vt 1.49268e-012 0
f 4/29/13 19/39/13 2/40/13

f 19/39/13 4/29/13 6/37/13

v 0.875 0.2 -1
vt 34.4488 39.3701
vt 39.3701 39.3701
f 24/41/10 19/29/10 6/42/10

f 7/14/10 19/29/10 24/41/10

f 5/30/10 19/29/10 7/14/10

f 6/7/2 7/8/2 24/25/2

vn 3.59712e-014 0 -1
f 9/11/14 24/25/14 7/8/14

v 0.875 0.37 -1
f 24/25/14 9/11/14 25/24/14

v 0.226467 0.37 -0.154815
vt 8.91601 6.09507
f 9/14/7 26/43/7 25/41/7

v 0.123931 0.37 -0.983684
vt 4.87916 38.7277
f 27/44/7 26/43/7 9/14/7

v 0.120741 0.37 -0.967648
vt 4.75357 38.0964
f 28/45/7 26/43/7 27/44/7

v 0.115485 0.37 -0.952165
vt 4.54665 37.4868
f 29/46/7 26/43/7 28/45/7

f 29/46/7 15/22/7 26/43/7

v 0.108253 0.37 -0.9375
vt 4.26194 36.9094
f 30/47/7 15/22/7 29/46/7

v 0.0991692 0.37 -0.923905
vt 3.9043 36.3742
f 31/48/7 15/22/7 30/47/7

v 0.0883883 0.37 -0.911612
vt 3.47986 35.8902
f 32/49/7 15/22/7 31/48/7

v 0.0760952 0.37 -0.900831
vt 2.99587 35.4658
f 33/50/7 15/22/7 32/49/7

v 0.0625 0.37 -0.891747
vt 2.46063 35.1081
f 34/51/7 15/22/7 33/50/7

v 0.0478354 0.37 -0.884515
vt 1.88328 34.8234
f 35/52/7 15/22/7 34/51/7

v 0.0323524 0.37 -0.879259
vt 1.27372 34.6165
f 36/53/7 15/22/7 35/52/7

f 14/16/7 15/22/7 36/53/7

v 0.0323524 0.4 -0.879259
vt 8.00259 15.748
vn 0.258819 -7.8805e-018 0.965926
vt 7.35886 14.5669
vt 8.00259 14.5669
f 37/54/15 14/55/6 36/56/15

vt 7.35886 15.748
f 14/55/6 37/54/15 12/57/6

usemtl Grass
f 10/14/4 12/16/4 37/53/4

v 0.0478354 0.4 -0.884515
f 10/14/4 37/53/4 38/52/4

usemtl Dirt
vt 12.3332 14.5669
vt 12.977 15.748
vn 0.382683 -1.99781e-018 0.92388
vt 12.3332 15.748
f 36/58/15 38/59/16 37/60/15

vt 12.977 14.5669
f 38/59/16 36/58/15 35/61/16

vt 17.0911 14.5669
v 0.0625 0.4 -0.891747
vt 17.7348 15.748
vn 0.5 3.91906e-018 0.866025
vt 17.0911 15.748
f 35/62/16 39/63/17 38/64/16

vt 17.7348 14.5669
f 39/63/17 35/62/16 34/65/17

vt 21.551 14.5669
v 0.0760952 0.4 -0.900831
vt 22.1947 15.748
vn 0.608761 9.76887e-018 0.793353
vt 21.551 15.748
f 34/66/17 40/67/18 39/68/17

vt 22.1947 14.5669
f 40/67/18 34/66/17 33/69/18

vt 25.6366 14.5669
v 0.0883883 0.4 -0.911612
vt 26.2804 15.748
vn 0.707107 1.54515e-017 0.707107
vt 25.6366 15.748
f 33/70/18 41/71/19 40/72/18

vt 26.2804 14.5669
f 41/71/19 33/70/18 32/73/19

vt 29.9219 14.5669
vn 0.793353 2.08698e-017 0.608761
vt 29.2781 15.748
vt 29.2781 14.5669
f 31/74/20 41/75/19 32/76/19

v 0.0991692 0.4 -0.923905
vt 29.9219 15.748
f 41/75/19 31/74/20 42/77/20

vt 33.0569 14.5669
vn 0.866025 2.5931e-017 0.5
vt 32.4132 15.748
vt 32.4132 14.5669
f 30/78/21 42/79/20 31/80/20

v 0.108253 0.4 -0.9375
vt 33.0569 15.748
f 42/79/20 30/78/21 43/81/21

vt 35.6318 14.5669
vn 0.92388 3.05485e-017 0.382683
vt 34.9881 15.748
vt 34.9881 14.5669
f 29/82/22 43/83/21 30/84/21

v 0.115485 0.4 -0.952165
vt 35.6318 15.748
f 43/83/21 29/82/22 44/85/22

vt 37.6026 14.5669
vn 0.965926 3.46433e-017 0.258819
vt 36.9588 15.748
vt 36.9588 14.5669
f 28/86/23 44/87/22 29/88/22

v 0.120741 0.4 -0.967648
vt 37.6026 15.748
f 44/87/22 28/86/23 45/89/23

vt 38.9355 14.5669
vn 0.991445 3.81454e-017 0.130526
vt 38.2917 15.748
vt 38.2917 14.5669
f 27/90/24 45/91/23 28/92/23

v 0.123931 0.4 -0.983684
vt 38.9355 15.748
f 45/91/23 27/90/24 46/93/24

vt 39.6077 14.5669
vn 0.997859 3.9655e-017 0.0654031
vt 38.9639 15.748
vt 38.9639 14.5669
f 9/94/25 46/95/24 27/96/24

vt 39.6077 15.748
f 46/95/24 9/94/25 10/97/25

usemtl Grass
f 10/14/4 45/45/4 46/44/4

f 10/14/4 44/46/4 45/45/4

f 10/14/4 43/47/4 44/46/4

f 10/14/4 42/48/4 43/47/4

f 10/14/4 41/49/4 42/48/4

f 10/14/4 40/50/4 41/49/4

f 10/14/4 39/51/4 40/50/4

f 10/14/4 38/52/4 39/51/4

usemtl Dirt
v 0.11421 0.4 -0.132486
vt -5.42766 15.748
vn -0.130526 1.36283e-017 -0.991445
vt -9.93378 14.5669
vn -0.258819 7.8805e-018 -0.965926
vt -5.42766 14.5669
f 47/98/26 26/99/27 15/100/26

v 0.226467 0.4 -0.154815
vt -9.93378 15.748
f 26/99/27 47/98/26 48/101/27

usemtl Grass
vn -1.38496e-017 1 4.79359e-017
vt 39.3701 7.54896e-016
f 47/22/28 23/102/28 48/43/28

vt 3.98122e-013 4.92126
f 21/103/28 23/102/28 47/22/28

vt 2.18104e-016 1.365e-012
f 23/102/28 21/103/28 22/104/28

usemtl Dirt
vt -4.82799 14.5669
vt -0.321866 15.748
vn -0.0654031 1.64208e-017 -0.997859
vt -4.82799 15.748
f 15/105/26 21/106/29 47/107/26

vt -0.321866 14.5669
f 21/106/29 15/105/26 16/108/29

usemtl Grass
f 17/8/11 21/12/11 16/11/11

v 0.334848 0.4 -0.191605
vt 13.183 7.54352
f 48/43/28 23/102/28 49/109/28

v 0.4375 0.4 -0.242228
vt 17.2244 9.53653
f 49/109/28 23/102/28 50/110/28

v 0.532666 0.4 -0.305816
vt 20.9711 12.04
f 50/110/28 23/102/28 51/111/28

v 0.618718 0.4 -0.381282
vt 24.359 15.0111
f 51/111/28 23/102/28 52/112/28

v 0.694184 0.4 -0.467334
vt 27.3301 18.399
f 52/112/28 23/102/28 53/113/28

v 0.757772 0.4 -0.5625
vt 29.8336 22.1457
f 53/113/28 23/102/28 54/114/28

v 0.808395 0.4 -0.665152
vt 31.8266 26.1871
f 54/114/28 23/102/28 55/115/28

v 0.845185 0.4 -0.773533
vt 33.275 30.4541
f 55/115/28 23/102/28 56/116/28

v 0.867514 0.4 -0.88579
vt 34.1541 34.8736
f 56/116/28 23/102/28 57/117/28

v 0.875 0.4 -1
f 57/117/28 23/102/28 58/41/28

v 1 0.4 -1
f 58/41/28 23/102/28 59/42/28

vt 1.53586e-012 15.748
vn 1 2.90022e-029 3.90109e-014
f 23/118/30 6/37/30 59/35/30

vt 1.53586e-012 7.87402
f 6/37/30 23/118/30 19/119/30

f 6/7/14 25/24/14 59/26/14

f 25/24/14 6/7/14 24/25/14

f 59/26/14 25/24/14 58/27/14

usemtl Dirt
v 0.867514 0.37 -0.88579
vt -37.0327 14.5669
vn -0.991445 -3.81454e-017 -0.130526
vt -41.5388 15.748
vn -0.997859 -3.9655e-017 -0.0654031
vt -41.5388 14.5669
f 60/120/31 58/121/32 25/122/32

vt -37.0327 15.748
f 58/121/32 60/120/31 57/123/31

v 0.845185 0.37 -0.773533
vt -36.3605 14.5669
vn -0.965926 -3.46433e-017 -0.258819
vt -40.8667 15.748
vt -40.8667 14.5669
f 61/124/33 57/125/31 60/126/31

vt -36.3605 15.748
f 57/125/31 61/124/33 56/127/33

v 0.808395 0.37 -0.665152
vt -35.0277 14.5669
vn -0.92388 -3.05485e-017 -0.382683
vt -39.5338 15.748
vt -39.5338 14.5669
f 62/128/34 56/129/33 61/130/33

vt -35.0277 15.748
f 56/129/33 62/128/34 55/131/34

v 0.757772 0.37 -0.5625
vt -33.0569 14.5669
vn -0.866025 -2.5931e-017 -0.5
vt -37.563 15.748
vt -37.563 14.5669
f 63/132/35 55/133/34 62/134/34

vt -33.0569 15.748
f 55/133/34 63/132/35 54/135/35

v 0.694184 0.37 -0.467334
vt -30.482 14.5669
vn -0.793353 -2.08698e-017 -0.608761
vt -34.9881 15.748
vt -34.9881 14.5669
f 64/136/36 54/137/35 63/138/35

vt -30.482 15.748
f 54/137/35 64/136/36 53/139/36

v 0.618718 0.37 -0.381282
vt -27.3469 14.5669
vn -0.707107 -1.54515e-017 -0.707107
vt -31.8531 15.748
vt -31.8531 14.5669
f 65/140/37 53/141/36 64/142/36

vt -27.3469 15.748
f 53/141/36 65/140/37 52/143/37

vt -28.2116 14.5669
vt -23.7054 15.748
vn -0.608761 -9.76887e-018 -0.793353
vt -28.2116 15.748
f 65/144/37 51/145/38 52/146/37

v 0.532666 0.37 -0.305816
vt -23.7054 14.5669
f 51/145/38 65/144/37 66/147/38

f 25/41/7 66/111/7 65/112/7

v 0.4375 0.37 -0.242228
f 25/41/7 67/110/7 66/111/7

v 0.334848 0.37 -0.191605
f 25/41/7 68/109/7 67/110/7

f 25/41/7 26/43/7 68/109/7

vt -10.402 15.748
vt -14.9082 14.5669
vn -0.382683 1.99781e-018 -0.92388
vt -10.402 14.5669
f 48/148/27 68/149/39 26/150/27

vt -14.9082 15.748
f 68/149/39 48/148/27 49/151/39

vt -15.1599 15.748
vt -19.666 14.5669
vn -0.5 -3.91906e-018 -0.866025
vt -15.1599 14.5669
f 49/152/39 67/153/40 68/154/39

vt -19.666 15.748
f 67/153/40 49/152/39 50/155/40

vt -19.6198 15.748
vt -24.1259 14.5669
vt -19.6198 14.5669
f 50/156/40 66/157/38 67/158/40

vt -24.1259 15.748
f 66/157/38 50/156/40 51/159/38

f 25/41/7 65/112/7 64/113/7

f 25/41/7 64/113/7 63/114/7

f 25/41/7 63/114/7 62/115/7

f 25/41/7 62/115/7 61/116/7

f 25/41/7 61/116/7 60/117/7

vn -1 0 -3.79141e-014
vt -1.36424e-012 0
f 17/8/41 3/160/41 20/32/41

f 3/160/41 17/8/41 1/2/41

f 1/2/41 17/8/41 18/25/41

f 1/2/41 18/25/41 5/7/41

