# Alias OBJ Model File
# Exported from SketchUp, (c) 2000-2012 Trimble Navigation Limited
# File units = meters

mtllib towerDefense_062.mtl

g Mesh1 Component_2_1 Group1 Model

usemtl Grass
v 0.678517 1.05565 -0.625102
vt 7.20472 4.6063
vn 0 1 -0
v 0.603937 1.05565 -0.699682
vt 4.6063 7.20472
v 0.603937 1.05565 -0.625102
vt 4.6063 4.6063
f 1/1/1 2/2/1 3/3/1

v 0.678517 1.05565 -0.699682
vt 7.20472 7.20472
f 2/2/1 1/1/1 4/4/1

vt 4.6063 20.2971
vn 0.967853 0.251516 1.9956e-017
v 0.810727 0.5469 -0.831892
vt 11.811 1.98292
vt 7.20472 20.2971
f 1/5/2 5/6/2 4/7/2

v 0.810727 0.5469 -0.492892
vt 2.4353e-016 1.98292
f 5/6/2 1/5/2 6/8/2

vt 7.20472 23.2677
vn 1.88803e-017 0.251516 0.967853
v 0.471727 0.5469 -0.492892
vt 0 4.95358
vt 11.811 4.95358
f 1/9/3 7/10/3 6/11/3

vt 4.6063 23.2677
f 7/10/3 1/9/3 3/12/3

vt -4.6063 23.2677
vn -0.967853 0.251516 1.36142e-017
v 0.471727 0.5469 -0.831892
vt -11.811 4.95358
f 3/13/4 8/14/4 7/10/4

vt -7.20472 23.2677
f 8/14/4 3/13/4 2/15/4

vt -4.6063 20.2971
vn -4.63053e-018 0.251516 -0.967853
vt -11.811 1.98292
vt -5.65078e-017 1.98292
f 2/16/5 5/17/5 8/18/5

vt -7.20472 20.2971
f 5/17/5 2/16/5 4/19/5

usemtl FrontColor
vt -11.811 11.811
vn 0 -1 -0
vt 0 0
vt 0 11.811
f 5/20/6 7/21/6 8/22/6

vt -11.811 0
f 7/21/6 5/20/6 6/23/6

usemtl Grass
v 0.792082 0.4904 -0.511537
vt 0.649606 6.48869
vn 0.949629 -0.313377 -3.31471e-031
vt 11.811 8.56161
vt 0 8.56161
f 9/24/7 5/25/7 6/26/7

v 0.792082 0.4904 -0.813247
vt 11.1614 6.48869
f 5/25/7 9/24/7 10/27/7

vt -11.1614 0.649606
v 0.678853 0.4904 -0.624765
vt -7.21644 4.59458
vt -11.1614 11.1614
f 9/28/6 11/29/6 10/30/6

v 0.6036 0.4904 -0.624765
vt -4.59458 4.59458
f 9/28/6 12/31/6 11/29/6

v 0.490372 0.4904 -0.511537
vt -0.649606 0.649606
f 13/32/6 12/31/6 9/28/6

v 0.6036 0.4904 -0.700018
vt -4.59458 7.21644
f 12/31/6 13/32/6 14/33/6

v 0.490372 0.4904 -0.813247
vt -0.649606 11.1614
f 15/34/6 14/33/6 13/32/6

f 14/33/6 15/34/6 10/30/6

vt -3.35692e-018 8.56161
vn -2.69902e-019 -0.313377 -0.949629
vt -11.1614 6.48869
vt -0.649606 6.48869
f 8/35/8 10/36/8 15/37/8

vt -11.811 8.56161
f 10/36/8 8/35/8 5/38/8

vt -0.649606 2.78738
vn -0.949629 -0.313377 3.31471e-031
vt -11.811 4.8603
vt -11.1614 2.78738
f 13/39/9 8/40/9 15/41/9

vt 0 4.8603
f 8/40/9 13/39/9 7/42/9

vt 0.649606 2.78738
vn -2.69902e-019 -0.313377 0.949629
vt 11.811 4.8603
f 13/43/10 6/44/10 7/42/10

vt 11.1614 2.78738
f 6/44/10 13/43/10 9/45/10

v 0.678853 0.4904 -0.700018
vt -7.21644 7.21644
f 14/33/6 10/30/6 16/46/6

f 16/46/6 10/30/6 11/29/6

usemtl Dirt
vt 4.59458 3.14961
vn 1 0 -3.49053e-031
v 0.678853 0.4 -0.700018
vt 7.21644 0
vt 7.21644 3.14961
f 11/47/11 17/48/11 16/49/11

v 0.678853 0.4 -0.624765
vt 4.59458 0
f 17/48/11 11/47/11 18/50/11

vn 3.49053e-031 0 1
v 0.6036 0.4 -0.624765
f 11/49/12 19/50/12 18/48/12

f 19/50/12 11/49/12 12/47/12

vt -7.21644 3.14961
vn -1 0 3.49053e-031
vt -4.59458 0
vt -4.59458 3.14961
f 14/51/13 19/52/13 12/53/13

v 0.6036 0.4 -0.700018
vt -7.21644 0
f 19/52/13 14/51/13 20/54/13

vn -3.49053e-031 0 -1
f 14/53/14 17/54/14 20/52/14

f 17/54/14 14/53/14 16/51/14

f 17/46/6 19/31/6 20/33/6

f 19/31/6 17/46/6 18/29/6

g Mesh2 Component_2_2 Group1 Model

usemtl Grass
v 0.580785 0.887389 -0.134253
v 0.560493 0.887389 -0.209985
v 0.532773 0.887389 -0.161973
f 21/1/1 22/2/1 23/3/1

v 0.608505 0.887389 -0.182265
f 22/2/1 21/1/1 24/4/1

vn 0.838185 0.251516 0.483927
v 0.742758 0.5092 -0.218238
f 21/5/15 25/6/15 24/7/15

v 0.616758 0.5092 3.15836e-016
f 25/6/15 21/5/15 26/8/15

vn -0.483927 0.251516 0.838185
v 0.39852 0.5092 -0.126
f 21/9/16 27/10/16 26/11/16

f 27/10/16 21/9/16 23/12/16

vn -0.838185 0.251516 -0.483927
v 0.52452 0.5092 -0.344238
f 23/13/17 28/14/17 27/10/17

f 28/14/17 23/13/17 22/15/17

vn 0.483927 0.251516 -0.838185
f 22/16/18 25/17/18 28/18/18

f 25/17/18 22/16/18 24/19/18

usemtl FrontColor
f 25/20/6 27/21/6 28/22/6

f 27/21/6 25/20/6 26/23/6

usemtl Grass
v 0.611685 0.4672 -0.0189331
vn 0.822403 -0.313377 0.474814
f 29/24/19 25/25/19 26/26/19

v 0.723825 0.4672 -0.213165
f 25/25/19 29/24/19 30/27/19

v 0.580877 0.4672 -0.133912
f 29/28/6 31/29/6 30/30/6

v 0.532432 0.4672 -0.161881
f 29/28/6 32/31/6 31/29/6

v 0.417453 0.4672 -0.131073
f 33/32/6 32/31/6 29/28/6

v 0.560402 0.4672 -0.210327
f 32/31/6 33/32/6 34/33/6

v 0.529593 0.4672 -0.325305
f 35/34/6 34/33/6 33/32/6

f 34/33/6 35/34/6 30/30/6

vn 0.474814 -0.313377 -0.822403
f 28/35/20 30/36/20 35/37/20

f 30/36/20 28/35/20 25/38/20

vn -0.822403 -0.313377 -0.474814
f 33/39/21 28/40/21 35/41/21

f 28/40/21 33/39/21 27/42/21

vn -0.474814 -0.313377 0.822403
f 33/43/22 26/44/22 27/42/22

f 26/44/22 33/43/22 29/45/22

v 0.608847 0.4672 -0.182357
f 34/33/6 30/30/6 36/46/6

f 36/46/6 30/30/6 31/29/6

usemtl Dirt
vn 0.866025 0 0.5
v 0.608847 0.4 -0.182357
f 31/47/23 37/48/23 36/49/23

v 0.580877 0.4 -0.133912
f 37/48/23 31/47/23 38/50/23

vn -0.5 0 0.866025
v 0.532432 0.4 -0.161881
f 31/49/24 39/50/24 38/48/24

f 39/50/24 31/49/24 32/47/24

vn -0.866025 0 -0.5
f 34/51/25 39/52/25 32/53/25

v 0.560402 0.4 -0.210327
f 39/52/25 34/51/25 40/54/25

vn 0.5 0 -0.866025
f 34/53/26 37/54/26 40/52/26

f 37/54/26 34/53/26 36/51/26

f 37/46/6 39/31/6 40/33/6

f 39/31/6 37/46/6 38/29/6

g Mesh3 Component_2_3 Group1 Model

usemtl Grass
v 0.242431 0.980225 -0.421032
v 0.161597 0.980225 -0.467701
v 0.178679 0.980225 -0.40395
f 41/1/1 42/2/1 43/3/1

v 0.225349 0.980225 -0.484784
f 42/2/1 41/1/1 44/4/1

vn 0.934874 0.251516 -0.250499
v 0.30808 0.53 -0.628079
f 41/5/27 45/6/27 44/7/27

v 0.385726 0.53 -0.338301
f 45/6/27 41/5/27 46/8/27

vn 0.250499 0.251516 0.934874
v 0.095948 0.53 -0.260655
f 41/9/28 47/10/28 46/11/28

f 47/10/28 41/9/28 43/12/28

vn -0.934874 0.251516 0.250499
v 0.0183022 0.53 -0.550433
f 43/13/29 48/14/29 47/10/29

f 48/14/29 43/13/29 42/15/29

vn -0.250499 0.251516 -0.934874
f 42/16/30 45/17/30 48/18/30

f 45/17/30 42/16/30 44/19/30

usemtl FrontColor
f 45/20/6 47/21/6 48/22/6

f 47/21/6 45/20/6 46/23/6

usemtl Grass
v 0.365517 0.48 -0.349968
vn 0.917271 -0.313377 -0.245782
f 49/24/31 45/25/31 46/26/31

v 0.296413 0.48 -0.60787
f 45/25/31 49/24/31 50/27/31

v 0.242795 0.48 -0.420822
f 49/28/6 51/29/6 50/30/6

v 0.178469 0.48 -0.403586
f 49/28/6 52/31/6 51/29/6

v 0.107615 0.48 -0.280864
f 53/32/6 52/31/6 49/28/6

v 0.161233 0.48 -0.467912
f 52/31/6 53/32/6 54/33/6

v 0.0385105 0.48 -0.538766
f 55/34/6 54/33/6 53/32/6

f 54/33/6 55/34/6 50/30/6

vn -0.245782 -0.313377 -0.917271
f 48/35/32 50/36/32 55/37/32

f 50/36/32 48/35/32 45/38/32

vn -0.917271 -0.313377 0.245782
f 53/39/33 48/40/33 55/41/33

f 48/40/33 53/39/33 47/42/33

vn 0.245782 -0.313377 0.917271
f 53/43/34 46/44/34 47/42/34

f 46/44/34 53/43/34 49/45/34

v 0.225559 0.48 -0.485148
f 54/33/6 50/30/6 56/46/6

f 56/46/6 50/30/6 51/29/6

usemtl Dirt
vn 0.965926 0 -0.258819
v 0.225559 0.4 -0.485148
f 51/47/35 57/48/35 56/49/35

v 0.242795 0.4 -0.420822
f 57/48/35 51/47/35 58/50/35

vn 0.258819 0 0.965926
v 0.178469 0.4 -0.403586
f 51/49/36 59/50/36 58/48/36

f 59/50/36 51/49/36 52/47/36

vn -0.965926 0 0.258819
f 54/51/37 59/52/37 52/53/37

v 0.161233 0.4 -0.467912
f 59/52/37 54/51/37 60/54/37

vn -0.258819 0 -0.965926
f 54/53/38 57/54/38 60/52/38

f 57/54/38 54/53/38 56/51/38

f 57/46/6 59/31/6 60/33/6

f 59/31/6 57/46/6 58/29/6

g Mesh4 Group1 Model

usemtl Grass
v 1 0.4 -0.0309038
vt 39.3701 15.748
vn -1.09674e-015 5.18718e-031 1
v 5.77529e-015 0.2 -0.0309038
vt 2.26039e-013 7.87402
v 1 0.2 -0.0309038
vt 39.3701 7.87402
f 61/55/39 62/56/39 63/57/39

v 5.77529e-015 0.4 -0.0309038
vt 2.26039e-013 15.748
f 62/56/39 61/55/39 64/58/39

v 1 0.4 -1.0309
vt 39.3701 40.5868
vn 3.97051e-017 1 -1.12799e-017
vt 2.26748e-013 1.21669
vt 39.3701 1.21669
f 65/59/40 64/60/40 61/61/40

v 0 0.4 -1.0309
vt -6.25278e-016 40.5868
f 64/60/40 65/59/40 66/62/40

v 1 0.2 -1.0309
vt -39.3701 7.87402
vn 1.09674e-015 2.90022e-029 -1
vt 4.4513e-014 15.748
vt -39.3701 15.748
f 67/63/41 66/64/41 65/65/41

v 0 0.2 -1.0309
vt 4.4513e-014 7.87402
f 66/64/41 67/63/41 68/66/41

usemtl Dirt
vt 2.27374e-013 1.21669
vt 0 40.5868
f 62/67/1 67/59/1 68/68/1

f 67/59/1 62/67/1 63/61/1

v 5.77529e-015 0 -0.0309038
vt 2.27374e-013 0
vn 0 0 1
vt 2.27374e-013 7.87402
f 69/69/42 63/57/42 62/70/42

v 1 0 -0.0309038
vt 39.3701 0
f 63/57/42 69/69/42 70/71/42

vt -2.27374e-013 1.21669
v 1 0 -1.0309
vt -39.3701 40.5868
vt -39.3701 1.21669
f 69/72/6 71/73/6 70/74/6

v 0 0 -1.0309
f 71/73/6 69/72/6 72/68/6

vt -1.21669 0
vn -1 0 -0
vt -40.5868 7.87402
vt -40.5868 0
f 69/75/43 68/76/43 72/77/43

vt -1.21669 7.87402
f 68/76/43 69/75/43 62/78/43

usemtl Grass
vt -40.5868 15.748
f 62/78/43 66/79/43 68/76/43

vt -1.21669 15.748
f 66/79/43 62/78/43 64/80/43

usemtl Dirt
vt 0 7.87402
vn 0 0 -1
vt -39.3701 0
f 68/81/44 71/82/44 72/21/44

f 71/82/44 68/81/44 67/63/44

vt 1.21669 7.87402
vn 1 0 -0
vt 40.5868 0
vt 40.5868 7.87402
f 63/83/45 71/84/45 67/85/45

vt 1.21669 0
f 71/84/45 63/83/45 70/86/45

usemtl Grass
vt 1.21669 15.748
f 67/85/45 61/87/45 63/83/45

vt 40.5868 15.748
f 61/87/45 67/85/45 65/88/45

