# Alias OBJ Model File
# Exported from SketchUp, (c) 2000-2012 Trimble Navigation Limited
# File units = meters

mtllib towerDefense_019.mtl

g Mesh1 Group1 Model

usemtl Brick_Light
v 0.204974 0.4 -0.281059
vt -11.0653 15.748
vn -1 0 -0
v 0.204974 4.51195e-017 -0.204974
vt -8.06985 1.77636e-015
v 0.204974 0.4 -0.204974
vt -8.06985 15.748
f 1/1/1 2/2/1 3/3/1

v 0.204974 4.51195e-017 -0.281059
vt -11.0653 1.77636e-015
f 2/2/1 1/1/1 4/4/1

usemtl Brick
v 0.204974 0.4 -0.718941
vt -28.3048 15.748
vn -1 -3.51266e-031 -1.97838e-014
f 5/5/2 4/4/2 1/1/2

v 0.204974 0 -0.718941
vt -28.3048 -2.83466e-030
f 4/4/2 5/5/2 6/6/2

usemtl Brick_Light
v 0.204974 0.4 -0.795026
vt -31.3002 15.748
vt -28.3048 0
f 7/7/1 6/8/1 5/5/1

v 0.204974 0 -0.795026
vt -31.3002 0
f 6/8/1 7/7/1 8/9/1

vn -4.74411e-015 9.02389e-016 -1
v 0.281059 0 -0.795026
vt -11.0653 -2.8245e-014
vt -8.06985 -2.8245e-014
f 7/3/3 9/10/3 8/11/3

v 0.281059 0.4 -0.795026
f 9/10/3 7/3/3 10/1/3

vt 8.06985 31.3002
vn -2.96507e-016 1 -2.96507e-016
v 0.281059 0.4 -0.718941
vt 11.0653 28.3048
vt 11.0653 31.3002
f 7/12/4 11/13/4 10/14/4

vt 8.06985 28.3048
f 11/13/4 7/12/4 5/15/4

usemtl Brick
vn -1.26783e-016 1 -1.26783e-016
v 0.281059 0.4 -0.281059
vt 11.0653 11.0653
f 5/15/5 12/16/5 11/13/5

vt 8.06985 11.0653
f 12/16/5 5/15/5 1/17/5

usemtl Brick_Light
vn 2.96507e-016 1 -2.96507e-016
v 0.281059 0.4 -0.204974
vt 11.0653 8.06985
f 1/17/6 13/18/6 12/16/6

vt 8.06985 8.06985
f 13/18/6 1/17/6 3/19/6

vt 8.06985 -1.27879e-014
vn 9.48822e-015 -1.80478e-015 1
vt 11.0653 15.748
vt 8.06985 15.748
f 2/20/7 13/21/7 3/22/7

v 0.281059 4.51195e-017 -0.204974
vt 11.0653 -1.27879e-014
f 13/21/7 2/20/7 14/23/7

usemtl Brick
vt -8.06985 8.06985
vn 7.45363e-031 -1 7.6467e-017
vt -8.06985 28.3048
vt -11.0653 8.06985
f 2/24/8 6/25/8 14/26/8

vt -8.06985 11.0653
f 6/25/8 2/24/8 4/27/8

vt -8.06985 31.3002
f 14/26/8 6/25/8 8/28/8

vt -11.0653 31.3002
f 14/26/8 8/28/8 9/29/8

v 0.718941 4.51195e-017 -0.204974
vt -28.3048 8.06985
f 14/26/8 9/29/8 15/30/8

v 0.718941 0 -0.795026
vt -28.3048 31.3002
f 15/30/8 9/29/8 16/31/8

vn -2.96756e-014 1.7364e-031 -1
vt -28.3048 -5.43498e-030
vt -11.0653 -5.43498e-030
f 10/1/9 16/32/9 9/33/9

v 0.718941 0.4 -0.795026
f 16/32/9 10/1/9 17/5/9

vt 28.3048 31.3002
v 0.718941 0.4 -0.718941
vt 28.3048 28.3048
f 17/34/5 10/14/5 18/35/5

v 0.718941 0.4 -0.204974
vt 28.3048 8.06985
f 10/14/5 19/36/5 18/35/5

f 11/13/5 19/36/5 10/14/5

f 12/16/5 19/36/5 11/13/5

f 19/36/5 12/16/5 13/18/5

vt 11.0653 -2.73522e-014
vn 2.63783e-014 -3.60956e-015 1
vt 28.3048 15.748
f 14/37/10 19/38/10 13/21/10

vt 28.3048 -2.73522e-014
f 19/38/10 14/37/10 15/39/10

usemtl Brick_Light
vt 28.3048 -1.27879e-014
v 0.795026 0.4 -0.204974
vt 31.3002 15.748
f 15/40/7 20/41/7 19/38/7

v 0.795026 4.51195e-017 -0.204974
vt 31.3002 -1.27879e-014
f 20/41/7 15/40/7 21/42/7

usemtl Brick
vt -31.3002 8.06985
f 15/30/8 16/31/8 21/43/8

v 0.795026 0 -0.718941
vt -31.3002 28.3048
f 21/43/8 16/31/8 22/44/8

v 0.795026 0 -0.795026
vt -31.3002 31.3002
f 23/45/8 22/44/8 16/31/8

usemtl Brick_Light
vt 31.3002 0
vn 1 0 -0
v 0.795026 0.4 -0.718941
vt 28.3048 0
f 23/46/11 24/38/11 22/47/11

v 0.795026 0.4 -0.795026
f 24/38/11 23/46/11 25/41/11

vt -31.3002 2.8245e-014
vn -4.74411e-015 -9.02389e-016 -1
f 23/48/12 17/5/12 25/7/12

vt -28.3048 2.8245e-014
f 17/5/12 23/48/12 16/49/12

vt 31.3002 28.3048
vt 31.3002 31.3002
f 17/34/6 24/50/6 25/51/6

f 24/50/6 17/34/6 18/35/6

usemtl Brick
v 0.718941 0.4 -0.281059
vt 28.3048 11.0653
f 18/35/5 26/52/5 24/50/5

f 18/35/5 19/36/5 26/52/5

usemtl Brick_Light
vt 31.3002 8.06985
f 20/53/4 26/52/4 19/36/4

v 0.795026 0.4 -0.281059
vt 31.3002 11.0653
f 26/52/4 20/53/4 27/54/4

v 0.795026 4.51195e-017 -0.281059
vt 11.0653 1.77636e-015
f 20/22/11 28/55/11 27/21/11

vt 8.06985 1.77636e-015
f 28/55/11 20/22/11 21/56/11

usemtl Brick
vt -31.3002 11.0653
f 21/43/8 22/44/8 28/57/8

v 0.795026 0.105474 -0.363336
vt 14.3046 4.15252
f 29/58/11 28/55/11 22/47/11

f 28/55/11 29/58/11 27/21/11

v 0.795026 0.19132 -0.350432
vt 13.7965 7.5323
f 27/21/11 29/58/11 30/59/11

v 0.795026 0.145474 -0.363336
vt 14.3046 5.72732
f 31/60/11 30/59/11 29/58/11

v 0.795026 0.19132 -0.440432
vt 17.3399 7.5323
f 30/59/11 31/60/11 32/61/11

v 0.795026 0.145474 -0.413336
vt 16.2731 5.72732
f 32/61/11 31/60/11 33/62/11

usemtl Grey
v 0.795026 0.105474 -0.413336
vt 16.2731 4.15252
f 31/60/11 34/63/11 33/62/11

f 34/63/11 31/60/11 29/58/11

usemtl Brick
f 29/58/11 22/47/11 34/63/11

f 34/63/11 22/47/11 33/62/11

v 0.795026 0.161843 -0.481241
vt 18.9465 6.37178
f 33/62/11 22/47/11 35/64/11

v 0.795026 0.161843 -0.562142
vt 22.1316 6.37178
f 35/64/11 22/47/11 36/65/11

v 0.795026 0.211843 -0.562142
vt 22.1316 8.34028
f 36/65/11 22/47/11 37/66/11

f 24/38/11 37/66/11 22/47/11

v 0.795026 0.211843 -0.481241
vt 18.9465 8.34028
f 24/38/11 38/67/11 37/66/11

v 0.795026 0.25132 -0.440432
vt 17.3399 9.8945
f 24/38/11 39/68/11 38/67/11

v 0.795026 0.25132 -0.350432
vt 13.7965 9.8945
f 24/38/11 40/69/11 39/68/11

f 27/21/11 40/69/11 24/38/11

f 40/69/11 27/21/11 30/59/11

usemtl Grey
f 32/61/11 40/69/11 30/59/11

f 40/69/11 32/61/11 39/68/11

usemtl Brick
f 32/61/11 35/64/11 39/68/11

f 33/62/11 35/64/11 32/61/11

f 38/67/11 39/68/11 35/64/11

usemtl Grey
f 36/65/11 38/67/11 35/64/11

f 38/67/11 36/65/11 37/66/11

usemtl Brick
f 24/50/5 26/52/5 27/54/5

