# Alias OBJ Model File
# Exported from SketchUp, (c) 2000-2012 Trimble Navigation Limited
# File units = meters

mtllib towerDefense_046.mtl

g Mesh1 Group1 Model

usemtl Brick
v 0.204974 0.4 -0.795026
vt -8.06985 15.748
vn -1.46817e-014 -7.6467e-017 -1
v 0.795026 0.1 -0.795026
vt -31.3002 3.93701
v 0.204974 0.1 -0.795026
vt -8.06985 3.93701
f 1/1/1 2/2/1 3/3/1

v 0.795026 0.4 -0.795026
vt -31.3002 15.748
f 2/2/1 1/1/1 4/4/1

vt 8.06985 31.3002
vn -7.45363e-031 1 -7.6467e-017
v 0.795026 0.4 -0.204974
vt 31.3002 8.06985
vt 31.3002 31.3002
f 1/5/2 5/6/2 4/7/2

v 0.204974 0.4 -0.204974
vt 8.06985 8.06985
f 5/6/2 1/5/2 6/8/2

vn -1 -1.49381e-030 -9.78778e-015
v 0.204974 0.1 -0.204974
f 1/4/3 7/3/3 6/1/3

f 7/3/3 1/4/3 3/2/3

usemtl Brick_Light
vn -1.51389e-030 1 -6.71758e-017
v 0.164169 0.1 -0.835831
vt 6.46335 32.9067
f 3/5/4 8/9/4 7/8/4

v 0.835831 0.1 -0.835831
vt 32.9067 32.9067
f 8/9/4 3/5/4 9/10/4

f 9/10/4 3/5/4 2/7/4

v 0.835831 0.1 -0.164169
vt 32.9067 6.46335
f 9/10/4 2/7/4 10/11/4

v 0.795026 0.1 -0.204974
f 11/6/4 10/11/4 2/7/4

f 7/8/4 10/11/4 11/6/4

v 0.164169 0.1 -0.164169
vt 6.46335 6.46335
f 7/8/4 12/12/4 10/11/4

f 12/12/4 7/8/4 8/9/4

vt -32.9067 3.93701
vn -1 -2.38031e-030 -1.28978e-014
v 0.164169 1.80478e-016 -0.164169
vt -6.46335 7.10543e-015
vt -6.46335 3.93701
f 8/13/5 13/14/5 12/15/5

v 0.164169 0 -0.835831
vt -32.9067 -1.53847e-029
f 13/14/5 8/13/5 14/16/5

vn -2.25039e-014 -6.71758e-017 -1
v 0.835831 0 -0.835831
vt -32.9067 2.21054e-015
vt -6.46335 2.21054e-015
f 8/15/6 15/17/6 14/18/6

f 15/17/6 8/15/6 9/13/6

vt 6.46335 3.93701
vn 1 1.80269e-030 4.29925e-015
vt 32.9067 -5.93208e-029
vt 32.9067 3.93701
f 10/19/7 15/20/7 9/21/7

v 0.835831 1.80478e-016 -0.164169
vt 6.46335 7.10543e-015
f 15/20/7 10/19/7 16/22/7

vn 2.25711e-014 6.71758e-017 1
vt 6.46335 7.53961e-015
vt 32.9067 7.53961e-015
f 10/21/8 13/23/8 16/24/8

f 13/23/8 10/21/8 12/19/8

vt -6.46335 32.9067
vn 6.04463e-030 -1 2.68703e-016
vt -32.9067 6.46335
vt -6.46335 6.46335
f 14/25/9 16/26/9 13/27/9

vt -32.9067 32.9067
f 16/26/9 14/25/9 15/28/9

usemtl Brick
vt 31.3002 15.748
vn 1.46817e-014 7.6467e-017 1
vt 8.06985 3.93701
vt 31.3002 3.93701
f 5/29/10 7/30/10 11/31/10

vt 8.06985 15.748
f 7/30/10 5/29/10 6/32/10

vn 1 1.21314e-030 6.11736e-015
f 2/31/11 5/32/11 11/30/11

f 5/32/11 2/31/11 4/29/11

