# Alias OBJ Model File
# Exported from SketchUp, (c) 2000-2012 Trimble Navigation Limited
# File units = meters

mtllib towerDefense_015.mtl

g Mesh1 Group1 Model

usemtl Brick_Light
v 0.204974 0.4 -0.281059
vt -11.0653 15.748
vn -1 0 -0
v 0.204974 4.51195e-017 -0.204974
vt -8.06985 1.77636e-015
v 0.204974 0.4 -0.204974
vt -8.06985 15.748
f 1/1/1 2/2/1 3/3/1

v 0.204974 4.51195e-017 -0.281059
vt -11.0653 1.77636e-015
f 2/2/1 1/1/1 4/4/1

v 0.204974 0.0923094 -0.281059
vt -11.0653 3.63423
f 4/4/1 1/1/1 5/5/1

usemtl Brick
v 0.204974 0.4 -0.718941
vt -28.3048 15.748
f 6/6/1 5/5/1 1/1/1

v 0.204974 0.0923094 -0.718941
vt -28.3048 3.63423
f 5/5/1 6/6/1 7/7/1

usemtl Brick_Light
v 0.204974 0.4 -0.795026
vt -31.3002 15.748
vn -1 0 -1.13859e-013
f 8/8/2 7/7/2 6/6/2

v 0.204974 0 -0.718941
vt -28.3048 0
f 7/7/2 8/8/2 9/9/2

v 0.204974 0 -0.795026
vt -31.3002 0
f 9/9/2 8/8/2 10/10/2

vn -2.48229e-014 1.01529e-015 -1
v 0.281059 0 -0.795026
vt -11.0653 -3.17789e-014
vt -8.06985 -3.17789e-014
f 8/3/3 11/11/3 10/12/3

v 0.281059 0.0923094 -0.795026
f 11/11/3 8/3/3 12/5/3

v 0.281059 0.4 -0.795026
f 12/5/3 8/3/3 13/1/3

vt 8.06985 31.3002
vn -2.96507e-016 1 -2.96507e-016
v 0.281059 0.4 -0.718941
vt 11.0653 28.3048
vt 11.0653 31.3002
f 8/13/4 14/14/4 13/15/4

vt 8.06985 28.3048
f 14/14/4 8/13/4 6/16/4

usemtl Brick
vt 8.06985 11.0653
vn -1.26783e-016 1 -1.26783e-016
f 1/17/5 14/14/5 6/16/5

v 0.281059 0.4 -0.281059
vt 11.0653 11.0653
f 14/14/5 1/17/5 15/18/5

usemtl Brick_Light
vn 2.96507e-016 1 -2.96507e-016
v 0.281059 0.4 -0.204974
vt 11.0653 8.06985
f 1/17/6 16/19/6 15/18/6

vt 8.06985 8.06985
f 16/19/6 1/17/6 3/20/6

vt 8.06985 15.748
vn 2.11811e-014 -2.03059e-015 1
v 0.281059 0.0923094 -0.204974
vt 11.0653 3.63423
vt 11.0653 15.748
f 3/21/7 17/22/7 16/23/7

vt 8.06985 -1.46102e-014
f 2/24/7 17/22/7 3/21/7

v 0.281059 4.51195e-017 -0.204974
vt 11.0653 -1.46102e-014
f 17/22/7 2/24/7 18/25/7

usemtl Brick
vt -8.06985 8.06985
vn 1.99555e-030 -1 8.22044e-017
vt -8.06985 31.3002
vt -11.0653 8.06985
f 2/26/8 10/27/8 18/28/8

vt -8.06985 11.0653
f 4/29/8 10/27/8 2/26/8

vt -8.06985 28.3048
f 10/27/8 4/29/8 9/30/8

usemtl Brick_Dark
f 4/4/1 7/7/1 9/9/1

f 7/7/1 4/4/1 5/5/1

usemtl Brick
vt -11.0653 31.3002
f 18/28/8 10/27/8 11/31/8

v 0.718941 4.51195e-017 -0.204974
vt -28.3048 8.06985
f 18/28/8 11/31/8 19/32/8

v 0.718941 0 -0.795026
vt -28.3048 31.3002
f 19/32/8 11/31/8 20/33/8

usemtl Brick_Dark
vn -2.88513e-014 0 -1
vt -11.0653 0
f 12/5/9 20/9/9 11/34/9

v 0.718941 0.0923094 -0.795026
f 20/9/9 12/5/9 21/7/9

usemtl Brick
vn -3.13243e-014 7.02719e-031 -1
v 0.46 0.146628 -0.795026
vt -18.1102 5.77276
f 12/5/10 22/35/10 21/7/10

f 22/35/10 12/5/10 13/1/10

v 0.46 0.266628 -0.795026
vt -18.1102 10.4972
f 22/35/10 13/1/10 23/36/10

v 0.459123 0.278797 -0.795026
vt -18.0757 10.9763
f 23/36/10 13/1/10 24/37/10

v 0.461865 0.290685 -0.795026
vt -18.1837 11.4443
f 24/37/10 13/1/10 25/38/10

v 0.467984 0.301241 -0.795026
vt -18.4246 11.8599
f 25/38/10 13/1/10 26/39/10

v 0.476939 0.309528 -0.795026
vt -18.7771 12.1861
f 26/39/10 13/1/10 27/40/10

v 0.487935 0.314813 -0.795026
vt -19.21 12.3942
f 27/40/10 13/1/10 28/41/10

v 0.5 0.316628 -0.795026
vt -19.685 12.4657
f 28/41/10 13/1/10 29/42/10

v 0.718941 0.4 -0.795026
f 30/6/10 29/42/10 13/1/10

v 0.512065 0.314813 -0.795026
vt -20.16 12.3942
f 30/6/10 31/43/10 29/42/10

v 0.523061 0.309528 -0.795026
vt -20.593 12.1861
f 30/6/10 32/44/10 31/43/10

v 0.532016 0.301241 -0.795026
vt -20.9455 11.8599
f 30/6/10 33/45/10 32/44/10

v 0.538135 0.290685 -0.795026
vt -21.1864 11.4443
f 30/6/10 34/46/10 33/45/10

v 0.540877 0.278797 -0.795026
vt -21.2944 10.9763
f 30/6/10 35/47/10 34/46/10

v 0.54 0.266628 -0.795026
vt -21.2598 10.4972
f 30/6/10 36/48/10 35/47/10

v 0.54 0.146628 -0.795026
vt -21.2598 5.77276
f 30/6/10 37/49/10 36/48/10

f 21/7/10 37/49/10 30/6/10

f 37/49/10 21/7/10 22/35/10

usemtl Grey
vn -4.19501e-014 2.34804e-014 -1
f 23/36/11 37/49/11 22/35/11

f 37/49/11 23/36/11 36/48/11

f 36/48/11 23/36/11 24/37/11

f 36/48/11 24/37/11 35/47/11

f 35/47/11 24/37/11 34/46/11

f 34/46/11 24/37/11 25/38/11

f 34/46/11 25/38/11 33/45/11

f 33/45/11 25/38/11 26/39/11

f 33/45/11 26/39/11 32/44/11

f 32/44/11 26/39/11 27/40/11

f 32/44/11 27/40/11 31/43/11

f 31/43/11 27/40/11 28/41/11

f 31/43/11 28/41/11 29/42/11

usemtl Brick_Light
v 0.795026 0.4 -0.795026
vn 3.64175e-015 -1.01529e-015 -1
f 38/8/12 21/7/12 30/6/12

v 0.795026 0 -0.795026
vt -31.3002 3.17789e-014
f 39/50/12 21/7/12 38/8/12

vt -28.3048 3.17789e-014
f 21/7/12 39/50/12 20/51/12

usemtl Brick
vt -31.3002 31.3002
v 0.795026 0 -0.718941
vt -31.3002 28.3048
f 39/52/8 40/53/8 20/33/8

usemtl Brick_Light
vt 31.3002 -7.73737e-014
vn 1 2.47198e-015 8.9723e-014
v 0.795026 0.0923094 -0.718941
vt 28.3048 3.63423
vt 28.3048 -7.73737e-014
f 39/54/13 41/55/13 40/56/13

v 0.795026 0.4 -0.718941
vt 28.3048 15.748
f 41/55/13 39/54/13 42/57/13

vt 31.3002 15.748
f 42/57/13 39/54/13 38/58/13

vt 28.3048 31.3002
vt 31.3002 28.3048
vt 31.3002 31.3002
f 30/59/6 42/60/6 38/61/6

v 0.718941 0.4 -0.718941
vt 28.3048 28.3048
f 42/60/6 30/59/6 43/62/6

usemtl Brick
f 30/59/5 13/15/5 43/62/5

v 0.718941 0.4 -0.204974
vt 28.3048 8.06985
f 13/15/5 44/63/5 43/62/5

f 15/18/5 44/63/5 13/15/5

f 44/63/5 15/18/5 16/19/5

vn 2.47297e-014 -4.69245e-015 1
f 17/22/14 44/57/14 16/23/14

v 0.718941 0.0923094 -0.204974
f 44/57/14 17/22/14 45/55/14

usemtl Brick_Dark
vt 11.0653 1.77636e-015
vn 2.47297e-014 0 1
f 18/64/15 45/55/15 17/22/15

vt 28.3048 1.77636e-015
f 45/55/15 18/64/15 19/65/15

usemtl Brick_Light
vt 28.3048 -1.46102e-014
vn 2.62599e-014 -2.03059e-015 1
v 0.795026 0.4 -0.204974
f 19/66/16 46/58/16 45/55/16

v 0.795026 4.51195e-017 -0.204974
vt 31.3002 -1.46102e-014
f 46/58/16 19/66/16 47/67/16

usemtl Brick
vt -31.3002 8.06985
f 19/32/8 20/33/8 47/68/8

f 47/68/8 20/33/8 40/53/8

v 0.795026 4.51195e-017 -0.281059
vt -31.3002 11.0653
f 47/68/8 40/53/8 48/69/8

usemtl Brick_Dark
vt 28.3048 9.79141e-013
vn 1 -3.12822e-014 -6.59458e-015
v 0.795026 0.0923094 -0.281059
vt 11.0653 9.80918e-013
f 40/70/17 49/22/17 48/71/17

f 49/22/17 40/70/17 41/55/17

usemtl Brick
vn 1 9.3849e-015 -6.59458e-015
v 0.795026 0.4 -0.281059
f 41/55/18 50/23/18 49/22/18

f 50/23/18 41/55/18 42/57/18

v 0.718941 0.4 -0.281059
vt 28.3048 11.0653
vt 31.3002 11.0653
f 42/60/5 51/72/5 50/73/5

f 43/62/5 51/72/5 42/60/5

f 43/62/5 44/63/5 51/72/5

usemtl Brick_Light
vt 31.3002 8.06985
f 46/74/4 51/72/4 44/63/4

f 51/72/4 46/74/4 50/73/4

vn 1 0 -0
f 46/21/19 48/64/19 50/23/19

vt 8.06985 1.77636e-015
f 48/64/19 46/21/19 47/75/19

f 50/23/19 48/64/19 49/22/19

f 45/55/16 46/58/16 44/57/16

usemtl Brick
f 14/14/5 15/18/5 13/15/5

