# Alias OBJ Model File
# Exported from SketchUp, (c) 2000-2012 Trimble Navigation Limited
# File units = meters

mtllib towerDefense_057.mtl

g Mesh1 Component_2_1 Group1 Model

usemtl Grass
v 0.722419 0.980225 -0.423936
vt 7.20472 4.6063
vn 0 1 -0
v 0.748773 0.980225 -0.334396
vt 4.6063 7.20472
v 0.780366 0.980225 -0.392343
vt 4.6063 4.6063
f 1/1/1 2/2/1 3/3/1

v 0.690826 0.980225 -0.36599
vt 7.20472 7.20472
f 2/2/1 1/1/1 4/4/1

vt 4.6063 20.2971
vn -0.849759 0.251516 -0.463303
v 0.532095 0.53 -0.319273
vt 11.811 1.98292
vt 7.20472 20.2971
f 1/5/2 5/6/2 4/7/2

v 0.675702 0.53 -0.582667
vt 2.4353e-016 1.98292
f 5/6/2 1/5/2 6/8/2

vt 7.20472 23.2677
vn 0.463303 0.251516 -0.849759
v 0.939097 0.53 -0.43906
vt 0 4.95358
vt 11.811 4.95358
f 1/9/3 7/10/3 6/11/3

vt 4.6063 23.2677
f 7/10/3 1/9/3 3/12/3

vt -4.6063 23.2677
vn 0.849759 0.251516 0.463303
v 0.79549 0.53 -0.175665
vt -11.811 4.95358
f 3/13/4 8/14/4 7/10/4

vt -7.20472 23.2677
f 8/14/4 3/13/4 2/15/4

vt -4.6063 20.2971
vn -0.463303 0.251516 0.849759
vt -11.811 1.98292
vt -5.65078e-017 1.98292
f 2/16/5 5/17/5 8/18/5

vt -7.20472 20.2971
f 5/17/5 2/16/5 4/19/5

usemtl FrontColor
vt -11.811 11.811
vn -0 -1 -0
vt 0 0
vt 0 11.811
f 5/20/6 7/21/6 8/22/6

vt -11.811 0
f 7/21/6 5/20/6 6/23/6

usemtl Grass
v 0.682291 0.48 -0.560282
vt 0.649606 6.48869
vn -0.833758 -0.313377 -0.45458
vt 11.811 8.56161
vt 0 8.56161
f 9/24/7 5/25/7 6/26/7

v 0.55448 0.48 -0.325861
vt 11.1614 6.48869
f 5/25/7 9/24/7 10/27/7

vt -11.1614 0.649606
v 0.722301 0.48 -0.42434
vt -7.21644 4.59458
vt -11.1614 11.1614
f 9/28/6 11/29/6 10/30/6

v 0.78077 0.48 -0.392462
vt -4.59458 4.59458
f 9/28/6 12/31/6 11/29/6

v 0.916712 0.48 -0.432472
vt -0.649606 0.649606
f 13/32/6 12/31/6 9/28/6

v 0.748892 0.48 -0.333992
vt -4.59458 7.21644
f 12/31/6 13/32/6 14/33/6

v 0.788901 0.48 -0.19805
vt -0.649606 11.1614
f 15/34/6 14/33/6 13/32/6

f 14/33/6 15/34/6 10/30/6

vt -3.35692e-018 8.56161
vn -0.45458 -0.313377 0.833758
vt -11.1614 6.48869
vt -0.649606 6.48869
f 8/35/8 10/36/8 15/37/8

vt -11.811 8.56161
f 10/36/8 8/35/8 5/38/8

vt -0.649606 2.78738
vn 0.833758 -0.313377 0.45458
vt -11.811 4.8603
vt -11.1614 2.78738
f 13/39/9 8/40/9 15/41/9

vt 0 4.8603
f 8/40/9 13/39/9 7/42/9

vt 0.649606 2.78738
vn 0.45458 -0.313377 -0.833758
vt 11.811 4.8603
f 13/43/10 6/44/10 7/42/10

vt 11.1614 2.78738
f 6/44/10 13/43/10 9/45/10

v 0.690422 0.48 -0.365871
vt -7.21644 7.21644
f 14/33/6 10/30/6 16/46/6

f 16/46/6 10/30/6 11/29/6

usemtl Dirt
vt 4.59458 3.14961
vn -0.877983 0 -0.478692
v 0.690422 0.4 -0.365871
vt 7.21644 0
vt 7.21644 3.14961
f 11/47/11 17/48/11 16/49/11

v 0.722301 0.4 -0.42434
vt 4.59458 0
f 17/48/11 11/47/11 18/50/11

vn 0.478692 0 -0.877983
v 0.78077 0.4 -0.392462
f 11/49/12 19/50/12 18/48/12

f 19/50/12 11/49/12 12/47/12

vt -7.21644 3.14961
vn 0.877983 0 0.478692
vt -4.59458 0
vt -4.59458 3.14961
f 14/51/13 19/52/13 12/53/13

v 0.748892 0.4 -0.333992
vt -7.21644 0
f 19/52/13 14/51/13 20/54/13

vn -0.478692 0 0.877983
f 14/53/14 17/54/14 20/52/14

f 17/54/14 14/53/14 16/51/14

f 17/46/6 19/31/6 20/33/6

f 19/31/6 17/46/6 18/29/6

g Mesh2 Component_2_2 Group1 Model

usemtl Grass
v 0.327773 0.875785 -0.743166
v 0.394056 0.875785 -0.704898
v 0.380049 0.875785 -0.757174
f 21/1/1 22/2/1 23/3/1

v 0.34178 0.875785 -0.69089
f 22/2/1 21/1/1 24/4/1

vn -0.934874 0.251516 0.250499
v 0.27394 0.5066 -0.573388
f 21/5/15 25/6/15 24/7/15

v 0.210271 0.5066 -0.811006
f 25/6/15 21/5/15 26/8/15

vn -0.250499 0.251516 -0.934874
v 0.447889 0.5066 -0.874676
f 21/9/16 27/10/16 26/11/16

f 27/10/16 21/9/16 23/12/16

vn 0.934874 0.251516 -0.250499
v 0.511558 0.5066 -0.637058
f 23/13/17 28/14/17 27/10/17

f 28/14/17 23/13/17 22/15/17

vn 0.250499 0.251516 0.934874
f 22/16/18 25/17/18 28/18/18

f 25/17/18 22/16/18 24/19/18

usemtl FrontColor
vn 0 -1 0
f 25/20/19 27/21/19 28/22/19

f 27/21/19 25/20/19 26/23/19

usemtl Grass
v 0.226842 0.4656 -0.801439
vn -0.917271 -0.313377 0.245782
f 29/24/20 25/25/20 26/26/20

v 0.283508 0.4656 -0.589959
f 25/25/20 29/24/20 30/27/20

v 0.327474 0.4656 -0.743339
f 29/28/19 31/29/19 30/30/19

v 0.380221 0.4656 -0.757472
f 29/28/19 32/31/19 31/29/19

v 0.438321 0.4656 -0.858105
f 33/32/19 32/31/19 29/28/19

v 0.394355 0.4656 -0.704725
f 32/31/19 33/32/19 34/33/19

v 0.494987 0.4656 -0.646625
f 35/34/19 34/33/19 33/32/19

f 34/33/19 35/34/19 30/30/19

vn 0.245782 -0.313377 0.917271
f 28/35/21 30/36/21 35/37/21

f 30/36/21 28/35/21 25/38/21

vn 0.917271 -0.313377 -0.245782
f 33/39/22 28/40/22 35/41/22

f 28/40/22 33/39/22 27/42/22

vn -0.245782 -0.313377 -0.917271
f 33/43/23 26/44/23 27/42/23

f 26/44/23 33/43/23 29/45/23

v 0.341608 0.4656 -0.690592
f 34/33/19 30/30/19 36/46/19

f 36/46/19 30/30/19 31/29/19

usemtl Dirt
vn -0.965926 0 0.258819
v 0.341608 0.4 -0.690592
f 31/47/24 37/48/24 36/49/24

v 0.327474 0.4 -0.743339
f 37/48/24 31/47/24 38/50/24

vn -0.258819 0 -0.965926
v 0.380221 0.4 -0.757472
f 31/49/25 39/50/25 38/48/25

f 39/50/25 31/49/25 32/47/25

vn 0.965926 0 -0.258819
f 34/51/26 39/52/26 32/53/26

v 0.394355 0.4 -0.704725
f 39/52/26 34/51/26 40/54/26

vn 0.258819 0 0.965926
f 34/53/27 37/54/27 40/52/27

f 37/54/27 34/53/27 36/51/27

f 37/46/19 39/31/19 40/33/19

f 39/31/19 37/46/19 38/29/19

g Mesh3 Group1 Model

v 0 0.2 -1
vt -39.3701 7.87402
vn -1 0 8.45157e-014
v 9.09608e-014 0 -0
vt 3.02662e-025 0
v 9.09608e-014 0.2 -0
vt 3.02662e-025 7.87402
f 41/55/28 42/56/28 43/57/28

v 0 0 -1
vt -39.3701 0
f 42/56/28 41/55/28 44/58/28

vt -3.32739e-012 7.87402
vn -8.45157e-014 0 -1
v 1 0 -1
vt -3.32739e-012 0
f 41/59/29 45/58/29 44/60/29

v 1 0.2 -1
f 45/58/29 41/59/29 46/55/29

usemtl Grass
v 0 0.4 -1
vt -3.28421e-012 15.748
vn -8.3419e-014 5.18718e-031 -1
vt -3.28421e-012 7.87402
f 47/61/30 46/55/30 41/62/30

v 1 0.4 -1
vt -39.3701 15.748
f 46/55/30 47/61/30 48/63/30

v 9.09608e-014 0.4 -0
vt 3.58176e-012 1.77636e-016
vn -3.97051e-017 1 1.12799e-017
vt 39.3701 39.3701
vt 6.25278e-016 39.3701
f 49/64/31 48/65/31 47/66/31

v 1 0.4 -8.37417e-014
vt 39.3701 3.2971e-012
f 48/65/31 49/64/31 50/67/31

vt 3.58114e-012 7.87402
vn 8.3419e-014 2.90022e-029 1
vt 39.3701 15.748
vt 3.58114e-012 15.748
f 43/68/32 50/69/32 49/70/32

v 1 0.2 -8.37417e-014
vt 39.3701 7.87402
f 50/69/32 43/68/32 51/71/32

usemtl Dirt
vt 3.58114e-012 0
vn 8.45157e-014 0 1
f 42/72/33 51/71/33 43/68/33

v 1 0 -8.37417e-014
vt 39.3701 0
f 51/71/33 42/72/33 52/73/33

vt -3.58114e-012 0
vn 0 -1 -0
vt -39.3701 39.3701
vt -39.3701 3.29692e-012
f 42/74/34 45/75/34 52/76/34

vt 0 39.3701
f 45/75/34 42/74/34 44/77/34

vn 1 0 -8.45157e-014
vt -3.04726e-014 7.87402
vt -3.04726e-014 0
f 45/73/35 51/78/35 52/79/35

f 51/78/35 45/73/35 46/71/35

usemtl Grass
vt -3.04726e-014 15.748
f 46/71/35 50/80/35 51/78/35

f 50/80/35 46/71/35 48/69/35

usemtl Dirt
vt 39.3701 3.29692e-012
f 46/65/1 43/72/1 51/81/1

f 43/72/1 46/65/1 41/77/1

usemtl Grass
f 43/57/28 47/63/28 41/55/28

vt 3.02662e-025 15.748
f 47/63/28 43/57/28 49/82/28

