# Alias OBJ Model File
# Exported from SketchUp, (c) 2000-2012 Trimble Navigation Limited
# File units = meters

mtllib towerDefense_111.mtl

g Mesh1 Group1 Model

usemtl Dirt
v 1 0 -1
vt 39.3701 0
vn 1 0 -1.78607e-014
v 1 0.2 -3.46517e-014
vt 6.61064e-013 7.87402
v 1 0 -3.46517e-014
vt 6.61064e-013 0
f 1/1/1 2/2/1 3/3/1

v 1 0.2 -1
vt 39.3701 7.87402
f 2/2/1 1/1/1 4/4/1

vt -39.3701 0
vn -1.78607e-014 0 -1
v 0 0.2 -1
vt -7.03178e-013 7.87402
vt -39.3701 7.87402
f 1/5/2 5/6/2 4/7/2

v 0 0 -1
vt -7.03178e-013 0
f 5/6/2 1/5/2 6/8/2

vt -39.3701 39.3701
vn 0 -1 -0
v 2.02135e-014 0 -0
vt -7.95808e-013 0
vt 0 39.3701
f 1/9/3 7/10/3 6/11/3

vt -39.3701 1.36424e-012
f 7/10/3 1/9/3 3/12/3

vn 1.78607e-014 0 1
vt 7.95808e-013 0
f 2/4/4 7/13/4 3/1/4

v 2.02135e-014 0.2 -0
vt 7.95808e-013 7.87402
f 7/13/4 2/4/4 8/14/4

usemtl Grass
v 1 0.4 -3.46517e-014
vt 39.3701 15.748
vn 3.13542e-014 0 1
f 9/15/5 8/14/5 2/4/5

v 2.02135e-014 0.6 -0
vt 7.95808e-013 23.622
f 8/14/5 9/15/5 10/16/5

v 1 0.4 -1
vt 39.3701 -35.5171
vn 0.196116 0.980581 -3.84964e-015
vt -1.56212e-026 4.63266
vt 5.91431e-013 -35.5171
f 11/17/6 10/18/6 9/19/6

v 0 0.6 -1
vt 39.3701 4.63266
f 10/18/6 11/17/6 12/20/6

vn -3.13542e-014 0 -1
vt -1.23442e-012 23.622
vt -39.3701 15.748
f 4/7/7 12/21/7 11/22/7

vt -1.23442e-012 7.87402
f 12/21/7 4/7/7 5/23/7

usemtl Dirt
vn 0 1 -0
vt 39.3701 39.3701
f 8/13/8 4/24/8 5/11/8

vt 39.3701 1.36424e-012
f 4/24/8 8/13/8 2/25/8

usemtl Grass
vn 1 2.90022e-029 -1.6764e-014
vt 7.04243e-013 15.748
vt 7.04243e-013 7.87402
f 4/4/9 9/26/9 2/27/9

f 9/26/9 4/4/9 11/15/9

usemtl Dirt
vn -1 0 1.78607e-014
vt 1.42137e-026 0
vt 1.42137e-026 7.87402
f 5/7/10 7/28/10 8/29/10

f 7/28/10 5/7/10 6/5/10

usemtl Grass
vt 1.57599e-026 7.87402
vn -1 0 1.98036e-014
vt -39.3701 23.622
f 8/30/11 12/31/11 5/7/11

vt 1.57599e-026 23.622
f 12/31/11 8/30/11 10/32/11

