# Alias OBJ Model File
# Exported from SketchUp, (c) 2000-2012 Trimble Navigation Limited
# File units = meters

mtllib towerDefense_106.mtl

g Mesh1 Group1 Model

usemtl Dirt
v 1.98526e-015 0 -1
vt -7.81597e-014 39.3701
vn 0 -1 -0
v 1 0 -5.77529e-015
vt -39.3701 2.27374e-013
v 0 0 -0
vt 0 0
f 1/1/1 2/2/1 3/3/1

v 1 0 -1
vt -39.3701 39.3701
f 2/2/1 1/1/1 4/4/1

v 1.98526e-015 0.2 -1
vt -1.66796e-015 7.87402
vn 1.94289e-015 0 -1
vt -39.3701 0
vt -1.66796e-015 0
f 5/5/2 4/6/2 1/7/2

v 1 0.2 -1
vt -39.3701 7.87402
f 4/6/2 5/5/2 6/8/2

usemtl Grass
v 1.98526e-015 0.6 -1
vt -1.66796e-015 23.622
f 7/9/2 6/8/2 5/5/2

v 1 0.6 -1
vt -39.3701 23.622
f 6/8/2 7/9/2 8/10/2

vt 7.84262e-014 39.3701
vn -1.12799e-017 1 -3.97051e-017
v 1 0.6 -5.77529e-015
vt 39.3701 2.26436e-013
vt 39.3701 39.3701
f 7/11/3 9/12/3 8/13/3

v 0 0.6 -0
vt 2.66454e-016 -9.37916e-016
f 9/12/3 7/11/3 10/14/3

vn -1 2.90022e-029 -3.03963e-015
v 0 0.2 -0
vt 0 7.87402
vt 0 23.622
f 7/10/4 11/15/4 10/16/4

f 11/15/4 7/10/4 5/8/4

usemtl Dirt
vn -1 0 -1.94289e-015
f 5/8/5 3/3/5 11/15/5

f 3/3/5 5/8/5 1/6/5

vn -1.94289e-015 0 1
v 1 0.2 -5.77529e-015
vt 39.3701 7.87402
f 3/3/6 12/17/6 11/15/6

vt 39.3701 0
f 12/17/6 3/3/6 2/18/6

vn 1 0 1.94289e-015
vt 3.03865e-013 7.87402
vt 3.03865e-013 0
f 4/18/7 12/19/7 2/20/7

f 12/19/7 4/18/7 6/17/7

usemtl Grass
vn 1 5.18718e-031 3.03963e-015
vt 3.47044e-013 23.622
vt 3.47044e-013 7.87402
f 6/17/8 9/21/8 12/22/8

vt 39.3701 23.622
f 9/21/8 6/17/8 8/23/8

f 9/23/6 11/15/6 12/17/6

f 11/15/6 9/23/6 10/16/6

usemtl Dirt
vt 39.3701 2.27374e-013
vn 0 1 -0
vt 7.81597e-014 39.3701
f 12/24/9 5/25/9 11/3/9

f 5/25/9 12/24/9 6/13/9

