# Alias OBJ Model File
# Exported from SketchUp, (c) 2000-2012 Trimble Navigation Limited
# File units = meters

mtllib towerDefense_064.mtl

g Mesh1 Component_2_1 Group1 Model

usemtl Grass
v 0.439332 0.980225 -0.667863
vt 7.20472 4.6063
vn 0 1 -0
v 0.35413 0.980225 -0.62975
vt 4.6063 7.20472
v 0.415787 0.980225 -0.606205
vt 4.6063 4.6063
f 1/1/1 2/2/1 3/3/1

v 0.377674 0.980225 -0.691408
vt 7.20472 7.20472
f 2/2/1 1/1/1 4/4/1

vt 4.6063 20.2971
vn 0.34527 0.251516 -0.904173
v 0.310111 0.53 -0.842448
vt 11.811 1.98292
vt 7.20472 20.2971
f 1/5/2 5/6/2 4/7/2

v 0.590372 0.53 -0.735427
vt 2.4353e-016 1.98292
f 5/6/2 1/5/2 6/8/2

vt 7.20472 23.2677
vn 0.904173 0.251516 0.34527
v 0.483351 0.53 -0.455165
vt 0 4.95358
vt 11.811 4.95358
f 1/9/3 7/10/3 6/11/3

vt 4.6063 23.2677
f 7/10/3 1/9/3 3/12/3

vt -4.6063 23.2677
vn -0.34527 0.251516 0.904173
v 0.203089 0.53 -0.562187
vt -11.811 4.95358
f 3/13/4 8/14/4 7/10/4

vt -7.20472 23.2677
f 8/14/4 3/13/4 2/15/4

vt -4.6063 20.2971
vn -0.904173 0.251516 -0.34527
vt -11.811 1.98292
vt -5.65078e-017 1.98292
f 2/16/5 5/17/5 8/18/5

vt -7.20472 20.2971
f 5/17/5 2/16/5 4/19/5

usemtl FrontColor
vt -11.811 11.811
vn 0 -1 -0
vt 0 0
vt 0 11.811
f 5/20/6 7/21/6 8/22/6

vt -11.811 0
f 7/21/6 5/20/6 6/23/6

usemtl Grass
v 0.569072 0.48 -0.725898
vt 0.649606 6.48869
vn 0.338769 -0.313377 -0.887147
vt 11.811 8.56161
vt 0 8.56161
f 9/24/7 5/25/7 6/26/7

v 0.319639 0.48 -0.821147
vt 11.1614 6.48869
f 5/25/7 9/24/7 10/27/7

vt -11.1614 0.649606
v 0.439716 0.48 -0.668035
vt -7.21644 4.59458
vt -11.1614 11.1614
f 9/28/6 11/29/6 10/30/6

v 0.415959 0.48 -0.605821
vt -4.59458 4.59458
f 9/28/6 12/31/6 11/29/6

v 0.473823 0.48 -0.476466
vt -0.649606 0.649606
f 13/32/6 12/31/6 9/28/6

v 0.353745 0.48 -0.629578
vt -4.59458 7.21644
f 12/31/6 13/32/6 14/33/6

v 0.22439 0.48 -0.571715
vt -0.649606 11.1614
f 15/34/6 14/33/6 13/32/6

f 14/33/6 15/34/6 10/30/6

vt -3.35692e-018 8.56161
vn -0.887147 -0.313377 -0.338769
vt -11.1614 6.48869
vt -0.649606 6.48869
f 8/35/8 10/36/8 15/37/8

vt -11.811 8.56161
f 10/36/8 8/35/8 5/38/8

vt -0.649606 2.78738
vn -0.338769 -0.313377 0.887147
vt -11.811 4.8603
vt -11.1614 2.78738
f 13/39/9 8/40/9 15/41/9

vt 0 4.8603
f 8/40/9 13/39/9 7/42/9

vt 0.649606 2.78738
vn 0.887147 -0.313377 0.338769
vt 11.811 4.8603
f 13/43/10 6/44/10 7/42/10

vt 11.1614 2.78738
f 6/44/10 13/43/10 9/45/10

v 0.377502 0.48 -0.691792
vt -7.21644 7.21644
f 14/33/6 10/30/6 16/46/6

f 16/46/6 10/30/6 11/29/6

usemtl Dirt
vt 4.59458 3.14961
vn 0.356738 0 -0.934204
v 0.377502 0.4 -0.691792
vt 7.21644 0
vt 7.21644 3.14961
f 11/47/11 17/48/11 16/49/11

v 0.439716 0.4 -0.668035
vt 4.59458 0
f 17/48/11 11/47/11 18/50/11

vn 0.934204 0 0.356738
v 0.415959 0.4 -0.605821
f 11/49/12 19/50/12 18/48/12

f 19/50/12 11/49/12 12/47/12

vt -7.21644 3.14961
vn -0.356738 0 0.934204
vt -4.59458 0
vt -4.59458 3.14961
f 14/51/13 19/52/13 12/53/13

v 0.353745 0.4 -0.629578
vt -7.21644 0
f 19/52/13 14/51/13 20/54/13

vn -0.934204 0 -0.356738
f 14/53/14 17/54/14 20/52/14

f 17/54/14 14/53/14 16/51/14

f 17/46/6 19/31/6 20/33/6

f 19/31/6 17/46/6 18/29/6

g Mesh2 Component_2_2 Group1 Model

usemtl Grass
v 0.804543 0.875785 -0.272287
v 0.804543 0.875785 -0.19575
v 0.842811 0.875785 -0.234019
f 21/1/1 22/2/1 23/3/1

v 0.766274 0.875785 -0.234019
f 22/2/1 21/1/1 24/4/1

vn -0.684376 0.251516 -0.684376
v 0.630594 0.5066 -0.234019
f 21/5/15 25/6/15 24/7/15

v 0.804543 0.5066 -0.407967
f 25/6/15 21/5/15 26/8/15

vn 0.684376 0.251516 -0.684376
v 0.978491 0.5066 -0.234019
f 21/9/16 27/10/16 26/11/16

f 27/10/16 21/9/16 23/12/16

vn 0.684376 0.251516 0.684376
v 0.804543 0.5066 -0.0600703
f 23/13/17 28/14/17 27/10/17

f 28/14/17 23/13/17 22/15/17

vn -0.684376 0.251516 0.684376
f 22/16/18 25/17/18 28/18/18

f 25/17/18 22/16/18 24/19/18

usemtl FrontColor
vn -0 -1 -0
f 25/20/19 27/21/19 28/22/19

f 27/21/19 25/20/19 26/23/19

usemtl Grass
v 0.804543 0.4656 -0.388833
vn -0.671489 -0.313377 -0.671489
f 29/24/20 25/25/20 26/26/20

v 0.649729 0.4656 -0.234019
f 25/25/20 29/24/20 30/27/20

v 0.804543 0.4656 -0.272632
f 29/28/19 31/29/19 30/30/19

v 0.843156 0.4656 -0.234019
f 29/28/19 32/31/19 31/29/19

v 0.959357 0.4656 -0.234019
f 33/32/19 32/31/19 29/28/19

v 0.804543 0.4656 -0.195405
f 32/31/19 33/32/19 34/33/19

v 0.804543 0.4656 -0.0792046
f 35/34/19 34/33/19 33/32/19

f 34/33/19 35/34/19 30/30/19

vn -0.671489 -0.313377 0.671489
f 28/35/21 30/36/21 35/37/21

f 30/36/21 28/35/21 25/38/21

vn 0.671489 -0.313377 0.671489
f 33/39/22 28/40/22 35/41/22

f 28/40/22 33/39/22 27/42/22

vn 0.671489 -0.313377 -0.671489
f 33/43/23 26/44/23 27/42/23

f 26/44/23 33/43/23 29/45/23

v 0.765929 0.4656 -0.234019
f 34/33/19 30/30/19 36/46/19

f 36/46/19 30/30/19 31/29/19

usemtl Dirt
vn -0.707107 0 -0.707107
v 0.765929 0.4 -0.234019
f 31/47/24 37/48/24 36/49/24

v 0.804543 0.4 -0.272632
f 37/48/24 31/47/24 38/50/24

vn 0.707107 0 -0.707107
v 0.843156 0.4 -0.234019
f 31/49/25 39/50/25 38/48/25

f 39/50/25 31/49/25 32/47/25

vn 0.707107 0 0.707107
f 34/51/26 39/52/26 32/53/26

v 0.804543 0.4 -0.195405
f 39/52/26 34/51/26 40/54/26

vn -0.707107 0 0.707107
f 34/53/27 37/54/27 40/52/27

f 37/54/27 34/53/27 36/51/27

f 37/46/19 39/31/19 40/33/19

f 39/31/19 37/46/19 38/29/19

g Mesh3 Group1 Model

usemtl Grass
v 1 0.4 -5.77529e-015
vt 39.3701 2.26748e-013
vn -1.12799e-017 1 -3.97051e-017
v 1.44382e-015 0.4 -1
vt 5.70211e-014 39.3701
v 0 0.4 -0
vt 1.77636e-016 -6.25278e-016
f 41/55/28 42/56/28 43/57/28

v 1 0.4 -1
vt 39.3701 39.3701
f 42/56/28 41/55/28 44/58/28

vt 3.47044e-013 15.748
vn 1 5.18718e-031 3.03963e-015
v 1 0.2 -1
vt 39.3701 7.87402
vt 39.3701 15.748
f 41/59/29 45/60/29 44/61/29

v 1 0.2 -5.77529e-015
vt 3.47044e-013 7.87402
f 45/60/29 41/59/29 46/62/29

vn -1.94289e-015 0 1
v 0 0.2 -0
vt 0 7.87402
f 41/61/30 47/63/30 46/60/30

vt 0 15.748
f 47/63/30 41/61/30 43/64/30

vt -39.3701 15.748
vn -1 2.90022e-029 -3.03963e-015
f 42/65/31 47/63/31 43/64/31

v 1.44382e-015 0.2 -1
vt -39.3701 7.87402
f 47/63/31 42/65/31 48/66/31

vt 1.96483e-014 15.748
vn 1.94289e-015 0 -1
vt 1.96483e-014 7.87402
f 42/67/32 45/66/32 48/68/32

f 45/66/32 42/67/32 44/65/32

usemtl Dirt
vt 5.68434e-014 39.3701
vt 39.3701 2.27374e-013
f 48/69/1 46/70/1 45/58/1

f 46/70/1 48/69/1 47/21/1

vn -1 0 -1.94289e-015
v 0 0 -0
f 48/66/33 49/21/33 47/63/33

v 1.44382e-015 0 -1
vt -39.3701 0
f 49/21/33 48/66/33 50/71/33

v 1 0 -1
vt 1.96483e-014 0
f 48/68/32 51/71/32 50/72/32

f 51/71/32 48/68/32 45/66/32

vt 3.03865e-013 7.87402
vn 1 0 1.94289e-015
vt 39.3701 0
f 46/73/34 51/74/34 45/60/34

v 1 0 -5.77529e-015
vt 3.03865e-013 0
f 51/74/34 46/73/34 52/75/34

f 46/60/30 49/21/30 52/74/30

f 49/21/30 46/60/30 47/63/30

vt -5.68434e-014 39.3701
vt -39.3701 2.27374e-013
f 50/76/6 52/77/6 49/21/6

vt -39.3701 39.3701
f 52/77/6 50/76/6 51/78/6

