# Alias OBJ Model File
# Exported from SketchUp, (c) 2000-2012 Trimble Navigation Limited
# File units = meters

mtllib towerDefense_038.mtl

g Mesh1 Group1 Model

usemtl Brick
v 0.889434 0 -0.889434
vt 35.0171 -2.72938e-029
vn 1 7.79442e-031 3.70749e-015
v 0.889434 0.11 -0.110566
vt 4.35299 4.33071
v 0.889434 9.02389e-017 -0.110566
vt 4.35299 3.55271e-015
f 1/1/1 2/2/1 3/3/1

v 0.889434 0.11 -0.889434
vt 35.0171 4.33071
f 2/2/1 1/1/1 4/4/1

vt -35.0171 2.02852e-015
vn -1.483e-014 -5.79295e-017 -1
v 0.110566 0.11 -0.889434
vt -4.35299 4.33071
vt -35.0171 4.33071
f 1/5/2 5/6/2 4/7/2

v 0.110566 0 -0.889434
vt -4.35299 2.02852e-015
f 5/6/2 1/5/2 6/8/2

vt -35.0171 4.35299
vn 5.64669e-031 -1 5.79295e-017
vt -4.35299 35.0171
vt -35.0171 35.0171
f 3/9/3 6/10/3 1/11/3

v 0.110566 9.02389e-017 -0.110566
vt -4.35299 4.35299
f 6/10/3 3/9/3 7/12/3

vn 1.483e-014 5.79295e-017 1
vt 4.35299 3.80488e-015
vt 35.0171 3.80488e-015
f 2/4/4 7/13/4 3/14/4

v 0.110566 0.11 -0.110566
f 7/13/4 2/4/4 8/2/4

v 0.795026 0.29 -0.204974
vt 31.3002 13.8593
vn 1.46686e-014 0.46448 0.885584
vt 4.35299 5.85708
vt 35.0171 5.85708
f 9/15/5 8/16/5 2/17/5

v 0.204974 0.29 -0.204974
vt 8.06985 13.8593
f 8/16/5 9/15/5 10/18/5

v 0.204974 0.29 -0.795026
vt -8.06985 31.3002
vn 7.45363e-031 -1 7.6467e-017
vt -31.3002 8.06985
vt -8.06985 8.06985
f 11/19/6 9/20/6 10/21/6

v 0.795026 0.29 -0.795026
vt -31.3002 31.3002
f 9/20/6 11/19/6 12/22/6

v 0.204974 0.4 -0.795026
vt -8.06985 15.748
vn -1.46817e-014 -7.6467e-017 -1
vt -31.3002 11.4173
vt -8.06985 11.4173
f 13/23/7 12/24/7 11/25/7

v 0.795026 0.4 -0.795026
vt -31.3002 15.748
f 12/24/7 13/23/7 14/26/7

vt 8.06985 31.3002
vn -7.45363e-031 1 -7.6467e-017
v 0.795026 0.4 -0.204974
vt 31.3002 8.06985
vt 31.3002 31.3002
f 13/27/8 15/28/8 14/29/8

v 0.204974 0.4 -0.204974
vt 8.06985 8.06985
f 15/28/8 13/27/8 16/30/8

vn -1 -1.49381e-030 -9.78778e-015
f 13/26/9 10/25/9 16/23/9

f 10/25/9 13/26/9 11/24/9

vt -35.0171 5.85708
vn -0.885584 0.46448 -1.5206e-014
vt -8.06985 13.8593
vt -31.3002 13.8593
f 5/31/10 10/32/10 11/33/10

vt -4.35299 5.85708
f 10/32/10 5/31/10 8/34/10

vn -1 -1.63854e-030 -1.85375e-014
vt -4.35299 3.55271e-015
f 5/7/11 7/35/11 8/6/11

vt -35.0171 -7.13254e-030
f 7/35/11 5/7/11 6/36/11

vt -8.06985 -4.42733
vn -1.46639e-014 0.46448 -0.885584
vt -35.0171 -12.4295
vt -4.35299 -12.4295
f 11/37/12 4/38/12 5/39/12

vt -31.3002 -4.42733
f 4/38/12 11/37/12 12/40/12

vt 8.06985 -4.42733
vn 0.885584 0.46448 3.24715e-015
vt 35.0171 -12.4295
vt 31.3002 -4.42733
f 9/41/13 4/42/13 12/43/13

vt 4.35299 -12.4295
f 4/42/13 9/41/13 2/44/13

vt 31.3002 11.4173
vn 1 1.21314e-030 6.11736e-015
vt 8.06985 15.748
vt 8.06985 11.4173
f 12/45/14 15/46/14 9/47/14

vt 31.3002 15.748
f 15/46/14 12/45/14 14/48/14

vn 1.46817e-014 7.6467e-017 1
f 15/48/15 10/47/15 9/45/15

f 10/47/15 15/48/15 16/46/15

