# Alias OBJ Model File
# Exported from SketchUp, (c) 2000-2012 Trimble Navigation Limited
# File units = meters

mtllib towerDefense_081.mtl

g Mesh1 Group1 Model

usemtl Grass
v 0.25 0.4 -3.72556e-009
vt 9.84252 1.46676e-007
vn 2.06326e-015 1 4.34326e-015
v 3.5518e-013 0.4 -1
vt 1.3951e-011 39.3701
v 0 0.4 -3.75394e-013
vt -3.24923e-014 1.48477e-011
f 1/1/1 2/2/1 3/3/1

v 0.256416 0.4 -0.0978946
vt 10.0951 3.85412
f 2/2/1 1/1/1 4/4/1

vt 0.643732 15.748
vn 0.997859 6.07603e-015 0.0654031
v 0.256416 0.34 -0.0978946
vt 4.50612 13.3858
vn 0.991445 6.2039e-015 0.130526
vt 4.50612 15.748
f 1/5/2 5/6/3 4/7/3

v 0.25 0.34 -3.72556e-009
vt 0.643732 13.3858
f 5/6/3 1/5/2 6/8/2

vt 1.76194e-019 15.748
vn 1.19217e-008 5.30953e-009 1
vt 9.84252 13.3858
vt 9.84252 15.748
f 3/9/4 6/10/4 1/11/4

v 0 0.2 -3.75394e-013
vt 1.76194e-019 7.87402
f 7/12/4 6/10/4 3/9/4

v 0.25 0.2 -1.86292e-009
vt 9.84252 7.87402
f 6/10/4 7/12/4 8/13/4

usemtl Dirt
vt -5.51463e-024 7.87402
vn -3.73132e-013 0 1
v 0.75 0.2 -5.89847e-009
vt 29.5276 7.87402
f 7/14/5 9/15/5 8/13/5

v 1 0.2 -0
vt 39.3701 7.87402
f 7/14/5 10/16/5 9/15/5

v 0 0 -3.75394e-013
vt -5.51463e-024 0
f 11/17/5 10/16/5 7/14/5

v 1 0 -0
vt 39.3701 0
f 10/16/5 11/17/5 12/18/5

v 3.5518e-013 0 -1
vt -1.39835e-011 39.3701
vn 0 -1 -0
vt -39.3701 0
vt 0 1.47793e-011
f 13/19/6 12/20/6 11/21/6

v 1 0 -1
vt -39.3701 39.3701
f 12/20/6 13/19/6 14/22/6

v 3.5518e-013 0.2 -1
vt 7.06758e-013 7.87402
vn 3.73132e-013 0 -1
vt 7.06758e-013 0
f 15/23/7 14/20/7 13/24/7

v 1 0.2 -1
vt -39.3701 7.87402
f 14/20/7 15/23/7 16/25/7

usemtl Grass
vt 7.49937e-013 15.748
vn 3.74229e-013 5.18718e-031 -1
vt 7.49937e-013 7.87402
f 2/26/8 16/25/8 15/27/8

v 1 0.4 -1
vt -39.3701 15.748
f 16/25/8 2/26/8 17/28/8

v 0.46967 0.4 -0.53033
vt 18.4909 20.8791
vt 39.3701 39.3701
f 2/2/1 18/29/1 17/30/1

v 0.404985 0.4 -0.456571
vt 15.9443 17.9752
f 2/2/1 19/31/1 18/29/1

v 0.350481 0.4 -0.375
vt 13.7985 14.7638
f 2/2/1 20/32/1 19/31/1

v 0.30709 0.4 -0.287013
vt 12.0902 11.2997
f 2/2/1 21/33/1 20/32/1

v 0.275556 0.4 -0.194114
vt 10.8486 7.64229
f 2/2/1 22/34/1 21/33/1

f 2/2/1 4/4/1 22/34/1

vt 5.74953 15.748
v 0.275556 0.34 -0.194114
vt 9.61192 13.3858
vn 0.965926 6.37951e-015 0.258819
vt 9.61192 15.748
f 4/35/3 23/36/9 22/37/9

vt 5.74953 13.3858
f 23/36/9 4/35/3 5/38/3

usemtl Water
vn -5.92214e-015 1 -2.5468e-015
v 0.75 0.34 -1.1176e-008
vt 29.5276 4.39998e-007
f 5/4/10 24/39/10 23/34/10

f 24/39/10 5/4/10 6/1/10

vn 1.14859e-008 2.10004e-008 1
vt 29.5276 13.3858
f 8/13/11 24/40/11 6/10/11

f 24/40/11 8/13/11 9/15/11

usemtl Dirt
vn 0 1 -0
vt 9.84252 7.33432e-008
vt 29.5276 2.32223e-007
f 16/30/12 8/41/12 9/42/12

vt 1.39835e-011 39.3701
f 15/43/12 8/41/12 16/30/12

f 8/41/12 15/43/12 7/21/12

vn -1 0 -3.73132e-013
vt -1.47793e-011 0
vt -1.47793e-011 7.87402
f 15/25/13 11/44/13 7/45/13

f 11/44/13 15/25/13 13/20/13

usemtl Grass
f 7/45/13 2/28/13 15/25/13

vt -1.47793e-011 15.748
f 2/28/13 7/45/13 3/46/13

usemtl Dirt
v 1 0.2 -0.75
vt 39.3701 29.5276
f 16/30/12 9/42/12 25/47/12

v 1 0.2 -0.25
vt 39.3701 9.84252
f 25/47/12 9/42/12 26/48/12

f 26/48/12 9/42/12 10/18/12

usemtl Grass
v 1 0.4 -0
vt 39.3701 15.748
vn -3.62631e-008 1.50437e-008 1
f 27/49/14 9/15/14 10/16/14

f 9/15/14 27/49/14 24/40/14

v 0.75 0.4 -1.1176e-008
vt 29.5276 15.748
f 24/40/14 27/49/14 28/50/14

vt 39.3701 -7.49312e-014
vn -4.75813e-015 1 -4.75813e-015
v 0.752139 0.4 -0.0326316
vt 29.6118 1.28471
f 27/51/15 29/52/15 28/39/15

v 0.758519 0.4 -0.0647048
vt 29.8629 2.54743
f 29/52/15 27/51/15 30/53/15

v 0.76903 0.4 -0.0956709
vt 30.2768 3.76657
f 30/53/15 27/51/15 31/54/15

v 0.783494 0.4 -0.125
vt 30.8462 4.92126
f 31/54/15 27/51/15 32/55/15

v 0.801662 0.4 -0.15219
vt 31.5615 5.99175
f 32/55/15 27/51/15 33/56/15

v 0.823223 0.4 -0.176777
vt 32.4104 6.95971
f 33/56/15 27/51/15 34/57/15

v 0.84781 0.4 -0.198338
vt 33.3783 7.8086
f 34/57/15 27/51/15 35/58/15

v 0.875 0.4 -0.216506
vt 34.4488 8.52387
f 35/58/15 27/51/15 36/59/15

v 0.904329 0.4 -0.23097
vt 35.6035 9.0933
f 36/59/15 27/51/15 37/60/15

v 0.935295 0.4 -0.241481
vt 36.8226 9.50714
f 37/60/15 27/51/15 38/61/15

v 0.967368 0.4 -0.247861
vt 38.0854 9.75832
f 38/61/15 27/51/15 39/62/15

v 1 0.4 -0.25
f 39/62/15 27/51/15 40/48/15

vt 1.31584e-011 15.748
vn 1 1.64627e-014 3.34224e-013
f 27/63/16 26/13/16 40/11/16

vt 1.31584e-011 7.87402
f 26/13/16 27/63/16 10/64/16

usemtl Dirt
vt 1.46902e-011 7.87402
vn 1 0 3.73132e-013
f 10/65/17 14/18/17 26/13/17

vt 1.46902e-011 0
f 14/18/17 10/65/17 12/66/17

f 26/13/17 14/18/17 25/15/17

f 25/15/17 14/18/17 16/16/17

usemtl Grass
vn 1 1.64627e-014 3.85053e-013
v 1 0.34 -0.75
f 16/16/18 41/40/18 25/15/18

v 1 0.4 -0.75
f 41/40/18 16/16/18 42/50/18

f 42/50/18 16/16/18 17/49/18

v 0.902105 0.4 -0.743584
vt 35.516 29.2749
f 17/30/1 43/67/1 42/47/1

v 0.805886 0.4 -0.724444
vt 31.7278 28.5214
f 17/30/1 44/68/1 43/67/1

v 0.712987 0.4 -0.69291
vt 28.0704 27.2799
f 17/30/1 45/69/1 44/68/1

v 0.625 0.4 -0.649519
vt 24.6063 25.5716
f 17/30/1 46/70/1 45/69/1

v 0.543429 0.4 -0.595015
vt 21.3948 23.4258
f 17/30/1 47/71/1 46/70/1

f 17/30/1 18/29/1 47/71/1

vt 27.6688 15.748
vn 0.707107 5.98845e-015 0.707107
v 0.543429 0.34 -0.595015
vt 31.5312 13.3858
vn 0.608761 5.62568e-015 0.793353
vt 31.5312 15.748
f 18/72/19 48/73/20 47/74/20

v 0.46967 0.34 -0.53033
vt 27.6688 13.3858
f 48/73/20 18/72/19 49/75/19

vt 24.0273 15.748
vn 0.793353 6.24874e-015 0.608761
vt 27.8897 13.3858
vt 27.8897 15.748
f 19/76/21 49/77/19 18/78/19

v 0.404985 0.34 -0.456571
vt 24.0273 13.3858
f 49/77/19 19/76/21 50/79/21

vt 19.9416 15.748
vn 0.866025 6.40212e-015 0.5
vt 23.804 13.3858
vt 23.804 15.748
f 20/80/22 50/81/21 19/82/21

v 0.350481 0.34 -0.375
vt 19.9416 13.3858
f 50/81/21 20/80/22 51/83/22

vt 15.4817 15.748
vn 0.92388 6.44596e-015 0.382683
vt 19.3441 13.3858
vt 19.3441 15.748
f 21/84/23 51/85/22 20/86/22

v 0.30709 0.34 -0.287013
vt 15.4817 13.3858
f 51/85/22 21/84/23 52/87/23

vt 10.7239 15.748
vt 14.5863 13.3858
vt 14.5863 15.748
f 22/88/9 52/89/23 21/90/23

vt 10.7239 13.3858
f 52/89/23 22/88/9 23/91/9

usemtl Water
f 23/34/10 24/39/10 52/33/10

f 52/33/10 24/39/10 51/32/10

f 51/32/10 24/39/10 50/31/10

f 50/31/10 24/39/10 49/29/10

f 49/29/10 24/39/10 48/71/10

v 0.625 0.34 -0.649519
f 48/71/10 24/39/10 53/70/10

v 0.712987 0.34 -0.69291
f 53/70/10 24/39/10 54/69/10

v 0.752139 0.34 -0.0326316
f 54/69/10 24/39/10 55/52/10

usemtl Grass
vt -1.93119 13.3858
vn -0.997859 -6.07603e-015 -0.0654031
vt -3.21866 15.748
vn -0.991445 -6.2039e-015 -0.130526
vt -3.21866 13.3858
f 24/92/24 29/93/25 55/94/25

vt -1.93119 15.748
f 29/93/25 24/92/24 28/95/24

vt -8.32445 15.748
vn -0.965926 -6.37951e-015 -0.258819
vt -7.03699 13.3858
vt -7.03699 15.748
f 30/96/26 55/97/25 29/98/25

v 0.758519 0.34 -0.0647048
vt -8.32445 13.3858
f 55/97/25 30/96/26 56/99/26

vt -13.2988 15.748
vn -0.92388 -6.44596e-015 -0.382683
vt -12.0114 13.3858
vt -12.0114 15.748
f 31/100/27 56/101/26 30/102/26

v 0.76903 0.34 -0.0956709
vt -13.2988 13.3858
f 56/101/26 31/100/27 57/103/27

vt -18.0567 15.748
vn -0.866025 -6.40212e-015 -0.5
vt -16.7692 13.3858
vt -16.7692 15.748
f 32/104/28 57/105/27 31/106/27

v 0.783494 0.34 -0.125
vt -18.0567 13.3858
f 57/105/27 32/104/28 58/107/28

vt -22.5166 15.748
vn -0.793353 -6.24874e-015 -0.608761
vt -21.2291 13.3858
vt -21.2291 15.748
f 33/108/29 58/109/28 32/110/28

v 0.801662 0.34 -0.15219
vt -22.5166 13.3858
f 58/109/28 33/108/29 59/111/29

vt -26.6022 15.748
vn -0.707107 -5.98845e-015 -0.707107
vt -25.3148 13.3858
vt -25.3148 15.748
f 34/112/30 59/113/29 33/114/29

v 0.823223 0.34 -0.176777
vt -26.6022 13.3858
f 59/113/29 34/112/30 60/115/30

vt -28.9563 15.748
v 0.84781 0.34 -0.198338
vt -30.2437 13.3858
vn -0.608761 -5.62568e-015 -0.793353
vt -28.9563 13.3858
f 34/116/30 61/117/31 60/118/30

vt -30.2437 15.748
f 61/117/31 34/116/30 35/119/31

vt -32.0913 15.748
v 0.875 0.34 -0.216506
vt -33.3788 13.3858
vn -0.5 -5.16667e-015 -0.866025
vt -32.0913 13.3858
f 35/120/31 62/121/32 61/122/31

vt -33.3788 15.748
f 62/121/32 35/120/31 36/123/32

vt -34.6662 15.748
v 0.904329 0.34 -0.23097
vt -35.9537 13.3858
vn -0.382683 -4.61924e-015 -0.92388
vt -34.6662 13.3858
f 36/124/32 63/125/33 62/126/32

vt -35.9537 15.748
f 63/125/33 36/124/32 37/127/33

vt -36.637 15.748
v 0.935295 0.34 -0.241481
vt -37.9244 13.3858
vn -0.258819 -3.99279e-015 -0.965926
vt -36.637 13.3858
f 37/128/33 64/129/34 63/130/33

vt -37.9244 15.748
f 64/129/34 37/128/33 38/131/34

vt -37.9699 15.748
v 0.967368 0.34 -0.247861
vt -39.2573 13.3858
vn -0.130526 -3.29801e-015 -0.991445
vt -37.9699 13.3858
f 38/132/34 65/133/35 64/134/34

vt -39.2573 15.748
f 65/133/35 38/132/34 39/135/35

vt -38.6421 15.748
v 1 0.34 -0.25
vt -39.9295 13.3858
vn -0.0654031 -2.92868e-015 -0.997859
vt -38.6421 13.3858
f 39/136/35 66/137/36 65/138/35

vt -39.9295 15.748
f 66/137/36 39/136/35 40/139/36

f 40/11/16 26/13/16 66/10/16

usemtl Water
vn 1 3.39723e-014 3.59639e-013
f 25/15/37 66/10/37 26/13/37

f 66/10/37 25/15/37 41/40/37

f 41/47/10 65/62/10 66/48/10

f 41/47/10 64/61/10 65/62/10

f 41/47/10 63/60/10 64/61/10

v 0.902105 0.34 -0.743584
f 67/67/10 63/60/10 41/47/10

f 67/67/10 62/59/10 63/60/10

f 67/67/10 61/58/10 62/59/10

f 67/67/10 60/57/10 61/58/10

v 0.805886 0.34 -0.724444
f 68/68/10 60/57/10 67/67/10

f 68/68/10 59/56/10 60/57/10

f 68/68/10 58/55/10 59/56/10

f 68/68/10 57/54/10 58/55/10

f 68/68/10 56/53/10 57/54/10

f 68/68/10 55/52/10 56/53/10

f 54/69/10 55/52/10 68/68/10

usemtl Grass
vt 39.2119 15.748
vn 0.258819 3.99279e-015 0.965926
vt 35.3495 13.3858
vn 0.382683 4.61924e-015 0.92388
vt 39.2119 13.3858
f 44/140/38 54/141/39 68/142/38

vt 35.3495 15.748
f 54/141/39 44/140/38 45/143/39

vt 33.3788 15.748
vn 0.5 5.16667e-015 0.866025
vt 37.2411 13.3858
vt 37.2411 15.748
f 46/144/40 54/145/39 45/146/39

vt 33.3788 13.3858
f 54/145/39 46/144/40 53/147/40

vt 34.6662 15.748
vt 30.8038 13.3858
vt 34.6662 13.3858
f 46/148/40 48/149/20 53/150/40

vt 30.8038 15.748
f 48/149/20 46/148/40 47/151/20

vt 40.5448 13.3858
vn 0.130526 3.29801e-015 0.991445
vt 36.6824 15.748
vt 36.6824 13.3858
f 67/152/41 44/153/38 68/154/38

vt 40.5448 15.748
f 44/153/38 67/152/41 43/155/41

vt 41.217 13.3858
vn 0.0654031 2.92868e-015 0.997859
vt 37.3546 15.748
vt 37.3546 13.3858
f 41/156/42 43/157/41 67/158/41

vt 41.217 15.748
f 43/157/41 41/156/42 42/159/42

