# Alias OBJ Model File
# Exported from SketchUp, (c) 2000-2012 Trimble Navigation Limited
# File units = meters

mtllib towerDefense_051.mtl

g Mesh1 Group1 Model

usemtl Brick_Light
v 0.243017 0.4 -0.756983
vt 9.56759 29.8025
vn 5.93014e-016 1 5.93014e-016
v 0.204974 0.4 -0.795026
vt 8.06985 31.3002
v 0.204974 0.4 -0.756983
vt 8.06985 29.8025
f 1/1/1 2/2/1 3/3/1

v 0.243017 0.4 -0.795026
vt 9.56759 31.3002
f 2/2/1 1/1/1 4/4/1

usemtl Brick
vn 2.26139e-016 1 -1.15166e-016
v 0.243017 0.4 -0.243017
vt 9.56759 9.56759
f 1/1/2 5/5/2 4/4/2

v 0.204974 0.4 -0.243017
vt 8.06985 9.56759
f 1/1/2 6/6/2 5/5/2

f 6/6/2 1/1/2 3/3/2

vt -29.8025 15.748
vn -1 -2.8103e-015 2.51972e-014
v 0.204974 0.3 -0.243017
vt -9.56759 11.811
vt -9.56759 15.748
f 3/7/3 7/8/3 6/9/3

v 0.204974 0.3 -0.281059
vt -11.0653 11.811
f 7/8/3 3/7/3 8/10/3

v 0.204974 0.2 -0.281059
vt -11.0653 7.87402
f 8/10/3 3/7/3 9/11/3

v 0.204974 0.1 -0.281059
vt -11.0653 3.93701
f 9/11/3 3/7/3 10/12/3

v 0.204974 4.51195e-017 -0.281059
vt -11.0653 -2.09023e-014
f 10/12/3 3/7/3 11/13/3

v 0.204974 0.3 -0.718941
vt -28.3048 11.811
f 11/13/3 3/7/3 12/14/3

v 0.204974 0.3 -0.756983
vt -29.8025 11.811
f 12/14/3 3/7/3 13/15/3

usemtl Brick_Light
vt -31.3002 15.748
vn -1 -1.1965e-015 2.03043e-014
f 2/16/4 13/15/4 3/7/4

v 0.204974 0.2 -0.756983
vt -29.8025 7.87402
f 13/15/4 2/16/4 14/17/4

v 0.204974 0.1 -0.756983
vt -29.8025 3.93701
f 14/17/4 2/16/4 15/18/4

v 0.204974 4.51195e-017 -0.795026
vt -31.3002 -7.87923e-015
f 16/19/4 15/18/4 2/16/4

v 0.204974 4.51195e-017 -0.718941
vt -28.3048 -7.87923e-015
f 17/20/4 15/18/4 16/19/4

v 0.204974 0.1 -0.718941
vt -28.3048 3.93701
f 15/18/4 17/20/4 18/21/4

usemtl Brick
vt -28.3048 -2.09023e-014
v 0.204974 0.2 -0.718941
vt -28.3048 7.87402
f 17/22/3 19/23/3 18/21/3

f 17/22/3 12/14/3 19/23/3

f 12/14/3 17/22/3 11/13/3

vt -8.06985 28.3048
vn -7.6467e-017 -1 8.9393e-031
v 0.281059 4.51195e-017 -0.795026
vt -11.0653 31.3002
vt -8.06985 11.0653
f 17/24/5 20/25/5 11/26/5

vt -8.06985 31.3002
f 20/25/5 17/24/5 16/27/5

usemtl Brick_Light
vt -8.06985 1.65807e-013
vn -6.3792e-014 -5.24054e-015 -1
v 0.243017 0.1 -0.795026
vt -9.56759 3.93701
vt -11.0653 1.65807e-013
f 16/28/6 21/29/6 20/30/6

vt -8.06985 15.748
f 21/29/6 16/28/6 2/31/6

v 0.243017 0.2 -0.795026
vt -9.56759 7.87402
f 21/29/6 2/31/6 22/32/6

v 0.243017 0.3 -0.795026
f 22/32/6 2/31/6 23/8/6

f 23/8/6 2/31/6 4/9/6

usemtl Brick
vn 1.30593e-014 -2.0626e-016 -1
v 0.281059 0.3 -0.795026
f 4/9/7 24/10/7 23/8/7

v 0.718941 0.3 -0.795026
f 24/10/7 4/9/7 25/14/7

v 0.756983 0.3 -0.795026
f 25/14/7 4/9/7 26/15/7

v 0.756983 0.4 -0.795026
f 26/15/7 4/9/7 27/7/7

vt 29.8025 31.3002
f 4/4/2 5/5/2 27/33/2

v 0.756983 0.4 -0.756983
vt 29.8025 29.8025
f 27/33/2 5/5/2 28/34/2

v 0.756983 0.4 -0.204974
vt 29.8025 8.06985
f 5/5/2 29/35/2 28/34/2

v 0.243017 0.4 -0.204974
vt 9.56759 8.06985
f 29/35/2 5/5/2 30/36/2

usemtl Brick_Light
vn 0 1 -0
v 0.204974 0.4 -0.204974
vt 8.06985 8.06985
f 5/5/8 31/37/8 30/36/8

f 31/37/8 5/5/8 6/6/8

vn -1 -1.31682e-015 2.4697e-014
v 0.204974 4.51195e-017 -0.204974
vt -8.06985 -8.85019e-015
f 6/9/9 32/38/9 31/31/9

v 0.204974 0.1 -0.243017
f 32/38/9 6/9/9 33/29/9

f 33/29/9 6/9/9 7/8/9

v 0.204974 0.2 -0.243017
f 33/29/9 7/8/9 34/32/9

f 8/10/9 34/32/9 7/8/9

f 34/32/9 8/10/9 9/11/9

usemtl Brick
f 9/11/3 33/29/3 34/32/3

f 33/29/3 9/11/3 10/12/3

usemtl Brick_Light
vt -11.0653 -8.85019e-015
f 11/39/9 33/29/9 10/12/9

f 32/38/9 33/29/9 11/39/9

usemtl Brick
vt -8.06985 8.06985
f 11/26/5 20/25/5 32/40/5

v 0.281059 4.51195e-017 -0.204974
vt -11.0653 8.06985
f 32/40/5 20/25/5 35/41/5

v 0.718941 0 -0.795026
vt -28.3048 31.3002
f 35/41/5 20/25/5 36/42/5

vt -11.0653 8.23235e-015
v 0.718941 0.1 -0.795026
vt -28.3048 6.456e-015
f 20/43/7 37/21/7 36/44/7

v 0.281059 0.1 -0.795026
f 37/21/7 20/43/7 38/12/7

usemtl Brick_Light
f 38/12/6 20/30/6 21/29/6

usemtl Brick
f 22/32/7 38/12/7 21/29/7

f 38/12/7 22/32/7 37/21/7

v 0.756983 0.1 -0.795026
f 37/21/7 22/32/7 39/18/7

v 0.281059 0.2 -0.795026
f 39/18/7 22/32/7 40/11/7

usemtl Brick_Light
f 22/32/6 23/8/6 40/11/6

f 24/10/6 40/11/6 23/8/6

usemtl Brick
v 0.718941 0.2 -0.795026
f 24/10/7 41/23/7 40/11/7

f 41/23/7 24/10/7 25/14/7

usemtl Brick_Light
vn 7.39629e-014 4.30232e-031 -1
v 0.756983 0.2 -0.795026
f 25/14/10 42/17/10 41/23/10

f 26/15/10 42/17/10 25/14/10

v 0.795026 0.4 -0.795026
f 43/16/10 42/17/10 26/15/10

f 43/16/10 39/18/10 42/17/10

v 0.795026 0 -0.795026
vt -31.3002 -1.34664e-029
f 44/45/10 39/18/10 43/16/10

f 44/45/10 37/21/10 39/18/10

vt -28.3048 -1.34664e-029
f 37/21/10 44/45/10 36/46/10

usemtl Brick
v 0.718941 0 -0.204974
vt -28.3048 8.06985
vt -31.3002 31.3002
f 45/47/5 36/42/5 44/48/5

f 35/41/5 36/42/5 45/47/5

v 0.718941 0.1 -0.204974
vt 28.3048 3.93701
vn -1.5212e-015 -5.4659e-015 1
vt 11.0653 -4.23327e-014
vt 28.3048 -4.4109e-014
f 46/49/11 35/50/11 45/51/11

v 0.281059 0.1 -0.204974
vt 11.0653 3.93701
f 35/50/11 46/49/11 47/52/11

v 0.243017 0.1 -0.204974
vt 9.56759 3.93701
f 47/52/11 46/49/11 48/53/11

v 0.243017 0.2 -0.204974
vt 9.56759 7.87402
f 48/53/11 46/49/11 49/54/11

v 0.756983 0.2 -0.204974
vt 29.8025 7.87402
f 49/54/11 46/49/11 50/55/11

v 0.756983 0.1 -0.204974
vt 29.8025 3.93701
f 50/55/11 46/49/11 51/56/11

usemtl Brick_Light
vn -4.86609e-014 -3.85019e-015 1
vt 28.3048 -3.10705e-014
f 46/49/12 45/57/12 51/56/12

v 0.795026 0 -0.204974
vt 31.3002 -3.10705e-014
f 52/58/12 51/56/12 45/57/12

v 0.795026 0.4 -0.204974
vt 31.3002 15.748
f 51/56/12 52/58/12 53/59/12

vt 8.06985 2.57343e-014
vn 1 -8.22177e-016 -4.05138e-015
v 0.795026 0.1 -0.243017
vt 8.06985 15.748
f 52/60/13 54/53/13 53/61/13

v 0.795026 0 -0.281059
vt 11.0653 2.57343e-014
f 54/53/13 52/60/13 55/62/13

usemtl Brick
vt -31.3002 8.06985
v 0.795026 0 -0.718941
vt -31.3002 28.3048
vt -31.3002 11.0653
f 52/63/5 56/64/5 55/65/5

f 52/63/5 44/48/5 56/64/5

f 45/47/5 44/48/5 52/63/5

usemtl Brick_Light
vt 31.3002 -2.59435e-014
vn 1 8.28861e-016 -2.28521e-014
v 0.795026 0.1 -0.718941
vt 28.3048 -2.59435e-014
f 44/66/14 57/49/14 56/67/14

v 0.795026 0.1 -0.756983
f 57/49/14 44/66/14 58/56/14

v 0.795026 0.2 -0.756983
f 58/56/14 44/66/14 59/55/14

v 0.795026 0.3 -0.756983
vt 29.8025 11.811
f 59/55/14 44/66/14 60/68/14

v 0.795026 0.4 -0.756983
vt 29.8025 15.748
f 60/68/14 44/66/14 61/69/14

f 61/69/14 44/66/14 43/59/14

vt 31.3002 29.8025
vt 31.3002 31.3002
f 27/33/8 61/70/8 43/71/8

f 61/70/8 27/33/8 28/34/8

usemtl Brick
v 0.756983 0.4 -0.243017
vt 29.8025 9.56759
f 28/34/2 62/72/2 61/70/2

f 28/34/2 29/35/2 62/72/2

usemtl Brick_Light
vt 31.3002 8.06985
vn 5.93014e-016 1 1.77904e-015
f 53/73/15 62/72/15 29/35/15

v 0.795026 0.4 -0.243017
vt 31.3002 9.56759
f 62/72/15 53/73/15 63/74/15

vt 9.56759 15.748
f 54/53/13 63/75/13 53/61/13

v 0.795026 0.2 -0.243017
f 63/75/13 54/53/13 64/54/13

usemtl Brick
v 0.795026 0.1 -0.281059
vn 1 6.01593e-016 -3.01563e-014
f 65/52/16 64/54/16 54/53/16

v 0.795026 0.2 -0.281059
vt 11.0653 7.87402
f 64/54/16 65/52/16 66/76/16

v 0.795026 0.1042 -0.46
vt 18.1102 4.10236
f 65/52/16 67/77/16 66/76/16

vt 28.3048 -1.883e-014
f 65/52/16 56/78/16 67/77/16

vt 11.0653 -1.883e-014
f 56/78/16 65/52/16 55/79/16

usemtl Brick_Light
f 54/53/13 55/62/13 65/52/13

usemtl Brick
v 0.795026 0.1042 -0.54
vt 21.2598 4.10236
f 67/77/16 56/78/16 68/80/16

v 0.795026 0.2242 -0.54
vt 21.2598 8.82677
f 68/80/16 56/78/16 69/81/16

v 0.795026 0.236369 -0.540877
vt 21.2944 9.30586
f 69/81/16 56/78/16 70/82/16

v 0.795026 0.3 -0.718941
vt 28.3048 11.811
f 71/83/16 70/82/16 56/78/16

f 61/69/16 70/82/16 71/83/16

v 0.795026 0.248257 -0.538135
vt 21.1864 9.77391
f 61/69/16 72/84/16 70/82/16

v 0.795026 0.258812 -0.532016
vt 20.9455 10.1895
f 61/69/16 73/85/16 72/84/16

v 0.795026 0.267099 -0.523061
vt 20.593 10.5157
f 61/69/16 74/86/16 73/85/16

v 0.795026 0.272385 -0.512065
vt 20.16 10.7238
f 61/69/16 75/87/16 74/86/16

v 0.795026 0.2742 -0.5
vt 19.685 10.7953
f 61/69/16 76/88/16 75/87/16

v 0.795026 0.272385 -0.487935
vt 19.21 10.7238
f 61/69/16 77/89/16 76/88/16

v 0.795026 0.3 -0.281059
vt 11.0653 11.811
f 61/69/16 78/90/16 77/89/16

f 63/75/16 78/90/16 61/69/16

v 0.795026 0.3 -0.243017
vt 9.56759 11.811
f 78/90/16 63/75/16 79/91/16

usemtl Brick_Light
f 63/75/13 64/54/13 79/91/13

f 66/76/13 79/91/13 64/54/13

f 79/91/13 66/76/13 78/90/13

usemtl Brick
f 66/76/16 67/77/16 78/90/16

v 0.795026 0.236369 -0.459123
vt 18.0757 9.30586
f 78/90/16 67/77/16 80/92/16

v 0.795026 0.2242 -0.46
vt 18.1102 8.82677
f 81/93/16 80/92/16 67/77/16

usemtl Grey
v 0.795026 0.248257 -0.461865
vt 18.1837 9.77391
vn 1 2.32206e-014 -4.66498e-014
f 82/94/17 80/92/17 81/93/17

usemtl Brick
f 82/94/16 78/90/16 80/92/16

v 0.795026 0.258812 -0.467984
vt 18.4246 10.1895
f 83/95/16 78/90/16 82/94/16

v 0.795026 0.267099 -0.476939
vt 18.7771 10.5157
f 84/96/16 78/90/16 83/95/16

f 77/89/16 78/90/16 84/96/16

usemtl Grey
f 84/96/17 68/80/17 77/89/17

f 83/95/17 68/80/17 84/96/17

f 82/94/17 68/80/17 83/95/17

f 81/93/17 68/80/17 82/94/17

f 68/80/17 81/93/17 67/77/17

f 77/89/17 68/80/17 76/88/17

f 76/88/17 68/80/17 75/87/17

f 75/87/17 68/80/17 74/86/17

f 74/86/17 68/80/17 73/85/17

f 73/85/17 68/80/17 72/84/17

f 72/84/17 68/80/17 69/81/17

f 72/84/17 69/81/17 70/82/17

usemtl Brick
f 61/70/2 62/72/2 63/74/2

f 61/69/16 71/83/16 60/68/16

usemtl Brick_Light
f 71/83/14 59/55/14 60/68/14

v 0.795026 0.2 -0.718941
vt 28.3048 7.87402
f 59/55/14 71/83/14 85/97/14

usemtl Brick
f 71/83/16 57/49/16 85/97/16

f 71/83/16 56/78/16 57/49/16

f 58/56/16 85/97/16 57/49/16

f 85/97/16 58/56/16 59/55/16

usemtl Brick_Light
v 0.756983 0.3 -0.204974
f 86/68/12 53/59/12 29/69/12

f 50/55/12 53/59/12 86/68/12

f 51/56/12 53/59/12 50/55/12

v 0.718941 0.2 -0.204974
f 50/55/12 86/68/12 87/97/12

v 0.718941 0.3 -0.204974
f 88/83/12 87/97/12 86/68/12

usemtl Brick
v 0.281059 0.2 -0.204974
f 88/83/11 89/76/11 87/97/11

v 0.281059 0.3 -0.204974
f 89/76/11 88/83/11 90/90/11

f 88/83/11 29/69/11 90/90/11

f 29/69/11 88/83/11 86/68/11

v 0.243017 0.3 -0.204974
f 90/90/11 29/69/11 91/91/11

f 91/91/11 29/69/11 30/75/11

usemtl Brick_Light
vn 4.27071e-014 -5.66834e-015 1
f 31/61/18 91/91/18 30/75/18

f 31/61/18 49/54/18 91/91/18

f 31/61/18 48/53/18 49/54/18

vt 8.06985 -4.39663e-014
f 32/98/18 48/53/18 31/61/18

f 32/98/18 47/52/18 48/53/18

vt 11.0653 -4.39663e-014
f 47/52/18 32/98/18 35/99/18

f 91/91/18 49/54/18 90/90/18

f 90/90/18 49/54/18 89/76/18

usemtl Brick
f 49/54/11 87/97/11 89/76/11

f 49/54/11 50/55/11 87/97/11

usemtl Brick_Light
f 43/16/10 26/15/10 27/7/10

usemtl Brick
f 39/18/7 40/11/7 42/17/7

f 42/17/7 40/11/7 41/23/7

usemtl Brick_Light
f 13/15/4 19/23/4 12/14/4

f 19/23/4 13/15/4 14/17/4

usemtl Brick
f 14/17/3 18/21/3 19/23/3

f 18/21/3 14/17/3 15/18/3

