# Alias OBJ Model File
# Exported from SketchUp, (c) 2000-2012 Trimble Navigation Limited
# File units = meters

mtllib towerDefense_020.mtl

g Mesh1 Group1 Model

usemtl Grey
v 0.457721 0.281527 -0.795026
vt -18.0205 11.0837
vn 0 0 -1
v 0.547721 0.221527 -0.795026
vt -21.5638 8.72154
v 0.457721 0.221527 -0.795026
vt -18.0205 8.72154
f 1/1/1 2/2/1 3/3/1

v 0.547721 0.281527 -0.795026
vt -21.5638 11.0837
f 2/2/1 1/1/1 4/4/1

usemtl Brick
vn -2.20225e-014 0 -1
v 0.421125 0.332537 -0.795026
vt -16.5797 13.092
f 1/1/2 5/5/2 4/4/2

v 0.421125 0.252537 -0.795026
vt -16.5797 9.94238
f 1/1/2 6/6/2 5/5/2

f 3/3/2 6/6/2 1/1/2

v 0.301125 0.252537 -0.795026
vt -11.8553 9.94238
f 6/6/2 3/3/2 7/7/2

v 0.795026 0.13 -0.795026
vt -31.3002 5.11811
f 8/8/2 7/7/2 3/3/2

v 0.204974 0.13 -0.795026
vt -8.06985 5.11811
f 9/9/2 7/7/2 8/8/2

v 0.204974 0.4 -0.795026
vt -8.06985 15.748
f 7/7/2 9/9/2 10/10/2

v 0.204974 0.13 -0.204974
vn -1 1.03508e-030 -1.46817e-014
vt -31.3002 15.748
f 11/9/3 10/11/3 9/8/3

v 0.204974 0.4 -0.204974
f 10/11/3 11/9/3 12/10/3

vt 8.06985 5.11811
vn 1.95756e-014 -1.32121e-030 1
v 0.795026 0.4 -0.204974
vt 31.3002 15.748
vt 8.06985 15.748
f 11/12/4 13/13/4 12/14/4

v 0.795026 0.13 -0.204974
vt 31.3002 5.11811
f 13/13/4 11/12/4 14/15/4

usemtl FrontColor
vt 31.3002 8.06985
vn -1.49878e-030 1 -7.6467e-017
vt 8.06985 31.3002
vt 8.06985 8.06985
f 14/16/5 9/17/5 11/18/5

vt 31.3002 31.3002
f 9/17/5 14/16/5 8/19/5

usemtl Brick
vn 1 -2.05993e-031 4.89389e-015
f 8/15/6 13/14/6 14/12/6

v 0.795026 0.4 -0.795026
f 13/14/6 8/15/6 15/13/6

f 8/8/2 2/2/2 15/11/2

f 2/2/2 8/8/2 3/3/2

f 15/11/2 2/2/2 4/4/2

f 15/11/2 4/4/2 5/5/2

f 15/11/2 5/5/2 10/10/2

v 0.301125 0.332537 -0.795026
vt -11.8553 13.092
f 16/20/2 10/10/2 5/5/2

f 7/7/2 10/10/2 16/20/2

usemtl Grey
f 16/20/1 6/6/1 7/7/1

f 6/6/1 16/20/1 5/5/1

usemtl Brick
vn -7.45363e-031 1 -7.6467e-017
f 10/17/7 13/16/7 15/19/7

f 13/16/7 10/17/7 12/18/7

usemtl Brick_Light
vn 0 1 -0
v 0.815026 0.13 -0.184974
vt 32.0876 7.28245
f 14/16/8 17/21/8 8/19/8

f 11/18/8 17/21/8 14/16/8

v 0.184974 0.13 -0.184974
vt 7.28245 7.28245
f 11/18/8 18/22/8 17/21/8

v 0.184974 0.13 -0.815026
vt 7.28245 32.0876
f 18/22/8 11/18/8 19/23/8

f 9/17/8 19/23/8 11/18/8

v 0.815026 0.13 -0.815026
vt 32.0876 32.0876
f 19/23/8 9/17/8 20/24/8

f 20/24/8 9/17/8 8/19/8

f 20/24/8 8/19/8 17/21/8

vt 7.28245 5.11811
vn 1 -2.55415e-031 4.89389e-015
v 0.815026 0 -0.815026
vt 32.0876 8.19566e-030
vt 32.0876 5.11811
f 17/25/9 21/26/9 20/27/9

v 0.815026 4.51195e-017 -0.184974
vt 7.28245 1.77636e-015
f 21/26/9 17/25/9 22/28/9

vn 1.95756e-014 0 1
v 0.184974 4.51195e-017 -0.184974
vt 32.0876 1.77636e-015
f 17/27/10 23/28/10 22/29/10

f 23/28/10 17/27/10 18/25/10

vt -32.0876 5.11811
vn -1 7.66245e-031 -1.46817e-014
vt -7.28245 1.77636e-015
vt -7.28245 5.11811
f 19/30/11 23/31/11 18/32/11

v 0.184974 0 -0.815026
vt -32.0876 5.58014e-030
f 23/31/11 19/30/11 24/33/11

vn -1.95756e-014 0 -1
vt -32.0876 0
vt -7.28245 0
f 19/32/12 21/34/12 24/35/12

f 21/34/12 19/32/12 20/30/12

usemtl FrontColor
vt -32.0876 7.28245
vn 7.45363e-031 -1 7.6467e-017
vt -7.28245 32.0876
vt -32.0876 32.0876
f 22/36/13 24/37/13 21/38/13

vt -7.28245 7.28245
f 24/37/13 22/36/13 23/39/13

