# Alias OBJ Model File
# Exported from SketchUp, (c) 2000-2012 Trimble Navigation Limited
# File units = meters

mtllib towerDefense_052.mtl

g Mesh1 Group3 Group1 Model

usemtl Red_Roof
v 0.474916 0.591442 -0.524621
vt 11.4236 10.293
vn 0.707107 -1.24595e-016 -0.707107
v 0.70471 0.33 -0.294827
vt 2.03484e-013 1.71775e-029
v 0.474916 0.33 -0.524621
vt 11.4236 1.37065e-029
f 1/1/1 2/2/1 3/3/1

vt 8.07768 13.0841
vn 0.818966 0.573842 4.45282e-015
vt 2.30926e-013 3.50931e-014
v 0.70471 0.33 -0.754415
vt 16.1554 3.48505e-014
f 1/4/2 2/5/2 4/6/2

v 0.245122 0.33 -0.294827
vt -16.1554 1.40203e-013
vn 9.92125e-015 0.573842 0.818966
vt -5.68434e-014 1.42566e-013
vt -8.07768 13.0841
f 5/7/3 2/8/3 1/9/3

vt 0 16.1554
vn 0 -1 -0
vt -8.07768 8.07768
vt -2.30926e-013 5.68434e-014
f 5/10/4 3/11/4 2/12/4

v 0.245122 0.33 -0.754415
vt -16.1554 16.1554
f 3/11/4 5/10/4 6/13/4

vt -8.07768 3.1104
vn -0.818966 0.573842 -1.02274e-014
vt -16.1554 -9.97374
vt 1.70364e-013 -9.97374
f 1/14/5 6/15/5 5/16/5

vt 16.1554 -9.97374
vn -9.93575e-015 0.573842 -0.818966
vt 8.07768 3.1104
vt -2.27386e-013 -9.97374
f 6/17/6 1/18/6 4/19/6

vt 22.8471 0
vn 0.707107 0 -0.707107
vt 11.4236 0
f 6/20/7 1/1/7 3/21/7

vt -16.1554 0
f 4/22/4 3/11/4 6/13/4

f 3/11/4 4/22/4 2/12/4

g Mesh2 Group1 Model

usemtl Brick_Light
v 0.204974 0.27 -0.795026
vt -31.3002 10.6299
vn -1 1.04164e-030 -1.22347e-014
v 0.204974 4.51195e-017 -0.204974
vt -8.06985 1.77636e-015
v 0.204974 0.27 -0.204974
vt -8.06985 10.6299
f 7/23/8 8/24/8 9/25/8

v 0.204974 0 -0.795026
vt -31.3002 8.40591e-030
f 8/24/8 7/23/8 10/26/8

vn -2.20225e-014 0 -1
v 0.795026 0 -0.795026
vt -31.3002 0
vt -8.06985 0
f 7/25/9 11/27/9 10/28/9

v 0.795026 0.27 -0.795026
f 11/27/9 7/25/9 12/23/9

usemtl FrontColor
vt 8.06985 31.3002
vn -1.68977e-030 1 -7.6467e-017
v 0.795026 0.27 -0.204974
vt 31.3002 8.06985
vt 31.3002 31.3002
f 7/29/10 13/30/10 12/31/10

vt 8.06985 8.06985
f 13/30/10 7/29/10 9/32/10

usemtl Brick
vn -1 -3.19331e-016 -1.24895e-014
v 0.204974 0.4 -0.294827
vt -11.6074 15.748
f 9/25/11 14/33/11 7/23/11

v 0.204974 0.48 -0.294827
vt -11.6074 18.8976
f 9/25/11 15/34/11 14/33/11

v 0.204974 0.48 -0.204974
vt -8.06985 18.8976
f 15/34/11 9/25/11 16/35/11

vt 8.06985 10.6299
vn 1.68774e-014 3.19331e-015 1
v 0.294827 0.4 -0.204974
vt 11.6074 15.748
vt 8.06985 18.8976
f 9/36/12 17/37/12 16/38/12

v 0.705173 0.4 -0.204974
vt 27.7627 15.748
f 17/37/12 9/36/12 18/39/12

vt 31.3002 10.6299
f 13/40/12 18/39/12 9/36/12

v 0.795026 0.48 -0.204974
vt 31.3002 18.8976
f 18/39/12 13/40/12 19/41/12

vn 1 -1.11766e-015 4.84217e-015
v 0.795026 0.4 -0.294827
f 13/36/13 20/37/13 19/38/13

f 20/37/13 13/36/13 12/40/13

usemtl Brick_Light
vn 1 -2.90017e-031 5.50562e-015
vt 31.3002 9.07758e-030
f 13/36/14 11/42/14 12/40/14

v 0.795026 4.51195e-017 -0.204974
vt 8.06985 1.77636e-015
f 11/42/14 13/36/14 21/43/14

vn 2.20225e-014 0 1
vt 31.3002 1.77636e-015
f 13/40/15 8/43/15 21/44/15

f 8/43/15 13/40/15 9/36/15

usemtl FrontColor
vt -8.06985 31.3002
vn 7.45363e-031 -1 7.6467e-017
vt -31.3002 8.06985
vt -8.06985 8.06985
f 10/45/16 21/46/16 8/47/16

vt -31.3002 31.3002
f 21/46/16 10/45/16 11/48/16

usemtl Brick
v 0.795026 0.4 -0.451609
vt 17.7799 15.748
f 20/37/13 12/40/13 22/49/13

v 0.795026 0.4 -0.548391
vt 21.5902 15.748
f 22/49/13 12/40/13 23/50/13

v 0.795026 0.4 -0.705173
f 23/50/13 12/40/13 24/39/13

v 0.795026 0.48 -0.705173
vt 27.7627 18.8976
f 24/39/13 12/40/13 25/51/13

v 0.795026 0.48 -0.795026
f 25/51/13 12/40/13 26/41/13

vn -1.59831e-014 3.19331e-015 -1
v 0.705173 0.4 -0.795026
vt -27.7627 15.748
vt -31.3002 18.8976
f 12/23/17 27/52/17 26/53/17

v 0.548391 0.4 -0.795026
vt -21.5902 15.748
f 27/52/17 12/23/17 28/54/17

v 0.451609 0.4 -0.795026
vt -17.7799 15.748
f 28/54/17 12/23/17 29/55/17

v 0.294827 0.4 -0.795026
f 12/23/17 30/33/17 29/55/17

f 7/25/17 30/33/17 12/23/17

v 0.204974 0.48 -0.795026
f 30/33/17 7/25/17 31/35/17

v 0.204974 0.4 -0.705173
f 7/23/11 32/52/11 31/53/11

v 0.204974 0.4 -0.548391
f 7/23/11 33/54/11 32/52/11

v 0.204974 0.4 -0.451609
f 7/23/11 34/55/11 33/54/11

f 7/23/11 14/33/11 34/55/11

v 0.294827 0.4 -0.294827
vt 11.6074 11.6074
vn 0 1 -0
vt 8.06985 17.7799
vt 8.06985 11.6074
f 35/56/18 34/57/18 14/58/18

v 0.294827 0.4 -0.451609
vt 11.6074 17.7799
f 34/57/18 35/56/18 36/59/18

vn 1 -4.73578e-014 1.09586e-014
v 0.294827 0.33 -0.705173
vt 27.7627 12.9921
f 35/37/19 37/60/19 36/49/19

v 0.294827 0.33 -0.294827
vt 11.6074 12.9921
f 37/60/19 35/37/19 38/61/19

vn -1.45176e-014 7.3143e-015 -1
v 0.705173 0.33 -0.294827
vt -27.7627 12.9921
vt -11.6074 12.9921
f 35/33/20 39/62/20 38/63/20

v 0.705173 0.4 -0.294827
f 39/62/20 35/33/20 40/52/20

v 0.451609 0.4 -0.294827
f 40/52/20 35/33/20 41/55/20

vt 11.6074 8.06985
vn -3.29864e-016 1 -1.50645e-015
vt 17.7799 11.6074
f 17/64/21 41/65/21 35/56/21

v 0.451609 0.4 -0.204974
vt 17.7799 8.06985
f 41/65/21 17/64/21 42/66/21

v 0.548391 0.4 -0.204974
f 17/37/12 43/50/12 42/49/12

f 43/50/12 17/37/12 18/39/12

vt 27.7627 8.06985
vn -1.0618e-029 1 -1.0043e-015
v 0.548391 0.4 -0.294827
vt 21.5902 11.6074
vt 21.5902 8.06985
f 18/67/22 44/68/22 43/69/22

vt 27.7627 11.6074
f 44/68/22 18/67/22 40/70/22

vt -8.06985 15.748
vn -1 -1.61379e-029 1.60688e-014
v 0.705173 0.48 -0.294827
f 18/71/23 45/34/23 40/33/23

v 0.705173 0.48 -0.204974
f 45/34/23 18/71/23 46/35/23

f 18/39/12 19/41/12 46/51/12

v 0.795026 0.48 -0.294827
vt 31.3002 11.6074
vn -3.22758e-029 1 -1.0043e-015
f 47/72/24 46/67/24 19/30/24

f 46/67/24 47/72/24 45/70/24

vt -31.3002 15.748
vn 0 -1.0043e-015 -1
vt -27.7627 18.8976
f 20/73/25 45/74/25 47/53/25

f 45/74/25 20/73/25 40/52/25

v 0.705173 0.4 -0.451609
vt 27.7627 17.7799
f 20/72/18 48/75/18 40/70/18

vt 31.3002 17.7799
f 48/75/18 20/72/18 22/76/18

v 0.795026 0.48 -0.451609
vn 0 0 1
vt 31.3002 15.748
f 49/41/26 48/39/26 22/77/26

v 0.705173 0.48 -0.451609
f 48/39/26 49/41/26 50/51/26

v 0.705173 0.48 -0.548391
vt 27.7627 21.5902
f 49/76/18 51/78/18 50/75/18

v 0.795026 0.48 -0.548391
vt 31.3002 21.5902
f 51/78/18 49/76/18 52/79/18

vt 21.5902 18.8976
vt 17.7799 18.8976
f 52/80/13 49/81/13 23/50/13

f 22/49/13 23/50/13 49/81/13

vn 0 0 -1
f 23/73/27 51/74/27 52/53/27

v 0.705173 0.4 -0.548391
f 51/74/27 23/73/27 53/52/27

vt 31.3002 27.7627
f 24/82/18 53/78/18 23/79/18

v 0.705173 0.4 -0.705173
vt 27.7627 27.7627
f 53/78/18 24/82/18 54/83/18

vn 0 5.0215e-016 1
f 25/41/28 54/39/28 24/77/28

v 0.705173 0.48 -0.705173
f 54/39/28 25/41/28 55/51/28

vn 5.0215e-016 1 -5.0215e-016
v 0.705173 0.48 -0.795026
vt 27.7627 31.3002
f 25/82/29 56/84/29 55/83/29

f 56/84/29 25/82/29 26/31/29

f 26/53/17 27/52/17 56/74/17

vn -1 5.0215e-016 -0
f 54/52/30 56/53/30 27/73/30

f 56/53/30 54/52/30 55/74/30

vt 21.5902 31.3002
vn -2.80384e-015 1 -1.75753e-015
f 28/85/31 54/83/31 27/84/31

v 0.548391 0.4 -0.705173
vt 21.5902 27.7627
f 54/83/31 28/85/31 57/86/31

vn 1 -9.89591e-016 1.60688e-014
v 0.548391 0.48 -0.705173
f 28/77/32 58/51/32 57/39/32

v 0.548391 0.48 -0.795026
f 58/51/32 28/77/32 59/41/32

v 0.451609 0.48 -0.795026
vt -17.7799 18.8976
vt -21.5902 18.8976
f 28/54/17 60/87/17 59/88/17

f 60/87/17 28/54/17 29/55/17

v 0.451609 0.4 -0.705173
vn -1 9.89591e-016 -1.60688e-014
f 61/52/33 60/53/33 29/73/33

v 0.451609 0.48 -0.705173
f 60/53/33 61/52/33 62/74/33

vn 1.52672e-014 -5.30056e-015 1
f 57/50/34 62/81/34 61/49/34

f 62/81/34 57/50/34 58/80/34

vn 9.89591e-016 1 -2.51075e-015
vt 17.7799 31.3002
vt 17.7799 27.7627
f 58/86/35 60/89/35 62/90/35

f 60/89/35 58/86/35 59/85/35

f 61/49/34 54/39/34 57/50/34

f 37/61/34 54/39/34 61/49/34

v 0.705173 0.33 -0.705173
f 54/39/34 37/61/34 63/60/34

usemtl FrontColor
vt 11.6074 27.7627
vn 1.73613e-017 1 -2.60419e-016
f 37/91/36 39/70/36 63/83/36

f 39/70/36 37/91/36 38/56/36

usemtl Brick
vn 1 -3.1026e-014 1.00097e-014
v 0.294827 0.28 -0.705173
vt 27.7627 11.0236
f 38/61/37 64/92/37 37/60/37

v 0.294827 0.28 -0.294827
vt 11.6074 11.0236
f 64/92/37 38/61/37 65/93/37

vn -1.45595e-014 4.59644e-015 -1
v 0.705173 0.28 -0.294827
vt -27.7627 11.0236
vt -11.6074 11.0236
f 38/63/38 66/94/38 65/95/38

f 66/94/38 38/63/38 39/62/38

vn -1 2.40965e-029 -5.27782e-015
f 63/62/39 66/95/39 39/63/39

v 0.705173 0.28 -0.705173
f 66/95/39 63/62/39 67/94/39

vn 1.45595e-014 -4.59644e-015 1
f 63/60/40 64/93/40 67/92/40

f 64/93/40 63/60/40 37/61/40

vn -3.09457e-030 1 -2.19909e-016
f 64/91/41 66/70/41 67/83/41

f 66/70/41 64/91/41 65/56/41

vn -1 1.69837e-029 -5.27782e-015
f 39/63/42 48/55/42 63/62/42

f 48/55/42 39/63/42 40/33/42

f 63/62/42 48/55/42 53/54/42

f 53/54/42 48/55/42 51/88/42

f 51/88/42 48/55/42 50/87/42

f 63/62/42 53/54/42 54/52/42

v 0.294827 0.4 -0.705173
f 68/37/34 37/61/34 61/49/34

v 0.294827 0.4 -0.548391
f 69/50/19 37/60/19 68/39/19

f 36/49/19 37/60/19 69/50/19

v 0.294827 0.48 -0.451609
f 36/49/19 69/50/19 70/81/19

v 0.294827 0.48 -0.548391
f 71/80/19 70/81/19 69/50/19

v 0.204974 0.48 -0.548391
vt 8.06985 21.5902
vt 11.6074 21.5902
f 72/96/18 70/59/18 71/97/18

v 0.204974 0.48 -0.451609
f 70/59/18 72/96/18 73/57/18

f 72/88/11 34/55/11 73/87/11

f 33/54/11 34/55/11 72/88/11

vn -6.42752e-014 0 -1
f 72/35/43 69/33/43 33/71/43

f 69/33/43 72/35/43 71/34/43

vt 8.06985 27.7627
f 69/97/18 32/98/18 33/96/18

f 32/98/18 69/97/18 68/91/18

v 0.294827 0.48 -0.705173
vt 11.6074 18.8976
vn 0 1.0043e-015 1
vt 8.06985 15.748
f 74/99/44 32/100/44 68/37/44

v 0.204974 0.48 -0.705173
f 32/100/44 74/99/44 75/38/44

vn -1.61308e-029 1 -1.0043e-015
f 74/91/45 31/29/45 75/98/45

v 0.294827 0.48 -0.795026
vt 11.6074 31.3002
f 31/29/45 74/91/45 76/101/45

vn 1 1.61308e-029 -0
f 74/51/46 30/77/46 76/41/46

f 30/77/46 74/51/46 68/39/46

vn 1.48439e-015 1 -1.25538e-015
f 61/90/47 30/101/47 68/91/47

f 30/101/47 61/90/47 29/89/47

f 30/33/17 31/35/17 76/34/17

f 31/53/11 32/52/11 75/74/11

f 34/100/26 70/99/26 73/38/26

f 70/99/26 34/100/26 36/37/26

f 47/99/13 19/38/13 20/37/13

f 40/52/20 41/55/20 44/54/20

v 0.451609 0.48 -0.294827
f 77/87/20 44/54/20 41/55/20

v 0.548391 0.48 -0.294827
f 44/54/20 77/87/20 78/88/20

vn 3.29864e-016 1 -1.50645e-015
v 0.548391 0.48 -0.204974
f 77/65/48 79/69/48 78/68/48

v 0.451609 0.48 -0.204974
f 79/69/48 77/65/48 80/66/48

vn -1 3.29864e-016 -1.60688e-014
f 77/34/49 42/71/49 80/35/49

f 42/71/49 77/34/49 41/33/49

f 42/49/12 79/80/12 80/81/12

f 42/49/12 43/50/12 79/80/12

vn 1 -3.29864e-016 3.9443e-031
f 44/37/50 79/38/50 43/100/50

f 79/38/50 44/37/50 78/99/50

vn 1 8.10458e-030 -8.0344e-015
v 0.294827 0.48 -0.204974
f 35/37/51 81/38/51 17/100/51

v 0.294827 0.48 -0.294827
f 81/38/51 35/37/51 82/99/51

f 35/33/25 15/35/25 82/34/25

f 15/35/25 35/33/25 14/71/25

vn -1.61735e-029 1 -1.0043e-015
f 15/58/52 81/64/52 82/56/52

f 81/64/52 15/58/52 16/32/52

f 16/38/12 17/37/12 81/99/12

