# Alias OBJ Model File
# Exported from SketchUp, (c) 2000-2012 Trimble Navigation Limited
# File units = meters

mtllib towerDefense_040.mtl

g Mesh1 Group1 Model

usemtl Brick
v 0.15187 0 -0.84813
vt -5.97912 33.391
vn 6.31664e-031 -1 6.48025e-017
v 0.84813 0 -0.15187
vt -33.391 5.97912
v 0.15187 0 -0.15187
vt -5.97912 5.97912
f 1/1/1 2/2/1 3/3/1

v 0.84813 0 -0.84813
vt -33.391 33.391
f 2/2/1 1/1/1 4/4/1

v 0.204974 0.35 -0.795026
vt -8.06985 8.92824
vn -2.46123e-014 0.150011 -0.988684
vt -33.391 -5.009
vt -5.97912 -5.009
f 5/5/2 4/6/2 1/7/2

v 0.795026 0.35 -0.795026
vt -31.3002 8.92824
f 4/6/2 5/5/2 6/8/2

v 0.795026 0.35 -0.204974
vt -31.3002 8.06985
vn 7.45363e-031 -1 7.6467e-017
vt -8.06985 31.3002
vt -31.3002 31.3002
f 7/9/3 5/10/3 6/11/3

v 0.204974 0.35 -0.204974
vt -8.06985 8.06985
f 5/10/3 7/9/3 8/12/3

v 0.795026 0.4 -0.204974
vt 31.3002 15.748
vn 1.46817e-014 7.6467e-017 1
vt 8.06985 13.7795
vt 31.3002 13.7795
f 9/13/4 8/14/4 7/15/4

v 0.204974 0.4 -0.204974
vt 8.06985 15.748
f 8/14/4 9/13/4 10/16/4

vt 31.3002 8.06985
vn -7.45363e-031 1 -7.6467e-017
v 0.204974 0.4 -0.795026
vt 8.06985 31.3002
vt 8.06985 8.06985
f 9/17/5 11/18/5 10/19/5

v 0.795026 0.4 -0.795026
vt 31.3002 31.3002
f 11/18/5 9/17/5 12/20/5

vn 1 1.21314e-030 6.11736e-015
f 9/16/6 6/15/6 12/13/6

f 6/15/6 9/16/6 7/14/6

vt 8.06985 8.92824
vn 0.988684 0.150011 4.40414e-015
vt 33.391 -5.009
vt 31.3002 8.92824
f 7/21/7 4/22/7 6/23/7

vt 5.97912 -5.009
f 4/22/7 7/21/7 2/24/7

vt 31.3002 14.8342
vn 2.1032e-014 0.150011 0.988684
vt 5.97912 0.896932
vt 33.391 0.896932
f 7/25/8 3/26/8 2/27/8

vt 8.06985 14.8342
f 3/26/8 7/25/8 8/28/8

vt -8.06985 14.8342
vn -0.988684 0.150011 -1.32291e-014
vt -33.391 0.896932
vt -5.97912 0.896932
f 8/29/9 1/30/9 3/31/9

vt -31.3002 14.8342
f 1/30/9 8/29/9 5/32/9

vt -8.06985 13.7795
vn -1 -1.49381e-030 -9.78778e-015
vt -31.3002 15.748
vt -31.3002 13.7795
f 8/33/10 11/34/10 5/35/10

vt -8.06985 15.748
f 11/34/10 8/33/10 10/36/10

vn -1.46817e-014 -7.6467e-017 -1
f 11/36/11 6/35/11 5/33/11

f 6/35/11 11/36/11 12/34/11

