# Alias OBJ Model File
# Exported from SketchUp, (c) 2000-2012 Trimble Navigation Limited
# File units = meters

mtllib towerDefense_094.mtl

g Mesh1 Group1 Model

usemtl Grass
v 0.125 0.4 -0.875
vt 4.92126 34.4488
vn 1.80478e-016 1 -1.80478e-016
v 1.49012e-008 0.4 -1
vt 5.8666e-007 39.3701
v 1.30385e-008 0.4 -0.875
vt 5.13327e-007 34.4488
f 1/1/1 2/2/1 3/3/1

v 0.125 0.4 -1
vt 4.92126 39.3701
f 2/2/1 1/1/1 4/4/1

usemtl Dirt
vt 34.4488 15.748
vn 1 4.91197e-018 1.49011e-008
v 0.125 0.37 -1
vt 39.3701 14.5669
vt 39.3701 15.748
f 1/5/2 5/6/2 4/7/2

v 0.125 0.37 -0.875
vt 34.4488 14.5669
f 5/6/2 1/5/2 6/8/2

vt 4.92126 15.748
vn -1.49011e-008 -3.84027e-017 1
v 1.30385e-008 0.37 -0.875
vt 4.85762e-013 14.5669
vt 4.92126 14.5669
f 1/9/3 7/10/3 6/11/3

vt 4.85762e-013 15.748
f 7/10/3 1/9/3 3/12/3

usemtl Grass
vt -39.3701 15.748
vn -1 8.23135e-015 -1.49011e-008
vt -34.4488 14.5669
vt -34.4488 15.748
f 2/13/4 7/14/4 3/15/4

v 1.30385e-008 0.2 -0.875
vt -34.4488 7.87402
f 7/14/4 2/13/4 8/16/4

v 1.49012e-008 0.2 -1
vt -39.3701 7.87402
f 8/16/4 2/13/4 9/17/4

vt -2.0993e-012 15.748
vn 1.49011e-008 8.28916e-031 -1
v 0.125 0.2 -1
vt -4.92126 7.87402
vt -2.0993e-012 7.87402
f 2/18/5 10/19/5 9/20/5

vt -4.92126 14.5669
f 10/19/5 2/18/5 5/21/5

vt -4.92126 15.748
f 5/21/5 2/18/5 4/22/5

usemtl Dirt
vn 1.49011e-008 0 -1
v 0.875 0.2 -1
f 5/21/6 11/16/6 10/19/6

v 0.875 0.37 -1
f 11/16/6 5/21/6 12/14/6

vn -4.91198e-018 1 3.84027e-017
v 0.875 0.37 -0.125
vt 34.4488 4.92126
vt 34.4488 39.3701
f 5/4/7 13/23/7 12/24/7

f 6/1/7 13/23/7 5/4/7

f 7/3/7 13/23/7 6/1/7

v 1.86265e-009 0.37 -0.125
vt 7.33327e-008 4.92126
f 13/23/7 7/3/7 14/25/7

vn -1 1.69862e-014 -1.49012e-008
v 1.86265e-009 0.2 -0.125
f 7/14/8 15/19/8 14/21/8

f 15/19/8 7/14/8 8/16/8

v 1.49012e-008 0 -1
vt -39.3701 0
vn -1 0 -1.49012e-008
f 16/26/9 15/19/9 8/16/9

v 0 0 -1.49011e-008
vt -5.86659e-007 0
f 17/27/9 15/19/9 16/26/9

v 0 0.2 -1.49011e-008
vt -5.86659e-007 7.87402
f 15/19/9 17/27/9 18/28/9

vt -8.7419e-015 0
vn -1.49012e-008 0 1
v 1 0.2 -0
vt 39.3701 7.87402
vt -8.7419e-015 7.87402
f 17/29/10 19/30/10 18/31/10

v 1 0 -0
vt 39.3701 0
f 19/30/10 17/29/10 20/32/10

vt -5.8666e-007 39.3701
vn 0 -1 -0
vt 0 5.86659e-007
f 16/33/11 20/26/11 17/34/11

v 1 0 -1
vt -39.3701 39.3701
f 20/26/11 16/33/11 21/35/11

vt -2.03817e-013 7.87402
vn 1.49012e-008 0 -1
vt -2.03817e-013 0
f 9/36/12 21/26/12 16/37/12

v 1 0.2 -1
f 21/26/12 9/36/12 22/17/12

f 22/17/12 9/36/12 10/19/12

vn 0 1 -0
f 9/2/13 19/32/13 10/4/13

f 8/3/13 19/32/13 9/2/13

vt 7.33326e-008 4.92126
f 15/38/13 19/32/13 8/3/13

f 19/32/13 15/38/13 18/34/13

usemtl Grass
vn -1 8.23135e-015 -1.49012e-008
v 1.86265e-009 0.4 -0.125
f 18/28/14 23/22/14 15/19/14

v 0 0.4 -1.49011e-008
vt -5.86659e-007 15.748
f 23/22/14 18/28/14 24/39/14

v 1 0.4 -0
vt -8.7419e-015 15.748
f 18/31/10 25/7/10 24/40/10

f 25/7/10 18/31/10 19/30/10

vn 1 2.90022e-029 1.49012e-008
vt 5.86659e-007 15.748
vt 5.86659e-007 7.87402
f 22/30/15 25/41/15 19/42/15

v 1 0.4 -1
f 25/41/15 22/30/15 26/7/15

f 11/16/6 26/13/6 22/17/6

f 26/13/6 11/16/6 12/14/6

v 0.875 0.4 -1
f 26/13/6 12/14/6 27/15/6

usemtl Dirt
vn -1 -4.91197e-018 -1.49011e-008
vt -39.3701 14.5669
f 13/21/16 27/13/16 12/43/16

v 0.875 0.4 -0.125
f 27/13/16 13/21/16 28/22/16

vn 1.49011e-008 3.84027e-017 -1
vt -2.40552e-013 15.748
f 13/14/17 23/44/17 28/15/17

vt -2.40552e-013 14.5669
f 23/44/17 13/14/17 14/45/17

usemtl Grass
f 15/19/14 23/22/14 14/21/14

vn -8.19052e-019 1 4.70954e-017
vt 39.3701 7.4166e-016
f 23/25/18 25/46/18 28/23/18

vt 1.28984e-017 5.86659e-007
f 25/46/18 23/25/18 24/47/18

f 28/23/18 25/46/18 27/24/18

vt 39.3701 39.3701
f 27/24/18 25/46/18 26/48/18

usemtl Dirt
f 11/24/13 19/32/13 22/48/13

f 10/4/13 19/32/13 11/24/13

f 22/17/12 10/19/12 11/16/12

vn 1 0 1.49012e-008
f 19/42/19 21/32/19 22/30/19

vt 5.86659e-007 0
f 21/32/19 19/42/19 20/49/19

f 16/26/9 8/16/9 9/17/9

