# Alias OBJ Model File
# Exported from SketchUp, (c) 2000-2012 Trimble Navigation Limited
# File units = meters

mtllib towerDefense_090.mtl

g Mesh1 Group1 Model

usemtl Grass
v 1 0.4 -0.875
vt 39.3701 34.4488
vn 0 1 -0
v 2.88765e-015 0.4 -1
vt 1.13687e-013 39.3701
v 2.88765e-015 0.4 -0.875
vt 1.13687e-013 34.4488
f 1/1/1 2/2/1 3/3/1

v 1 0.4 -1
vt 39.3701 39.3701
f 2/2/1 1/1/1 4/4/1

vt 34.4488 15.748
vn 1 0 1.94289e-015
v 1 0.2 -1
vt 39.3701 7.87402
vt 39.3701 15.748
f 1/5/2 5/6/2 4/7/2

v 1 0.37 -0.875
vt 34.4488 14.5669
f 6/8/2 5/6/2 1/5/2

v 1 0.2 -0.875
vt 34.4488 7.87402
f 5/6/2 6/8/2 7/9/2

usemtl Dirt
v 1 0.2 -0.125
vt 4.92126 7.87402
f 6/8/2 8/10/2 7/9/2

v 1 0.37 -0.125
vt 4.92126 14.5669
f 8/10/2 6/8/2 9/11/2

v 2.88765e-015 0.37 -0.875
vt 39.3701 4.92126
f 10/3/1 9/12/1 6/1/1

v 0 0.37 -0.125
vt 0 4.92126
f 9/12/1 10/3/1 11/13/1

vt -34.4488 14.5669
vn -1 0 -1.94289e-015
v 0 0.2 -0.125
vt -4.92126 7.87402
vt -4.92126 14.5669
f 10/14/3 12/15/3 11/16/3

v 2.88765e-015 0.2 -0.875
vt -34.4488 7.87402
f 12/15/3 10/14/3 13/17/3

usemtl Grass
v 2.88765e-015 0.2 -1
vt -39.3701 7.87402
f 10/14/3 14/18/3 13/17/3

vt -39.3701 15.748
f 14/18/3 10/14/3 2/19/3

vt -34.4488 15.748
f 2/19/3 10/14/3 3/20/3

usemtl Dirt
vt 9.64946e-014 14.5669
vn -4.99067e-016 -4.81274e-014 1
vt 9.64946e-014 15.748
f 10/21/4 1/7/4 3/22/4

vt 39.3701 14.5669
f 1/7/4 10/21/4 6/23/4

usemtl Grass
vt -3.71951e-014 15.748
vn 1.94289e-015 0 -1
vt -3.71951e-014 7.87402
f 2/24/5 5/18/5 14/25/5

f 5/18/5 2/24/5 4/19/5

usemtl Dirt
f 14/2/1 8/12/1 5/4/1

v 1 0.2 -0
vt 39.3701 0
f 14/2/1 15/26/1 8/12/1

f 13/3/1 15/26/1 14/2/1

f 12/13/1 15/26/1 13/3/1

v 0 0.2 -0
vt 0 0
f 15/26/1 12/13/1 16/27/1

v 0 0 -0
vt 0 7.87402
f 12/15/3 17/27/3 16/28/3

v 2.88765e-015 0 -1
vt -39.3701 0
f 17/27/3 12/15/3 18/29/3

f 18/29/3 12/15/3 13/17/3

f 18/29/3 13/17/3 14/18/3

v 1 0 -1
vt -3.71951e-014 0
f 14/25/5 19/29/5 18/30/5

f 19/29/5 14/25/5 5/18/5

f 7/9/2 19/26/2 5/6/2

f 8/10/2 19/26/2 7/9/2

vt 7.64917e-014 7.87402
f 15/31/2 19/26/2 8/10/2

v 1 0 -0
vt 7.64917e-014 0
f 19/26/2 15/31/2 20/32/2

vn -1.94289e-015 0 1
f 15/6/6 17/27/6 20/26/6

f 17/27/6 15/6/6 16/28/6

usemtl Grass
v 1 0.4 -0
f 21/7/6 16/28/6 15/6/6

v 0 0.4 -0
vt 0 15.748
f 16/28/6 21/7/6 22/33/6

v 0 0.4 -0.125
f 21/26/1 23/13/1 22/27/1

v 1 0.4 -0.125
f 23/13/1 21/26/1 24/12/1

vt 4.92126 15.748
vt 7.64917e-014 15.748
f 24/34/2 21/35/2 9/11/2

f 21/35/2 8/10/2 9/11/2

f 8/10/2 21/35/2 15/31/2

usemtl Dirt
vt -39.3701 14.5669
vn -9.44755e-016 -9.62549e-014 -1
vt -4.64939e-015 15.748
f 9/36/7 23/37/7 24/19/7

vt -4.64939e-015 14.5669
f 23/37/7 9/36/7 11/38/7

usemtl Grass
vt -4.92126 15.748
f 16/28/3 23/39/3 11/16/3

f 23/39/3 16/28/3 22/33/3

f 16/28/3 11/16/3 12/15/3

usemtl Dirt
vt -1.13687e-013 39.3701
vn 0 -1 -0
f 18/40/8 20/29/8 17/27/8

vt -39.3701 39.3701
f 20/29/8 18/40/8 19/41/8

f 5/4/1 8/12/1 7/1/1

