# Alias OBJ Model File
# Exported from SketchUp, (c) 2000-2012 Trimble Navigation Limited
# File units = meters

mtllib towerDefense_021.mtl

g Mesh1 Group1 Model

usemtl FrontColor
v 0.234974 0 -0.765026
vt -9.25096 30.1191
vn 7.45363e-031 -1 7.6467e-017
v 0.765026 4.51195e-017 -0.234974
vt -30.1191 9.25096
v 0.234974 4.51195e-017 -0.234974
vt -9.25096 9.25096
f 1/1/1 2/2/1 3/3/1

v 0.765026 0 -0.765026
vt -30.1191 30.1191
f 2/2/1 1/1/1 4/4/1

usemtl Brick_Light
v 0.234974 0.13 -0.765026
vt -9.25096 5.11811
vn -1.95756e-014 0 -1
vt -30.1191 0
vt -9.25096 0
f 5/5/2 4/6/2 1/7/2

v 0.765026 0.13 -0.765026
vt -30.1191 5.11811
f 4/6/2 5/5/2 6/8/2

vn 0 -1 -0
v 0.795026 0.13 -0.795026
vt -31.3002 31.3002
f 5/1/3 7/9/3 6/4/3

v 0.204974 0.13 -0.795026
vt -8.06985 31.3002
f 5/1/3 8/10/3 7/9/3

v 0.234974 0.13 -0.234974
f 8/10/3 5/1/3 9/3/3

vn -1 7.66245e-031 -1.46817e-014
vt -9.25096 1.77636e-015
f 5/8/4 3/11/4 9/5/4

vt -30.1191 7.0885e-030
f 3/11/4 5/8/4 1/12/4

vt 9.25096 1.77636e-015
vn 1.95756e-014 0 1
v 0.765026 0.13 -0.234974
vt 30.1191 5.11811
vt 9.25096 5.11811
f 3/13/5 10/14/5 9/15/5

vt 30.1191 1.77636e-015
f 10/14/5 3/13/5 2/16/5

vt 30.1191 7.69288e-030
vn 1 -2.55415e-031 4.89389e-015
f 4/17/6 10/15/6 2/13/6

f 10/15/6 4/17/6 6/14/6

v 0.795026 0.13 -0.204974
vt -31.3002 8.06985
f 11/18/3 10/2/3 6/4/3

f 11/18/3 9/3/3 10/2/3

v 0.204974 0.13 -0.204974
vt -8.06985 8.06985
f 12/19/3 9/3/3 11/18/3

f 9/3/3 12/19/3 8/10/3

usemtl Brick
vt -8.06985 5.11811
vn -1 1.03508e-030 -1.46817e-014
v 0.204974 0.4 -0.795026
vt -31.3002 15.748
vt -31.3002 5.11811
f 12/20/7 13/21/7 8/22/7

v 0.204974 0.4 -0.204974
vt -8.06985 15.748
f 13/21/7 12/20/7 14/23/7

vt 8.06985 5.11811
vn 1.95756e-014 -1.32121e-030 1
v 0.795026 0.4 -0.204974
vt 31.3002 15.748
vt 8.06985 15.748
f 12/24/8 15/25/8 14/26/8

vt 31.3002 5.11811
f 15/25/8 12/24/8 11/27/8

vn 1 -2.05993e-031 4.89389e-015
v 0.795026 0.191494 -0.376906
vt 14.8388 7.53915
f 11/24/9 16/28/9 15/26/9

f 16/28/9 11/24/9 7/27/9

usemtl Brick_Light
f 6/4/3 7/9/3 11/18/3

usemtl Brick
v 0.795026 0.191494 -0.456906
vt 17.9884 7.53915
f 16/28/9 7/27/9 17/29/9

v 0.795026 0.231494 -0.456906
vt 17.9884 9.11395
f 17/29/9 7/27/9 18/30/9

v 0.795026 0.251639 -0.485424
vt 19.1112 9.90703
f 18/30/9 7/27/9 19/31/9

v 0.795026 0.251639 -0.550145
vt 21.6593 9.90703
f 19/31/9 7/27/9 20/32/9

v 0.795026 0.291639 -0.550145
vt 21.6593 11.4818
f 20/32/9 7/27/9 21/33/9

v 0.795026 0.4 -0.795026
f 22/25/9 21/33/9 7/27/9

v 0.795026 0.291639 -0.485424
vt 19.1112 11.4818
f 22/25/9 23/34/9 21/33/9

v 0.795026 0.322671 -0.416639
vt 16.4031 12.7036
f 22/25/9 24/35/9 23/34/9

v 0.795026 0.322671 -0.326639
vt 12.8598 12.7036
f 22/25/9 25/36/9 24/35/9

f 15/26/9 25/36/9 22/25/9

v 0.795026 0.272671 -0.326639
vt 12.8598 10.7351
f 25/36/9 15/26/9 26/37/9

f 15/26/9 16/28/9 26/37/9

v 0.795026 0.231494 -0.376906
vt 14.8388 9.11395
f 27/38/9 26/37/9 16/28/9

v 0.795026 0.272671 -0.416639
vt 16.4031 10.7351
f 26/37/9 27/38/9 28/39/9

f 28/39/9 27/38/9 18/30/9

usemtl Grey
vn 1 0 -0
f 27/38/10 17/29/10 18/30/10

f 17/29/10 27/38/10 16/28/10

usemtl Brick
f 28/39/9 18/30/9 24/35/9

f 23/34/9 24/35/9 18/30/9

f 23/34/9 18/30/9 19/31/9

usemtl Grey
f 20/32/10 23/34/10 19/31/10

f 23/34/10 20/32/10 21/33/10

f 25/36/10 28/39/10 24/35/10

f 28/39/10 25/36/10 26/37/10

usemtl Brick
vt 8.06985 31.3002
vn -7.45363e-031 1 -7.6467e-017
vt 31.3002 8.06985
vt 31.3002 31.3002
f 13/40/11 15/41/11 22/42/11

vt 8.06985 8.06985
f 15/41/11 13/40/11 14/43/11

vn -1.95756e-014 -2.373e-030 -1
f 7/22/12 13/23/12 22/21/12

f 13/23/12 7/22/12 8/20/12

usemtl FrontColor
vt 30.1191 9.25096
vn -1.49878e-030 1 -7.6467e-017
vt 9.25096 30.1191
vt 9.25096 9.25096
f 10/44/13 5/45/13 9/46/13

vt 30.1191 30.1191
f 5/45/13 10/44/13 6/47/13

