# Alias OBJ Model File
# Exported from SketchUp, (c) 2000-2012 Trimble Navigation Limited
# File units = meters

mtllib towerDefense_071.mtl

g Mesh1 Group1 Model

usemtl Brick
v 0.143019 0 -0.856981
vt -5.63066 33.7394
vn 6.16003e-031 -1 6.31959e-017
v 0.856981 4.51195e-017 -0.143019
vt -33.7394 5.63066
v 0.143019 4.51195e-017 -0.143019
vt -5.63066 5.63066
f 1/1/1 2/2/1 3/3/1

v 0.856981 0 -0.856981
vt -33.7394 33.7394
f 2/2/1 1/1/1 4/4/1

v 0.204974 0.4 -0.795026
vt -8.06985 10.7715
vn -1.73463e-014 0.153063 -0.988216
vt -33.7394 -5.16427
vt -5.63066 -5.16427
f 5/5/2 4/6/2 1/7/2

v 0.795026 0.4 -0.795026
vt -31.3002 10.7715
f 4/6/2 5/5/2 6/8/2

vt 8.06985 31.3002
vn -7.45363e-031 1 -7.6467e-017
v 0.795026 0.4 -0.204974
vt 31.3002 8.06985
vt 31.3002 31.3002
f 5/9/3 7/10/3 6/11/3

v 0.204974 0.4 -0.204974
vt 8.06985 8.06985
f 7/10/3 5/9/3 8/12/3

vt -33.7394 0.861848
vn -0.988216 0.153063 -1.42253e-014
vt -8.06985 16.7977
vt -31.3002 16.7977
f 1/13/4 8/14/4 5/15/4

vt -5.63066 0.861848
f 8/14/4 1/13/4 3/16/4

vt 5.63066 0.861848
vn 1.73505e-014 0.153063 0.988216
vt 31.3002 16.7977
vt 8.06985 16.7977
f 3/17/5 7/18/5 8/19/5

vt 33.7394 0.861848
f 7/18/5 3/17/5 2/20/5

vt 33.7394 -5.16427
vn 0.988216 0.153063 4.31436e-015
vt 8.06985 10.7715
vt 5.63066 -5.16427
f 4/21/6 7/22/6 2/23/6

vt 31.3002 10.7715
f 7/22/6 4/21/6 6/24/6

