# Alias OBJ Model File
# Exported from SketchUp, (c) 2000-2012 Trimble Navigation Limited
# File units = meters

mtllib towerDefense_083.mtl

g Mesh1 Group1 Model

usemtl Grass
v 0.585922 0.506898 -8.73092e-009
vt -1.11974e-005 -20.7761
vn 0.0721208 0.997396 -5.39114e-008
v 0.671397 0.497606 -0.125
vt 4.92125 -24.1611
vn 0.143866 0.989597 -5.41493e-008
v 0.585922 0.506898 -0.125
vt 4.92125 -20.7761
f 1/1/1 2/2/2 3/3/1

v 0.671397 0.497606 -1.00046e-008
vt -1.28308e-005 -24.1611
f 2/2/2 1/1/1 4/4/2

v 0.414078 0.506898 -6.17025e-009
vt 16.3023 19.9566
vn 6.57051e-009 2.75252e-008 1
vt 26.4329 19.5908
vt 23.0678 19.9566
f 5/5/3 4/6/3 1/7/3

v 0.328603 0.497606 -4.89658e-009
vt 12.9371 19.5908
f 6/8/3 4/6/3 5/5/3

v 0.755979 0.482175 -1.1265e-008
vt 29.7629 18.9833
f 6/8/3 7/9/3 4/6/3

v 0.244021 0.482175 -3.6362e-009
vt 9.60715 18.9833
f 8/10/3 7/9/3 6/8/3

v 0.839227 0.460684 -1.25055e-008
vt 33.0404 18.1372
f 8/10/3 9/11/3 7/9/3

v 0.160773 0.460684 -2.3957e-009
vt 6.32964 18.1372
f 10/12/3 9/11/3 8/10/3

v 0.920709 0.433244 -1.37196e-008
vt 36.2484 17.0569
f 10/12/3 11/13/3 9/11/3

v 0.0792908 0.433244 -1.18153e-009
vt 3.12169 17.0569
f 12/14/3 11/13/3 10/12/3

v 1.15506e-014 0.4 -0
vt 4.54747e-013 15.748
f 13/15/3 11/13/3 12/14/3

v 1 0.4 -1.15506e-014
vt 39.3701 15.748
f 13/15/3 14/16/3 11/13/3

v 1.15506e-014 0.2 -0
vt 4.54747e-013 7.87402
f 15/17/3 14/16/3 13/15/3

v 1 0.2 -1.15506e-014
vt 39.3701 7.87402
f 14/16/3 15/17/3 16/18/3

usemtl Dirt
v 1.15506e-014 0 -0
vt 4.54747e-013 0
vn 1.16018e-014 0 1
f 17/19/4 16/18/4 15/17/4

v 1 0 -1.15506e-014
vt 39.3701 0
f 16/18/4 17/19/4 18/20/4

vt -4.54747e-013 0
vn 0 -1 -0
v 1 0 -1
vt -39.3701 39.3701
vt -39.3701 4.54747e-013
f 17/21/5 19/22/5 18/23/5

v 0 0 -1
vt 0 39.3701
f 19/22/5 17/21/5 20/24/5

vt 5.2759e-027 0
vn -1 0 1.16018e-014
v 1.01068e-014 0.2 -0.125
vt -4.92126 7.87402
vt -39.3701 0
f 17/25/6 21/26/6 20/27/6

vt 5.2759e-027 7.87402
f 21/26/6 17/25/6 15/28/6

usemtl Grass
v 1.01068e-014 0.4 -0.125
vt -4.92126 15.748
f 15/28/6 22/29/6 21/26/6

vt 5.2759e-027 15.748
f 22/29/6 15/28/6 13/30/6

vt -2.68816e-020 6.08916
vn -0.386662 0.922222 -2.28568e-008
v 0.0792908 0.433244 -0.125
vt -4.92126 9.47412
vn -0.353132 0.935573 -3.52964e-008
vt -4.92126 6.08916
f 13/31/7 23/32/8 22/33/7

vt -2.3105e-007 9.47412
f 23/32/8 13/31/7 12/34/8

vt -5.12995e-007 8.40203
v 0.160773 0.460684 -0.125
vt -4.92126 11.787
vn -0.284739 0.958605 -4.85858e-008
vt -4.92126 8.40203
f 12/35/8 24/36/9 23/37/8

vt -1.04017e-006 11.787
f 24/36/9 12/35/8 10/38/9

vt -1.3457e-006 10.6623
v 0.244021 0.482175 -0.125
vt -4.92126 14.0473
vn -0.214862 0.976644 -5.01862e-008
vt -4.92126 10.6623
f 10/39/9 25/40/10 24/41/9

vt -2.04251e-006 14.0473
f 25/40/10 10/39/9 8/42/10

vt -2.86711e-006 12.8583
v 0.328603 0.497606 -0.125
vt -4.92126 16.2432
vn -0.143866 0.989597 -5.15252e-008
vt -4.92126 12.8583
f 8/43/10 26/44/11 25/45/10

vt -3.8609e-006 16.2432
f 26/44/11 8/43/10 6/46/11

vt -6.42942e-006 14.9784
v 0.414078 0.506898 -0.125
vt -4.92127 18.3634
vn -0.0721208 0.997396 -5.25959e-008
vt -4.92127 14.9784
f 6/47/11 27/48/12 26/49/11

vt -8.1018e-006 18.3634
f 27/48/12 6/47/11 5/50/12

vt -2.42007e-005 17.0118
v 0.5 0.51 -0.125
vt -4.92129 20.3967
vn -2.8954e-015 1 -5.33927e-008
vt -4.92128 17.0118
f 5/51/12 28/52/13 27/53/12

v 0.5 0.51 -7.45059e-009
vt -2.92225e-005 20.3967
f 28/52/13 5/51/12 29/54/13

vt 19.685 20.0787
f 5/5/3 1/7/3 29/55/3

vt 4.92123 -22.3327
vt -2.89948e-005 -18.9477
vt -3.39774e-005 -22.3327
f 3/56/1 29/57/13 1/58/1

vt 4.92123 -18.9477
f 29/57/13 3/56/1 28/59/13

usemtl Dirt
vt -23.0678 19.9566
vn -8.80584e-009 -1.57287e-008 -1
vt -16.3023 19.9566
vt -19.685 20.0787
f 3/60/14 27/61/14 28/62/14

vt -26.4329 19.5908
f 2/63/14 27/61/14 3/60/14

vt -12.9371 19.5908
f 2/63/14 26/64/14 27/61/14

v 0.755979 0.482175 -0.125
vt -29.7629 18.9833
f 30/65/14 26/64/14 2/63/14

vt -9.60715 18.9833
f 30/65/14 25/66/14 26/64/14

v 0.5 0.48 -0.125
vt -19.685 18.8976
f 30/65/14 31/67/14 25/66/14

v 0.585922 0.476898 -0.125
vt -23.0678 18.7755
f 30/65/14 32/68/14 31/67/14

v 0.671397 0.467606 -0.125
vt -26.4329 18.4097
f 30/65/14 33/69/14 32/68/14

v 0.839227 0.460684 -0.125
vt -33.0404 18.1372
f 34/70/14 33/69/14 30/65/14

v 0.755979 0.452175 -0.125
vt -29.7629 17.8022
f 34/70/14 35/71/14 33/69/14

v 0.920709 0.433244 -0.125
vt -36.2484 17.0569
f 36/72/14 35/71/14 34/70/14

v 0.839227 0.430684 -0.125
vt -33.0404 16.9561
f 36/72/14 37/73/14 35/71/14

v 0.920709 0.403244 -0.125
vt -36.2484 15.8758
f 36/72/14 38/74/14 37/73/14

v 0.928447 0.4 -0.125
vt -36.553 15.748
f 36/72/14 39/75/14 38/74/14

v 1 0.4 -0.125
vt -39.3701 15.748
f 40/76/14 39/75/14 36/72/14

v 1 0.37 -0.125
vt -39.3701 14.5669
f 39/75/14 40/76/14 41/77/14

usemtl Grass
vt 4.92126 15.748
vn 1 0 -1.16018e-014
v 1 0.2 -0.125
vt 4.92126 7.87402
vt 4.92126 14.5669
f 40/78/15 42/79/15 41/80/15

vt -2.01763e-015 15.748
f 14/81/15 42/79/15 40/78/15

vt -2.01763e-015 7.87402
f 42/79/15 14/81/15 16/82/15

usemtl Dirt
f 16/82/15 19/20/15 42/79/15

vt -2.01763e-015 0
f 19/20/15 16/82/15 18/83/15

v 1 0.2 -0.875
vt 34.4488 7.87402
f 42/79/15 19/20/15 43/84/15

v 1 0.2 -1
f 43/84/15 19/20/15 44/18/15

vn -1.16018e-014 0 -1
v 0 0.2 -1
vt -4.56765e-013 7.87402
vt -39.3701 7.87402
f 19/27/16 45/85/16 44/86/16

vt -4.56765e-013 0
f 45/85/16 19/27/16 20/87/16

v 1.44382e-015 0.2 -0.875
vt -34.4488 7.87402
f 20/27/6 46/88/6 45/86/6

f 20/27/6 21/26/6 46/88/6

v 1.44382e-015 0.37 -0.875
vt -34.4488 14.5669
f 21/26/6 47/89/6 46/88/6

v 1.01068e-014 0.37 -0.125
vt -4.92126 14.5669
f 47/89/6 21/26/6 48/90/6

usemtl Grass
f 21/26/6 22/29/6 48/90/6

usemtl Dirt
vt -4.33362e-008 15.748
v 0.0715526 0.4 -0.125
vt -2.81703 15.748
vt -4.33362e-008 14.5669
f 22/91/14 49/92/14 48/93/14

v 0.0792908 0.403244 -0.125
vt -3.12169 15.8758
f 49/92/14 22/91/14 50/94/14

vt -3.12169 17.0569
f 50/94/14 22/91/14 23/95/14

v 0.160773 0.430684 -0.125
vt -6.32964 16.9561
f 50/94/14 23/95/14 51/96/14

v 0.244021 0.452175 -0.125
vt -9.60715 17.8022
f 51/96/14 23/95/14 52/97/14

vt -6.32964 18.1372
f 52/97/14 23/95/14 24/98/14

v 0.328603 0.467606 -0.125
vt -12.9371 18.4097
f 52/97/14 24/98/14 53/99/14

f 53/99/14 24/98/14 25/66/14

v 0.414078 0.476898 -0.125
vt -16.3023 18.7755
f 53/99/14 25/66/14 54/100/14

f 54/100/14 25/66/14 31/67/14

usemtl FrontColor
vn -8.56153e-009 4.62455e-008 -1
f 32/68/17 54/100/17 31/67/17

f 33/69/17 54/100/17 32/68/17

f 33/69/17 53/99/17 54/100/17

f 35/71/17 53/99/17 33/69/17

f 35/71/17 52/97/17 53/99/17

f 37/73/17 52/97/17 35/71/17

f 37/73/17 51/96/17 52/97/17

f 38/74/17 51/96/17 37/73/17

f 38/74/17 50/94/17 51/96/17

f 39/75/17 50/94/17 38/74/17

f 39/75/17 49/92/17 50/94/17

f 41/77/17 49/92/17 39/75/17

vt -4.21339e-008 14.5669
f 49/92/17 41/77/17 48/101/17

usemtl Dirt
v 1 0.37 -0.875
vt 39.3701 34.4488
vn 0 1 -0
vt 3.97904e-013 4.92126
vt 39.3701 4.92126
f 55/102/18 48/103/18 41/104/18

vt 5.68434e-014 34.4488
f 48/103/18 55/102/18 47/105/18

usemtl FrontColor
v 0.0715526 0.4 -0.875
vn -8.56153e-009 5.87726e-008 -1
vt -2.94935e-007 14.5669
f 56/92/19 55/77/19 47/106/19

v 0.928447 0.4 -0.875
f 55/77/19 56/92/19 57/75/19

v 0.0792908 0.403244 -0.875
vn -1.22651e-008 2.09182e-008 -1
f 58/94/20 57/75/20 56/92/20

v 0.920709 0.403244 -0.875
f 57/75/20 58/94/20 59/74/20

v 0.160773 0.430684 -0.875
f 59/74/20 58/94/20 60/96/20

usemtl Dirt
v 0.0792908 0.433244 -0.875
vn 8.80584e-009 -3.51827e-008 1
vt 3.12169 15.8758
vt 6.32964 16.9561
f 61/14/21 58/107/21 60/108/21

vt 2.81703 15.748
f 61/14/21 56/109/21 58/107/21

v 1.44382e-015 0.4 -0.875
vt 3.03351e-007 15.748
f 62/110/21 56/109/21 61/14/21

vt 3.03351e-007 14.5669
f 56/109/21 62/110/21 47/111/21

usemtl Grass
v 0 0.4 -1
vt -34.4488 15.748
f 63/76/6 47/89/6 62/112/6

f 47/89/6 63/76/6 46/88/6

f 46/88/6 63/76/6 45/86/6

vt -2.58681e-007 15.748
vn -6.57051e-009 -2.2527e-008 -1
vt -2.58681e-007 7.87402
f 63/113/22 44/86/22 45/114/22

v 1 0.4 -1
f 44/86/22 63/113/22 64/76/22

v 0.0792908 0.433244 -1
f 64/76/22 63/113/22 65/95/22

vt -34.4488 6.08916
vn -0.386662 0.922222 2.24788e-008
vt -39.3701 9.47412
vn -0.353132 0.935573 3.4005e-008
vt -39.3701 6.08916
f 62/115/23 65/116/24 63/117/23

vt -34.4488 9.47412
f 65/116/24 62/115/23 61/118/24

vt -34.4488 8.40203
v 0.160773 0.460684 -1
vt -39.3701 11.787
vn -0.284739 0.958605 4.56627e-008
vt -39.3701 8.40203
f 61/119/24 66/120/25 65/121/24

v 0.160773 0.460684 -0.875
vt -34.4488 11.787
f 66/120/25 61/119/24 67/122/25

usemtl Dirt
v 0.244021 0.452175 -0.875
vt 9.60715 17.8022
f 61/14/21 68/123/21 67/12/21

f 61/14/21 60/108/21 68/123/21

vt -4.92126 10.3671
vn -0.284739 0.958605 4.6769e-008
vt -34.4488 13.7521
vn -0.214862 0.976644 4.7005e-008
vt -34.4488 10.3671
f 51/124/26 68/125/27 60/126/26

vt -4.92126 13.7521
f 68/125/27 51/124/26 52/127/27

vt -4.92126 12.6463
v 0.328603 0.467606 -0.875
vt -34.4488 16.0313
vn -0.143866 0.989597 4.69962e-008
vt -34.4488 12.6463
f 52/128/27 69/129/28 68/130/27

vt -4.92126 16.0312
f 69/129/28 52/128/27 53/131/28

vt -4.92125 14.8508
v 0.414078 0.476898 -0.875
vt -34.4488 18.2358
vn -0.0721208 0.997396 4.67426e-008
vt -34.4488 14.8508
f 53/132/28 70/133/29 69/134/28

vt -4.92125 18.2358
f 70/133/29 53/132/28 54/135/29

vt -4.92124 16.9692
v 0.5 0.48 -0.875
vt -34.4488 20.3542
vn -1.40604e-015 1 4.62455e-008
vt -34.4488 16.9692
f 54/136/29 71/137/30 70/138/29

vt -4.92123 20.3541
f 71/137/30 54/136/29 31/139/30

vt 4.92128 -18.9903
v 0.585922 0.476898 -0.875
vt 34.4488 -22.3752
vn 0.0721208 0.997396 4.55076e-008
vt 34.4488 -18.9903
f 31/140/30 72/141/31 71/142/30

vt 4.92129 -22.3753
f 72/141/31 31/140/30 32/143/31

vt 4.92127 -20.9038
v 0.671397 0.467606 -0.875
vt 34.4488 -24.2887
vn 0.143866 0.989597 4.45327e-008
vt 34.4488 -20.9037
f 32/144/31 73/145/32 72/146/31

vt 4.92127 -24.2887
f 73/145/32 32/144/31 33/147/32

vt 4.92127 -22.6995
v 0.755979 0.452175 -0.875
vt 34.4488 -26.0845
vn 0.214862 0.976644 4.33259e-008
vt 34.4488 -22.6995
f 33/148/32 74/149/33 73/150/32

vt 4.92127 -26.0845
f 74/149/33 33/148/32 35/151/33

vt 4.92126 -24.3682
v 0.839227 0.430684 -0.875
vt 34.4488 -27.7532
vn 0.284739 0.958605 4.18934e-008
vt 34.4488 -24.3682
f 35/152/33 75/153/34 74/154/33

vt 4.92127 -27.7532
f 75/153/34 35/152/33 37/155/34

vt 4.92126 -25.9012
vt 34.4488 -29.2862
vn 0.353132 0.935573 4.02428e-008
vt 34.4488 -25.9012
f 37/156/34 59/157/35 75/158/34

vt 4.92126 -29.2862
f 59/157/35 37/156/34 38/159/35

vt 4.92126 -27.2905
vt 34.4488 -27.6208
vn 0.386662 0.922222 2.95037e-008
vt 34.4488 -27.2905
f 38/160/35 57/161/36 59/162/35

vt 4.92126 -27.6209
f 57/161/36 38/160/35 39/163/36

vt 4.92126 -27.6208
vt 34.4488 -30.6755
vn 0.386662 0.922222 1.96691e-008
f 39/164/36 55/165/37 57/161/36

vt 4.92126 -30.6755
f 55/165/37 39/164/36 41/166/37

vt 34.4488 14.5669
f 41/80/15 43/84/15 55/167/15

f 43/84/15 41/80/15 42/79/15

vt 39.3701 4.54747e-013
f 43/102/18 16/168/18 42/104/18

vt 39.3701 39.3701
f 44/169/18 16/168/18 43/102/18

f 44/169/18 15/19/18 16/168/18

f 44/169/18 21/103/18 15/19/18

f 44/169/18 46/105/18 21/103/18

f 46/105/18 44/169/18 45/24/18

usemtl Grass
f 44/18/15 55/167/15 43/84/15

v 1 0.4 -0.875
vt 34.4488 15.748
f 55/167/15 44/18/15 76/170/15

f 76/170/15 44/18/15 64/16/15

vt 39.3701 -30.2188
vn 0.386662 0.922222 1.89526e-008
v 0.920709 0.433244 -0.875
vt 34.4488 -26.8338
vn 0.353132 0.935573 2.93283e-008
vt 34.4488 -30.2188
f 64/171/38 77/172/39 76/173/38

v 0.920709 0.433244 -1
vt 39.3701 -26.8338
f 77/172/39 64/171/38 78/174/39

f 64/76/22 65/95/22 78/72/22

f 78/72/22 65/95/22 66/98/22

v 0.839227 0.460684 -1
f 78/72/22 66/98/22 79/70/22

v 0.244021 0.482175 -1
f 79/70/22 66/98/22 80/66/22

vt -34.4488 10.6623
vt -39.3701 14.0473
vn -0.214862 0.976644 4.58358e-008
vt -39.3701 10.6623
f 67/175/25 80/176/40 66/177/25

v 0.244021 0.482175 -0.875
vt -34.4488 14.0473
f 80/176/40 67/175/25 81/178/40

usemtl Dirt
vt 12.9371 18.4097
f 67/12/21 69/179/21 81/10/21

f 67/12/21 68/123/21 69/179/21

usemtl FrontColor
f 74/71/20 68/97/20 69/99/20

f 75/73/20 68/97/20 74/71/20

f 75/73/20 60/96/20 68/97/20

f 59/74/20 60/96/20 75/73/20

usemtl Dirt
vt 36.2484 15.8758
vt 33.0404 16.9561
f 59/180/21 77/13/21 75/181/21

vt 36.553 15.748
f 57/182/21 77/13/21 59/180/21

f 57/182/21 76/16/21 77/13/21

vt 39.3701 14.5669
f 76/16/21 57/182/21 55/183/21

vt 29.7629 17.8022
f 75/181/21 77/13/21 74/184/21

v 0.839227 0.460684 -0.875
f 74/184/21 77/13/21 82/11/21

usemtl Grass
vt 39.3701 -28.9092
vt 34.4488 -25.5243
vn 0.284739 0.958605 4.04692e-008
vt 34.4488 -28.9092
f 78/185/39 82/186/41 77/187/39

vt 39.3701 -25.5243
f 82/186/41 78/185/39 79/188/41

vt 39.3701 -27.458
v 0.755979 0.482175 -0.875
vt 34.4488 -24.073
vn 0.214862 0.976644 4.19169e-008
vt 34.4488 -27.458
f 79/189/41 83/190/42 82/191/41

v 0.755979 0.482175 -1
vt 39.3701 -24.073
f 83/190/42 79/189/41 84/192/42

f 79/70/22 80/66/22 84/65/22

v 0.328603 0.497606 -1
f 84/65/22 80/66/22 85/64/22

vt -34.4488 12.8583
vt -39.3701 16.2432
vn -0.143866 0.989597 4.57703e-008
vt -39.3701 12.8583
f 81/193/40 85/194/43 80/195/40

v 0.328603 0.497606 -0.875
vt -34.4488 16.2432
f 85/194/43 81/193/40 86/196/43

usemtl Dirt
f 81/10/21 83/9/21 86/8/21

vt 19.685 18.8976
f 71/197/21 83/9/21 81/10/21

vt 23.0678 18.7755
f 72/198/21 83/9/21 71/197/21

vt 26.4329 18.4097
f 73/199/21 83/9/21 72/198/21

f 73/199/21 82/11/21 83/9/21

f 74/184/21 82/11/21 73/199/21

usemtl FrontColor
f 74/71/20 69/99/20 73/69/20

f 73/69/20 69/99/20 70/100/20

usemtl Dirt
vt 16.3023 18.7755
f 81/10/21 69/179/21 70/200/21

f 81/10/21 70/200/21 71/197/21

usemtl FrontColor
f 72/68/20 70/100/20 71/67/20

f 73/69/20 70/100/20 72/68/20

usemtl Dirt
v 0.671397 0.497606 -0.875
f 86/8/21 83/9/21 87/6/21

usemtl Grass
vt 39.3701 -25.8725
vt 34.4488 -22.4875
vn 0.143866 0.989597 4.31462e-008
vt 34.4488 -25.8725
f 84/201/42 87/202/44 83/203/42

v 0.671397 0.497606 -1
vt 39.3701 -22.4875
f 87/202/44 84/201/42 88/204/44

f 84/65/22 85/64/22 88/63/22

v 0.414078 0.506898 -1
f 88/63/22 85/64/22 89/61/22

vt -34.4488 14.9785
vt -39.3701 18.3634
vn -0.0721208 0.997396 4.54664e-008
vt -39.3701 14.9785
f 86/205/43 89/206/45 85/207/43

v 0.414078 0.506898 -0.875
vt -34.4488 18.3634
f 89/206/45 86/205/43 90/208/45

usemtl Dirt
f 86/8/21 87/6/21 90/5/21

v 0.585922 0.506898 -0.875
f 90/5/21 87/6/21 91/7/21

usemtl Grass
vt 39.3701 -24.1611
vt 34.4488 -20.7761
vn 0.0721208 0.997396 4.41509e-008
vt 34.4488 -24.1611
f 88/209/44 91/210/46 87/211/44

v 0.585922 0.506898 -1
vt 39.3701 -20.7761
f 91/210/46 88/209/44 92/212/46

f 88/63/22 89/61/22 92/60/22

v 0.5 0.51 -1
f 92/60/22 89/61/22 93/62/22

vt -34.4488 17.0118
vt -39.3701 20.3968
vn -1.42687e-015 1 4.49256e-008
vt -39.3701 17.0118
f 90/213/45 93/214/47 89/215/45

v 0.5 0.51 -0.875
vt -34.4488 20.3968
f 93/214/47 90/213/45 94/216/47

usemtl Dirt
f 90/5/21 91/7/21 94/55/21

usemtl Grass
vt 39.3701 -22.3326
vt 34.4488 -18.9477
vt 34.4488 -22.3326
f 92/217/46 94/218/47 91/219/46

vt 39.3701 -18.9477
f 94/218/47 92/217/46 93/220/47

usemtl Dirt
vt -34.4488 11.4101
vt -4.92126 8.02509
vn -0.353132 0.935573 4.62894e-008
vt -4.92126 11.41
f 60/221/26 50/222/48 51/223/26

vt -34.4488 8.02509
f 50/222/48 60/221/26 58/224/48

vt -34.4488 9.01744
vt -4.92126 8.68709
vn -0.386662 0.922222 3.44693e-008
vt -4.92126 9.01743
f 58/225/48 49/226/49 50/227/48

vt -34.4488 8.68709
f 49/226/49 58/225/48 56/228/49

vt -4.92126 5.63247
vn -0.386662 0.922222 2.29795e-008
f 56/228/49 48/229/50 49/226/49

vt -34.4488 5.63248
f 48/229/50 56/228/49 47/230/50

usemtl Grass
vt 4.92126 -30.2188
vn 0.386662 0.922222 -2.63831e-008
vt -1.93319e-006 -26.8338
vn 0.353132 0.935573 -3.99731e-008
vt -2.68634e-006 -30.2188
f 40/231/51 11/232/52 14/233/51

vt 4.92126 -26.8338
f 11/232/52 40/231/51 36/234/52

vt 4.92125 -28.9093
vt -5.04759e-006 -25.5243
vn 0.284739 0.958605 -5.37793e-008
vt -5.53766e-006 -28.9092
f 36/235/52 9/236/53 11/237/52

vt 4.92125 -25.5243
f 9/236/53 36/235/52 34/238/53

vt 4.92125 -27.458
vt -5.98355e-006 -24.073
vn 0.214862 0.976644 -5.41052e-008
vt -6.64246e-006 -27.458
f 34/239/53 7/240/54 9/241/53

vt 4.92125 -24.073
f 7/240/54 34/239/53 30/242/54

vt 4.92125 -25.8725
vt -7.58288e-006 -22.4875
vt -8.53816e-006 -25.8725
f 30/243/54 4/244/2 7/245/54

vt 4.92125 -22.4875
f 4/244/2 30/243/54 2/246/2

