# Alias OBJ Model File
# Exported from SketchUp, (c) 2000-2012 Trimble Navigation Limited
# File units = meters

mtllib towerDefense_023.mtl

g Mesh1 Group1 Model

usemtl Brick
v 0.795026 0.308 -0.204974
vt 31.3002 12.126
vn 1.95756e-014 0 1
v 0.204974 0.2041 -0.204974
vt 8.06985 8.03543
v 0.795026 0.2041 -0.204974
vt 31.3002 8.03543
f 1/1/1 2/2/1 3/3/1

v 0.204974 0.308 -0.204974
vt 8.06985 12.126
f 2/2/1 1/1/1 4/4/1

vt 31.3002 8.06985
vn -6.00217e-030 1 -3.05868e-016
v 0.204974 0.308 -0.795026
vt 8.06985 31.3002
vt 8.06985 8.06985
f 1/5/2 5/6/2 4/7/2

v 0.795026 0.308 -0.795026
vt 31.3002 31.3002
f 5/6/2 1/5/2 6/8/2

vn 1 5.90354e-031 4.35862e-015
v 0.795026 0.2041 -0.795026
f 1/4/3 7/3/3 6/1/3

f 7/3/3 1/4/3 3/2/3

usemtl FrontColor
v 0.204974 0.2041 -0.795026
vn -2.35309e-030 1 -1.20053e-016
f 8/6/4 3/5/4 7/8/4

f 3/5/4 8/6/4 2/7/4

usemtl Brick
vt -8.06985 8.03543
vn -1 -2.95865e-030 -1.42229e-014
vt -31.3002 12.126
vt -31.3002 8.03543
f 2/9/5 5/10/5 8/11/5

vt -8.06985 12.126
f 5/10/5 2/9/5 4/12/5

vt -8.06985 8.99816
vn -0.949953 -0.312392 -1.3324e-014
v 0.163671 0.4336 -0.836329
vt -32.9264 14.2036
vt -31.3002 8.99816
f 4/13/6 9/14/6 5/15/6

v 0.163671 0.4336 -0.163671
vt -6.44373 14.2036
f 9/14/6 4/13/6 10/16/6

vt 8.06985 8.99816
vn 2.19172e-014 -0.312392 0.949953
v 0.836329 0.4336 -0.163671
vt 32.9264 14.2036
vt 6.44373 14.2036
f 4/17/7 11/18/7 10/19/7

vt 31.3002 8.99816
f 11/18/7 4/17/7 1/20/7

vt 8.06985 21.2971
vn 0.949953 -0.312392 4.28983e-015
v 0.836329 0.4336 -0.836329
vt 32.9264 26.5025
vt 6.44373 26.5025
f 1/21/8 12/22/8 11/23/8

vt 31.3002 21.2971
f 12/22/8 1/21/8 6/24/8

vt -31.3002 21.2971
vn -1.73043e-014 -0.312392 -0.949953
vt -6.44373 26.5025
vt -32.9264 26.5025
f 6/25/9 9/26/9 12/27/9

vt -8.06985 21.2971
f 9/26/9 6/25/9 5/28/9

vn -1.95756e-014 0 -1
f 7/11/10 5/12/10 6/10/10

f 5/12/10 7/11/10 8/9/10

usemtl Brick_Light
v 0.795026 0 -0.795026
vt -31.3002 0
f 13/29/10 8/9/10 7/11/10

v 0.204974 0 -0.795026
vt -8.06985 0
f 8/9/10 13/29/10 14/30/10

usemtl FrontColor
v 0.795026 0 -0.204974
vt -31.3002 8.06985
vn 1.17022e-030 -1 1.20053e-016
vt -8.06985 31.3002
vt -31.3002 31.3002
f 15/31/11 14/32/11 13/33/11

v 0.204974 0 -0.204974
vt -8.06985 8.06985
f 14/32/11 15/31/11 16/34/11

usemtl Brick_Light
vt 8.06985 0
vt 31.3002 0
f 3/3/1 16/35/1 15/36/1

f 16/35/1 3/3/1 2/2/1

vn -1 4.88054e-031 -1.46817e-014
vt -8.06985 3.93853e-030
f 8/11/12 16/37/12 2/9/12

vt -31.3002 3.93853e-030
f 16/37/12 8/11/12 14/38/12

vt 31.3002 5.09207e-030
vn 1 -1.62685e-031 4.89389e-015
vt 8.06985 5.09207e-030
f 13/39/13 3/2/13 15/40/13

f 3/2/13 13/39/13 7/3/13

usemtl Brick
vt 6.44373 32.9264
vn -4.47175e-017 1 -8.49633e-016
v 0.5 0.4336 -0.5
vt 19.685 19.685
vt 32.9264 32.9264
f 9/41/14 17/42/14 12/43/14

vt 6.44373 6.44373
f 17/42/14 9/41/14 10/44/14

usemtl Grass
v 0.298461 0.540566 -0.298461
vt -11.7504 22.4337
vn -0.621618 0.783321 -8.2527e-015
vt -32.9264 15.6591
vt -6.44373 15.6591
f 18/45/15 9/46/15 10/47/15

v 0.298461 0.540566 -0.701539
vt -27.6196 22.4337
f 9/46/15 18/45/15 19/48/15

usemtl FrontColor
v 0.5 0.7005 -0.5
vt -19.685 32.5631
vn -0.621618 0.783321 -4.87761e-015
f 20/49/16 19/48/16 18/45/16

v 0.701539 0.540566 -0.701539
vt -27.6196 -8.40569
vn -5.6303e-015 0.783321 -0.621618
vt -11.7504 -8.40569
vt -19.685 1.72374
f 21/50/17 19/51/17 20/52/17

usemtl Grass
vt -32.9264 -15.1803
vn -9.33002e-015 0.783321 -0.621618
f 12/53/18 19/51/18 21/50/18

vt -6.44373 -15.1803
f 19/51/18 12/53/18 9/54/18

v 0.440243 0.883052 -0.559757
vt -17.3324 23.6927
vn 6.78695e-016 0.382497 -0.923957
vt -27.6196 9.09931
vt -11.7504 9.09931
f 22/55/19 21/56/19 19/57/19

v 0.559757 0.883052 -0.559757
vt -22.0377 23.6927
f 21/56/19 22/55/19 23/58/19

usemtl Brick_Light
v 0.5 1.0274 -0.5
vt -19.685 29.8435
vn -2.31162e-017 0.382497 -0.923957
f 24/59/20 23/58/20 22/55/20

vt 22.0377 23.6927
vn 0.923957 0.382497 2.15524e-015
vt 19.685 29.8435
v 0.559757 0.883052 -0.440243
vt 17.3324 23.6927
f 23/60/21 24/61/21 25/62/21

usemtl FrontColor
vt -31.166 34.7658
vn -0.707107 0 -0.707107
vt -27.8388 27.5787
vt -27.8388 40.4488
f 23/63/22 20/64/22 24/65/22

vt -39.0601 21.2821
f 20/64/22 23/63/22 21/66/22

usemtl Grass
vn 0.923957 0.382497 2.20742e-015
vt 27.6196 9.09931
f 25/62/23 21/67/23 23/60/23

v 0.701539 0.540566 -0.298461
vt 11.7504 9.09931
f 21/67/23 25/62/23 26/68/23

usemtl FrontColor
vt 3.32713 34.7658
vn -0.707107 -9.2505e-017 0.707107
vt 4.583e-013 27.5787
vt 11.2212 21.2821
f 25/69/24 20/70/24 26/71/24

vt 4.583e-013 40.4488
f 20/70/24 25/69/24 24/72/24

usemtl Brick_Light
vt 19.685 44.9024
vn 1.51879e-014 0.382497 0.923957
v 0.440243 0.883052 -0.440243
vt 17.3324 38.7517
vt 22.0377 38.7517
f 24/73/25 27/74/25 25/75/25

usemtl FrontColor
vn -0.707107 -9.2505e-017 -0.707107
vt -24.5117 34.7658
f 20/64/26 27/76/26 24/65/26

vt -16.6176 21.2821
f 27/76/26 20/64/26 18/77/26

vt -27.8388 17.0709
vn -0.707107 -8.74375e-016 -0.707107
f 17/78/27 18/77/27 20/64/27

vt -9.11281 17.0709
f 18/77/27 17/78/27 10/79/27

usemtl Brick
vt 32.9264 6.44373
vn 4.47175e-017 1 -7.60198e-016
f 11/80/28 17/42/28 10/44/28

f 17/42/28 11/80/28 12/43/28

usemtl Grass
vt 27.6196 -8.40569
vn 0.621618 0.783321 2.02487e-015
vt 6.44373 -15.1803
vt 32.9264 -15.1803
f 21/81/29 11/82/29 12/83/29

vt 11.7504 -8.40569
f 11/82/29 21/81/29 26/84/29

usemtl FrontColor
vn 0.621618 0.783321 1.94293e-015
vt 19.685 1.72374
f 21/81/30 20/85/30 26/84/30

vn -0.707107 -2.62312e-016 -0.707107
f 21/66/31 17/78/31 20/64/31

vt -46.5649 17.0709
f 17/78/31 21/66/31 12/86/31

usemtl Red_Roof
vt 27.6196 22.4337
vn 1.19441e-014 0.783321 0.621618
vt 19.685 32.5631
vt 11.7504 22.4337
f 26/87/32 20/88/32 18/89/32

usemtl Grass
vt 27.6196 24.1583
vn 1.59799e-014 0.382497 0.923957
vt 11.7504 24.1583
f 26/90/33 27/74/33 18/91/33

f 27/74/33 26/90/33 25/75/33

usemtl FrontColor
vt 22.0377 17.3324
vn 5.28534e-015 1 -5.28534e-015
vt 17.3324 22.0377
vt 17.3324 17.3324
f 25/92/34 22/93/34 27/94/34

vt 22.0377 22.0377
f 22/93/34 25/92/34 23/95/34

usemtl Brick_Light
vt -22.0377 38.7517
vn -0.923957 0.382497 -3.31605e-015
vt -17.3324 38.7517
vt -19.685 44.9024
f 22/96/35 27/97/35 24/98/35

usemtl Grass
vt -27.6196 24.1583
vn -0.923957 0.382497 -3.77375e-015
f 19/99/36 27/97/36 22/96/36

vt -11.7504 24.1583
f 27/97/36 19/99/36 18/100/36

usemtl FrontColor
vt 27.6196 11.7504
vn -4.4775e-015 1 -1.791e-015
vt 11.7504 27.6196
vt 11.7504 11.7504
f 26/101/37 19/102/37 18/103/37

vt 27.6196 27.6196
f 19/102/37 26/101/37 21/104/37

usemtl Grass
vn 1.49384e-014 0.783321 0.621618
vt 32.9264 15.6591
f 18/89/38 11/105/38 26/87/38

vt 6.44373 15.6591
f 11/105/38 18/89/38 10/106/38

usemtl FrontColor
vt 9.05942e-014 27.5787
vn -0.707107 9.2505e-017 0.707107
vt -3.32713 34.7658
vt -11.2212 21.2821
f 20/107/39 22/108/39 19/109/39

vt 9.05942e-014 40.4488
f 22/108/39 20/107/39 24/110/39

