# Alias OBJ Model File
# Exported from SketchUp, (c) 2000-2012 Trimble Navigation Limited
# File units = meters

mtllib towerDefense_041.mtl

g Mesh1 Group1 Model

usemtl FrontColor
v 0.184974 0 -0.815026
vt -7.28245 32.0876
vn 7.45363e-031 -1 7.6467e-017
v 0.815026 4.51195e-017 -0.184974
vt -32.0876 7.28245
v 0.184974 4.51195e-017 -0.184974
vt -7.28245 7.28245
f 1/1/1 2/2/1 3/3/1

v 0.815026 0 -0.815026
vt -32.0876 32.0876
f 2/2/1 1/1/1 4/4/1

usemtl Brick_Light
v 0.184974 0.13 -0.815026
vt -7.28245 5.11811
vn -1.95756e-014 0 -1
vt -32.0876 0
vt -7.28245 0
f 5/5/2 4/6/2 1/7/2

v 0.815026 0.13 -0.815026
vt -32.0876 5.11811
f 4/6/2 5/5/2 6/8/2

vt 7.28245 32.0876
vn 0 1 -0
v 0.204974 0.13 -0.795026
vt 8.06985 31.3002
vt 32.0876 32.0876
f 5/9/3 7/10/3 6/11/3

v 0.204974 0.13 -0.204974
vt 8.06985 8.06985
f 7/10/3 5/9/3 8/12/3

v 0.184974 0.13 -0.184974
vt 7.28245 7.28245
f 9/13/3 8/12/3 5/9/3

v 0.815026 0.13 -0.184974
vt 32.0876 7.28245
f 8/12/3 9/13/3 10/14/3

vt 7.28245 1.77636e-015
vn 1.95756e-014 0 1
vt 32.0876 5.11811
vt 7.28245 5.11811
f 3/15/4 10/16/4 9/17/4

vt 32.0876 1.77636e-015
f 10/16/4 3/15/4 2/18/4

vt 32.0876 8.19566e-030
vn 1 -2.55415e-031 4.89389e-015
f 4/19/5 10/17/5 2/15/5

f 10/17/5 4/19/5 6/16/5

v 0.795026 0.13 -0.795026
vt 31.3002 31.3002
f 6/11/3 11/20/3 10/14/3

f 6/11/3 7/10/3 11/20/3

usemtl Brick
v 0.204974 0.4 -0.795026
vt -8.06985 15.748
vn -1.95756e-014 -2.373e-030 -1
vt -31.3002 5.11811
vt -8.06985 5.11811
f 12/21/6 11/22/6 7/23/6

v 0.795026 0.4 -0.795026
vt -31.3002 15.748
f 11/22/6 12/21/6 13/24/6

vn -7.45363e-031 1 -7.6467e-017
v 0.795026 0.4 -0.204974
vt 31.3002 8.06985
f 12/10/7 14/25/7 13/20/7

v 0.204974 0.4 -0.204974
f 14/25/7 12/10/7 15/12/7

vn -1 1.03508e-030 -1.46817e-014
f 12/24/8 8/23/8 15/21/8

f 8/23/8 12/24/8 7/22/8

usemtl FrontColor
v 0.795026 0.13 -0.204974
vn -1.49878e-030 1 -7.6467e-017
f 16/25/9 7/10/9 8/12/9

f 7/10/9 16/25/9 11/20/9

usemtl Brick_Light
f 16/25/3 10/14/3 11/20/3

f 8/12/3 10/14/3 16/25/3

usemtl Brick
vt 31.3002 15.748
vn 1.95756e-014 -1.32121e-030 1
vt 8.06985 5.11811
vt 31.3002 5.11811
f 14/26/10 8/27/10 16/28/10

vt 8.06985 15.748
f 8/27/10 14/26/10 15/29/10

vn 1 -2.05993e-031 4.89389e-015
f 11/28/11 14/29/11 16/27/11

f 14/29/11 11/28/11 13/26/11

usemtl Brick_Light
vn -1 7.66245e-031 -1.46817e-014
vt -7.28245 1.77636e-015
f 5/8/12 3/30/12 9/5/12

vt -32.0876 5.58014e-030
f 3/30/12 5/8/12 1/31/12

