# Alias OBJ Model File
# Exported from SketchUp, (c) 2000-2012 Trimble Navigation Limited
# File units = meters

mtllib towerDefense_045.mtl

g Mesh1 Group1 Model

usemtl Brick_Light
v 0.17452 0.21 -0.82548
vt -32.4992 8.26772
vn -1 -2.55393e-030 -1.33079e-014
v 0.17452 9.02389e-017 -0.17452
vt -6.87086 3.55271e-015
v 0.17452 0.21 -0.17452
vt -6.87086 8.26772
f 1/1/1 2/2/1 3/3/1

v 0.17452 0 -0.82548
vt -32.4992 -1.75477e-029
f 2/2/1 1/1/1 4/4/1

vn -2.27344e-014 -6.93121e-017 -1
v 0.82548 0 -0.82548
vt -32.4992 2.25259e-015
vt -6.87086 2.25259e-015
f 1/3/2 5/5/2 4/6/2

v 0.82548 0.21 -0.82548
f 5/5/2 1/3/2 6/1/2

vt 6.87086 32.4992
vn -1.63153e-030 1 -6.93121e-017
v 0.204974 0.21 -0.795026
vt 8.06985 31.3002
vt 32.4992 32.4992
f 1/7/3 7/8/3 6/9/3

v 0.204974 0.21 -0.204974
vt 8.06985 8.06985
f 7/8/3 1/7/3 8/10/3

vt 6.87086 6.87086
f 3/11/3 8/10/3 1/7/3

v 0.82548 0.21 -0.17452
vt 32.4992 6.87086
f 8/10/3 3/11/3 9/12/3

vt 6.87086 4.02895e-015
vn 2.43979e-014 6.93121e-017 1
vt 32.4992 8.26772
vt 6.87086 8.26772
f 2/13/4 9/14/4 3/15/4

v 0.82548 9.02389e-017 -0.17452
vt 32.4992 4.02895e-015
f 9/14/4 2/13/4 10/16/4

usemtl FrontColor
vt -6.87086 32.4992
vn 3.26306e-030 -1 1.38624e-016
vt -32.4992 6.87086
vt -6.87086 6.87086
f 4/17/5 10/18/5 2/19/5

vt -32.4992 32.4992
f 10/18/5 4/17/5 5/20/5

usemtl Brick_Light
vt 32.4992 -6.30159e-029
vn 1 1.939e-030 4.43598e-015
vt 6.87086 3.55271e-015
f 5/21/6 9/15/6 10/22/6

f 9/15/6 5/21/6 6/14/6

v 0.795026 0.21 -0.795026
vt 31.3002 31.3002
f 6/9/3 11/23/3 9/12/3

f 6/9/3 7/8/3 11/23/3

usemtl Brick
v 0.204974 0.4 -0.795026
vt -8.06985 15.748
vn -1.46817e-014 -7.6467e-017 -1
vt -31.3002 8.26772
vt -8.06985 8.26772
f 12/24/7 11/25/7 7/26/7

v 0.795026 0.4 -0.795026
vt -31.3002 15.748
f 11/25/7 12/24/7 13/27/7

vn -7.45363e-031 1 -7.6467e-017
v 0.795026 0.4 -0.204974
vt 31.3002 8.06985
f 12/8/8 14/28/8 13/23/8

v 0.204974 0.4 -0.204974
f 14/28/8 12/8/8 15/10/8

vn -1 -1.49381e-030 -9.78778e-015
f 12/27/9 8/26/9 15/24/9

f 8/26/9 12/27/9 7/25/9

vt 8.06985 8.26772
vn 1.46817e-014 7.6467e-017 1
vt 31.3002 15.748
vt 8.06985 15.748
f 8/29/10 14/30/10 15/31/10

v 0.795026 0.21 -0.204974
vt 31.3002 8.26772
f 14/30/10 8/29/10 16/32/10

usemtl Brick_Light
f 8/10/3 9/12/3 16/28/3

f 16/28/3 9/12/3 11/23/3

usemtl Brick
vn 1 1.21314e-030 6.11736e-015
f 11/32/11 14/31/11 16/29/11

f 14/31/11 11/32/11 13/30/11

