# Alias OBJ Model File
# Exported from SketchUp, (c) 2000-2012 Trimble Navigation Limited
# File units = meters

mtllib towerDefense_073.mtl

g Mesh1 Group2 Group1 Model

usemtl Stone
v 0.790624 0.65 -0.689698
vt -8.64819 10.5256
vn 0.928973 0.369253 0.0257398
v 0.882921 0.4 -0.434393
vt -18.595 -0.0653804
v 0.891507 0.4 -0.744274
vt -6.39032 -0.0653804
f 1/1/1 2/2/1 3/3/1

v 0.785215 0.65 -0.494472
vt -16.3372 10.5256
f 2/2/1 1/1/1 4/4/1

v 0.624259 0.65 -0.791995
vt 10.5216 4.51402
vn 3.97051e-017 1 -2.18755e-030
vt 4.18475 16.2275
vt 3.97179 8.54146
f 5/5/2 4/6/2 1/7/2

v 0.61344 0.65 -0.401545
vt 10.9475 19.8861
f 4/6/2 5/5/2 6/8/2

v 0.452484 0.65 -0.699067
vt 17.2844 8.1726
f 6/8/2 5/5/2 7/9/2

v 0.627436 0.4 -0.906651
vt 9.14418 -1.82665
vn -0.442195 0.369253 -0.817384
vt 19.091 8.76434
vt 11.4021 8.76434
f 8/10/3 7/11/3 5/12/3

v 0.354778 0.4 -0.759146
vt 21.3489 -1.82665
f 7/11/3 8/10/3 9/13/3

usemtl Grass
v 0.610263 0.4 -0.286889
vt 11.0726 24.4001
vt 10.3965 0
vt 21.1311 5.80727
f 10/14/2 8/15/2 9/16/2

vt 0.338036 18.5928
f 2/17/2 8/15/2 10/14/2

vt -8.46366e-031 6.39277
f 8/15/2 2/17/2 3/18/2

usemtl Stone
vt 6.59835 12.6018
vn 0.486778 0.369253 -0.791644
vt -3.3485 2.01082
vt 8.85623 2.01082
f 5/19/4 3/20/4 8/21/4

vt -1.09062 12.6018
f 3/20/4 5/19/4 1/22/4

vt -11.4021 4.61194
vn 0.442195 0.369253 0.817384
vt -21.3489 -5.97905
vt -9.14418 -5.97905
f 4/23/5 10/24/5 2/25/5

vt -19.091 4.61194
f 10/24/5 4/23/5 6/26/5

vt 1.09062 0.774471
vn -0.486778 0.369253 0.791644
v 0.346191 0.4 -0.449265
vt -8.85623 -9.81652
vt 3.3485 -9.81652
f 6/27/6 11/28/6 10/29/6

v 0.447075 0.65 -0.503842
vt -6.59835 0.774471
f 11/28/6 6/27/6 12/30/6

vt 17.4973 15.8586
f 6/8/2 7/9/2 12/31/2

vt 8.64819 2.85067
vn -0.928973 0.369253 -0.0257398
vt 18.595 -7.74033
vt 16.3372 2.85067
f 7/32/7 11/33/7 12/34/7

vt 6.39032 -7.74033
f 11/33/7 7/32/7 9/35/7

usemtl Grass
vt 21.4691 18.0073
f 10/14/2 9/16/2 11/36/2

g Mesh2 Group3 Group1 Model

usemtl Stone
v 0.255693 0.55 -0.39188
vn 0.470092 0.369253 -0.801665
v 0.416606 0.4 -0.366612
v 0.256158 0.4 -0.460698
f 13/1/8 14/2/8 15/3/8

v 0.356775 0.55 -0.332606
f 14/2/8 13/1/8 16/4/8

v 0.153818 0.55 -0.333977
vn -2.0577e-017 1 -2.3514e-017
f 17/5/9 16/6/9 13/7/9

v 0.355984 0.55 -0.215428
f 16/6/9 17/5/9 18/8/9

v 0.153027 0.55 -0.2168
f 18/8/9 17/5/9 19/9/9

v 0.0944524 0.4 -0.368789
vn -0.929308 0.369253 -0.00627918
f 20/10/10 19/11/10 17/12/10

v 0.0931956 0.4 -0.182793
f 19/11/10 20/10/10 21/13/10

usemtl Grass
v 0.41535 0.4 -0.180616
f 22/14/9 20/15/9 21/16/9

f 14/17/9 20/15/9 22/14/9

f 20/15/9 14/17/9 15/18/9

usemtl Stone
vn -0.459216 0.369253 -0.807944
f 17/19/11 15/20/11 20/21/11

f 15/20/11 17/19/11 13/22/11

vn 0.929308 0.369253 0.00627918
f 16/23/12 22/24/12 14/25/12

f 22/24/12 16/23/12 18/26/12

vn 0.459216 0.369253 0.807944
v 0.253644 0.4 -0.0887068
f 18/27/13 23/28/13 22/29/13

v 0.254109 0.55 -0.157525
f 23/28/13 18/27/13 24/30/13

f 18/8/9 19/9/9 24/31/9

vn -0.470092 0.369253 0.801665
f 19/32/14 23/33/14 24/34/14

f 23/33/14 19/32/14 21/35/14

usemtl Grass
f 22/14/9 21/16/9 23/36/9

g Mesh3 Group1 Model

usemtl Dirt
v 0 0.2 -1
vt -39.3701 7.87402
vn -1 0 5.50948e-014
v 7.21911e-014 0 -0
vt 1.56589e-025 0
v 7.21911e-014 0.2 -0
vt 1.56589e-025 7.87402
f 25/37/15 26/38/15 27/39/15

v 0 0 -1
vt -39.3701 0
f 26/38/15 25/37/15 28/40/15

vt -2.16909e-012 7.87402
vn -5.50948e-014 0 -1
v 1 0 -1
vt -2.16909e-012 0
f 25/41/16 29/40/16 28/42/16

v 1 0.2 -1
f 29/40/16 25/41/16 30/37/16

usemtl Grass
v 0 0.4 -1
vt -2.12591e-012 15.748
vn -5.39981e-014 5.18718e-031 -1
vt -2.12591e-012 7.87402
f 31/43/17 30/37/17 25/44/17

v 1 0.4 -1
vt -39.3701 15.748
f 30/37/17 31/43/17 32/45/17

vt 6.25278e-016 39.3701
vn -3.97051e-017 1 1.12799e-017
vt 24.7022 35.6949
vt 39.3701 39.3701
f 31/46/18 8/47/18 32/48/18

vt 13.9676 29.8876
f 8/47/18 31/46/18 9/49/18

vt 3.7186 14.5192
f 9/49/18 31/46/18 20/50/18

v 7.21911e-014 0.4 -0
vt 2.8428e-012 1.77636e-016
f 20/50/18 31/46/18 33/51/18

vt 1.56589e-025 15.748
f 31/45/15 27/39/15 33/52/15

f 27/39/15 31/45/15 25/37/15

usemtl Dirt
vt 2.84217e-012 0
vn 0 1 -0
vt 0 39.3701
f 27/53/19 30/48/19 25/54/19

v 1 0.2 -4.909e-014
vt 39.3701 1.93268e-012
f 30/48/19 27/53/19 34/55/19

usemtl Grass
v 1 0.4 -4.909e-014
vt 39.3701 15.748
vn 5.39981e-014 2.90022e-029 1
vt 2.84217e-012 7.87402
vt 39.3701 7.87402
f 35/56/20 27/57/20 34/58/20

vt 2.84217e-012 15.748
f 27/57/20 35/56/20 33/59/20

vt 9.986 3.4924
vt 39.3701 1.93285e-012
f 23/60/18 33/51/18 35/61/18

vt 3.66912 7.19658
f 33/51/18 23/60/18 21/62/18

f 20/50/18 33/51/18 21/62/18

vt 16.3524 7.11088
f 23/60/18 35/61/18 22/63/18

vt 16.4018 14.4335
f 22/63/18 35/61/18 14/64/18

vt 24.0261 11.2948
f 14/64/18 35/61/18 10/65/18

vt 34.7607 17.1021
f 10/65/18 35/61/18 2/66/18

vt 35.0987 29.3021
f 2/66/18 35/61/18 3/67/18

f 3/67/18 35/61/18 32/48/18

vt -2.36411e-013 15.748
vn 1 0 -5.50948e-014
f 35/68/21 30/58/21 32/56/21

vt -2.36411e-013 7.87402
f 30/58/21 35/68/21 34/69/21

usemtl Dirt
vt 39.3701 0
f 34/69/21 29/70/21 30/58/21

v 1 0 -4.909e-014
vt -2.36411e-013 0
f 29/70/21 34/69/21 36/71/21

vn 5.50948e-014 0 1
f 34/58/22 26/53/22 36/70/22

f 26/53/22 34/58/22 27/57/22

vt -2.84217e-012 0
vn 0 -1 -0
vt -39.3701 39.3701
vt -39.3701 1.93268e-012
f 26/72/23 29/73/23 36/74/23

f 29/73/23 26/72/23 28/54/23

usemtl Grass
f 32/48/18 8/47/18 3/67/18

vt 13.6296 17.6876
f 11/75/18 14/64/18 10/65/18

vt 10.085 18.1377
f 14/64/18 11/75/18 15/76/18

f 9/49/18 15/76/18 11/75/18

f 9/49/18 20/50/18 15/76/18

