# Alias OBJ Model File
# Exported from SketchUp, (c) 2000-2012 Trimble Navigation Limited
# File units = meters

mtllib towerDefense_018.mtl

g Mesh1 Group1 Model

usemtl Brick_Dark
v 0.204974 0.0923094 -0.718941
vt -28.3048 3.63423
vn -1 0 -0
v 0.204974 4.51195e-017 -0.281059
vt -11.0653 1.77636e-015
v 0.204974 0.0923094 -0.281059
vt -11.0653 3.63423
f 1/1/1 2/2/1 3/3/1

v 0.204974 0 -0.718941
vt -28.3048 0
f 2/2/1 1/1/1 4/4/1

usemtl Brick_Light
vn -1 0 -1.13859e-013
v 0.204974 0.4 -0.795026
vt -31.3002 15.748
f 1/1/2 5/5/2 4/4/2

v 0.204974 0.4 -0.718941
vt -28.3048 15.748
f 5/5/2 1/1/2 6/6/2

usemtl Brick
f 3/3/1 6/6/1 1/1/1

v 0.204974 0.4 -0.281059
vt -11.0653 15.748
f 6/6/1 3/3/1 7/7/1

usemtl Brick_Light
f 2/2/1 7/7/1 3/3/1

v 0.204974 4.51195e-017 -0.204974
vt -8.06985 1.77636e-015
f 8/8/1 7/7/1 2/2/1

v 0.204974 0.4 -0.204974
vt -8.06985 15.748
f 7/7/1 8/8/1 9/9/1

vt 8.06985 -1.46102e-014
vn 2.11811e-014 -2.03059e-015 1
v 0.281059 0.0923094 -0.204974
vt 11.0653 3.63423
vt 8.06985 15.748
f 8/10/3 10/11/3 9/12/3

v 0.281059 4.51195e-017 -0.204974
vt 11.0653 -1.46102e-014
f 10/11/3 8/10/3 11/13/3

usemtl Brick
vt -8.06985 8.06985
vn 1.99555e-030 -1 8.22044e-017
v 0.204974 0 -0.795026
vt -8.06985 31.3002
vt -11.0653 8.06985
f 8/14/4 12/15/4 11/16/4

vt -8.06985 11.0653
f 2/17/4 12/15/4 8/14/4

vt -8.06985 28.3048
f 12/15/4 2/17/4 4/18/4

usemtl Brick_Light
vt -31.3002 0
f 4/4/2 5/5/2 12/19/2

vn -2.48229e-014 1.01529e-015 -1
v 0.281059 0 -0.795026
vt -11.0653 -3.17789e-014
vt -8.06985 -3.17789e-014
f 5/9/5 13/20/5 12/21/5

v 0.281059 0.0923094 -0.795026
f 13/20/5 5/9/5 14/3/5

v 0.281059 0.4 -0.795026
f 14/3/5 5/9/5 15/7/5

vt 8.06985 31.3002
vn -2.96507e-016 1 -2.96507e-016
v 0.281059 0.4 -0.718941
vt 11.0653 28.3048
vt 11.0653 31.3002
f 5/22/6 16/23/6 15/24/6

vt 8.06985 28.3048
f 16/23/6 5/22/6 6/25/6

usemtl Brick
vt 8.06985 11.0653
vn -1.26783e-016 1 -1.26783e-016
f 7/26/7 16/23/7 6/25/7

v 0.281059 0.4 -0.281059
vt 11.0653 11.0653
f 16/23/7 7/26/7 17/27/7

usemtl Brick_Light
vn 2.96507e-016 1 -2.96507e-016
v 0.281059 0.4 -0.204974
vt 11.0653 8.06985
f 7/26/8 18/28/8 17/27/8

vt 8.06985 8.06985
f 18/28/8 7/26/8 9/29/8

vt 11.0653 15.748
f 9/12/3 10/11/3 18/30/3

usemtl Brick
vn 2.47297e-014 -4.69245e-015 1
v 0.718941 0.4 -0.204974
vt 28.3048 15.748
f 10/11/9 19/31/9 18/30/9

v 0.718941 0.0923094 -0.204974
vt 28.3048 3.63423
f 19/31/9 10/11/9 20/32/9

usemtl Brick_Dark
vt 11.0653 1.77636e-015
vn 2.47297e-014 0 1
f 11/33/10 20/32/10 10/11/10

v 0.718941 4.51195e-017 -0.204974
vt 28.3048 1.77636e-015
f 20/32/10 11/33/10 21/34/10

usemtl Brick
vt -11.0653 31.3002
vt -28.3048 8.06985
f 11/16/4 13/35/4 21/36/4

f 11/16/4 12/15/4 13/35/4

v 0.718941 0 -0.795026
vt -28.3048 31.3002
f 21/36/4 13/35/4 22/37/4

usemtl Brick_Dark
vn -2.88513e-014 0 -1
vt -11.0653 0
f 14/3/11 22/4/11 13/38/11

v 0.718941 0.0923094 -0.795026
f 22/4/11 14/3/11 23/1/11

usemtl Brick
vn -3.05e-014 2.30494e-031 -1
v 0.393318 0.221564 -0.795026
vt -15.485 8.72298
f 14/3/12 24/39/12 23/1/12

f 24/39/12 14/3/12 15/7/12

v 0.393318 0.291564 -0.795026
vt -15.485 11.4789
f 24/39/12 15/7/12 25/40/12

v 0.50658 0.291564 -0.795026
vt -19.9441 11.4789
f 25/40/12 15/7/12 26/41/12

v 0.59244 0.313324 -0.795026
vt -23.3244 12.3356
f 26/41/12 15/7/12 27/42/12

v 0.59244 0.363324 -0.795026
vt -23.3244 14.3041
f 27/42/12 15/7/12 28/43/12

v 0.68244 0.363324 -0.795026
vt -26.8677 14.3041
f 28/43/12 15/7/12 29/44/12

v 0.718941 0.4 -0.795026
f 30/6/12 29/44/12 15/7/12

v 0.68244 0.313324 -0.795026
vt -26.8677 12.3356
f 30/6/12 31/45/12 29/44/12

f 23/1/12 31/45/12 30/6/12

v 0.50658 0.221564 -0.795026
vt -19.9441 8.72298
f 31/45/12 23/1/12 32/46/12

f 32/46/12 23/1/12 24/39/12

usemtl Grey
vn 3.1869e-015 -4.23692e-044 -1
f 25/40/13 32/46/13 24/39/13

f 32/46/13 25/40/13 26/41/13

usemtl Brick
f 31/45/12 32/46/12 26/41/12

f 31/45/12 26/41/12 27/42/12

usemtl Grey
vn 0 0 -1
f 28/43/14 31/45/14 27/42/14

f 31/45/14 28/43/14 29/44/14

usemtl Brick_Light
v 0.795026 0.4 -0.795026
vn 3.64175e-015 -1.01529e-015 -1
f 33/5/15 23/1/15 30/6/15

v 0.795026 0 -0.795026
vt -31.3002 3.17789e-014
f 34/47/15 23/1/15 33/5/15

vt -28.3048 3.17789e-014
f 23/1/15 34/47/15 22/48/15

usemtl Brick
vt -31.3002 31.3002
v 0.795026 0 -0.718941
vt -31.3002 28.3048
f 34/49/4 35/50/4 22/37/4

usemtl Brick_Light
vt 31.3002 -7.73737e-014
vn 1 2.47198e-015 8.9723e-014
v 0.795026 0.0923094 -0.718941
vt 28.3048 -7.73737e-014
f 34/51/16 36/32/16 35/52/16

v 0.795026 0.4 -0.718941
f 36/32/16 34/51/16 37/31/16

vt 31.3002 15.748
f 37/31/16 34/51/16 33/53/16

vt 28.3048 31.3002
vt 31.3002 28.3048
vt 31.3002 31.3002
f 30/54/8 37/55/8 33/56/8

v 0.718941 0.4 -0.718941
vt 28.3048 28.3048
f 37/55/8 30/54/8 38/57/8

usemtl Brick
f 30/54/7 15/24/7 38/57/7

vt 28.3048 8.06985
f 15/24/7 19/58/7 38/57/7

f 17/27/7 19/58/7 15/24/7

f 19/58/7 17/27/7 18/28/7

f 16/23/7 17/27/7 15/24/7

v 0.718941 0.4 -0.281059
vt 28.3048 11.0653
f 38/57/7 19/58/7 39/59/7

usemtl Brick_Light
v 0.795026 0.4 -0.204974
vt 31.3002 8.06985
f 40/60/6 39/59/6 19/58/6

v 0.795026 0.4 -0.281059
vt 31.3002 11.0653
f 39/59/6 40/60/6 41/61/6

vn 1 0 -0
v 0.795026 4.51195e-017 -0.281059
f 40/12/17 42/33/17 41/30/17

v 0.795026 4.51195e-017 -0.204974
vt 8.06985 1.77636e-015
f 42/33/17 40/12/17 43/62/17

vn 2.62599e-014 -2.03059e-015 1
vt 28.3048 -1.46102e-014
vt 31.3002 -1.46102e-014
f 40/53/18 21/63/18 43/64/18

f 21/63/18 40/53/18 20/32/18

f 20/32/18 40/53/18 19/31/18

usemtl Brick
vt -31.3002 8.06985
f 21/36/4 22/37/4 43/65/4

f 43/65/4 22/37/4 35/50/4

vt -31.3002 11.0653
f 43/65/4 35/50/4 42/66/4

usemtl Brick_Dark
vt 28.3048 9.79141e-013
vn 1 -3.12822e-014 -6.59458e-015
v 0.795026 0.0923094 -0.281059
vt 11.0653 9.80918e-013
f 35/67/19 44/11/19 42/68/19

f 44/11/19 35/67/19 36/32/19

usemtl Brick
vn 1 9.3849e-015 -6.59458e-015
f 36/32/20 41/30/20 44/11/20

f 41/30/20 36/32/20 37/31/20

f 37/55/7 39/59/7 41/61/7

f 38/57/7 39/59/7 37/55/7

usemtl Brick_Light
f 41/30/17 42/33/17 44/11/17

