# Alias OBJ Model File
# Exported from SketchUp, (c) 2000-2012 Trimble Navigation Limited
# File units = meters

mtllib towerDefense_113.mtl

g Mesh1 Group1 Model

usemtl Dirt
v 1 0 -1
vt -39.3701 39.3701
vn 0 -1 -0
v 9.38485e-015 0 -0
vt -3.69482e-013 0
v 0 0 -1
vt 0 39.3701
f 1/1/1 2/2/1 3/3/1

v 1 0 -2.88765e-014
vt -39.3701 1.13687e-012
f 2/2/1 1/1/1 4/4/1

vt 39.3701 0
vn 1 0 -9.27036e-015
v 1 0.2 -2.88765e-014
vt 7.71893e-013 7.87402
vt 7.71893e-013 0
f 1/5/2 5/6/2 4/7/2

v 1 0.2 -1
vt 39.3701 7.87402
f 5/6/2 1/5/2 6/8/2

vt -39.3701 0
vn -9.27036e-015 0 -1
v 0 0.2 -1
vt -3.64975e-013 7.87402
vt -39.3701 7.87402
f 1/9/3 7/10/3 6/11/3

vt -3.64975e-013 0
f 7/10/3 1/9/3 3/12/3

vt 3.42523e-027 0
vn -1 0 9.27036e-015
f 2/13/4 7/11/4 3/9/4

v 9.38485e-015 0.2 -0
vt 3.42523e-027 7.87402
f 7/11/4 2/13/4 8/14/4

vt 3.69482e-013 0
vn 9.27036e-015 0 1
vt 3.69482e-013 7.87402
f 2/15/5 5/8/5 8/16/5

f 5/8/5 2/15/5 4/5/5

usemtl Grass
v 1 0.4 -2.88765e-014
vt 39.3701 15.748
vn -1.49011e-008 7.45058e-008 1
f 9/17/6 8/16/6 5/8/6

v 4.40366e-014 0.4 -2.98023e-008
vt 1.71624e-012 15.748
f 8/16/6 9/17/6 10/18/6

vt 39.3701 3.08844
vn -5.84471e-009 0.980581 0.196116
v 0 0.6 -1
vt -1.17332e-006 43.2382
vt 1.69876e-012 3.08844
f 9/19/7 11/20/7 10/21/7

vt 7.0971e-013 -35.5171
vn 0.196116 0.980581 -2.12783e-015
v 1 0.4 -1
vt 39.3701 -35.5171
vt 39.3701 4.63266
f 9/22/8 12/23/8 11/24/8

vt 8.15072e-013 15.748
vn 1 2.90022e-029 -8.17363e-015
f 9/25/9 6/8/9 12/17/9

vt 8.15072e-013 7.87402
f 6/8/9 9/25/9 5/26/9

usemtl Dirt
vt 39.3701 39.3701
vn 0 1 -0
vt 39.3701 1.13687e-012
f 6/27/10 8/15/10 5/28/10

f 8/15/10 6/27/10 7/3/10

usemtl Grass
vt -8.96214e-013 23.622
vn -2.27638e-014 0 -1
vt -8.96214e-013 7.87402
f 11/29/11 6/11/11 7/30/11

vt -39.3701 15.748
f 6/11/11 11/29/11 12/31/11

vn -1 3.46517e-014 3.20043e-014
vt -1.17332e-006 15.748
vt -39.3701 23.622
f 7/11/12 10/32/12 11/33/12

vt 1.1825e-026 7.87402
f 10/32/12 7/11/12 8/34/12

