# Alias OBJ Model File
# Exported from SketchUp, (c) 2000-2012 Trimble Navigation Limited
# File units = meters

mtllib towerDefense_056.mtl

g Mesh1 Group2 Group1 Model

usemtl Red_Roof
v 0.475379 0.591442 -0.524621
vt 11.4236 10.293
vn 0.707107 -1.24595e-016 -0.707107
v 0.705173 0.33 -0.294827
vt 1.70826e-013 1.54247e-029
v 0.475379 0.33 -0.524621
vt 11.4236 1.37065e-029
f 1/1/1 2/2/1 3/3/1

vt 8.07768 13.0841
vn 0.818966 0.573842 4.45282e-015
vt 1.98952e-013 2.63198e-014
v 0.705173 0.33 -0.754415
vt 16.1554 3.48505e-014
f 1/4/2 2/5/2 4/6/2

v 0.245585 0.33 -0.294827
vt -16.1554 1.5775e-013
vn 9.92125e-015 0.573842 0.818966
vt -4.26326e-014 1.22826e-013
vt -8.07768 13.0841
f 5/7/3 2/8/3 1/9/3

vt -2.84217e-014 16.1554
vn 0 -1 -0
vt -8.07768 8.07768
vt -1.98952e-013 4.26326e-014
f 5/10/4 3/11/4 2/12/4

v 0.245585 0.33 -0.754415
vt -16.1554 16.1554
f 3/11/4 5/10/4 6/13/4

vt -8.07768 3.1104
vn -0.818966 0.573842 -1.02274e-014
vt -16.1554 -9.97374
vt 1.41942e-013 -9.97374
f 1/14/5 6/15/5 5/16/5

vt 16.1554 -9.97374
vn -9.93575e-015 0.573842 -0.818966
vt 8.07768 3.1104
vt -2.27386e-013 -9.97374
f 6/17/6 1/18/6 4/19/6

vt 22.8471 0
vn 0.707107 0 -0.707107
vt 11.4236 0
f 6/20/7 1/1/7 3/21/7

vt -16.1554 0
f 4/22/4 3/11/4 6/13/4

f 3/11/4 4/22/4 2/12/4

g Mesh2 Group1 Model

usemtl Brick
v 0.705173 0.28 -0.294827
vt 27.7627 11.6074
vn -3.09457e-030 1 -2.19909e-016
v 0.294827 0.28 -0.705173
vt 11.6074 27.7627
v 0.294827 0.28 -0.294827
vt 11.6074 11.6074
f 7/23/8 8/24/8 9/25/8

v 0.705173 0.28 -0.705173
vt 27.7627 27.7627
f 8/24/8 7/23/8 10/26/8

vt -11.6074 11.0236
vn -1 2.40965e-029 -5.27782e-015
v 0.705173 0.33 -0.705173
vt -27.7627 12.9921
vt -27.7627 11.0236
f 7/27/9 11/28/9 10/29/9

v 0.705173 0.33 -0.294827
vt -11.6074 12.9921
f 11/28/9 7/27/9 12/30/9

vn -1.45595e-014 4.59644e-015 -1
v 0.294827 0.33 -0.294827
f 7/29/10 13/30/10 12/28/10

f 13/30/10 7/29/10 9/27/10

vt 27.7627 11.0236
vn 1 -3.1026e-014 1.00097e-014
vt 11.6074 12.9921
vt 11.6074 11.0236
f 8/31/11 13/32/11 9/33/11

v 0.294827 0.33 -0.705173
vt 27.7627 12.9921
f 13/32/11 8/31/11 14/34/11

vn 1.45595e-014 -4.59644e-015 1
f 8/33/12 11/34/12 14/32/12

f 11/34/12 8/33/12 10/31/12

v 0.705173 0.4 -0.705173
vt 27.7627 15.748
vn 1.52672e-014 -5.30056e-015 1
f 15/35/13 14/32/13 11/34/13

v 0.451609 0.4 -0.705173
vt 17.7799 15.748
f 14/32/13 15/35/13 16/36/13

v 0.548391 0.4 -0.705173
vt 21.5902 15.748
f 16/36/13 15/35/13 17/37/13

vn -2.80384e-015 1 -1.75753e-015
v 0.548391 0.4 -0.795026
vt 21.5902 31.3002
vt 21.5902 27.7627
f 15/26/14 18/38/14 17/39/14

v 0.705173 0.4 -0.795026
vt 27.7627 31.3002
f 18/38/14 15/26/14 19/40/14

vt -27.7627 15.748
vn -1 5.0215e-016 -0
v 0.705173 0.48 -0.795026
vt -31.3002 18.8976
vt -31.3002 15.748
f 15/41/15 20/42/15 19/43/15

v 0.705173 0.48 -0.705173
vt -27.7627 18.8976
f 20/42/15 15/41/15 21/44/15

vn 0 5.0215e-016 1
v 0.795026 0.48 -0.705173
vt 31.3002 18.8976
vt 27.7627 18.8976
f 15/35/16 22/45/16 21/46/16

v 0.795026 0.4 -0.705173
vt 31.3002 15.748
f 22/45/16 15/35/16 23/47/16

v 0.705173 0.4 -0.548391
vt 27.7627 21.5902
vn 0 1 -0
vt 31.3002 27.7627
f 24/48/17 23/49/17 15/26/17

v 0.795026 0.4 -0.548391
vt 31.3002 21.5902
f 23/49/17 24/48/17 25/50/17

v 0.705173 0.48 -0.548391
vn 0 0 -1
f 26/44/18 25/43/18 24/41/18

v 0.795026 0.48 -0.548391
f 25/43/18 26/44/18 27/42/18

v 0.795026 0.48 -0.451609
vt 31.3002 17.7799
f 26/48/17 28/51/17 27/50/17

v 0.705173 0.48 -0.451609
vt 27.7627 17.7799
f 28/51/17 26/48/17 29/52/17

vt -21.5902 18.8976
vn -1 1.69837e-029 -5.27782e-015
v 0.705173 0.4 -0.451609
vt -17.7799 15.748
vt -17.7799 18.8976
f 26/53/19 30/54/19 29/55/19

vt -21.5902 15.748
f 24/56/19 30/54/19 26/53/19

f 11/28/19 30/54/19 24/56/19

f 12/30/19 30/54/19 11/28/19

v 0.705173 0.4 -0.294827
vt -11.6074 15.748
f 30/54/19 12/30/19 31/57/19

vn -1.45176e-014 7.3143e-015 -1
v 0.294827 0.4 -0.294827
f 12/28/20 32/57/20 31/41/20

f 32/57/20 12/28/20 13/30/20

usemtl FrontColor
vn 1.73613e-017 1 -2.60419e-016
f 12/23/21 14/24/21 13/25/21

f 14/24/21 12/23/21 11/26/21

usemtl Brick
vn 1 -4.73578e-014 1.09586e-014
vt 11.6074 15.748
f 14/34/22 32/58/22 13/32/22

v 0.294827 0.4 -0.451609
f 32/58/22 14/34/22 33/36/22

v 0.294827 0.4 -0.548391
f 33/36/22 14/34/22 34/37/22

v 0.294827 0.4 -0.705173
f 34/37/22 14/34/22 35/35/22

f 35/58/13 14/32/13 16/36/13

vt 17.7799 27.7627
vn 1.48439e-015 1 -1.25538e-015
v 0.294827 0.4 -0.795026
vt 11.6074 31.3002
f 16/59/23 36/60/23 35/24/23

v 0.451609 0.4 -0.795026
vt 17.7799 31.3002
f 36/60/23 16/59/23 37/61/23

vn -1 9.89591e-016 -1.60688e-014
v 0.451609 0.48 -0.795026
f 16/41/24 38/42/24 37/43/24

v 0.451609 0.48 -0.705173
f 38/42/24 16/41/24 39/44/24

vt 17.7799 18.8976
f 17/37/13 39/62/13 16/36/13

v 0.548391 0.48 -0.705173
vt 21.5902 18.8976
f 39/62/13 17/37/13 40/63/13

vn 1 -9.89591e-016 1.60688e-014
f 18/47/25 40/46/25 17/35/25

v 0.548391 0.48 -0.795026
f 40/46/25 18/47/25 41/45/25

vn -1.46817e-014 -7.6467e-017 -1
f 18/56/26 38/55/26 41/53/26

f 38/55/26 18/56/26 37/54/26

v 0.795026 0 -0.795026
vt -31.3002 2.39343e-015
f 18/56/26 42/64/26 37/54/26

f 19/41/26 42/64/26 18/56/26

v 0.795026 0.48 -0.795026
f 42/64/26 19/41/26 43/42/26

f 43/42/26 19/41/26 20/44/26

vn 5.0215e-016 1 -5.0215e-016
vt 31.3002 31.3002
f 20/40/27 22/49/27 43/65/27

f 22/49/27 20/40/27 21/26/27

vn 1 -2.0343e-029 5.63256e-015
vt 31.3002 6.36739e-028
f 22/46/28 42/66/28 43/45/28

f 23/35/28 42/66/28 22/46/28

f 25/37/28 42/66/28 23/35/28

f 28/62/28 42/66/28 25/37/28

v 0.795026 0.4 -0.451609
f 44/36/28 42/66/28 28/62/28

v 0.795026 0.4 -0.294827
f 45/58/28 42/66/28 44/36/28

v 0.795026 4.51195e-017 -0.204974
vt 8.06985 1.77636e-015
f 45/58/28 46/67/28 42/66/28

v 0.795026 0.48 -0.204974
vt 8.06985 18.8976
f 46/67/28 45/58/28 47/68/28

v 0.795026 0.48 -0.294827
vt 11.6074 18.8976
f 48/69/28 47/68/28 45/58/28

vt 31.3002 11.6074
vn -3.22758e-029 1 -1.0043e-015
v 0.705173 0.48 -0.204974
vt 27.7627 8.06985
vt 31.3002 8.06985
f 48/70/29 49/71/29 47/72/29

v 0.705173 0.48 -0.294827
f 49/71/29 48/70/29 50/23/29

vn 0 -1.0043e-015 -1
f 45/43/30 50/44/30 48/42/30

f 50/44/30 45/43/30 31/41/30

f 45/70/17 30/52/17 31/23/17

f 30/52/17 45/70/17 44/51/17

vn 0 0 1
f 28/45/31 30/35/31 44/47/31

f 30/35/31 28/45/31 29/46/31

v 0.705173 0.4 -0.204974
vt -8.06985 15.748
vn -1 -1.61379e-029 1.60688e-014
vt -11.6074 18.8976
f 51/73/32 50/74/32 31/57/32

vt -8.06985 18.8976
f 50/74/32 51/73/32 49/75/32

vn 1.6324e-014 -2.79866e-029 1
f 51/35/33 47/45/33 49/46/33

vt 31.3002 1.77636e-015
f 51/35/33 46/76/33 47/45/33

v 0.204974 4.51195e-017 -0.204974
f 46/76/33 51/35/33 52/67/33

v 0.294827 0.4 -0.204974
f 53/58/33 52/67/33 51/35/33

v 0.204974 0.48 -0.204974
f 52/67/33 53/58/33 54/68/33

v 0.294827 0.48 -0.204974
f 54/68/33 53/58/33 55/69/33

vn 1 8.10458e-030 -8.0344e-015
vt 8.06985 15.748
f 32/58/34 55/68/34 53/77/34

v 0.294827 0.48 -0.294827
f 55/68/34 32/58/34 56/69/34

v 0.204974 0.48 -0.294827
f 32/57/30 57/75/30 56/74/30

v 0.204974 0.4 -0.294827
f 57/75/30 32/57/30 58/73/30

v 0.204974 0.4 -0.451609
vt 8.06985 17.7799
vt 8.06985 11.6074
f 32/25/17 59/78/17 58/79/17

vt 11.6074 17.7799
f 59/78/17 32/25/17 33/80/17

v 0.294827 0.48 -0.451609
f 60/69/31 59/77/31 33/58/31

v 0.204974 0.48 -0.451609
f 59/77/31 60/69/31 61/68/31

v 0.204974 0.48 -0.548391
vt 8.06985 21.5902
f 60/80/17 62/81/17 61/78/17

v 0.294827 0.48 -0.548391
vt 11.6074 21.5902
f 62/81/17 60/80/17 63/82/17

f 63/63/22 60/62/22 34/37/22

f 33/36/22 34/37/22 60/62/22

vn -6.42752e-014 0 -1
f 34/57/35 62/75/35 63/74/35

v 0.204974 0.4 -0.548391
f 62/75/35 34/57/35 64/73/35

v 0.204974 0.4 -0.705173
vt 8.06985 27.7627
f 34/82/17 65/83/17 64/81/17

f 65/83/17 34/82/17 35/24/17

v 0.294827 0.48 -0.705173
vn 0 1.0043e-015 1
f 66/69/36 65/77/36 35/58/36

v 0.204974 0.48 -0.705173
f 65/77/36 66/69/36 67/68/36

vn -1.61308e-029 1 -1.0043e-015
v 0.204974 0.48 -0.795026
vt 8.06985 31.3002
f 66/24/37 68/84/37 67/83/37

v 0.294827 0.48 -0.795026
f 68/84/37 66/24/37 69/60/37

vn 1 1.61308e-029 -0
f 66/46/38 36/47/38 69/45/38

f 36/47/38 66/46/38 35/35/38

f 36/57/26 68/75/26 69/74/26

v 0.204974 0 -0.795026
vt -8.06985 2.39343e-015
f 36/57/26 70/85/26 68/75/26

f 70/85/26 36/57/26 42/64/26

f 42/64/26 36/57/26 37/54/26

vt -31.3002 8.06985
vn 7.45363e-031 -1 7.6467e-017
vt -8.06985 31.3002
vt -31.3002 31.3002
f 46/86/39 70/87/39 42/88/39

vt -8.06985 8.06985
f 70/87/39 46/86/39 52/89/39

vt -8.06985 1.77636e-015
vn -1 -1.49381e-030 -9.78778e-015
vt -31.3002 -1.20548e-029
f 52/90/40 58/57/40 70/91/40

f 52/90/40 57/74/40 58/57/40

f 57/74/40 52/90/40 54/75/40

vt 11.6074 8.06985
vn -1.61735e-029 1 -1.0043e-015
vt 8.06985 8.06985
f 55/92/41 57/79/41 54/93/41

f 57/79/41 55/92/41 56/25/41

f 70/91/40 58/57/40 59/54/40

f 70/91/40 59/54/40 64/56/40

f 64/56/40 59/54/40 62/53/40

f 62/53/40 59/54/40 61/55/40

f 70/91/40 64/56/40 65/41/40

f 70/91/40 65/41/40 68/42/40

f 68/42/40 65/41/40 67/44/40

vn -3.29864e-016 1 -1.50645e-015
v 0.451609 0.4 -0.294827
vt 17.7799 11.6074
f 53/92/42 71/94/42 32/25/42

v 0.451609 0.4 -0.204974
vt 17.7799 8.06985
f 71/94/42 53/92/42 72/95/42

v 0.548391 0.4 -0.204974
f 53/58/33 73/37/33 72/36/33

f 73/37/33 53/58/33 51/35/33

vn -1.0618e-029 1 -1.0043e-015
v 0.548391 0.4 -0.294827
vt 21.5902 11.6074
vt 21.5902 8.06985
f 51/71/43 74/96/43 73/97/43

f 74/96/43 51/71/43 31/23/43

f 31/41/20 71/54/20 74/56/20

f 31/41/20 32/57/20 71/54/20

v 0.451609 0.48 -0.294827
f 75/55/20 74/56/20 71/54/20

v 0.548391 0.48 -0.294827
f 74/56/20 75/55/20 76/53/20

vn 3.29864e-016 1 -1.50645e-015
v 0.548391 0.48 -0.204974
f 75/94/44 77/97/44 76/96/44

v 0.451609 0.48 -0.204974
f 77/97/44 75/94/44 78/95/44

vn -1 3.29864e-016 -1.60688e-014
f 75/74/45 72/73/45 78/75/45

f 72/73/45 75/74/45 71/57/45

f 72/36/33 77/63/33 78/62/33

f 72/36/33 73/37/33 77/63/33

vn 1 -3.29864e-016 3.9443e-031
f 74/58/46 77/68/46 73/77/46

f 77/68/46 74/58/46 76/69/46

f 27/63/28 28/62/28 25/37/28

vn 9.89591e-016 1 -2.51075e-015
f 38/61/47 40/39/47 41/38/47

f 40/39/47 38/61/47 39/59/47

f 11/28/19 24/56/19 15/41/19

