# Alias OBJ Model File
# Exported from SketchUp, (c) 2000-2012 Trimble Navigation Limited
# File units = meters

mtllib towerDefense_100.mtl

g Mesh1 Group1 Model

usemtl Dirt
v 1 0.2 -0.125
vt 4.92126 7.87402
vn 1 0 -1.11022e-015
v 1 0.37 -0.875
vt 34.4488 14.5669
v 1 0.37 -0.125
vt 4.92126 14.5669
f 1/1/1 2/2/1 3/3/1

v 1 0.2 -0.875
vt 34.4488 7.87402
f 2/2/1 1/1/1 4/4/1

v 1 0 -1
vt 39.3701 0
f 1/1/1 5/5/1 4/4/1

v 1 0.2 -0
vt -4.37096e-014 7.87402
f 6/6/1 5/5/1 1/1/1

v 1 0 -0
vt -4.37096e-014 0
f 5/5/1 6/6/1 7/7/1

vt 39.3701 7.87402
vn 1.11022e-015 0 1
v 1.44382e-015 0 -0
vt 5.68434e-014 0
f 6/8/2 8/9/2 7/5/2

v 1.44382e-015 0.2 -0
vt 5.68434e-014 7.87402
f 8/9/2 6/8/2 9/10/2

usemtl Grass
v 1 0.4 -0
vt 39.3701 15.748
f 10/11/2 9/10/2 6/8/2

v 1.44382e-015 0.4 -0
vt 5.68434e-014 15.748
f 9/10/2 10/11/2 11/12/2

v 1 0.4 -0.125
vt 39.3701 4.92126
vn 0 1 -0
f 12/13/3 11/9/3 10/5/3

v 7.21911e-016 0.4 -0.125
vt 2.84217e-014 4.92126
f 11/9/3 12/13/3 13/14/3

usemtl Dirt
vt -39.3701 14.5669
vn -3.99787e-015 -9.62549e-014 -1
vt -4.80963e-014 15.748
vt -39.3701 15.748
f 3/15/4 13/16/4 12/17/4

v 7.21911e-016 0.37 -0.125
vt -4.80963e-014 14.5669
f 13/16/4 3/15/4 14/18/4

v 0.125 0.37 -0.875
vt 4.92126 34.4488
vn -1.08287e-017 1 2.59712e-016
vt 2.85794e-014 4.92126
f 15/19/5 14/20/5 3/13/5

v 0 0.37 -0.875
vt 1.5774e-016 34.4488
f 14/20/5 15/19/5 16/21/5

vn -4.66507e-015 -4.81274e-014 1
v 0 0.4 -0.875
vt -1.60706e-013 15.748
vt -1.60706e-013 14.5669
f 15/3/6 17/22/6 16/23/6

v 0.125 0.4 -0.875
vt 4.92126 15.748
f 17/22/6 15/3/6 18/24/6

v 0.125 0.37 -1
vt 39.3701 14.5669
vt 34.4488 15.748
f 19/25/1 18/26/1 15/2/1

v 0.125 0.4 -1
f 18/26/1 19/25/1 20/11/1

usemtl Grass
vt -4.92126 14.5669
vn -1.03516e-014 -2.05784e-015 -1
v 0 0.4 -1
vt -4.07542e-013 15.748
vt -4.92126 15.748
f 19/27/7 21/28/7 20/29/7

v 0.125 0.2 -1
vt -4.92126 7.87402
f 22/30/7 21/28/7 19/27/7

v 0 0.2 -1
vt -4.07542e-013 7.87402
f 21/28/7 22/30/7 23/31/7

usemtl Dirt
v 1 0.2 -1
vt -39.3701 7.87402
vn -1.11022e-015 0 -1
f 24/32/8 23/6/8 22/30/8

vt -39.3701 0
f 5/33/8 23/6/8 24/32/8

v 0 0 -1
f 23/6/8 5/33/8 25/7/8

vt -39.3701 39.3701
vn 0 -1 -0
vt -5.68434e-014 0
vt 0 39.3701
f 5/34/9 8/35/9 25/36/9

f 8/35/9 5/34/9 7/33/9

vt 6.31089e-029 0
vn -1 0 1.11022e-015
v 7.21911e-016 0.2 -0.125
f 8/37/10 26/30/10 25/33/10

vt 6.31089e-029 7.87402
f 26/30/10 8/37/10 9/38/10

usemtl Grass
f 9/38/10 14/27/10 26/30/10

f 9/38/10 13/29/10 14/27/10

vt 6.31089e-029 15.748
f 13/29/10 9/38/10 11/39/10

usemtl Dirt
vt -34.4488 14.5669
f 16/40/10 26/30/10 14/27/10

v 0 0.2 -0.875
vt -34.4488 7.87402
f 26/30/10 16/40/10 27/41/10

usemtl Grass
f 16/40/10 21/17/10 27/41/10

vt -34.4488 15.748
f 21/17/10 16/40/10 17/42/10

vt 0 34.4488
f 18/19/3 21/36/3 17/43/3

vt 4.92126 39.3701
f 21/36/3 18/19/3 20/44/3

f 27/41/10 21/17/10 23/32/10

usemtl Dirt
f 25/33/10 27/41/10 23/32/10

f 25/33/10 26/30/10 27/41/10

f 26/14/3 23/36/3 27/43/3

f 23/36/3 26/14/3 22/44/3

f 22/44/3 26/14/3 9/9/3

f 22/44/3 9/9/3 6/5/3

v 0.875 0.2 -1
vt 34.4488 39.3701
f 22/44/3 6/5/3 28/45/3

vt 39.3701 34.4488
f 28/45/3 6/5/3 4/46/3

f 4/46/3 6/5/3 1/13/3

usemtl Grass
vt -4.37096e-014 15.748
f 1/1/1 10/47/1 6/6/1

f 10/47/1 1/1/1 3/3/1

f 12/24/1 10/47/1 3/3/1

usemtl Dirt
vt 39.3701 39.3701
f 24/48/3 28/45/3 4/46/3

usemtl Grass
v 0.875 0.37 -1
f 29/40/8 24/32/8 28/41/8

v 1 0.4 -1
f 24/32/8 29/40/8 30/17/8

v 0.875 0.4 -1
f 30/17/8 29/40/8 31/42/8

usemtl Dirt
v 0.875 0.37 -0.875
f 32/40/10 31/17/10 29/15/10

v 0.875 0.4 -0.875
f 31/17/10 32/40/10 33/42/10

v 1 0.4 -0.875
f 32/2/2 34/11/2 33/26/2

f 34/11/2 32/2/2 2/25/2

vt 34.4488 34.4488
f 32/49/5 3/13/5 2/46/5

f 19/44/5 3/13/5 32/49/5

f 15/19/5 3/13/5 19/44/5

f 29/45/5 19/44/5 32/49/5

vn 3.336e-016 -2.12327e-015 -1
f 28/41/11 19/27/11 29/40/11

f 19/27/11 28/41/11 22/30/11

f 24/32/8 22/30/8 28/41/8

usemtl Grass
f 2/2/1 24/8/1 34/26/1

f 24/8/1 2/2/1 4/4/1

usemtl Dirt
f 4/4/1 5/5/1 24/8/1

usemtl Grass
f 34/26/1 24/8/1 30/11/1

vn 1.80478e-016 1 1.80478e-016
f 31/45/12 34/46/12 30/48/12

f 34/46/12 31/45/12 33/49/12

