# Alias OBJ Model File
# Exported from SketchUp, (c) 2000-2012 Trimble Navigation Limited
# File units = meters

mtllib towerDefense_116.mtl

g Mesh1 Group1 Model

usemtl Dirt
v 1 0.2 -1.73259e-014
vt 39.3701 6.82121e-013
vn 0 1 -0
v 1.44382e-015 0.2 -1
vt 5.68434e-014 39.3701
v 0 0.2 -0
vt 0 0
f 1/1/1 2/2/1 3/3/1

v 1 0.2 -1
vt 39.3701 39.3701
f 2/2/1 1/1/1 4/4/1

usemtl Grass
vt 39.3701 7.87402
vn 1 3.46517e-014 -2.0791e-014
v 1 0.6 -1.73259e-014
vt -1.36424e-013 23.622
vt -1.36424e-013 7.87402
f 4/5/2 5/6/2 1/7/2

v 1 0.4 -1
vt 39.3701 15.748
f 5/6/2 4/5/2 6/8/2

vt -39.3701 7.87401
vn 1.49012e-008 7.45058e-008 -1
v 1.44382e-015 0.4 -1
vt 5.86659e-007 15.748
vt -39.3701 15.748
f 4/9/3 7/10/3 6/11/3

vt 5.86659e-007 7.87401
f 7/10/3 4/9/3 2/12/3

usemtl Dirt
v 1 0 -1
vt -39.3701 0
vn 1.94289e-015 0 -1
vt 1.96483e-014 7.87402
vt -39.3701 7.87402
f 8/13/4 2/14/4 4/15/4

v 1.44382e-015 0 -1
vt 1.96483e-014 0
f 2/14/4 8/13/4 9/16/4

v 1 0 -1.73259e-014
vt -39.3701 6.82121e-013
vn 0 -1 -0
vt -5.68434e-014 39.3701
vt -39.3701 39.3701
f 10/17/5 9/18/5 8/19/5

v 0 0 -0
f 9/18/5 10/17/5 11/3/5

vn -1.94289e-015 0 1
vt 39.3701 0
f 1/5/6 11/3/6 10/20/6

vt 0 7.87402
f 11/3/6 1/5/6 3/21/6

usemtl Grass
vt 39.3701 23.622
vn 1.15506e-014 0 1
f 5/22/7 3/21/7 1/5/7

v 0 0.4 -0
vt 0 15.748
f 3/21/7 5/22/7 12/23/7

vt -6.96429e-013 43.2382
vn -0.196116 0.980581 -7.12721e-017
vt -39.3701 3.08844
vt 0 3.08844
f 5/24/8 7/25/8 12/26/8

vt -39.3701 4.63266
vn 5.84472e-009 0.980581 -0.196116
vt -39.3701 -35.5171
vt 1.17332e-006 -35.5171
f 5/27/9 6/28/9 7/29/9

vn -1 2.90022e-029 -3.03963e-015
f 7/11/10 3/21/10 12/23/10

f 3/21/10 7/11/10 2/15/10

usemtl Dirt
vn -1 0 -1.94289e-015
f 2/15/11 11/3/11 3/21/11

f 11/3/11 2/15/11 9/13/11

vn 1 0 1.94289e-015
vt 7.58613e-013 7.87402
vt 7.58613e-013 0
f 8/20/12 1/30/12 10/31/12

f 1/30/12 8/20/12 4/5/12

