# Alias OBJ Model File
# Exported from SketchUp, (c) 2000-2012 Trimble Navigation Limited
# File units = meters

mtllib towerDefense_086.mtl

g Mesh1 Group1 Model

usemtl Grass
v 1 0.2 -0.25
vt 9.84252 7.87402
vn 1 5.30953e-009 -1.19217e-008
v 1 0.4 -0
vt -4.69357e-007 15.748
v 1 0.2 -0
vt -4.69357e-007 7.87402
f 1/1/1 2/2/1 3/3/1

v 1 0.34 -0.25
vt 9.84252 13.3858
f 2/2/1 1/1/1 4/4/1

usemtl Water
vt 9.84252 7.87401
vn 1 2.10004e-008 -1.14859e-008
v 1 0.34 -0.75
vt 29.5276 13.3858
f 1/5/2 5/6/2 4/4/2

v 1 0.2 -0.75
vt 29.5276 7.87401
f 5/6/2 1/5/2 6/7/2

usemtl Dirt
vn 1 0 3.82999e-013
v 1 0 -1
vt 39.3701 0
vt 29.5276 7.87402
f 1/1/3 7/8/3 6/9/3

vt 1.50787e-011 7.87402
f 3/10/3 7/8/3 1/1/3

v 1 0 -0
vt 1.50787e-011 0
f 7/8/3 3/10/3 8/11/3

vt 39.3701 7.87402
vn -3.82999e-013 0 1
v 0 0 -3.63843e-013
vt -5.48629e-024 0
f 3/12/4 9/13/4 8/8/4

v 0 0.2 -3.63843e-013
vt -5.48629e-024 7.87402
f 9/13/4 3/12/4 10/14/4

usemtl Grass
vt 39.3701 15.748
f 2/15/4 10/14/4 3/12/4

v 0 0.4 -3.63843e-013
vt -5.48629e-024 15.748
f 10/14/4 2/15/4 11/16/4

v 0.46967 0.4 -0.46967
vt 18.4909 18.4909
vn 4.34326e-015 1 -2.06326e-015
vt -6.83978e-014 1.4292e-011
vt 39.3701 -3.24923e-014
f 12/17/5 11/18/5 2/19/5

v 3.84057e-013 0.4 -1
vt 1.5052e-011 39.3701
f 11/18/5 12/17/5 13/20/5

v 0.404985 0.4 -0.543429
vt 15.9443 21.3948
f 13/20/5 12/17/5 14/21/5

vt 1.7103 15.748
vn 0.707107 5.98845e-015 -0.707107
v 0.404985 0.34 -0.543429
vt 5.57269 13.3858
vn 0.793353 5.62568e-015 -0.608761
vt 5.57269 15.748
f 12/22/6 15/23/7 14/24/7

v 0.46967 0.34 -0.46967
vt 1.7103 13.3858
f 15/23/7 12/22/6 16/25/6

vt -1.7103 15.748
v 0.543429 0.34 -0.404985
vt -5.57269 13.3858
vn 0.608761 6.24874e-015 -0.793353
vt -1.7103 13.3858
f 12/26/6 17/27/8 16/28/6

v 0.543429 0.4 -0.404985
vt -5.57269 15.748
f 17/27/8 12/26/6 18/29/8

vt 21.3948 15.9443
f 12/17/5 2/19/5 18/30/5

v 0.625 0.4 -0.350481
vt 24.6063 13.7985
f 18/30/5 2/19/5 19/31/5

v 0.712987 0.4 -0.30709
vt 28.0704 12.0902
f 19/31/5 2/19/5 20/32/5

v 0.805886 0.4 -0.275556
vt 31.7278 10.8486
f 20/32/5 2/19/5 21/33/5

v 0.902105 0.4 -0.256416
vt 35.516 10.0951
f 21/33/5 2/19/5 22/34/5

v 1 0.4 -0.25
vt 39.3701 9.84252
f 22/34/5 2/19/5 23/35/5

vt 9.84252 15.748
f 23/36/1 2/2/1 4/4/1

vt -38.6421 13.3858
vn 0.0654031 6.07603e-015 -0.997859
vt -34.7797 15.748
vn 0.130526 6.2039e-015 -0.991445
vt -38.6421 15.748
f 4/37/9 22/38/10 23/39/9

v 0.902105 0.34 -0.256416
vt -34.7797 13.3858
f 22/38/10 4/37/9 24/40/10

usemtl Water
v 0.904329 0.34 -0.76903
vt 35.6035 30.2768
vn -2.5468e-015 1 5.92214e-015
f 25/41/11 24/34/11 4/35/11

v 0.875 0.34 -0.783494
vt 34.4488 30.8462
f 26/42/11 24/34/11 25/41/11

v 0.84781 0.34 -0.801662
vt 33.3783 31.5615
f 27/43/11 24/34/11 26/42/11

v 0.823223 0.34 -0.823223
vt 32.4104 32.4104
f 28/44/11 24/34/11 27/43/11

v 0.805886 0.34 -0.275556
f 28/44/11 29/33/11 24/34/11

v 0.801662 0.34 -0.84781
vt 31.5615 33.3783
f 30/45/11 29/33/11 28/44/11

v 0.783494 0.34 -0.875
vt 30.8462 34.4488
f 31/46/11 29/33/11 30/45/11

v 0.76903 0.34 -0.904329
vt 30.2768 35.6035
f 32/47/11 29/33/11 31/46/11

v 0.758519 0.34 -0.935295
vt 29.8629 36.8226
f 33/48/11 29/33/11 32/47/11

v 0.752139 0.34 -0.967368
vt 29.6118 38.0854
f 34/49/11 29/33/11 33/48/11

v 0.712987 0.34 -0.30709
f 34/49/11 35/32/11 29/33/11

v 0.75 0.34 -1
vt 29.5276 39.3701
f 36/50/11 35/32/11 34/49/11

v 0.625 0.34 -0.350481
f 36/50/11 37/31/11 35/32/11

f 36/50/11 17/30/11 37/31/11

f 36/50/11 16/17/11 17/30/11

f 36/50/11 15/21/11 16/17/11

v 0.350481 0.34 -0.625
vt 13.7985 24.6063
f 36/50/11 38/51/11 15/21/11

v 0.30709 0.34 -0.712987
vt 12.0902 28.0704
f 36/50/11 39/52/11 38/51/11

v 0.275556 0.34 -0.805886
vt 10.8486 31.7278
f 36/50/11 40/53/11 39/52/11

v 0.256416 0.34 -0.902105
vt 10.0951 35.516
f 36/50/11 41/54/11 40/53/11

v 0.25 0.34 -1
vt 9.84252 39.3701
f 41/54/11 36/50/11 42/55/11

v 0.75 0.2 -1
vt -29.5276 7.87402
vn 3.69506e-013 3.39723e-014 -1
vt -9.84252 13.3858
vt -29.5276 13.3858
f 43/56/12 42/57/12 36/58/12

v 0.25 0.2 -1
vt -9.84252 7.87402
f 42/57/12 43/56/12 44/59/12

usemtl Dirt
vn 0 1 -0
f 44/55/13 3/8/13 43/50/13

v 3.84057e-013 0.2 -1
vt 1.51203e-011 39.3701
f 45/60/13 3/8/13 44/55/13

vt 0 1.43245e-011
f 3/8/13 45/60/13 10/61/13

usemtl Grass
vt -1.43245e-011 7.87402
vn -1 5.18718e-031 -3.84096e-013
vt -39.3701 15.748
vt -39.3701 7.87402
f 10/62/14 13/63/14 45/64/14

vt -1.43245e-011 15.748
f 13/63/14 10/62/14 11/65/14

vt 4.27704e-013 15.748
vn 3.94921e-013 1.64627e-014 -1
vt 4.27704e-013 7.87402
f 13/66/15 44/59/15 45/67/15

f 44/59/15 13/66/15 42/57/15

v 0.25 0.4 -1
vt -9.84252 15.748
f 42/57/15 13/66/15 46/68/15

v 0.256416 0.4 -0.902105
f 13/20/5 47/54/5 46/55/5

v 0.275556 0.4 -0.805886
f 13/20/5 48/53/5 47/54/5

v 0.30709 0.4 -0.712987
f 13/20/5 49/52/5 48/53/5

v 0.350481 0.4 -0.625
f 13/20/5 50/51/5 49/52/5

f 13/20/5 14/21/5 50/51/5

vt 8.93099 15.748
vt 12.7934 13.3858
vn 0.866025 5.16667e-015 -0.5
vt 12.7934 15.748
f 14/69/7 38/70/16 50/71/16

vt 8.93099 13.3858
f 38/70/16 14/69/7 15/72/7

vt 19.8282 13.3858
vn 0.92388 4.61924e-015 -0.382683
vt 15.9658 15.748
vt 15.9658 13.3858
f 39/73/17 50/74/16 38/75/16

vt 19.8282 15.748
f 50/74/16 39/73/17 49/76/17

vt 26.5568 13.3858
vn 0.965926 3.99279e-015 -0.258819
vt 22.6944 15.748
vt 22.6944 13.3858
f 40/77/18 49/78/17 39/79/17

vt 26.5568 15.748
f 49/78/17 40/77/18 48/80/18

vt 32.8641 13.3858
vn 0.991445 3.29801e-015 -0.130526
vt 29.0017 15.748
vt 29.0017 13.3858
f 41/81/19 48/82/18 40/83/18

vt 32.8641 15.748
f 48/82/18 41/81/19 47/84/19

vt 38.6421 13.3858
vn 0.997859 2.92868e-015 -0.0654031
vt 34.7797 15.748
vt 34.7797 13.3858
f 42/85/20 47/86/19 41/87/19

vt 38.6421 15.748
f 47/86/19 42/85/20 46/88/20

usemtl Dirt
v 1 0.2 -1
vn 3.82999e-013 0 -1
vt -4.16412e-014 7.87402
f 51/64/21 45/89/21 44/59/21

vt -39.3701 0
f 7/90/21 45/89/21 51/64/21

v 3.84057e-013 0 -1
vt -4.16412e-014 0
f 45/89/21 7/90/21 52/91/21

vn 0 -1 -0
vt -1.51203e-011 39.3701
vt -39.3701 39.3701
f 8/90/22 52/92/22 7/93/22

f 52/92/22 8/90/22 9/61/22

vt -1.43245e-011 0
vn -1 0 -3.82999e-013
f 9/94/23 45/64/23 52/90/23

f 45/64/23 9/94/23 10/62/23

f 6/9/3 7/8/3 51/12/3

usemtl Grass
v 1 0.4 -0.75
vt 29.5276 15.748
vn 1 1.50437e-008 3.62631e-008
f 53/95/24 6/9/24 51/12/24

f 6/9/24 53/95/24 5/6/24

vt 37.3546 15.748
vn -0.0654031 -6.07603e-015 0.997859
v 0.967368 0.34 -0.752139
vt 36.0671 13.3858
vn -0.130526 -6.2039e-015 0.991445
vt 37.3546 13.3858
f 53/96/25 54/97/26 5/98/25

v 0.967368 0.4 -0.752139
vt 36.0671 15.748
f 54/97/26 53/96/25 55/99/26

v 1 0.4 -1
vt 39.3701 39.3701
vn -4.75813e-015 1 4.75813e-015
vt 38.0854 29.6118
vt 39.3701 29.5276
f 56/100/27 55/101/27 53/102/27

v 0.935295 0.4 -0.758519
vt 36.8226 29.8629
f 56/100/27 57/103/27 55/101/27

v 0.904329 0.4 -0.76903
f 56/100/27 58/41/27 57/103/27

v 0.875 0.4 -0.783494
f 56/100/27 59/42/27 58/41/27

v 0.84781 0.4 -0.801662
f 56/100/27 60/43/27 59/42/27

v 0.823223 0.4 -0.823223
f 56/100/27 61/44/27 60/43/27

v 0.801662 0.4 -0.84781
f 56/100/27 62/45/27 61/44/27

v 0.783494 0.4 -0.875
f 56/100/27 63/46/27 62/45/27

v 0.76903 0.4 -0.904329
f 56/100/27 64/47/27 63/46/27

v 0.758519 0.4 -0.935295
f 56/100/27 65/48/27 64/47/27

v 0.752139 0.4 -0.967368
f 56/100/27 66/49/27 65/48/27

v 0.75 0.4 -1
f 66/49/27 56/100/27 67/50/27

vn 3.44091e-013 1.64627e-014 -1
vt -29.5276 15.748
f 56/63/28 36/58/28 67/104/28

f 51/64/28 36/58/28 56/63/28

f 36/58/28 51/64/28 43/56/28

usemtl Dirt
f 51/100/13 43/50/13 6/102/13

f 51/64/21 44/59/21 43/56/21

f 43/50/13 3/8/13 6/102/13

f 6/102/13 3/8/13 1/35/13

usemtl Grass
f 53/95/24 51/12/24 56/15/24

vt -37.3546 13.3858
vn -0.997859 -2.92868e-015 0.0654031
vt -36.0671 15.748
vn -0.991445 -3.29801e-015 0.130526
vt -37.3546 15.748
f 36/105/29 66/106/30 67/107/29

vt -36.0671 13.3858
f 66/106/30 36/105/29 34/108/30

vt -31.5766 13.3858
vt -30.2891 15.748
vn -0.965926 -3.99279e-015 0.258819
vt -31.5766 15.748
f 34/109/30 65/110/31 66/111/30

vt -30.2891 13.3858
f 65/110/31 34/109/30 33/112/31

vt -25.2694 13.3858
vt -23.9819 15.748
vn -0.92388 -4.61924e-015 0.382683
vt -25.2694 15.748
f 33/113/31 64/114/32 65/115/31

vt -23.9819 13.3858
f 64/114/32 33/113/31 32/116/32

vt -18.5407 13.3858
vt -17.2533 15.748
vn -0.866025 -5.16667e-015 0.5
vt -18.5407 15.748
f 32/117/32 63/118/33 64/119/32

vt -17.2533 13.3858
f 63/118/33 32/117/32 31/120/33

vt -11.5059 13.3858
vt -10.2185 15.748
vn -0.793353 -5.62568e-015 0.608761
vt -11.5059 15.748
f 31/121/33 62/122/34 63/123/33

vt -10.2185 13.3858
f 62/122/34 31/121/33 30/124/34

vt -4.28523 13.3858
vt -2.99777 15.748
vn -0.707107 -5.98845e-015 0.707107
vt -4.28523 15.748
f 30/125/34 61/126/35 62/127/34

vt -2.99777 13.3858
f 61/126/35 30/125/34 28/128/35

vt 2.99776 13.3858
vt 4.28523 15.748
vn -0.608761 -6.24874e-015 0.793353
vt 2.99776 15.748
f 28/129/35 60/130/36 61/131/35

vt 4.28523 13.3858
f 60/130/36 28/129/35 27/132/36

vt 10.2184 13.3858
vt 11.5059 15.748
vn -0.5 -6.40212e-015 0.866025
vt 10.2184 15.748
f 27/133/36 59/134/37 60/135/36

vt 11.5059 13.3858
f 59/134/37 27/133/36 26/136/37

vt 17.2533 13.3858
vt 18.5407 15.748
vn -0.382683 -6.44596e-015 0.92388
vt 17.2533 15.748
f 26/137/37 58/138/38 59/139/37

vt 18.5407 13.3858
f 58/138/38 26/137/37 25/140/38

vt 23.9819 13.3858
vt 25.2693 15.748
vn -0.258819 -6.37951e-015 0.965926
vt 23.9819 15.748
f 25/141/38 57/142/39 58/143/38

v 0.935295 0.34 -0.758519
vt 25.2693 13.3858
f 57/142/39 25/141/38 68/144/39

usemtl Water
f 25/41/11 4/35/11 68/103/11

f 68/103/11 4/35/11 54/101/11

f 54/101/11 4/35/11 5/102/11

usemtl Grass
vt 31.5766 15.748
vt 30.2891 13.3858
vt 31.5766 13.3858
f 55/145/26 68/146/39 54/147/26

vt 30.2891 15.748
f 68/146/39 55/145/26 57/148/39

vt -8.93099 15.748
vt -12.7934 13.3858
vn 0.5 6.40212e-015 -0.866025
vt -8.93099 13.3858
f 18/149/8 37/150/40 17/151/8

vt -12.7934 15.748
f 37/150/40 18/149/8 19/152/40

vt -15.9658 15.748
vt -19.8282 13.3858
vn 0.382683 6.44596e-015 -0.92388
vt -15.9658 13.3858
f 19/153/40 35/154/41 37/155/40

vt -19.8282 15.748
f 35/154/41 19/153/40 20/156/41

vt -22.6944 15.748
vt -26.5568 13.3858
vn 0.258819 6.37951e-015 -0.965926
vt -22.6944 13.3858
f 20/157/41 29/158/42 35/159/41

vt -26.5568 15.748
f 29/158/42 20/157/41 21/160/42

vt -29.0017 15.748
vt -32.8641 13.3858
vt -29.0017 13.3858
f 21/161/42 24/162/10 29/163/42

vt -32.8641 15.748
f 24/162/10 21/161/42 22/164/10

