# Alias OBJ Model File
# Exported from SketchUp, (c) 2000-2012 Trimble Navigation Limited
# File units = meters

mtllib towerDefense_088.mtl

g Mesh1 Group1 Model

usemtl Grass
v 1 0.4 -5.77529e-015
vt 39.3701 15.748
vn -1.94289e-015 0 1
v 0 0.2 -0
vt 0 7.87402
v 1 0.2 -5.77529e-015
vt 39.3701 7.87402
f 1/1/1 2/2/1 3/3/1

v 0 0.4 -0
vt 0 15.748
f 2/2/1 1/1/1 4/4/1

vt 39.3701 2.26748e-013
vn -1.12799e-017 1 -3.97051e-017
v 2.88765e-015 0.4 -1
vt 1.13864e-013 39.3701
vt 1.77636e-016 -6.25278e-016
f 1/5/2 5/6/2 4/7/2

v 1 0.4 -1
vt 39.3701 39.3701
f 5/6/2 1/5/2 6/8/2

vt 3.47044e-013 15.748
vn 1 5.18718e-031 3.03963e-015
v 1 0.2 -1
f 1/9/3 7/3/3 6/1/3

vt 3.47044e-013 7.87402
f 7/3/3 1/9/3 3/10/3

usemtl Dirt
v 2.88765e-015 0.2 -1
vt 1.13687e-013 39.3701
vn 0 1 -0
vt 39.3701 2.27374e-013
f 8/11/4 3/12/4 7/8/4

vt 0 0
f 3/12/4 8/11/4 2/13/4

usemtl Grass
vn -1 2.90022e-029 -3.03963e-015
vt -39.3701 15.748
vt -39.3701 7.87402
f 2/2/5 5/14/5 8/15/5

f 5/14/5 2/2/5 4/4/5

vt -3.71951e-014 15.748
vn 1.94289e-015 0 -1
vt -3.71951e-014 7.87402
f 5/16/6 7/15/6 8/17/6

f 7/15/6 5/16/6 6/14/6

usemtl Dirt
v 1 0 -1
vt -39.3701 0
f 9/18/6 8/17/6 7/15/6

v 2.88765e-015 0 -1
vt -3.71951e-014 0
f 8/17/6 9/18/6 10/19/6

v 1 0 -5.77529e-015
vt -39.3701 2.27374e-013
vn 0 -1 -0
vt -1.13687e-013 39.3701
vt -39.3701 39.3701
f 11/20/7 10/21/7 9/22/7

v 0 0 -0
f 10/21/7 11/20/7 12/13/7

vt 39.3701 0
f 3/3/1 12/13/1 11/23/1

f 12/13/1 3/3/1 2/2/1

vn -1 0 -1.94289e-015
f 8/15/8 12/13/8 2/2/8

f 12/13/8 8/15/8 10/18/8

vn 1 0 1.94289e-015
vt 3.03865e-013 7.87402
vt 3.03865e-013 0
f 9/23/9 3/24/9 11/25/9

f 3/24/9 9/23/9 7/3/9

