# Alias OBJ Model File
# Exported from SketchUp, (c) 2000-2012 Trimble Navigation Limited
# File units = meters

mtllib towerDefense_092.mtl

g Mesh1 Group1 Model

usemtl Grass
v 0 0.4 -1
vt -39.3701 15.748
vn -1 0 2.08167e-014
v 2.59888e-014 0.2 -0
vt 2.12992e-026 7.87402
v 2.59888e-014 0.4 -0
vt 2.12992e-026 15.748
f 1/1/1 2/2/1 3/3/1

v 0 0.2 -1
vt -39.3701 7.87402
f 2/2/1 1/1/1 4/4/1

vt 5.59286e-013 15.748
vn 1.42059e-014 8.23135e-015 -1
v 0.125 0.2 -1
vt -4.92126 7.87402
vt 5.59286e-013 7.87402
f 1/5/2 5/6/2 4/7/2

v 0.125 0.37 -1
vt -4.92126 14.5669
f 5/6/2 1/5/2 6/8/2

v 0.125 0.4 -1
vt -4.92126 15.748
f 6/8/2 1/5/2 7/9/2

vt 1.02392e-012 -1.28984e-017
vn -4.70954e-017 1 -8.19051e-019
vt 4.92126 39.3701
vt 7.4166e-016 39.3701
f 3/10/3 7/11/3 1/12/3

v 0.125 0.4 -0.125
vt 4.92126 4.92126
f 7/11/3 3/10/3 8/13/3

v 1 0.4 -1.73259e-014
vt 39.3701 6.82108e-013
f 8/13/3 3/10/3 9/14/3

vt 1.02318e-012 7.87402
vn 1.97199e-014 2.90022e-029 1
vt 39.3701 15.748
vt 1.02318e-012 15.748
f 2/15/4 9/16/4 3/17/4

v 1 0.2 -1.73259e-014
vt 39.3701 7.87402
f 9/16/4 2/15/4 10/18/4

usemtl Dirt
v 2.59888e-014 0 -0
vt 1.02318e-012 0
vn 2.08167e-014 0 1
f 11/19/5 10/18/5 2/15/5

v 1 0 -1.73259e-014
vt 39.3701 0
f 10/18/5 11/19/5 12/20/5

vt -1.02318e-012 0
vn 0 -1 -0
v 1 0 -1
vt -39.3701 39.3701
vt -39.3701 6.82121e-013
f 11/21/6 13/22/6 12/23/6

v 0 0 -1
vt 0 39.3701
f 13/22/6 11/21/6 14/24/6

vt 2.12992e-026 0
vt -39.3701 0
f 11/25/1 4/4/1 14/26/1

f 4/4/1 11/25/1 2/2/1

vn 0 1 -0
f 2/19/7 5/11/7 4/24/7

vt 39.3701 6.82121e-013
f 5/11/7 2/19/7 10/27/7

v 0.875 0.2 -1
vt 34.4488 39.3701
f 5/11/7 10/27/7 15/28/7

v 1 0.2 -1
vt 39.3701 39.3701
f 15/28/7 10/27/7 16/29/7

v 1 0.2 -0.125
vt 39.3701 4.92126
f 16/29/7 10/27/7 17/30/7

vt -1.37433e-013 7.87402
vn 1 0 -2.08167e-014
vt 4.92126 7.87402
f 10/31/8 13/20/8 17/32/8

vt -1.37433e-013 0
f 13/20/8 10/31/8 12/33/8

v 1 0.2 -0.875
vt 34.4488 7.87402
f 17/32/8 13/20/8 18/34/8

f 18/34/8 13/20/8 16/18/8

vn -2.08167e-014 0 -1
vt -8.19554e-013 7.87402
f 13/26/9 4/35/9 16/4/9

vt -8.19554e-013 0
f 4/35/9 13/26/9 14/36/9

f 16/4/9 4/35/9 5/6/9

vt -34.4488 7.87402
f 16/4/9 5/6/9 15/37/9

vn -1.50592e-014 1.69862e-014 -1
f 6/8/10 15/37/10 5/6/10

v 0.875 0.37 -1
vt -34.4488 14.5669
f 15/37/10 6/8/10 19/38/10

v 0.125 0.37 -0.125
vn -3.84027e-017 1 -4.91197e-018
f 20/13/11 19/28/11 6/11/11

v 0.875 0.37 -0.875
vt 34.4488 34.4488
f 19/28/11 20/13/11 21/39/11

v 1 0.37 -0.125
f 21/39/11 20/13/11 22/30/11

vn -2.27596e-014 -4.91197e-018 -1
vt -39.3701 14.5669
f 8/9/12 22/40/12 20/8/12

v 1 0.4 -0.125
f 22/40/12 8/9/12 23/1/12

usemtl Grass
f 8/13/3 9/14/3 23/30/3

vt -2.13925e-013 15.748
vn 1 0 -2.27596e-014
vt 4.92126 15.748
f 9/41/13 17/32/13 23/42/13

vt -2.13925e-013 7.87402
f 17/32/13 9/41/13 10/43/13

vt 4.92126 14.5669
f 23/42/13 17/32/13 22/44/13

usemtl Dirt
f 18/34/13 22/44/13 17/32/13

v 1 0.37 -0.875
vt 34.4488 14.5669
f 22/44/13 18/34/13 24/45/13

usemtl Grass
vn 1 8.28916e-031 -6.89619e-014
f 16/18/14 24/45/14 18/34/14

v 1 0.4 -0.875
vt 34.4488 15.748
f 24/45/14 16/18/14 25/46/14

v 1 0.4 -1
f 25/46/14 16/18/14 26/16/14

vn -5.9725e-014 8.23135e-015 -1
f 16/4/15 19/38/15 26/1/15

f 19/38/15 16/4/15 15/37/15

v 0.875 0.4 -1
vt -34.4488 15.748
f 26/1/15 19/38/15 27/47/15

usemtl Dirt
vn -1 -3.84027e-017 2.27596e-014
f 21/38/16 27/1/16 19/40/16

v 0.875 0.4 -0.875
f 27/1/16 21/38/16 28/47/16

vn 2.27596e-014 4.91197e-018 1
f 21/45/17 25/16/17 28/46/17

vt 39.3701 14.5669
f 25/16/17 21/45/17 24/48/17

vt 39.3701 34.4488
f 21/39/11 22/30/11 24/49/11

usemtl Grass
vn 1.80478e-016 1 1.80478e-016
f 26/29/18 28/39/18 25/49/18

f 28/39/18 26/29/18 27/28/18

usemtl Dirt
f 16/29/7 17/30/7 18/49/7

vn 1 3.84027e-017 -2.27596e-014
f 6/48/19 8/42/19 20/44/19

f 8/42/19 6/48/19 7/16/19

