# Alias OBJ Model File
# Exported from SketchUp, (c) 2000-2012 Trimble Navigation Limited
# File units = meters

mtllib towerDefense_050.mtl

g Mesh1 Group1 Model

usemtl Brick_Light
v 0.795026 0.4 -0.718941
vt 31.3002 28.3048
vn 2.96507e-016 1 -2.96507e-016
v 0.718941 0.4 -0.795026
vt 28.3048 31.3002
v 0.718941 0.4 -0.718941
vt 28.3048 28.3048
f 1/1/1 2/2/1 3/3/1

v 0.795026 0.4 -0.795026
vt 31.3002 31.3002
f 2/2/1 1/1/1 4/4/1

vt 28.3048 15.748
vn 1 2.47198e-015 8.9723e-014
v 0.795026 0 -0.795026
vt 31.3002 -7.73737e-014
vt 31.3002 15.748
f 1/5/2 5/6/2 4/7/2

v 0.795026 0.0923094 -0.718941
vt 28.3048 3.63423
f 6/8/2 5/6/2 1/5/2

v 0.795026 0 -0.718941
vt 28.3048 -7.73737e-014
f 5/6/2 6/8/2 7/9/2

usemtl Brick_Dark
v 0.795026 0.0923094 -0.281059
vt 11.0653 3.63423
vn 1 -3.12822e-014 -6.59458e-015
vt 28.3048 9.79141e-013
f 8/10/3 7/11/3 6/8/3

v 0.795026 4.51195e-017 -0.281059
vt 11.0653 9.80918e-013
f 7/11/3 8/10/3 9/12/3

usemtl Brick_Light
v 0.795026 0.4 -0.281059
vt 11.0653 15.748
vn 1 0 -0
vt 11.0653 1.77636e-015
f 10/13/4 9/14/4 8/10/4

v 0.795026 0.4 -0.204974
vt 8.06985 15.748
f 11/15/4 9/14/4 10/13/4

v 0.795026 4.51195e-017 -0.204974
vt 8.06985 1.77636e-015
f 9/14/4 11/15/4 12/16/4

vn 2.62599e-014 -2.03059e-015 1
v 0.718941 4.51195e-017 -0.204974
vt 28.3048 -1.46102e-014
vt 31.3002 -1.46102e-014
f 11/7/5 13/17/5 12/18/5

v 0.718941 0.0923094 -0.204974
f 13/17/5 11/7/5 14/8/5

v 0.718941 0.4 -0.204974
f 14/8/5 11/7/5 15/5/5

vt 31.3002 8.06985
vn -2.96507e-016 1 -2.96507e-016
v 0.718941 0.4 -0.281059
vt 28.3048 11.0653
vt 28.3048 8.06985
f 11/19/6 16/20/6 15/21/6

vt 31.3002 11.0653
f 16/20/6 11/19/6 10/22/6

usemtl Brick
vn -1.26783e-016 1 -1.26783e-016
f 1/1/7 16/20/7 10/22/7

f 3/3/7 16/20/7 1/1/7

f 3/3/7 15/21/7 16/20/7

v 0.281059 0.4 -0.795026
vt 11.0653 31.3002
f 17/23/7 15/21/7 3/3/7

v 0.281059 0.4 -0.281059
vt 11.0653 11.0653
f 18/24/7 15/21/7 17/23/7

v 0.281059 0.4 -0.204974
vt 11.0653 8.06985
f 15/21/7 18/24/7 19/25/7

usemtl Brick_Light
v 0.204974 0.4 -0.281059
vt 8.06985 11.0653
f 20/26/1 19/25/1 18/24/1

v 0.204974 0.4 -0.204974
vt 8.06985 8.06985
f 19/25/1 20/26/1 21/27/1

vt -11.0653 15.748
vn -1 0 -0
v 0.204974 4.51195e-017 -0.204974
vt -8.06985 1.77636e-015
vt -8.06985 15.748
f 20/28/8 22/29/8 21/30/8

v 0.204974 4.51195e-017 -0.281059
vt -11.0653 1.77636e-015
f 22/29/8 20/28/8 23/31/8

v 0.204974 0.0923094 -0.281059
vt -11.0653 3.63423
f 23/31/8 20/28/8 24/32/8

usemtl Brick
v 0.204974 0.4 -0.718941
vt -28.3048 15.748
f 25/33/8 24/32/8 20/28/8

v 0.204974 0.0923094 -0.718941
vt -28.3048 3.63423
f 24/32/8 25/33/8 26/34/8

usemtl Brick_Light
v 0.204974 0.4 -0.795026
vt -31.3002 15.748
vn -1 0 -1.13859e-013
f 27/35/9 26/34/9 25/33/9

v 0.204974 0 -0.718941
vt -28.3048 0
f 26/34/9 27/35/9 28/36/9

v 0.204974 0 -0.795026
vt -31.3002 0
f 28/36/9 27/35/9 29/37/9

vn -2.48229e-014 1.01529e-015 -1
v 0.281059 0 -0.795026
vt -11.0653 -3.17789e-014
vt -8.06985 -3.17789e-014
f 27/30/10 30/38/10 29/39/10

v 0.281059 0.0923094 -0.795026
f 30/38/10 27/30/10 31/32/10

f 31/32/10 27/30/10 17/28/10

vt 8.06985 31.3002
v 0.281059 0.4 -0.718941
vt 11.0653 28.3048
f 27/40/6 32/41/6 17/23/6

vt 8.06985 28.3048
f 32/41/6 27/40/6 25/42/6

usemtl Brick
f 20/26/7 32/41/7 25/42/7

f 32/41/7 20/26/7 18/24/7

f 32/41/7 18/24/7 17/23/7

vn -3.05e-014 2.30494e-031 -1
v 0.718941 0.0923094 -0.795026
f 17/28/11 33/34/11 31/32/11

f 33/34/11 17/28/11 2/33/11

f 2/2/7 17/23/7 3/3/7

usemtl Brick_Light
vn 3.64175e-015 -1.01529e-015 -1
f 4/35/12 33/34/12 2/33/12

vt -31.3002 3.17789e-014
f 5/43/12 33/34/12 4/35/12

v 0.718941 0 -0.795026
vt -28.3048 3.17789e-014
f 33/34/12 5/43/12 34/44/12

usemtl Brick
vt -31.3002 31.3002
vn 1.99555e-030 -1 8.22044e-017
vt -31.3002 28.3048
vt -28.3048 31.3002
f 5/45/13 7/46/13 34/47/13

vt -31.3002 8.06985
f 12/48/13 34/47/13 7/46/13

vt -28.3048 8.06985
f 13/49/13 34/47/13 12/48/13

vt -11.0653 31.3002
f 13/49/13 30/50/13 34/47/13

v 0.281059 4.51195e-017 -0.204974
vt -11.0653 8.06985
f 35/51/13 30/50/13 13/49/13

vt -8.06985 31.3002
f 35/51/13 29/52/13 30/50/13

vt -8.06985 8.06985
f 22/53/13 29/52/13 35/51/13

vt -8.06985 11.0653
f 23/54/13 29/52/13 22/53/13

vt -8.06985 28.3048
f 29/52/13 23/54/13 28/55/13

usemtl Brick_Dark
f 23/31/8 26/34/8 28/36/8

f 26/34/8 23/31/8 24/32/8

usemtl Brick_Light
v 0.281059 0.0923094 -0.204974
vn 2.11811e-014 -2.03059e-015 1
vt 8.06985 -1.46102e-014
vt 11.0653 -1.46102e-014
f 36/10/14 22/56/14 35/57/14

f 22/56/14 36/10/14 21/15/14

f 21/15/14 36/10/14 19/13/14

usemtl Brick
vn 2.47297e-014 -4.69245e-015 1
f 36/10/15 15/5/15 19/13/15

f 15/5/15 36/10/15 14/8/15

usemtl Brick_Dark
vn 2.47297e-014 0 1
f 35/14/16 14/8/16 36/10/16

vt 28.3048 1.77636e-015
f 14/8/16 35/14/16 13/58/16

vn -2.88513e-014 0 -1
vt -11.0653 0
f 31/32/17 34/36/17 30/59/17

f 34/36/17 31/32/17 33/34/17

usemtl Brick
vt -31.3002 11.0653
f 12/48/13 7/46/13 9/60/13

vn 1 9.3849e-015 -6.59458e-015
f 10/13/18 6/8/18 1/5/18

f 6/8/18 10/13/18 8/10/18

