# Alias OBJ Model File
# Exported from SketchUp, (c) 2000-2012 Trimble Navigation Limited
# File units = meters

mtllib towerDefense_043.mtl

g Mesh1 Group1 Model

usemtl Grey
v 0.810298 0.252705 -0.63506
vt 25.0024 2.64203
vn 0.975202 0.221315 5.92705e-015
v 0.801445 0.291713 -0.54506
vt 21.4591 4.21683
v 0.810298 0.252705 -0.54506
vt 21.4591 2.64203
f 1/1/1 2/2/1 3/3/1

v 0.801445 0.291713 -0.63506
vt 25.0024 4.21683
f 2/2/1 1/1/1 4/4/1

usemtl Brick
vn 0.975202 0.221315 4.52766e-015
v 0.815455 0.229978 -0.669781
vt 26.3693 1.72452
f 1/1/2 5/5/2 4/4/2

f 3/3/2 5/5/2 1/1/2

v 0.824528 0.19 -0.824528
vt 32.4617 0.110543
f 3/3/2 6/6/2 5/5/2

v 0.795026 0.32 -0.204974
vt 8.06985 5.3588
f 7/7/2 6/6/2 3/3/2

v 0.824528 0.19 -0.175472
vt 6.90834 0.110543
f 6/6/2 7/7/2 8/8/2

vt 31.3002 14.072
vn 2.15933e-014 0.221315 0.975202
v 0.175472 0.19 -0.175472
vt 6.90834 8.82374
vt 32.4617 8.82374
f 7/9/3 9/10/3 8/11/3

v 0.204974 0.32 -0.204974
vt 8.06985 14.072
f 9/10/3 7/9/3 10/12/3

v 0.204974 0.32 -0.795026
vt -8.06985 31.3002
vn 7.45363e-031 -1 7.6467e-017
vt -31.3002 8.06985
vt -8.06985 8.06985
f 11/13/4 7/14/4 10/15/4

v 0.795026 0.32 -0.795026
vt -31.3002 31.3002
f 7/14/4 11/13/4 12/16/4

vt -32.4617 0.110543
vn -2.15917e-014 0.221315 -0.975202
vt -8.06985 5.3588
vt -31.3002 5.3588
f 6/17/5 11/18/5 12/19/5

v 0.175472 0.19 -0.824528
vt -6.90834 0.110543
f 11/18/5 6/17/5 13/20/5

v 0.847245 0 -0.847245
vt -33.3561 -3.95995
vn -2.13161e-014 0.118718 -0.992928
vt -6.90834 3.57364
vt -32.4617 3.57364
f 14/21/6 13/22/6 6/23/6

v 0.152755 0 -0.847245
vt -6.01397 -3.95995
f 13/22/6 14/21/6 15/24/6

v 0.847245 0 -0.152755
vt -33.3561 6.01397
vn 6.33274e-031 -1 6.49677e-017
vt -6.01397 33.3561
vt -33.3561 33.3561
f 16/25/7 15/26/7 14/27/7

v 0.152755 0 -0.152755
vt -6.01397 6.01397
f 15/26/7 16/25/7 17/28/7

vt 32.4617 8.24756
vn 2.13151e-014 0.118718 0.992928
vt 6.01397 0.713963
vt 33.3561 0.713963
f 8/29/8 17/30/8 16/31/8

vt 6.90834 8.24756
f 17/30/8 8/29/8 9/32/8

vt -6.90834 32.4617
vn 6.77603e-031 -1 6.95155e-017
vt -32.4617 6.90834
vt -6.90834 6.90834
f 13/33/9 8/34/9 9/35/9

vt -32.4617 32.4617
f 8/34/9 13/33/9 6/36/9

vt 6.90834 3.57364
vn 0.992928 0.118718 5.32936e-015
v 0.833902 0.111601 -0.292897
vt 11.5314 0.465067
vt 32.4617 3.57364
f 8/37/10 18/38/10 6/39/10

v 0.839838 0.0619543 -0.292897
vt 11.5314 -1.50344
f 18/38/10 8/37/10 19/40/10

vt 6.01397 -3.95995
f 16/41/10 19/40/10 8/37/10

vt 33.3561 -3.95995
f 19/40/10 16/41/10 14/42/10

v 0.839838 0.0619543 -0.392897
vt 15.4684 -1.50344
f 19/40/10 14/42/10 20/43/10

v 0.833902 0.111601 -0.392897
vt 15.4684 0.465067
f 20/43/10 14/42/10 21/44/10

f 21/44/10 14/42/10 6/39/10

f 6/39/10 18/38/10 21/44/10

usemtl Grey
vn 0.992928 0.118718 5.39032e-015
f 18/38/11 20/43/11 21/44/11

f 20/43/11 18/38/11 19/40/11

usemtl Brick
vt -33.3561 0.713963
vn -0.992928 0.118718 -1.27888e-014
vt -6.90834 8.24756
vt -32.4617 8.24756
f 15/45/12 9/46/12 13/47/12

vt -6.01397 0.713963
f 9/46/12 15/45/12 17/48/12

vt -8.06985 14.072
vn -0.975202 0.221315 -1.36095e-014
vt -32.4617 8.82374
vt -6.90834 8.82374
f 10/49/13 13/50/13 9/51/13

vt -31.3002 14.072
f 13/50/13 10/49/13 11/52/13

vt -8.06985 12.5984
vn -1 -1.49381e-030 -9.78778e-015
v 0.204974 0.4 -0.795026
vt -31.3002 15.748
vt -31.3002 12.5984
f 10/53/14 22/54/14 11/55/14

v 0.204974 0.4 -0.204974
vt -8.06985 15.748
f 22/54/14 10/53/14 23/56/14

vt 8.06985 12.5984
vn 1.46817e-014 7.6467e-017 1
v 0.795026 0.4 -0.204974
vt 31.3002 15.748
vt 8.06985 15.748
f 10/57/15 24/58/15 23/59/15

vt 31.3002 12.5984
f 24/58/15 10/57/15 7/60/15

vn 1 1.21314e-030 6.11736e-015
f 12/60/16 24/59/16 7/57/16

v 0.795026 0.4 -0.795026
f 24/59/16 12/60/16 25/58/16

vn -1.46817e-014 -7.6467e-017 -1
f 12/55/17 22/56/17 25/54/17

f 22/56/17 12/55/17 11/53/17

vt 8.06985 31.3002
vn -7.45363e-031 1 -7.6467e-017
vt 31.3002 8.06985
vt 31.3002 31.3002
f 22/61/18 24/62/18 25/63/18

vt 8.06985 8.06985
f 24/62/18 22/61/18 23/64/18

vt 31.3002 5.3588
f 7/7/2 2/2/2 12/65/2

f 2/2/2 7/7/2 3/3/2

f 12/65/2 2/2/2 4/4/2

v 0.806603 0.268987 -0.669781
vt 26.3693 3.29933
f 12/65/2 4/4/2 26/66/2

f 26/66/2 4/4/2 5/5/2

usemtl Grey
v 0.815455 0.229978 -0.734502
vt 28.9174 1.72452
vn 0.975202 0.221315 5.43619e-015
f 27/67/19 26/66/19 5/5/19

v 0.806603 0.268987 -0.734502
vt 28.9174 3.29933
f 26/66/19 27/67/19 28/68/19

usemtl Brick
f 27/67/2 6/6/2 28/68/2

f 5/5/2 6/6/2 27/67/2

f 28/68/2 6/6/2 12/65/2

f 12/65/2 26/66/2 28/68/2

