# Alias OBJ Model File
# Exported from SketchUp, (c) 2000-2012 Trimble Navigation Limited
# File units = meters

mtllib towerDefense_107.mtl

g Mesh1 Group1 Model

usemtl Grass
v 1.44382e-014 0.4 -0
vt 5.68434e-013 3.08844
vn -1.97462e-016 0.980581 0.196116
v 1 0.6 -1
vt 39.3701 43.2382
v 0 0.6 -1
vt -3.96403e-014 43.2382
f 1/1/1 2/2/1 3/3/1

v 1 0.4 -0
vt 39.3701 3.08844
f 2/2/1 1/1/1 4/4/1

v 1.44382e-014 0.2 -0
vt 5.68434e-013 7.87402
vn -3.87229e-015 2.90022e-029 1
vt 39.3701 15.748
vt 5.68434e-013 15.748
f 5/5/2 4/6/2 1/7/2

v 1 0.2 -0
vt 39.3701 7.87402
f 4/6/2 5/5/2 6/8/2

usemtl Dirt
v 1.44382e-014 0 -0
vt 5.68434e-013 0
vn -2.77556e-015 0 1
f 7/9/3 6/8/3 5/5/3

v 1 0 -0
vt 39.3701 0
f 6/8/3 7/9/3 8/10/3

vt -5.68434e-013 0
vn 0 -1 -0
v 1 0 -1
vt -39.3701 39.3701
vt -39.3701 0
f 7/11/4 9/12/4 8/13/4

v 0 0 -1
vt 0 39.3701
f 9/12/4 7/11/4 10/14/4

vt -1.57772e-027 0
vn -1 0 -2.77556e-015
v 0 0.2 -1
vt -39.3701 7.87402
f 7/15/5 11/16/5 10/13/5

vt -1.57772e-027 7.87402
f 11/16/5 7/15/5 5/17/5

vn 0 1 -0
v 1 0.2 -1
vt 39.3701 39.3701
f 5/9/6 12/18/6 11/14/6

f 12/18/6 5/9/6 6/10/6

usemtl Grass
vn 1 0 -1.07179e-014
vt -4.21965e-013 15.748
vt -4.21965e-013 7.87402
f 12/8/7 4/19/7 6/20/7

vt 39.3701 23.622
f 4/19/7 12/8/7 2/21/7

vn 8.32667e-016 0 -1
vt 3.27822e-014 23.622
vt -39.3701 23.622
f 12/16/8 3/22/8 2/23/8

vt 3.27822e-014 7.87402
f 3/22/8 12/16/8 11/24/8

usemtl Dirt
vn 2.77556e-015 0 -1
vt 1.09274e-013 7.87402
f 9/13/9 11/25/9 12/16/9

vt 1.09274e-013 0
f 11/25/9 9/13/9 10/26/9

vn 1 0 2.77556e-015
f 6/25/10 9/10/10 12/8/10

f 9/10/10 6/25/10 8/26/10

usemtl Grass
vt 6.09243e-027 7.87402
vn -1 0 1.07179e-014
f 5/27/11 3/23/11 11/16/11

vt 6.09243e-027 15.748
f 3/23/11 5/27/11 1/28/11

