# Alias OBJ Model File
# Exported from SketchUp, (c) 2000-2012 Trimble Navigation Limited
# File units = meters

mtllib towerDefense_011.mtl

g Mesh1 Group1 Model

usemtl Grey
v 0.46 0.293979 -0.795026
vt -18.1102 11.574
vn -3.67186e-014 2.37625e-014 -1
v 0.54 0.173979 -0.795026
vt -21.2598 6.84957
v 0.46 0.173979 -0.795026
vt -18.1102 6.84957
f 1/1/1 2/2/1 3/3/1

v 0.54 0.293979 -0.795026
vt -21.2598 11.574
f 2/2/1 1/1/1 4/4/1

v 0.459123 0.306148 -0.795026
vt -18.0757 12.0531
f 4/4/1 1/1/1 5/5/1

usemtl Brick
vn -2.20225e-014 0 -1
v 0.204974 0.4 -0.795026
vt -8.06985 15.748
f 1/1/2 6/6/2 5/5/2

f 3/3/2 6/6/2 1/1/2

v 0.204974 0.13 -0.795026
vt -8.06985 5.11811
f 3/3/2 7/7/2 6/6/2

v 0.795026 0.13 -0.795026
vt -31.3002 5.11811
f 7/7/2 3/3/2 8/8/2

f 2/2/2 8/8/2 3/3/2

v 0.795026 0.4 -0.795026
vt -31.3002 15.748
f 8/8/2 2/2/2 9/9/2

f 9/9/2 2/2/2 4/4/2

v 0.540877 0.306148 -0.795026
vt -21.2944 12.0531
f 9/9/2 4/4/2 10/10/2

usemtl Grey
f 4/4/1 5/5/1 10/10/1

v 0.538135 0.318036 -0.795026
vt -21.1864 12.5211
f 10/10/1 5/5/1 11/11/1

v 0.461865 0.318036 -0.795026
vt -18.1837 12.5211
f 11/11/1 5/5/1 12/12/1

usemtl Brick
f 5/5/2 6/6/2 12/12/2

v 0.467984 0.328591 -0.795026
vt -18.4246 12.9367
f 12/12/2 6/6/2 13/13/2

v 0.476939 0.336879 -0.795026
vt -18.7771 13.2629
f 13/13/2 6/6/2 14/14/2

v 0.487935 0.342164 -0.795026
vt -19.21 13.471
f 14/14/2 6/6/2 15/15/2

v 0.5 0.343979 -0.795026
vt -19.685 13.5425
f 15/15/2 6/6/2 16/16/2

f 9/9/2 16/16/2 6/6/2

v 0.512065 0.342164 -0.795026
vt -20.16 13.471
f 9/9/2 17/17/2 16/16/2

v 0.523061 0.336879 -0.795026
vt -20.593 13.2629
f 9/9/2 18/18/2 17/17/2

v 0.532016 0.328591 -0.795026
vt -20.9455 12.9367
f 9/9/2 19/19/2 18/18/2

f 9/9/2 11/11/2 19/19/2

f 9/9/2 10/10/2 11/11/2

usemtl Grey
f 11/11/1 12/12/1 19/19/1

f 19/19/1 12/12/1 13/13/1

f 19/19/1 13/13/1 18/18/1

f 18/18/1 13/13/1 14/14/1

f 18/18/1 14/14/1 17/17/1

f 17/17/1 14/14/1 15/15/1

f 17/17/1 15/15/1 16/16/1

usemtl Brick
vt 8.06985 31.3002
vn -7.45363e-031 1 -7.6467e-017
v 0.795026 0.4 -0.204974
vt 31.3002 8.06985
vt 31.3002 31.3002
f 6/20/3 20/21/3 9/22/3

v 0.204974 0.4 -0.204974
vt 8.06985 8.06985
f 20/21/3 6/20/3 21/23/3

vn -1 1.03508e-030 -1.46817e-014
v 0.204974 0.13 -0.204974
f 6/9/4 22/7/4 21/6/4

f 22/7/4 6/9/4 7/8/4

usemtl Brick_Light
vn 0 1 -0
v 0.184974 0.13 -0.815026
vt 7.28245 32.0876
f 7/20/5 23/24/5 22/23/5

v 0.815026 0.13 -0.815026
vt 32.0876 32.0876
f 23/24/5 7/20/5 24/25/5

f 24/25/5 7/20/5 8/22/5

usemtl FrontColor
vn -1.49878e-030 1 -7.6467e-017
v 0.795026 0.13 -0.204974
f 7/20/6 25/21/6 8/22/6

f 25/21/6 7/20/6 22/23/6

usemtl Brick_Light
v 0.815026 0.13 -0.184974
vt 32.0876 7.28245
f 22/23/5 26/26/5 25/21/5

v 0.184974 0.13 -0.184974
vt 7.28245 7.28245
f 22/23/5 27/27/5 26/26/5

f 27/27/5 22/23/5 23/24/5

vt -32.0876 5.11811
vn -1 7.66245e-031 -1.46817e-014
v 0.184974 4.51195e-017 -0.184974
vt -7.28245 1.77636e-015
vt -7.28245 5.11811
f 23/28/7 28/29/7 27/30/7

v 0.184974 0 -0.815026
vt -32.0876 5.58014e-030
f 28/29/7 23/28/7 29/31/7

vn -1.95756e-014 0 -1
v 0.815026 0 -0.815026
vt -32.0876 0
vt -7.28245 0
f 23/30/8 30/32/8 29/33/8

f 30/32/8 23/30/8 24/28/8

vt 7.28245 5.11811
vn 1 -2.55415e-031 4.89389e-015
vt 32.0876 8.19566e-030
vt 32.0876 5.11811
f 26/34/9 30/35/9 24/36/9

v 0.815026 4.51195e-017 -0.184974
vt 7.28245 1.77636e-015
f 30/35/9 26/34/9 31/37/9

vn 1.95756e-014 0 1
vt 32.0876 1.77636e-015
f 26/36/10 28/37/10 31/38/10

f 28/37/10 26/36/10 27/34/10

usemtl FrontColor
vt -7.28245 32.0876
vn 7.45363e-031 -1 7.6467e-017
vt -32.0876 7.28245
vt -7.28245 7.28245
f 29/39/11 31/40/11 28/41/11

vt -32.0876 32.0876
f 31/40/11 29/39/11 30/42/11

usemtl Brick_Light
f 24/25/5 8/22/5 26/26/5

f 25/21/5 26/26/5 8/22/5

usemtl Brick
vt 31.3002 5.11811
vn 1 -2.05993e-031 4.89389e-015
vt 8.06985 15.748
vt 8.06985 5.11811
f 8/43/12 20/44/12 25/45/12

vt 31.3002 15.748
f 20/44/12 8/43/12 9/46/12

vn 1.95756e-014 -1.32121e-030 1
f 20/46/13 22/45/13 25/43/13

f 22/45/13 20/46/13 21/44/13

