# Alias OBJ Model File
# Exported from SketchUp, (c) 2000-2012 Trimble Navigation Limited
# File units = meters

mtllib towerDefense_002.mtl

g Mesh1 Group1 Model

usemtl Brick_Light
v 0.204974 0.15 -0.795026
vt -31.3002 5.90551
vn -1 0 2.44694e-014
v 0.204974 4.51195e-017 -0.204974
vt -8.06985 1.77636e-015
v 0.204974 0.15 -0.204974
vt -8.06985 5.90551
f 1/1/1 2/2/1 3/3/1

v 0.204974 4.51195e-017 -0.795026
vt -31.3002 1.77636e-015
f 2/2/1 1/1/1 4/4/1

v 0.795026 0.15 -0.795026
vn 1.22347e-014 2.16707e-030 -1
f 5/1/2 4/2/2 1/3/2

v 0.795026 0 -0.795026
vt -31.3002 -6.78299e-029
f 4/2/2 5/1/2 6/5/2

v 0.795026 0.15 -0.204974
vt 8.06985 5.90551
vn 1 0 -2.44694e-014
vt 31.3002 0
vt 31.3002 5.90551
f 7/6/3 6/7/3 5/8/3

v 0.795026 0 -0.204974
vt 8.06985 0
f 6/7/3 7/6/3 8/9/3

vn -2.44694e-015 -1.43884e-031 1
vt 8.06985 1.77636e-015
vt 31.3002 -1.16112e-030
f 7/8/4 2/10/4 8/11/4

f 2/10/4 7/8/4 3/6/4

usemtl Brick
v 0.830429 0.2574 -0.169571
vt 32.694 7.53439
vn 1.04935e-014 -0.313067 0.949731
vt 8.06985 3.08224
vt 31.3002 3.08224
f 9/12/5 3/13/5 7/14/5

v 0.169571 0.2574 -0.169571
vt 6.67603 7.53439
f 3/13/5 9/12/5 10/15/5

v 0.169571 0.2574 -0.830429
vt -6.67603 32.694
vn 7.45363e-031 -1 7.6467e-017
vt -32.694 6.67603
vt -6.67603 6.67603
f 11/16/6 9/17/6 10/18/6

v 0.830429 0.2574 -0.830429
vt -32.694 32.694
f 9/17/6 11/16/6 12/19/6

vt -32.694 19.8599
vn -6.41419e-015 -0.313067 -0.949731
vt -8.06985 15.4077
vt -6.67603 19.8599
f 12/20/7 1/21/7 11/22/7

vt -31.3002 15.4077
f 1/21/7 12/20/7 5/23/7

vt 32.694 19.8599
vn 0.949731 -0.313067 -7.9897e-015
vt 8.06985 15.4077
vt 31.3002 15.4077
f 12/24/8 7/25/8 5/26/8

vt 6.67603 19.8599
f 7/25/8 12/24/8 9/27/8

v 0.830429 0.403 -0.270206
vt 10.638 15.8661
vn 1 -2.0343e-029 5.63256e-015
vt 6.67603 10.1339
vt 32.694 10.1339
f 13/28/9 9/29/9 12/30/9

v 0.830429 0.4926 -0.169571
vt 6.67603 19.3937
f 9/29/9 13/28/9 14/31/9

v 0.830429 0.4926 -0.270206
vt 10.638 19.3937
f 15/32/9 14/31/9 13/28/9

vt 32.694 10.638
vn -3.22758e-029 1 -1.0043e-015
v 0.729794 0.4926 -0.169571
vt 28.732 6.67603
vt 32.694 6.67603
f 15/33/10 16/34/10 14/35/10

v 0.729794 0.4926 -0.270206
vt 28.732 10.638
f 16/34/10 15/33/10 17/36/10

vt -32.694 15.8661
vn 1.10441e-030 -1.0043e-015 -1
vt -28.732 19.3937
vt -32.694 19.3937
f 13/37/11 17/38/11 15/39/11

v 0.729794 0.403 -0.270206
vt -28.732 15.8661
f 17/38/11 13/37/11 18/40/11

vn 0 1 -0
v 0.729794 0.403 -0.445802
vt 28.732 17.5513
f 13/33/12 19/41/12 18/36/12

v 0.830429 0.403 -0.445802
vt 32.694 17.5513
f 19/41/12 13/33/12 20/42/12

vt 17.5513 15.8661
f 13/28/9 12/30/9 20/43/9

v 0.830429 0.403 -0.554198
vt 21.8188 15.8661
f 20/43/9 12/30/9 21/44/9

v 0.830429 0.403 -0.729794
vt 28.732 15.8661
f 21/44/9 12/30/9 22/45/9

v 0.830429 0.4926 -0.729794
vt 28.732 19.3937
f 22/45/9 12/30/9 23/46/9

v 0.830429 0.4926 -0.830429
vt 32.694 19.3937
f 23/46/9 12/30/9 24/47/9

vt -32.694 10.1339
vn -1.46817e-014 -7.6467e-017 -1
v 0.729794 0.403 -0.830429
f 12/48/13 25/40/13 24/39/13

v 0.554198 0.403 -0.830429
vt -21.8188 15.8661
f 25/40/13 12/48/13 26/49/13

v 0.445802 0.403 -0.830429
vt -17.5513 15.8661
f 26/49/13 12/48/13 27/50/13

v 0.270206 0.403 -0.830429
vt -10.638 15.8661
f 12/48/13 28/51/13 27/50/13

vt -6.67603 10.1339
f 11/52/13 28/51/13 12/48/13

v 0.169571 0.4926 -0.830429
vt -6.67603 19.3937
f 28/51/13 11/52/13 29/53/13

vn -1 -1.49381e-030 -9.78778e-015
v 0.169571 0.403 -0.729794
f 11/48/14 30/40/14 29/39/14

v 0.169571 0.403 -0.554198
f 11/48/14 31/49/14 30/40/14

v 0.169571 0.403 -0.445802
f 11/48/14 32/50/14 31/49/14

v 0.169571 0.403 -0.270206
f 11/48/14 33/51/14 32/50/14

f 10/52/14 33/51/14 11/48/14

v 0.169571 0.4926 -0.270206
vt -10.638 19.3937
f 10/52/14 34/54/14 33/51/14

v 0.169571 0.4926 -0.169571
f 34/54/14 10/52/14 35/53/14

vn 1.6324e-014 -2.79866e-029 1
v 0.270206 0.403 -0.169571
f 10/29/15 36/28/15 35/31/15

v 0.729794 0.403 -0.169571
f 36/28/15 10/29/15 37/45/15

f 9/30/15 37/45/15 10/29/15

f 37/45/15 9/30/15 14/47/15

f 37/45/15 14/47/15 16/46/15

vn -1 -1.61379e-029 1.60688e-014
vt -6.67603 15.8661
f 17/54/16 37/55/16 16/53/16

f 37/55/16 17/54/16 18/51/16

vn -1.0618e-029 1 -1.0043e-015
v 0.554198 0.403 -0.169571
vt 21.8188 6.67603
f 18/36/17 38/56/17 37/34/17

v 0.554198 0.403 -0.270206
vt 21.8188 10.638
f 38/56/17 18/36/17 39/57/17

vn -1.45176e-014 7.3143e-015 -1
v 0.445802 0.403 -0.270206
f 18/40/18 40/50/18 39/49/18

v 0.270206 0.403 -0.270206
f 18/40/18 41/51/18 40/50/18

v 0.729794 0.3246 -0.270206
vt -28.732 12.7795
f 42/58/18 41/51/18 18/40/18

v 0.270206 0.3246 -0.270206
vt -10.638 12.7795
f 41/51/18 42/58/18 43/59/18

v 0.729794 0.2686 -0.270206
vt -28.732 10.5748
vn -1.45595e-014 4.59644e-015 -1
f 44/60/19 43/59/19 42/58/19

v 0.270206 0.2686 -0.270206
vt -10.638 10.5748
f 43/59/19 44/60/19 45/61/19

vn -3.09457e-030 1 -2.19909e-016
v 0.270206 0.2686 -0.729794
vt 10.638 28.732
vt 10.638 10.638
f 44/36/20 46/62/20 45/63/20

v 0.729794 0.2686 -0.729794
vt 28.732 28.732
f 46/62/20 44/36/20 47/64/20

vn -1 2.40965e-029 -5.27782e-015
v 0.729794 0.3246 -0.729794
f 44/61/21 48/58/21 47/60/21

f 48/58/21 44/61/21 42/59/21

usemtl Brick_Light
v 0.270206 0.3246 -0.729794
vn 1.73613e-017 1 -2.60419e-016
f 49/62/22 42/36/22 48/64/22

f 42/36/22 49/62/22 43/63/22

usemtl Brick
vt 10.638 12.7795
vn 1 -3.1026e-014 1.00097e-014
vt 28.732 10.5748
vt 28.732 12.7795
f 43/65/23 46/66/23 49/67/23

vt 10.638 10.5748
f 46/66/23 43/65/23 45/68/23

vn 1.45595e-014 -4.59644e-015 1
f 46/68/24 48/67/24 49/65/24

f 48/67/24 46/68/24 47/66/24

v 0.729794 0.403 -0.729794
vn 1.52672e-014 -5.30056e-015 1
f 50/45/25 49/65/25 48/67/25

v 0.445802 0.403 -0.729794
f 49/65/25 50/45/25 51/43/25

v 0.554198 0.403 -0.729794
f 51/43/25 50/45/25 52/44/25

vn -2.80384e-015 1 -1.75753e-015
vt 21.8188 32.694
vt 21.8188 28.732
f 50/64/26 26/69/26 52/70/26

vt 28.732 32.694
f 26/69/26 50/64/26 25/71/26

vn -1 5.0215e-016 -1.10441e-030
v 0.729794 0.4926 -0.830429
f 50/40/27 53/39/27 25/37/27

v 0.729794 0.4926 -0.729794
f 53/39/27 50/40/27 54/38/27

vn -1.10441e-030 5.0215e-016 1
f 50/45/28 23/47/28 54/46/28

vt 32.694 15.8661
f 23/47/28 50/45/28 22/72/28

v 0.729794 0.403 -0.554198
vt 28.732 21.8188
vt 32.694 28.732
f 55/73/12 22/74/12 50/64/12

vt 32.694 21.8188
f 22/74/12 55/73/12 21/75/12

v 0.729794 0.4926 -0.554198
vn 1.10441e-030 0 -1
f 56/38/29 21/37/29 55/40/29

v 0.830429 0.4926 -0.554198
f 21/37/29 56/38/29 57/39/29

v 0.830429 0.4926 -0.445802
f 56/73/12 58/42/12 57/75/12

v 0.729794 0.4926 -0.445802
f 58/42/12 56/73/12 59/41/12

vt -21.8188 19.3937
vn -1 1.69837e-029 -5.27782e-015
vt -17.5513 19.3937
f 56/76/30 19/50/30 59/77/30

f 55/49/30 19/50/30 56/76/30

f 48/58/30 19/50/30 55/49/30

f 42/59/30 19/50/30 48/58/30

f 19/50/30 42/59/30 18/51/30

f 48/58/30 55/49/30 50/40/30

vn -1.10441e-030 0 1
f 19/45/31 58/47/31 59/46/31

f 58/47/31 19/45/31 20/72/31

vt 17.5513 19.3937
f 20/43/9 21/44/9 58/78/9

vt 21.8188 19.3937
f 57/79/9 58/78/9 21/44/9

vn 5.0215e-016 1 -5.0215e-016
f 23/74/32 53/71/32 54/64/32

vt 32.694 32.694
f 53/71/32 23/74/32 24/80/32

f 24/39/13 25/40/13 53/38/13

vn 1 -9.89591e-016 1.60688e-014
v 0.554198 0.4926 -0.729794
f 26/72/33 60/46/33 52/45/33

v 0.554198 0.4926 -0.830429
f 60/46/33 26/72/33 61/47/33

v 0.445802 0.4926 -0.830429
f 26/49/13 62/77/13 61/76/13

f 62/77/13 26/49/13 27/50/13

vn -1 9.89591e-016 -1.60688e-014
f 51/40/34 62/39/34 27/37/34

v 0.445802 0.4926 -0.729794
f 62/39/34 51/40/34 63/38/34

f 52/44/25 63/78/25 51/43/25

f 63/78/25 52/44/25 60/79/25

vn 9.89591e-016 1 -2.51075e-015
vt 17.5513 32.694
vt 17.5513 28.732
f 60/70/35 62/81/35 63/82/35

f 62/81/35 60/70/35 61/69/35

vt 10.638 32.694
vn 1.48439e-015 1 -1.25538e-015
f 28/83/36 51/82/36 27/81/36

v 0.270206 0.403 -0.729794
f 51/82/36 28/83/36 64/62/36

vn 1 1.61308e-029 1.10441e-030
v 0.270206 0.4926 -0.729794
f 28/72/37 65/46/37 64/45/37

v 0.270206 0.4926 -0.830429
f 65/46/37 28/72/37 66/47/37

f 28/51/13 29/53/13 66/54/13

vt 6.67603 32.694
vn -1.61308e-029 1 -1.0043e-015
f 29/84/38 65/62/38 66/83/38

v 0.169571 0.4926 -0.729794
vt 6.67603 28.732
f 65/62/38 29/84/38 67/85/38

f 29/39/14 30/40/14 67/38/14

vt 6.67603 15.8661
vn -1.10441e-030 1.0043e-015 1
f 30/86/39 65/32/39 67/31/39

f 65/32/39 30/86/39 64/28/39

v 0.270206 0.403 -0.554198
vt 10.638 21.8188
f 30/85/12 68/87/12 64/62/12

vt 6.67603 21.8188
f 68/87/12 30/85/12 31/88/12

v 0.169571 0.4926 -0.554198
vn -6.42752e-014 0 -1
f 69/53/40 68/51/40 31/55/40

v 0.270206 0.4926 -0.554198
f 68/51/40 69/53/40 70/54/40

v 0.270206 0.4926 -0.445802
vt 10.638 17.5513
f 69/88/12 71/89/12 70/87/12

v 0.169571 0.4926 -0.445802
vt 6.67603 17.5513
f 71/89/12 69/88/12 72/90/12

f 69/76/14 32/50/14 72/77/14

f 31/49/14 32/50/14 69/76/14

f 32/86/31 71/32/31 72/31/31

v 0.270206 0.403 -0.445802
f 71/32/31 32/86/31 73/28/31

f 32/90/12 41/63/12 73/89/12

vt 6.67603 10.638
f 41/63/12 32/90/12 33/91/12

f 34/53/11 41/51/11 33/55/11

v 0.270206 0.4926 -0.270206
f 41/51/11 34/53/11 74/54/11

vn -1.61735e-029 1 -1.0043e-015
v 0.270206 0.4926 -0.169571
vt 10.638 6.67603
f 34/91/41 75/92/41 74/63/41

vt 6.67603 6.67603
f 75/92/41 34/91/41 35/93/41

f 35/31/15 36/28/15 75/32/15

vn 1 8.10458e-030 -8.0344e-015
f 41/28/42 75/31/42 36/86/42

f 75/31/42 41/28/42 74/32/42

vn -3.29864e-016 1 -1.50645e-015
vt 17.5513 10.638
f 36/92/43 40/94/43 41/63/43

v 0.445802 0.403 -0.169571
vt 17.5513 6.67603
f 40/94/43 36/92/43 76/95/43

f 36/28/15 38/44/15 76/43/15

f 38/44/15 36/28/15 37/45/15

v 0.554198 0.4926 -0.169571
f 76/43/15 38/44/15 77/79/15

vn 1 -3.29864e-016 1.10441e-030
f 39/28/44 77/31/44 38/86/44

v 0.554198 0.4926 -0.270206
f 77/31/44 39/28/44 78/32/44

v 0.445802 0.4926 -0.270206
f 39/49/18 79/77/18 78/76/18

f 79/77/18 39/49/18 40/50/18

vn -1 3.29864e-016 -1.60688e-014
f 76/55/45 79/54/45 40/51/45

v 0.445802 0.4926 -0.169571
f 79/54/45 76/55/45 80/53/45

f 76/43/15 77/79/15 80/78/15

vn 3.29864e-016 1 -1.50645e-015
f 77/56/46 79/94/46 80/95/46

f 79/94/46 77/56/46 78/57/46

vn 1 -4.73578e-014 1.09586e-014
f 41/28/47 49/67/47 73/43/47

f 49/67/47 41/28/47 43/65/47

f 73/43/47 49/67/47 68/44/47

f 68/44/47 49/67/47 64/45/47

f 64/28/25 49/65/25 51/43/25

f 73/43/47 68/44/47 71/78/47

f 70/79/47 71/78/47 68/44/47

vt -32.694 7.53439
vn -0.949731 -0.313067 5.12448e-015
vt -8.06985 3.08224
vt -6.67603 7.53439
f 11/96/48 3/97/48 10/98/48

vt -31.3002 3.08224
f 3/97/48 11/96/48 1/99/48

vt -31.3002 31.3002
vn -1.52934e-016 -1 3.74229e-030
vt -8.06985 8.06985
vt -8.06985 31.3002
f 5/100/49 3/101/49 1/102/49

vt -31.3002 8.06985
f 3/101/49 5/100/49 7/103/49

usemtl Brick_Light
vn -7.6467e-017 -1 8.9393e-031
f 2/101/50 6/100/50 8/103/50

f 6/100/50 2/101/50 4/102/50

