# Alias OBJ Model File
# Exported from SketchUp, (c) 2000-2012 Trimble Navigation Limited
# File units = meters

mtllib towerDefense_009.mtl

g Mesh1 Group1 Model

usemtl Grey
v 0.795026 0.16457 -0.54
vt 21.2598 6.47914
vn 1 1.89768e-014 -5.68292e-014
v 0.795026 0.28457 -0.46
vt 18.1102 11.2035
v 0.795026 0.16457 -0.46
vt 18.1102 6.47914
f 1/1/1 2/2/1 3/3/1

v 0.795026 0.308628 -0.461865
vt 18.1837 12.1507
f 2/2/1 1/1/1 4/4/1

v 0.795026 0.319183 -0.467984
vt 18.4246 12.5662
f 4/4/1 1/1/1 5/5/1

v 0.795026 0.32747 -0.476939
vt 18.7771 12.8925
f 5/5/1 1/1/1 6/6/1

v 0.795026 0.332755 -0.487935
vt 19.21 13.1006
f 6/6/1 1/1/1 7/7/1

v 0.795026 0.33457 -0.5
vt 19.685 13.1721
f 7/7/1 1/1/1 8/8/1

v 0.795026 0.332755 -0.512065
vt 20.16 13.1006
f 8/8/1 1/1/1 9/9/1

v 0.795026 0.32747 -0.523061
vt 20.593 12.8925
f 9/9/1 1/1/1 10/10/1

v 0.795026 0.319183 -0.532016
vt 20.9455 12.5662
f 10/10/1 1/1/1 11/11/1

v 0.795026 0.308628 -0.538135
vt 21.1864 12.1507
f 11/11/1 1/1/1 12/12/1

v 0.795026 0.28457 -0.54
vt 21.2598 11.2035
f 12/12/1 1/1/1 13/13/1

usemtl Brick
vn 1 0 -2.15184e-014
v 0.795026 0.13 -0.795026
vt 31.3002 5.11811
f 1/1/2 14/14/2 13/13/2

f 3/3/2 14/14/2 1/1/2

v 0.795026 0.13 -0.204974
vt 8.06985 5.11811
f 3/3/2 15/15/2 14/14/2

v 0.795026 0.4 -0.204974
vt 8.06985 15.748
f 15/15/2 3/3/2 16/16/2

v 0.795026 0.296739 -0.459123
vt 18.0757 11.6826
f 16/16/2 3/3/2 17/17/2

f 2/2/2 17/17/2 3/3/2

usemtl Grey
f 4/4/1 17/17/1 2/2/1

usemtl Brick
f 4/4/2 16/16/2 17/17/2

f 5/5/2 16/16/2 4/4/2

f 6/6/2 16/16/2 5/5/2

f 7/7/2 16/16/2 6/6/2

v 0.795026 0.4 -0.795026
vt 31.3002 15.748
f 16/16/2 7/7/2 18/18/2

f 18/18/2 7/7/2 8/8/2

f 18/18/2 8/8/2 9/9/2

f 18/18/2 9/9/2 10/10/2

f 18/18/2 10/10/2 11/11/2

f 18/18/2 11/11/2 12/12/2

v 0.795026 0.296739 -0.540877
vt 21.2944 11.6826
f 18/18/2 12/12/2 19/19/2

usemtl Grey
f 12/12/1 13/13/1 19/19/1

usemtl Brick
f 13/13/2 14/14/2 19/19/2

f 18/18/2 19/19/2 14/14/2

vt -31.3002 5.11811
vn 1.27388e-014 1.03508e-030 -1
v 0.204974 0.4 -0.795026
vt -8.06985 15.748
vt -31.3002 15.748
f 14/20/3 20/21/3 18/22/3

v 0.204974 0.13 -0.795026
vt -8.06985 5.11811
f 20/21/3 14/20/3 21/23/3

usemtl FrontColor
v 0.204974 0.13 -0.204974
vt 8.06985 8.06985
vn 7.6467e-017 1 -1.64735e-030
vt 31.3002 31.3002
vt 8.06985 31.3002
f 22/24/4 14/25/4 21/26/4

vt 31.3002 8.06985
f 14/25/4 22/24/4 15/27/4

usemtl Brick
vn -2.951e-015 -2.05993e-031 1
f 16/18/5 22/15/5 15/14/5

v 0.204974 0.4 -0.204974
f 22/15/5 16/18/5 23/16/5

vn 7.6467e-017 1 -8.9393e-031
f 18/25/6 23/24/6 16/27/6

f 23/24/6 18/25/6 20/26/6

vn -1 -1.32121e-030 2.15184e-014
f 20/22/7 22/23/7 23/21/7

f 22/23/7 20/22/7 21/20/7

usemtl Brick_Light
vn -1 0 2.15184e-014
v 0.204974 4.51195e-017 -0.204974
vt -8.06985 1.77636e-015
f 21/20/8 24/28/8 22/23/8

v 0.204974 4.51195e-017 -0.795026
vt -31.3002 1.77636e-015
f 24/28/8 21/20/8 25/29/8

vn 1.27388e-014 7.66245e-031 -1
f 14/20/9 25/28/9 21/23/9

v 0.795026 0 -0.795026
vt -31.3002 -2.39836e-029
f 25/28/9 14/20/9 26/30/9

vt 31.3002 0
f 15/15/2 26/31/2 14/14/2

v 0.795026 0 -0.204974
vt 8.06985 0
f 26/31/2 15/15/2 27/32/2

vn -2.951e-015 -2.55415e-031 1
vt 8.06985 1.77636e-015
vt 31.3002 -2.06116e-030
f 15/14/10 24/33/10 27/34/10

f 24/33/10 15/14/10 22/15/10

usemtl FrontColor
vt -8.06985 8.06985
vn -7.6467e-017 -1 8.9393e-031
vt -31.3002 31.3002
vt -31.3002 8.06985
f 24/35/11 26/36/11 27/37/11

vt -8.06985 31.3002
f 26/36/11 24/35/11 25/38/11

