# Alias OBJ Model File
# Exported from SketchUp, (c) 2000-2012 Trimble Navigation Limited
# File units = meters

mtllib towerDefense_022.mtl

g Mesh1 Group1 Model

usemtl Brick
v 0.795026 0.13 -0.795026
vt 31.3002 5.11811
vn 1 -2.05993e-031 4.89389e-015
v 0.795026 0.4 -0.204974
vt 8.06985 15.748
v 0.795026 0.13 -0.204974
vt 8.06985 5.11811
f 1/1/1 2/2/1 3/3/1

v 0.795026 0.4 -0.795026
vt 31.3002 15.748
f 2/2/1 1/1/1 4/4/1

vt -31.3002 5.11811
vn -2.20225e-014 0 -1
v 0.54 0.173106 -0.795026
vt -21.2598 6.8152
vt -31.3002 15.748
f 1/5/2 5/6/2 4/7/2

v 0.46 0.173106 -0.795026
vt -18.1102 6.8152
f 5/6/2 1/5/2 6/8/2

v 0.204974 0.13 -0.795026
vt -8.06985 5.11811
f 7/9/2 6/8/2 1/5/2

v 0.204974 0.4 -0.795026
vt -8.06985 15.748
f 6/8/2 7/9/2 8/10/2

v 0.204974 0.13 -0.204974
vn -1 1.03508e-030 -1.46817e-014
f 9/9/3 8/7/3 7/5/3

v 0.204974 0.4 -0.204974
f 8/7/3 9/9/3 10/10/3

vn 1.95756e-014 -1.32121e-030 1
f 9/3/4 2/4/4 10/2/4

f 2/4/4 9/3/4 3/1/4

usemtl Brick_Light
vt -8.06985 8.06985
vn 0 -1 -0
v 0.234974 0.13 -0.234974
vt -9.25096 9.25096
vt -31.3002 8.06985
f 9/11/5 11/12/5 3/13/5

vt -8.06985 31.3002
f 11/12/5 9/11/5 7/14/5

v 0.234974 0.13 -0.765026
vt -9.25096 30.1191
f 7/14/5 12/15/5 11/12/5

vt -31.3002 31.3002
f 12/15/5 7/14/5 1/16/5

v 0.765026 0.13 -0.765026
vt -30.1191 30.1191
f 12/15/5 1/16/5 13/17/5

f 13/17/5 1/16/5 3/13/5

v 0.765026 0.13 -0.234974
vt -30.1191 9.25096
f 3/13/5 14/18/5 13/17/5

f 3/13/5 11/12/5 14/18/5

usemtl FrontColor
vt 30.1191 9.25096
vn -1.49878e-030 1 -7.6467e-017
vt 9.25096 30.1191
vt 9.25096 9.25096
f 14/19/6 12/20/6 11/21/6

vt 30.1191 30.1191
f 12/20/6 14/19/6 13/22/6

usemtl Brick_Light
vt 9.25096 5.11811
vn 1 -2.55415e-031 4.89389e-015
v 0.765026 0 -0.765026
vt 30.1191 7.69288e-030
vt 30.1191 5.11811
f 14/23/7 15/24/7 13/25/7

v 0.765026 4.51195e-017 -0.234974
vt 9.25096 1.77636e-015
f 15/24/7 14/23/7 16/26/7

vn 1.95756e-014 0 1
v 0.234974 4.51195e-017 -0.234974
vt 30.1191 1.77636e-015
f 14/25/8 17/26/8 16/27/8

f 17/26/8 14/25/8 11/23/8

vt -30.1191 5.11811
vn -1 7.66245e-031 -1.46817e-014
vt -9.25096 1.77636e-015
vt -9.25096 5.11811
f 12/28/9 17/29/9 11/30/9

v 0.234974 0 -0.765026
vt -30.1191 7.0885e-030
f 17/29/9 12/28/9 18/31/9

vn -1.95756e-014 0 -1
vt -30.1191 0
vt -9.25096 0
f 12/30/10 15/32/10 18/33/10

f 15/32/10 12/30/10 13/28/10

usemtl FrontColor
vn 7.45363e-031 -1 7.6467e-017
f 16/18/11 18/15/11 15/17/11

f 18/15/11 16/18/11 17/12/11

usemtl Brick
vt 31.3002 8.06985
vn -7.45363e-031 1 -7.6467e-017
vt 8.06985 31.3002
vt 8.06985 8.06985
f 2/34/12 8/35/12 10/36/12

vt 31.3002 31.3002
f 8/35/12 2/34/12 4/37/12

v 0.5 0.343106 -0.795026
vt -19.685 13.5081
f 4/7/2 19/38/2 8/10/2

v 0.512065 0.341291 -0.795026
vt -20.16 13.4366
f 4/7/2 20/39/2 19/38/2

v 0.523061 0.336006 -0.795026
vt -20.593 13.2286
f 4/7/2 21/40/2 20/39/2

v 0.532016 0.327719 -0.795026
vt -20.9455 12.9023
f 4/7/2 22/41/2 21/40/2

v 0.538135 0.317164 -0.795026
vt -21.1864 12.4868
f 4/7/2 23/42/2 22/41/2

v 0.540877 0.305275 -0.795026
vt -21.2944 12.0187
f 4/7/2 24/43/2 23/42/2

v 0.54 0.293106 -0.795026
vt -21.2598 11.5396
f 4/7/2 25/44/2 24/43/2

f 4/7/2 5/6/2 25/44/2

usemtl Grey
vn -3.67186e-014 2.37625e-014 -1
v 0.46 0.293106 -0.795026
vt -18.1102 11.5396
f 5/6/13 26/45/13 25/44/13

f 26/45/13 5/6/13 6/8/13

usemtl Brick
f 6/8/2 8/10/2 26/45/2

v 0.459123 0.305275 -0.795026
vt -18.0757 12.0187
f 26/45/2 8/10/2 27/46/2

v 0.461865 0.317164 -0.795026
vt -18.1837 12.4868
f 27/46/2 8/10/2 28/47/2

v 0.467984 0.327719 -0.795026
vt -18.4246 12.9023
f 28/47/2 8/10/2 29/48/2

v 0.476939 0.336006 -0.795026
vt -18.7771 13.2286
f 29/48/2 8/10/2 30/49/2

v 0.487935 0.341291 -0.795026
vt -19.21 13.4366
f 30/49/2 8/10/2 31/50/2

f 31/50/2 8/10/2 19/38/2

usemtl Grey
f 20/39/13 31/50/13 19/38/13

f 20/39/13 30/49/13 31/50/13

f 21/40/13 30/49/13 20/39/13

f 21/40/13 29/48/13 30/49/13

f 22/41/13 29/48/13 21/40/13

f 22/41/13 28/47/13 29/48/13

f 23/42/13 28/47/13 22/41/13

f 23/42/13 27/46/13 28/47/13

f 24/43/13 27/46/13 23/42/13

f 25/44/13 27/46/13 24/43/13

f 25/44/13 26/45/13 27/46/13

