# Alias OBJ Model File
# Exported from SketchUp, (c) 2000-2012 Trimble Navigation Limited
# File units = meters

mtllib towerDefense_105.mtl

g Mesh1 Group1 Model

usemtl Grass
v 0 0.6 -0.125
vt -4.92126 23.622
vn -1 -1.31818e-014 3.63764e-014
v 1.80478e-014 0.2 -0
vt 2.5847e-026 7.87402
v 1.80478e-014 0.6 -0
vt 2.5847e-026 23.622
f 1/1/1 2/2/1 3/3/1

v 1.87697e-014 0.2 -0.125
vt -4.92126 7.87402
f 2/2/1 1/1/1 4/4/1

v 2.16573e-014 0.57 -0.125
vt -4.92126 22.4409
f 4/4/1 1/1/1 5/5/1

usemtl Dirt
v 1 0.4 -0.125
vt -39.3701 15.748
vn -2.88765e-014 -1.07115e-026 -1
vt -9.9476e-013 22.4409
vt -1.42109e-013 23.622
f 6/6/2 5/7/2 1/8/2

v 1 0.37 -0.125
vt -39.3701 14.5669
f 5/7/2 6/6/2 7/9/2

usemtl Grass
vt 4.92126 15.748
vn 1 -4.11567e-015 -4.61845e-015
v 1 0.2 -0.125
vt 4.92126 7.87402
vt 4.92126 14.5669
f 6/10/3 8/11/3 7/12/3

v 1 0.4 -3.46517e-014
vt 1.18241e-012 15.748
f 9/13/3 8/11/3 6/10/3

v 1 0.2 -3.46517e-014
vt 1.18241e-012 7.87402
f 8/11/3 9/13/3 10/14/3

vt 39.3701 15.748
vn 3.13542e-014 0 1
vt 7.10543e-013 7.87402
vt 39.3701 7.87402
f 9/15/4 2/16/4 10/17/4

vt 7.10543e-013 23.622
f 2/16/4 9/15/4 3/18/4

vt 4.92126 -35.5171
vn 0.196116 0.980581 -1.68153e-014
vt -6.09231e-026 4.63266
vt -2.01142e-012 -35.5171
f 6/19/5 3/20/5 9/21/5

vt 4.92126 4.63266
f 3/20/5 6/19/5 1/22/5

usemtl Dirt
vt 39.3701 1.36424e-012
vn 0 1 -0
vt 7.38964e-013 4.92126
vt 7.10543e-013 0
f 10/23/6 4/24/6 2/25/6

v 1 0.2 -1
vt 39.3701 39.3701
f 4/24/6 10/23/6 11/26/6

v 1 0.2 -0.875
vt 39.3701 34.4488
f 11/26/6 10/23/6 12/27/6

vt 39.3701 4.92126
f 12/27/6 10/23/6 8/28/6

vt 6.61064e-013 7.87402
vn 1 0 -1.78607e-014
v 1 0 -1
vt 39.3701 0
f 10/29/7 13/30/7 8/11/7

v 1 0 -3.46517e-014
vt 6.61064e-013 0
f 13/30/7 10/29/7 14/31/7

vn 1.78607e-014 0 1
v 1.80478e-014 0 -0
f 10/17/8 15/25/8 14/30/8

f 15/25/8 10/17/8 2/16/8

vn -1 0 1.78607e-014
vt 1.26908e-026 0
vt 1.26908e-026 7.87402
f 4/4/9 15/32/9 2/33/9

v 1.6243e-015 0 -1
vt -39.3701 0
f 15/32/9 4/4/9 16/34/9

v 2.34621e-015 0.2 -0.875
vt -34.4488 7.87402
f 16/34/9 4/4/9 17/35/9

vn -1 1.95111e-015 2.40637e-014
v 9.02389e-016 0.57 -0.875
vt -34.4488 22.4409
f 4/4/10 18/36/10 17/35/10

f 18/36/10 4/4/10 5/5/10

vt 4.92126 4.40103
vn 0.196116 0.980581 -4.44317e-015
v 1 0.37 -0.875
vt 34.4488 -35.7487
vt 34.4488 4.40103
f 5/37/11 19/38/11 18/39/11

vt 4.92126 -35.7487
f 19/38/11 5/37/11 7/40/11

vn 1 -1.06163e-014 -1.87697e-014
vt 34.4488 7.87402
vt 34.4488 14.5669
f 7/12/12 12/41/12 19/42/12

f 12/41/12 7/12/12 8/11/12

f 8/11/7 13/30/7 12/41/7

f 12/41/7 13/30/7 11/17/7

vn -1.78607e-014 0 -1
v 1.6243e-015 0.2 -1
vt -7.67127e-013 7.87402
vt -39.3701 7.87402
f 13/34/13 20/43/13 11/44/13

vt -7.67127e-013 0
f 20/43/13 13/34/13 16/45/13

vt -39.3701 39.3701
vn 0 -1 -0
vt -7.10543e-013 0
vt -6.39488e-014 39.3701
f 13/46/14 15/47/14 16/48/14

vt -39.3701 1.36424e-012
f 15/47/14 13/46/14 14/49/14

f 16/34/9 17/35/9 20/44/9

vt 9.23706e-014 34.4488
vt 6.39488e-014 39.3701
f 17/50/6 11/26/6 20/51/6

f 11/26/6 17/50/6 4/24/6

usemtl Grass
v 1.6243e-015 0.6 -1
vt -1.29837e-012 23.622
vn -3.13542e-014 0 -1
vt -1.29837e-012 7.87402
f 21/52/15 11/44/15 20/53/15

v 1 0.4 -1
f 11/44/15 21/52/15 22/6/15

vt 39.3701 4.63266
vn 0.196116 0.980581 -1.74482e-014
v 1 0.4 -0.875
vt 34.4488 -35.5171
vt 39.3701 -35.5171
f 21/54/16 23/55/16 22/56/16

v 9.02389e-016 0.6 -0.875
vt 34.4488 4.63266
f 23/55/16 21/54/16 24/57/16

vt -39.3701 23.622
vn -1 -2.06721e-015 4.78733e-015
vt -34.4488 23.622
f 21/58/17 18/36/17 24/59/17

f 18/36/17 21/58/17 17/35/17

f 17/35/17 21/58/17 20/44/17

usemtl Dirt
vt 1.03029e-012 22.4409
vn 2.88765e-014 -6.12086e-027 1
vt 1.03029e-012 23.622
f 18/60/18 23/15/18 24/61/18

vt 39.3701 14.5669
f 23/15/18 18/60/18 19/62/18

usemtl Grass
vn 1 -3.30366e-014 -8.62378e-014
vt 34.4488 15.748
f 19/42/19 11/17/19 23/63/19

f 11/17/19 19/42/19 12/41/19

f 23/63/19 11/17/19 22/15/19

