# Alias OBJ Model File
# Exported from SketchUp, (c) 2000-2012 Trimble Navigation Limited
# File units = meters

mtllib towerDefense_003.mtl

g Mesh1 Group1 Model

usemtl Dirt
v 1 0 -1
vt -39.3701 39.3701
vn 0 -1 -0
v 0 0 -0
vt 0 0
v -1.73259e-014 0 -1
vt 6.82121e-013 39.3701
f 1/1/1 2/2/1 3/3/1

v 1 0 1.44382e-015
vt -39.3701 -5.68434e-014
f 2/2/1 1/1/1 4/4/1

vt 39.3701 0
vn 1 0 -0
v 1 0.2 1.44382e-015
vt -5.68434e-014 7.87402
vt -5.68434e-014 0
f 1/5/2 5/6/2 4/7/2

v 1 0.2 -1
vt 39.3701 7.87402
f 5/6/2 1/5/2 6/8/2

vt -39.3701 0
vn 0 0 -1
v -1.73259e-014 0.2 -1
vt 6.82121e-013 7.87402
vt -39.3701 7.87402
f 1/9/3 7/10/3 6/11/3

vt 6.82121e-013 0
f 7/10/3 1/9/3 3/12/3

vn -1 0 -0
f 2/2/4 7/11/4 3/9/4

v 0 0.2 -0
vt 0 7.87402
f 7/11/4 2/2/4 8/13/4

vn 0 0 1
v 0.125 0.2 1.44382e-015
vt 4.92126 7.87402
f 2/2/5 9/14/5 8/13/5

v 0.875 0.2 -1.44382e-015
vt 34.4488 7.87402
f 9/14/5 2/2/5 10/15/5

f 2/2/5 5/8/5 10/15/5

f 5/8/5 2/2/5 4/5/5

vt 39.3701 39.3701
vn 0 1 -0
vt 34.4488 5.68434e-014
vt 39.3701 -5.68434e-014
f 6/16/6 10/17/6 5/18/6

v 0.875 0.2 -1
vt 34.4488 39.3701
f 11/19/6 10/17/6 6/16/6

vt 4.92126 -5.68434e-014
f 11/19/6 9/20/6 10/17/6

v 0.125 0.2 -1
vt 4.92126 39.3701
f 12/21/6 9/20/6 11/19/6

f 12/21/6 8/2/6 9/20/6

vt -6.82121e-013 39.3701
f 8/2/6 12/21/6 7/22/6

vt -4.92126 7.87402
f 6/11/3 7/10/3 12/23/3

usemtl Grass
v -1.73259e-014 0.4 -1
vt -2.00989e-012 15.748
vn -6.83771e-014 -3.30366e-014 -1
vt -2.00989e-012 7.87402
f 13/24/7 12/23/7 7/25/7

v 0.125 0.37 -1
vt -4.92126 14.5669
f 12/23/7 13/24/7 14/26/7

v 0.125 0.4 -1
vt -4.92126 15.748
f 14/26/7 13/24/7 15/27/7

v 0 0.6 -0
vt 0 4.63266
vn -1.39455e-014 0.980581 -0.196116
vt -4.92126 -35.5171
vt -2.11742e-012 -35.5171
f 16/28/8 15/29/8 13/30/8

v 0.125 0.6 2.88765e-015
vt -4.92126 4.63266
f 15/29/8 16/28/8 17/31/8

vt 0 23.622
vn -1.30734e-014 -2.06721e-015 1
v 0.125 0.57 2.88765e-015
vt 4.92126 22.4409
vt 4.92126 23.622
f 16/32/9 18/33/9 17/34/9

f 8/13/9 18/33/9 16/32/9

f 18/33/9 8/13/9 9/14/9

usemtl Dirt
vn 6.203e-015 1.95111e-015 1
v 0.875 0.57 -4.33147e-015
vt 34.4488 22.4409
f 9/14/10 19/35/10 18/33/10

f 19/35/10 9/14/10 10/15/10

usemtl Grass
vn 1.85157e-014 -1.31818e-014 1
f 5/8/11 19/35/11 10/15/11

v 1 0.6 1.44382e-015
vt 39.3701 23.622
f 19/35/11 5/8/11 20/36/11

vn 1 0 -1.34935e-014
vt -5.88083e-013 23.622
vt -5.88083e-013 7.87402
f 6/8/12 20/37/12 5/38/12

v 1 0.4 -1
vt 39.3701 15.748
f 20/37/12 6/8/12 21/39/12

vn 1.32423e-014 -4.11567e-015 -1
v 0.875 0.37 -1
vt -34.4488 14.5669
vt -39.3701 15.748
f 6/11/13 22/40/13 21/41/13

vt -34.4488 7.87402
f 22/40/13 6/11/13 11/42/13

usemtl Dirt
f 6/11/3 12/23/3 11/42/3

vn -9.08984e-016 -1.06163e-014 -1
f 14/26/14 11/42/14 12/23/14

f 11/42/14 14/26/14 22/40/14

vt -4.92126 4.40103
vn -9.40399e-016 0.980581 -0.196116
vt -34.4488 -35.7487
vt -4.92126 -35.7487
f 18/43/15 22/44/15 14/45/15

vt -34.4488 4.40103
f 22/44/15 18/43/15 19/46/15

vt 2.08949e-013 22.4409
vn -1 -1.07115e-026 1.10157e-014
v 0.875 0.4 -1
vt -39.3701 14.5669
f 19/47/16 23/41/16 22/48/16

v 0.875 0.6 1.73259e-014
vt 1.0616e-012 23.622
f 23/41/16 19/47/16 24/49/16

usemtl Grass
vt 34.4488 23.622
f 19/35/11 20/36/11 24/50/11

vt -39.3701 -35.5171
vn -1.33126e-014 0.980581 -0.196116
vt -34.4488 4.63266
vt -39.3701 4.63266
f 21/51/17 24/52/17 20/53/17

vt -34.4488 -35.5171
f 24/52/17 21/51/17 23/54/17

vt -34.4488 15.748
f 21/41/13 22/40/13 23/55/13

usemtl Dirt
vt 39.3701 14.5669
vn 1 -6.12086e-027 -1.10157e-014
vt -1.67898e-013 23.622
vt -1.67898e-013 22.4409
f 14/56/18 17/57/18 18/58/18

f 17/57/18 14/56/18 15/39/18

usemtl Grass
vn -1 0 1.34935e-014
f 13/41/19 8/13/19 16/32/19

f 8/13/19 13/41/19 7/11/19

