# Alias OBJ Model File
# Exported from SketchUp, (c) 2000-2012 Trimble Navigation Limited
# File units = meters

mtllib towerDefense_082.mtl

g Mesh1 Group1 Model

usemtl Grass
v 0.0956709 0.4 -0.23097
vt 0.643731 15.748
vn 0.382683 -6.44596e-015 -0.92388
v 0.125 0.34 -0.216506
vt -0.643732 13.3858
vn 0.5 -6.40212e-015 -0.866025
v 0.0956709 0.34 -0.23097
vt 0.643731 13.3858
f 1/1/1 2/2/2 3/3/1

v 0.125 0.4 -0.216506
vt -0.643732 15.748
f 2/2/2 1/1/1 4/4/2

vt 3.76657 9.0933
vn 4.75813e-015 1 -4.75813e-015
v 0.25 0.4 -2.71439e-013
vt 9.84252 1.06116e-011
vt 4.92126 8.52387
f 1/5/3 5/6/3 4/7/3

v 0.0647048 0.4 -0.241481
vt 2.54743 9.50714
f 6/8/3 5/6/3 1/5/3

v 0.0326316 0.4 -0.247861
vt 1.28471 9.75832
f 7/9/3 5/6/3 6/8/3

v 1.1176e-008 0.4 -0.25
vt 4.39998e-007 9.84252
f 8/10/3 5/6/3 7/9/3

v 0 0.4 -3.52293e-013
vt -7.49312e-014 1.37949e-011
f 5/6/3 8/10/3 9/11/3

vt -9.84252 15.748
vn -1 1.50437e-008 -3.62631e-008
v 0 0.2 -3.52293e-013
vt -1.38698e-011 7.87402
vt -1.38698e-011 15.748
f 8/12/4 10/13/4 9/14/4

v 5.89847e-009 0.2 -0.25
vt -9.84252 7.87402
f 10/13/4 8/12/4 11/15/4

v 1.1176e-008 0.34 -0.25
vt -9.84252 13.3858
f 11/15/4 8/12/4 12/16/4

vn 0.0654031 -6.07603e-015 -0.997859
v 0.0326316 0.34 -0.247861
vn 0.130526 -6.2039e-015 -0.991445
f 8/1/5 13/2/6 12/3/5

f 13/2/6 8/1/5 7/4/6

v 0.0647048 0.34 -0.241481
vn 0.258819 -6.37951e-015 -0.965926
f 7/1/6 14/2/7 13/3/6

f 14/2/7 7/1/6 6/4/7

f 6/1/7 3/2/1 14/3/7

f 3/2/1 6/1/7 1/4/1

usemtl Water
v 0.0978946 0.34 -0.743584
vt 3.85412 29.2749
vn 2.5468e-015 1 -5.92214e-015
f 15/17/8 14/8/8 3/5/8

f 15/17/8 13/9/8 14/8/8

f 15/17/8 12/10/8 13/9/8

v 3.72556e-009 0.34 -0.75
vt 1.46676e-007 29.5276
f 12/10/8 15/17/8 16/18/8

usemtl Grass
v 0.0978946 0.4 -0.743584
vt 1.9312 15.748
vn -0.130526 6.2039e-015 0.991445
vt -1.93119 13.3858
vn -0.0654031 6.07603e-015 0.997859
vt 1.9312 13.3858
f 17/19/9 16/20/10 15/21/9

v 3.72556e-009 0.4 -0.75
vt -1.93119 15.748
f 16/20/10 17/19/9 18/22/10

v 1 0.4 -1
vt 39.3701 39.3701
vn -4.34326e-015 1 2.06326e-015
f 19/23/11 18/18/11 17/17/11

v 3.72506e-013 0.4 -1
vt 1.4734e-011 39.3701
f 18/18/11 19/23/11 20/24/11

v 1 0.2 -1
vt -39.3701 7.87402
vn 3.71911e-013 0 -1
vt -2.34432e-014 15.748
vt -39.3701 15.748
f 21/25/12 20/26/12 19/27/12

v 3.72506e-013 0.2 -1
vt -2.34432e-014 7.87402
f 20/26/12 21/25/12 22/28/12

usemtl Dirt
v 1 0 -1
vt -39.3701 0
f 23/29/12 22/28/12 21/25/12

v 3.72506e-013 0 -1
vt -2.34432e-014 0
f 22/28/12 23/29/12 24/30/12

v 1 0 -0
vn 0 -1 -0
vt -1.46656e-011 39.3701
vt -39.3701 39.3701
f 25/29/13 24/31/13 23/32/13

v 0 0 -3.52293e-013
vt 0 1.38698e-011
f 24/31/13 25/29/13 26/33/13

v 1 0.2 -0
vt 39.3701 7.87402
vn -3.71911e-013 0 1
vt -5.15833e-024 0
vt 39.3701 0
f 27/34/14 26/35/14 25/36/14

vt -5.15833e-024 7.87402
f 26/35/14 27/34/14 10/37/14

v 0.75 0.2 -9.24047e-014
vt 29.5276 7.87402
f 10/37/14 27/34/14 28/38/14

vn 0 1 -0
vt 29.5276 3.63798e-012
f 21/23/15 28/39/15 27/36/15

v 0.25 0.2 -2.65663e-013
vt 9.84252 1.04592e-011
f 21/23/15 29/40/15 28/39/15

vt 2.32223e-007 9.84252
f 21/23/15 11/41/15 29/40/15

v 1.86292e-009 0.2 -0.75
vt 7.33434e-008 29.5276
f 21/23/15 30/42/15 11/41/15

vt 1.46656e-011 39.3701
f 30/42/15 21/23/15 22/43/15

vn -1 0 -3.71911e-013
vt -29.5276 7.87402
f 24/29/16 30/44/16 22/25/16

f 24/29/16 11/15/16 30/44/16

vt -1.38698e-011 0
f 26/45/16 11/15/16 24/29/16

f 11/15/16 26/45/16 10/13/16

f 29/40/15 11/41/15 10/33/15

vt 9.84252 7.87402
f 10/37/14 28/38/14 29/46/14

usemtl Water
v 0.75 0.34 -1.09731e-013
vt 29.5276 13.3858
vn -3.58417e-013 3.39723e-014 1
f 31/47/17 29/46/17 28/38/17

v 0.25 0.34 -2.82989e-013
vt 9.84252 13.3858
f 29/46/17 31/47/17 32/48/17

v 0.287013 0.34 -0.69291
vt 11.2997 27.2799
vt 9.84252 1.1062e-011
vt 29.5276 4.24083e-012
f 33/49/8 32/50/8 31/51/8

v 0.247861 0.34 -0.0326315
vt 9.75832 1.28471
f 33/49/8 34/52/8 32/50/8

v 0.241481 0.34 -0.0647048
vt 9.50714 2.54743
f 33/49/8 35/53/8 34/52/8

v 0.23097 0.34 -0.0956709
vt 9.0933 3.76657
f 33/49/8 36/54/8 35/53/8

v 0.216506 0.34 -0.125
vt 8.52387 4.92126
f 33/49/8 37/55/8 36/54/8

v 0.198338 0.34 -0.15219
vt 7.8086 5.99175
f 33/49/8 38/56/8 37/55/8

v 0.194114 0.34 -0.724444
vt 7.64229 28.5214
f 39/57/8 38/56/8 33/49/8

v 0.176777 0.34 -0.176777
vt 6.95971 6.95971
f 39/57/8 40/58/8 38/56/8

v 0.15219 0.34 -0.198338
vt 5.99175 7.8086
f 39/57/8 41/59/8 40/58/8

f 39/57/8 2/7/8 41/59/8

f 15/17/8 2/7/8 39/57/8

f 15/17/8 3/5/8 2/7/8

usemtl Grass
v 0.194114 0.4 -0.724444
vn -0.258819 6.37951e-015 0.965926
f 42/19/18 15/20/9 39/21/18

f 15/20/9 42/19/18 17/22/9

f 19/23/11 17/17/11 42/57/11

v 0.287013 0.4 -0.69291
f 19/23/11 42/57/11 43/49/11

vt 1.93119 15.748
vn -0.382683 6.44596e-015 0.92388
f 39/20/18 43/60/19 42/22/18

vt 1.93119 13.3858
f 43/60/19 39/20/18 33/61/19

v 0.375 0.4 -0.649519
vn -0.5 6.40212e-015 0.866025
f 33/20/19 44/60/20 43/22/19

v 0.375 0.34 -0.649519
f 44/60/20 33/20/19 45/61/20

usemtl Water
vt 14.7638 25.5716
f 33/49/8 31/51/8 45/62/8

v 0.456571 0.34 -0.595015
vt 17.9752 23.4258
f 45/62/8 31/51/8 46/63/8

v 0.53033 0.34 -0.53033
vt 20.8791 20.8791
f 46/63/8 31/51/8 47/64/8

v 0.595015 0.34 -0.456571
vt 23.4258 17.9752
f 47/64/8 31/51/8 48/65/8

v 0.649519 0.34 -0.375
vt 25.5716 14.7638
f 48/65/8 31/51/8 49/66/8

v 0.69291 0.34 -0.287013
vt 27.2799 11.2997
f 49/66/8 31/51/8 50/67/8

v 0.724444 0.34 -0.194114
vt 28.5214 7.64229
f 50/67/8 31/51/8 51/68/8

v 0.743584 0.34 -0.0978946
vt 29.2749 3.85412
f 51/68/8 31/51/8 52/69/8

usemtl Grass
vn -0.997859 2.92868e-015 0.0654031
v 0.743584 0.4 -0.0978946
vt -1.9312 15.748
vn -0.991445 3.29801e-015 0.130526
vt -1.9312 13.3858
f 31/61/21 53/70/22 52/71/22

v 0.75 0.4 -9.818e-014
f 53/70/22 31/61/21 54/60/21

vn -3.83832e-013 1.64627e-014 1
v 1 0.4 -0
vt 39.3701 15.748
vt 29.5276 15.748
f 31/47/23 55/72/23 54/73/23

f 28/38/23 55/72/23 31/47/23

f 55/72/23 28/38/23 27/34/23

vn 1 5.18718e-031 3.73008e-013
vt 1.46853e-011 15.748
vt 1.46853e-011 7.87402
f 21/34/24 55/74/24 27/75/24

f 55/74/24 21/34/24 19/72/24

vt 29.5276 3.89784e-012
vt 39.3701 3.24923e-014
f 19/23/11 54/76/11 55/77/11

f 19/23/11 53/69/11 54/76/11

v 0.724444 0.4 -0.194114
f 19/23/11 56/68/11 53/69/11

v 0.69291 0.4 -0.287013
f 19/23/11 57/67/11 56/68/11

v 0.649519 0.4 -0.375
f 19/23/11 58/66/11 57/67/11

v 0.595015 0.4 -0.456571
f 19/23/11 59/65/11 58/66/11

v 0.53033 0.4 -0.53033
f 19/23/11 60/64/11 59/65/11

v 0.456571 0.4 -0.595015
f 19/23/11 61/63/11 60/64/11

f 19/23/11 44/62/11 61/63/11

f 19/23/11 43/49/11 44/62/11

vn -0.608761 6.24874e-015 0.793353
f 45/20/20 61/60/25 44/22/20

f 61/60/25 45/20/20 46/61/25

vn -0.707107 5.98845e-015 0.707107
f 46/20/25 60/60/26 61/22/25

f 60/60/26 46/20/25 47/61/26

vn -0.793353 5.62568e-015 0.608761
f 48/61/27 60/22/26 47/20/26

f 60/22/26 48/61/27 59/60/27

vn -0.866025 5.16667e-015 0.5
f 49/61/28 59/22/27 48/20/27

f 59/22/27 49/61/28 58/60/28

vn -0.92388 4.61924e-015 0.382683
f 50/61/29 58/22/28 49/20/28

f 58/22/28 50/61/29 57/60/29

vn -0.965926 3.99279e-015 0.258819
f 51/61/30 57/22/29 50/20/29

f 57/22/29 51/61/30 56/60/30

f 52/61/22 56/70/30 51/71/30

f 56/70/30 52/61/22 53/60/22

usemtl Dirt
vt 1.46422e-011 7.87402
vn 1 0 3.71911e-013
f 27/78/31 23/36/31 21/34/31

vt 1.46422e-011 0
f 23/36/31 27/78/31 25/79/31

usemtl Grass
vn 0.608761 -6.24874e-015 -0.793353
f 4/1/2 41/2/32 2/3/2

v 0.15219 0.4 -0.198338
f 41/2/32 4/1/2 62/4/32

f 4/7/3 5/6/3 62/59/3

v 0.176777 0.4 -0.176777
f 62/59/3 5/6/3 63/58/3

v 0.198338 0.4 -0.15219
f 63/58/3 5/6/3 64/56/3

v 0.216506 0.4 -0.125
f 64/56/3 5/6/3 65/55/3

v 0.23097 0.4 -0.0956709
f 65/55/3 5/6/3 66/54/3

v 0.241481 0.4 -0.0647048
f 66/54/3 5/6/3 67/53/3

v 0.247861 0.4 -0.0326315
f 67/53/3 5/6/3 68/52/3

vt -0.643731 13.3858
vn 0.997859 -2.92868e-015 -0.0654031
vt 0.643732 15.748
vn 0.991445 -3.29801e-015 -0.130526
vt -0.643731 15.748
f 32/80/33 68/81/34 5/82/33

vt 0.643732 13.3858
f 68/81/34 32/80/33 34/83/34

vn 0.965926 -3.99279e-015 -0.258819
f 34/80/34 67/81/35 68/82/34

f 67/81/35 34/80/34 35/83/35

vn 0.92388 -4.61924e-015 -0.382683
f 35/80/35 66/81/36 67/82/35

f 66/81/36 35/80/35 36/83/36

vn 0.866025 -5.16667e-015 -0.5
f 36/80/36 65/81/37 66/82/36

f 65/81/37 36/80/36 37/83/37

vn 0.793353 -5.62568e-015 -0.608761
f 37/80/37 64/81/38 65/82/37

f 64/81/38 37/80/37 38/83/38

vn 0.707107 -5.98845e-015 -0.707107
f 38/2/38 63/81/39 64/4/38

f 63/81/39 38/2/38 40/83/39

f 40/2/39 62/81/32 63/4/39

f 62/81/32 40/2/39 41/83/32

vt -4.61868e-024 15.748
vn -3.33003e-013 1.64627e-014 1
vt 9.84252 15.748
f 9/84/40 32/48/40 5/85/40

vt -4.61868e-024 7.87402
f 10/86/40 32/48/40 9/84/40

f 32/48/40 10/86/40 29/46/40

usemtl Water
vn -1 2.10004e-008 1.14859e-008
f 12/16/41 30/44/41 11/15/41

vt -29.5276 13.3858
f 30/44/41 12/16/41 16/87/41

usemtl Grass
vn -1 5.30953e-009 1.19217e-008
f 16/87/42 22/25/42 30/44/42

f 22/25/42 16/87/42 20/27/42

vt -29.5276 15.748
f 20/27/42 16/87/42 18/88/42

