# Alias OBJ Model File
# Exported from SketchUp, (c) 2000-2012 Trimble Navigation Limited
# File units = meters

mtllib towerDefense_048.mtl

g Mesh1 Group1 Model

usemtl Brick
v 0.204974 0.4 -0.795026
vt -31.3002 15.748
vn -1 -1.49381e-030 -9.78778e-015
v 0.204974 0.21 -0.204974
vt -8.06985 8.26772
v 0.204974 0.4 -0.204974
vt -8.06985 15.748
f 1/1/1 2/2/1 3/3/1

v 0.204974 0.21 -0.795026
vt -31.3002 8.26772
f 2/2/1 1/1/1 4/4/1

v 0.386643 0.243766 -0.795026
vt -15.2222 9.59709
vn -1.46817e-014 -7.6467e-017 -1
f 5/5/2 4/2/2 1/3/2

v 0.795026 0.21 -0.795026
f 4/2/2 5/5/2 6/4/2

v 0.467544 0.243766 -0.795026
vt -18.4073 9.59709
f 7/6/2 6/4/2 5/5/2

v 0.617991 0.262544 -0.795026
vt -24.3304 10.3364
f 8/7/2 6/4/2 7/6/2

v 0.795026 0.4 -0.795026
f 6/4/2 8/7/2 9/1/2

v 0.617991 0.342544 -0.795026
vt -24.3304 13.486
f 9/1/2 8/7/2 10/8/2

usemtl Grey
vn 3.28142e-015 -6.68019e-044 -1
v 0.507991 0.342544 -0.795026
vt -19.9997 13.486
f 8/7/3 11/9/3 10/8/3

v 0.507991 0.262544 -0.795026
vt -19.9997 10.3364
f 11/9/3 8/7/3 12/10/3

usemtl Brick
f 8/7/2 7/6/2 12/10/2

v 0.467544 0.293766 -0.795026
vt -18.4073 11.5656
f 13/11/2 12/10/2 7/6/2

f 12/10/2 13/11/2 11/9/2

f 13/11/2 1/3/2 11/9/2

v 0.386643 0.293766 -0.795026
vt -15.2222 11.5656
f 14/12/2 1/3/2 13/11/2

f 5/5/2 1/3/2 14/12/2

usemtl Grey
vn 0 0 -1
f 14/12/4 7/6/4 5/5/4

f 7/6/4 14/12/4 13/11/4

usemtl Brick
f 11/9/2 1/3/2 10/8/2

f 9/1/2 10/8/2 1/3/2

vt 8.06985 31.3002
vn -7.45363e-031 1 -7.6467e-017
v 0.795026 0.4 -0.204974
vt 31.3002 8.06985
vt 31.3002 31.3002
f 1/13/5 15/14/5 9/15/5

vt 8.06985 8.06985
f 15/14/5 1/13/5 3/16/5

vt 8.06985 8.26772
vn 1.46817e-014 7.6467e-017 1
vt 31.3002 15.748
vt 8.06985 15.748
f 2/17/6 15/18/6 3/19/6

v 0.795026 0.21 -0.204974
vt 31.3002 8.26772
f 15/18/6 2/17/6 16/20/6

usemtl Brick_Light
vn -1.63153e-030 1 -6.93121e-017
v 0.82548 0.21 -0.17452
vt 32.4992 6.87086
f 2/16/7 17/21/7 16/14/7

v 0.17452 0.21 -0.17452
vt 6.87086 6.87086
f 2/16/7 18/22/7 17/21/7

v 0.17452 0.21 -0.82548
vt 6.87086 32.4992
f 18/22/7 2/16/7 19/23/7

f 4/13/7 19/23/7 2/16/7

v 0.82548 0.21 -0.82548
vt 32.4992 32.4992
f 19/23/7 4/13/7 20/24/7

f 20/24/7 4/13/7 6/15/7

f 20/24/7 6/15/7 17/21/7

f 16/14/7 17/21/7 6/15/7

usemtl Brick
vn 1 1.21314e-030 6.11736e-015
f 6/20/8 15/19/8 16/17/8

f 15/19/8 6/20/8 9/18/8

usemtl Brick_Light
vt 6.87086 8.26772
vn 1 1.939e-030 4.43598e-015
v 0.82548 0 -0.82548
vt 32.4992 -6.30159e-029
vt 32.4992 8.26772
f 17/25/9 21/26/9 20/27/9

v 0.82548 9.02389e-017 -0.17452
vt 6.87086 3.55271e-015
f 21/26/9 17/25/9 22/28/9

vn 2.43979e-014 6.93121e-017 1
v 0.17452 9.02389e-017 -0.17452
vt 6.87086 4.02895e-015
vt 32.4992 4.02895e-015
f 17/27/10 23/29/10 22/30/10

f 23/29/10 17/27/10 18/25/10

vt -32.4992 8.26772
vn -1 -2.55393e-030 -1.33079e-014
vt -6.87086 3.55271e-015
vt -6.87086 8.26772
f 19/31/11 23/32/11 18/33/11

v 0.17452 0 -0.82548
vt -32.4992 -1.75477e-029
f 23/32/11 19/31/11 24/34/11

vn -2.27344e-014 -6.93121e-017 -1
vt -32.4992 2.25259e-015
vt -6.87086 2.25259e-015
f 19/33/12 21/35/12 24/36/12

f 21/35/12 19/33/12 20/31/12

usemtl FrontColor
vt -32.4992 6.87086
vn 3.26306e-030 -1 1.38624e-016
vt -6.87086 32.4992
vt -32.4992 32.4992
f 22/37/13 24/38/13 21/39/13

vt -6.87086 6.87086
f 24/38/13 22/37/13 23/40/13

