# Alias OBJ Model File
# Exported from SketchUp, (c) 2000-2012 Trimble Navigation Limited
# File units = meters

mtllib towerDefense_085.mtl

g Mesh1 Group1 Model

usemtl Grass
v 0 0.4 -1
vt 1.42767e-006 15.748
vn 3.62627e-008 1.50437e-008 -1
v 0.25 0.2 -1
vt -9.84252 7.87402
v 0 0.2 -1
vt 1.42767e-006 7.87402
f 1/1/1 2/2/1 3/3/1

v 0.25 0.34 -1
vt -9.84252 13.3858
f 2/2/1 1/1/1 4/4/1

v 0.25 0.4 -1
vt -9.84252 15.748
f 4/4/1 1/1/1 5/5/1

v 1.15506e-014 0.4 -0.75
vt 3.79816e-013 29.5276
vn 4.75813e-015 1 4.75813e-015
vt 9.84252 39.3701
vt -7.49312e-014 39.3701
f 6/6/2 5/7/2 1/8/2

v 0.0326315 0.4 -0.752139
vt 1.28471 29.6118
f 5/7/2 6/6/2 7/9/2

v 2.02135e-014 0.34 -0.75
vt 1.93119 13.3858
vn 0.0654031 -2.92868e-015 0.997859
vt 3.21866 15.748
vn 0.130526 -3.29801e-015 0.991445
vt 1.93119 15.748
f 8/10/3 7/11/4 6/12/3

v 0.0326315 0.34 -0.752139
vt 3.21866 13.3858
f 7/11/4 8/10/3 9/13/4

usemtl Water
v 3.17641e-014 0.34 -0.25
vt 1.17128e-012 9.84252
vn 5.92214e-015 1 2.5468e-015
vt 7.16535e-013 29.5276
f 10/14/5 9/9/5 8/15/5

v 0.0978946 0.34 -0.256416
vt 3.85412 10.0951
f 9/9/5 10/14/5 11/16/5

usemtl Grass
vt -0.643732 13.3858
vn -0.0654031 2.92868e-015 -0.997859
v 0.0978946 0.4 -0.256416
vt -4.50612 15.748
vn -0.130526 3.29801e-015 -0.991445
vt -4.50612 13.3858
f 10/17/6 12/18/7 11/19/7

v 2.31012e-014 0.4 -0.25
vt -0.643732 15.748
f 12/18/7 10/17/6 13/20/6

v 1.73259e-014 0.2 -0.25
vn -1 1.64627e-014 -1.19214e-014
f 14/2/8 13/5/8 10/4/8

v 1.73259e-014 0.2 -0
vt -8.13181e-027 7.87402
f 15/21/8 13/5/8 14/2/8

v 1.73259e-014 0.4 -0
vt -8.13181e-027 15.748
f 13/5/8 15/21/8 16/22/8

vt 6.82121e-013 7.87402
vn -1.09674e-015 5.18718e-031 1
v 1 0.4 -0
vt 39.3701 15.748
vt 6.82121e-013 15.748
f 15/23/9 17/24/9 16/25/9

v 1 0.2 -0
vt 39.3701 7.87402
f 17/24/9 15/23/9 18/26/9

usemtl Dirt
vt 39.3701 0
vn 0 1 -0
vt 6.82121e-013 9.84252
vt 6.82121e-013 0
f 18/27/10 14/28/10 15/29/10

f 14/28/10 18/27/10 2/7/10

v 0.75 0.2 -1
vt 29.5276 39.3701
f 2/7/10 18/27/10 19/30/10

v 1 0.2 -1
vt 39.3701 39.3701
f 19/30/10 18/27/10 20/31/10

usemtl Grass
vn 1 0 -0
vt 0 15.748
vt 0 7.87402
f 20/26/11 17/32/11 18/33/11

v 1 0.4 -1
f 17/32/11 20/26/11 21/24/11

vt -39.3701 7.87402
vn -1.1922e-008 5.30953e-009 -1
v 0.75 0.34 -1
vt -29.5276 13.3858
vt -39.3701 15.748
f 20/34/12 22/35/12 21/36/12

vt -29.5276 7.87402
f 22/35/12 20/34/12 19/37/12

usemtl Dirt
vn 0 0 -1
f 20/34/13 2/2/13 19/37/13

f 20/34/13 3/33/13 2/2/13

v 1 0 -1
vt -39.3701 0
f 23/38/13 3/33/13 20/34/13

v 0 0 -1
vt 0 0
f 3/33/13 23/38/13 24/39/13

vt -39.3701 39.3701
vn 0 -1 -0
v 1.73259e-014 0 -0
vt -6.82121e-013 0
vt 0 39.3701
f 23/40/14 25/41/14 24/42/14

v 1 0 -0
f 25/41/14 23/40/14 26/38/14

f 23/27/11 18/33/11 26/39/11

f 18/33/11 23/27/11 20/26/11

vn 0 0 1
f 18/26/15 25/29/15 26/27/15

f 25/29/15 18/26/15 15/23/15

vn -1 0 -0
f 14/2/16 25/39/16 15/33/16

f 25/39/16 14/2/16 24/38/16

v 5.77529e-015 0.2 -0.75
f 24/38/16 14/2/16 27/37/16

vt 2.27374e-013 29.5276
f 2/7/10 27/43/10 14/28/10

f 27/43/10 2/7/10 3/42/10

f 24/38/16 27/37/16 3/34/16

usemtl Grass
vn -1 1.64627e-014 3.89083e-014
f 27/37/17 1/36/17 3/34/17

f 8/35/17 1/36/17 27/37/17

vt -29.5276 15.748
f 1/36/17 8/35/17 6/44/17

usemtl Water
vn -1 3.39723e-014 1.34935e-014
f 14/2/18 8/35/18 27/37/18

f 8/35/18 14/2/18 10/4/18

vn -1.14863e-008 2.10004e-008 -1
vt -29.5276 7.87401
vt -9.84252 7.87401
f 4/4/19 19/45/19 2/46/19

f 19/45/19 4/4/19 22/35/19

v 0.287013 0.34 -0.30709
vt 11.2997 12.0902
f 4/7/5 28/47/5 22/30/5

v 0.247861 0.34 -0.967368
vt 9.75832 38.0854
f 29/48/5 28/47/5 4/7/5

v 0.241481 0.34 -0.935295
vt 9.50714 36.8226
f 30/49/5 28/47/5 29/48/5

v 0.23097 0.34 -0.904329
vt 9.0933 35.6035
f 31/50/5 28/47/5 30/49/5

v 0.216506 0.34 -0.875
vt 8.52387 34.4488
f 32/51/5 28/47/5 31/50/5

v 0.198338 0.34 -0.84781
vt 7.8086 33.3783
f 33/52/5 28/47/5 32/51/5

v 0.194114 0.34 -0.275556
vt 7.64229 10.8486
f 33/52/5 34/53/5 28/47/5

v 0.176777 0.34 -0.823223
vt 6.95971 32.4104
f 35/54/5 34/53/5 33/52/5

v 0.15219 0.34 -0.801662
vt 5.99175 31.5615
f 36/55/5 34/53/5 35/54/5

v 0.125 0.34 -0.783494
vt 4.92126 30.8462
f 37/56/5 34/53/5 36/55/5

f 37/56/5 11/16/5 34/53/5

v 0.0956709 0.34 -0.76903
vt 3.76657 30.2768
f 38/57/5 11/16/5 37/56/5

v 0.0647048 0.34 -0.758519
vt 2.54743 29.8629
f 39/58/5 11/16/5 38/57/5

f 9/9/5 11/16/5 39/58/5

usemtl Grass
v 0.0647048 0.4 -0.758519
vt 8.32445 15.748
vn 0.258819 -3.99279e-015 0.965926
vt 7.03699 13.3858
vt 8.32445 13.3858
f 40/59/20 9/60/4 39/61/20

vt 7.03699 15.748
f 9/60/4 40/59/20 7/62/4

f 5/7/2 7/9/2 40/58/2

v 0.0956709 0.4 -0.76903
f 5/7/2 40/58/2 41/57/2

vt 12.0114 13.3858
vt 13.2988 15.748
vn 0.382683 -4.61924e-015 0.92388
vt 12.0114 15.748
f 39/63/20 41/64/21 40/65/20

vt 13.2988 13.3858
f 41/64/21 39/63/20 38/66/21

vt 16.7692 13.3858
v 0.125 0.4 -0.783494
vt 18.0567 15.748
vn 0.5 -5.16667e-015 0.866025
vt 16.7692 15.748
f 38/67/21 42/68/22 41/69/21

vt 18.0567 13.3858
f 42/68/22 38/67/21 37/70/22

vt 21.2291 13.3858
v 0.15219 0.4 -0.801662
vt 22.5166 15.748
vn 0.608761 -5.62568e-015 0.793353
vt 21.2291 15.748
f 37/71/22 43/72/23 42/73/22

vt 22.5166 13.3858
f 43/72/23 37/71/22 36/74/23

vt 25.3148 13.3858
v 0.176777 0.4 -0.823223
vt 26.6022 15.748
vn 0.707107 -5.98845e-015 0.707107
vt 25.3148 15.748
f 36/75/23 44/76/24 43/77/23

vt 26.6022 13.3858
f 44/76/24 36/75/23 35/78/24

vt 30.2437 13.3858
vn 0.793353 -6.24874e-015 0.608761
vt 28.9563 15.748
vt 28.9563 13.3858
f 33/79/25 44/80/24 35/81/24

v 0.198338 0.4 -0.84781
vt 30.2437 15.748
f 44/80/24 33/79/25 45/82/25

vt 33.3788 13.3858
vn 0.866025 -6.40212e-015 0.5
vt 32.0913 15.748
vt 32.0913 13.3858
f 32/83/26 45/84/25 33/85/25

v 0.216506 0.4 -0.875
vt 33.3788 15.748
f 45/84/25 32/83/26 46/86/26

vt 35.9537 13.3858
vn 0.92388 -6.44596e-015 0.382683
vt 34.6662 15.748
vt 34.6662 13.3858
f 31/87/27 46/88/26 32/89/26

v 0.23097 0.4 -0.904329
vt 35.9537 15.748
f 46/88/26 31/87/27 47/90/27

vt 37.9244 13.3858
vn 0.965926 -6.37951e-015 0.258819
vt 36.637 15.748
vt 36.637 13.3858
f 30/91/28 47/92/27 31/93/27

v 0.241481 0.4 -0.935295
vt 37.9244 15.748
f 47/92/27 30/91/28 48/94/28

vt 39.2573 13.3858
vn 0.991445 -6.2039e-015 0.130526
vt 37.9699 15.748
vt 37.9699 13.3858
f 29/95/29 48/96/28 30/97/28

v 0.247861 0.4 -0.967368
vt 39.2573 15.748
f 48/96/28 29/95/29 49/98/29

vt 39.9295 13.3858
vn 0.997859 -6.07603e-015 0.0654031
vt 38.6421 15.748
vt 38.6421 13.3858
f 4/99/30 49/100/29 29/101/29

vt 39.9295 15.748
f 49/100/29 4/99/30 5/102/30

f 5/7/2 48/49/2 49/48/2

f 5/7/2 47/50/2 48/49/2

f 5/7/2 46/51/2 47/50/2

f 5/7/2 45/52/2 46/51/2

f 5/7/2 44/54/2 45/52/2

f 5/7/2 43/55/2 44/54/2

f 5/7/2 42/56/2 43/55/2

f 5/7/2 41/57/2 42/56/2

vt -5.74953 13.3858
v 0.194114 0.4 -0.275556
vt -9.61192 15.748
vn -0.258819 3.99279e-015 -0.965926
vt -9.61192 13.3858
f 11/103/7 50/104/31 34/105/31

vt -5.74953 15.748
f 50/104/31 11/103/7 12/106/7

vn -2.06326e-015 1 -4.34326e-015
vt 39.3701 -6.83978e-014
f 12/16/32 17/107/32 50/53/32

vt 9.41987e-013 9.84252
f 13/108/32 17/107/32 12/16/32

vt 7.14613e-013 -6.83978e-014
f 17/107/32 13/108/32 16/109/32

v 0.287013 0.4 -0.30709
f 50/53/32 17/107/32 51/47/32

v 0.375 0.4 -0.350481
vt 14.7638 13.7985
f 51/47/32 17/107/32 52/110/32

v 0.456571 0.4 -0.404985
vt 17.9752 15.9443
f 52/110/32 17/107/32 53/111/32

v 0.53033 0.4 -0.46967
vt 20.8791 18.4909
f 53/111/32 17/107/32 54/112/32

v 0.595015 0.4 -0.543429
vt 23.4258 21.3948
f 54/112/32 17/107/32 55/113/32

v 0.649519 0.4 -0.625
vt 25.5716 24.6063
f 55/113/32 17/107/32 56/114/32

v 0.69291 0.4 -0.712987
vt 27.2799 28.0704
f 56/114/32 17/107/32 57/115/32

v 0.724444 0.4 -0.805886
vt 28.5214 31.7278
f 57/115/32 17/107/32 58/116/32

v 0.743584 0.4 -0.902105
vt 29.2749 35.516
f 58/116/32 17/107/32 59/117/32

v 0.75 0.4 -1
f 59/117/32 17/107/32 60/30/32

f 60/30/32 17/107/32 21/31/32

f 21/36/12 22/35/12 60/44/12

v 0.743584 0.34 -0.902105
vt -37.3546 13.3858
vn -0.991445 6.2039e-015 -0.130526
vt -41.217 15.748
vn -0.997859 6.07603e-015 -0.0654031
vt -41.217 13.3858
f 61/118/33 60/119/34 22/120/34

vt -37.3546 15.748
f 60/119/34 61/118/33 59/121/33

v 0.724444 0.34 -0.805886
vt -36.6824 13.3858
vn -0.965926 6.37951e-015 -0.258819
vt -40.5448 15.748
vt -40.5448 13.3858
f 62/122/35 59/123/33 61/124/33

vt -36.6824 15.748
f 59/123/33 62/122/35 58/125/35

v 0.69291 0.34 -0.712987
vt -35.3495 13.3858
vn -0.92388 6.44596e-015 -0.382683
vt -39.2119 15.748
vt -39.2119 13.3858
f 63/126/36 58/127/35 62/128/35

vt -35.3495 15.748
f 58/127/35 63/126/36 57/129/36

v 0.649519 0.34 -0.625
vt -33.3788 13.3858
vn -0.866025 6.40212e-015 -0.5
vt -37.2411 15.748
vt -37.2411 13.3858
f 64/130/37 57/131/36 63/132/36

vt -33.3788 15.748
f 57/131/36 64/130/37 56/133/37

v 0.595015 0.34 -0.543429
vt -30.8038 13.3858
vn -0.793353 6.24874e-015 -0.608761
vt -34.6662 15.748
vt -34.6662 13.3858
f 65/134/38 56/135/37 64/136/37

vt -30.8038 15.748
f 56/135/37 65/134/38 55/137/38

v 0.53033 0.34 -0.46967
vt -27.6688 13.3858
vn -0.707107 5.98845e-015 -0.707107
vt -31.5312 15.748
vt -31.5312 13.3858
f 66/138/39 55/139/38 65/140/38

vt -27.6688 15.748
f 55/139/38 66/138/39 54/141/39

v 0.456571 0.34 -0.404985
vt -24.0273 13.3858
vn -0.608761 5.62568e-015 -0.793353
vt -27.8897 15.748
vt -27.8897 13.3858
f 67/142/40 54/143/39 66/144/39

vt -24.0273 15.748
f 54/143/39 67/142/40 53/145/40

vt -23.804 13.3858
vt -19.9416 15.748
vn -0.5 5.16667e-015 -0.866025
vt -23.804 15.748
f 67/146/40 52/147/41 53/148/40

v 0.375 0.34 -0.350481
vt -19.9416 13.3858
f 52/147/41 67/146/40 68/149/41

usemtl Water
f 22/30/5 68/110/5 67/111/5

f 22/30/5 28/47/5 68/110/5

usemtl Grass
vt -15.4817 13.3858
vn -0.382683 4.61924e-015 -0.92388
vt -19.3441 15.748
vt -19.3441 13.3858
f 28/150/42 52/151/41 68/152/41

vt -15.4817 15.748
f 52/151/41 28/150/42 51/153/42

vt -14.5863 13.3858
vt -10.7239 15.748
vt -14.5863 15.748
f 28/154/42 50/155/31 51/156/42

vt -10.7239 13.3858
f 50/155/31 28/154/42 34/157/31

usemtl Water
f 22/30/5 67/111/5 66/112/5

f 22/30/5 66/112/5 65/113/5

f 22/30/5 65/113/5 64/114/5

f 22/30/5 64/114/5 63/115/5

f 22/30/5 63/115/5 62/116/5

f 22/30/5 62/116/5 61/117/5

