# Alias OBJ Model File
# Exported from SketchUp, (c) 2000-2012 Trimble Navigation Limited
# File units = meters

mtllib towerDefense_049.mtl

g Mesh1 Group1 Model

usemtl Brick_Light
v 0.795026 0.4 -0.204974
vt 31.3002 8.06985
vn 0 1 -0
v 0.756983 0.4 -0.243017
vt 29.8025 9.56759
v 0.756983 0.4 -0.204974
vt 29.8025 8.06985
f 1/1/1 2/2/1 3/3/1

v 0.795026 0.4 -0.243017
vt 31.3002 9.56759
f 2/2/1 1/1/1 4/4/1

v 0.795026 0.1 -0.243017
vt 9.56759 3.93701
vn 1 -5.66834e-015 -4.07642e-014
vt 9.56759 15.748
vt 8.06985 15.748
f 5/5/2 4/6/2 1/7/2

v 0.795026 0.2 -0.243017
vt 9.56759 7.87402
f 4/6/2 5/5/2 6/8/2

usemtl Brick
v 0.795026 0.1 -0.281059
vt 11.0653 3.93701
vn 1 -5.4659e-015 3.4641e-015
f 7/9/3 6/8/3 5/5/3

v 0.795026 0.2 -0.281059
vt 11.0653 7.87402
f 6/8/3 7/9/3 8/10/3

v 0.795026 0 -0.718941
vt 28.3048 1.71084e-013
f 7/9/3 9/11/3 8/10/3

v 0.795026 4.51195e-017 -0.281059
vt 11.0653 1.7286e-013
f 9/11/3 7/9/3 10/12/3

usemtl Brick_Light
vt 11.0653 1.79197e-013
f 5/5/2 10/13/2 7/9/2

v 0.795026 4.51195e-017 -0.204974
vt 8.06985 1.79197e-013
f 5/5/2 11/14/2 10/13/2

f 11/14/2 5/5/2 1/7/2

v 0.756983 0.1 -0.204974
vt 29.8025 3.93701
vn 2.27542e-014 -1.31682e-015 1
vt 31.3002 -8.85019e-015
vt 31.3002 15.748
f 12/15/4 11/16/4 1/17/4

v 0.718941 4.51195e-017 -0.204974
vt 28.3048 -8.85019e-015
f 11/16/4 12/15/4 13/18/4

v 0.718941 0.1 -0.204974
vt 28.3048 3.93701
f 14/19/4 13/18/4 12/15/4

usemtl Brick
vn 2.32543e-014 -2.8103e-015 1
v 0.281059 4.51195e-017 -0.204974
vt 11.0653 -2.09023e-014
vt 28.3048 -2.09023e-014
f 14/19/5 15/20/5 13/21/5

v 0.281059 0.1 -0.204974
f 15/20/5 14/19/5 16/9/5

v 0.756983 0.2 -0.204974
vt 29.8025 7.87402
f 14/19/5 17/22/5 16/9/5

f 17/22/5 14/19/5 12/15/5

usemtl Brick_Light
f 12/15/4 1/17/4 17/22/4

v 0.718941 0.2 -0.204974
vt 28.3048 7.87402
f 17/22/4 1/17/4 18/23/4

v 0.756983 0.3 -0.204974
vt 29.8025 11.811
f 18/23/4 1/17/4 19/24/4

vt 29.8025 15.748
f 19/24/4 1/17/4 3/25/4

usemtl Brick
v 0.718941 0.3 -0.204974
vt 28.3048 11.811
f 3/25/5 20/26/5 19/24/5

v 0.281059 0.3 -0.204974
vt 11.0653 11.811
f 20/26/5 3/25/5 21/27/5

v 0.243017 0.3 -0.204974
vt 9.56759 11.811
f 21/27/5 3/25/5 22/28/5

v 0.243017 0.4 -0.204974
f 22/28/5 3/25/5 23/6/5

vn -1.15166e-016 1 -2.26139e-016
v 0.243017 0.4 -0.243017
vt 9.56759 9.56759
vt 9.56759 8.06985
f 3/3/6 24/29/6 23/30/6

v 0.243017 0.4 -0.756983
vt 9.56759 29.8025
f 24/29/6 3/3/6 25/31/6

v 0.243017 0.4 -0.795026
vt 9.56759 31.3002
f 25/31/6 3/3/6 26/32/6

f 26/32/6 3/3/6 2/2/6

v 0.756983 0.4 -0.795026
vt 29.8025 31.3002
f 26/32/6 2/2/6 27/33/6

v 0.756983 0.4 -0.756983
vt 29.8025 29.8025
f 27/33/6 2/2/6 28/34/6

f 4/4/6 28/34/6 2/2/6

v 0.795026 0.4 -0.756983
vt 31.3002 29.8025
f 28/34/6 4/4/6 29/35/6

v 0.795026 0.3 -0.281059
f 4/6/3 30/27/3 29/25/3

v 0.795026 0.3 -0.243017
f 30/27/3 4/6/3 31/28/3

usemtl Brick_Light
f 4/6/2 6/8/2 31/28/2

f 8/10/2 31/28/2 6/8/2

f 31/28/2 8/10/2 30/27/2

usemtl Brick
f 8/10/3 9/11/3 30/27/3

v 0.795026 0.3 -0.718941
f 32/26/3 30/27/3 9/11/3

f 29/25/3 30/27/3 32/26/3

v 0.795026 0.3 -0.756983
f 29/25/3 32/26/3 33/24/3

usemtl Brick_Light
vn 1 -3.85019e-015 5.06038e-014
v 0.795026 0.2 -0.756983
f 32/26/7 34/22/7 33/24/7

v 0.795026 0.2 -0.718941
f 34/22/7 32/26/7 35/23/7

usemtl Brick
v 0.795026 0.1 -0.718941
f 32/26/3 36/19/3 35/23/3

f 32/26/3 9/11/3 36/19/3

usemtl Brick_Light
v 0.795026 0 -0.795026
vt 31.3002 1.20512e-013
vt 28.3048 1.20512e-013
f 37/36/7 36/19/7 9/37/7

v 0.795026 0.1 -0.756983
f 36/19/7 37/36/7 38/15/7

f 38/15/7 37/36/7 34/22/7

f 34/22/7 37/36/7 33/24/7

f 33/24/7 37/36/7 29/25/7

v 0.795026 0.4 -0.795026
f 29/25/7 37/36/7 39/17/7

vt -31.3002 2.57343e-014
vn -2.10849e-015 -8.22177e-016 -1
v 0.756983 0.1 -0.795026
vt -29.8025 3.93701
vt -31.3002 15.748
f 37/38/8 40/39/8 39/40/8

v 0.718941 0.1 -0.795026
vt -28.3048 3.93701
f 37/38/8 41/41/8 40/39/8

v 0.718941 0 -0.795026
vt -28.3048 2.57343e-014
f 41/41/8 37/38/8 42/42/8

usemtl Brick
vt -31.3002 31.3002
vn 7.45363e-031 -1 7.6467e-017
vt -31.3002 28.3048
vt -28.3048 31.3002
f 37/43/9 9/44/9 42/45/9

vt -31.3002 11.0653
f 10/46/9 42/45/9 9/44/9

vt -31.3002 8.06985
f 11/47/9 42/45/9 10/46/9

vt -28.3048 8.06985
f 13/48/9 42/45/9 11/47/9

v 0.281059 0 -0.795026
vt -11.0653 31.3002
f 13/48/9 43/49/9 42/45/9

vt -11.0653 8.06985
f 15/50/9 43/49/9 13/48/9

v 0.204974 0 -0.795026
vt -8.06985 31.3002
f 15/50/9 44/51/9 43/49/9

v 0.204974 4.51195e-017 -0.204974
vt -8.06985 8.06985
f 45/52/9 44/51/9 15/50/9

v 0.204974 0 -0.718941
vt -8.06985 28.3048
f 45/52/9 46/53/9 44/51/9

v 0.204974 4.51195e-017 -0.281059
vt -8.06985 11.0653
f 46/53/9 45/52/9 47/54/9

usemtl Brick_Light
vt -8.06985 -4.05141e-014
vn -1 -5.24054e-015 6.18491e-014
v 0.204974 0.1 -0.243017
vt -9.56759 3.93701
vt -11.0653 -4.05141e-014
f 45/55/10 48/56/10 47/57/10

v 0.204974 0.4 -0.243017
vt -9.56759 15.748
f 45/55/10 49/58/10 48/56/10

v 0.204974 0.4 -0.204974
vt -8.06985 15.748
f 49/58/10 45/55/10 50/59/10

vt 8.06985 -7.87923e-015
vn 1.83615e-014 -1.1965e-015 1
v 0.243017 0.1 -0.204974
f 45/60/11 51/5/11 50/7/11

f 45/60/11 16/9/11 51/5/11

vt 11.0653 -7.87923e-015
f 16/9/11 45/60/11 15/61/11

usemtl Brick
f 16/9/5 17/22/5 51/5/5

v 0.281059 0.2 -0.204974
f 51/5/5 17/22/5 52/10/5

f 52/10/5 17/22/5 18/23/5

f 52/10/5 18/23/5 21/27/5

f 21/27/5 18/23/5 20/26/5

usemtl Brick_Light
f 20/26/4 18/23/4 19/24/4

v 0.243017 0.2 -0.204974
f 21/27/11 53/8/11 52/10/11

f 22/28/11 53/8/11 21/27/11

f 50/7/11 53/8/11 22/28/11

f 50/7/11 51/5/11 53/8/11

usemtl Brick
f 53/8/5 51/5/5 52/10/5

usemtl Brick_Light
f 50/7/11 22/28/11 23/6/11

vn 5.93014e-016 1 -5.93014e-016
vt 8.06985 8.06985
f 24/29/12 50/62/12 23/30/12

vt 8.06985 9.56759
f 50/62/12 24/29/12 49/63/12

usemtl Brick
v 0.204974 0.4 -0.756983
vt 8.06985 29.8025
f 24/29/6 54/64/6 49/63/6

f 54/64/6 24/29/6 25/31/6

usemtl Brick_Light
v 0.204974 0.4 -0.795026
vt 8.06985 31.3002
f 25/31/1 55/65/1 54/64/1

f 55/65/1 25/31/1 26/32/1

v 0.243017 0.3 -0.795026
vt -9.56759 11.811
vn -2.09092e-014 8.28861e-016 -1
f 56/66/13 55/59/13 26/58/13

v 0.281059 0.2 -0.795026
vt -11.0653 7.87402
f 57/67/13 55/59/13 56/66/13

v 0.243017 0.2 -0.795026
vt -9.56759 7.87402
f 58/68/13 55/59/13 57/67/13

v 0.243017 0.1 -0.795026
f 59/56/13 55/59/13 58/68/13

vt -8.06985 -2.59435e-014
f 59/56/13 44/69/13 55/59/13

vt -11.0653 -2.59435e-014
f 44/69/13 59/56/13 43/70/13

v 0.281059 0.1 -0.795026
vt -11.0653 3.93701
f 60/71/13 43/70/13 59/56/13

usemtl Brick
vn -2.83389e-014 2.70717e-016 -1
vt -28.3048 -8.4735e-015
vt -11.0653 -8.4735e-015
f 60/71/14 42/72/14 43/73/14

f 42/72/14 60/71/14 41/41/14

f 60/71/14 58/68/14 41/41/14

f 58/68/14 60/71/14 59/56/14

f 41/41/14 58/68/14 40/39/14

v 0.756983 0.2 -0.795026
vt -29.8025 7.87402
f 40/39/14 58/68/14 61/74/14

f 61/74/14 58/68/14 57/67/14

v 0.718941 0.2 -0.795026
vt -28.3048 7.87402
f 61/74/14 57/67/14 62/75/14

v 0.281059 0.3 -0.795026
vt -11.0653 11.811
f 63/76/14 62/75/14 57/67/14

v 0.718941 0.3 -0.795026
vt -28.3048 11.811
f 62/75/14 63/76/14 64/77/14

f 63/76/14 26/58/14 64/77/14

f 26/58/14 63/76/14 56/66/14

usemtl Brick_Light
f 63/76/13 57/67/13 56/66/13

usemtl Brick
v 0.756983 0.3 -0.795026
vt -29.8025 11.811
f 64/77/14 26/58/14 65/78/14

vt -29.8025 15.748
f 65/78/14 26/58/14 27/79/14

usemtl Brick_Light
f 39/40/8 65/78/8 27/79/8

f 39/40/8 61/74/8 65/78/8

f 39/40/8 40/39/8 61/74/8

f 65/78/8 61/74/8 64/77/8

f 64/77/8 61/74/8 62/75/8

vn 1.77904e-015 1 -5.93014e-016
vt 31.3002 31.3002
f 27/33/15 29/35/15 39/80/15

f 29/35/15 27/33/15 28/34/15

vt -31.3002 3.47191e-030
vn -1 4.30232e-031 -7.59057e-014
v 0.204974 0.1 -0.756983
f 44/81/16 66/39/16 55/40/16

vt -28.3048 3.47191e-030
f 46/82/16 66/39/16 44/81/16

v 0.204974 0.1 -0.718941
f 66/39/16 46/82/16 67/41/16

usemtl Brick
vt -28.3048 -1.66449e-015
vn -1 -2.0626e-016 -1.50022e-014
v 0.204974 0.2 -0.718941
f 46/83/17 68/75/17 67/41/17

v 0.204974 0.3 -0.718941
f 46/83/17 69/77/17 68/75/17

vt -11.0653 1.11865e-016
f 69/77/17 46/83/17 47/84/17

f 47/84/17 54/79/17 69/77/17

v 0.204974 0.1 -0.281059
f 70/71/17 54/79/17 47/84/17

v 0.204974 0.2 -0.281059
f 71/67/17 54/79/17 70/71/17

v 0.204974 0.3 -0.281059
f 72/76/17 54/79/17 71/67/17

v 0.204974 0.3 -0.243017
f 73/66/17 54/79/17 72/76/17

f 54/79/17 73/66/17 49/58/17

usemtl Brick_Light
f 48/56/10 49/58/10 73/66/10

v 0.204974 0.2 -0.243017
f 48/56/10 73/66/10 74/68/10

f 72/76/10 74/68/10 73/66/10

f 74/68/10 72/76/10 71/67/10

usemtl Brick
f 71/67/17 48/56/17 74/68/17

f 48/56/17 71/67/17 70/71/17

usemtl Brick_Light
f 47/57/10 48/56/10 70/71/10

usemtl Brick
v 0.204974 0.3 -0.756983
f 69/77/17 54/79/17 75/78/17

usemtl Brick_Light
f 55/40/16 75/78/16 54/79/16

v 0.204974 0.2 -0.756983
f 75/78/16 55/40/16 76/74/16

f 76/74/16 55/40/16 66/39/16

usemtl Brick
f 67/41/17 76/74/17 66/39/17

f 76/74/17 67/41/17 68/75/17

usemtl Brick_Light
f 68/75/16 75/78/16 76/74/16

f 75/78/16 68/75/16 69/77/16

usemtl Brick
f 35/23/3 38/15/3 34/22/3

f 38/15/3 35/23/3 36/19/3

