# Alias OBJ Model File
# Exported from SketchUp, (c) 2000-2012 Trimble Navigation Limited
# File units = meters

mtllib towerDefense_068.mtl

g Mesh1 Group2 Group1 Model

usemtl Stone
v 0.790624 0.65 -0.689698
vt -8.64819 10.5256
vn 0.928973 0.369253 0.0257398
v 0.882921 0.4 -0.434393
vt -18.595 -0.0653804
v 0.891507 0.4 -0.744274
vt -6.39032 -0.0653804
f 1/1/1 2/2/1 3/3/1

v 0.785215 0.65 -0.494472
vt -16.3372 10.5256
f 2/2/1 1/1/1 4/4/1

v 0.624259 0.65 -0.791995
vt 10.5216 4.51402
vn 3.97051e-017 1 5.91647e-025
vt 4.18475 16.2275
vt 3.97179 8.54146
f 5/5/2 4/6/2 1/7/2

v 0.61344 0.65 -0.401545
vt 10.9475 19.8861
f 4/6/2 5/5/2 6/8/2

v 0.452484 0.65 -0.699067
vt 17.2844 8.1726
f 6/8/2 5/5/2 7/9/2

v 0.627436 0.4 -0.906651
vt 9.14418 -1.82665
vn -0.442195 0.369253 -0.817384
vt 19.091 8.76434
vt 11.4021 8.76434
f 8/10/3 7/11/3 5/12/3

v 0.354778 0.4 -0.759146
vt 21.3489 -1.82665
f 7/11/3 8/10/3 9/13/3

usemtl Grass
v 0.610263 0.4 -0.286889
vt 11.0726 24.4001
vt 10.3965 0
vt 21.1311 5.80727
f 10/14/2 8/15/2 9/16/2

vt 0.338036 18.5928
f 2/17/2 8/15/2 10/14/2

vt -8.46366e-031 6.39277
f 8/15/2 2/17/2 3/18/2

usemtl Stone
vt 6.59835 12.6018
vn 0.486778 0.369253 -0.791644
vt -3.3485 2.01082
vt 8.85623 2.01082
f 5/19/4 3/20/4 8/21/4

vt -1.09062 12.6018
f 3/20/4 5/19/4 1/22/4

vt -11.4021 4.61194
vn 0.442195 0.369253 0.817384
vt -21.3489 -5.97905
vt -9.14418 -5.97905
f 4/23/5 10/24/5 2/25/5

vt -19.091 4.61194
f 10/24/5 4/23/5 6/26/5

vt 1.09062 0.774471
vn -0.486778 0.369253 0.791644
v 0.346191 0.4 -0.449265
vt -8.85623 -9.81652
vt 3.3485 -9.81652
f 6/27/6 11/28/6 10/29/6

v 0.447075 0.65 -0.503842
vt -6.59835 0.774471
f 11/28/6 6/27/6 12/30/6

vt 17.4973 15.8586
f 6/8/2 7/9/2 12/31/2

vt 8.64819 2.85067
vn -0.928973 0.369253 -0.0257398
vt 18.595 -7.74033
vt 16.3372 2.85067
f 7/32/7 11/33/7 12/34/7

vt 6.39032 -7.74033
f 11/33/7 7/32/7 9/35/7

usemtl Grass
vt 21.4691 18.0073
f 10/14/2 9/16/2 11/36/2

g Mesh2 Group1 Model

usemtl Dirt
v 1 0 -1
vt 39.3701 0
vn 1 0 1.4901e-008
v 1 0.2 -0
vt 5.86655e-007 7.87402
v 1 0 -0
vt 5.86655e-007 0
f 13/37/8 14/38/8 15/39/8

v 1 0.2 -1
vt 39.3701 7.87402
f 14/38/8 13/37/8 16/40/8

vt -39.3701 0
vn 1.4901e-008 0 -1
v 1.4901e-008 0.2 -1
vt 6.4465e-013 7.87402
vt -39.3701 7.87402
f 13/41/9 17/42/9 16/43/9

v 1.4901e-008 0 -1
vt 6.4465e-013 0
f 17/42/9 13/41/9 18/44/9

vn 0 -1 -0
vt -5.86654e-007 39.3701
vt -39.3701 39.3701
f 15/41/10 18/45/10 13/46/10

v 0 0 -1.4901e-008
vt 0 5.86655e-007
f 18/45/10 15/41/10 19/47/10

vn -1.4901e-008 0 1
vt -8.74176e-015 0
f 14/40/11 19/48/11 15/37/11

v 0 0.2 -1.4901e-008
vt -8.74176e-015 7.87402
f 19/48/11 14/40/11 20/49/11

vn 0 1 -0
vt 5.86654e-007 39.3701
f 14/37/12 17/50/12 20/47/12

vt 39.3701 39.3701
f 17/50/12 14/37/12 16/51/12

usemtl Grass
v 1 0.4 -0
vt 5.86655e-007 15.748
f 16/40/8 21/52/8 14/38/8

v 1 0.4 -1
vt 39.3701 15.748
f 21/52/8 16/40/8 22/53/8

vn 1.4901e-008 5.18718e-031 -1
v 1.4901e-008 0.4 -1
vt 6.87828e-013 15.748
vt -39.3701 15.748
f 16/43/13 23/54/13 22/55/13

vt 6.87828e-013 7.87402
f 23/54/13 16/43/13 17/56/13

vt -5.86655e-007 7.87402
vn -1 0 -1.4901e-008
f 20/57/14 23/55/14 17/43/14

v 0 0.4 -1.4901e-008
vt -5.86655e-007 15.748
f 23/55/14 20/57/14 24/58/14

vn -1.4901e-008 2.90022e-029 1
vt -8.74176e-015 15.748
f 20/49/15 21/53/15 24/59/15

f 21/53/15 20/49/15 14/40/15

vt 13.6296 17.6876
vn -3.97051e-017 1 1.12799e-017
vt 6.25278e-016 5.86655e-007
vt 39.3701 1.77636e-016
f 11/60/16 24/61/16 21/62/16

f 24/61/16 11/60/16 23/50/16

vt 13.9676 29.8876
f 9/63/16 23/50/16 11/60/16

vt 24.7022 35.6949
f 8/64/16 23/50/16 9/63/16

f 23/50/16 8/64/16 22/51/16

vt 35.0987 29.3021
f 22/51/16 8/64/16 3/65/16

f 22/51/16 3/65/16 21/62/16

vt 34.7607 17.1021
f 2/66/16 21/62/16 3/65/16

vt 24.0261 11.2948
f 10/67/16 21/62/16 2/66/16

f 11/60/16 21/62/16 10/67/16

usemtl Dirt
vt -5.86655e-007 0
f 17/43/14 19/68/14 20/57/14

f 19/68/14 17/43/14 18/41/14

