# Alias OBJ Model File
# Exported from SketchUp, (c) 2000-2012 Trimble Navigation Limited
# File units = meters

mtllib towerDefense_069.mtl

g Mesh1 Group1 Model

usemtl Grey
v 0.30388 0.220486 -0.795026
vt -11.9638 8.68055
vn 0 0 -1
v 0.40388 0.150486 -0.795026
vt -15.9008 5.92465
v 0.30388 0.150486 -0.795026
vt -11.9638 5.92465
f 1/1/1 2/2/1 3/3/1

v 0.40388 0.220486 -0.795026
vt -15.9008 8.68055
f 2/2/1 1/1/1 4/4/1

usemtl Brick
vn -1.46817e-014 -7.6467e-017 -1
v 0.204974 0.4 -0.795026
vt -8.06985 15.748
f 1/1/2 5/5/2 4/4/2

f 3/3/2 5/5/2 1/1/2

v 0.204974 0 -0.795026
vt -8.06985 2.39343e-015
f 3/3/2 6/6/2 5/5/2

v 0.459716 0.0864371 -0.795026
vt -18.0991 3.40304
f 7/7/2 6/6/2 3/3/2

v 0.795026 0 -0.795026
vt -31.3002 2.39343e-015
f 6/6/2 7/7/2 8/8/2

v 0.519716 0.0864371 -0.795026
vt -20.4613 3.40304
f 9/9/2 8/8/2 7/7/2

v 0.795026 0.4 -0.795026
vt -31.3002 15.748
f 8/8/2 9/9/2 10/10/2

v 0.519716 0.146437 -0.795026
vt -20.4613 5.76524
f 10/10/2 9/9/2 11/11/2

usemtl Grey
v 0.459716 0.146437 -0.795026
vt -18.0991 5.76524
f 9/9/1 12/12/1 11/11/1

f 12/12/1 9/9/1 7/7/1

usemtl Brick
f 7/7/2 3/3/2 12/12/2

f 12/12/2 3/3/2 11/11/2

f 2/2/2 11/11/2 3/3/2

v 0.557801 0.196449 -0.795026
vt -21.9607 7.73423
f 13/13/2 11/11/2 2/2/2

f 10/10/2 11/11/2 13/13/2

v 0.557801 0.296449 -0.795026
vt -21.9607 11.6712
f 10/10/2 13/13/2 14/14/2

usemtl Grey
v 0.437801 0.296449 -0.795026
vt -17.2362 11.6712
f 13/13/1 15/15/1 14/14/1

v 0.437801 0.196449 -0.795026
vt -17.2362 7.73423
f 15/15/1 13/13/1 16/16/1

usemtl Brick
f 13/13/2 2/2/2 16/16/2

f 4/4/2 16/16/2 2/2/2

f 16/16/2 4/4/2 15/15/2

f 4/4/2 5/5/2 15/15/2

f 15/15/2 5/5/2 14/14/2

f 10/10/2 14/14/2 5/5/2

vt 8.06985 31.3002
vn -7.45363e-031 1 -7.6467e-017
v 0.795026 0.4 -0.204974
vt 31.3002 8.06985
vt 31.3002 31.3002
f 5/17/3 17/18/3 10/19/3

v 0.204974 0.4 -0.204974
vt 8.06985 8.06985
f 17/18/3 5/17/3 18/20/3

vn -1 -1.49381e-030 -9.78778e-015
v 0.204974 4.51195e-017 -0.204974
vt -8.06985 1.77636e-015
f 5/10/4 19/21/4 18/5/4

vt -31.3002 -1.20548e-029
f 19/21/4 5/10/4 6/22/4

vt -8.06985 31.3002
vn 7.45363e-031 -1 7.6467e-017
v 0.795026 4.51195e-017 -0.204974
vt -31.3002 8.06985
vt -8.06985 8.06985
f 6/23/5 20/24/5 19/25/5

vt -31.3002 31.3002
f 20/24/5 6/23/5 8/26/5

vt 31.3002 -3.79715e-029
vn 1 1.21314e-030 6.11736e-015
vt 8.06985 15.748
vt 8.06985 1.77636e-015
f 8/27/6 17/28/6 20/29/6

vt 31.3002 15.748
f 17/28/6 8/27/6 10/30/6

vn 1.46817e-014 7.6467e-017 1
vt 8.06985 2.39343e-015
vt 31.3002 2.39343e-015
f 17/30/7 19/31/7 20/32/7

f 19/31/7 17/30/7 18/28/7

