# Alias OBJ Model File
# Exported from SketchUp, (c) 2000-2012 Trimble Navigation Limited
# File units = meters

mtllib towerDefense_115.mtl

g Mesh1 Group1 Model

usemtl Grass
v 1 0.4 -1
vt -39.3701 -35.5171
vn -3.0976e-016 0.980581 -0.196116
v 0 0.4 -1
vt -6.2184e-014 -35.5171
v 1.73259e-014 0.6 -0
vt -6.82121e-013 4.63266
f 1/1/1 2/2/1 3/3/1

v 1 0.2 -1
vt -39.3701 7.87402
vn 1.09674e-015 2.90022e-029 -1
vt 4.31786e-014 15.748
vt -39.3701 15.748
f 4/4/2 2/5/2 1/6/2

v 0 0.2 -1
vt 4.31786e-014 7.87402
f 2/5/2 4/4/2 5/7/2

usemtl Dirt
v 1 0 -1
vt -39.3701 0
vn 0 0 -1
vt 0 7.87402
f 6/8/3 5/9/3 4/4/3

v 0 0 -1
vt 0 0
f 5/9/3 6/8/3 7/10/3

vt -39.3701 39.3701
vn 0 -1 -0
v 1.73259e-014 0 -0
vt -6.82121e-013 0
vt 0 39.3701
f 6/11/4 8/12/4 7/13/4

v 1 0 -0
f 8/12/4 6/11/4 9/8/4

vt 39.3701 0
vn 1 0 -0
v 1 0.2 -0
f 6/14/5 10/9/5 9/10/5

vt 39.3701 7.87402
f 10/9/5 6/14/5 4/15/5

usemtl Grass
vt 39.3701 7.87401
vn 1 7.45058e-008 1.49012e-008
v 1 0.4 -3.46517e-014
vt 5.86661e-007 15.748
vt 5.86659e-007 7.87401
f 4/16/6 11/17/6 10/18/6

vt 39.3701 15.748
f 11/17/6 4/16/6 1/19/6

vt 39.3701 -35.5171
vn 0.196116 0.980581 5.84472e-009
vt 2.03288e-020 4.63266
vt 1.17332e-006 -35.5171
f 1/20/7 3/21/7 11/22/7

v 1.73259e-014 0.2 -0
vt 6.82121e-013 7.87402
vn 2.27339e-014 3.46517e-014 1
vt 6.82121e-013 23.622
f 12/23/8 11/19/8 3/24/8

f 11/19/8 12/23/8 10/15/8

usemtl Dirt
vt 6.82121e-013 0
vn 0 0 1
f 8/25/9 10/15/9 12/23/9

f 10/15/9 8/25/9 9/14/9

vt 39.3701 39.3701
vn 0 1 -0
f 4/26/10 12/25/10 10/14/10

f 12/25/10 4/26/10 5/13/10

usemtl Grass
vt 9.20418e-027 7.87402
vn -1 0 1.34935e-014
f 12/27/11 2/6/11 5/4/11

vt 9.20418e-027 23.622
f 2/6/11 12/27/11 3/28/11

usemtl Dirt
vn -1 0 -0
f 5/4/12 8/10/12 12/9/12

f 8/10/12 5/4/12 7/8/12

