# Alias OBJ Model File
# Exported from SketchUp, (c) 2000-2012 Trimble Navigation Limited
# File units = meters

mtllib towerDefense_118.mtl

g Mesh1 Group2 Group1 Model

usemtl Crystal
v 0.354812 0.336787 -0.550517
vt -8.04331 8.93701
vn 0.258819 -0.954812 0.146107
v 0.528678 0.352586 -0.755263
vt -0.956693 1.06299
v 0.528678 0.382838 -0.557564
vt -0.956693 8.93701
f 1/1/1 2/2/1 3/3/1

v 0.354812 0.306534 -0.748216
vt -8.04331 1.06299
f 2/2/1 1/1/1 4/4/1

v 0.300281 0.449231 -0.540409
vt 10 6.41667
vn -0.895342 -0.440255 0.0673684
vt 1.06299 1.59637
vt 8.93701 1.59637
f 5/5/2 4/6/2 1/7/2

v 0.300281 0.410811 -0.791487
vt -3.25665e-017 6.41667
f 4/6/2 5/5/2 6/8/2

v 0.521092 0.507716 -0.549359
vt 0 10
vn -0.258819 0.954812 -0.146107
vt 9 0
vt 9 10
f 7/9/3 6/10/3 5/11/3

v 0.521092 0.469296 -0.800436
vt 0 0
f 6/10/3 7/9/3 8/12/3

vt -10 4.63043
vn 0.998079 0.0612485 -0.00937234
vt -1.06299 -0.189876
vt -9.62965e-035 4.63043
f 7/13/4 2/14/4 8/15/4

vt -8.93701 -0.189876
f 2/14/4 7/13/4 3/16/4

vt 2.70745e-017 6.8043
vn 0.0568139 -0.0620213 0.996456
vt -8.04331 1.96178
vt -0.956693 1.96178
f 7/17/5 1/18/5 3/19/5

vt -9 6.8043
f 1/18/5 7/17/5 5/20/5

v 0.385511 0.907626 -0.638819
vt -0.99 21.0309
vn -0.0167818 0.212853 0.97694
vt -9 4.06607
vt -8.86584e-017 4.06607
f 9/21/6 5/22/6 7/23/6

v 0.213278 0.862007 -0.631838
vt -8.01 21.0309
f 5/22/6 9/21/6 10/24/6

v 0.273513 0.965314 -0.747859
vt -4.5 14.6617
vn -0.182146 0.77942 0.59944
vt -8.01 9.12004
vt -0.99 9.12004
f 11/25/7 10/26/7 9/27/7

vt 8.9 10.8324
vn -0.893228 0.444431 -0.0680075
vt 5 16.1068
v 0.213278 0.832039 -0.827678
vt 1.1 10.8324
f 10/28/8 11/29/8 12/30/8

vt 0.706129 25.5906
vn -0.717967 -0.088977 0.690367
vt -4.54078 21.6535
v 0.299395 0.869833 -0.733249
vt 0.706129 21.6535
f 11/31/9 12/32/9 13/33/9

vt 4.5 21.6993
vn -0.182146 0.564497 -0.805088
v 0.385511 0.877658 -0.834659
vt 0.99 16.1576
vt 8.01 16.1576
f 11/34/10 14/35/10 12/36/10

vt -8.9 16.8216
vn 0.548756 0.826364 -0.126451
vt -1.1 16.8216
vt -5 22.0961
f 9/37/11 14/38/11 11/39/11

vt 8.01 1.1
vt 0.99 8.9
vt 0.99 1.1
f 12/40/3 9/41/3 14/42/3

vt 4.5 5
f 9/41/3 12/40/3 13/43/3

vt 8.01 8.9
f 10/44/3 13/43/3 12/40/3

f 13/43/3 10/44/3 9/41/3

vt 5.95304 21.6535
f 9/45/9 11/31/9 13/33/9

vt 1.1 21.149
vn -0.979388 -0.199663 0.0305528
vt 10 4.19094
vt 8.9 21.149
f 12/46/12 5/47/12 10/48/12

vt -6.26699e-017 4.19094
f 5/47/12 12/46/12 6/49/12

vt 8.01 21.6793
vn -0.0167818 -0.0890325 -0.995887
vt 3.85186e-034 4.71447
vt 9 4.71447
f 12/50/13 8/51/13 6/52/13

vt 0.99 21.6793
f 8/51/13 12/50/13 14/53/13

vt -1.1 21.6744
vn 0.949169 0.311146 -0.047612
vt -10 4.71635
vt 0 4.71635
f 14/54/14 7/55/14 8/56/14

vt -8.9 21.6744
f 7/55/14 14/54/14 9/57/14

vt 0.956693 -0.23334
vn 0.0568139 -0.357164 -0.932312
vt 9 4.60918
vt -3.85186e-034 4.60918
f 2/58/15 6/59/15 8/60/15

vt 8.04331 -0.23334
f 6/59/15 2/58/15 4/61/15

g Mesh2 Group3 Group1 Model

v 0.3974 0.317042 -0.309918
vn -0.187381 -0.948817 -0.254235
v 0.574212 0.336227 -0.511833
v 0.574212 0.284463 -0.318648
f 15/1/16 16/2/16 17/3/16

v 0.3974 0.368806 -0.503104
f 16/2/16 15/1/16 18/4/16

v 0.396017 0.42831 -0.252152
vn -0.999936 -0.0109173 -0.00292529
f 19/5/17 18/6/17 15/7/17

v 0.396017 0.494051 -0.497497
f 18/6/17 19/5/17 20/8/17

v 0.620567 0.386935 -0.263238
vn 0.187381 0.948817 0.254235
f 21/9/18 20/10/18 19/11/18

v 0.620567 0.452675 -0.508584
f 20/10/18 21/9/18 22/12/18

vn 0.925556 -0.365709 -0.0979914
f 21/13/19 16/14/19 22/15/19

f 16/14/19 21/13/19 17/16/19

vn -0.0411325 -0.460783 0.886559
f 21/17/20 15/18/20 17/19/20

f 15/18/20 21/17/20 19/20/20

v 0.676441 0.806709 -0.179686
vn 0.0121498 -0.196753 0.980378
f 23/21/21 19/22/21 21/23/21

v 0.501291 0.838982 -0.171038
f 19/22/21 23/21/21 24/24/21

v 0.607604 0.943365 -0.245623
vn 0.131871 0.483864 0.865151
f 25/25/22 24/26/22 23/27/22

vn -0.608508 0.766508 0.205385
v 0.501291 0.890259 -0.362408
f 24/28/23 25/29/23 26/30/23

vn -0.730128 -0.0386072 0.682218
v 0.588866 0.848484 -0.271047
f 25/31/24 26/32/24 27/33/24

vn 0.131871 0.851614 -0.50731
v 0.676441 0.857986 -0.371055
f 25/34/25 28/35/25 26/36/25

vn 0.857901 0.496307 0.132985
f 23/37/26 28/38/26 25/39/26

f 26/40/18 23/41/18 28/42/18

f 23/41/18 26/40/18 27/43/18

f 24/44/18 27/43/18 26/40/18

f 27/43/18 24/44/18 23/41/18

f 23/45/24 25/31/24 27/33/24

vn -0.969673 0.236079 0.0632572
f 26/46/27 19/47/27 24/48/27

f 19/47/27 26/46/27 20/49/27

vn 0.0121498 0.319796 -0.947409
f 26/50/28 22/51/28 20/52/28

f 22/51/28 26/50/28 28/53/28

vn 0.991551 -0.125296 -0.0335731
f 28/54/29 21/55/29 22/56/29

f 21/55/29 28/54/29 23/57/29

vn -0.0411325 0.0442296 -0.998174
f 16/58/30 20/59/30 22/60/30

f 20/59/30 16/58/30 18/61/30

g Mesh3 Group4 Group1 Model

usemtl Dirt
v 1 0.2 -3.46517e-014
vt 0 7.87402
vn 3.38202e-014 0 1
v 3.95247e-014 0 5.41434e-016
vt -39.3701 0
v 1 0 -3.46517e-014
f 29/62/31 30/63/31 31/12/31

v 3.95247e-014 0.2 5.41434e-016
vt -39.3701 7.87402
f 30/63/31 29/62/31 32/64/31

v 1 0.2 -1
vt 2.27374e-013 0
vn 0 1 -0
vt 39.3701 39.3701
vt 0 39.3701
f 33/65/32 32/66/32 29/67/32

v 0 0.2 -1
vt 39.3701 5.68434e-014
f 32/66/32 33/65/32 34/68/32

usemtl Grass
v 0 0.4 -1
vt 39.3701 15.748
vn -3.27234e-014 5.18718e-031 -1
vt 2.27374e-013 7.87402
vt 39.3701 7.87402
f 35/69/33 33/70/33 34/71/33

v 1 0.4 -1
vt 2.27374e-013 15.748
f 33/70/33 35/69/33 36/72/33

v 3.95247e-014 0.4 5.41434e-016
vn -3.97051e-017 1 1.12799e-017
vt 2.26748e-013 -1.77636e-016
vt 39.3701 5.66658e-014
f 37/66/34 36/73/34 35/74/34

v 1 0.4 -3.46517e-014
vt -6.25278e-016 39.3701
f 36/73/34 37/66/34 38/75/34

vn 3.27234e-014 2.90022e-029 1
vt 4.31786e-014 15.748
vt -39.3701 15.748
f 32/64/35 38/76/35 37/77/35

vt 4.31786e-014 7.87402
f 38/76/35 32/64/35 29/78/35

vn 1 0 -3.38202e-014
f 33/62/36 38/77/36 29/64/36

vt 0 15.748
f 38/77/36 33/62/36 36/79/36

usemtl Dirt
v 1 0 -1
f 29/64/36 39/12/36 33/62/36

f 39/12/36 29/64/36 31/63/36

vt -39.3701 39.3701
vn 0 -1 0
vt -2.27374e-013 0
f 30/80/37 39/81/37 31/67/37

v 0 0 -1
vt -39.3701 5.68434e-014
f 39/81/37 30/80/37 40/82/37

vt 39.3701 0
vn -1 0 3.38202e-014
vt 5.68434e-014 7.87402
vt 5.68434e-014 0
f 30/83/38 34/84/38 40/85/38

f 34/84/38 30/83/38 32/71/38

usemtl Grass
vt 5.68434e-014 15.748
f 32/71/38 35/86/38 34/84/38

f 35/86/38 32/71/38 37/69/38

usemtl Dirt
vn -3.38202e-014 0 -1
f 34/71/39 39/65/39 40/83/39

f 39/65/39 34/71/39 33/70/39

