# Alias OBJ Model File
# Exported from SketchUp, (c) 2000-2012 Trimble Navigation Limited
# File units = meters

mtllib towerDefense_053.mtl

g Mesh1 Group1 Model

usemtl FrontColor
v 0.5 0.99 -0.5
vt -5.09814e-013 38.9764
vn 0.707107 -3.37348e-017 -0.707107
v 0.5 0.47 -0.5
vt -5.09814e-013 18.5039
v 0.203293 0.47 -0.796707
vt 16.52 18.5039
f 1/1/1 2/2/1 3/3/1

vt -5.41789e-013 38.9764
vn 0.707107 0 -0.707107
v 0.796707 0.47 -0.203293
vt -16.52 18.5039
vt -5.41789e-013 18.5039
f 1/4/2 4/5/2 2/6/2

usemtl Grass
vt 19.685 43.6089
vn 2.00899e-014 0.49559 0.868556
v 0.203293 0.47 -0.203293
vt 8.00365 20.0382
vt 31.3664 20.0382
f 1/7/3 5/8/3 4/9/3

vt -31.3664 20.0382
vn -0.868556 0.49559 -1.2033e-014
vt -8.00365 20.0382
vt -19.685 43.6089
f 3/10/4 5/11/4 1/12/4

usemtl Brick
vt 31.3664 8.00365
vn -7.02809e-030 1 -3.04134e-016
vt 8.00365 31.3664
vt 8.00365 8.00365
f 4/13/5 3/14/5 5/15/5

vt 19.685 19.685
f 3/14/5 4/13/5 2/16/5

v 0.796707 0.47 -0.796707
vt 31.3664 31.3664
vn -7.41853e-030 1 -3.04134e-016
f 6/17/6 2/16/6 4/13/6

f 2/16/6 6/17/6 3/14/6

usemtl Grass
v 0.833379 0.3 -0.833379
vt -32.8102 4.62691
vn -2.35064e-014 0.210866 -0.977515
vt -8.00365 11.4738
vt -31.3664 11.4738
f 7/18/7 3/19/7 6/20/7

v 0.166621 0.3 -0.833379
vt -6.55988 4.62691
f 3/19/7 7/18/7 8/21/7

usemtl Brick
vt 6.55988 32.8102
vn -6.59614e-031 1 -6.76699e-017
v 0.833379 0.3 -0.166621
vt 32.8102 6.55988
vt 32.8102 32.8102
f 8/22/8 9/23/8 7/24/8

v 0.166621 0.3 -0.166621
vt 6.55988 6.55988
f 9/23/8 8/22/8 10/25/8

usemtl Brick_Light
vt -32.8102 11.811
vn -1 -1.57546e-030 -1.3534e-014
v 0.166621 0.23 -0.166621
vt -6.55988 9.05512
vt -6.55988 11.811
f 8/26/9 11/27/9 10/28/9

v 0.166621 0.23 -0.833379
vt -32.8102 9.05512
f 11/27/9 8/26/9 12/29/9

vn -2.38198e-014 -6.76699e-017 -1
v 0.833379 0.23 -0.833379
f 8/28/10 13/29/10 12/27/10

f 13/29/10 8/28/10 7/26/10

vt 6.55988 11.811
vn 1 1.03511e-030 5.54893e-015
vt 32.8102 9.05512
vt 32.8102 11.811
f 9/30/11 13/31/11 7/32/11

v 0.833379 0.23 -0.166621
vt 6.55988 9.05512
f 13/31/11 9/30/11 14/33/11

vn 2.27371e-014 6.76699e-017 1
f 9/32/12 11/33/12 14/31/12

f 11/33/12 9/32/12 10/30/12

usemtl Grass
vt 31.3664 19.7756
vn 2.23898e-014 0.210866 0.977515
vt 6.55988 12.9287
vt 32.8102 12.9287
f 4/34/13 10/35/13 9/36/13

vt 8.00365 19.7756
f 10/35/13 4/34/13 5/37/13

vt -8.00365 19.7756
vn -0.977515 0.210866 -1.33585e-014
vt -32.8102 12.9287
vt -6.55988 12.9287
f 5/38/14 8/39/14 10/40/14

vt -31.3664 19.7756
f 8/39/14 5/38/14 3/41/14

vt 32.8102 4.62691
vn 0.977515 0.210866 5.36574e-015
vt 8.00365 11.4738
vt 6.55988 4.62691
f 7/42/15 4/43/15 9/44/15

vt 31.3664 11.4738
f 4/43/15 7/42/15 6/45/15

vt 31.3664 0.526807
vn 0.868556 0.49559 4.67592e-015
vt 19.685 24.0975
vt 8.00365 0.526807
f 6/46/16 1/47/16 4/48/16

vt -19.685 24.0975
vn -2.11493e-014 0.49559 -0.868556
vt -31.3664 0.526807
vt -8.00365 0.526807
f 1/49/17 6/50/17 3/51/17

usemtl Brick
v 0.204974 0.15 -0.204974
vt 8.06985 1.83654
vn 2.07036e-014 -0.432304 0.901728
vt 32.8102 5.3294
vt 6.55988 5.3294
f 15/52/18 14/53/18 11/54/18

v 0.795026 0.15 -0.204974
vt 31.3002 1.83654
f 14/53/18 15/52/18 16/55/18

vt 31.3002 8.06985
vn -7.45363e-031 1 -7.6467e-017
v 0.204974 0.15 -0.795026
vt 8.06985 31.3002
vt 8.06985 8.06985
f 16/56/19 17/57/19 15/58/19

v 0.795026 0.15 -0.795026
vt 31.3002 31.3002
f 17/57/19 16/56/19 18/59/19

vt 32.8102 22.3492
vn 0.901728 -0.432304 5.12525e-015
vt 8.06985 18.8564
vt 31.3002 18.8564
f 13/60/20 16/61/20 18/62/20

vt 6.55988 22.3492
f 16/61/20 13/60/20 14/63/20

vt 8.06985 5.90551
vn 1 1.21314e-030 6.11736e-015
v 0.795026 0 -0.795026
vt 31.3002 -3.79715e-029
vt 31.3002 5.90551
f 16/64/21 19/65/21 18/66/21

v 0.795026 4.51195e-017 -0.204974
vt 8.06985 1.77636e-015
f 19/65/21 16/64/21 20/67/21

vn 1.46817e-014 7.6467e-017 1
v 0.204974 4.51195e-017 -0.204974
vt 8.06985 2.39343e-015
vt 31.3002 2.39343e-015
f 16/66/22 21/68/22 20/69/22

f 21/68/22 16/66/22 15/64/22

vt -31.3002 5.90551
vn -1 -1.49381e-030 -9.78778e-015
vt -8.06985 1.77636e-015
vt -8.06985 5.90551
f 17/70/23 21/71/23 15/72/23

v 0.204974 0 -0.795026
vt -31.3002 -1.20548e-029
f 21/71/23 17/70/23 22/73/23

vn -1.46817e-014 -7.6467e-017 -1
vt -31.3002 2.39343e-015
vt -8.06985 2.39343e-015
f 17/72/24 19/74/24 22/75/24

f 19/74/24 17/72/24 18/70/24

vt -6.55988 22.3492
vn -2.12852e-014 -0.432304 -0.901728
vt -31.3002 18.8564
vt -8.06985 18.8564
f 12/76/25 18/77/25 17/78/25

vt -32.8102 22.3492
f 18/77/25 12/76/25 13/79/25

vt -8.06985 1.83654
vn -0.901728 -0.432304 -1.23538e-014
vt -32.8102 5.3294
vt -31.3002 1.83654
f 15/80/26 12/81/26 17/82/26

vt -6.55988 5.3294
f 12/81/26 15/80/26 11/83/26

vt -31.3002 8.06985
vn 7.45363e-031 -1 7.6467e-017
vt -8.06985 31.3002
vt -31.3002 31.3002
f 20/84/27 22/85/27 19/86/27

vt -8.06985 8.06985
f 22/85/27 20/84/27 21/87/27

