# Alias OBJ Model File
# Exported from SketchUp, (c) 2000-2012 Trimble Navigation Limited
# File units = meters

mtllib towerDefense_095.mtl

g Mesh1 Group1 Model

usemtl Grass
v 7.21911e-015 0.4 -1
vt -2.07725e-013 15.748
vn 1.94289e-015 0 -1
v 1 0.2 -1
vt -39.3701 7.87402
v 7.21911e-015 0.2 -1
vt -2.07725e-013 7.87402
f 1/1/1 2/2/1 3/3/1

v 1 0.4 -1
vt -39.3701 15.748
f 2/2/1 1/1/1 4/4/1

vt 2.83999e-013 39.3701
vn 1.38496e-017 1 -4.79359e-017
v 0.5625 0.4 -0.757772
vt 22.1457 29.8336
vt 39.3701 39.3701
f 1/5/2 5/6/2 4/7/2

v 0.467334 0.4 -0.694184
vt 18.399 27.3301
f 1/5/2 6/8/2 5/6/2

v 0.381282 0.4 -0.618718
vt 15.0111 24.359
f 1/5/2 7/9/2 6/8/2

v 0.305816 0.4 -0.532666
vt 12.04 20.9711
f 1/5/2 8/10/2 7/9/2

v 0.242228 0.4 -0.4375
vt 9.53653 17.2244
f 1/5/2 9/11/2 8/10/2

v 0.191605 0.4 -0.334848
vt 7.54352 13.183
f 1/5/2 10/12/2 9/11/2

v 0.154815 0.4 -0.226467
vt 6.09507 8.91601
f 1/5/2 11/13/2 10/12/2

v 0.132486 0.4 -0.11421
vt 5.21597 4.49647
f 1/5/2 12/14/2 11/13/2

v 0.125 0.4 -0
vt 4.92126 -7.54896e-016
f 1/5/2 13/15/2 12/14/2

v 0 0.4 -0
vt -2.18104e-016 -7.54896e-016
f 13/15/2 1/5/2 14/16/2

vn -1 2.90022e-029 -3.03963e-015
v 0 0.2 -0
vt 0 7.87402
vt 0 15.748
f 1/4/3 15/17/3 14/18/3

f 15/17/3 1/4/3 3/2/3

usemtl Dirt
vn -1 0 -1.94289e-015
v 0 0 -0
vt 0 0
f 3/2/4 16/19/4 15/17/4

v 7.21911e-015 0 -1
vt -39.3701 0
f 16/19/4 3/2/4 17/20/4

v 1 0 -1
vt -2.07725e-013 0
f 3/3/1 18/20/1 17/21/1

f 18/20/1 3/3/1 2/2/1

vt 2.84217e-013 39.3701
vn 0 1 -0
v 0.125 0.2 -0
vt 4.92126 0
f 3/22/5 19/23/5 2/7/5

f 19/23/5 3/22/5 15/19/5

vn -1.94289e-015 0 1
v 0.875 0.2 -0
vt 34.4488 7.87402
vt 4.92126 7.87402
f 15/17/6 20/24/6 19/25/6

v 1 0.2 -5.77529e-015
vt 39.3701 7.87402
f 15/17/6 21/26/6 20/24/6

f 16/19/6 21/26/6 15/17/6

v 1 0 -5.77529e-015
vt 39.3701 0
f 21/26/6 16/19/6 22/27/6

vt -2.84217e-013 39.3701
vn 0 -1 -0
vt -39.3701 2.27374e-013
f 17/28/7 22/29/7 16/19/7

vt -39.3701 39.3701
f 22/29/7 17/28/7 18/30/7

vn 1 0 1.94289e-015
vt 3.03865e-013 7.87402
vt 3.03865e-013 0
f 18/27/8 21/31/8 22/32/8

v 1 0.2 -0.125
f 21/31/8 18/27/8 23/25/8

v 1 0.2 -0.875
f 23/25/8 18/27/8 24/24/8

f 24/24/8 18/27/8 2/26/8

vt 34.4488 0
vt 39.3701 34.4488
f 2/7/5 20/33/5 24/34/5

f 2/7/5 19/23/5 20/33/5

v 0.875 0.37 -0
vt 34.4488 14.5669
vn 0 0 1
f 25/35/9 19/25/9 20/24/9

v 0.125 0.37 -0
vt 4.92126 14.5669
f 19/25/9 25/35/9 26/36/9

vt 34.4488 -2.78855e-016
vn 4.09948e-017 1 -1.9143e-017
v 0.132486 0.37 -0.11421
vt 4.92126 -2.78855e-016
f 25/37/10 27/14/10 26/38/10

v 0.154815 0.37 -0.226467
f 27/14/10 25/37/10 28/13/10

v 0.191605 0.37 -0.334848
f 28/13/10 25/37/10 29/12/10

v 0.242228 0.37 -0.4375
f 29/12/10 25/37/10 30/11/10

v 0.305816 0.37 -0.532666
f 30/11/10 25/37/10 31/10/10

v 0.381282 0.37 -0.618718
f 31/10/10 25/37/10 32/9/10

v 0.467334 0.37 -0.694184
f 32/9/10 25/37/10 33/8/10

v 0.5625 0.37 -0.757772
f 33/8/10 25/37/10 34/6/10

v 0.665152 0.37 -0.808395
vt 26.1871 31.8266
f 34/6/10 25/37/10 35/39/10

v 0.773533 0.37 -0.845185
vt 30.4541 33.275
f 35/39/10 25/37/10 36/40/10

v 0.88579 0.37 -0.867514
vt 34.8736 34.1541
f 36/40/10 25/37/10 37/41/10

v 0.876069 0.37 -0.0163158
vt 34.4909 0.642353
f 37/41/10 25/37/10 38/42/10

vt -2.25306 14.5669
vn -0.997859 3.9655e-017 -0.0654031
v 0.876069 0.4 -0.0163158
vt -2.89679 15.748
vn -0.991445 3.81454e-017 -0.130526
vt -2.89679 14.5669
f 25/43/11 39/44/12 38/45/12

v 0.875 0.4 -0
vt -2.25306 15.748
f 39/44/12 25/43/11 40/46/11

usemtl Grass
vn 4.62023e-014 3.80472e-028 1
v 1 0.4 -5.77529e-015
vt 39.3701 15.748
vt 34.4488 15.748
f 25/35/13 41/47/13 40/48/13

f 20/24/13 41/47/13 25/35/13

f 41/47/13 20/24/13 21/26/13

usemtl Dirt
vt 39.3701 2.27374e-013
vt 39.3701 4.92126
f 21/49/5 23/50/5 20/33/5

usemtl Grass
vn 1 8.23135e-015 -3.69654e-014
vt -1.22796e-012 15.748
vt -1.22796e-012 7.87402
f 23/25/14 41/51/14 21/52/14

v 1 0.4 -0.125
vt 4.92126 15.748
f 41/51/14 23/25/14 42/53/14

v 1 0.37 -0.125
f 42/53/14 23/25/14 43/36/14

usemtl Dirt
vn 1 1.69862e-014 7.70039e-015
f 24/24/15 43/36/15 23/25/15

v 1 0.37 -0.875
f 43/36/15 24/24/15 44/35/15

usemtl Grass
vn 1 8.23135e-015 3.69654e-014
f 2/26/16 44/35/16 24/24/16

v 1 0.4 -0.875
f 44/35/16 2/26/16 45/48/16

f 45/48/16 2/26/16 4/47/16

v 0.88579 0.4 -0.867514
f 4/7/2 46/41/2 45/34/2

v 0.773533 0.4 -0.845185
f 4/7/2 47/40/2 46/41/2

v 0.665152 0.4 -0.808395
f 4/7/2 48/39/2 47/40/2

f 4/7/2 5/6/2 48/39/2

usemtl Dirt
vt 33.0569 14.5669
vn 0.5 -3.91906e-018 0.866025
vt 37.563 15.748
vn 0.382683 1.99781e-018 0.92388
vt 33.0569 15.748
f 34/54/17 48/55/18 5/56/17

vt 37.563 14.5669
f 48/55/18 34/54/17 35/57/18

vt 35.0277 14.5669
vt 39.5338 15.748
vn 0.258819 7.8805e-018 0.965926
vt 35.0277 15.748
f 35/58/18 47/59/19 48/60/18

vt 39.5338 14.5669
f 47/59/19 35/58/18 36/61/19

vt 36.3605 14.5669
vt 40.8667 15.748
vn 0.130526 1.36283e-017 0.991445
vt 36.3605 15.748
f 36/62/19 46/63/20 47/64/19

vt 40.8667 14.5669
f 46/63/20 36/62/19 37/65/20

vt 37.0327 14.5669
vt 41.5388 15.748
vn 0.0654031 1.64208e-017 0.997859
vt 37.0327 15.748
f 37/66/20 45/67/21 46/68/20

vt 41.5388 14.5669
f 45/67/21 37/66/20 44/69/21

v 0.891747 0.37 -0.0625
vt 35.1081 2.46063
f 37/41/10 49/70/10 44/34/10

v 0.884515 0.37 -0.0478354
vt 34.8234 1.88328
f 37/41/10 50/71/10 49/70/10

v 0.879259 0.37 -0.0323524
vt 34.6165 1.27372
f 37/41/10 51/72/10 50/71/10

f 37/41/10 38/42/10 51/72/10

vt -7.35886 14.5669
v 0.879259 0.4 -0.0323524
vt -8.00259 15.748
vn -0.965926 3.46433e-017 -0.258819
vt -8.00259 14.5669
f 38/73/12 52/74/22 51/75/22

vt -7.35886 15.748
f 52/74/22 38/73/12 39/76/12

usemtl Grass
vn -4.49909e-016 1 -3.45717e-017
vt 39.3701 2.26829e-013
f 39/42/23 41/77/23 52/72/23

vt 34.4488 -5.44437e-016
f 41/77/23 39/42/23 40/78/23

v 0.884515 0.4 -0.0478354
f 52/72/23 41/77/23 53/71/23

v 0.891747 0.4 -0.0625
f 53/71/23 41/77/23 54/70/23

v 0.900831 0.4 -0.0760952
vt 35.4658 2.99587
f 54/70/23 41/77/23 55/79/23

v 0.911612 0.4 -0.0883883
vt 35.8902 3.47986
f 55/79/23 41/77/23 56/80/23

v 0.923905 0.4 -0.0991692
vt 36.3742 3.9043
f 56/80/23 41/77/23 57/81/23

v 0.9375 0.4 -0.108253
vt 36.9094 4.26194
f 57/81/23 41/77/23 58/82/23

v 0.952165 0.4 -0.115485
vt 37.4868 4.54665
f 58/82/23 41/77/23 59/83/23

v 0.967648 0.4 -0.120741
vt 38.0964 4.75357
f 59/83/23 41/77/23 60/84/23

v 0.983684 0.4 -0.123931
vt 38.7277 4.87916
f 60/84/23 41/77/23 61/85/23

f 61/85/23 41/77/23 42/50/23

usemtl Dirt
vt -39.6077 14.5669
vn -0.0654031 -1.64208e-017 -0.997859
vt -38.9639 15.748
vn -0.130526 -1.36283e-017 -0.991445
vt -39.6077 15.748
f 43/86/24 61/87/25 42/88/24

v 0.983684 0.37 -0.123931
vt -38.9639 14.5669
f 61/87/25 43/86/24 62/89/25

f 44/34/10 62/85/10 43/50/10

v 0.967648 0.37 -0.120741
f 44/34/10 63/84/10 62/85/10

v 0.952165 0.37 -0.115485
f 44/34/10 64/83/10 63/84/10

v 0.9375 0.37 -0.108253
f 44/34/10 65/82/10 64/83/10

v 0.923905 0.37 -0.0991692
f 44/34/10 66/81/10 65/82/10

v 0.911612 0.37 -0.0883883
f 44/34/10 67/80/10 66/81/10

v 0.900831 0.37 -0.0760952
f 44/34/10 68/79/10 67/80/10

f 44/34/10 49/70/10 68/79/10

vt -21.551 14.5669
vn -0.866025 2.5931e-017 -0.5
vt -22.1947 15.748
vn -0.793353 2.08698e-017 -0.608761
vt -22.1947 14.5669
f 49/90/26 55/91/27 68/92/27

vt -21.551 15.748
f 55/91/27 49/90/26 54/93/26

vt -17.0911 14.5669
vn -0.92388 3.05485e-017 -0.382683
vt -17.7348 15.748
vt -17.7348 14.5669
f 50/94/28 54/95/26 49/96/26

vt -17.0911 15.748
f 54/95/26 50/94/28 53/97/28

vt -12.3332 14.5669
vt -12.977 15.748
vt -12.977 14.5669
f 51/98/22 53/99/28 50/100/28

vt -12.3332 15.748
f 53/99/28 51/98/22 52/101/22

vt -26.2804 15.748
vn -0.707107 1.54515e-017 -0.707107
vt -25.6366 14.5669
vt -25.6366 15.748
f 56/102/29 68/103/27 55/104/27

vt -26.2804 14.5669
f 68/103/27 56/102/29 67/105/29

vt -29.2781 15.748
vt -29.9219 14.5669
vn -0.608761 9.76887e-018 -0.793353
vt -29.2781 14.5669
f 56/106/29 66/107/30 67/108/29

vt -29.9219 15.748
f 66/107/30 56/106/29 57/109/30

vt -32.4132 15.748
vt -33.0569 14.5669
vn -0.5 3.91906e-018 -0.866025
vt -32.4132 14.5669
f 57/110/30 65/111/31 66/112/30

vt -33.0569 15.748
f 65/111/31 57/110/30 58/113/31

vt -34.9881 15.748
vt -35.6318 14.5669
vn -0.382683 -1.99781e-018 -0.92388
vt -34.9881 14.5669
f 58/114/31 64/115/32 65/116/31

vt -35.6318 15.748
f 64/115/32 58/114/31 59/117/32

vt -36.9588 15.748
vt -37.6026 14.5669
vn -0.258819 -7.8805e-018 -0.965926
vt -36.9588 14.5669
f 59/118/32 63/119/33 64/120/32

vt -37.6026 15.748
f 63/119/33 59/118/32 60/121/33

vt -38.2917 15.748
vt -38.9355 14.5669
vt -38.2917 14.5669
f 60/122/33 62/123/25 63/124/33

vt -38.9355 15.748
f 62/123/25 60/122/33 61/125/25

vt 34.9881 15.748
vt 30.482 14.5669
vn 0.608761 -9.76887e-018 0.793353
vt 34.9881 14.5669
f 5/126/17 33/127/34 34/128/17

vt 30.482 15.748
f 33/127/34 5/126/17 6/129/34

vt 31.8531 15.748
vt 27.3469 14.5669
vn 0.707107 -1.54515e-017 0.707107
vt 31.8531 14.5669
f 6/130/34 32/131/35 33/132/34

vt 27.3469 15.748
f 32/131/35 6/130/34 7/133/35

vt 23.7054 15.748
vn 0.793353 -2.08698e-017 0.608761
vt 28.2116 14.5669
vt 28.2116 15.748
f 8/134/36 32/135/35 7/136/35

vt 23.7054 14.5669
f 32/135/35 8/134/36 31/137/36

vt 19.6198 15.748
vn 0.866025 -2.5931e-017 0.5
vt 24.1259 14.5669
vt 24.1259 15.748
f 9/138/37 31/139/36 8/140/36

vt 19.6198 14.5669
f 31/139/36 9/138/37 30/141/37

vt 15.1599 15.748
vn 0.92388 -3.05485e-017 0.382683
vt 19.666 14.5669
vt 19.666 15.748
f 10/142/38 30/143/37 9/144/37

vt 15.1599 14.5669
f 30/143/37 10/142/38 29/145/38

vt 10.402 15.748
vn 0.965926 -3.46433e-017 0.258819
vt 14.9082 14.5669
vt 14.9082 15.748
f 11/146/39 29/147/38 10/148/38

vt 10.402 14.5669
f 29/147/38 11/146/39 28/149/39

vt 5.42766 15.748
vn 0.991445 -3.81454e-017 0.130526
vt 9.93378 14.5669
vt 9.93378 15.748
f 12/150/40 28/151/39 11/152/39

vt 5.42766 14.5669
f 28/151/39 12/150/40 27/153/40

vt 0.321866 15.748
vn 0.997859 -3.9655e-017 0.0654031
vt 4.82799 14.5669
vt 4.82799 15.748
f 13/154/41 27/155/40 12/156/40

vt 0.321866 14.5669
f 27/155/40 13/154/41 26/157/41

usemtl Grass
f 14/18/9 26/36/9 13/53/9

f 15/17/9 26/36/9 14/18/9

f 26/36/9 15/17/9 19/25/9

usemtl Dirt
f 24/34/5 20/33/5 23/50/5

