<svg xmlns="http://www.w3.org/2000/svg" xmlns:xlink="http://www.w3.org/1999/xlink">
  <defs>
    <linearGradient gradientUnits="userSpaceOnUse" x1="-819.2" x2="819.2" spreadMethod="pad" gradientTransform="matrix(0.00885009765625 0 0 0.013153076171875 73.15 115.7)" id="gradient0">
      <stop offset="0" stop-color="#EECC98"/>
      <stop offset="1" stop-color="#FFE0B1"/>
    </linearGradient>
    <linearGradient gradientUnits="userSpaceOnUse" x1="-819.2" x2="819.2" spreadMethod="pad" gradientTransform="matrix(-0.00885009765625 0 0 0.013153076171875 218.75 115.7)" id="gradient1">
      <stop offset="0" stop-color="#EECC98"/>
      <stop offset="1" stop-color="#FFE0B1"/>
    </linearGradient>
  </defs>
  <g>
    <path stroke="none" fill="#191919" d="M488.8 82.85 L488.8 75.9 488.8 49 449.8 49 449.8 75.9 449.8 82.85 449.8 101 443.95 82.85 441.75 75.9 433.45 50.15 433.45 12 412.8 12 412.8 48.75 356.15 48.75 347.15 75.9 344.85 82.85 337.5 105.2 337.5 161.15 344.4 181.25 359.35 181.25 353.3 161 353.3 144.4 393.8 144.4 393.8 173 381.8 173 381.8 193 415.05 193 415.05 162.5 426.8 162.5 426.8 144.25 436.55 144.25 436.55 161 430.15 181.4 445.15 181.4 449.8 166 449.8 242 468.8 242 468.8 254 488.8 254 488.8 82.85 M34.95 131.9 L34.95 149 108.95 149 108.95 223 182.95 223 182.95 149 330.95 149 330.95 132 330.95 75 182.95 75 182.95 1 108.95 1 108.95 75 34.95 75 34.95 131.9 M205.95 308 L205.95 319 241.95 319 241.95 355.95 315.95 355.95 315.95 319 424.95 319 424.95 308 424.95 209 315.95 209 315.95 172.05 241.95 172.05 241.95 209 205.95 209 205.95 308 M503 434.05 L503 360.75 469 361 469 326 431 326 431.25 360.75 361 361 361 434.05 361 441 361 465 361.25 467.4 396 467.4 396 503.75 452 503.75 488 503.75 487.6 467.4 503 467.4 503 465 503 441 503 434.05 M159.65 253.9 L150.65 226.75 94 226.75 94 190 73.35 190 73.35 228.15 65.05 253.9 62.85 260.85 57 279 57 260.85 57 253.9 57 227 18 227 18 253.9 18 260.85 18 432 38 432 38 420 57 420 57 344 61.65 359.4 76.65 359.4 70.25 339 70.25 322.25 80 322.25 80 340.5 91.75 340.5 91.75 371 125 371 125 351 113 351 113 322.4 153.5 322.4 153.5 339 147.45 359.25 162.4 359.25 169.3 339.15 169.3 283.2 161.95 260.85 159.65 253.9 M289 438.05 L289 365 218.75 364.75 219 330 181 330 181 365 147 364.75 147 438.05 147 445 147 469 147 471 162.4 471 162 507.4 198 507.4 254 507.4 254 471 288.8 471 289 469 289 445 289 438.05 M0 0 L512 0 512 512 0 512 0 0"/>
    <path stroke="none" fill="#FFE0B1" d="M488.8 82.85 L488.8 254 468.8 254 468.8 242 449.8 242 449.8 166 445.15 181.4 430.15 181.4 436.55 161 436.55 144.25 426.8 144.25 426.8 162.5 415.05 162.5 415.05 193 381.8 193 381.8 173 393.8 173 393.8 144.4 353.3 144.4 353.3 161 359.35 181.25 344.4 181.25 337.5 161.15 337.5 105.2 344.85 82.85 443.95 82.85 449.8 101 449.8 82.85 488.8 82.85 M488.75 103.7 L488.75 99.35 449.75 103.7 488.75 103.7 M330.95 132 L330.95 149 182.95 149 182.95 223 108.95 223 108.95 149 34.95 149 34.95 131.9 51.75 125.3 Q61 121.5 62.45 111.65 62.8 109.25 64.35 107.7 67.5 104.55 72 104.75 L76.1 104.95 Q71.9 105.4 69 108.2 65.9 111.3 65.9 115.7 L65.9 115.75 Q65.9 117.95 66.6 119.8 67.4 121.8 69 123.4 72 126.3 76.1 126.5 L76.3 126.5 Q77.95 126.5 79.2 123.4 80.1 120.95 80.3 117.7 L80.4 115.95 80.4 115.75 80.4 115.7 80.4 114.85 80.6 117.65 90.45 116.1 90 112.7 80.3 113.6 80 111 89.6 109.8 95.95 89.75 Q99.35 79.1 108.95 83.15 L108.95 83 Q130.15 83 147.2 87.75 163.5 92.1 182.95 83 L182.95 83.15 Q192.55 79.1 195.95 89.75 L202.3 109.8 211.9 111 211.6 113.6 201.9 112.7 201.45 116.1 211.3 117.65 211.5 114.85 211.5 115.7 211.5 115.75 211.5 115.95 211.6 117.7 Q211.8 120.95 212.7 123.4 213.95 126.5 215.6 126.5 L215.8 126.5 Q219.9 126.3 222.9 123.4 224.5 121.8 225.3 119.8 226 117.95 226 115.75 L226 115.7 Q226 111.3 222.9 108.2 220 105.4 215.8 104.95 L219.9 104.75 Q224.4 104.55 227.55 107.7 229.1 109.25 229.45 111.65 230.9 121.5 240.15 125.3 L256.95 131.9 256.95 132 330.95 132 M263.7 209 L294.25 209 291.85 212.8 278.95 216.25 266.1 212.8 263.7 209 M167.95 95.2 Q167.35 94.75 166.55 94.9 160.55 95.85 153.9 99.45 153.15 99.8 152.95 100.55 152.7 101.35 153.1 102.05 L154 103.65 Q154.35 104.3 155.15 104.6 L156.5 104.4 Q162.35 101.4 167.5 100.5 168.25 100.3 168.7 99.7 169.2 99.05 169.05 98.3 L168.7 96.5 Q168.6 95.7 167.95 95.2 M138.3 121.15 Q123.65 122.7 119.95 136.35 114.05 136.7 108.95 125.35 L108.95 149 182.95 149 182.95 125.55 Q177.85 136.7 172 136.35 168.3 122.7 153.7 121.15 153.35 118.65 151.5 116.8 149.25 114.55 146 114.55 L145.95 114.55 Q142.8 114.55 140.55 116.8 138.7 118.65 138.3 121.15 M164.8 115.9 Q166.35 114.45 166.35 112.3 166.35 110.15 164.8 108.65 163.35 107.15 161.2 107.15 159.1 107.15 157.55 108.65 156.05 110.15 156.05 112.3 156.05 114.45 157.55 115.9 159.1 117.45 161.2 117.45 163.35 117.45 164.8 115.9 M123.9 98.05 Q123.1 98.15 122.65 98.8 122.15 99.35 122.2 100.15 L122.35 102 Q122.45 102.75 123.1 103.3 123.65 103.75 124.5 103.7 129.65 103.25 136.05 104.7 L137.45 104.5 138.3 103.25 138.75 101.5 Q138.95 100.7 138.5 100.05 138.1 99.35 137.3 99.2 129.9 97.45 123.9 98.05 M130.7 107.15 Q128.55 107.15 127 108.65 125.55 110.15 125.55 112.3 125.55 114.45 127 115.9 128.55 117.45 130.7 117.45 132.8 117.45 134.25 115.9 135.8 114.45 135.8 112.3 135.8 110.15 134.25 108.65 132.8 107.15 130.7 107.15 M161.95 260.85 L169.3 283.2 169.3 339.15 162.4 359.25 147.45 359.25 153.5 339 153.5 322.4 113 322.4 113 351 125 351 125 371 91.75 371 91.75 340.5 80 340.5 80 322.25 70.25 322.25 70.25 339 76.65 359.4 61.65 359.4 57 344 57 420 38 420 38 432 18 432 18 260.85 57 260.85 57 279 62.85 260.85 161.95 260.85 M18.05 281.7 L57.05 281.7 18.05 277.35 18.05 281.7"/>
    <path stroke="none" fill="#694C39" d="M503 465 L503 467.4 487.6 467.4 487.6 467.35 452 467.4 452 503.75 396 503.75 396 467.4 361.25 467.4 361 465 503 465 M164.8 115.9 Q163.35 117.45 161.2 117.45 159.1 117.45 157.55 115.9 156.05 114.45 156.05 112.3 156.05 110.15 157.55 108.65 159.1 107.15 161.2 107.15 163.35 107.15 164.8 108.65 166.35 110.15 166.35 112.3 166.35 114.45 164.8 115.9 M130.7 107.15 Q132.8 107.15 134.25 108.65 135.8 110.15 135.8 112.3 135.8 114.45 134.25 115.9 132.8 117.45 130.7 117.45 128.55 117.45 127 115.9 125.55 114.45 125.55 112.3 125.55 110.15 127 108.65 128.55 107.15 130.7 107.15 M289 469 L288.8 471 254 471 254 507.4 198 507.4 198 471.05 196.6 471.05 196.15 471.05 168.5 471 162.4 471 147 471 147 469 289 469"/>
    <path stroke="none" fill="#C3DAE2" d="M287.4 308 L287.4 319 270.45 319 270.45 308 276.45 308 281.45 308 287.4 308"/>
    <path stroke="none" fill="url(#gradient0)" d="M80 111 L80.3 113.6 80.4 114.85 80.4 115.7 80.4 115.75 80.4 115.95 80.3 117.7 Q80.1 120.95 79.2 123.4 77.95 126.5 76.3 126.5 L76.1 126.5 Q72 126.3 69 123.4 67.4 121.8 66.6 119.8 65.9 117.95 65.9 115.75 L65.9 115.7 Q65.9 111.3 69 108.2 71.9 105.4 76.1 104.95 L76.3 104.95 Q77.95 104.95 79.2 108.2 L80 111"/>
    <path stroke="none" fill="url(#gradient1)" d="M215.8 104.95 Q220 105.4 222.9 108.2 226 111.3 226 115.7 L226 115.75 Q226 117.95 225.3 119.8 224.5 121.8 222.9 123.4 219.9 126.3 215.8 126.5 L215.6 126.5 Q213.95 126.5 212.7 123.4 211.8 120.95 211.6 117.7 L211.5 115.95 211.5 115.75 211.5 115.7 211.5 114.85 211.6 113.6 211.9 111 212.7 108.2 Q213.95 104.95 215.6 104.95 L215.8 104.95"/>
    <path stroke="none" fill="#EECC98" d="M153.75 122.05 Q153.75 123.25 151.5 124.15 149.25 125 146 125 L145.95 125 Q142.8 125 140.55 124.15 138.3 123.3 138.2 122.15 L138.2 122.05 138.2 121.9 138.3 121.15 Q138.7 118.65 140.55 116.8 142.8 114.55 145.95 114.55 L146 114.55 Q149.25 114.55 151.5 116.8 153.35 118.65 153.7 121.15 L153.75 121.9 153.75 122.05 M152.1 128.3 L158.75 130.7 158.2 131.55 Q153.65 135.75 143.4 135.3 142.6 135.25 142.05 134.65 141.45 134.05 141.5 133.2 L141.6 131.2 Q141.65 130.4 142.25 129.85 142.85 129.25 143.7 129.3 148.9 129.55 152.1 128.3"/>
    <path stroke="none" fill="#333333" d="M34.95 131.9 L34.95 75 108.95 75 108.95 1 182.95 1 182.95 75 330.95 75 330.95 132 256.95 132 256.95 131.9 240.15 125.3 Q230.9 121.5 229.45 111.65 229.1 109.25 227.55 107.7 224.4 104.55 219.9 104.75 L215.8 104.95 215.6 104.95 Q213.95 104.95 212.7 108.2 L211.9 111 202.3 109.8 195.95 89.75 Q192.55 79.1 182.95 83.15 L182.95 83 Q163.5 92.1 147.2 87.75 130.15 83 108.95 83 L108.95 83.15 Q99.35 79.1 95.95 89.75 L89.6 109.8 80 111 79.2 108.2 Q77.95 104.95 76.3 104.95 L76.1 104.95 72 104.75 Q67.5 104.55 64.35 107.7 62.8 109.25 62.45 111.65 61 121.5 51.75 125.3 L34.95 131.9 M211.5 114.85 L211.3 117.65 201.45 116.1 201.9 112.7 211.6 113.6 211.5 114.85 M80.3 113.6 L90 112.7 90.45 116.1 80.6 117.65 80.4 114.85 80.3 113.6 M424.95 308 L424.95 319 315.95 319 315.95 355.95 241.95 355.95 241.95 319 205.95 319 205.95 308 227.85 308 270.45 308 270.45 319 287.4 319 287.4 308 424.95 308 M227.95 310.05 L227.85 308 227.95 310.05 M503 441 L503 465 361 465 361 441 434.4 441 450.25 448.5 466.6 441 503 441 M487.6 467.4 L488 503.75 452 503.75 452 467.4 487.6 467.35 487.6 467.4 M255.65 237.2 L250.8 237.95 Q248.45 238.35 248.1 236.05 L245.7 220.95 Q245.35 218.65 247.7 218.25 L257.3 216.75 257.7 216.7 258.6 216.8 Q259.7 217.15 259.95 218.7 L262.35 233.8 Q262.7 236.1 260.4 236.45 L256.05 237.15 255.95 235.75 256.05 237.15 255.65 237.2 M167.95 95.2 Q168.6 95.7 168.7 96.5 L169.05 98.3 Q169.2 99.05 168.7 99.7 168.25 100.3 167.5 100.5 162.35 101.4 156.5 104.4 L155.15 104.6 Q154.35 104.3 154 103.65 L153.1 102.05 Q152.7 101.35 152.95 100.55 153.15 99.8 153.9 99.45 160.55 95.85 166.55 94.9 167.35 94.75 167.95 95.2 M153.75 122.05 Q158.3 124 162.75 128.4 L163.15 129.15 Q163.2 129.65 162.9 129.95 L162.25 131 161.55 131.5 160.65 131.5 158.75 130.7 152.1 128.3 146.1 126.8 Q139.25 128.1 131.55 131.5 L130.65 131.5 129.95 131 129.3 129.95 Q128.95 129.65 129.05 129.15 129.1 128.75 129.45 128.4 133.75 124.1 138.2 122.15 138.3 123.3 140.55 124.15 142.8 125 145.95 125 L146 125 Q149.25 125 151.5 124.15 153.75 123.25 153.75 122.05 M123.9 98.05 Q129.9 97.45 137.3 99.2 138.1 99.35 138.5 100.05 138.95 100.7 138.75 101.5 L138.3 103.25 137.45 104.5 136.05 104.7 Q129.65 103.25 124.5 103.7 123.65 103.75 123.1 103.3 122.45 102.75 122.35 102 L122.2 100.15 Q122.15 99.35 122.65 98.8 123.1 98.15 123.9 98.05 M257.35 219.55 L248.55 220.95 249.6 227.65 258.4 226.3 257.35 219.55 M289 445 L289 469 147 469 147 445 183.4 445 199.75 452.5 215.6 445 289 445 M198 507.4 L162 507.4 162.4 471 168.5 471 196.15 471.05 196.6 471.05 198 471.05 198 507.4"/>
    <path stroke="none" fill="#FFCC66" d="M476.4 61.45 L476.4 61.65 Q475.15 68.45 469.45 70.9 L469.25 70.95 469.05 70.9 Q463.35 68.45 462.1 61.65 L462.1 61.45 463.2 54.85 Q463.2 54.65 463.35 54.55 L463.65 54.4 469.2 54 469.3 54 474.85 54.4 475.15 54.55 475.3 54.85 476.4 61.45 M44.7 239.65 Q43.45 246.45 37.75 248.9 L37.55 248.95 37.35 248.9 Q31.65 246.45 30.4 239.65 L30.4 239.45 31.5 232.85 Q31.5 232.65 31.65 232.55 L31.95 232.4 37.5 232 37.6 232 43.15 232.4 43.45 232.55 43.6 232.85 44.7 239.45 44.7 239.65 M300.3 224.75 L303.2 225.85 306.15 224.75 306.65 224.7 307.05 224.95 309.55 227.7 Q309.75 227.9 309.75 228.25 L309.6 228.8 308.3 230.35 Q309.6 232.05 309.6 234.35 309.6 238.65 306.45 239.3 L306.35 239.3 Q304.5 239.55 303.85 240.35 L303.45 240.65 302.95 240.65 Q302.65 240.55 302.5 240.3 301.9 239.55 300.1 239.3 L300.05 239.3 Q296.8 238.65 296.8 234.35 296.8 232.05 298.2 230.35 L296.85 228.8 296.65 228.25 Q296.65 227.9 296.9 227.7 L299.4 224.95 299.85 224.7 300.3 224.75"/>
    <path stroke="none" fill="#E7CBA0" d="M488.75 103.7 L449.75 103.7 488.75 99.35 488.75 103.7 M18.05 281.7 L18.05 277.35 57.05 281.7 18.05 281.7"/>
    <path stroke="none" fill="#34495E" d="M300.3 224.75 L299.85 224.7 299.4 224.95 296.9 227.7 Q296.65 227.9 296.65 228.25 L296.85 228.8 298.2 230.35 Q296.8 232.05 296.8 234.35 296.8 238.65 300.05 239.3 L300.1 239.3 Q301.9 239.55 302.5 240.3 302.65 240.55 302.95 240.65 L303.45 240.65 303.85 240.35 Q304.5 239.55 306.35 239.3 L306.45 239.3 Q309.6 238.65 309.6 234.35 309.6 232.05 308.3 230.35 L309.6 228.8 309.75 228.25 Q309.75 227.9 309.55 227.7 L307.05 224.95 306.65 224.7 306.15 224.75 303.2 225.85 300.3 224.75 M347.15 75.9 L356.15 48.75 412.8 48.75 412.8 12 433.45 12 433.45 50.15 441.75 75.9 347.15 75.9 M449.8 75.9 L449.8 49 488.8 49 488.8 75.9 449.8 75.9 M476.4 61.45 L475.3 54.85 475.15 54.55 474.85 54.4 469.3 54 469.2 54 463.65 54.4 463.35 54.55 Q463.2 54.65 463.2 54.85 L462.1 61.45 462.1 61.65 Q463.35 68.45 469.05 70.9 L469.25 70.95 469.45 70.9 Q475.15 68.45 476.4 61.65 L476.4 61.45 M424.95 308 L287.4 308 281.45 308 281.45 241.9 295.95 215 300.05 217.15 304 209 294.25 209 263.7 209 253.9 209 253.95 209.05 257.7 216.7 257.3 216.75 247.7 218.25 Q245.35 218.65 245.7 220.95 L248.1 236.05 Q248.45 238.35 250.8 237.95 L255.65 237.2 255.65 239.3 Q255.65 239.7 255.95 240 L256.15 240.15 256.05 244 256.15 240.15 256.65 240.3 268.15 240.3 Q268.55 240.3 268.85 240 L269.15 239.3 269.15 234.8 268.85 234.1 Q268.55 233.8 268.15 233.8 L262.35 233.8 259.95 218.7 Q259.7 217.15 258.6 216.8 L262 215 276.45 241.9 276.45 308 270.45 308 227.85 308 205.95 308 205.95 209 241.95 209 241.95 172.05 315.95 172.05 315.95 209 424.95 209 424.95 308 M361 434.05 L361 361 431.25 360.75 431 326 469 326 469 361 503 360.75 503 434.05 361 434.05 M254.85 253.8 Q254.05 257.9 252.7 261.95 250.5 268.75 244.15 271.9 237.4 275.25 233.75 281.95 227.15 294 227.85 308 227.15 294 233.75 281.95 237.4 275.25 244.15 271.9 250.5 268.75 252.7 261.95 254.05 257.9 254.85 253.8 L258.85 254.95 259.6 254.95 269.35 252.15 270 251.65 270.3 250.85 270.3 245.35 269.85 244.4 Q269.45 244 268.9 244 L256.05 244 249.45 244 Q248.95 244 248.5 244.4 248.1 244.85 248.1 245.35 L248.1 250.85 Q248.1 251.3 248.4 251.65 L249.1 252.15 254.85 253.8 M65.05 253.9 L73.35 228.15 73.35 190 94 190 94 226.75 150.65 226.75 159.65 253.9 65.05 253.9 M18 253.9 L18 227 57 227 57 253.9 18 253.9 M44.7 239.65 L44.7 239.45 43.6 232.85 43.45 232.55 43.15 232.4 37.6 232 37.5 232 31.95 232.4 31.65 232.55 Q31.5 232.65 31.5 232.85 L30.4 239.45 30.4 239.65 Q31.65 246.45 37.35 248.9 L37.55 248.95 37.75 248.9 Q43.45 246.45 44.7 239.65 M289.45 244 Q288.95 244 288.5 244.4 288.1 244.85 288.1 245.35 L288.1 250.85 Q288.1 251.3 288.4 251.65 L289.1 252.15 298.85 254.95 299.6 254.95 309.35 252.15 310 251.65 310.3 250.85 310.3 245.35 309.85 244.4 Q309.45 244 308.9 244 L289.45 244 M260.7 249.75 Q261.35 250.4 261.35 251.25 261.35 252.1 260.7 252.7 260.1 253.35 259.25 253.35 258.4 253.35 257.75 252.7 257.15 252.1 257.15 251.25 257.15 250.4 257.75 249.75 258.4 249.15 259.25 249.15 260.1 249.15 260.7 249.75 M300.7 249.75 Q301.35 250.4 301.35 251.25 301.35 252.1 300.7 252.7 300.1 253.35 299.25 253.35 298.4 253.35 297.75 252.7 297.15 252.1 297.15 251.25 297.15 250.4 297.75 249.75 298.4 249.15 299.25 249.15 300.1 249.15 300.7 249.75 M147 438.05 L147 364.75 181 365 181 330 219 330 218.75 364.75 289 365 289 438.05 147 438.05 M218.75 420 L218.75 416 182 416 182 420 218.75 420 M468 412 L431.25 412 431.25 416 468 416 468 412"/>
    <path stroke="none" fill="#283848" d="M254.85 253.8 L249.1 252.15 248.4 251.65 Q248.1 251.3 248.1 250.85 L248.1 245.35 Q248.1 244.85 248.5 244.4 248.95 244 249.45 244 L256.05 244 268.9 244 Q269.45 244 269.85 244.4 L270.3 245.35 270.3 250.85 270 251.65 269.35 252.15 259.6 254.95 258.85 254.95 254.85 253.8 Q255.8 248.95 256.05 244 255.8 248.95 254.85 253.8 M295.95 215 L281.45 241.9 281.45 308 276.45 308 276.45 241.9 262 215 266.1 212.8 278.95 236.9 291.85 212.8 295.95 215 M289.45 244 L308.9 244 Q309.45 244 309.85 244.4 L310.3 245.35 310.3 250.85 310 251.65 309.35 252.15 299.6 254.95 298.85 254.95 289.1 252.15 288.4 251.65 Q288.1 251.3 288.1 250.85 L288.1 245.35 Q288.1 244.85 288.5 244.4 288.95 244 289.45 244 M300.7 249.75 Q300.1 249.15 299.25 249.15 298.4 249.15 297.75 249.75 297.15 250.4 297.15 251.25 297.15 252.1 297.75 252.7 298.4 253.35 299.25 253.35 300.1 253.35 300.7 252.7 301.35 252.1 301.35 251.25 301.35 250.4 300.7 249.75 M260.7 249.75 Q260.1 249.15 259.25 249.15 258.4 249.15 257.75 249.75 257.15 250.4 257.15 251.25 257.15 252.1 257.75 252.7 258.4 253.35 259.25 253.35 260.1 253.35 260.7 252.7 261.35 252.1 261.35 251.25 261.35 250.4 260.7 249.75"/>
    <path stroke="none" fill="#FAFAFA" d="M256.15 240.15 L255.95 240 Q255.65 239.7 255.65 239.3 L255.65 237.2 256.05 237.15 260.4 236.45 Q262.7 236.1 262.35 233.8 L268.15 233.8 Q268.55 233.8 268.85 234.1 L269.15 234.8 269.15 239.3 268.85 240 Q268.55 240.3 268.15 240.3 L256.65 240.3 256.15 240.15 256.05 237.15 256.15 240.15 M291.85 212.8 L278.95 236.9 266.1 212.8 278.95 216.25 291.85 212.8"/>
    <path stroke="none" fill="#D9D9D9" d="M291.85 212.8 L294.25 209 304 209 300.05 217.15 295.95 215 291.85 212.8 M257.7 216.7 L253.95 209.05 253.9 209 263.7 209 266.1 212.8 262 215 258.6 216.8 257.7 216.7"/>
    <path stroke="none" fill="#273748" d="M488.8 75.9 L488.8 82.85 449.8 82.85 449.8 75.9 488.8 75.9 M344.85 82.85 L347.15 75.9 441.75 75.9 443.95 82.85 344.85 82.85 M503 434.05 L503 441 466.6 441 450.25 448.5 434.4 441 361 441 361 434.05 503 434.05 M65.05 253.9 L159.65 253.9 161.95 260.85 62.85 260.85 65.05 253.9 M18 260.85 L18 253.9 57 253.9 57 260.85 18 260.85 M289 438.05 L289 445 215.6 445 199.75 452.5 183.4 445 147 445 147 438.05 289 438.05"/>
    <path stroke="none" fill="#3C556D" d="M218.75 420 L182 420 182 416 218.75 416 218.75 420 M468 412 L468 416 431.25 416 431.25 412 468 412"/>
    <path stroke="none" fill="#E7E2DA" fill-opacity="0.5019607843137255" d="M158.75 130.7 L160.65 131.5 161.55 131.5 162.25 131 162.9 129.95 Q163.2 129.65 163.15 129.15 L162.75 128.4 Q158.3 124 153.75 122.05 L153.75 121.9 153.7 121.15 Q168.3 122.7 172 136.35 177.85 136.7 182.95 125.55 L182.95 149 108.95 149 108.95 125.35 Q114.05 136.7 119.95 136.35 123.65 122.7 138.3 121.15 L138.2 121.9 138.2 122.05 138.2 122.15 Q133.75 124.1 129.45 128.4 129.1 128.75 129.05 129.15 128.95 129.65 129.3 129.95 L129.95 131 130.65 131.5 131.55 131.5 Q139.25 128.1 146.1 126.8 L152.1 128.3 Q148.9 129.55 143.7 129.3 142.85 129.25 142.25 129.85 141.65 130.4 141.6 131.2 L141.5 133.2 Q141.45 134.05 142.05 134.65 142.6 135.25 143.4 135.3 153.65 135.75 158.2 131.55 L158.75 130.7"/>
    <path stroke="none" fill="#545454" d="M257.35 219.55 L258.4 226.3 249.6 227.65 248.55 220.95 257.35 219.55"/>
    <path fill="none" stroke="#333333" stroke-width="3" stroke-linecap="butt" stroke-linejoin="miter" stroke-miterlimit="3" d="M227.85 308 L227.95 310.05 M227.85 308 Q227.15 294 233.75 281.95 237.4 275.25 244.15 271.9 250.5 268.75 252.7 261.95 254.05 257.9 254.85 253.8 255.8 248.95 256.05 244 L256.15 240.15 256.05 237.15 255.95 235.75"/>
  </g>
</svg>