<svg xmlns="http://www.w3.org/2000/svg" xmlns:xlink="http://www.w3.org/1999/xlink">
  <defs>
    <linearGradient gradientUnits="userSpaceOnUse" x1="-819.2" x2="819.2" spreadMethod="pad" gradientTransform="matrix(0.00885009765625 0 0 0.013153076171875 73.15 115.7)" id="gradient0">
      <stop offset="0" stop-color="#EECC98"/>
      <stop offset="1" stop-color="#FFE0B1"/>
    </linearGradient>
    <linearGradient gradientUnits="userSpaceOnUse" x1="-819.2" x2="819.2" spreadMethod="pad" gradientTransform="matrix(-0.00885009765625 0 0 0.013153076171875 218.75 115.7)" id="gradient1">
      <stop offset="0" stop-color="#EECC98"/>
      <stop offset="1" stop-color="#FFE0B1"/>
    </linearGradient>
  </defs>
  <g>
    <path stroke="none" fill="#191919" d="M488.8 75 L488.8 67 488.8 49 449.8 49 449.8 67 449.8 75 449.8 101 441.45 75 438.85 67 433.45 50.15 433.45 12 412.8 12 412.8 48.75 356.15 48.75 350.1 67 347.45 75 337.5 105.2 337.5 161.15 344.4 181.25 359.35 181.25 353.3 161 353.3 144.4 393.8 144.4 393.8 173 381.8 173 381.8 193 415.05 193 415.05 162.5 426.8 162.5 426.8 144.25 436.55 144.25 436.55 161 430.15 181.4 445.15 181.4 449.8 166 449.8 242 468.8 242 468.8 254 488.8 254 488.8 75 M223.25 149 L330.95 149 330.95 75 182.95 75 182.95 1 108.95 1 108.95 75 34.95 75 34.95 149 71.95 149 108.95 149 108.95 223 182.95 223 182.95 149 223.25 149 M205.95 308 L205.95 319 241.95 319 241.95 355.95 315.95 355.95 315.95 319 424.95 319 424.95 308 424.95 209 315.95 209 315.95 172.05 241.95 172.05 241.95 209 205.95 209 205.95 308 M503 425.05 L503 360.75 469 361 469 326 431 326 431.25 360.75 361 361 361 425.05 361 432 361 465 361.25 467.4 396 467.4 396 503.75 452 503.75 488 503.75 487.6 467.4 503 467.4 503 465 503 432 503 425.05 M156.7 245 L150.65 226.75 94 226.75 94 190 73.35 190 73.35 228.15 67.95 245 65.35 253 57 279 57 253 57 245 57 227 18 227 18 245 18 253 18 301.95 18 308.95 18 432 38 432 38 420 57 420 57 344 61.65 359.4 76.65 359.4 70.25 339 70.25 322.25 80 322.25 80 340.5 91.75 340.5 91.75 371 125 371 125 351 113 351 113 322.4 153.5 322.4 153.5 339 147.45 359.25 162.4 359.25 169.3 339.15 169.3 308.95 169.3 301.95 169.3 283.2 159.35 253 156.7 245 M289 429.05 L289 365 218.75 364.75 219 330 181 330 181 365 147 364.75 147 429.05 147 436 147 469 147 471.4 162.4 471.4 162 507.75 198 507.75 254 507.75 254 471.4 288.75 471.4 289 469 289 436 289 429.05 M0 512 L0 0 512 0 512 512 0 512"/>
    <path stroke="none" fill="#FFE0B1" d="M488.8 75 L488.8 254 468.8 254 468.8 242 449.8 242 449.8 166 445.15 181.4 430.15 181.4 436.55 161 436.55 144.25 426.8 144.25 426.8 162.5 415.05 162.5 415.05 193 381.8 193 381.8 173 393.8 173 393.8 144.4 353.3 144.4 353.3 161 359.35 181.25 344.4 181.25 337.5 161.15 337.5 105.2 347.45 75 441.45 75 449.8 101 449.8 75 488.8 75 M488.75 103.7 L488.75 99.35 449.75 103.7 488.75 103.7 M223.25 149 L182.95 149 182.95 223 108.95 223 108.95 149 71.95 149 61.25 122.3 61.1 121.6 Q59 113.05 64.35 107.7 66.65 105.4 69.65 104.9 L71.95 104.6 Q81.1 104.1 87.45 112.1 93.7 101.1 108.95 102.5 135.5 103.9 150.7 91.65 165.9 79.4 182.95 80.75 198.65 82.95 204.45 112.1 209.1 106.25 215.25 104.95 L219.95 104.6 222.25 104.9 Q225.25 105.4 227.55 107.7 232.75 112.9 230.95 121.1 L230.8 121.6 230.8 121.7 223.25 149 M170.2 96.6 L159.5 96.15 Q158.95 96.2 158.65 96.5 158.25 96.85 158.2 97.3 158.05 97.75 158.2 98.25 L158.8 99.75 159.35 100.45 160.2 100.75 Q166.25 100.75 169.3 101.85 L170.25 101.9 171.1 101.4 171.35 100.5 171.45 98.15 171.2 97.2 Q170.8 96.7 170.2 96.6 M222.9 123.4 Q226 120.25 226 115.75 L226 115.7 Q226 111.3 222.9 108.2 220 105.4 216.05 105 L213.65 106.35 212.7 108.2 Q211.5 111.3 211.5 115.7 L211.5 115.75 211.5 115.95 Q211.55 120.3 212.7 123.4 213.95 126.5 215.6 126.5 L215.8 126.5 Q219.9 126.3 222.9 123.4 M167.3 115.9 Q168.85 114.45 168.85 112.3 168.85 110.15 167.3 108.65 165.85 107.15 163.7 107.15 161.6 107.15 160.05 108.65 158.55 110.15 158.55 112.3 158.55 114.45 160.05 115.9 161.6 117.45 163.7 117.45 165.85 117.45 167.3 115.9 M78.25 106.35 L75.85 105 Q71.9 105.4 69 108.2 65.9 111.3 65.9 115.7 L65.9 115.75 Q65.9 120.25 69 123.4 72 126.3 76.1 126.5 L76.3 126.5 Q77.95 126.5 79.2 123.4 80.35 120.3 80.4 115.95 L80.4 115.75 80.4 115.7 Q80.4 111.3 79.2 108.2 L78.25 106.35 M146 113.75 L145.95 113.75 Q143.6 113.75 141.9 115.45 140.35 117.05 140.15 119.25 L140.15 119.35 Q140.15 120.25 141.9 120.95 L145.95 121.6 146 121.6 Q148.45 121.6 150.15 120.95 151.8 120.25 151.8 119.35 L151.8 119.25 Q151.7 117.05 150.15 115.45 148.45 113.75 146 113.75 M128.2 107.15 Q126.05 107.15 124.5 108.65 123.05 110.15 123.05 112.3 123.05 114.45 124.5 115.9 126.05 117.45 128.2 117.45 130.3 117.45 131.75 115.9 133.3 114.45 133.3 112.3 133.3 110.15 131.75 108.65 130.3 107.15 128.2 107.15 M134.25 128.25 L132.95 129.75 Q132.4 130.35 132.45 131.2 132.5 132 133.1 132.55 137.65 136.75 147.9 136.3 148.7 136.25 149.25 135.65 149.85 135.05 149.8 134.2 L149.7 132.2 Q149.65 131.4 149.05 130.85 148.45 130.25 147.6 130.3 140.35 130.65 137.05 128.05 136.4 127.5 135.6 127.55 134.8 127.6 134.25 128.25 M159.35 253 L169.3 283.2 169.3 301.95 18 301.95 18 253 57 253 57 279 65.35 253 159.35 253 M169.3 308.95 L169.3 339.15 162.4 359.25 147.45 359.25 153.5 339 153.5 322.4 113 322.4 113 351 125 351 125 371 91.75 371 91.75 340.5 80 340.5 80 322.25 70.25 322.25 70.25 339 76.65 359.4 61.65 359.4 57 344 57 420 38 420 38 432 18 432 18 308.95 169.3 308.95 M18.05 281.7 L57.05 281.7 18.05 277.35 18.05 281.7 M295 220.05 Q288.35 226.75 278.95 226.75 269.55 226.75 262.85 220.05 258.05 215.25 256.7 209 L301.2 209 Q299.85 215.25 295 220.05"/>
    <path stroke="none" fill="#694C39" d="M71.95 149 L34.95 149 34.95 75 108.95 75 108.95 1 182.95 1 182.95 75 330.95 75 330.95 149 223.25 149 230.8 121.7 230.8 121.6 230.95 121.1 Q232.75 112.9 227.55 107.7 225.25 105.4 222.25 104.9 L219.95 104.6 215.25 104.95 Q209.1 106.25 204.45 112.1 198.65 82.95 182.95 80.75 165.9 79.4 150.7 91.65 135.5 103.9 108.95 102.5 93.7 101.1 87.45 112.1 81.1 104.1 71.95 104.6 L69.65 104.9 Q66.65 105.4 64.35 107.7 59 113.05 61.1 121.6 L61.25 122.3 71.95 149 M424.95 308 L424.95 319 315.95 319 315.95 355.95 241.95 355.95 241.95 319 205.95 319 205.95 308 270.45 308 270.45 319 287.4 319 287.4 308 424.95 308 M361 425.05 L361 361 431.25 360.75 431 326 469 326 469 361 503 360.75 503 425.05 361 425.05 M170.2 96.6 Q170.8 96.7 171.2 97.2 L171.45 98.15 171.35 100.5 171.1 101.4 170.25 101.9 169.3 101.85 Q166.25 100.75 160.2 100.75 L159.35 100.45 158.8 99.75 158.2 98.25 Q158.05 97.75 158.2 97.3 158.25 96.85 158.65 96.5 158.95 96.2 159.5 96.15 L170.2 96.6 M167.3 115.9 Q165.85 117.45 163.7 117.45 161.6 117.45 160.05 115.9 158.55 114.45 158.55 112.3 158.55 110.15 160.05 108.65 161.6 107.15 163.7 107.15 165.85 107.15 167.3 108.65 168.85 110.15 168.85 112.3 168.85 114.45 167.3 115.9 M128.2 107.15 Q130.3 107.15 131.75 108.65 133.3 110.15 133.3 112.3 133.3 114.45 131.75 115.9 130.3 117.45 128.2 117.45 126.05 117.45 124.5 115.9 123.05 114.45 123.05 112.3 123.05 110.15 124.5 108.65 126.05 107.15 128.2 107.15 M169.3 301.95 L169.3 308.95 18 308.95 18 301.95 169.3 301.95 M147 429.05 L147 364.75 181 365 181 330 219 330 218.75 364.75 289 365 289 429.05 147 429.05 M283.4 312 L283.4 315 274.45 315 274.45 312 283.4 312 M218.75 420 L218.75 416 182 416 182 420 218.75 420 M468 412 L431.25 412 431.25 416 468 416 468 412"/>
    <path stroke="none" fill="#C3DAE2" d="M287.4 308 L287.4 319 270.45 319 270.45 308 287.4 308 M283.4 312 L274.45 312 274.45 315 283.4 315 283.4 312"/>
    <path stroke="none" fill="url(#gradient0)" d="M78.25 106.35 L79.2 108.2 Q80.4 111.3 80.4 115.7 L80.4 115.75 80.4 115.95 Q80.35 120.3 79.2 123.4 77.95 126.5 76.3 126.5 L76.1 126.5 Q72 126.3 69 123.4 65.9 120.25 65.9 115.75 L65.9 115.7 Q65.9 111.3 69 108.2 71.9 105.4 75.85 105 L78.25 106.35"/>
    <path stroke="none" fill="url(#gradient1)" d="M222.9 123.4 Q219.9 126.3 215.8 126.5 L215.6 126.5 Q213.95 126.5 212.7 123.4 211.55 120.3 211.5 115.95 L211.5 115.75 211.5 115.7 Q211.5 111.3 212.7 108.2 L213.65 106.35 216.05 105 Q220 105.4 222.9 108.2 226 111.3 226 115.7 L226 115.75 Q226 120.25 222.9 123.4"/>
    <path stroke="none" fill="#EECC98" d="M146 113.75 Q148.45 113.75 150.15 115.45 151.7 117.05 151.8 119.25 L151.8 119.35 Q151.8 120.25 150.15 120.95 148.45 121.6 146 121.6 L145.95 121.6 141.9 120.95 Q140.15 120.25 140.15 119.35 L140.15 119.25 Q140.35 117.05 141.9 115.45 143.6 113.75 145.95 113.75 L146 113.75 M134.25 128.25 Q134.8 127.6 135.6 127.55 136.4 127.5 137.05 128.05 140.35 130.65 147.6 130.3 148.45 130.25 149.05 130.85 149.65 131.4 149.7 132.2 L149.8 134.2 Q149.85 135.05 149.25 135.65 148.7 136.25 147.9 136.3 137.65 136.75 133.1 132.55 132.5 132 132.45 131.2 132.4 130.35 132.95 129.75 L134.25 128.25"/>
    <path stroke="none" fill="#CDB68D" d="M503 465 L503 467.4 487.6 467.4 487.6 467.35 452 467.4 452 503.75 396 503.75 396 467.4 361.25 467.4 361 465 503 465 M289 469 L288.75 471.4 254 471.4 254 507.75 198 507.75 198 471.4 162.4 471.35 162.4 471.4 147 471.4 147 469 289 469"/>
    <path stroke="none" fill="#876249" d="M503 425.05 L503 432 361 432 361 425.05 503 425.05 M147 429.05 L289 429.05 289 436 147 436 147 429.05"/>
    <path stroke="none" fill="#333333" d="M503 432 L503 465 361 465 361 432 503 432 M487.6 467.4 L488 503.75 452 503.75 452 467.4 487.6 467.35 487.6 467.4 M289 436 L289 469 147 469 147 436 289 436 M198 507.75 L162 507.75 162.4 471.4 162.4 471.35 198 471.4 198 507.75"/>
    <path stroke="none" fill="#814A98" d="M488.8 67 L488.8 75 449.8 75 449.8 67 488.8 67 M347.45 75 L350.1 67 438.85 67 441.45 75 347.45 75 M67.95 245 L156.7 245 159.35 253 65.35 253 67.95 245 M18 253 L18 245 57 245 57 253 18 253 M287.3 246.6 L287.7 246.8 Q290.3 249.55 294.2 250.3 299.35 251.3 303.65 248.5 307.95 245.65 308.95 240.65 309.6 237.7 308.9 235.1 L308.9 234.8 309 234.55 310.15 233.25 310.45 233 310.55 233 310.9 233.05 311.15 233.4 Q313.15 237.5 312.1 242.25 311.25 246.5 308.4 249.45 L305.8 251.6 Q300.65 254.85 294.7 253.7 289.25 252.65 286.05 248.25 L285.9 247.8 286.15 247.45 286.85 246.8 Q287 246.6 287.3 246.6 M248.6 235.1 Q247.8 237.7 248.45 240.65 249.45 245.65 253.85 248.5 258.05 251.3 263.2 250.3 267.1 249.55 269.7 246.8 L270.15 246.6 270.6 246.8 271.3 247.45 271.5 247.8 271.35 248.25 Q268.15 252.65 262.7 253.7 256.75 254.85 251.7 251.6 249.65 250.3 248.25 248.6 246.05 245.9 245.3 242.25 244.3 237.5 246.25 233.4 L246.3 233.35 246.55 233.05 246.95 233 247.3 233.25 248.45 234.55 248.6 234.8 248.6 235.1"/>
    <path stroke="none" fill="#9B59B6" d="M248.6 235.1 L248.6 234.8 248.45 234.55 247.3 233.25 246.95 233 246.55 233.05 246.3 233.35 246.25 233.4 Q244.3 237.5 245.3 242.25 246.05 245.9 248.25 248.6 249.65 250.3 251.7 251.6 256.75 254.85 262.7 253.7 268.15 252.65 271.35 248.25 L271.5 247.8 271.3 247.45 270.6 246.8 270.15 246.6 269.7 246.8 Q267.1 249.55 263.2 250.3 258.05 251.3 253.85 248.5 249.45 245.65 248.45 240.65 247.8 237.7 248.6 235.1 M350.1 67 L356.15 48.75 412.8 48.75 412.8 12 433.45 12 433.45 50.15 438.85 67 350.1 67 M449.8 67 L449.8 49 488.8 49 488.8 67 449.8 67 M424.95 308 L287.4 308 270.45 308 205.95 308 205.95 209 241.95 209 241.95 172.05 315.95 172.05 315.95 209 424.95 209 424.95 308 M67.95 245 L73.35 228.15 73.35 190 94 190 94 226.75 150.65 226.75 156.7 245 67.95 245 M18 245 L18 227 57 227 57 245 18 245 M295 220.05 Q299.85 215.25 301.2 209 L256.7 209 Q258.05 215.25 262.85 220.05 269.55 226.75 278.95 226.75 288.35 226.75 295 220.05 M287.3 246.6 Q287 246.6 286.85 246.8 L286.15 247.45 285.9 247.8 286.05 248.25 Q289.25 252.65 294.7 253.7 300.65 254.85 305.8 251.6 L308.4 249.45 Q311.25 246.5 312.1 242.25 313.15 237.5 311.15 233.4 L310.9 233.05 310.55 233 310.45 233 310.15 233.25 309 234.55 308.9 234.8 308.9 235.1 Q309.6 237.7 308.95 240.65 307.95 245.65 303.65 248.5 299.35 251.3 294.2 250.3 290.3 249.55 287.7 246.8 L287.3 246.6"/>
    <path stroke="none" fill="#E7CBA0" d="M488.75 103.7 L449.75 103.7 488.75 99.35 488.75 103.7 M18.05 281.7 L18.05 277.35 57.05 281.7 18.05 281.7"/>
    <path stroke="none" fill="#7E5A44" d="M218.75 420 L182 420 182 416 218.75 416 218.75 420 M468 412 L468 416 431.25 416 431.25 412 468 412"/>
    <path stroke="none" fill="#694C39" d="M286.85 241.2 L286.8 241.05 286.75 240.6 289.4 212.8 290.15 209 309.55 209 Q315.85 228.65 316 248.85 L315.9 249.45 315.7 249.85 314.95 250.6 313.95 250.85 Q298.7 250.6 287.55 242.2 L286.95 241.5 286.85 241.2 M242.4 249.45 L242.3 248.85 Q242.45 228.65 248.75 209 L268.2 209 268.9 212.8 271.55 240.6 271.5 241.05 271.5 241.25 271.5 241.3 271.35 241.5 270.75 242.2 Q259.6 250.6 244.35 250.85 L243.35 250.6 242.6 249.85 242.4 249.45"/>
    <path stroke="none" fill="#000000" fill-opacity="0.10196078431372549" d="M242.4 249.45 L242.6 249.85 243.35 250.6 244.35 250.85 Q259.6 250.6 270.75 242.2 L271.35 241.5 271.5 241.3 271.35 241.55 270.75 242.35 Q259.6 252.65 244.35 255.5 L243.35 255.4 Q242.85 255.2 242.6 254.8 242.3 254.35 242.3 253.85 L242.4 249.45 M315.9 249.45 L316 253.85 315.7 254.8 314.95 255.4 313.95 255.5 Q298.7 252.65 287.55 242.35 L286.95 241.55 286.85 241.2 286.95 241.5 287.55 242.2 Q298.7 250.6 313.95 250.85 L314.95 250.6 315.7 249.85 315.9 249.45"/>
  </g>
</svg>