<svg xmlns="http://www.w3.org/2000/svg" xmlns:xlink="http://www.w3.org/1999/xlink">
  <defs>
    <linearGradient gradientUnits="userSpaceOnUse" x1="-819.2" x2="819.2" spreadMethod="pad" gradientTransform="matrix(0.00885009765625 0 0 0.013153076171875 73.15 115.7)" id="gradient0">
      <stop offset="0" stop-color="#EECC98"/>
      <stop offset="1" stop-color="#FFE0B1"/>
    </linearGradient>
    <linearGradient gradientUnits="userSpaceOnUse" x1="-819.2" x2="819.2" spreadMethod="pad" gradientTransform="matrix(-0.00885009765625 0 0 0.013153076171875 218.75 115.7)" id="gradient1">
      <stop offset="0" stop-color="#EECC98"/>
      <stop offset="1" stop-color="#FFE0B1"/>
    </linearGradient>
  </defs>
  <g>
    <path stroke="none" fill="#191919" d="M488.8 133 L488.8 126 488.8 49 449.8 49 449.8 101 433.45 50.15 433.45 12 412.8 12 412.8 48.75 356.15 48.75 337.5 105.2 337.5 126 337.5 133 337.5 161.15 344.4 181.25 359.35 181.25 353.3 161 353.3 144.4 393.8 144.4 393.8 173 381.8 173 381.8 193 415.05 193 415.05 162.5 426.8 162.5 426.8 144.25 436.55 144.25 436.55 161 430.15 181.4 445.15 181.4 449.8 166 449.8 242 468.8 242 468.8 254 488.8 254 488.8 133 M34.95 131.9 L34.95 149 108.95 149 108.95 223 182.95 223 182.95 149 330.95 149 330.95 132 330.95 75 182.95 75 182.95 1 108.95 1 108.95 75 34.95 75 34.95 131.9 M424.95 268.5 L424.95 209 411 209 364.95 209 351.95 209 315.95 209 315.95 172.05 241.95 172.05 241.95 209 205.95 209 205.95 313 205.95 319 241.95 319 241.95 355.95 315.95 355.95 315.95 319 424.95 319 424.95 313 424.95 268.5 M503 434.05 L503 360.75 469 361 469 326 431 326 431.25 360.75 361 361 361 434.05 361 441 361 465 361.25 467.4 396 467.4 396 503.75 452 503.75 488 503.75 487.6 467.4 503 467.4 503 465 503 441 503 434.05 M169.3 304 L169.3 283.2 150.65 226.75 94 226.75 94 190 73.35 190 73.35 228.15 57 279 57 227 18 227 18 304 18 311 18 432 38 432 38 420 57 420 57 344 61.65 359.4 76.65 359.4 70.25 339 70.25 322.25 80 322.25 80 340.5 91.75 340.5 91.75 371 125 371 125 351 113 351 113 322.4 153.5 322.4 153.5 339 147.45 359.25 162.4 359.25 169.3 339.15 169.3 311 169.3 304 M289 438.05 L289 365 218.75 364.75 219 330 181 330 181 365 147 364.75 147 438.05 147 445 147 469 147 471 162.4 471 162 507.4 198 507.4 254 507.4 254 471 288.8 471 289 469 289 445 289 438.05 M0 512 L0 0 512 0 512 512 0 512"/>
    <path stroke="none" fill="#FFE0B1" d="M488.8 133 L488.8 254 468.8 254 468.8 242 449.8 242 449.8 166 445.15 181.4 430.15 181.4 436.55 161 436.55 144.25 426.8 144.25 426.8 162.5 415.05 162.5 415.05 193 381.8 193 381.8 173 393.8 173 393.8 144.4 353.3 144.4 353.3 161 359.35 181.25 344.4 181.25 337.5 161.15 337.5 133 488.8 133 M330.95 132 L330.95 149 182.95 149 182.95 223 108.95 223 108.95 149 34.95 149 34.95 131.9 51.75 125.3 Q61 121.5 62.45 111.65 62.8 109.25 64.35 107.7 67.5 104.55 72 104.75 L76.1 104.95 Q71.9 105.4 69 108.2 65.9 111.3 65.9 115.7 L65.9 115.75 Q65.9 120.25 69 123.4 72 126.3 76.1 126.5 L76.3 126.5 Q77.95 126.5 79.2 123.4 80.35 120.3 80.4 115.95 L80.4 115.75 80.4 115.7 Q80.4 113.15 80 111 L89.6 109.8 95.95 89.75 Q99.75 82.5 108.95 83 L123.95 83.65 Q124.3 90.6 137.45 91.95 135.85 88.15 140.6 87.35 143.7 86.75 147.2 87.75 163.5 92.1 182.95 83 L182.95 83.15 Q192.55 79.1 195.95 89.75 L202.3 109.8 211.9 111 Q211.5 113.15 211.5 115.7 L211.5 115.75 211.5 115.95 Q211.55 120.3 212.7 123.4 213.95 126.5 215.6 126.5 L215.8 126.5 Q219.9 126.3 222.9 123.4 226 120.25 226 115.75 L226 115.7 Q226 111.3 222.9 108.2 220 105.4 215.8 104.95 L219.9 104.75 Q224.4 104.55 227.55 107.7 229.1 109.25 229.45 111.65 230.9 121.5 240.15 125.3 L256.95 131.9 256.95 132 330.95 132 M171.95 98.75 Q171.95 97.95 171.35 97.4 170.8 96.85 170 96.9 162.4 97.15 156.75 99.3 156 99.6 155.7 100.3 155.4 101 155.65 101.75 L156.3 103.5 Q156.55 104.2 157.3 104.55 L158.75 104.6 Q163.65 102.8 170.2 102.55 170.95 102.5 171.5 102 172 101.35 172 100.6 L171.95 98.75 M167.8 108.65 Q166.35 107.15 164.2 107.15 162.1 107.15 160.55 108.65 159.05 110.15 159.05 112.3 159.05 114.45 160.55 115.9 162.1 117.45 164.2 117.45 166.35 117.45 167.8 115.9 169.35 114.45 169.35 112.3 169.35 110.15 167.8 108.65 M123.6 128.65 Q121.2 131.85 119.95 136.35 114.05 136.7 108.95 125.35 L108.95 149 182.95 149 182.95 125.55 Q177.85 136.7 172 136.35 168.3 122.7 153.7 121.15 153.35 118.65 151.5 116.8 149.25 114.55 146 114.55 L145.95 114.55 Q142.8 114.55 140.55 116.8 138.7 118.65 138.3 121.15 131.4 121.85 126.95 125.3 L126.6 124.5 126.5 124.35 121.6 118.75 121.15 118.5 120.6 118.6 119.45 119.4 119.15 119.8 119.2 120.35 122.5 127.3 122.6 127.5 123.6 128.65 M135.15 101.75 Q129.5 99.6 121.9 99.35 121.1 99.3 120.55 99.85 119.95 100.4 119.95 101.2 L119.9 103.05 Q119.9 103.8 120.4 104.45 120.95 104.95 121.7 105 128.25 105.25 133.15 107.05 L134.6 107 Q135.35 106.65 135.6 105.95 L136.25 104.2 Q136.5 103.45 136.2 102.75 135.9 102.05 135.15 101.75 M131.25 108.65 Q129.8 107.15 127.7 107.15 125.55 107.15 124 108.65 122.55 110.15 122.55 112.3 122.55 114.45 124 115.9 125.55 117.45 127.7 117.45 129.8 117.45 131.25 115.9 132.8 114.45 132.8 112.3 132.8 110.15 131.25 108.65 M169.3 311 L169.3 339.15 162.4 359.25 147.45 359.25 153.5 339 153.5 322.4 113 322.4 113 351 125 351 125 371 91.75 371 91.75 340.5 80 340.5 80 322.25 70.25 322.25 70.25 339 76.65 359.4 61.65 359.4 57 344 57 420 38 420 38 432 18 432 18 311 169.3 311 M296.2 209 L278.95 234.1 261.65 209 296.2 209"/>
    <path stroke="none" fill="#694C39" d="M411 209 L424.95 209 424.95 268.5 Q409.9 248.65 411 209 M424.95 313 L424.95 319 315.95 319 315.95 355.95 241.95 355.95 241.95 319 205.95 319 205.95 313 270.45 313 270.45 319 287.4 319 287.4 313 424.95 313 M351.95 209 L364.95 209 Q365.95 247.3 352.9 267.15 L351.95 268.5 351.95 209 M503 465 L503 467.4 487.6 467.4 487.6 467.35 452 467.4 452 503.75 396 503.75 396 467.4 361.25 467.4 361 465 503 465 M167.8 108.65 Q169.35 110.15 169.35 112.3 169.35 114.45 167.8 115.9 166.35 117.45 164.2 117.45 162.1 117.45 160.55 115.9 159.05 114.45 159.05 112.3 159.05 110.15 160.55 108.65 162.1 107.15 164.2 107.15 166.35 107.15 167.8 108.65 M131.25 108.65 Q132.8 110.15 132.8 112.3 132.8 114.45 131.25 115.9 129.8 117.45 127.7 117.45 125.55 117.45 124 115.9 122.55 114.45 122.55 112.3 122.55 110.15 124 108.65 125.55 107.15 127.7 107.15 129.8 107.15 131.25 108.65 M315.95 209 L315.95 268.5 Q300.9 248.65 302 209 L315.95 209 M241.95 209 L255.9 209 Q257 248.65 241.95 268.5 L241.95 209 M289 469 L288.8 471 254 471 254 507.4 198 507.4 198 471.05 196.6 471.05 196.15 471.05 168.5 471 162.4 471 147 471 147 469 289 469"/>
    <path stroke="none" fill="#C3DAE2" d="M270.45 313 L270.45 308 287.4 308 287.4 313 287.4 319 270.45 319 270.45 313"/>
    <path stroke="none" fill="url(#gradient0)" d="M80 111 Q80.4 113.15 80.4 115.7 L80.4 115.75 80.4 115.95 Q80.35 120.3 79.2 123.4 77.95 126.5 76.3 126.5 L76.1 126.5 Q72 126.3 69 123.4 65.9 120.25 65.9 115.75 L65.9 115.7 Q65.9 111.3 69 108.2 71.9 105.4 76.1 104.95 L76.3 104.95 Q77.95 104.95 79.2 108.2 L80 111"/>
    <path stroke="none" fill="url(#gradient1)" d="M215.8 104.95 Q220 105.4 222.9 108.2 226 111.3 226 115.7 L226 115.75 Q226 120.25 222.9 123.4 219.9 126.3 215.8 126.5 L215.6 126.5 Q213.95 126.5 212.7 123.4 211.55 120.3 211.5 115.95 L211.5 115.75 211.5 115.7 Q211.5 113.15 211.9 111 L212.7 108.2 Q213.95 104.95 215.6 104.95 L215.8 104.95"/>
    <path stroke="none" fill="#EECC98" d="M123.6 128.65 L122.6 127.5 122.5 127.3 119.2 120.35 119.15 119.8 119.45 119.4 120.6 118.6 121.15 118.5 121.6 118.75 126.5 124.35 126.6 124.5 126.95 125.3 129.6 131.25 129.65 131.8 129.35 132.2 128.35 132.95 127.8 133.05 127.3 132.8 123.6 128.65 M138.3 121.15 Q138.7 118.65 140.55 116.8 142.8 114.55 145.95 114.55 L146 114.55 Q149.25 114.55 151.5 116.8 153.35 118.65 153.7 121.15 L153.75 121.9 153.75 122.05 Q153.75 123.25 151.5 124.15 149.25 125 146 125 L145.95 125 Q142.8 125 140.55 124.15 138.2 123.25 138.2 122.05 L138.2 121.9 138.3 121.15"/>
    <path stroke="none" fill="#C6B088" d="M337.5 126 L337.5 105.2 356.15 48.75 412.8 48.75 412.8 12 433.45 12 433.45 50.15 449.8 101 449.8 49 488.8 49 488.8 126 337.5 126 M488.75 103.7 L488.75 99.35 449.75 103.7 488.75 103.7 M424.95 268.5 L424.95 313 287.4 313 287.4 308 270.45 308 270.45 313 205.95 313 205.95 209 241.95 209 241.95 172.05 315.95 172.05 315.95 209 351.95 209 351.95 268.5 352.9 267.15 Q365.95 247.3 364.95 209 L411 209 Q409.9 248.65 424.95 268.5 M329.45 277 L333.3 260.95 321.25 280 307.95 277.35 318.15 285.45 315.1 290.75 295 293.05 314.6 296.35 322.8 307.4 321.65 291.75 326.05 282.6 339.2 288.75 329.45 277 M18 304 L18 227 57 227 57 279 73.35 228.15 73.35 190 94 190 94 226.75 150.65 226.75 169.3 283.2 169.3 304 18 304 M95.7 264.55 L118.25 265.45 122.65 278.35 124.55 265.45 130.65 265.45 142.65 281.7 135.75 263.05 141.2 250.4 128.25 259.25 118.1 260 116.85 245.55 111.55 259.85 95.7 264.55 M18.05 281.7 L57.05 281.7 18.05 277.35 18.05 281.7 M315.95 209 L302 209 Q300.9 248.65 315.95 268.5 L315.95 209 M278.95 234.1 L299.35 226.85 296.2 209 261.65 209 258.35 219.1 278.95 234.1 M285.2 240.4 Q286 239.65 286 238.55 286 237.45 285.2 236.65 284.45 235.9 283.35 235.9 282.25 235.9 281.45 236.65 280.7 237.45 280.7 238.55 280.7 239.65 281.45 240.4 282.25 241.2 283.35 241.2 284.45 241.2 285.2 240.4 M286 247.05 Q286 245.95 285.2 245.15 284.45 244.4 283.35 244.4 282.25 244.4 281.45 245.15 280.7 245.95 280.7 247.05 280.7 248.15 281.45 248.9 282.25 249.7 283.35 249.7 284.45 249.7 285.2 248.9 286 248.15 286 247.05 M241.95 209 L241.95 268.5 Q257 248.65 255.9 209 L241.95 209"/>
    <path stroke="none" fill="#889176" d="M457.7 382.6 L457.6 382.45 452.7 376.85 Q452.55 376.65 452.25 376.6 L451.7 376.7 450.55 377.5 450.25 377.9 450.3 378.45 453.6 385.4 453.7 385.6 458.4 390.9 458.9 391.15 459.45 391.05 460.45 390.3 460.75 389.9 460.7 389.35 457.7 382.6 M361 434.05 L361 361 431.25 360.75 431 326 469 326 469 361 503 360.75 503 434.05 361 434.05 M147 438.05 L147 364.75 181 365 181 330 219 330 218.75 364.75 289 365 289 438.05 147 438.05 M212 416 Q212 415.05 211.3 414.35 210.6 413.65 209.6 413.65 208.6 413.65 207.9 414.35 207.2 415.05 207.2 416 L202.1 416 Q203.1 414.9 203.1 413.35 203.1 411.7 201.95 410.55 200.8 409.4 199.15 409.4 197.5 409.4 196.35 410.55 195.2 411.7 195.2 413.35 195.2 414.9 196.2 416 L182 416 182 420 189.05 420 Q188.7 420.4 188.7 421 188.7 421.65 189.15 422.1 189.6 422.55 190.25 422.55 190.9 422.55 191.35 422.1 191.8 421.65 191.8 421 191.8 420.4 191.45 420 L218.75 420 218.75 416 212 416 M208 407.8 Q208 407.1 207.5 406.6 207.05 406.15 206.35 406.15 205.65 406.15 205.15 406.6 204.7 407.1 204.7 407.8 204.7 408.5 205.15 408.95 205.65 409.45 206.35 409.45 207.05 409.45 207.5 408.95 208 408.5 208 407.8 M195.8 402.3 Q195.45 402.7 195.45 403.2 195.45 403.7 195.8 404.05 196.2 404.45 196.7 404.45 197.2 404.45 197.55 404.05 197.95 403.7 197.95 403.2 197.95 402.7 197.55 402.3 197.2 401.95 196.7 401.95 196.2 401.95 195.8 402.3 M205.9 421.55 Q205.5 421.15 204.9 421.15 204.3 421.15 203.85 421.55 203.45 422 203.45 422.6 203.45 423.2 203.85 423.6 204.3 424.05 204.9 424.05 205.5 424.05 205.9 423.6 206.35 423.2 206.35 422.6 206.35 422 205.9 421.55 M453 416 L468 416 468 412 453 412 452.35 411.2 Q451.2 410.05 449.55 410.05 447.9 410.05 446.75 411.2 L446.15 412 431.25 412 431.25 416 438.25 416 438.15 416.45 Q438.15 416.95 438.5 417.35 438.9 417.7 439.4 417.7 L440.25 417.35 Q440.65 416.95 440.65 416.45 L440.55 416 446.15 416 446.75 416.8 Q447.9 417.95 449.55 417.95 451.2 417.95 452.35 416.8 L453 416 M450.55 405.25 Q451.25 405.95 452.25 405.95 453.25 405.95 453.95 405.25 454.65 404.55 454.65 403.55 454.65 402.55 453.95 401.85 453.25 401.15 452.25 401.15 451.25 401.15 450.55 401.85 449.85 402.55 449.85 403.55 449.85 404.55 450.55 405.25 M458.8 406.8 Q458.2 406.8 457.75 407.25 457.35 407.65 457.35 408.25 457.35 408.85 457.75 409.3 458.2 409.7 458.8 409.7 459.4 409.7 459.8 409.3 L460.25 408.25 459.8 407.25 Q459.4 406.8 458.8 406.8 M442.35 406.8 Q442.35 407.5 442.8 408 L444 408.45 Q444.7 408.45 445.15 408 445.65 407.5 445.65 406.8 445.65 406.1 445.15 405.65 444.7 405.15 444 405.15 443.3 405.15 442.8 405.65 442.35 406.1 442.35 406.8 M458.3 421.8 Q457.85 421.35 457.2 421.35 456.55 421.35 456.1 421.8 455.65 422.25 455.65 422.9 455.65 423.55 456.1 424 456.55 424.45 457.2 424.45 457.85 424.45 458.3 424 458.75 423.55 458.75 422.9 458.75 422.25 458.3 421.8"/>
    <path stroke="none" fill="#69705A" d="M457.7 382.6 L460.7 389.35 460.75 389.9 460.45 390.3 459.45 391.05 458.9 391.15 458.4 390.9 453.7 385.6 453.6 385.4 450.3 378.45 450.25 377.9 450.55 377.5 451.7 376.7 452.25 376.6 Q452.55 376.65 452.7 376.85 L457.6 382.45 457.7 382.6 M503 434.05 L503 441 466.6 441 450.25 448.5 434.4 441 361 441 361 434.05 503 434.05 M289 438.05 L289 445 215.6 445 199.75 452.5 183.4 445 147 445 147 438.05 289 438.05"/>
    <path stroke="none" fill="#333333" d="M34.95 131.9 L34.95 75 108.95 75 108.95 1 182.95 1 182.95 75 330.95 75 330.95 132 256.95 132 256.95 131.9 240.15 125.3 Q230.9 121.5 229.45 111.65 229.1 109.25 227.55 107.7 224.4 104.55 219.9 104.75 L215.8 104.95 215.6 104.95 Q213.95 104.95 212.7 108.2 L211.9 111 202.3 109.8 195.95 89.75 Q192.55 79.1 182.95 83.15 L182.95 83 Q163.5 92.1 147.2 87.75 143.7 86.75 140.6 87.35 135.85 88.15 137.45 91.95 124.3 90.6 123.95 83.65 L108.95 83 Q99.75 82.5 95.95 89.75 L89.6 109.8 80 111 79.2 108.2 Q77.95 104.95 76.3 104.95 L76.1 104.95 72 104.75 Q67.5 104.55 64.35 107.7 62.8 109.25 62.45 111.65 61 121.5 51.75 125.3 L34.95 131.9 M503 441 L503 465 361 465 361 441 434.4 441 450.25 448.5 466.6 441 503 441 M487.6 467.4 L488 503.75 452 503.75 452 467.4 487.6 467.35 487.6 467.4 M171.95 98.75 L172 100.6 Q172 101.35 171.5 102 170.95 102.5 170.2 102.55 163.65 102.8 158.75 104.6 L157.3 104.55 Q156.55 104.2 156.3 103.5 L155.65 101.75 Q155.4 101 155.7 100.3 156 99.6 156.75 99.3 162.4 97.15 170 96.9 170.8 96.85 171.35 97.4 171.95 97.95 171.95 98.75 M135.15 101.75 Q135.9 102.05 136.2 102.75 136.5 103.45 136.25 104.2 L135.6 105.95 Q135.35 106.65 134.6 107 L133.15 107.05 Q128.25 105.25 121.7 105 120.95 104.95 120.4 104.45 119.9 103.8 119.9 103.05 L119.95 101.2 Q119.95 100.4 120.55 99.85 121.1 99.3 121.9 99.35 129.5 99.6 135.15 101.75 M289 445 L289 469 147 469 147 445 183.4 445 199.75 452.5 215.6 445 289 445 M198 507.4 L162 507.4 162.4 471 168.5 471 196.15 471.05 196.6 471.05 198 471.05 198 507.4"/>
    <path stroke="none" fill="#A4AF8E" d="M212 416 L218.75 416 218.75 420 191.45 420 191.35 419.9 Q190.9 419.45 190.25 419.45 189.6 419.45 189.15 419.9 L189.05 420 182 420 182 416 196.2 416 196.35 416.15 Q197.5 417.3 199.15 417.3 200.8 417.3 201.95 416.15 L202.1 416 207.2 416 207.2 416.05 Q207.2 417.05 207.9 417.75 208.6 418.45 209.6 418.45 210.6 418.45 211.3 417.75 212 417.05 212 416.05 L212 416 M453 412 L468 412 468 416 453 416 Q453.5 415.1 453.5 414 453.5 412.9 453 412 M446.15 416 L440.55 416 440.25 415.6 Q439.9 415.2 439.4 415.2 438.9 415.2 438.5 415.6 L438.25 416 431.25 416 431.25 412 446.15 412 Q445.6 412.9 445.6 414 445.6 415.1 446.15 416"/>
    <path stroke="none" fill="#A18E6D" d="M488.8 126 L488.8 133 337.5 133 337.5 126 488.8 126 M488.75 103.7 L449.75 103.7 488.75 99.35 488.75 103.7 M18 304 L169.3 304 169.3 311 18 311 18 304 M18.05 281.7 L18.05 277.35 57.05 281.7 18.05 281.7"/>
    <path stroke="none" fill="#E7E2DA" d="M164 130.2 Q164.05 129.35 163.5 128.75 L162.2 127.25 Q161.65 126.6 160.85 126.55 160.05 126.5 159.4 127.05 156.1 129.65 148.85 129.3 148 129.25 147.4 129.85 146.8 130.4 146.75 131.2 L146.65 133.2 Q146.6 134.05 147.2 134.65 147.75 135.25 148.55 135.3 158.8 135.75 163.35 131.55 163.95 131 164 130.2 M153.7 121.15 Q168.3 122.7 172 136.35 177.85 136.7 182.95 125.55 L182.95 149 108.95 149 108.95 125.35 Q114.05 136.7 119.95 136.35 121.2 131.85 123.6 128.65 L127.3 132.8 127.8 133.05 128.35 132.95 129.35 132.2 129.65 131.8 129.6 131.25 126.95 125.3 Q131.4 121.85 138.3 121.15 L138.2 121.9 138.2 122.05 Q138.2 123.25 140.55 124.15 142.8 125 145.95 125 L146 125 Q149.25 125 151.5 124.15 153.75 123.25 153.75 122.05 L153.75 121.9 153.7 121.15"/>
    <path stroke="none" fill="#AD9976" d="M286 247.05 Q286 248.15 285.2 248.9 284.45 249.7 283.35 249.7 282.25 249.7 281.45 248.9 280.7 248.15 280.7 247.05 280.7 245.95 281.45 245.15 282.25 244.4 283.35 244.4 284.45 244.4 285.2 245.15 286 245.95 286 247.05 M285.2 240.4 Q284.45 241.2 283.35 241.2 282.25 241.2 281.45 240.4 280.7 239.65 280.7 238.55 280.7 237.45 281.45 236.65 282.25 235.9 283.35 235.9 284.45 235.9 285.2 236.65 286 237.45 286 238.55 286 239.65 285.2 240.4"/>
    <path stroke="none" fill="#D9C195" d="M296.2 209 L299.35 226.85 278.95 234.1 296.2 209 M278.95 234.1 L258.35 219.1 261.65 209 278.95 234.1"/>
    <path stroke="none" fill="#B6A27D" d="M329.45 277 L339.2 288.75 326.05 282.6 321.65 291.75 322.8 307.4 314.6 296.35 295 293.05 315.1 290.75 318.15 285.45 307.95 277.35 321.25 280 333.3 260.95 329.45 277 M95.7 264.55 L111.55 259.85 116.85 245.55 118.1 260 128.25 259.25 141.2 250.4 135.75 263.05 142.65 281.7 130.65 265.45 124.55 265.45 122.65 278.35 118.25 265.45 95.7 264.55"/>
    <path stroke="none" fill="#7E5B44" d="M208 407.8 Q208 408.5 207.5 408.95 207.05 409.45 206.35 409.45 205.65 409.45 205.15 408.95 204.7 408.5 204.7 407.8 204.7 407.1 205.15 406.6 205.65 406.15 206.35 406.15 207.05 406.15 207.5 406.6 208 407.1 208 407.8 M207.2 416 Q207.2 415.05 207.9 414.35 208.6 413.65 209.6 413.65 210.6 413.65 211.3 414.35 212 415.05 212 416 L212 416.05 Q212 417.05 211.3 417.75 210.6 418.45 209.6 418.45 208.6 418.45 207.9 417.75 207.2 417.05 207.2 416.05 L207.2 416 M191.45 420 Q191.8 420.4 191.8 421 191.8 421.65 191.35 422.1 190.9 422.55 190.25 422.55 189.6 422.55 189.15 422.1 188.7 421.65 188.7 421 188.7 420.4 189.05 420 L189.15 419.9 Q189.6 419.45 190.25 419.45 190.9 419.45 191.35 419.9 L191.45 420 M196.2 416 Q195.2 414.9 195.2 413.35 195.2 411.7 196.35 410.55 197.5 409.4 199.15 409.4 200.8 409.4 201.95 410.55 203.1 411.7 203.1 413.35 203.1 414.9 202.1 416 L201.95 416.15 Q200.8 417.3 199.15 417.3 197.5 417.3 196.35 416.15 L196.2 416 M205.9 421.55 Q206.35 422 206.35 422.6 206.35 423.2 205.9 423.6 205.5 424.05 204.9 424.05 204.3 424.05 203.85 423.6 203.45 423.2 203.45 422.6 203.45 422 203.85 421.55 204.3 421.15 204.9 421.15 205.5 421.15 205.9 421.55 M195.8 402.3 Q196.2 401.95 196.7 401.95 197.2 401.95 197.55 402.3 197.95 402.7 197.95 403.2 197.95 403.7 197.55 404.05 197.2 404.45 196.7 404.45 196.2 404.45 195.8 404.05 195.45 403.7 195.45 403.2 195.45 402.7 195.8 402.3 M453 412 Q453.5 412.9 453.5 414 453.5 415.1 453 416 L452.35 416.8 Q451.2 417.95 449.55 417.95 447.9 417.95 446.75 416.8 L446.15 416 Q445.6 415.1 445.6 414 445.6 412.9 446.15 412 L446.75 411.2 Q447.9 410.05 449.55 410.05 451.2 410.05 452.35 411.2 L453 412 M440.55 416 L440.65 416.45 Q440.65 416.95 440.25 417.35 L439.4 417.7 Q438.9 417.7 438.5 417.35 438.15 416.95 438.15 416.45 L438.25 416 438.5 415.6 Q438.9 415.2 439.4 415.2 439.9 415.2 440.25 415.6 L440.55 416 M458.8 406.8 Q459.4 406.8 459.8 407.25 L460.25 408.25 459.8 409.3 Q459.4 409.7 458.8 409.7 458.2 409.7 457.75 409.3 457.35 408.85 457.35 408.25 457.35 407.65 457.75 407.25 458.2 406.8 458.8 406.8 M450.55 405.25 Q449.85 404.55 449.85 403.55 449.85 402.55 450.55 401.85 451.25 401.15 452.25 401.15 453.25 401.15 453.95 401.85 454.65 402.55 454.65 403.55 454.65 404.55 453.95 405.25 453.25 405.95 452.25 405.95 451.25 405.95 450.55 405.25 M458.3 421.8 Q458.75 422.25 458.75 422.9 458.75 423.55 458.3 424 457.85 424.45 457.2 424.45 456.55 424.45 456.1 424 455.65 423.55 455.65 422.9 455.65 422.25 456.1 421.8 456.55 421.35 457.2 421.35 457.85 421.35 458.3 421.8 M442.35 406.8 Q442.35 406.1 442.8 405.65 443.3 405.15 444 405.15 444.7 405.15 445.15 405.65 445.65 406.1 445.65 406.8 445.65 407.5 445.15 408 444.7 408.45 444 408.45 L442.8 408 Q442.35 407.5 442.35 406.8"/>
    <path stroke="none" fill="#A6A29C" d="M164 130.2 Q163.95 131 163.35 131.55 158.8 135.75 148.55 135.3 147.75 135.25 147.2 134.65 146.6 134.05 146.65 133.2 L146.75 131.2 Q146.8 130.4 147.4 129.85 148 129.25 148.85 129.3 156.1 129.65 159.4 127.05 160.05 126.5 160.85 126.55 161.65 126.6 162.2 127.25 L163.5 128.75 Q164.05 129.35 164 130.2"/>
    <path stroke="none" fill="#7E5B44" d="M360.35 235.5 L360.35 218.35 Q360.35 215.75 362.95 215.75 L413 215.75 Q415.6 215.75 415.6 218.35 L415.6 235.5 387.95 239.5 360.35 235.5 M415.6 240.5 L415.6 273.15 Q415.6 275.75 413 275.75 L410.45 275.75 401.6 275.75 403.75 263.25 397.3 257.3 378.55 257.3 372.15 263.25 374.25 275.75 365.5 275.75 362.95 275.75 Q360.35 275.75 360.35 273.15 L360.35 240.5 387.95 244.5 415.6 240.5 M387.95 231.85 Q386.85 231.85 386.05 232.6 385.3 233.4 385.3 234.5 385.3 235.6 386.05 236.35 386.85 237.15 387.95 237.15 389.05 237.15 389.8 236.35 390.6 235.6 390.6 234.5 390.6 233.4 389.8 232.6 389.05 231.85 387.95 231.85"/>
    <path stroke="none" fill="#694C39" d="M387.95 231.85 Q389.05 231.85 389.8 232.6 390.6 233.4 390.6 234.5 390.6 235.6 389.8 236.35 389.05 237.15 387.95 237.15 386.85 237.15 386.05 236.35 385.3 235.6 385.3 234.5 385.3 233.4 386.05 232.6 386.85 231.85 387.95 231.85 M415.6 235.5 L415.6 240.5 387.95 244.5 360.35 240.5 360.35 235.5 387.95 239.5 415.6 235.5 M374.25 275.75 L372.15 263.25 378.55 257.3 397.3 257.3 403.75 263.25 401.6 275.75 374.25 275.75"/>
    <path stroke="none" fill="#000000" fill-opacity="0.10196078431372549" d="M374.25 275.75 L401.6 275.75 410.45 275.75 Q388 281.5 365.5 275.75 L374.25 275.75"/>
  </g>
</svg>