
<svg xmlns="http://www.w3.org/2000/svg" version="1.1" xmlns:xlink="http://www.w3.org/1999/xlink" preserveAspectRatio="none" x="0px" y="0px" width="512px" height="512px" viewBox="0 0 512 512">
<defs>
<linearGradient id="Gradient_1" gradientUnits="userSpaceOnUse" x1="65.9" y1="115.7" x2="80.4" y2="115.7" spreadMethod="pad">
<stop  offset="0%" stop-color="#EECC98"/>

<stop  offset="100%" stop-color="#FFE0B1"/>
</linearGradient>

<linearGradient id="Gradient_2" gradientUnits="userSpaceOnUse" x1="226" y1="115.7" x2="211.5" y2="115.7" spreadMethod="pad">
<stop  offset="0%" stop-color="#EECC98"/>

<stop  offset="100%" stop-color="#FFE0B1"/>
</linearGradient>

<g id="Layer0_0_FILL">
<path fill="#191919" stroke="none" d="
M 0 0
L 0 512 512 512 512 0 0 0
M 488.8 113.7
L 488.8 120.65 488.8 127.6 488.8 254 468.8 254 468.8 242 449.8 242 449.8 166 445.15 181.4 430.15 181.4 436.55 161 436.55 144.25 426.8 144.25 426.8 162.5 415.05 162.5 415.05 193 381.8 193 381.8 173 393.8 173 393.8 144.4 353.3 144.4 353.3 161 359.35 181.25 344.4 181.25 337.5 161.15 337.5 127.6 337.5 120.65 337.5 113.7 337.5 105.2 356.15 48.75 412.8 48.75 412.8 12 433.45 12 433.45 50.15 449.8 101 449.8 49 488.8 49 488.8 113.7
M 330.95 132
L 330.95 149 182.95 149 182.95 223 108.95 223 108.95 149 34.95 149 34.95 131.9 34.95 75 108.95 75 108.95 1 182.95 1 182.95 75 330.95 75 330.95 132
M 424.95 313
L 424.95 319 315.95 319 315.95 355.95 241.95 355.95 241.95 319 205.95 319 205.95 313 205.95 209 241.95 209 241.95 172.05 251.8 172.05 307.55 172.05 315.95 172.05 315.95 209 424.95 209 424.95 313
M 469 326
L 469 361 503 360.75 503 432 503 465 503 467.4 487.6 467.4 488 503.75 452 503.75 396 503.75 396 467.4 361.25 467.4 361 465 361 432 361 361 431.25 360.75 431 326 469 326
M 73.35 190
L 94 190 94 226.75 150.65 226.75 169.3 283.2 169.3 291.7 169.3 298.65 169.3 305.6 169.3 339.15 162.4 359.25 147.45 359.25 153.5 339 153.5 322.4 113 322.4 113 351 125 351 125 371 91.75 371 91.75 340.5 80 340.5 80 322.25 70.25 322.25 70.25 339 76.65 359.4 61.65 359.4 57 344 57 420 38 420 38 432 18 432 18 305.6 18 298.65 18 291.7 18 227 57 227 57 279 73.35 228.15 73.35 190
M 181 365
L 181 330 219 330 218.75 364.75 289 365 289 436 289 469 288.75 471.4 254 471.4 254 507.75 198 507.75 162 507.75 162.4 471.4 147 471.4 147 469 147 436 147 364.75 181 365 Z"/>

<path fill="#72523E" stroke="none" d="
M 198 471.4
L 162.4 471.35 162.4 471.4 162 507.75 198 507.75 198 471.4
M 289 469
L 289 436 147 436 147 469 289 469
M 229.85 443.85
Q 230.2 443.35 230.75 443.2
L 233.5 442.55 234.95 440.2
Q 235.25 439.7 235.8 439.5 236.35 439.3 236.95 439.5 237.5 439.7 237.8 440.2
L 239.25 442.55 241.95 443.2
Q 242.5 443.35 242.9 443.85 243.25 444.3 243.25 444.9 243.2 445.45 242.85 445.95
L 241.05 448.05 241.25 450.8
Q 241.3 451.4 240.95 451.9 240.6 452.4 240.05 452.55 239.45 452.75 238.9 452.5
L 236.35 451.45 233.8 452.5
Q 233.25 452.75 232.7 452.55 232.1 452.4 231.8 451.9 231.45 451.4 231.45 450.8
L 231.7 448.05 229.9 445.95
Q 229.5 445.45 229.5 444.9 229.45 444.3 229.85 443.85
M 170.55 443.85
Q 170.9 444.3 170.9 444.9 170.85 445.45 170.5 445.95
L 168.7 448.05 168.9 450.8
Q 168.95 451.4 168.6 451.9 168.25 452.4 167.7 452.55 167.1 452.75 166.55 452.5
L 164 451.45 161.45 452.5
Q 160.9 452.75 160.35 452.55 159.75 452.4 159.45 451.9 159.1 451.4 159.1 450.8
L 159.35 448.05 157.55 445.95
Q 157.15 445.45 157.15 444.9 157.1 444.3 157.5 443.85 157.85 443.35 158.4 443.2
L 161.15 442.55 162.6 440.2
Q 162.9 439.7 163.45 439.5 164 439.3 164.6 439.5 165.15 439.7 165.45 440.2
L 166.9 442.55 169.6 443.2
Q 170.15 443.35 170.55 443.85
M 80 322.25
L 80 340.5 91.75 340.5 91.75 371 125 371 125 351 113 351 113 322.4 153.5 322.4 153.5 339 147.45 359.25 162.4 359.25 169.3 339.15 169.3 305.6 18 305.6 18 432 38 432 38 420 57 420 57 344 61.65 359.4 76.65 359.4 70.25 339 70.25 322.25 80 322.25
M 503 465
L 503 432 361 432 361 465 503 465
M 486.55 435.5
Q 487.1 435.7 487.4 436.2
L 488.85 438.55 491.6 439.2
Q 492.15 439.35 492.5 439.85 492.9 440.3 492.85 440.9 492.85 441.45 492.45 441.95
L 490.65 444.05 490.9 446.8
Q 490.9 447.4 490.55 447.9 490.25 448.4 489.65 448.55 489.1 448.75 488.55 448.5
L 486 447.45 483.45 448.5
Q 482.9 448.75 482.3 448.55 481.75 448.4 481.4 447.9 481.05 447.4 481.1 446.8
L 481.3 444.05 479.5 441.95
Q 479.15 441.45 479.1 440.9 479.1 440.3 479.45 439.85 479.85 439.35 480.4 439.2
L 483.1 438.55 484.55 436.2
Q 484.85 435.7 485.4 435.5 486 435.3 486.55 435.5
M 414.2 435.5
Q 414.75 435.7 415.05 436.2
L 416.5 438.55 419.25 439.2
Q 419.8 439.35 420.15 439.85 420.55 440.3 420.5 440.9 420.5 441.45 420.1 441.95
L 418.3 444.05 418.55 446.8
Q 418.55 447.4 418.2 447.9 417.9 448.4 417.3 448.55 416.75 448.75 416.2 448.5
L 413.65 447.45 411.1 448.5
Q 410.55 448.75 409.95 448.55 409.4 448.4 409.05 447.9 408.7 447.4 408.75 446.8
L 408.95 444.05 407.15 441.95
Q 406.8 441.45 406.75 440.9 406.75 440.3 407.1 439.85 407.5 439.35 408.05 439.2
L 410.75 438.55 412.2 436.2
Q 412.5 435.7 413.05 435.5 413.65 435.3 414.2 435.5
M 487.6 467.4
L 487.6 467.35 452 467.4 452 503.75 488 503.75 487.6 467.4
M 251.8 172.05
L 241.95 172.05 241.95 209 205.95 209 205.95 313 258.25 313
Q 258.55 309.6 259.15 306.45 259.8 302.8 260.8 299.5 261.65 296.6 262.8 294 264.4 290.35 266.45 287.25 266.95 286.5 267.5 285.75
L 245.25 218.25 251.8 209 251.8 172.05
M 258.05 278.4
Q 258.3 278.25 258.6 278.25 258.85 278.25 259.1 278.45 259.3 278.6 259.4 278.85
L 261.25 282.95
Q 261.4 283.3 261.3 283.7 261.15 284.05 260.85 284.25
L 248 291.15
Q 247.75 291.25 247.45 291.25 247.2 291.25 246.95 291.1 246.7 290.9 246.6 290.7
L 244.6 286.45
Q 244.4 286.05 244.55 285.7 244.7 285.3 245.05 285.15
L 258.05 278.4
M 241.55 246.9
L 226.45 240 226.45 226.4 230.8 237.05 241.55 246.9
M 351.95 313
L 388.45 305.25 424.95 313 424.95 209 315.95 209 315.95 172.05 307.55 172.05 307.55 209 306.1 209 312.65 218.25 290.4 285.75
Q 290.95 286.5 291.45 287.25 292.3 288.55 293.1 289.95 293.7 290.95 294.25 292.1 295.95 295.55 297.15 299.5 297.8 301.65 298.3 303.95 299.2 308.2 299.65 313
L 351.95 313
M 362.5 287.25
L 354 289.15 361.95 283.15 365.15 276.15 361.25 268.65 369.5 274.9 366.75 283.5 370.5 290.65 362.5 287.25
M 298.5 278.85
Q 298.6 278.6 298.8 278.45 299.05 278.25 299.3 278.25 299.6 278.25 299.85 278.4
L 312.85 285.15
Q 313.2 285.3 313.35 285.7 313.5 286.05 313.3 286.45
L 311.3 290.7
Q 311.2 290.9 310.95 291.1 310.7 291.25 310.45 291.25 310.15 291.25 309.9 291.15
L 297.05 284.25
Q 296.75 284.05 296.6 283.7 296.5 283.3 296.65 282.95
L 298.5 278.85
M 337.5 161.15
L 344.4 181.25 359.35 181.25 353.3 161 353.3 144.4 393.8 144.4 393.8 173 381.8 173 381.8 193 415.05 193 415.05 162.5 426.8 162.5 426.8 144.25 436.55 144.25 436.55 161 430.15 181.4 445.15 181.4 449.8 166 449.8 242 468.8 242 468.8 254 488.8 254 488.8 127.6 337.5 127.6 337.5 161.15 Z"/>

<path fill="#855F48" stroke="none" d="
M 170.9 444.9
Q 170.9 444.3 170.55 443.85 170.15 443.35 169.6 443.2
L 166.9 442.55 165.45 440.2
Q 165.15 439.7 164.6 439.5 164 439.3 163.45 439.5 162.9 439.7 162.6 440.2
L 161.15 442.55 158.4 443.2
Q 157.85 443.35 157.5 443.85 157.1 444.3 157.15 444.9 157.15 445.45 157.55 445.95
L 159.35 448.05 159.1 450.8
Q 159.1 451.4 159.45 451.9 159.75 452.4 160.35 452.55 160.9 452.75 161.45 452.5
L 164 451.45 166.55 452.5
Q 167.1 452.75 167.7 452.55 168.25 452.4 168.6 451.9 168.95 451.4 168.9 450.8
L 168.7 448.05 170.5 445.95
Q 170.85 445.45 170.9 444.9
M 230.75 443.2
Q 230.2 443.35 229.85 443.85 229.45 444.3 229.5 444.9 229.5 445.45 229.9 445.95
L 231.7 448.05 231.45 450.8
Q 231.45 451.4 231.8 451.9 232.1 452.4 232.7 452.55 233.25 452.75 233.8 452.5
L 236.35 451.45 238.9 452.5
Q 239.45 452.75 240.05 452.55 240.6 452.4 240.95 451.9 241.3 451.4 241.25 450.8
L 241.05 448.05 242.85 445.95
Q 243.2 445.45 243.25 444.9 243.25 444.3 242.9 443.85 242.5 443.35 241.95 443.2
L 239.25 442.55 237.8 440.2
Q 237.5 439.7 236.95 439.5 236.35 439.3 235.8 439.5 235.25 439.7 234.95 440.2
L 233.5 442.55 230.75 443.2
M 288.75 471.4
L 289 469 147 469 147 471.4 162.4 471.4 162.4 471.35 198 471.4 198 507.75 254 507.75 254 471.4 288.75 471.4
M 415.05 436.2
Q 414.75 435.7 414.2 435.5 413.65 435.3 413.05 435.5 412.5 435.7 412.2 436.2
L 410.75 438.55 408.05 439.2
Q 407.5 439.35 407.1 439.85 406.75 440.3 406.75 440.9 406.8 441.45 407.15 441.95
L 408.95 444.05 408.75 446.8
Q 408.7 447.4 409.05 447.9 409.4 448.4 409.95 448.55 410.55 448.75 411.1 448.5
L 413.65 447.45 416.2 448.5
Q 416.75 448.75 417.3 448.55 417.9 448.4 418.2 447.9 418.55 447.4 418.55 446.8
L 418.3 444.05 420.1 441.95
Q 420.5 441.45 420.5 440.9 420.55 440.3 420.15 439.85 419.8 439.35 419.25 439.2
L 416.5 438.55 415.05 436.2
M 487.4 436.2
Q 487.1 435.7 486.55 435.5 486 435.3 485.4 435.5 484.85 435.7 484.55 436.2
L 483.1 438.55 480.4 439.2
Q 479.85 439.35 479.45 439.85 479.1 440.3 479.1 440.9 479.15 441.45 479.5 441.95
L 481.3 444.05 481.1 446.8
Q 481.05 447.4 481.4 447.9 481.75 448.4 482.3 448.55 482.9 448.75 483.45 448.5
L 486 447.45 488.55 448.5
Q 489.1 448.75 489.65 448.55 490.25 448.4 490.55 447.9 490.9 447.4 490.9 446.8
L 490.65 444.05 492.45 441.95
Q 492.85 441.45 492.85 440.9 492.9 440.3 492.5 439.85 492.15 439.35 491.6 439.2
L 488.85 438.55 487.4 436.2
M 487.6 467.35
L 487.6 467.4 503 467.4 503 465 361 465 361.25 467.4 396 467.4 396 503.75 452 503.75 452 467.4 487.6 467.35 Z"/>

<path fill="#34495E" stroke="none" d="
M 181 330
L 181 365 147 364.75 147 436 289 436 289 365 218.75 364.75 219 330 181 330
M 218.75 416
L 218.75 420 182 420 182 416 218.75 416
M 469 361
L 469 326 431 326 431.25 360.75 361 361 361 432 503 432 503 360.75 469 361
M 468 412
L 468 416 431.25 416 431.25 412 468 412 Z"/>

<path fill="#3C556D" stroke="none" d="
M 218.75 420
L 218.75 416 182 416 182 420 218.75 420
M 468 416
L 468 412 431.25 412 431.25 416 468 416 Z"/>

<path fill="#C9916C" stroke="none" d="
M 18 291.7
L 18 298.65 169.3 298.65 169.3 291.7 18 291.7
M 488.8 120.65
L 488.8 113.7 337.5 113.7 337.5 120.65 488.8 120.65 Z"/>

<path fill="#5B4231" stroke="none" d="
M 18 298.65
L 18 305.6 169.3 305.6 169.3 298.65 18 298.65
M 488.8 127.6
L 488.8 120.65 337.5 120.65 337.5 127.6 488.8 127.6 Z"/>

<path fill="#E05848" stroke="none" d="
M 94 190
L 73.35 190 73.35 228.15 57 279 57 227 18 227 18 291.7 169.3 291.7 169.3 283.2 150.65 226.75 94 226.75 94 190
M 130.15 274.2
L 133.35 267.2 129.45 259.7 137.7 265.95 134.95 274.55 138.7 281.7 130.7 278.3 122.2 280.2 130.15 274.2
M 18.05 281.7
L 18.05 277.35 57.05 281.7 18.05 281.7
M 41.75 251.15
L 52.5 261 37.4 254.1 37.4 240.5 41.75 251.15
M 287.4 308
L 287.4 313 297.5 313 294.15 304.6
Q 277.35 307 259.15 306.45 258.55 309.6 258.25 313
L 270.45 313 270.45 308 287.4 308
M 307.55 172.05
L 251.8 172.05 251.8 209
Q 263.15 246.05 267.5 285.75 266.95 286.5 266.45 287.25 264.4 290.35 262.8 294 273 294.05 282.6 293.3 286.05 293.05 289.4 292.7
L 288.85 291.3 293.1 289.95
Q 292.3 288.55 291.45 287.25 290.95 286.5 290.4 285.75 294.75 246.05 306.1 209
L 307.55 209 307.55 172.05
M 296.2 209
L 299.35 226.85 278.95 234.1 258.35 219.1 261.65 209 296.2 209
M 286 238.55
Q 286 239.65 285.2 240.4 284.45 241.2 283.35 241.2 282.25 241.2 281.45 240.4 280.7 239.65 280.7 238.55 280.7 237.45 281.45 236.65 282.25 235.9 283.35 235.9 284.45 235.9 285.2 236.65 286 237.45 286 238.55
M 285.2 245.15
Q 286 245.95 286 247.05 286 248.15 285.2 248.9 284.45 249.7 283.35 249.7 282.25 249.7 281.45 248.9 280.7 248.15 280.7 247.05 280.7 245.95 281.45 245.15 282.25 244.4 283.35 244.4 284.45 244.4 285.2 245.15
M 388.45 305.25
L 351.95 313 424.95 313 388.45 305.25
M 488.8 113.7
L 488.8 49 449.8 49 449.8 101 433.45 50.15 433.45 12 412.8 12 412.8 48.75 356.15 48.75 337.5 105.2 337.5 113.7 488.8 113.7
M 488.75 99.35
L 488.75 103.7 449.75 103.7 488.75 99.35
M 415.15 73.75
L 417.05 66.3 414.6 56.65 420.05 63.45 428.4 65.8 421 69.05 417.75 77.5 407.4 77.2 415.15 73.75
M 356.3 96.4
L 360.65 85.75 360.65 99.35 345.55 106.25 356.3 96.4 Z"/>

<path fill="#CB4F41" stroke="none" d="
M 52.5 261
L 41.75 251.15 37.4 240.5 37.4 254.1 52.5 261
M 133.35 267.2
L 130.15 274.2 122.2 280.2 130.7 278.3 138.7 281.7 134.95 274.55 137.7 265.95 129.45 259.7 133.35 267.2
M 360.65 85.75
L 356.3 96.4 345.55 106.25 360.65 99.35 360.65 85.75
M 417.05 66.3
L 415.15 73.75 407.4 77.2 417.75 77.5 421 69.05 428.4 65.8 420.05 63.45 414.6 56.65 417.05 66.3 Z"/>

<path fill="#C44C3D" stroke="none" d="
M 18.05 277.35
L 18.05 281.7 57.05 281.7 18.05 277.35
M 488.75 103.7
L 488.75 99.35 449.75 103.7 488.75 103.7 Z"/>

<path fill="#C3DAE2" stroke="none" d="
M 287.4 319
L 287.4 313 287.4 308 270.45 308 270.45 313 270.45 319 287.4 319 Z"/>

<path fill="#4F4F4F" stroke="none" d="
M 293.1 289.95
L 288.85 291.3 289.4 292.7 294.15 304.6 297.5 313 299.65 313
Q 299.2 308.2 298.3 303.95 297.8 301.65 297.15 299.5 295.95 295.55 294.25 292.1 293.7 290.95 293.1 289.95 Z"/>

<path fill="#333333" stroke="none" d="
M 282.6 293.3
Q 273 294.05 262.8 294 261.65 296.6 260.8 299.5 259.8 302.8 259.15 306.45 277.35 307 294.15 304.6
L 289.4 292.7
Q 286.05 293.05 282.6 293.3 Z"/>

<path fill="#694B39" stroke="none" d="
M 251.8 209
L 245.25 218.25 267.5 285.75
Q 263.15 246.05 251.8 209
M 312.65 218.25
L 306.1 209
Q 294.75 246.05 290.4 285.75
L 312.65 218.25 Z"/>

<path fill="#7E5A44" stroke="none" d="
M 226.45 240
L 241.55 246.9 230.8 237.05 226.45 226.4 226.45 240
M 354 289.15
L 362.5 287.25 370.5 290.65 366.75 283.5 369.5 274.9 361.25 268.65 365.15 276.15 361.95 283.15 354 289.15 Z"/>

<path fill="#5D4232" stroke="none" d="
M 258.6 278.25
Q 258.3 278.25 258.05 278.4
L 245.05 285.15
Q 244.7 285.3 244.55 285.7 244.4 286.05 244.6 286.45
L 246.6 290.7
Q 246.7 290.9 246.95 291.1 247.2 291.25 247.45 291.25 247.75 291.25 248 291.15
L 260.85 284.25
Q 261.15 284.05 261.3 283.7 261.4 283.3 261.25 282.95
L 259.4 278.85
Q 259.3 278.6 259.1 278.45 258.85 278.25 258.6 278.25
M 298.8 278.45
Q 298.6 278.6 298.5 278.85
L 296.65 282.95
Q 296.5 283.3 296.6 283.7 296.75 284.05 297.05 284.25
L 309.9 291.15
Q 310.15 291.25 310.45 291.25 310.7 291.25 310.95 291.1 311.2 290.9 311.3 290.7
L 313.3 286.45
Q 313.5 286.05 313.35 285.7 313.2 285.3 312.85 285.15
L 299.85 278.4
Q 299.6 278.25 299.3 278.25 299.05 278.25 298.8 278.45 Z"/>

<path fill="#694C39" stroke="none" d="
M 286 247.05
Q 286 245.95 285.2 245.15 284.45 244.4 283.35 244.4 282.25 244.4 281.45 245.15 280.7 245.95 280.7 247.05 280.7 248.15 281.45 248.9 282.25 249.7 283.35 249.7 284.45 249.7 285.2 248.9 286 248.15 286 247.05
M 285.2 240.4
Q 286 239.65 286 238.55 286 237.45 285.2 236.65 284.45 235.9 283.35 235.9 282.25 235.9 281.45 236.65 280.7 237.45 280.7 238.55 280.7 239.65 281.45 240.4 282.25 241.2 283.35 241.2 284.45 241.2 285.2 240.4
M 424.95 319
L 424.95 313 351.95 313 299.65 313 297.5 313 287.4 313 287.4 319 270.45 319 270.45 313 258.25 313 205.95 313 205.95 319 241.95 319 241.95 355.95 315.95 355.95 315.95 319 424.95 319
M 164.2 120.55
Q 164.15 120.55 164.1 120.55 161.8 119 159.45 121.75 156.52578125 120.5431640625 153.75 119.75 153.7462890625 119.8279296875 153.75 119.9
L 153.75 120.05
Q 153.75 120.6076171875 153.25 121.1 152.7044921875 121.6681640625 151.5 122.15 149.25 123 146 123
L 145.95 123
Q 142.8 123 140.55 122.15 139.2974609375 121.6703125 138.7 121.1 138.3091796875 120.7099609375 138.2 120.25 136.269921875 120.91640625 134.25 121.75 131.9 119 129.6 120.55 129.55 120.55 129.5 120.55 128.25 121.8 128.6 124.15 128.6666015625 124.6333984375 128.8 125.15 129.4 127.1 130.75 128.6 130.75 128.65 130.8 128.7 133.3 130.4 136.4 130.75
L 136.4 130.8
Q 142.15390625 130.8 146.85 127.3 151.54609375 130.8 157.3 130.8
L 157.3 130.75
Q 160.4 130.4 162.9 128.7 162.95 128.65 162.95 128.6 164.287890625 127.1134765625 164.9 125.15
L 164.9 125.15
Q 165.7 122.05 164.2 120.55
M 127.7 107.15
Q 125.55 107.15 124 108.65 122.55 110.15 122.55 112.3 122.55 114.45 124 115.9 125.55 117.45 127.7 117.45 129.8 117.45 131.25 115.9 132.8 114.45 132.8 112.3 132.8 110.15 131.25 108.65 129.8 107.15 127.7 107.15
M 135.05 101.35
Q 134.7 100.75 133.9 100.55 128.05 99 120.45 99.6 119.7 99.65 119.2 100.25 118.65 100.9 118.75 101.7
L 118.9 103.5
Q 119 104.25 119.55 104.85 120.15 105.3 120.95 105.25 127.45 104.75 132.5 106 133.3 106.15 133.95 105.8 134.65 105.35 134.85 104.65
L 135.3 102.8
Q 135.45 102.05 135.05 101.35
M 167.8 108.65
Q 166.35 107.15 164.2 107.15 162.1 107.15 160.55 108.65 159.05 110.15 159.05 112.3 159.05 114.45 160.55 115.9 162.1 117.45 164.2 117.45 166.35 117.45 167.8 115.9 169.35 114.45 169.35 112.3 169.35 110.15 167.8 108.65
M 171.75 98.7
Q 171.35 98.1 170.55 98 162.95 97.15 157.1 98.4 156.3 98.6 155.9 99.25 155.5 99.9 155.65 100.7
L 156 102.5
Q 156.15 103.25 156.8 103.7 157.45 104.1 158.25 103.95 163.35 102.9 169.9 103.65 170.6 103.7 171.25 103.3 171.85 102.7 171.95 101.95
L 172.15 100.1
Q 172.3 99.35 171.75 98.7
M 330.95 132
L 330.95 75 182.95 75 182.95 1 108.95 1 108.95 75 34.95 75 34.95 131.9 51.75 125.3
Q 61 121.5 62.45 111.65 62.8 109.25 64.35 107.7 67.5 104.55 72 104.75 73.8 104.65 76.1 104.95
L 76.3 104.95
Q 77.95 104.95 79.2 108.2 79.7 109.5 80 111 80.4 113.15 80.4 115.7
L 80.4 115.75 84.8 111.9 88.5 114.65 89.6 109.8 95.95 89.75
Q 99.75 82.5 108.95 83 118.2 83.4 132.9 85.65 147.55 87.85 155.55 90 163.5 92.1 182.95 83 192.15 82.5 195.95 89.75
L 202.3 109.8 203.4 114.65 207.1 111.9 211.5 115.75 211.5 115.7
Q 211.5 113.15 211.9 111 212.2 109.5 212.7 108.2 213.95 104.95 215.6 104.95
L 215.8 104.95
Q 218.1 104.65 219.9 104.75 224.4 104.55 227.55 107.7 229.1 109.25 229.45 111.65 230.9 121.5 240.15 125.3
L 256.95 131.9 256.95 132 330.95 132 Z"/>

<path fill="#FFE0B1" stroke="none" d="
M 261.65 209
L 278.95 234.1 296.2 209 261.65 209
M 330.95 149
L 330.95 132 256.95 132 256.95 131.9 240.15 125.3
Q 230.9 121.5 229.45 111.65 229.1 109.25 227.55 107.7 224.4 104.55 219.9 104.75 218.1 104.65 215.8 104.95 220 105.4 222.9 108.2 226 111.3 226 115.7
L 226 115.75
Q 226 120.25 222.9 123.4 219.9 126.3 215.8 126.5
L 215.6 126.5
Q 213.95 126.5 212.7 123.4 211.55 120.3 211.5 115.95 211.5 115.85 211.5 115.75
L 207.1 111.9 203.4 114.65 202.3 109.8 195.95 89.75
Q 192.15 82.5 182.95 83 163.5 92.1 155.55 90 147.55 87.85 132.9 85.65 118.2 83.4 108.95 83 99.75 82.5 95.95 89.75
L 89.6 109.8 88.5 114.65 84.8 111.9 80.4 115.75
Q 80.4 115.85 80.4 115.95 80.35 120.3 79.2 123.4 77.95 126.5 76.3 126.5
L 76.1 126.5
Q 72 126.3 69 123.4 65.9 120.25 65.9 115.75
L 65.9 115.7
Q 65.9 111.3 69 108.2 71.9 105.4 76.1 104.95 73.8 104.65 72 104.75 67.5 104.55 64.35 107.7 62.8 109.25 62.45 111.65 61 121.5 51.75 125.3
L 34.95 131.9 34.95 149 108.95 149 108.95 125.35
Q 114.05 136.7 119.95 136.35 122.2201171875 127.9853515625 128.6 124.15 128.25 121.8 129.5 120.55 129.55 120.55 129.6 120.55 131.9 119 134.25 121.75 136.269921875 120.91640625 138.2 120.25 138.2 120.16796875 138.2 120.05
L 138.2 119.9
Q 138.45 116.95 140.55 114.8 142.8 112.55 145.95 112.55
L 146 112.55
Q 149.25 112.55 151.5 114.8 153.5486328125 116.8974609375 153.75 119.75 156.52578125 120.5431640625 159.45 121.75 161.8 119 164.1 120.55 164.15 120.55 164.2 120.55 165.7 122.05 164.9 125.15
L 164.9 125.15
Q 170.0126953125 129.026953125 172 136.35 177.85 136.7 182.95 125.55
L 182.95 149 330.95 149
M 170.55 98
Q 171.35 98.1 171.75 98.7 172.3 99.35 172.15 100.1
L 171.95 101.95
Q 171.85 102.7 171.25 103.3 170.6 103.7 169.9 103.65 163.35 102.9 158.25 103.95 157.45 104.1 156.8 103.7 156.15 103.25 156 102.5
L 155.65 100.7
Q 155.5 99.9 155.9 99.25 156.3 98.6 157.1 98.4 162.95 97.15 170.55 98
M 164.2 107.15
Q 166.35 107.15 167.8 108.65 169.35 110.15 169.35 112.3 169.35 114.45 167.8 115.9 166.35 117.45 164.2 117.45 162.1 117.45 160.55 115.9 159.05 114.45 159.05 112.3 159.05 110.15 160.55 108.65 162.1 107.15 164.2 107.15
M 133.9 100.55
Q 134.7 100.75 135.05 101.35 135.45 102.05 135.3 102.8
L 134.85 104.65
Q 134.65 105.35 133.95 105.8 133.3 106.15 132.5 106 127.45 104.75 120.95 105.25 120.15 105.3 119.55 104.85 119 104.25 118.9 103.5
L 118.75 101.7
Q 118.65 100.9 119.2 100.25 119.7 99.65 120.45 99.6 128.05 99 133.9 100.55
M 124 108.65
Q 125.55 107.15 127.7 107.15 129.8 107.15 131.25 108.65 132.8 110.15 132.8 112.3 132.8 114.45 131.25 115.9 129.8 117.45 127.7 117.45 125.55 117.45 124 115.9 122.55 114.45 122.55 112.3 122.55 110.15 124 108.65
M 182.95 149
L 108.95 149 108.95 223 182.95 223 182.95 149 Z"/>

<path fill="#C64D3F" stroke="none" d="
M 261.65 209
L 258.35 219.1 278.95 234.1 261.65 209
M 299.35 226.85
L 296.2 209 278.95 234.1 299.35 226.85 Z"/>

<path fill="#EECC98" stroke="none" d="
M 151.5 114.8
Q 149.25 112.55 146 112.55
L 145.95 112.55
Q 142.8 112.55 140.55 114.8 138.45 116.95 138.2 119.9
L 138.2 120.05
Q 138.2 120.16796875 138.2 120.25 138.3091796875 120.7099609375 138.7 121.1 139.2974609375 121.6703125 140.55 122.15 142.8 123 145.95 123
L 146 123
Q 149.25 123 151.5 122.15 152.7044921875 121.6681640625 153.25 121.1 153.75 120.6076171875 153.75 120.05
L 153.75 119.9
Q 153.7462890625 119.8279296875 153.75 119.75 153.5486328125 116.8974609375 151.5 114.8 Z"/>

<path fill="#E7E2DA" stroke="none" d="
M 164.9 125.15
Q 164.287890625 127.1134765625 162.95 128.6 162.95 128.65 162.9 128.7 160.4 130.4 157.3 130.75
L 157.3 130.8
Q 151.54609375 130.8 146.85 127.3 142.15390625 130.8 136.4 130.8
L 136.4 130.75
Q 133.3 130.4 130.8 128.7 130.75 128.65 130.75 128.6 129.4 127.1 128.8 125.15 128.6666015625 124.6333984375 128.6 124.15 122.2201171875 127.9853515625 119.95 136.35 114.05 136.7 108.95 125.35
L 108.95 149 182.95 149 182.95 125.55
Q 177.85 136.7 172 136.35 170.0126953125 129.026953125 164.9 125.15 Z"/>

<path fill="url(#Gradient_1)" stroke="none" d="
M 79.2 108.2
Q 77.95 104.95 76.3 104.95
L 76.1 104.95
Q 71.9 105.4 69 108.2 65.9 111.3 65.9 115.7
L 65.9 115.75
Q 65.9 120.25 69 123.4 72 126.3 76.1 126.5
L 76.3 126.5
Q 77.95 126.5 79.2 123.4 80.35 120.3 80.4 115.95 80.4 115.85 80.4 115.75
L 80.4 115.7
Q 80.4 113.15 80 111 79.7 109.5 79.2 108.2 Z"/>

<path fill="url(#Gradient_2)" stroke="none" d="
M 226 115.7
Q 226 111.3 222.9 108.2 220 105.4 215.8 104.95
L 215.6 104.95
Q 213.95 104.95 212.7 108.2 212.2 109.5 211.9 111 211.5 113.15 211.5 115.7
L 211.5 115.75
Q 211.5 115.85 211.5 115.95 211.55 120.3 212.7 123.4 213.95 126.5 215.6 126.5
L 215.8 126.5
Q 219.9 126.3 222.9 123.4 226 120.25 226 115.75
L 226 115.7 Z"/>
</g>
</defs>

<g transform="matrix( 1, 0, 0, 1, 0,0) ">
<use xlink:href="#Layer0_0_FILL"/>
</g>
</svg>
