
<svg xmlns="http://www.w3.org/2000/svg" version="1.1" xmlns:xlink="http://www.w3.org/1999/xlink" preserveAspectRatio="none" x="0px" y="0px" width="512px" height="512px" viewBox="0 0 512 512">
<defs>
<linearGradient id="Gradient_1" gradientUnits="userSpaceOnUse" x1="226" y1="115.7" x2="211.5" y2="115.7" spreadMethod="pad">
<stop  offset="0%" stop-color="#E2E2E2"/>

<stop  offset="100%" stop-color="#FFFFFF"/>
</linearGradient>

<linearGradient id="Gradient_2" gradientUnits="userSpaceOnUse" x1="65.9" y1="115.7" x2="80.4" y2="115.7" spreadMethod="pad">
<stop  offset="0%" stop-color="#E4E4E4"/>

<stop  offset="100%" stop-color="#FFFFFF"/>
</linearGradient>

<g id="Layer0_0_FILL">
<path fill="#191919" stroke="none" d="
M 0 0
L 0 512 512 512 512 0 0 0
M 488.8 126
L 488.8 138 488.8 254 468.8 254 468.8 242 449.8 242 449.8 166 445.15 181.4 430.15 181.4 436.55 161 436.55 144.25 426.8 144.25 426.8 162.5 415.05 162.5 415.05 193 381.8 193 381.8 173 393.8 173 393.8 144.4 353.3 144.4 353.3 161 359.35 181.25 344.4 181.25 337.5 161.15 337.5 138 337.5 126 337.5 105.2 356.15 48.75 412.8 48.75 412.8 12 433.45 12 433.45 50.15 449.8 101 449.8 49 488.8 49 488.8 126
M 424.95 209
L 424.95 245.45 424.95 268.25 424.95 319 315.95 319 315.95 355.95 241.95 355.95 241.95 319 205.95 319 205.95 268.3 205.95 245.55 205.95 209 241.95 209 241.95 172.05 315.95 172.05 315.95 209 424.95 209
M 361 375.45
L 361 370.95 361 361 431.25 360.75 431 326 469 326 469 361 503 360.75 503 370.95 503 375.45 503 405.45 503 420.25 503 459 503 465 503 467.4 487.6 467.4 487.9 497.75 488 497.75 488 503.75 458 503.75 452 503.75 396 503.75 396 467.4 361.25 467.4 361 465 361 459 361 420.25 361 405.45 361 375.45
M 73.35 190
L 94 190 94 226.75 150.65 226.75 169.3 283.2 169.3 304 169.3 316 169.3 339.15 162.4 359.25 147.45 359.25 153.5 339 153.5 322.4 113 322.4 113 351 125 351 125 371 91.75 371 91.75 340.5 80 340.5 80 322.25 70.25 322.25 70.25 339 76.65 359.4 61.65 359.4 57 344 57 420 38 420 38 432 18 432 18 316 18 304 18 227 57 227 57 279 73.35 228.15 73.35 190
M 147 379.45
L 147 374.95 147 364.75 181 365 181 330 219 330 218.75 364.75 289 365 289 374.95 289 379.45 289 409.45 289 424.25 289 463 289 469 288.75 471.4 254 471.4 254 507.75 198 507.75 192 507.75 162 507.75 162 501.75 162.05 501.75 162.4 471.4 147 471.4 147 469 147 463 147 424.25 147 409.45 147 379.45
M 330.95 75
L 330.95 149 223.25 149 182.95 149 182.95 223 108.95 223 108.95 149 71.95 149 34.95 149 34.95 75 87.2 75 87.2 74.95 101 74.95 101 75 108.95 75 108.95 67 108.95 53.25 108.95 1 182.95 1 182.95 53.25 182.95 67 182.95 75 190.9 75 190.9 74.95 204.7 74.95 204.7 75 330.95 75 Z"/>

<path fill="#E05848" stroke="none" d="
M 192.95 80.2
Q 194.95 82.25 197.8 82.25 200.65 82.25 202.7 80.2 204.7 78.2 204.7 75.3 204.7 75.15 204.7 75
L 204.7 74.95 190.9 74.95 190.9 75
Q 190.9 75.15 190.9 75.3 190.9 78.2 192.95 80.2
M 182.95 67
L 182.95 53.25 108.95 53.25 108.95 67 182.95 67
M 101 75
L 101 74.95 87.2 74.95 87.2 75
Q 87.2 75.15 87.2 75.3 87.2 78.2 89.2 80.2 91.25 82.25 94.1 82.25 96.95 82.25 98.95 80.2 101 78.2 101 75.3 101 75.15 101 75
M 192 471.4
L 162.4 471.35 162.4 471.4 162.05 501.75 162 501.75 162 507.75 192 507.75 192 471.4
M 289 463
L 289 424.25 147 424.25 147 463 289 463
M 147 374.95
L 147 379.45 289 379.45 289 374.95 147 374.95
M 503 459
L 503 420.25 361 420.25 361 459 503 459
M 487.6 467.4
L 487.6 467.35 458 467.4 458 503.75 488 503.75 488 497.75 487.9 497.75 487.6 467.4
M 361 370.95
L 361 375.45 503 375.45 503 370.95 361 370.95
M 276.25 286.5
L 289.3 279 229.05 279 232.6 286.5 276.25 286.5
M 258.85 296.5
L 267.55 291.5 235 291.5 237.35 296.5 258.85 296.5
M 424.95 268.25
L 424.95 245.45 351.95 245.45 351.95 245.55 315.95 245.55 315.95 245.5 288.1 245.5 269.8 245.5 241.95 245.5 241.95 245.55 205.95 245.55 205.95 268.3 223.95 268.3 241.95 268.3 241.95 268.25 308 268.25 315.95 268.25 315.95 268.3 351.95 268.3 351.95 268.25 424.95 268.25 Z"/>

<path fill="#FFFFFF" stroke="none" d="
M 199.35 95.3
Q 193.25 82.2 182.95 80.75 167.35 79.5 154.6 91.45 144.85 100.65 132.1 105.5 138.75 101.6 144.45 95.9 130.4 103.65 108.95 102.5 96.1 101.3 92.1 109.15 88.2 116.9 88.85 128.65 87.25 111.15 82.3 107.3 77.65 104.3 71.95 104.6
L 69.65 104.9
Q 66.65 105.4 64.35 107.7 59 113.05 61.1 121.6 61.2 121.95 61.25 122.3
L 71.95 149 108.95 149 108.95 223 182.95 223 182.95 149 223.25 149 230.8 121.7
Q 230.8 121.65 230.8 121.6 230.85 121.35 230.95 121.1 232.75 112.9 227.55 107.7 225.25 105.4 222.25 104.9
L 219.95 104.6
Q 217.5 104.45 215.25 104.95 210.55 105.95 207.7 109.55 204.05 114.2 203.3 128.35 203.85 111.8 199.35 95.3
M 75.85 105
L 78.25 106.35
Q 78.75 107.05 79.2 108.2 80.4 111.3 80.4 115.7
L 80.4 115.75
Q 80.4 115.85 80.4 115.95 80.35 120.3 79.2 123.4 77.95 126.5 76.3 126.5
L 76.1 126.5
Q 72 126.3 69 123.4 65.9 120.25 65.9 115.75
L 65.9 115.7
Q 65.9 111.3 69 108.2 71.9 105.4 75.85 105
M 226 115.7
L 226 115.75
Q 226 120.25 222.9 123.4 219.9 126.3 215.8 126.5
L 215.6 126.5
Q 213.95 126.5 212.7 123.4 211.55 120.3 211.5 115.95 211.5 115.85 211.5 115.75
L 211.5 115.7
Q 211.5 111.3 212.7 108.2 213.15 107.05 213.65 106.35
L 216.05 105
Q 220 105.4 222.9 108.2 226 111.3 226 115.7
M 192 471.35
L 192 471.4 192 507.75 198 507.75 198 471.35 192 471.35
M 289 469
L 289 463 147 463 147 469 289 469
M 458 467.4
L 458 467.35 452 467.35 452 503.75 458 503.75 458 467.4
M 503 465
L 503 459 361 459 361 465 503 465
M 267.55 291.5
L 276.25 286.5 232.6 286.5 235 291.5 267.55 291.5
M 284.85 225.9
L 301.2 209 256.7 209 273.05 225.9 284.85 225.9 Z"/>

<path fill="url(#Gradient_1)" stroke="none" d="
M 226 115.75
L 226 115.7
Q 226 111.3 222.9 108.2 220 105.4 216.05 105
L 213.65 106.35
Q 213.15 107.05 212.7 108.2 211.5 111.3 211.5 115.7
L 211.5 115.75
Q 211.5 115.85 211.5 115.95 211.55 120.3 212.7 123.4 213.95 126.5 215.6 126.5
L 215.8 126.5
Q 219.9 126.3 222.9 123.4 226 120.25 226 115.75 Z"/>

<path fill="url(#Gradient_2)" stroke="none" d="
M 78.25 106.35
L 75.85 105
Q 71.9 105.4 69 108.2 65.9 111.3 65.9 115.7
L 65.9 115.75
Q 65.9 120.25 69 123.4 72 126.3 76.1 126.5
L 76.3 126.5
Q 77.95 126.5 79.2 123.4 80.35 120.3 80.4 115.95 80.4 115.85 80.4 115.75
L 80.4 115.7
Q 80.4 111.3 79.2 108.2 78.75 107.05 78.25 106.35 Z"/>

<path fill="#333333" stroke="none" d="
M 330.95 149
L 330.95 75 204.7 75
Q 204.7 75.15 204.7 75.3 204.7 78.2 202.7 80.2 200.65 82.25 197.8 82.25 194.95 82.25 192.95 80.2 190.9 78.2 190.9 75.3 190.9 75.15 190.9 75
L 182.95 75 182.95 67 108.95 67 108.95 75 101 75
Q 101 75.15 101 75.3 101 78.2 98.95 80.2 96.95 82.25 94.1 82.25 91.25 82.25 89.2 80.2 87.2 78.2 87.2 75.3 87.2 75.15 87.2 75
L 34.95 75 34.95 149 71.95 149 61.25 122.3
Q 61.2 121.95 61.1 121.6 59 113.05 64.35 107.7 66.65 105.4 69.65 104.9
L 71.95 104.6
Q 77.65 104.3 82.3 107.3 87.25 111.15 88.85 128.65 88.2 116.9 92.1 109.15 96.1 101.3 108.95 102.5 130.4 103.65 144.45 95.9 138.75 101.6 132.1 105.5 144.85 100.65 154.6 91.45 167.35 79.5 182.95 80.75 193.25 82.2 199.35 95.3 203.85 111.8 203.3 128.35 204.05 114.2 207.7 109.55 210.55 105.95 215.25 104.95 217.5 104.45 219.95 104.6
L 222.25 104.9
Q 225.25 105.4 227.55 107.7 232.75 112.9 230.95 121.1 230.85 121.35 230.8 121.6 230.8 121.65 230.8 121.7
L 223.25 149 330.95 149
M 182.95 53.25
L 182.95 1 108.95 1 108.95 53.25 182.95 53.25
M 289 379.45
L 147 379.45 147 409.45 289 409.45 289 379.45
M 503 375.45
L 361 375.45 361 405.45 503 405.45 503 375.45
M 237.35 296.5
L 241.95 306.2 258.85 296.5 237.35 296.5
M 289.3 279
L 308 268.25 241.95 268.25 241.95 268.3 223.95 268.3 229.05 279 289.3 279 Z"/>

<path fill="#694C39" stroke="none" d="
M 288.75 471.4
L 289 469 147 469 147 471.4 162.4 471.4 162.4 471.35 192 471.4 192 471.35 198 471.35 198 507.75 254 507.75 254 471.4 288.75 471.4
M 487.6 467.35
L 487.6 467.4 503 467.4 503 465 361 465 361.25 467.4 396 467.4 396 503.75 452 503.75 452 467.35 458 467.35 458 467.4 487.6 467.35 Z"/>

<path fill="#1ABC9C" stroke="none" d="
M 289 424.25
L 289 409.45 147 409.45 147 424.25 289 424.25
M 218.75 416
L 218.75 420 182 420 182 416 218.75 416
M 147 364.75
L 147 374.95 289 374.95 289 365 218.75 364.75 219 330 181 330 181 365 147 364.75
M 94 190
L 73.35 190 73.35 228.15 57 279 57 227 18 227 18 304 169.3 304 169.3 283.2 150.65 226.75 94 226.75 94 190
M 18.05 281.7
L 18.05 277.35 57.05 281.7 18.05 281.7
M 503 420.25
L 503 405.45 361 405.45 361 420.25 503 420.25
M 468 412
L 468 416 431.25 416 431.25 412 468 412
M 361 361
L 361 370.95 503 370.95 503 360.75 469 361 469 326 431 326 431.25 360.75 361 361
M 241.95 245.55
L 241.95 245.5 269.8 245.5 241.95 209 205.95 209 205.95 245.55 241.95 245.55
M 273.05 225.9
L 278.95 232 284.85 225.9 273.05 225.9
M 315.95 172.05
L 241.95 172.05 241.95 209 256.7 209 301.2 209 315.95 209 315.95 172.05
M 351.95 268.25
L 351.95 268.3 315.95 268.3 315.95 268.25 308 268.25 289.3 279 276.25 286.5 267.55 291.5 258.85 296.5 241.95 306.2 237.35 296.5 235 291.5 232.6 286.5 229.05 279 223.95 268.3 205.95 268.3 205.95 319 241.95 319 241.95 355.95 315.95 355.95 315.95 319 424.95 319 424.95 268.25 351.95 268.25
M 291.8 286.5
Q 296 282.95 299.95 279 302.45 276.45 304.9 273.75 303 276.45 301 279 297.9 282.95 294.55 286.5 292.05 289.1 289.45 291.5 286.6 294.1 283.65 296.5 278.1 300.9 272 304.5
L 269 301.75
Q 273.7 299.3 278.15 296.5 281.9 294.15 285.45 291.5 288.7 289.1 291.8 286.5
M 424.95 245.45
L 424.95 209 315.95 209 288.1 245.5 315.95 245.5 315.95 245.55 351.95 245.55 351.95 245.45 424.95 245.45
M 488.8 126
L 488.8 49 449.8 49 449.8 101 433.45 50.15 433.45 12 412.8 12 412.8 48.75 356.15 48.75 337.5 105.2 337.5 126 488.8 126
M 488.75 99.35
L 488.75 103.7 449.75 103.7 488.75 99.35 Z"/>

<path fill="#1BC9A6" stroke="none" d="
M 218.75 420
L 218.75 416 182 416 182 420 218.75 420
M 468 416
L 468 412 431.25 412 431.25 416 468 416 Z"/>

<path fill="#18B193" stroke="none" d="
M 18 304
L 18 316 169.3 316 169.3 304 18 304
M 18.05 277.35
L 18.05 281.7 57.05 281.7 18.05 277.35
M 488.75 103.7
L 488.75 99.35 449.75 103.7 488.75 103.7
M 488.8 138
L 488.8 126 337.5 126 337.5 138 488.8 138 Z"/>

<path fill="#FFE0B1" stroke="none" d="
M 80 322.25
L 80 340.5 91.75 340.5 91.75 371 125 371 125 351 113 351 113 322.4 153.5 322.4 153.5 339 147.45 359.25 162.4 359.25 169.3 339.15 169.3 316 18 316 18 432 38 432 38 420 57 420 57 344 61.65 359.4 76.65 359.4 70.25 339 70.25 322.25 80 322.25
M 359.35 181.25
L 353.3 161 353.3 144.4 393.8 144.4 393.8 173 381.8 173 381.8 193 415.05 193 415.05 162.5 426.8 162.5 426.8 144.25 436.55 144.25 436.55 161 430.15 181.4 445.15 181.4 449.8 166 449.8 242 468.8 242 468.8 254 488.8 254 488.8 138 337.5 138 337.5 161.15 344.4 181.25 359.35 181.25 Z"/>

<path fill="#17AA8D" stroke="none" d="
M 273.05 225.9
L 256.7 209 241.95 209 270.25 240 278.95 232 273.05 225.9
M 287.65 240
L 315.95 209 301.2 209 284.85 225.9 278.95 232 287.65 240
M 299.95 279
Q 296 282.95 291.8 286.5 288.7 289.1 285.45 291.5 281.9 294.15 278.15 296.5 273.7 299.3 269 301.75
L 272 304.5
Q 278.1 300.9 283.65 296.5 286.6 294.1 289.45 291.5 292.05 289.1 294.55 286.5 297.9 282.95 301 279 303 276.45 304.9 273.75 302.45 276.45 299.95 279 Z"/>

<path fill="#1CCDAA" stroke="none" d="
M 288.1 245.5
L 315.95 209 287.65 240 278.95 232 270.25 240 241.95 209 269.8 245.5 288.1 245.5 Z"/>
</g>

<g id="Layer0_1_MEMBER_0_FILL">
<path fill="#FF66CC" fill-opacity="0.2" stroke="none" d="
M 130.4 105.6
Q 128.45 103.65 125.65 103.65 122.85 103.65 120.9 105.6 118.95 107.55 118.95 110.35 118.95 113.15 120.9 115.1 122.85 117.05 125.65 117.05 128.45 117.05 130.4 115.1 132.35 113.15 132.35 110.35 132.35 107.55 130.4 105.6 Z"/>
</g>

<g id="Layer0_1_MEMBER_1_FILL">
<path fill="#FF66CC" fill-opacity="0.2" stroke="none" d="
M 165.65 117.05
Q 168.45 117.05 170.4 115.1 172.35 113.15 172.35 110.35 172.35 107.55 170.4 105.6 168.45 103.65 165.65 103.65 162.85 103.65 160.9 105.6 158.95 107.55 158.95 110.35 158.95 113.15 160.9 115.1 162.85 117.05 165.65 117.05 Z"/>
</g>

<g id="Layer0_1_MEMBER_2_FILL">
<path fill="#414141" stroke="none" d="
M 124.45 108.65
Q 125.7 107.35 127.95 107.15 121.8 107.45 120.25 106.7 120.65 111.3 123.35 114.5 122.9 113.5 122.9 112.3 122.9 110.15 124.45 108.65
M 163.8 107.15
Q 166.05 107.35 167.3 108.65 168.85 110.15 168.85 112.3 168.85 113.5 168.4 114.5 171.1 111.3 171.5 106.7 169.95 107.45 163.8 107.15 Z"/>

<path fill="#333333" stroke="none" d="
M 128.05 107.15
Q 128 107.15 127.95 107.15 125.7 107.35 124.45 108.65 122.9 110.15 122.9 112.3 122.9 113.5 123.35 114.5 123.75 115.2 124.3 115.8 124.4 115.85 124.45 115.9 125.9 117.45 128.05 117.45 130.15 117.45 131.7 115.9 133.2 114.45 133.2 112.3 133.2 110.15 131.7 108.65 130.15 107.15 128.05 107.15
M 167.3 108.65
Q 166.05 107.35 163.8 107.15 163.75 107.15 163.7 107.15 161.6 107.15 160.05 108.65 158.55 110.15 158.55 112.3 158.55 114.45 160.05 115.9 161.6 117.45 163.7 117.45 165.85 117.45 167.3 115.9 167.35 115.85 167.45 115.8 168 115.2 168.4 114.5 168.85 113.5 168.85 112.3 168.85 110.15 167.3 108.65 Z"/>

<path fill="#EEEEEE" stroke="none" d="
M 145.95 113.75
Q 143.6 113.75 141.9 115.45 140.35 117.05 140.15 119.25
L 140.15 119.35
Q 140.15 120.25 141.9 120.95 143.6 121.6 145.95 121.6
L 146 121.6
Q 148.45 121.6 150.15 120.95 151.8 120.25 151.8 119.35
L 151.8 119.25
Q 151.7 117.05 150.15 115.45 148.45 113.75 146 113.75
L 145.95 113.75 Z"/>
</g>

<g id="Layer0_1_MEMBER_2_MEMBER_0_FILL">
<path fill="#333333" stroke="none" d="
M 171.25 95.35
Q 171 95.2 170.8 95.2 163.35 95.5 157.45 97.65 157.15 97.8 157 98.15 156.8 98.45 156.95 98.8
L 157.5 100.45
Q 157.6 100.75 157.95 100.9 158.25 101.1 158.6 100.95 164 99.2 170.8 99.45 171 99.45 171.25 99.35 171.4 99.2 171.55 99 171.65 98.8 171.65 98.55
L 171.65 96.1
Q 171.65 95.85 171.55 95.65 171.4 95.45 171.25 95.35 Z"/>
</g>

<g id="Layer0_1_MEMBER_2_MEMBER_1_FILL">
<path fill="#BF493B" stroke="none" d="
M 140.1 129.15
Q 139.1 130.2 139 131.6 139.15 133 140.9 134.05 143 135.25 145.75 135.25 148.55 135.25 150.5 134.05 152.35 133 152.6 131.6 152.5 130.2 151.45 129.15 150.35 128.05 148.8 128.05 147.25 128.05 146.1 129.15 145.95 129.35 145.8 129.55 145.65 129.35 145.45 129.15 144.35 128.05 142.8 128.05 141.25 128.05 140.1 129.15 Z"/>
</g>

<g id="Layer0_2_MEMBER_0_FILL">
<path fill="#E05848" stroke="none" d="
M 318.05 81.35
Q 317.45 81.2 316.9 81.55
L 268.8 110.2
Q 268.35 110.4 268.15 110.85 267.95 111.3 268.05 111.8 268.1 112.3 268.45 112.65
L 269.6 113.9
Q 269.95 114.25 270.5 114.4 271.05 114.45 271.5 114.2
L 321.15 87.9
Q 321.55 87.65 321.8 87.25 322.05 86.8 322 86.4 321.95 85.9 321.7 85.5
L 319 81.95
Q 318.65 81.45 318.05 81.35 Z"/>
</g>

<g id="Layer0_2_MEMBER_1_FILL">
<path fill="#E05848" stroke="none" d="
M 273.1 81.55
Q 272.55 81.2 271.95 81.35 271.35 81.45 271 81.95
L 268.3 85.5
Q 268.05 85.9 268 86.4 267.95 86.8 268.2 87.25 268.45 87.65 268.85 87.9
L 318.5 114.2
Q 318.95 114.45 319.5 114.4 320.05 114.25 320.4 113.9
L 321.55 112.65
Q 321.9 112.3 321.95 111.8 322.05 111.3 321.85 110.85 321.65 110.4 321.2 110.2
L 273.1 81.55 Z"/>
</g>

<g id="Layer0_3_FILL">
<path fill="#2A2A2A" stroke="none" d="
M 307.6 119.9
Q 312.25 115.25 313.15 109.05 311.6 112.25 308.9 114.95 302.7 121.15 293.95 121.15 285.2 121.15 279 114.95 275.65 111.6 274.1 107.5 274.6 114.7 279.8 119.9 285.55 125.65 293.7 125.65 301.85 125.65 307.6 119.9 Z"/>

<path fill="#414141" stroke="none" d="
M 308.9 85.05
Q 302.7 78.85 293.95 78.85 285.2 78.85 279 85.05 272.8 91.25 272.8 100 272.8 104 274.1 107.5 275.65 111.6 279 114.95 285.2 121.15 293.95 121.15 302.7 121.15 308.9 114.95 311.6 112.25 313.15 109.05 315.1 104.95 315.1 100.1 315.1 100.05 315.1 100 315.1 91.25 308.9 85.05 Z"/>
</g>

<g id="Layer0_4_FILL">
<path fill="#F0D3E7" stroke="none" d="
M 203.35 131.3
Q 203.3 131.3 203.3 131.25 201.25 127.8 198.3 125.5 198.2 125.4 198.05 125.4 197.85 125.4 197.75 125.5 194.8 127.8 192.75 131.25
L 192.75 131.3
Q 191.95 133.1 192.85 133.4 193.45 133.8 195.2 132.8
L 198.05 131.25 200.9 132.8
Q 202.65 133.8 203.2 133.4 204.1 133.1 203.35 131.3
M 203.35 123.3
Q 203.3 123.3 203.3 123.25 201.25 119.8 198.3 117.5 198.2 117.4 198.05 117.4 197.85 117.4 197.75 117.5 194.8 119.8 192.75 123.25
L 192.75 123.3
Q 191.95 125.1 192.85 125.4 193.45 125.8 195.2 124.8
L 198.05 123.25 200.9 124.8
Q 202.65 125.8 203.2 125.4 204.1 125.1 203.35 123.3
M 203.35 107.3
Q 203.3 107.3 203.3 107.25 201.25 103.8 198.3 101.5 198.2 101.4 198.05 101.4 197.85 101.4 197.75 101.5 194.8 103.8 192.75 107.25
L 192.75 107.3
Q 191.95 109.1 192.85 109.4 193.45 109.8 195.2 108.8
L 198.05 107.25 200.9 108.8
Q 202.65 109.8 203.2 109.4 204.1 109.1 203.35 107.3
M 203.35 115.3
Q 203.3 115.3 203.3 115.25 201.25 111.8 198.3 109.5 198.2 109.4 198.05 109.4 197.85 109.4 197.75 109.5 194.8 111.8 192.75 115.25
L 192.75 115.3
Q 191.95 117.1 192.85 117.4 193.45 117.8 195.2 116.8
L 198.05 115.25 200.9 116.8
Q 202.65 117.8 203.2 117.4 204.1 117.1 203.35 115.3
M 198.3 93.5
Q 198.2 93.4 198.05 93.4 197.85 93.4 197.75 93.5 194.8 95.8 192.75 99.25
L 192.75 99.3
Q 191.95 101.1 192.85 101.4 193.45 101.8 195.2 100.8
L 198.05 99.25 200.9 100.8
Q 202.65 101.8 203.2 101.4 204.1 101.1 203.35 99.3 203.3 99.3 203.3 99.25 201.25 95.8 198.3 93.5
M 198.3 85.5
Q 198.2 85.4 198.05 85.4 197.85 85.4 197.75 85.5 194.8 87.8 192.75 91.25
L 192.75 91.3
Q 191.95 93.1 192.85 93.4 193.45 93.8 195.2 92.8
L 198.05 91.25 200.9 92.8
Q 202.65 93.8 203.2 93.4 204.1 93.1 203.35 91.3 203.3 91.3 203.3 91.25 201.25 87.8 198.3 85.5 Z"/>
</g>
</defs>

<g transform="matrix( 1, 0, 0, 1, 0,0) ">
<use xlink:href="#Layer0_0_FILL"/>
</g>

<g transform="matrix( 1, 0, 0, 1, 0,0) ">
<use xlink:href="#Layer0_1_MEMBER_0_FILL"/>
</g>

<g transform="matrix( 1, 0, 0, 1, 0,0) ">
<use xlink:href="#Layer0_1_MEMBER_1_FILL"/>
</g>

<g transform="matrix( 1, 0, 0, 1, 0,0) ">
<use xlink:href="#Layer0_1_MEMBER_2_FILL"/>
</g>

<g transform="matrix( 1, 0, 0, 1, 0,0) ">
<use xlink:href="#Layer0_1_MEMBER_2_MEMBER_0_FILL"/>
</g>

<g transform="matrix( 1, 0, 0, 1, 0,0) ">
<use xlink:href="#Layer0_1_MEMBER_2_MEMBER_1_FILL"/>
</g>

<g transform="matrix( 1, 0, 0, 1, 0,0) ">
<use xlink:href="#Layer0_2_MEMBER_0_FILL"/>
</g>

<g transform="matrix( 1, 0, 0, 1, 0,0) ">
<use xlink:href="#Layer0_2_MEMBER_1_FILL"/>
</g>

<g transform="matrix( 1, 0, 0, 1, 0,0) ">
<use xlink:href="#Layer0_3_FILL"/>
</g>

<g transform="matrix( 1, 0, 0, 1, 0,0) ">
<use xlink:href="#Layer0_4_FILL"/>
</g>
</svg>
