<svg xmlns="http://www.w3.org/2000/svg" xmlns:xlink="http://www.w3.org/1999/xlink">
  <defs>
    <linearGradient gradientUnits="userSpaceOnUse" x1="-819.2" x2="819.2" spreadMethod="pad" gradientTransform="matrix(0.00885009765625 0 0 0.013153076171875 73.15 115.7)" id="gradient0">
      <stop offset="0" stop-color="#EECC98"/>
      <stop offset="1" stop-color="#FFE0B1"/>
    </linearGradient>
    <linearGradient gradientUnits="userSpaceOnUse" x1="-819.2" x2="819.2" spreadMethod="pad" gradientTransform="matrix(-0.00885009765625 0 0 0.013153076171875 218.75 115.7)" id="gradient1">
      <stop offset="0" stop-color="#EECC98"/>
      <stop offset="1" stop-color="#FFE0B1"/>
    </linearGradient>
  </defs>
  <g>
    <path stroke="none" fill="#191919" d="M488.8 115.5 L488.8 108.5 488.8 49 449.8 49 449.8 101 433.45 50.15 433.45 12 412.8 12 412.8 48.75 356.15 48.75 337.5 105.2 337.5 108.5 337.5 115.5 337.5 130.5 337.5 161.15 344.4 181.25 359.35 181.25 353.3 161 353.3 144.4 393.8 144.4 393.8 173 381.8 173 381.8 193 415.05 193 415.05 162.5 426.8 162.5 426.8 144.25 436.55 144.25 436.55 161 430.15 181.4 445.15 181.4 449.8 166 449.8 242 468.8 242 468.8 254 488.8 254 488.8 130.5 488.8 115.5 M256.95 149 L330.95 149 330.95 75 182.95 75 182.95 1 108.95 1 108.95 75 34.95 75 34.95 149 108.95 149 108.95 223 182.95 223 182.95 149 256.95 149 M205.95 313 L205.95 319 241.95 319 241.95 355.95 315.95 355.95 315.95 319 424.95 319 424.95 313 424.95 209 315.95 209 315.95 172.05 241.95 172.05 241.95 209 205.95 209 205.95 313 M503 425.05 L503 360.75 469 361 469 326 431 326 431.25 360.75 361 361 361 425.05 361 432 361 465 361.25 467.4 396 467.4 396 503.75 452 503.75 488 503.75 487.6 467.4 503 467.4 503 465 503 432 503 425.05 M169.3 286.5 L169.3 283.2 150.65 226.75 94 226.75 94 190 73.35 190 73.35 228.15 57 279 57 227 18 227 18 286.5 18 293.5 18 308.5 18 432 38 432 38 420 57 420 57 344 61.65 359.4 76.65 359.4 70.25 339 70.25 322.25 80 322.25 80 340.5 91.75 340.5 91.75 371 125 371 125 351 113 351 113 322.4 153.5 322.4 153.5 339 147.45 359.25 162.4 359.25 169.3 339.15 169.3 308.5 169.3 293.5 169.3 286.5 M289 429.05 L289 365 218.75 364.75 219 330 181 330 181 365 147 364.75 147 429.05 147 436 147 469 147 471.4 162.4 471.4 162 507.75 198 507.75 254 507.75 254 471.4 288.75 471.4 289 469 289 436 289 429.05 M512 512 L0 512 0 0 512 0 512 512"/>
    <path stroke="none" fill="#FFE0B1" d="M488.8 130.5 L488.8 254 468.8 254 468.8 242 449.8 242 449.8 166 445.15 181.4 430.15 181.4 436.55 161 436.55 144.25 426.8 144.25 426.8 162.5 415.05 162.5 415.05 193 381.8 193 381.8 173 393.8 173 393.8 144.4 353.3 144.4 353.3 161 359.35 181.25 344.4 181.25 337.5 161.15 337.5 130.5 488.8 130.5 M256.95 149 L182.95 149 182.95 223 108.95 223 108.95 149 34.95 149 Q64.6 142.05 61.1 121.6 59 113.05 64.35 107.7 67.5 104.55 72 104.75 L75.85 105 Q71.9 105.4 69 108.2 65.9 111.3 65.9 115.7 L65.9 115.75 Q65.9 120.25 69 123.4 72 126.3 76.1 126.5 L76.3 126.5 Q77.95 126.5 79.2 123.4 80.35 120.3 80.4 115.95 L80.4 115.75 80.4 115.7 Q80.4 111.3 79.2 108.2 78.45 106.2 77.55 105.45 89.15 109.7 93.2 97.15 96.6 86.65 108.95 83.15 L108.95 83 Q126 81.15 141.2 98.25 148.2 106.1 157.6 109.95 157.05 111 157.05 112.3 157.05 114.45 158.55 115.9 160.1 117.45 162.2 117.45 164.35 117.45 165.8 115.9 167.2 114.6 167.35 112.75 L182.95 113.45 182.95 113.5 Q199.85 112.25 214.8 105.2 L216.05 105 219.9 104.75 Q224.4 104.55 227.55 107.7 232.9 113.05 230.8 121.6 226.75 140.1 256.95 149 M216.05 105 L213.65 106.35 212.7 108.2 Q211.5 111.3 211.5 115.7 L211.5 115.75 211.5 115.95 Q211.55 120.3 212.7 123.4 213.95 126.5 215.6 126.5 L215.8 126.5 Q219.9 126.3 222.9 123.4 226 120.25 226 115.75 L226 115.7 Q226 111.3 222.9 108.2 220 105.4 216.05 105 M217 128.25 Q215.8 128.25 214.9 129.15 214 130.05 214 131.25 214 132.5 214.9 133.4 215.8 134.25 217 134.25 218.25 134.25 219.15 133.4 220 132.5 220 131.25 220 130.05 219.15 129.15 218.25 128.25 217 128.25 M133.6 96.15 L122.9 96.6 Q122.3 96.7 121.9 97.2 121.65 97.65 121.65 98.15 L121.75 100.5 Q121.7 100.95 122 101.4 122.35 101.8 122.85 101.9 L123.8 101.85 Q126.85 100.75 132.9 100.75 L133.75 100.45 134.3 99.75 134.9 98.25 134.9 97.3 Q134.85 96.85 134.45 96.5 134.15 96.2 133.6 96.15 M79.15 129.15 Q78.25 128.25 77 128.25 75.8 128.25 74.9 129.15 74 130.05 74 131.25 74 132.5 74.9 133.4 75.8 134.25 77 134.25 78.25 134.25 79.15 133.4 80 132.5 80 131.25 80 130.05 79.15 129.15 M151.8 122.25 Q151.7 120.05 150.15 118.45 148.45 116.75 146 116.75 L145.95 116.75 Q143.6 116.75 141.9 118.45 140.35 120.05 140.15 122.25 L140.15 122.35 Q140.15 123.25 141.9 123.95 L145.95 124.6 146 124.6 Q148.45 124.6 150.15 123.95 151.8 123.25 151.8 122.35 L151.8 122.25 M129.7 107.15 Q127.55 107.15 126 108.65 124.55 110.15 124.55 112.3 124.55 114.45 126 115.9 127.55 117.45 129.7 117.45 131.8 117.45 133.25 115.9 134.8 114.45 134.8 112.3 134.8 110.15 133.25 108.65 131.8 107.15 129.7 107.15 M155.35 132.8 L156.55 130.55 157 129.65 157.05 129.45 136.75 130.65 Q137.55 132.4 138.7 133.75 140.2 135.4 142.4 136.25 146.5 138 150.65 136.25 153.6 135.15 155.35 132.8 M169.3 308.5 L169.3 339.15 162.4 359.25 147.45 359.25 153.5 339 153.5 322.4 113 322.4 113 351 125 351 125 371 91.75 371 91.75 340.5 80 340.5 80 322.25 70.25 322.25 70.25 339 76.65 359.4 61.65 359.4 57 344 57 420 38 420 38 432 18 432 18 308.5 169.3 308.5 M295 220.05 Q288.35 226.75 278.95 226.75 269.55 226.75 262.85 220.05 258.05 215.25 256.7 209 L301.2 209 Q299.85 215.25 295 220.05"/>
    <path stroke="none" fill="#694C39" d="M157.6 109.95 Q162.15 111.85 167.35 112.75 167.2 114.6 165.8 115.9 164.35 117.45 162.2 117.45 160.1 117.45 158.55 115.9 157.05 114.45 157.05 112.3 157.05 111 157.6 109.95 M424.95 313 L424.95 319 315.95 319 315.95 355.95 241.95 355.95 241.95 319 205.95 319 205.95 313 424.95 313 M503 432 L503 465 361 465 361 432 503 432 M487.6 467.4 L488 503.75 452 503.75 452 467.4 487.6 467.35 487.6 467.4 M129.7 107.15 Q131.8 107.15 133.25 108.65 134.8 110.15 134.8 112.3 134.8 114.45 133.25 115.9 131.8 117.45 129.7 117.45 127.55 117.45 126 115.9 124.55 114.45 124.55 112.3 124.55 110.15 126 108.65 127.55 107.15 129.7 107.15 M289 436 L289 469 147 469 147 436 289 436 M198 507.75 L162 507.75 162.4 471.4 162.4 471.35 198 471.4 198 507.75"/>
    <path stroke="none" fill="url(#gradient0)" d="M75.85 105 L76.1 104.95 76.3 104.95 Q76.95 104.95 77.55 105.45 78.45 106.2 79.2 108.2 80.4 111.3 80.4 115.7 L80.4 115.75 80.4 115.95 Q80.35 120.3 79.2 123.4 77.95 126.5 76.3 126.5 L76.1 126.5 Q72 126.3 69 123.4 65.9 120.25 65.9 115.75 L65.9 115.7 Q65.9 111.3 69 108.2 71.9 105.4 75.85 105"/>
    <path stroke="none" fill="url(#gradient1)" d="M216.05 105 Q220 105.4 222.9 108.2 226 111.3 226 115.7 L226 115.75 Q226 120.25 222.9 123.4 219.9 126.3 215.8 126.5 L215.6 126.5 Q213.95 126.5 212.7 123.4 211.55 120.3 211.5 115.95 L211.5 115.75 211.5 115.7 Q211.5 111.3 212.7 108.2 L213.65 106.35 216.05 105"/>
    <path stroke="none" fill="#FFFFFF" d="M488.8 115.5 L488.8 130.5 337.5 130.5 337.5 115.5 488.8 115.5 M138.7 133.75 Q137.55 132.4 136.75 130.65 L157.05 129.45 157 129.65 156.55 130.55 155.35 132.8 138.7 133.75 M169.3 293.5 L169.3 308.5 18 308.5 18 293.5 169.3 293.5"/>
    <path stroke="none" fill="#EECC98" d="M151.8 122.25 L151.8 122.35 Q151.8 123.25 150.15 123.95 148.45 124.6 146 124.6 L145.95 124.6 141.9 123.95 Q140.15 123.25 140.15 122.35 L140.15 122.25 Q140.35 120.05 141.9 118.45 143.6 116.75 145.95 116.75 L146 116.75 Q148.45 116.75 150.15 118.45 151.7 120.05 151.8 122.25"/>
    <path stroke="none" fill="#17AD8F" d="M488.75 103.7 L449.75 103.7 488.75 99.35 488.75 103.7 M488.8 108.5 L488.8 115.5 337.5 115.5 337.5 108.5 488.8 108.5 M18 286.5 L169.3 286.5 169.3 293.5 18 293.5 18 286.5 M18.05 281.7 L18.05 277.35 57.05 281.7 18.05 281.7"/>
    <path stroke="none" fill="#1ABC9C" d="M18.05 281.7 L57.05 281.7 18.05 277.35 18.05 281.7 M488.75 103.7 L488.75 99.35 449.75 103.7 488.75 103.7 M337.5 108.5 L337.5 105.2 356.15 48.75 412.8 48.75 412.8 12 433.45 12 433.45 50.15 449.8 101 449.8 49 488.8 49 488.8 108.5 337.5 108.5 M424.95 313 L205.95 313 205.95 209 241.95 209 241.95 172.05 315.95 172.05 315.95 209 424.95 209 424.95 313 M217 128.25 Q218.25 128.25 219.15 129.15 220 130.05 220 131.25 220 132.5 219.15 133.4 218.25 134.25 217 134.25 215.8 134.25 214.9 133.4 214 132.5 214 131.25 214 130.05 214.9 129.15 215.8 128.25 217 128.25 M79.15 129.15 Q80 130.05 80 131.25 80 132.5 79.15 133.4 78.25 134.25 77 134.25 75.8 134.25 74.9 133.4 74 132.5 74 131.25 74 130.05 74.9 129.15 75.8 128.25 77 128.25 78.25 128.25 79.15 129.15 M18 286.5 L18 227 57 227 57 279 73.35 228.15 73.35 190 94 190 94 226.75 150.65 226.75 169.3 283.2 169.3 286.5 18 286.5 M295 220.05 Q299.85 215.25 301.2 209 L256.7 209 Q258.05 215.25 262.85 220.05 269.55 226.75 278.95 226.75 288.35 226.75 295 220.05 M248.45 234.55 L247.3 233.25 246.95 233 246.55 233.05 246.3 233.35 246.25 233.4 Q244.3 237.5 245.3 242.25 246.05 245.9 248.25 248.6 249.65 250.3 251.7 251.6 256.75 254.85 262.7 253.7 268.15 252.65 271.35 248.25 L271.5 247.8 271.3 247.45 270.6 246.8 270.15 246.6 269.7 246.8 Q267.1 249.55 263.2 250.3 258.05 251.3 253.85 248.5 249.45 245.65 248.45 240.65 247.8 237.7 248.6 235.1 L248.6 234.8 248.45 234.55 M287.3 246.6 Q287 246.6 286.85 246.8 L286.15 247.45 285.9 247.8 286.05 248.25 Q289.25 252.65 294.7 253.7 300.65 254.85 305.8 251.6 L308.4 249.45 Q311.25 246.5 312.1 242.25 313.15 237.5 311.15 233.4 L310.9 233.05 310.55 233 310.45 233 310.15 233.25 309 234.55 308.9 234.8 308.9 235.1 Q309.6 237.7 308.95 240.65 307.95 245.65 303.65 248.5 299.35 251.3 294.2 250.3 290.3 249.55 287.7 246.8 L287.3 246.6"/>
    <path stroke="none" fill="#CDB68D" d="M361 425.05 L361 361 431.25 360.75 431 326 469 326 469 361 503 360.75 503 425.05 361 425.05 M147 429.05 L147 364.75 181 365 181 330 219 330 218.75 364.75 289 365 289 429.05 147 429.05 M218.75 420 L218.75 416 182 416 182 420 218.75 420 M468 412 L431.25 412 431.25 416 468 416 468 412"/>
    <path stroke="none" fill="#876249" d="M503 425.05 L503 432 361 432 361 425.05 503 425.05 M503 465 L503 467.4 487.6 467.4 487.6 467.35 452 467.4 452 503.75 396 503.75 396 467.4 361.25 467.4 361 465 503 465 M147 429.05 L289 429.05 289 436 147 436 147 429.05 M289 469 L288.75 471.4 254 471.4 254 507.75 198 507.75 198 471.4 162.4 471.35 162.4 471.4 147 471.4 147 469 289 469"/>
    <path stroke="none" fill="#D4BD92" d="M218.75 420 L182 420 182 416 218.75 416 218.75 420 M468 412 L468 416 431.25 416 431.25 412 468 412"/>
    <path stroke="none" fill="#C6B088" d="M34.95 149 L34.95 75 108.95 75 108.95 1 182.95 1 182.95 75 330.95 75 330.95 149 256.95 149 Q226.75 140.1 230.8 121.6 232.9 113.05 227.55 107.7 224.4 104.55 219.9 104.75 L216.05 105 214.8 105.2 Q199.85 112.25 182.95 113.5 L182.95 113.45 167.35 112.75 Q162.15 111.85 157.6 109.95 148.2 106.1 141.2 98.25 126 81.15 108.95 83 L108.95 83.15 Q96.6 86.65 93.2 97.15 89.15 109.7 77.55 105.45 76.95 104.95 76.3 104.95 L76.1 104.95 75.85 105 72 104.75 Q67.5 104.55 64.35 107.7 59 113.05 61.1 121.6 64.6 142.05 34.95 149"/>
    <path stroke="none" fill="#5D544E" d="M133.6 96.15 Q134.15 96.2 134.45 96.5 134.85 96.85 134.9 97.3 L134.9 98.25 134.3 99.75 133.75 100.45 132.9 100.75 Q126.85 100.75 123.8 101.85 L122.85 101.9 Q122.35 101.8 122 101.4 121.7 100.95 121.75 100.5 L121.65 98.15 Q121.65 97.65 121.9 97.2 122.3 96.7 122.9 96.6 L133.6 96.15"/>
    <path stroke="none" fill="#4D4743" d="M138.7 133.75 L155.35 132.8 Q153.6 135.15 150.65 136.25 146.5 138 142.4 136.25 140.2 135.4 138.7 133.75"/>
    <path stroke="none" fill="#15A387" d="M287.3 246.6 L287.7 246.8 Q290.3 249.55 294.2 250.3 299.35 251.3 303.65 248.5 307.95 245.65 308.95 240.65 309.6 237.7 308.9 235.1 L308.9 234.8 309 234.55 310.15 233.25 310.45 233 310.55 233 310.9 233.05 311.15 233.4 Q313.15 237.5 312.1 242.25 311.25 246.5 308.4 249.45 L305.8 251.6 Q300.65 254.85 294.7 253.7 289.25 252.65 286.05 248.25 L285.9 247.8 286.15 247.45 286.85 246.8 Q287 246.6 287.3 246.6 M248.45 234.55 L248.6 234.8 248.6 235.1 Q247.8 237.7 248.45 240.65 249.45 245.65 253.85 248.5 258.05 251.3 263.2 250.3 267.1 249.55 269.7 246.8 L270.15 246.6 270.6 246.8 271.3 247.45 271.5 247.8 271.35 248.25 Q268.15 252.65 262.7 253.7 256.75 254.85 251.7 251.6 249.65 250.3 248.25 248.6 246.05 245.9 245.3 242.25 244.3 237.5 246.25 233.4 L246.3 233.35 246.55 233.05 246.95 233 247.3 233.25 248.45 234.55"/>
    <path stroke="none" fill="#CDB68D" d="M242.65 262.2 L242.55 261.6 Q242.75 234.85 253.75 209 L265.2 209 Q267.65 217.1 269.15 225.55 L271.8 253.35 271.75 253.8 271.75 253.95 271.6 254.25 271 254.95 Q259.85 263.35 244.6 263.6 L243.6 263.35 242.85 262.6 242.65 262.2"/>
    <path stroke="none" fill="#000000" fill-opacity="0.10196078431372549" d="M242.65 262.2 L242.85 262.6 243.6 263.35 244.6 263.6 Q259.85 263.35 271 254.95 L271.6 254.25 271.75 253.95 271.6 254.3 271 255.1 Q259.85 265.4 244.6 268.25 L243.6 268.15 242.85 267.55 Q242.55 267.1 242.55 266.6 L242.65 262.2"/>
  </g>
</svg>