# Alias OBJ Model File
# Exported from SketchUp, (c) 2000-2012 Trimble Navigation Limited
# File units = meters

mtllib spaceInterior_035.mtl

g Mesh1 Group1 Model

usemtl Metal
v 0 1 -1.1875
vt -6.49774e-012 39.3701
vn -1.38983e-013 -1.07475e-014 -1
v 0.25 0 -1.1875
vt -9.84252 5.02469e-013
v 0 0 -1.1875
vt -6.49774e-012 5.02469e-013
f 1/1/1 2/2/1 3/3/1

v 1.1875 1 -1.1875
vt -46.752 39.3701
f 4/4/1 2/2/1 1/1/1

v 1.1875 -2.25597e-017 -1.1875
vt -46.752 5.01581e-013
f 2/2/1 4/4/1 5/5/1

vt 46.752 39.3701
vn 1 3.49749e-029 -1.59276e-013
v 1.1875 0.75 -1.0625
vt 41.8307 29.5276
vt 46.752 -8.88178e-016
f 4/6/2 6/7/2 5/8/2

v 1.1875 1 -0.9375
vt 36.9094 39.3701
f 7/9/2 6/7/2 4/6/2

v 1.1875 0.875 -0.9375
vt 36.9094 34.4488
f 6/7/2 7/9/2 8/10/2

vn 1.68517e-013 0 1
v 0.25 0.875 -0.9375
vt 9.84252 34.4488
vt 46.752 34.4488
f 7/6/3 9/11/3 8/12/3

v 0.25 1 -0.9375
vt 9.84252 39.3701
f 9/11/3 7/6/3 10/13/3

vt 46.752 46.752
vn 0 1 -0
vt 9.84252 36.9094
vt 46.752 36.9094
f 4/14/4 10/15/4 7/16/4

vt 0 46.752
f 1/17/4 10/15/4 4/14/4

v 0.25 1 -1.44382e-015
vt 9.84252 5.68434e-014
f 1/17/4 11/18/4 10/15/4

v 0 1 -0
vt 0 0
f 11/18/4 1/17/4 12/19/4

vn -1 -2.63891e-016 -1.28742e-016
v 0 0 -0
vt 0 39.3701
f 1/4/5 13/19/5 12/20/5

v 1.44382e-015 0 -0.9375
vt -36.9094 -1.37465e-029
f 13/19/5 1/4/5 14/21/5

vt -46.752 1.58835e-030
f 14/21/5 1/4/5 3/22/5

vt -9.84252 46.752
vn 0 -1 -0
vt -5.68434e-014 36.9094
f 2/23/6 14/24/6 3/17/6

v 0.1875 0 -0.9375
vt -7.38189 36.9094
f 14/24/6 2/23/6 15/25/6

v 0.25 0 -1
vt -9.84252 39.3701
f 15/25/6 2/23/6 16/26/6

vt -46.752 46.752
vn -2.40637e-017 -1 3.84261e-030
f 5/27/7 16/26/7 2/23/7

v 1.1875 -2.25597e-017 -1
f 16/26/7 5/27/7 17/4/7

v 1.1875 0.125 -1
vt 39.3701 4.92126
vt 39.3701 -8.88178e-016
f 5/8/2 18/28/2 17/29/2

v 1.1875 0.125 -1.0625
vt 41.8307 4.92126
f 18/28/2 5/8/2 19/30/2

v 1.1875 0.28125 -1.0625
vt 41.8307 11.0728
f 19/30/2 5/8/2 20/31/2

v 1.1875 0.4375 -1.0625
vt 41.8307 17.2244
f 20/31/2 5/8/2 21/32/2

f 21/32/2 5/8/2 6/7/2

usemtl Dark_Metal
vt 46.752 29.5276
vn 1.68517e-013 -1.30457e-029 1
v 0.25 0.4375 -1.0625
vt 9.84252 17.2244
vt 46.752 17.2244
f 6/33/8 22/34/8 21/35/8

v 0.25 0.75 -1.0625
vt 9.84252 29.5276
f 22/34/8 6/33/8 23/36/8

usemtl Metal
vt 46.752 -8.69964
vn 1.19158e-013 -0.707107 0.707107
vt 9.84252 -1.73993
vt 9.84252 -8.69964
f 6/37/9 9/38/9 23/39/9

vt 46.752 -1.73993
f 9/38/9 6/37/9 8/40/9

vt 36.5385 11.05
vn 0.57735 -0.57735 0.57735
vt 33.0586 17.0773
v 0.125 0.75 -0.9375
vt 29.5788 11.05
f 23/41/10 9/42/10 24/43/10

vt 36.9094 31.3187
vn 0.707107 -0.707107 -4.53731e-016
v 0.125 0.75 1.44382e-015
vt -6.00013e-014 24.359
vt 36.9094 24.359
f 9/44/11 25/45/11 24/46/11

v 0.25 0.875 -1.44382e-015
vt 5.05277e-014 31.3187
f 25/45/11 9/44/11 26/47/11

vn 1 0 -6.48367e-016
vt 5.04619e-014 39.3701
vt 5.04619e-014 34.4488
f 9/10/12 11/48/12 26/49/12

f 11/48/12 9/10/12 10/9/12

vn -3.31539e-016 1.81169e-015 1
f 12/20/13 26/11/13 11/13/13

vt 4.92126 29.5276
f 12/20/13 25/50/13 26/11/13

v 0.125 0.4375 1.44382e-015
vt 4.92126 17.2244
f 12/20/13 27/51/13 25/50/13

v 0.125 0.28125 1.44382e-015
vt 4.92126 11.0728
f 12/20/13 28/52/13 27/51/13

v 0.125 0.125 1.44382e-015
vt 4.92126 4.92126
f 12/20/13 29/53/13 28/52/13

f 13/19/13 29/53/13 12/20/13

v 0.1875 0.125 1.44382e-015
vt 7.38189 4.92126
f 13/19/13 30/54/13 29/53/13

v 0.1875 0 1.44382e-015
vt 7.38189 -9.85488e-029
f 30/54/13 13/19/13 31/55/13

vt -7.38189 -5.68434e-014
f 14/24/6 31/56/6 13/19/6

f 31/56/6 14/24/6 15/25/6

vt 36.9094 3.31792e-043
vn 1 -4.49468e-044 -6.48367e-016
vt -6.16296e-014 4.92126
vt -6.16296e-014 3.31792e-043
f 15/57/14 30/58/14 31/59/14

v 0.1875 0.125 -0.9375
vt 36.9094 4.92126
f 30/58/14 15/57/14 32/60/14

vt 34.7986 -1.53885e-029
vn 0.707107 -7.37026e-031 0.707107
vt 31.3187 4.92126
vt 31.3187 -1.53885e-029
f 16/61/15 32/62/15 15/63/15

v 0.25 0.125 -1
vt 34.7986 4.92126
f 32/62/15 16/61/15 33/64/15

vt 9.84252 6.79752e-028
vn 1.68517e-013 1.72657e-029 1
vt 46.752 4.92126
vt 9.84252 4.92126
f 16/65/16 18/66/16 33/67/16

f 18/66/16 16/65/16 17/8/16

vt 46.752 41.8307
vn 2.28073e-017 1 1.14995e-018
f 19/68/17 33/13/17 18/6/17

v 0.25 0.125 -1.0625
vt 9.84252 41.8307
f 34/69/17 33/13/17 19/68/17

vt 7.38189 36.9094
f 34/69/17 32/70/17 33/13/17

v 0.125 0.125 -0.9375
vt 4.92126 36.9094
f 35/71/17 32/70/17 34/69/17

vt 7.38189 -5.68378e-014
f 35/71/17 30/72/17 32/70/17

vt 4.92126 -5.68378e-014
f 30/72/17 35/71/17 29/73/17

usemtl Dark_Metal
vn 1 8.09689e-030 -6.48367e-016
vt -6.00342e-014 11.0728
vt -6.00342e-014 4.92126
f 35/60/18 28/74/18 29/75/18

v 0.125 0.28125 -0.9375
vt 36.9094 11.0728
f 28/74/18 35/60/18 36/76/18

vt 36.5385 4.92126
vn 0.707107 -1.88679e-030 0.707107
vt 29.5788 11.0728
vt 29.5788 4.92126
f 34/77/19 36/78/19 35/79/19

v 0.25 0.28125 -1.0625
vt 36.5385 11.0728
f 36/78/19 34/77/19 37/80/19

vn 1.68517e-013 4.22854e-030 1
vt 46.752 11.0728
vt 9.84252 11.0728
f 34/67/20 20/81/20 37/82/20

f 20/81/20 34/67/20 19/66/20

usemtl Red_Metal
f 21/35/3 37/82/3 20/81/3

f 37/82/3 21/35/3 22/34/3

v 0.125 0.4375 -0.9375
vt 29.5788 17.2244
vn 0.707107 0 0.707107
vt 36.5385 17.2244
f 38/83/21 37/80/21 22/84/21

f 37/80/21 38/83/21 36/78/21

vt -6.00342e-014 17.2244
vt 36.9094 17.2244
f 27/85/12 36/76/12 38/86/12

f 36/76/12 27/85/12 28/74/12

usemtl Dark_Metal
vn 1 4.04845e-030 -6.48367e-016
vt -6.00342e-014 29.5276
f 38/86/22 25/87/22 27/85/22

vt 36.9094 29.5276
f 25/87/22 38/86/22 24/88/22

vn 0.707107 -9.43393e-031 0.707107
vt 29.5788 29.5276
f 22/84/23 24/89/23 38/83/23

vt 36.5385 29.5276
f 24/89/23 22/84/23 23/90/23

