# Alias OBJ Model File
# Exported from SketchUp, (c) 2000-2012 Trimble Navigation Limited
# File units = meters

mtllib spaceInterior_050.mtl

g Mesh1 Group1 Model

usemtl Dark_Metal
v 1 0 -1
vt -39.3701 39.3701
vn 0 -1 -0
v 0 0 -0
vt 0 0
v 0 0 -1
vt 0 39.3701
f 1/1/1 2/2/1 3/3/1

v 1 0 -0
vt -39.3701 0
f 2/2/1 1/1/1 4/4/1

vt 39.3701 0
vn 1 0 -0
v 1 0.0625 -0
vt 0 2.46063
f 1/5/2 5/6/2 4/2/2

v 1 0.0625 -1
vt 39.3701 2.46063
f 5/6/2 1/5/2 6/7/2

vn -3.68697e-016 0 -1
v 0 0.0625 -1
vt -1.45156e-014 2.46063
vt -39.3701 2.46063
f 1/4/3 7/8/3 6/9/3

vt -1.45156e-014 0
f 7/8/3 1/4/3 3/10/3

vn -1 -8.66294e-015 9.4208e-016
vt -39.3701 -3.21306e-028
f 2/2/4 7/9/4 3/11/4

v 0 0.0625 -0
f 7/9/4 2/2/4 8/6/4

vn -1.72737e-016 0 1
f 2/2/5 5/7/5 8/6/5

f 5/7/5 2/2/5 4/5/5

v 0.125285 0.0625 -0.125285
vt 4.93247 4.93247
vn 0 1 -0
f 9/12/6 8/2/6 5/5/6

f 8/2/6 9/12/6 7/3/6

v 0.125285 0.0625 -0.874715
vt 4.93247 34.4376
f 10/13/6 7/3/6 9/12/6

vt 39.3701 39.3701
f 7/3/6 10/13/6 6/14/6

v 0.874715 0.0625 -0.874715
vt 34.4376 34.4376
f 6/14/6 10/13/6 11/15/6

v 0.162756 0.0425 -0.837244
vt 6.40773 29.8674
vn -1.11306e-016 0.882204 0.470867
vt 34.4376 31.5396
vt 4.93247 31.5396
f 12/16/7 11/17/7 10/18/7

v 0.837244 0.0425 -0.837244
vt 32.9623 29.8674
f 11/17/7 12/16/7 13/19/7

usemtl Metal
v 0.162756 0.0425 -0.162756
vt 6.40773 6.40773
vn 1.67236e-017 1 4.46878e-033
vt 32.9623 32.9623
vt 6.40773 32.9623
f 14/20/8 13/21/8 12/22/8

v 0.837244 0.0425 -0.162756
vt 32.9623 6.40773
f 13/21/8 14/20/8 15/23/8

usemtl Dark_Metal
vt -6.40773 -4.86506
vn 6.81569e-017 0.882204 -0.470867
v 0.874715 0.0625 -0.125285
vt -34.4376 -3.19282
vt -32.9623 -4.86506
f 14/24/9 16/25/9 15/26/9

vt -4.93247 -3.19282
f 16/25/9 14/24/9 9/27/9

vt 6.40773 -4.86506
vn 0.470867 0.882204 -1.12972e-016
vt 34.4376 -3.19282
vt 4.93247 -3.19282
f 14/28/10 10/29/10 9/30/10

vt 32.9623 -4.86506
f 10/29/10 14/28/10 12/31/10

vt 34.4376 4.93247
f 9/12/6 5/5/6 16/32/6

f 16/32/6 5/5/6 6/14/6

f 6/14/6 11/15/6 16/32/6

vt -32.9623 29.8674
vn -0.470867 0.882204 -8.60329e-019
vt -4.93247 31.5396
vt -34.4376 31.5396
f 13/33/11 16/34/11 11/35/11

vt -6.40773 29.8674
f 16/34/11 13/33/11 15/36/11

