# Alias OBJ Model File
# Exported from SketchUp, (c) 2000-2012 Trimble Navigation Limited
# File units = meters

mtllib spaceInterior_012.mtl

g Mesh1 Group1 Model

usemtl Metal
v 0.165 0.09375 -0.05
vt 6.49606 1.9685
vn 0 1 -0
v 0.12375 0.09375 -0.53
vt 4.87205 20.8661
v 0.12375 0.09375 -0.05
vt 4.87205 1.9685
f 1/1/1 2/2/1 3/3/1

v 0.165 0.09375 -0.53
vt 6.49606 20.8661
f 2/2/1 1/1/1 4/4/1

usemtl Dark_Metal
vt 1.9685 3.69094
vn 1 0 -0
v 0.165 0.046875 -0.53
vt 20.8661 1.84547
vt 20.8661 3.69094
f 1/5/2 5/6/2 4/7/2

v 0.165 0.046875 -0.05
vt 1.9685 1.84547
f 5/6/2 1/5/2 6/8/2

vt -6.49606 3.69094
vn 4.11018e-015 6.81183e-015 -1
v 0.20625 0.046875 -0.05
vt -8.12008 1.84547
vt -6.49606 1.84547
f 1/9/3 7/10/3 6/11/3

v 0.2475 0.046875 -0.05
vt -9.74409 1.84547
f 7/10/3 1/9/3 8/12/3

v 0.28 0.09375 -0.05
vt -11.0236 3.69094
f 9/13/3 8/12/3 1/9/3

v 0.28 0 -0.05
vt -11.0236 -1.34091e-014
f 10/14/3 8/12/3 9/13/3

v 0.2475 0 -0.05
vt -9.74409 -1.34091e-014
f 8/12/3 10/14/3 11/15/3

v 0.28 0 -0
vt -11.0236 0
vn 0 -1 -0
vt -9.74409 1.9685
vt -11.0236 1.9685
f 12/16/4 11/17/4 10/18/4

v 0 0 -0
vt 0 0
f 13/19/4 11/17/4 12/16/4

v 0 0 -0.05
vt 0 1.9685
f 11/17/4 13/19/4 14/20/4

vn -1 0 -0
v 0 0.1875 -0.05
vt -1.9685 7.38189
vt -1.9685 0
f 13/19/5 15/21/5 14/22/5

v 0 0.1875 -0
vt 0 7.38189
f 15/21/5 13/19/5 16/23/5

vn -1.84161e-016 -2.75014e-016 -1
vt -11.0236 -5.58312e-031
f 16/23/6 12/24/6 13/19/6

v 0.28 0.09375 -0
f 12/24/6 16/23/6 17/13/6

v 0.14 0.1875 -0
vt -5.51181 7.38189
f 17/13/6 16/23/6 18/25/6

usemtl Metal
vt 5.51181 0
f 18/26/1 15/20/1 16/19/1

v 0.14 0.1875 -0.05
vt 5.51181 1.9685
f 15/20/1 18/26/1 19/27/1

vt -1.16241e-027 -7.10592
vn 0.556411 0.830907 -5.8672e-029
vt 1.9685 -0.472438
vt -5.81205e-028 -0.472438
f 17/28/7 19/29/7 18/30/7

vt 1.9685 -7.10592
f 19/29/7 17/28/7 9/31/7

usemtl Dark_Metal
vt 0 3.69094
vt 1.9685 0
f 17/32/2 10/33/2 9/5/2

f 10/33/2 17/32/2 12/19/2

v 0.0825 0.140625 -0.05
vt -3.24803 5.53642
f 9/13/3 20/34/3 19/25/3

f 1/9/3 20/34/3 9/13/3

vt -4.87205 3.69094
f 3/35/3 20/34/3 1/9/3

v 0.0825 0.09375 -0.05
vt -3.24803 3.69094
f 20/34/3 3/35/3 21/36/3

v 0.0825 0.09375 -0.53
vt 3.24803 20.8661
vt 3.24803 1.9685
f 3/3/1 22/37/1 21/38/1

f 22/37/1 3/3/1 2/2/1

vt 4.87205 3.69094
vn 0 0 1
v 0.14 0.1875 -0.53
vt 5.51181 7.38189
vt 3.24803 3.69094
f 2/39/8 23/40/8 22/41/8

vt 6.49606 3.69094
f 4/42/8 23/40/8 2/39/8

v 0.28 0.09375 -0.53
vt 11.0236 3.69094
f 4/42/8 24/43/8 23/40/8

vt 6.49606 1.84547
f 5/44/8 24/43/8 4/42/8

v 0.20625 0.046875 -0.53
vt 8.12008 1.84547
f 25/45/8 24/43/8 5/44/8

v 0.2475 0.046875 -0.53
vt 9.74409 1.84547
f 26/46/8 24/43/8 25/45/8

v 0.2475 0 -0.53
vt 9.74409 0
f 27/47/8 24/43/8 26/46/8

v 0.28 0 -0.53
vt 11.0236 0
f 24/43/8 27/47/8 28/48/8

vt -9.74409 20.8661
v 0.28 0 -0.58
vt -11.0236 22.8346
vt -11.0236 20.8661
f 27/49/4 29/50/4 28/51/4

v 0 0 -0.53
vt 0 20.8661
f 30/52/4 29/50/4 27/49/4

v 0 0 -0.58
vt 0 22.8346
f 29/50/4 30/52/4 31/53/4

vt -20.8661 0
v 0 0.1875 -0.58
vt -22.8346 7.38189
vt -22.8346 0
f 30/54/5 32/55/5 31/56/5

v 0 0.140625 -0.53
vt -20.8661 5.53642
f 33/57/5 32/55/5 30/54/5

v 0 0.1875 -0.53
vt -20.8661 7.38189
f 32/55/5 33/57/5 34/58/5

vt 0 5.53642
f 33/59/8 23/40/8 34/23/8

v 0.04125 0.140625 -0.53
vt 1.62402 5.53642
f 35/60/8 23/40/8 33/59/8

v 0.0825 0.140625 -0.53
vt 3.24803 5.53642
f 36/61/8 23/40/8 35/60/8

f 22/41/8 23/40/8 36/61/8

vt 1.9685 5.53642
vt 20.8661 5.53642
f 20/62/2 22/7/2 36/63/2

f 22/7/2 20/62/2 21/5/2

usemtl Metal
vt 1.62402 20.8661
f 35/64/1 20/38/1 36/37/1

v 0.04125 0.140625 -0.05
vt 1.62402 1.9685
f 20/38/1 35/64/1 37/65/1

usemtl Dark_Metal
f 33/52/1 37/65/1 35/64/1

v 0 0.140625 -0.05
f 37/65/1 33/52/1 38/20/1

vt -1.9685 5.53642
f 14/22/5 38/66/5 33/57/5

f 14/22/5 15/21/5 38/66/5

vt 8.0909e-015 7.38189
vt -1.62402 5.53642
vt 8.0909e-015 5.53642
f 15/67/3 37/68/3 38/69/3

f 37/68/3 15/67/3 20/34/3

f 19/25/3 20/34/3 15/67/3

f 14/22/5 33/57/5 30/54/5

f 30/52/4 27/49/4 14/20/4

f 11/17/4 14/20/4 27/49/4

vt 20.8661 0
f 27/70/2 8/8/2 11/33/2

f 8/8/2 27/70/2 26/6/2

usemtl Metal
vt 8.12008 20.8661
vt 9.74409 1.9685
vt 9.74409 20.8661
f 25/71/1 8/72/1 26/73/1

vt 8.12008 1.9685
f 8/72/1 25/71/1 7/74/1

usemtl Dark_Metal
f 5/4/1 7/74/1 25/71/1

f 7/74/1 5/4/1 6/1/1

usemtl Metal
vt 5.51181 20.8661
f 23/75/1 32/53/1 34/52/1

v 0.14 0.1875 -0.58
vt 5.51181 22.8346
f 32/53/1 23/75/1 39/76/1

vt 20.8661 -7.10592
vn 0.556411 0.830907 1.17344e-028
vt 22.8346 -0.472438
vt 20.8661 -0.472438
f 24/77/9 39/78/9 23/79/9

v 0.28 0.09375 -0.58
vt 22.8346 -7.10592
f 39/78/9 24/77/9 40/80/9

usemtl Dark_Metal
vt 22.8346 0
vt 22.8346 3.69094
f 24/7/2 29/81/2 40/82/2

f 29/81/2 24/7/2 28/70/2

f 40/43/8 31/19/8 29/48/8

f 31/19/8 40/43/8 32/23/8

f 32/23/8 40/43/8 39/40/8

