# Alias OBJ Model File
# Exported from SketchUp, (c) 2000-2012 Trimble Navigation Limited
# File units = meters

mtllib spaceInterior_030.mtl

g Mesh1 Group1 Model

usemtl Metal
v 0 1 -1
vt -39.3701 39.3701
vn -1 0 -0
v 0 0 -0
vt 0 0
v 0 1 -0
vt 0 39.3701
f 1/1/1 2/2/1 3/3/1

v 0 0 -1
vt -39.3701 0
f 2/2/1 1/1/1 4/4/1

v 0.125 0.125 -1
vt -4.92126 4.92126
vn 0 0 -1
f 5/5/2 4/2/2 1/3/2

v 0.1875 0 -1
vt -7.38189 0
f 4/2/2 5/5/2 6/6/2

v 0.1875 0.125 -1
vt -7.38189 4.92126
f 7/7/2 6/6/2 5/5/2

v 0.1875 0.125 -0
vt 0 4.92126
vn 1 0 -0
vt 39.3701 0
vt 39.3701 4.92126
f 8/8/3 6/9/3 7/10/3

v 0.1875 0 -0
f 6/9/3 8/8/3 9/2/3

vt 7.38189 4.92126
vn 0 0 1
vt 7.38189 0
f 8/11/4 2/2/4 9/12/4

v 0.125 0.125 -0
vt 4.92126 4.92126
f 2/2/4 8/11/4 10/13/4

vn 0 1 -0
vt 4.92126 39.3701
vt 4.92126 0
f 8/12/5 5/14/5 10/15/5

vt 7.38189 39.3701
f 5/14/5 8/12/5 7/16/5

usemtl Dark_Metal
v 0.125 0.28125 -0
vt 0 11.0728
f 5/10/3 11/17/3 10/8/3

v 0.125 0.28125 -1
vt 39.3701 11.0728
f 11/17/3 5/10/3 12/18/3

usemtl Metal
vt -4.92126 11.0728
f 5/5/2 1/3/2 12/19/2

v 0.125 0.4375 -1
vt -4.92126 17.2244
f 12/19/2 1/3/2 13/20/2

v 0.125 0.75 -1
vt -4.92126 29.5276
f 13/20/2 1/3/2 14/21/2

v 0.25 0.875 -1
vt -9.84252 34.4488
f 14/21/2 1/3/2 15/22/2

v 0.25 1 -1
vt -9.84252 39.3701
f 15/22/2 1/3/2 16/23/2

v 0.25 1 -0
vt 9.84252 0
vt 9.84252 39.3701
f 1/3/5 17/24/5 16/25/5

f 17/24/5 1/3/5 3/2/5

v 0.25 0.875 -0
vt 9.84252 34.4488
f 3/3/4 18/26/4 17/25/4

v 0.125 0.75 -0
vt 4.92126 29.5276
f 3/3/4 19/27/4 18/26/4

v 0.125 0.4375 -0
vt 4.92126 17.2244
f 3/3/4 20/28/4 19/27/4

vt 4.92126 11.0728
f 3/3/4 11/29/4 20/28/4

f 3/3/4 10/13/4 11/29/4

f 2/2/4 10/13/4 3/3/4

usemtl Red_Metal
vt 0 17.2244
f 12/18/3 20/30/3 11/17/3

vt 39.3701 17.2244
f 20/30/3 12/18/3 13/31/3

usemtl Dark_Metal
vt 0 29.5276
f 13/31/3 19/32/3 20/30/3

vt 39.3701 29.5276
f 19/32/3 13/31/3 14/33/3

usemtl Metal
vt 39.3701 31.3187
vn 0.707107 -0.707107 -0
vt 0 24.359
vt 39.3701 24.359
f 15/34/6 19/35/6 14/36/6

vt 0 31.3187
f 19/35/6 15/34/6 18/37/6

vt 39.3701 34.4488
vt 0 34.4488
f 15/38/3 17/3/3 18/39/3

vt 39.3701 39.3701
f 17/3/3 15/38/3 16/40/3

vn 0 -1 -0
vt -7.38189 39.3701
f 2/2/7 6/41/7 9/6/7

f 6/41/7 2/2/7 4/3/7

