# Alias OBJ Model File
# Exported from SketchUp, (c) 2000-2012 Trimble Navigation Limited
# File units = meters

mtllib spaceInterior_072.mtl

g Mesh1 Group1 Model

usemtl Metal
v 0.0625 1.12799e-017 -0.5
vt -2.46063 19.685
vn 9.02389e-017 -1 -1.12799e-017
v 0 0 -0
vt 0 0
v 0 0 -0.5
vt 0 19.685
f 1/1/1 2/2/1 3/3/1

v 0.0625 0 -0
vt -2.46063 -2.50463e-033
f 2/2/1 1/1/1 4/4/1

v 0.0625 0.125 -0.125
vt 4.92126 4.92126
vn 1 9.02389e-017 2.03577e-033
vt 5.00927e-033 -2.22045e-016
vt 19.685 2.22045e-016
f 5/5/2 4/6/2 1/7/2

v 0.0625 0.75 -0
vt 5.00927e-033 29.5276
f 4/6/2 5/5/2 6/8/2

v 0.0625 0.625 -0.125
vt 4.92126 24.6063
f 7/9/2 6/8/2 5/5/2

v 0.0625 0.75 -0.5
vt 19.685 29.5276
f 6/8/2 7/9/2 8/10/2

v 0.0625 0.625 -0.375
vt 14.7638 24.6063
f 8/10/2 7/9/2 9/11/2

v 0 0.625 -0.125
vt -1.11022e-015 4.92126
vn 4.51195e-017 -1 -0
vt -2.46063 14.7638
vt -2.46063 4.92126
f 10/12/3 9/13/3 7/14/3

v 0 0.625 -0.375
vt -1.11022e-015 14.7638
f 9/13/3 10/12/3 11/15/3

vt -4.92126 24.6063
vn -1 0 -0
v 0 0.75 -0.5
vt -19.685 29.5276
vt -14.7638 24.6063
f 10/16/4 12/17/4 11/18/4

v 0 0.75 -0
vt 0 29.5276
f 10/16/4 13/19/4 12/17/4

f 13/19/4 10/16/4 2/2/4

v 3.60956e-016 0.125 -0.125
vt -4.92126 4.92126
f 14/20/4 2/2/4 10/16/4

vt -19.685 0
f 2/2/4 14/20/4 3/21/4

v 3.60956e-016 0.125 -0.375
vt -14.7638 4.92126
f 3/21/4 14/20/4 15/22/4

vt 2.46063 4.92126
vn -4.51195e-017 1 -0
vt 1.44329e-014 14.7638
vt 1.44329e-014 4.92126
f 5/23/5 15/24/5 14/25/5

v 0.0625 0.125 -0.375
vt 2.46063 14.7638
f 15/24/5 5/23/5 16/26/5

vt 14.7638 4.92126
f 5/5/2 1/7/2 16/27/2

f 16/27/2 1/7/2 9/11/2

f 8/10/2 9/11/2 1/7/2

vt -2.46063 2.22045e-016
vn -2.03577e-033 1.12799e-017 -1
vt -4.00741e-032 29.5276
vt -2.46063 29.5276
f 1/28/6 12/29/6 8/30/6

vt -4.00741e-032 -2.22045e-016
f 12/29/6 1/28/6 3/31/6

f 3/21/4 15/22/4 12/17/4

f 11/18/4 12/17/4 15/22/4

vt 1.42109e-014 4.92126
vn 0 0 1
v 0.0234375 0.25 -0.375
vt 0.922736 9.84252
vt 0 24.6063
f 15/32/7 17/33/7 11/34/7

v 0.046875 0.25 -0.375
vt 1.84547 9.84252
f 17/33/7 15/32/7 18/35/7

f 16/23/7 18/35/7 15/32/7

vt 2.46063 24.6063
f 18/35/7 16/23/7 9/36/7

v 0.046875 0.375 -0.375
vt 1.84547 14.7638
f 18/35/7 9/36/7 19/37/7

v 0.0234375 0.375 -0.375
vt 0.922736 14.7638
f 19/37/7 9/36/7 20/38/7

f 11/34/7 20/38/7 9/36/7

f 11/34/7 17/33/7 20/38/7

usemtl FrontColor
f 17/33/7 19/37/7 20/38/7

f 19/37/7 17/33/7 18/35/7

usemtl Dark_Metal
vt -1.84547 14.7638
vn 0 -1 -0
v 0.0234375 0.25 -0.125
vt -0.922736 4.92126
vt -0.922736 14.7638
f 18/39/8 21/40/8 17/41/8

v 0.046875 0.25 -0.125
vt -1.84547 4.92126
f 21/40/8 18/39/8 22/42/8

vt 14.7638 9.84252
vn 1 0 -0
v 0.046875 0.375 -0.125
vt 4.92126 14.7638
vt 4.92126 9.84252
f 18/43/9 23/44/9 22/45/9

vt 14.7638 14.7638
f 23/44/9 18/43/9 19/46/9

vn 0 1 -0
vt 1.84547 4.92126
f 20/38/10 23/47/10 19/37/10

v 0.0234375 0.375 -0.125
vt 0.922736 4.92126
f 23/47/10 20/38/10 24/48/10

vt -14.7638 14.7638
vn -1 -5.77529e-015 -0
vt -4.92126 9.84252
vt -4.92126 14.7638
f 20/49/11 21/50/11 24/51/11

vt -14.7638 9.84252
f 21/50/11 20/49/11 17/52/11

usemtl Metal
vt -0.922736 9.84252
vn 0 0 -1
f 21/53/12 10/34/12 24/41/12

vt -1.42109e-014 4.92126
f 21/53/12 14/54/12 10/34/12

f 14/54/12 21/53/12 5/14/12

vt -1.84547 9.84252
f 5/14/12 21/53/12 22/55/12

usemtl FrontColor
f 21/53/12 23/39/12 22/55/12

f 23/39/12 21/53/12 24/41/12

usemtl Metal
f 24/41/12 10/34/12 23/39/12

vt -2.46063 24.6063
f 7/56/12 23/39/12 10/34/12

f 7/56/12 22/55/12 23/39/12

f 22/55/12 7/56/12 5/14/12

vt 2.66454e-015 19.685
vn -9.02389e-017 1 1.12799e-017
vt 2.46063 3.33067e-016
vt 2.46063 19.685
f 12/57/13 6/58/13 8/59/13

vt 2.66454e-015 3.33067e-016
f 6/58/13 12/57/13 13/60/13

vn 0 -1.12799e-017 1
vt 2.46063 29.5276
f 2/2/14 6/61/14 13/19/14

vt 2.46063 0
f 6/61/14 2/2/14 4/62/14

