# Alias OBJ Model File
# Exported from SketchUp, (c) 2000-2012 Trimble Navigation Limited
# File units = meters

mtllib spaceInterior_016.mtl

g Mesh1 Group1 Model

usemtl Red_Metal
v 0.465 0.1875 -0
vt 18.3071 7.38189
vn -2.72005e-015 0 1
v 0 0.0625 -1.44382e-015
vt -1.54617e-028 2.46063
v 0.465 0.0625 -0
vt 18.3071 2.46063
f 1/1/1 2/2/1 3/3/1

v 0 0.1875 -1.44382e-015
vt -1.54617e-028 7.38189
f 2/2/1 1/1/1 4/4/1

vt 18.3071 5.21978
vn -1.92336e-015 0.707107 0.707107
v 0 0.25 -0.0625
vt -6.69303e-015 8.69964
vt -1.54617e-028 5.21978
f 1/5/2 5/6/2 4/7/2

v 0.465 0.25 -0.0625
vt 18.3071 8.69964
f 5/6/2 1/5/2 6/8/2

vt 4.97961e-014 7.38189
vn 1 0 2.72005e-015
v 0.465 0.166539 -0.0506036
vt 1.99227 6.55667
vt 2.46063 9.84252
f 1/9/3 7/10/3 6/11/3

v 0.465 0.0834607 -0.0506036
vt 1.99227 3.28585
f 7/10/3 1/9/3 8/12/3

v 0.465 0 -0.0625
vt 2.46063 0
f 1/9/3 9/13/3 8/12/3

vt 4.97961e-014 2.46063
f 9/13/3 1/9/3 3/14/3

vt -1.55011e-028 1.73993
vn -1.92336e-015 -0.707107 0.707107
vt 18.3071 -1.73993
vt 18.3071 1.73993
f 2/15/4 9/16/4 3/17/4

v 0 0 -0.0625
vt -6.69303e-015 -1.73993
f 9/16/4 2/15/4 10/18/4

vt -5.68434e-014 2.46063
vn -1 0 -2.72005e-015
v 0 0.0834607 -0.0506036
vt -1.99227 3.28585
vt -2.46063 0
f 2/19/5 11/20/5 10/21/5

v 0 0.166539 -0.0506036
vt -1.99227 6.55667
f 11/20/5 2/19/5 12/22/5

vt -2.46063 9.84252
f 2/19/5 5/23/5 12/22/5

vt -5.68434e-014 7.38189
f 5/23/5 2/19/5 4/24/5

v 0 0.199396 -0.0834607
vt -3.28585 7.85025
f 12/22/5 5/23/5 13/25/5

v 7.21911e-016 0.25 -0.1875
vt -7.38189 9.84252
f 13/25/5 5/23/5 14/26/5

vn 0 1 -0
vt 2.84217e-014 7.38189
vt 0 2.46063
f 6/3/6 14/27/6 5/28/6

v 0.465 0.25 -0.1875
f 14/27/6 6/3/6 15/1/6

v 0.465 0.199396 -0.0834607
vt 3.28585 7.85025
vt 7.38189 9.84252
f 6/11/3 16/29/3 15/30/3

f 6/11/3 7/10/3 16/29/3

usemtl Metal
v 0.435 0.154078 -0.0729225
vt -9.0118 13.1957
vn 0.633982 -0.546839 -0.546839
vt -9.46907 15.3268
vt -10.4486 13.7817
f 17/31/7 16/32/7 7/33/7

v 0.435 0.177078 -0.0959225
vt -8.32612 14.2773
f 16/32/7 17/31/7 18/34/7

usemtl Dark_Metal
vt 2.87096 6.06604
vn 1 -3.11728e-016 2.72005e-015
v 0.435 0.0729225 -0.0959225
vt 3.77648 2.87096
vt 3.77648 6.97156
f 17/35/8 19/36/8 18/37/8

v 0.435 0.0959225 -0.0729225
vt 2.87096 3.77648
f 19/36/8 17/35/8 20/38/8

usemtl Metal
vt -13.4989 6.55667
vn 0.596896 -1.61892e-018 -0.802318
vt -12.0268 3.77648
vt -12.0268 6.06604
f 7/39/9 20/40/9 17/41/9

vt -13.4989 3.28585
f 20/40/9 7/39/9 8/42/9

v 0.465 0.0506036 -0.0834607
vt -9.46907 -7.08626
vn 0.633982 0.546839 -0.546839
vt -9.0118 -4.9552
vt -10.4486 -5.5412
f 21/43/10 20/44/10 8/45/10

vt -8.32612 -6.03674
f 20/44/10 21/43/10 19/46/10

vt 3.28585 -13.4989
vn 0.596896 0.802318 1.58191e-015
v 0.435 0.0729225 -0.154078
vt 6.06604 -12.0268
vt 3.77648 -12.0268
f 21/47/11 22/48/11 19/49/11

v 0.465 0.0506036 -0.166539
vt 6.55667 -13.4989
f 22/48/11 21/47/11 23/50/11

usemtl Red_Metal
vt 3.28585 1.99227
v 0.465 0 -0.1875
vt 7.38189 0
vt 6.55667 1.99227
f 21/51/3 24/52/3 23/53/3

f 21/51/3 9/13/3 24/52/3

f 8/12/3 9/13/3 21/51/3

vt -18.3071 2.46063
vn 0 -1 -0
v 7.21911e-016 0 -0.1875
vt -2.84217e-014 7.38189
vt -18.3071 7.38189
f 9/54/12 25/55/12 24/56/12

f 25/55/12 9/54/12 10/28/12

v 0 0.0506036 -0.0834607
vt -3.28585 1.99227
vt -7.38189 0
f 10/21/5 26/57/5 25/58/5

f 10/21/5 11/20/5 26/57/5

usemtl Metal
v 0.03 0.0959225 -0.0729225
vt -2.94542 2.62547
vn -0.633982 0.546839 -0.546839
vt -2.48815 0.494403
vt -1.50861 2.03947
f 27/59/13 26/60/13 11/61/13

v 0.03 0.0729225 -0.0959225
vt -3.6311 1.54392
f 26/60/13 27/59/13 28/62/13

usemtl Dark_Metal
vt -2.87096 3.77648
vn -1 3.11728e-016 -2.72005e-015
v 0.03 0.177078 -0.0959225
vt -3.77648 6.97156
vt -3.77648 2.87096
f 27/63/14 29/64/14 28/65/14

v 0.03 0.154078 -0.0729225
vt -2.87096 6.06604
f 29/64/14 27/63/14 30/66/14

usemtl Metal
vt -2.66129 3.77648
vn -0.596896 1.88874e-018 -0.802318
vt -1.18918 6.55667
vt -2.66129 6.06604
f 27/67/15 12/68/15 30/69/15

vt -1.18918 3.28585
f 12/68/15 27/67/15 11/70/15

vt -2.48815 7.74612
vn -0.633982 -0.546839 -0.546839
vt -2.94542 5.61506
vt -1.50861 6.20106
f 13/71/16 30/72/16 12/73/16

vt -3.6311 6.6966
f 30/72/16 13/71/16 29/74/16

vt -3.28585 4.68579
vn -0.596896 -0.802318 -1.61716e-015
v 0.03 0.177078 -0.154078
vt -6.06604 3.21368
vt -3.77648 3.21368
f 13/75/17 31/76/17 29/77/17

v 0 0.199396 -0.166539
vt -6.55667 4.68579
f 31/76/17 13/75/17 32/78/17

usemtl Red_Metal
vt -6.55667 7.85025
f 13/25/5 14/26/5 32/79/5

v 7.21911e-016 0.166539 -0.199396
vt -7.85025 6.55667
f 32/79/5 14/26/5 33/80/5

v 7.21911e-016 0.1875 -0.25
vt -9.84252 7.38189
f 33/80/5 14/26/5 34/81/5

vt -18.3071 1.73993
vn 1.92336e-015 0.707107 -0.707107
vt -1.6496e-015 -1.73993
vt -8.34263e-015 1.73993
f 15/82/18 34/83/18 14/84/18

v 0.465 0.1875 -0.25
vt -18.3071 -1.73993
f 34/83/18 15/82/18 35/85/18

v 0.465 0.166539 -0.199396
vt 7.85025 6.55667
vt 9.84252 7.38189
f 15/30/3 36/86/3 35/87/3

v 0.465 0.199396 -0.166539
vt 6.55667 7.85025
f 15/30/3 37/88/3 36/86/3

f 15/30/3 16/29/3 37/88/3

usemtl Metal
vt 3.28585 19.3739
vn 0.596896 -0.802318 1.6217e-015
v 0.435 0.177078 -0.154078
vt 6.06604 17.9018
vt 6.55667 19.3739
f 16/89/19 38/90/19 37/91/19

vt 3.77648 17.9018
f 38/90/19 16/89/19 18/92/19

usemtl Dark_Metal
vt 6.06604 2.87096
vt 6.06604 6.97156
f 18/37/8 22/93/8 38/94/8

f 18/37/8 19/36/8 22/93/8

v 0.435 0.0959225 -0.177078
vt 6.97156 3.77648
f 38/94/8 22/93/8 39/95/8

usemtl Metal
vt 16.9221 -3.57084
vn 0.633982 0.546839 0.546839
vt 16.4649 -1.43978
vt 15.7792 -2.52132
f 23/96/20 39/97/20 22/98/20

v 0.465 0.0834607 -0.199396
vt 17.9017 -2.02578
f 39/97/20 23/96/20 40/99/20

usemtl Red_Metal
vt 7.85025 3.28585
f 23/53/3 24/52/3 40/100/3

v 0.465 0.0625 -0.25
vt 9.84252 2.46063
f 40/100/3 24/52/3 41/101/3

vt -8.34263e-015 5.21978
vn 1.92336e-015 -0.707107 -0.707107
vt -18.3071 8.69964
vt -18.3071 5.21978
f 25/102/21 41/103/21 24/104/21

v 7.21911e-016 0.0625 -0.25
vt -1.6496e-015 8.69964
f 41/103/21 25/102/21 42/105/21

v 7.21911e-016 0.0834607 -0.199396
vt -7.85025 3.28585
vt -9.84252 2.46063
f 25/58/5 43/106/5 42/107/5

v 0 0.0506036 -0.166539
vt -6.55667 1.99227
f 25/58/5 44/108/5 43/106/5

f 25/58/5 26/57/5 44/108/5

usemtl Metal
vt -3.77648 2.66129
vn -0.596896 0.802318 -1.6624e-015
vt -6.55667 1.18918
vt -3.28585 1.18918
f 28/109/22 44/110/22 26/111/22

v 0.03 0.0729225 -0.154078
vt -6.06604 2.66129
f 44/110/22 28/109/22 45/112/22

usemtl Dark_Metal
vt -6.06604 6.97156
vt -6.06604 2.87096
f 28/65/14 31/113/14 45/114/14

f 28/65/14 29/64/14 31/113/14

v 0.03 0.154078 -0.177078
vt -6.97156 6.06604
f 45/114/14 31/113/14 46/115/14

usemtl Metal
vt -4.96491 4.23071
vn -0.633982 -0.546839 0.546839
vt -4.50764 2.09964
vt -3.82196 3.18118
f 32/116/23 46/117/23 31/118/23

vt -5.94446 2.68564
f 46/117/23 32/116/23 33/119/23

vt -4.68579 6.55667
vn -0.596896 -3.83421e-018 0.802318
v 0.03 0.0959225 -0.177078
vt -3.21368 3.77648
vt -3.21368 6.06604
f 33/120/24 47/121/24 46/122/24

vt -4.68579 3.28585
f 47/121/24 33/120/24 43/123/24

usemtl Red_Metal
f 33/80/5 34/81/5 43/106/5

f 42/107/5 43/106/5 34/81/5

vt -1.6496e-015 7.38189
vn 2.72005e-015 0 -1
vt -1.6496e-015 2.46063
f 34/124/25 41/54/25 42/125/25

f 41/54/25 34/124/25 35/56/25

f 35/87/3 36/86/3 41/101/3

f 40/100/3 41/101/3 36/86/3

usemtl Metal
vt 19.3739 6.55667
vn 0.596896 3.83421e-018 0.802318
vt 17.9018 3.77648
vt 19.3739 3.28585
f 36/126/26 39/127/26 40/128/26

v 0.435 0.154078 -0.177078
vt 17.9018 6.06604
f 39/127/26 36/126/26 48/129/26

vt 16.9221 11.8114
vn 0.633982 -0.546839 0.546839
vt 16.4649 9.6803
vt 17.9017 10.2663
f 37/130/27 48/131/27 36/132/27

vt 15.7792 10.7619
f 48/131/27 37/130/27 38/133/27

usemtl Dark_Metal
vt 6.97156 6.06604
f 38/94/8 39/95/8 48/134/8

usemtl Metal
vt -4.96491 4.00982
vn -0.633982 0.546839 0.546839
vt -4.50764 6.14089
vt -5.94446 5.55489
f 44/135/28 47/136/28 43/137/28

vt -3.82196 5.05934
f 47/136/28 44/135/28 45/138/28

usemtl Dark_Metal
vt -6.97156 3.77648
f 45/114/14 46/115/14 47/139/14

