# Alias OBJ Model File
# Exported from SketchUp, (c) 2000-2012 Trimble Navigation Limited
# File units = meters

mtllib spaceInterior_029.mtl

g Mesh1 Group1 Model

usemtl Metal
v 0.25 1 -0
vt 9.84252 0
vn 0 1 -0
v 0 1 -1
vt 0 39.3701
v 0 1 -0
vt 0 0
f 1/1/1 2/2/1 3/3/1

v 0.25 1 -1
vt 9.84252 39.3701
f 2/2/1 1/1/1 4/4/1

vn 1 0 -0
v 0.25 0.875 -1
vt 39.3701 34.4488
vt 39.3701 39.3701
f 1/2/2 5/5/2 4/6/2

v 0.25 0.875 -0
vt 0 34.4488
f 5/5/2 1/2/2 6/7/2

vn 0 0 1
vt 9.84252 34.4488
f 3/2/3 6/8/3 1/4/3

v 0.125 0.75 -0
vt 4.92126 29.5276
f 3/2/3 7/9/3 6/8/3

v 0.125 0.125 -0
vt 4.92126 4.92126
f 3/2/3 8/10/3 7/9/3

v 0 0 -0
f 9/3/3 8/10/3 3/2/3

v 0.1875 0.125 -0
vt 7.38189 4.92126
f 9/3/3 10/11/3 8/10/3

v 0.1875 0 -0
vt 7.38189 0
f 10/11/3 9/3/3 11/12/3

vn 4.10013e-015 -1 -5.06077e-015
v 0.15625 1.08287e-015 -0.0849722
vt -6.15157 3.34536
vt -7.38189 -1.53173e-028
f 9/3/4 12/13/4 11/14/4

v 0.15625 1.08287e-015 -0.132422
vt -6.15157 5.21347
f 9/3/4 13/15/4 12/13/4

v -1.44382e-015 0 -0.132422
vt 5.68434e-014 5.21347
f 13/15/4 9/3/4 14/16/4

v 0 0.617578 -0.132422
vt -5.21347 24.3141
vn -1 6.49925e-016 -3.30455e-018
vt -5.21347 -3.69551e-029
f 15/17/5 14/18/5 9/3/5

v 0 0.209972 -0.132422
vt -5.21347 8.26662
f 14/18/5 15/17/5 16/19/5

v 0.15625 0.617578 -0.132422
vt -6.15157 24.3141
vn 0 0 -1
vt 0 8.26662
vt 0 24.3141
f 17/20/6 16/21/6 15/22/6

v 0.15625 0.125 -0.132422
vt -6.15157 4.92126
f 18/23/6 16/21/6 17/20/6

vt -6.15157 4.26326e-014
f 13/24/6 16/21/6 18/23/6

vt 5.68434e-014 0
f 16/21/6 13/24/6 14/25/6

v 0.1875 0.125 -0.0849722
vt -1.26631 4.92126
vn 0.835151 3.91304e-018 -0.550021
vt 0.970538 4.26012e-014
vt 0.970538 4.92126
f 19/26/7 13/27/7 18/28/7

v 0.1875 1.03775e-015 -0.0849722
vt -1.26631 4.08249e-014
f 13/27/7 19/26/7 20/29/7

vt 0 4.92126
vt 3.34536 4.08562e-014
vt 3.34536 4.92126
f 10/30/2 20/31/2 19/32/2

f 20/31/2 10/30/2 11/3/2

vt -7.38189 3.34536
f 11/14/4 12/13/4 20/33/4

vn -1.44382e-015 -1 -0
f 20/33/8 12/13/8 13/15/8

vt 5.21347 4.26326e-014
v 0.15625 0.125 -0.0849722
vt 3.34536 4.26326e-014
f 13/34/2 21/32/2 12/35/2

vt 5.21347 4.92126
f 21/32/2 13/34/2 18/36/2

vt 6.15157 3.34536
vn 3.60956e-016 1 5.61362e-016
vt 7.38189 2.76261e-015
vt 6.15157 5.21347
f 21/37/9 10/38/9 18/39/9

v 0.125 0.125 -0.0849722
vt 4.92126 3.34536
f 22/40/9 10/38/9 21/37/9

vt 4.92126 2.76261e-015
f 10/38/9 22/40/9 8/41/9

usemtl Dark_Metal
vt 0 29.5276
f 22/32/2 7/42/2 8/30/2

v 0.125 0.617578 -0.0849722
vt 3.34536 24.3141
f 7/42/2 22/32/2 23/43/2

usemtl Metal
v 0.15625 0.617578 -0.0849722
vt 6.15157 24.3141
vt 4.92126 24.3141
f 22/10/3 24/44/3 23/45/3

vt 6.15157 4.92126
f 24/44/3 22/10/3 21/46/3

f 18/36/2 24/43/2 21/32/2

v 0.15625 0.665028 -0.132422
vt 5.21347 26.1822
f 24/43/2 18/36/2 25/47/2

vt 5.21347 24.3141
f 25/47/2 18/36/2 17/48/2

v 0.15625 0.617578 -1
vt 39.3701 24.3141
f 25/47/2 17/48/2 26/49/2

vt 0 5.21347
vn 0 -1 -0
vt -6.15157 39.3701
f 15/50/10 26/51/10 17/15/10

v 0 0.617578 -1
f 26/51/10 15/50/10 27/2/10

vt -39.3701 39.3701
vt -39.3701 24.3141
f 15/17/5 2/52/5 27/53/5

f 15/17/5 3/2/5 2/52/5

f 3/2/5 15/17/5 9/3/5

v 0.125 0.665028 -1
vt -4.92126 26.1822
f 28/54/6 27/22/6 2/2/6

f 27/22/6 28/54/6 26/20/6

v 0.15625 0.665028 -1
vt -6.15157 26.1822
f 29/55/6 26/20/6 28/54/6

vt 39.3701 26.1822
f 25/47/2 26/49/2 29/56/2

vt 4.92126 39.3701
vt 6.15157 39.3701
f 28/57/1 25/39/1 29/58/1

v 0.125 0.665028 -0.132422
vt 4.92126 5.21347
f 25/39/1 28/57/1 30/59/1

usemtl Dark_Metal
v 0.125 0.75 -1
vt 39.3701 29.5276
f 31/60/2 30/47/2 28/56/2

f 7/42/2 30/47/2 31/60/2

f 7/42/2 23/43/2 30/47/2

usemtl Metal
vt 4.92126 19.5582
vn 0 0.707107 0.707107
vt 6.15157 22.2001
vt 4.92126 22.2001
f 23/61/11 25/62/11 30/63/11

vt 6.15157 19.5582
f 25/62/11 23/61/11 24/64/11

vt 39.3701 31.3187
vn 0.707107 -0.707107 -0
vt 0 24.359
vt 39.3701 24.359
f 5/65/12 7/66/12 31/67/12

vt 0 31.3187
f 7/66/12 5/65/12 6/68/12

vt -4.92126 29.5276
vt -9.84252 34.4488
f 31/69/6 2/2/6 5/70/6

f 28/54/6 2/2/6 31/69/6

vt -9.84252 39.3701
f 5/70/6 2/2/6 4/71/6

vt 7.38189 3.34536
f 18/39/9 10/38/9 19/72/9

