# Alias OBJ Model File
# Exported from SketchUp, (c) 2000-2012 Trimble Navigation Limited
# File units = meters

mtllib spaceInterior_062.mtl

g Mesh1 Group1 Model

usemtl Metal
v 1.5 0.75 -0.132422
vt -5.21347 -20.8791
vn -0.707107 -0.707107 2.14014e-013
v 1.375 0.875 -1.70371e-013
vt 9.6767e-012 -13.9194
v 1.375 0.875 -0.132422
vt -5.21347 -13.9194
f 1/1/1 2/2/1 3/3/1

v 1.5 0.75 -2.0791e-013
vt 9.68825e-012 -20.8791
f 2/2/1 1/1/1 4/4/1

usemtl Dark_Metal
vt -5.21347 29.5276
vn -1 0 3.02661e-013
v 1.5 0.465 -2.0791e-013
vt 9.68825e-012 18.3071
vt 9.68825e-012 29.5276
f 1/5/2 5/6/2 4/7/2

v 1.5 0.465 -0.132422
vt -5.21347 18.3071
f 5/6/2 1/5/2 6/8/2

usemtl Metal
v 1.625 1 -0.132422
vt -63.9764 39.3701
vn -1.52137e-013 3.94625e-014 -1
vt -59.0551 18.3071
vt -59.0551 29.5276
f 7/9/3 6/10/3 1/11/3

v 1.625 0 -0.132422
vt -63.9764 -2.05737e-013
f 8/12/3 6/10/3 7/9/3

v 1.4675 0.465 -0.132422
vt -57.7756 18.3071
f 8/12/3 9/13/3 6/10/3

v 1.4675 0 -0.132422
vt -57.7756 -2.05737e-013
f 9/13/3 8/12/3 10/14/3

vt -63.9764 5.21347
vn 0 -1 -0
v 1.4675 0 -1.97804e-013
vt -57.7756 7.78755e-012
vt -57.7756 5.21347
f 8/15/4 11/16/4 10/17/4

v 1.625 0 -2.4545e-013
vt -63.9764 9.66338e-012
f 11/16/4 8/15/4 12/18/4

vt 5.21347 0
vn 1 0 -3.02661e-013
v 1.625 1 -2.4545e-013
vt -9.69979e-012 39.3701
vt -9.69979e-012 0
f 8/19/5 13/20/5 12/21/5

vt 5.21347 39.3701
f 13/20/5 8/19/5 7/22/5

v 0 1 -0.132422
vt 0 5.21347
vn 0 1 -0
vt 63.9764 9.66338e-012
vt 63.9764 5.21347
f 14/23/6 13/24/6 7/25/6

v 0 1 -0
vt 0 0
f 13/24/6 14/23/6 15/26/6

vt -5.21347 39.3701
vn -1 0 -0
v 0 0 -0
vt 0 39.3701
f 14/27/7 16/26/7 15/28/7

v 0 0 -0.132422
vt -5.21347 0
f 16/26/7 14/27/7 17/29/7

vt -7.9316e-013 39.3701
v 0.1575 0 -0.132422
vt -6.20079 -2.05737e-013
vt -7.9316e-013 -2.05737e-013
f 14/30/3 18/31/3 17/32/3

v 0.125 0.465 -0.132422
vt -4.92126 18.3071
f 18/31/3 14/30/3 19/33/3

v 0.125 0.75 -0.132422
vt -4.92126 29.5276
f 19/33/3 14/30/3 20/34/3

v 0.25 0.875 -0.132422
vt -9.84252 34.4488
f 20/34/3 14/30/3 21/35/3

vt -54.1339 34.4488
f 21/35/3 14/30/3 3/36/3

f 7/9/3 3/36/3 14/30/3

f 7/9/3 1/11/3 3/36/3

vt -54.1339 5.21347
v 0.25 0.875 -0
vt -9.84252 0
vt -9.84252 5.21347
f 3/37/4 22/38/4 21/39/4

vt -54.1339 6.70752e-012
f 22/38/4 3/37/4 2/40/4

vt 54.1339 34.4488
vn 1.51114e-013 -3.92203e-014 1
vt 63.9764 39.3701
vt 9.84252 34.4488
f 2/41/8 13/42/8 22/43/8

vt 59.0551 29.5276
f 4/44/8 13/42/8 2/41/8

vt 59.0551 18.3071
f 5/45/8 13/42/8 4/44/8

vt 57.7756 3.6991e-026
f 11/46/8 13/42/8 5/45/8

vt 63.9764 1.70686e-028
f 13/42/8 11/46/8 12/47/8

v 1.4675 0.465 -1.97804e-013
vt 57.7756 18.3071
f 23/48/8 11/46/8 5/45/8

vt 9.69889e-012 0
vt 9.69889e-012 18.3071
f 9/8/2 11/49/2 23/50/2

f 11/49/2 9/8/2 10/29/2

vt 57.7756 7.78755e-012
vt 59.0551 5.21347
vt 57.7756 5.21347
f 23/51/6 6/52/6 9/53/6

vt 59.0551 8.18545e-012
f 6/52/6 23/51/6 5/54/6

f 15/28/8 22/43/8 13/42/8

v 0.125 0.75 -0
vt 4.92126 29.5276
f 15/28/8 24/55/8 22/43/8

v 0.125 0.465 -0
vt 4.92126 18.3071
f 15/28/8 25/56/8 24/55/8

f 16/26/8 25/56/8 15/28/8

v 0.1575 0.465 -0
vt 6.20079 18.3071
f 16/26/8 26/57/8 25/56/8

v 0.1575 0 -0
vt 6.20079 3.67505e-026
f 26/57/8 16/26/8 27/58/8

vt -6.20079 5.21347
vt -6.20079 0
f 16/26/4 18/59/4 27/60/4

f 18/59/4 16/26/4 17/23/4

vn 1 0 -0
vt 0 18.3071
f 18/19/9 26/61/9 27/26/9

v 0.1575 0.465 -0.132422
vt 5.21347 18.3071
f 26/61/9 18/19/9 28/62/9

vt -6.20079 18.3071
f 28/63/3 18/31/3 19/33/3

vt 4.92126 5.21347
vt 6.20079 0
vt 6.20079 5.21347
f 19/64/6 26/65/6 28/66/6

vt 4.92126 0
f 26/65/6 19/64/6 25/67/6

usemtl Dark_Metal
vt 0 29.5276
f 19/62/9 24/68/9 25/61/9

vt 5.21347 29.5276
f 24/68/9 19/62/9 20/69/9

usemtl Metal
vt 5.21347 31.3187
vn 0.707107 -0.707107 -0
vt 0 24.359
vt 5.21347 24.359
f 21/70/10 24/71/10 20/72/10

vt 0 31.3187
f 24/71/10 21/70/10 22/73/10

