# Alias OBJ Model File
# Exported from SketchUp, (c) 2000-2012 Trimble Navigation Limited
# File units = meters

mtllib spaceInterior_074.mtl

g Mesh1 Group1 Model

usemtl Dark_Metal
v 0.046875 0.375 -0.125
vt 1.84547 4.92126
vn 0 1 -0
v 0.0234375 0.375 -0.711328
vt 0.922736 28.005
v 0.0234375 0.375 -0.125
vt 0.922736 4.92126
f 1/1/1 2/2/1 3/3/1

v 0.046875 0.375 -0.711328
vt 1.84547 28.005
f 2/2/1 1/1/1 4/4/1

vt 4.92126 14.7638
vn 1 0 -0
v 0.046875 0.25 -0.711328
vt 28.005 9.84252
vt 28.005 14.7638
f 1/5/2 5/6/2 4/7/2

v 0.046875 0.25 -0.125
vt 4.92126 9.84252
f 5/6/2 1/5/2 6/8/2

usemtl Metal
v 0.0625 0.492578 -0.125
vt -2.46063 19.3928
vn -4.92497e-015 1.22748e-016 -1
vt -1.84547 9.84252
vt -1.84547 14.7638
f 7/9/3 6/10/3 1/11/3

v 0.0625 0.125 -0.125
vt -2.46063 4.92126
f 6/10/3 7/9/3 8/12/3

v 0.0625 6.40645e-016 -4.51195e-017
vt -1.09676e-014 7.96429e-015
vn 1 7.01364e-015 -5.17915e-015
vt 4.92126 4.92126
vt 4.92126 19.3928
f 9/13/4 8/14/4 7/15/4

v 0.0625 1.02344e-015 -0.836328
vt 32.9263 2.30351e-014
f 8/14/4 9/13/4 10/16/4

vt -2.46063 1.77636e-015
vn 1.33684e-014 -1 -2.22665e-016
v 0.03125 5.18874e-016 -0.867578
vt -1.23031 34.1566
vt -2.46063 32.9263
f 9/17/5 11/18/5 10/19/5

v 2.88765e-015 0 -4.51195e-017
vt -1.13687e-013 1.77636e-015
f 12/20/5 11/18/5 9/17/5

v 2.88765e-015 0 -0.867578
vt -1.13687e-013 34.1566
f 11/18/5 12/20/5 13/21/5

vt -1.77636e-015 -2.44238e-028
vn -1 -2.14834e-015 -0
v 4.33147e-015 0.125 -0.125
vt -4.92126 4.92126
vt -34.1566 -2.44238e-028
f 12/22/6 14/23/6 13/24/6

v 5.77529e-015 0.492578 -0.125
vt -4.92126 19.3928
f 14/23/6 12/22/6 15/25/6

v 2.88765e-015 0.617578 -0
vt 0 24.3141
f 16/26/6 15/25/6 12/22/6

v 2.88765e-015 0.617578 -0.867578
vt -34.1566 24.3141
f 15/25/6 16/26/6 17/27/6

v 0.0625 0.617578 -0
vt 2.46063 6.7092e-015
vn -1.29617e-014 1 2.75939e-016
vt 4.2884e-013 34.1566
vt 4.2884e-013 6.7092e-015
f 18/28/7 17/29/7 16/30/7

v 0.03125 0.617578 -0.867578
vt 1.23031 34.1566
f 17/29/7 18/28/7 19/31/7

v 0.0625 0.617578 -0.836328
vt 2.46063 32.9263
f 19/31/7 18/28/7 20/32/7

vt -1.2744e-014 24.3141
vt 32.9263 24.3141
f 18/33/4 7/15/4 20/34/4

f 7/15/4 18/33/4 9/13/4

vt 1.13687e-013 24.3141
vn 2.34586e-030 -2.28857e-016 1
vt 2.46063 2.52223e-014
vt 2.46063 24.3141
f 16/35/8 9/36/8 18/37/8

vt 1.13687e-013 -4.06531e-031
f 9/36/8 16/35/8 12/38/8

v 0.0625 0.492578 -0.711328
vt 28.005 19.3928
f 20/34/4 7/15/4 21/39/4

vt -3.03547e-013 4.92126
vn 3.92794e-015 -1 -3.0781e-016
vt -2.46063 28.005
f 15/40/9 21/41/9 7/12/9

v 0 0.492578 -0.711328
vt -7.61738e-014 28.005
f 21/41/9 15/40/9 22/42/9

vt -28.005 19.3928
f 15/25/6 17/27/6 22/43/6

v 4.33147e-015 0.125 -0.711328
vt -28.005 4.92126
f 22/43/6 17/27/6 23/44/6

f 13/24/6 23/44/6 17/27/6

f 13/24/6 14/23/6 23/44/6

vt 2.46063 4.92126
vn -3.92794e-015 1 3.46287e-016
vt 1.89861e-013 28.005
vt 1.89861e-013 4.92126
f 8/45/10 23/46/10 14/47/10

v 0.0625 0.125 -0.711328
vt 2.46063 28.005
f 23/46/10 8/45/10 24/48/10

vt 28.005 4.92126
f 8/14/4 10/16/4 24/49/4

f 24/49/4 10/16/4 20/34/4

vt 21.5425 -2.15644e-013
vn 0.707107 1.02283e-014 -0.707107
vt 23.2824 24.3141
vt 21.5425 24.3141
f 10/50/11 19/51/11 20/52/11

vt 23.2824 -2.35509e-013
f 19/51/11 10/50/11 11/53/11

vt -1.23031 1.29418e-014
vn 4.33147e-015 2.19176e-016 -1
vt 3.42614e-014 24.3141
vt -1.23031 24.3141
f 11/54/12 17/55/12 19/56/12

vt 3.42614e-014 -7.48632e-015
f 17/55/12 11/54/12 13/57/12

f 20/34/4 21/39/4 24/49/4

vt 2.46063 19.3928
vn 4.92497e-015 -4.90992e-016 1
vt 1.84547 9.84252
f 21/58/13 5/59/13 24/45/13

vt 1.84547 14.7638
f 5/59/13 21/58/13 4/60/13

vt 0.922736 14.7638
f 4/60/13 21/58/13 2/61/13

vt 1.37924e-013 19.3928
f 22/62/13 2/61/13 21/58/13

v 0.0234375 0.25 -0.711328
vt 0.922736 9.84252
f 22/62/13 25/63/13 2/61/13

vt 3.08454e-013 4.92126
f 23/64/13 25/63/13 22/62/13

f 25/63/13 23/64/13 24/45/13

f 25/63/13 24/45/13 5/59/13

usemtl Dark_Metal
vt -1.84547 28.005
vn 0 -1 -0
v 0.0234375 0.25 -0.125
vt -0.922736 4.92126
vt -0.922736 28.005
f 5/65/14 26/66/14 25/67/14

vt -1.84547 4.92126
f 26/66/14 5/65/14 6/68/14

usemtl Metal
vt -0.922736 9.84252
f 8/12/3 26/69/3 6/10/3

vt -1.94767e-013 4.92126
f 14/70/3 26/69/3 8/12/3

vt -2.51611e-013 19.3928
f 26/69/3 14/70/3 15/71/3

vt -0.922736 14.7638
f 26/69/3 15/71/3 3/72/3

f 3/72/3 15/71/3 1/11/3

f 7/9/3 1/11/3 15/71/3

vn 0 0 -1
f 1/11/15 26/69/15 3/72/15

f 26/69/15 1/11/15 6/10/15

usemtl Dark_Metal
vt -28.005 14.7638
vn -1 -5.77529e-015 -0
vt -4.92126 9.84252
vt -4.92126 14.7638
f 2/73/16 26/74/16 3/75/16

vt -28.005 9.84252
f 26/74/16 2/73/16 25/76/16

usemtl Metal
vn 0 0 1
f 25/63/17 4/60/17 2/61/17

f 4/60/17 25/63/17 5/59/17

