# Alias OBJ Model File
# Exported from SketchUp, (c) 2000-2012 Trimble Navigation Limited
# File units = meters

mtllib spaceInterior_069.mtl

g Mesh1 Group1 Model

usemtl Metal
v 0.046875 0.35222 -0.5
vt 19.685 12.4793
vn 0.824653 -0.565639 1.01877e-016
v 0.0625 0.375 -0
vt 3.03983e-016 13.5668
v 0.046875 0.35222 -0
vt 2.27987e-016 12.4793
f 1/1/1 2/2/1 3/3/1

v 0.0625 0.375 -0.5
vt 19.685 13.5668
f 2/2/1 1/1/1 4/4/1

vt -1.84547 13.8669
vn 6.07528e-015 7.87981e-017 -1
v 1.44382e-014 0.75 -0.5
vt -4.48842e-013 29.5276
vt -2.46063 14.7638
f 1/5/2 5/6/2 4/7/2

v 0.046875 0.22722 -0.5
vt -1.84547 8.94567
f 6/8/2 5/6/2 1/5/2

v 0.046875 0.10222 -0.5
vt -1.84547 4.02441
f 7/9/2 5/6/2 6/8/2

v 0 0 -0.5
vt 1.19592e-013 -1.55114e-015
f 7/9/2 8/10/2 5/6/2

v 0.0625 2.65077e-016 -0.5
vt -2.46063 8.88495e-015
f 8/10/2 7/9/2 9/11/2

v 0.0625 0.0794402 -0.5
vt -2.46063 3.12757
f 9/11/2 7/9/2 10/12/2

v 0.046875 0.10222 -0
vt 2.87691e-018 2.27487
vn 0.824653 0.565639 1.28555e-018
vt 19.685 1.18733
vt 19.685 2.27487
f 11/13/3 10/14/3 7/15/3

v 0.0625 0.0794402 -0
vt 3.83588e-018 1.18733
f 10/14/3 11/13/3 12/16/3

vt 1.84547 4.02441
vn 0 0 1
v 0.0625 4.96314e-016 -0
vt 2.46063 1.95399e-014
vt 2.46063 3.12757
f 11/17/4 13/18/4 12/19/4

v 0 0 -0
vt 0 0
f 11/17/4 14/20/4 13/18/4

v 1.44382e-014 0.75 -0
vt 5.68434e-013 29.5276
f 14/20/4 11/17/4 15/21/4

v 0.046875 0.22722 -0
vt 1.84547 8.94567
f 15/21/4 11/17/4 16/22/4

v 0.0625 0.125 -0
vt 2.46063 4.92126
f 16/22/4 11/17/4 17/23/4

vt 19.685 4.36262
vn 0.824653 -0.565639 8.89117e-017
vt 2.65298e-016 5.45016
vt 1.98974e-016 4.36262
f 7/24/5 17/25/5 11/26/5

v 0.0625 0.125 -0.5
vt 19.685 5.45016
f 17/25/5 7/24/5 18/27/5

vt -2.46063 4.92126
f 7/9/2 6/8/2 18/28/2

v 0.0625 0.20444 -0.5
vt -2.46063 8.04883
f 18/28/2 6/8/2 19/29/2

vt 2.87691e-018 6.3332
vt 19.685 5.24566
vt 19.685 6.3332
f 16/30/3 19/31/3 6/32/3

v 0.0625 0.20444 -0
vt 3.83588e-018 5.24566
f 19/31/3 16/30/3 20/33/3

vt 2.46063 8.04883
f 16/22/4 17/23/4 20/34/4

vt 19.685 4.92126
vn 1 -1.8175e-014 2.83105e-030
vt 6.96617e-030 8.04883
vt 6.96617e-030 4.92126
f 18/35/6 20/36/6 17/37/6

vt 19.685 8.04883
f 20/36/6 18/35/6 19/38/6

vt 19.685 8.42095
vn 0.824653 -0.565639 1.27806e-016
v 0.0625 0.25 -0
vt 3.81353e-016 9.50849
vt 2.86015e-016 8.42095
f 6/39/7 21/40/7 16/41/7

v 0.0625 0.25 -0.5
vt 19.685 9.50849
f 21/40/7 6/39/7 22/42/7

vt -2.46063 9.84252
f 6/8/2 1/5/2 22/43/2

v 0.0625 0.32944 -0.5
vt -2.46063 12.9701
f 22/43/2 1/5/2 23/44/2

vt 2.87691e-018 10.3915
vt 19.685 9.30399
vt 19.685 10.3915
f 3/45/3 23/46/3 1/47/3

v 0.0625 0.32944 -0
vt 3.83588e-018 9.30399
f 23/46/3 3/45/3 24/48/3

vt 1.84547 13.8669
vt 2.46063 9.84252
vt 2.46063 12.9701
f 3/49/4 21/50/4 24/51/4

f 3/49/4 16/22/4 21/50/4

f 15/21/4 16/22/4 3/49/4

vt 2.46063 14.7638
f 15/21/4 3/49/4 2/52/4

v 0.046875 0.47722 -0
vt 1.84547 18.7882
f 15/21/4 2/52/4 25/53/4

v 0.0625 0.45444 -0
vt 2.46063 17.8913
f 25/53/4 2/52/4 26/54/4

vt 19.685 14.7638
vn 1 -1.8175e-014 3.24763e-030
vt 7.99122e-030 17.8913
vt 7.99122e-030 14.7638
f 4/55/8 26/56/8 2/57/8

v 0.0625 0.45444 -0.5
vt 19.685 17.8913
f 26/56/8 4/55/8 27/58/8

v 0.046875 0.47722 -0.5
vt -1.84547 18.7882
vt -2.46063 17.8913
f 4/7/2 28/59/2 27/60/2

f 4/7/2 5/6/2 28/59/2

v 0.0625 0.5 -0.5
vt -2.46063 19.685
f 28/59/2 5/6/2 29/61/2

v 0.046875 0.60222 -0.5
vt -1.84547 23.7095
f 29/61/2 5/6/2 30/62/2

v 0.0625 0.625 -0.5
vt -2.46063 24.6063
f 30/62/2 5/6/2 31/63/2

v 0.0625 0.70444 -0.5
vt -2.46063 27.7339
f 31/63/2 5/6/2 32/64/2

v 0.046875 0.72722 -0.5
vt -1.84547 28.6307
f 32/64/2 5/6/2 33/65/2

v 0.0625 0.75 -0.5
vt -2.46063 29.5276
f 33/65/2 5/6/2 34/66/2

vt 7.48985e-013 19.685
vn -6.11466e-015 1 -1.52867e-016
v 0.0625 0.75 -0
vt 2.46063 -4.51378e-015
vt 2.46063 19.685
f 5/67/9 35/68/9 34/69/9

vt 7.48985e-013 -4.51378e-015
f 35/68/9 5/67/9 15/70/9

vt -19.685 29.5276
vn -1 1.9801e-014 2.06388e-044
vt 1.17318e-056 29.5276
f 5/71/10 14/20/10 15/72/10

vt -19.685 8.04467e-057
f 14/20/10 5/71/10 8/73/10

vn 6.14507e-015 -1 2.255e-016
vt 0 19.685
f 9/61/11 14/20/11 8/74/11

vt -2.46063 -9.96528e-031
f 14/20/11 9/61/11 13/75/11

vt 19.685 8.84152e-014
vn 1 -3.16907e-014 7.12339e-030
vt 1.7528e-029 3.12757
vt 1.7528e-029 9.75191e-014
f 9/76/12 12/77/12 13/78/12

vt 19.685 3.12757
f 12/77/12 9/76/12 10/79/12

v 0.046875 0.72722 -0
vt 1.84547 28.6307
vt 2.46063 29.5276
f 15/21/4 36/80/4 35/81/4

v 0.0625 0.70444 -0
vt 2.46063 27.7339
f 15/21/4 37/82/4 36/80/4

v 0.0625 0.625 -0
vt 2.46063 24.6063
f 15/21/4 38/83/4 37/82/4

v 0.046875 0.60222 -0
vt 1.84547 23.7095
f 15/21/4 39/84/4 38/83/4

v 0.0625 0.5 -0
f 15/21/4 40/69/4 39/84/4

f 15/21/4 25/53/4 40/69/4

vt 19.685 16.5376
vn 0.824653 -0.565639 1.52439e-016
vt 4.54854e-016 17.6252
vt 3.41141e-016 16.5376
f 28/85/13 40/86/13 25/87/13

vt 19.685 17.6252
f 40/86/13 28/85/13 29/88/13

vt 19.685 19.685
vn 1 -1.8175e-014 4.91396e-030
v 0.0625 0.57944 -0
vt 1.20914e-029 22.8126
vt 1.20914e-029 19.685
f 29/89/14 41/90/14 40/91/14

v 0.0625 0.57944 -0.5
vt 19.685 22.8126
f 41/90/14 29/89/14 42/92/14

vt -2.46063 22.8126
f 29/61/2 30/62/2 42/93/2

vt 2.87691e-018 18.5082
vt 19.685 17.4207
vt 19.685 18.5082
f 39/94/3 42/95/3 30/96/3

vt 3.83588e-018 17.4207
f 42/95/3 39/94/3 41/97/3

vt 2.46063 22.8126
f 39/84/4 40/69/4 41/98/4

vt 19.685 20.5959
vt 3.03983e-016 21.6835
vt 2.27987e-016 20.5959
f 30/99/1 38/100/1 39/101/1

vt 19.685 21.6835
f 38/100/1 30/99/1 31/102/1

vt 19.685 24.6063
vn 1 0 -0
vt 0 27.7339
vt 0 24.6063
f 31/103/15 37/104/15 38/105/15

vt 19.685 27.7339
f 37/104/15 31/103/15 32/106/15

vt 19.685 21.479
vt 2.87691e-018 22.5665
vt 3.83588e-018 21.479
f 32/107/3 36/108/3 37/109/3

vt 19.685 22.5665
f 36/108/3 32/107/3 33/110/3

vt 19.685 24.6543
vn 0.824653 -0.565639 8.69546e-017
vt 2.59458e-016 25.7418
vt 1.94594e-016 24.6543
f 33/111/16 35/112/16 36/113/16

vt 19.685 25.7418
f 35/112/16 33/111/16 34/114/16

vt 2.87691e-018 14.4499
vt 19.685 13.3623
vt 19.685 14.4499
f 25/115/3 27/116/3 28/117/3

vt 3.83588e-018 13.3623
f 27/116/3 25/115/3 26/118/3

vt 19.685 9.84252
vn 1 -1.8175e-014 4.0808e-030
vt 1.00413e-029 12.9701
vt 1.00413e-029 9.84252
f 22/119/17 24/120/17 21/121/17

vt 19.685 12.9701
f 24/120/17 22/119/17 23/122/17

