# Alias OBJ Model File
# Exported from SketchUp, (c) 2000-2012 Trimble Navigation Limited
# File units = meters

mtllib spaceInterior_014.mtl

g Mesh1 Group1 Model

usemtl Metal
v 0.38675 0.22 -0.625525
vt 15.2264 24.627
vn 0 1 -0
v 0.06825 0.22 -0.799446
vt 2.68701 31.4743
v 0.06825 0.22 -0.625525
vt 2.68701 24.627
f 1/1/1 2/2/1 3/3/1

v 0.38675 0.22 -0.799446
vt 15.2264 31.4743
f 2/2/1 1/1/1 4/4/1

v 0.455 0.22 -0
vt 17.9134 0
f 1/1/1 5/5/1 4/4/1

f 3/3/1 5/5/1 1/1/1

v 0 0.22 -0
vt 0 0
f 3/3/1 6/6/1 5/5/1

v 0 0.22 -0.87
vt 0 34.252
f 6/6/1 3/3/1 7/7/1

f 2/2/1 7/7/1 3/3/1

v 0.455 0.22 -0.87
vt 17.9134 34.252
f 7/7/1 2/2/1 8/8/1

f 8/8/1 2/2/1 4/4/1

usemtl Red_Metal
v 0.0921375 0.26 -0.786402
vt -3.62746 0.132966
vn -4.21293e-019 0.310034 -0.950726
vt -15.2264 -1.52346
vt -2.68701 -1.52346
f 9/9/2 4/10/2 2/11/2

v 0.362862 0.26 -0.786402
vt -14.2859 0.132966
f 4/10/2 9/9/2 10/12/2

vt 3.62746 30.9607
v 0.362862 0.26 -0.638569
vt 14.2859 25.1405
vt 14.2859 30.9607
f 9/13/1 11/14/1 10/15/1

v 0.0921375 0.26 -0.638569
vt 3.62746 25.1405
f 11/14/1 9/13/1 12/16/1

vt -31.4743 8.814
vn -0.858556 0.512719 9.69593e-018
vt -25.1405 10.6482
vt -30.9607 10.6482
f 2/17/3 12/18/3 9/19/3

vt -24.627 8.814
f 12/18/3 2/17/3 3/20/3

vt 2.68701 15.8698
vn 1.61213e-018 0.310034 0.950726
vt 14.2859 17.5262
vt 3.62746 17.5262
f 3/21/4 11/22/4 12/23/4

vt 15.2264 15.8698
f 11/22/4 3/21/4 1/24/4

vt 31.4743 -0.37054
vn 0.858556 0.512719 9.69593e-018
vt 25.1405 1.46371
vt 24.627 -0.37054
f 4/25/5 11/26/5 1/27/5

vt 30.9607 1.46371
f 11/26/5 4/25/5 10/28/5

usemtl Metal
f 8/8/1 4/4/1 5/5/1

vt 0 8.66142
vn 1 0 -0
v 0.455 0.15082 -0.87
vt 34.252 5.9378
vt 34.252 8.66142
f 5/29/6 13/30/6 8/31/6

v 0.455 0.15082 -0
vt 0 5.9378
f 13/30/6 5/29/6 14/32/6

vt 17.9134 8.66142
vn 0 0 1
v 0 0.15082 -0
vt 17.9134 5.9378
f 5/33/7 15/32/7 14/34/7

f 15/32/7 5/33/7 6/29/7

vt -34.252 8.66142
vn -1 0 -0
f 7/35/8 15/32/8 6/29/8

v 0 0.15082 -0.87
vt -34.252 5.9378
f 15/32/8 7/35/8 16/36/8

vn 0 0 -1
v 0.05 0.15082 -0.87
vt -1.9685 5.9378
f 7/29/9 17/37/9 16/32/9

v 0.405 0.15082 -0.87
vt -15.9449 5.9378
f 17/37/9 7/29/9 18/38/9

vt -17.9134 5.9378
f 18/38/9 7/29/9 13/39/9

vt -17.9134 8.66142
f 13/39/9 7/29/9 8/40/9

vt -17.9134 34.252
vn 0 -1 -0
v 0.405 0.15082 -0.04
vt -15.9449 1.5748
vt -15.9449 34.252
f 13/41/10 19/42/10 18/43/10

vt -17.9134 0
f 14/44/10 19/42/10 13/41/10

v 0.05 0.15082 -0.04
vt -1.9685 1.5748
f 14/44/10 20/45/10 19/42/10

f 15/6/10 20/45/10 14/44/10

vt -1.9685 34.252
f 15/6/10 17/46/10 20/45/10

f 17/46/10 15/6/10 16/7/10

v 0.05 0 -0.0660801
vt -2.60158 0
vt -1.5748 5.9378
f 17/36/8 21/47/8 20/48/8

v 0.05 0 -0.584818
vt -23.0243 0
f 21/47/8 17/36/8 22/49/8

vt -15.9449 33.0544
vn 0 -0.883991 -0.467504
vt -1.9685 20.3533
vt -1.9685 33.0544
f 18/50/11 22/51/11 17/52/11

v 0.405 0 -0.584818
vt -15.9449 20.3533
f 22/51/11 18/50/11 23/53/11

v 0.405 0 -0.0660801
vt 2.60158 0
vt 23.0243 0
f 18/30/6 24/54/6 23/55/6

vt 1.5748 5.9378
f 24/54/6 18/30/6 19/56/6

f 20/45/10 18/43/10 19/42/10

f 18/43/10 20/45/10 17/46/10

vt 1.9685 -0.44329
vn 0 -0.170393 0.985376
vt 15.9449 5.58263
vt 1.9685 5.58263
f 21/57/12 19/58/12 20/59/12

vt 15.9449 -0.44329
f 19/58/12 21/57/12 24/60/12

vt -1.9685 2.60158
vt -15.9449 23.0243
vt -15.9449 2.60158
f 21/61/10 23/62/10 24/63/10

vt -1.9685 23.0243
f 23/62/10 21/61/10 22/64/10

