# Alias OBJ Model File
# Exported from SketchUp, (c) 2000-2012 Trimble Navigation Limited
# File units = meters

mtllib spaceInterior_036.mtl

g Mesh1 Group1 Model

usemtl Metal
v 0 -1.12799e-017 -0.25
vt -9.84252 -4.44089e-016
vn -1 1.41551e-017 -3.67252e-033
v 0 0 -0
vt 0 0
v 0 0.75 -0.25
vt -9.84252 29.5276
f 1/1/1 2/2/1 3/3/1

v 0.125 -1.12799e-017 -0.25
vt -4.92126 9.84252
vn 1.42483e-017 -1 4.27448e-017
vt 6.32749e-033 9.84252
f 4/4/2 2/2/2 1/5/2

v 0.1875 0 -0
vt -7.38189 4.49585e-033
f 2/2/2 4/4/2 5/6/2

v 0.1875 0 -0.1875
vt -7.38189 7.38189
f 5/6/2 4/4/2 6/7/2

vt 3.47986 -3.08731e-016
vn 0.707107 -1.29659e-017 -0.707107
v 0.1875 0.125 -0.1875
vt 4.44089e-015 4.92126
vt 4.44089e-015 1.35358e-016
f 4/8/3 7/9/3 6/10/3

v 0.125 0.125 -0.25
vt 3.47986 4.92126
f 7/9/3 4/8/3 8/11/3

usemtl Dark_Metal
vt -4.92126 -4.44089e-016
vn 0 0 -1
vt 0 29.5276
vt -4.92126 4.92126
f 4/12/4 3/13/4 8/14/4

vt 0 -4.44089e-016
f 3/13/4 4/12/4 1/15/4

v 0.125 0.28125 -0.25
vt -4.92126 11.0728
f 8/14/4 3/13/4 9/16/4

v 0.125 0.4375 -0.25
vt -4.92126 17.2244
f 9/16/4 3/13/4 10/17/4

v 0.125 0.75 -0.25
vt -4.92126 29.5276
f 10/17/4 3/13/4 11/18/4

usemtl Metal
vt 0 9.84252
vn 0 -1 -0
v 0.125 0.75 -0.75
f 3/19/5 12/18/5 11/4/5

v 0 0.75 -0.75
f 12/18/5 3/19/5 13/13/5

v 0 1 -1
vt -39.3701 39.3701
vt -29.5276 29.5276
f 3/3/1 14/20/1 13/21/1

v 0 1 -0
vt 0 39.3701
f 3/3/1 15/22/1 14/20/1

f 15/22/1 3/3/1 2/2/1

vn 0 0 1
v 0.125 0.125 -0
vt 4.92126 4.92126
f 2/2/6 16/23/6 15/22/6

v 0.1875 0.125 -0
vt 7.38189 4.92126
f 2/2/6 17/24/6 16/23/6

vt 7.38189 0
f 17/24/6 2/2/6 5/25/6

vn 1 0 -0
vt 0 4.92126
f 6/25/7 17/26/7 5/2/7

f 17/26/7 6/25/7 7/24/7

vt 4.92126 9.84252
vn 0 1 -0
vt 7.38189 7.38189
f 8/27/8 17/25/8 7/28/8

vt 4.92126 0
f 17/25/8 8/27/8 16/29/8

usemtl Dark_Metal
vt 9.84252 4.92126
v 0.125 0.28125 -0
vt 0 11.0728
f 8/30/7 18/31/7 16/26/7

vt 9.84252 11.0728
f 18/31/7 8/30/7 9/32/7

usemtl Red_Metal
v 0.125 0.4375 -0
vt 0 17.2244
f 9/32/7 19/33/7 18/31/7

vt 9.84252 17.2244
f 19/33/7 9/32/7 10/34/7

usemtl Dark_Metal
v 0.125 0.75 -0
f 10/34/7 20/13/7 19/33/7

vt 9.84252 29.5276
f 20/13/7 10/34/7 11/35/7

usemtl Metal
vt 9.84252 24.359
vn 0.707107 -0.707107 -0
v 0.25 0.875 -1
vt 39.3701 31.3187
vt 0 24.359
f 11/36/9 21/37/9 20/38/9

vt 29.5276 24.359
f 12/39/9 21/37/9 11/36/9

v 0.125 0.75 -1
vt 39.3701 24.359
f 21/37/9 12/39/9 22/40/9

usemtl Dark_Metal
vt 29.5276 29.5276
v 0.125 0.4375 -1
vt 39.3701 17.2244
vt 39.3701 29.5276
f 12/41/7 23/42/7 22/43/7

v 0.125 0.4375 -0.75
vt 29.5276 17.2244
f 23/42/7 12/41/7 24/44/7

vt 1.10257e-015 29.5276
vn 3.73402e-017 -1.24467e-016 1
vt 4.92126 17.2244
vt 4.92126 29.5276
f 13/45/10 24/46/10 12/47/10

v 0.125 0.28125 -0.75
vt 4.92126 11.0728
f 13/45/10 25/48/10 24/46/10

v 0.125 0.125 -0.75
f 13/45/10 26/23/10 25/48/10

v 0 0 -0.75
vt 1.10257e-015 -3.67522e-015
f 27/49/10 26/23/10 13/45/10

v 0.125 0 -0.75
vt 4.92126 -3.67522e-015
f 26/23/10 27/49/10 28/50/10

usemtl Metal
v 0.1875 0 -1
vt -7.38189 39.3701
f 27/13/5 29/51/5 28/18/5

v 0 0 -1
f 29/51/5 27/13/5 30/22/5

vt -29.5276 -1.53499e-048
vt -39.3701 -2.04665e-048
f 27/52/1 14/20/1 30/53/1

f 13/21/1 14/20/1 27/52/1

v 0.125 0.125 -1
f 31/14/4 30/2/4 14/22/4

vt -7.38189 0
f 30/2/4 31/14/4 29/54/4

v 0.1875 0.125 -1
vt -7.38189 4.92126
f 32/55/4 29/54/4 31/14/4

v 0.1875 0.125 -0.8125
vt 31.9882 4.92126
vt 39.3701 0
vt 39.3701 4.92126
f 33/56/7 29/57/7 32/58/7

v 0.1875 0 -0.8125
vt 31.9882 0
f 29/57/7 33/56/7 34/59/7

vt 27.8388 4.92126
vn 0.707107 0 0.707107
vt 24.359 0
vt 27.8388 0
f 33/60/11 28/61/11 34/62/11

vt 24.359 4.92126
f 28/61/11 33/60/11 26/63/11

vt 7.38189 31.9882
vt 4.92126 39.3701
f 33/64/8 31/65/8 26/47/8

vt 7.38189 39.3701
f 31/65/8 33/64/8 32/66/8

usemtl Dark_Metal
vt 29.5276 11.0728
vt 29.5276 4.92126
f 31/58/7 25/67/7 26/68/7

v 0.125 0.28125 -1
vt 39.3701 11.0728
f 25/67/7 31/58/7 35/69/7

usemtl Metal
f 31/14/4 14/22/4 35/16/4

f 35/16/4 14/22/4 23/17/4

f 23/17/4 14/22/4 22/18/4

vt -9.84252 34.4488
f 22/18/4 14/22/4 21/70/4

v 0.25 1 -1
vt -9.84252 39.3701
f 21/70/4 14/22/4 36/71/4

v 0.25 1 -0
vt 9.84252 0
vt 9.84252 39.3701
f 14/22/8 37/72/8 36/73/8

f 37/72/8 14/22/8 15/2/8

v 0.25 0.875 -0
vt 9.84252 34.4488
f 15/22/6 38/74/6 37/73/6

f 15/22/6 20/47/6 38/74/6

f 15/22/6 19/46/6 20/47/6

f 15/22/6 18/48/6 19/46/6

f 15/22/6 16/23/6 18/48/6

vt 0 31.3187
f 20/38/9 21/37/9 38/75/9

vt 39.3701 34.4488
vt 0 34.4488
f 21/76/7 37/22/7 38/77/7

vt 39.3701 39.3701
f 37/22/7 21/76/7 36/78/7

usemtl Red_Metal
f 24/44/7 35/69/7 23/42/7

f 35/69/7 24/44/7 25/67/7

usemtl Metal
vt -7.38189 31.9882
f 28/18/5 29/51/5 34/79/5

