# Alias OBJ Model File
# Exported from SketchUp, (c) 2000-2012 Trimble Navigation Limited
# File units = meters

mtllib spaceInterior_070.mtl

g Mesh1 Group1 Model

usemtl Metal
v 0.046875 0.224522 -0.867578
vt 34.1566 8.31379
vn 0.821481 -0.570235 5.95319e-017
v 0.0625 0.247031 -0
vt 1.78319e-016 9.39257
v 0.046875 0.224522 -0
vt 1.33739e-016 8.31379
f 1/1/1 2/2/1 3/3/1

v 0.0625 0.247031 -0.867578
vt 34.1566 9.39257
f 2/2/1 1/1/1 4/4/1

vt -1.84547 8.83944
vn 1.35054e-014 2.5048e-016 -1
v 1.29944e-014 0.617578 -0.867578
vt -5.02907e-014 24.3141
vt -2.46063 9.72564
f 1/5/2 5/6/2 4/7/2

v 0.046875 0.101006 -0.867578
vt -1.84547 3.97662
f 6/8/2 5/6/2 1/5/2

v 0 0 -0.867578
vt 4.613e-013 -8.55554e-015
f 6/8/2 7/9/2 5/6/2

v 0.0625 2.65077e-016 -0.867578
vt -2.46063 1.88056e-015
f 7/9/2 6/8/2 8/10/2

v 0.0625 0.0784968 -0.867578
vt -2.46063 3.09043
f 8/10/2 6/8/2 9/11/2

v 0.046875 0.101006 -0
vt 1.65801e-018 2.21437
vn 0.821481 0.570235 7.38036e-019
vt 34.1566 1.13559
vt 34.1566 2.21437
f 10/12/3 9/13/3 6/14/3

v 0.0625 0.0784968 -0
vt 2.21068e-018 1.13559
f 9/13/3 10/12/3 11/15/3

vt 1.84547 3.97662
vn 0 0 1
v 0.0625 4.90674e-016 -0
vt 2.46063 1.93179e-014
vt 2.46063 3.09043
f 10/16/4 12/17/4 11/18/4

v 0 0 -0
vt 0 0
f 10/16/4 13/19/4 12/17/4

v 1.29944e-014 0.617578 -0
vt 5.11591e-013 24.3141
f 13/19/4 10/16/4 14/20/4

vt 1.84547 8.83944
f 14/20/4 10/16/4 3/21/4

v 0.0625 0.123516 -0
vt 2.46063 4.86282
f 3/21/4 10/16/4 15/22/4

vt 34.1566 4.31907
vn 0.821481 -0.570235 7.42918e-017
vt 2.2253e-016 5.39785
vt 1.66898e-016 4.31907
f 6/23/5 15/24/5 10/25/5

v 0.0625 0.123516 -0.867578
vt 34.1566 5.39785
f 15/24/5 6/23/5 16/26/5

vt -2.46063 4.86282
f 6/8/2 1/5/2 16/27/2

v 0.0625 0.202012 -0.867578
vt -2.46063 7.95324
f 16/27/2 1/5/2 17/28/2

vt 1.65801e-018 6.20908
vt 34.1566 5.1303
vt 34.1566 6.20908
f 3/29/3 17/30/3 1/31/3

v 0.0625 0.202012 -0
vt 2.21068e-018 5.1303
f 17/30/3 3/29/3 18/32/3

vt 2.46063 7.95324
f 3/21/4 15/22/4 18/33/4

vt 34.1566 4.86282
vn 1 -1.83934e-014 2.36288e-030
vt 5.81419e-030 7.95324
vt 5.81419e-030 4.86282
f 16/34/6 18/35/6 15/36/6

vt 34.1566 7.95324
f 18/35/6 16/34/6 17/37/6

vt 2.46063 9.72564
f 14/20/4 3/21/4 2/38/4

v 0.046875 0.348037 -0
vt 1.84547 13.7023
f 14/20/4 2/38/4 19/39/4

v 0.0625 0.325528 -0
vt 2.46063 12.8161
f 19/39/4 2/38/4 20/40/4

vt 34.1566 9.72564
vn 1 -1.83934e-014 1.9148e-030
vt 4.71161e-030 12.8161
vt 4.71161e-030 9.72564
f 4/41/7 20/42/7 2/43/7

v 0.0625 0.325528 -0.867578
vt 34.1566 12.8161
f 20/42/7 4/41/7 21/44/7

v 0.046875 0.348037 -0.867578
vt -1.84547 13.7023
vt -2.46063 12.8161
f 4/7/2 22/45/2 21/46/2

f 4/7/2 5/6/2 22/45/2

v 0.0625 0.370547 -0.867578
vt -2.46063 14.5885
f 22/45/2 5/6/2 23/47/2

v 0.046875 0.471553 -0.867578
vt -1.84547 18.5651
f 23/47/2 5/6/2 24/48/2

v 0.0625 0.494062 -0.867578
vt -2.46063 19.4513
f 24/48/2 5/6/2 25/49/2

v 0.0625 0.572559 -0.867578
vt -2.46063 22.5417
f 25/49/2 5/6/2 26/50/2

v 0.046875 0.595069 -0.867578
vt -1.84547 23.4279
f 26/50/2 5/6/2 27/51/2

v 0.0625 0.617578 -0.867578
vt -2.46063 24.3141
f 27/51/2 5/6/2 28/52/2

vt 6.58498e-013 34.1566
vn -6.04205e-015 1 -8.70534e-017
v 0.0625 0.617578 -0
vt 2.46063 -2.11662e-015
vt 2.46063 34.1566
f 5/53/8 29/54/8 28/55/8

vt 6.58498e-013 -2.11662e-015
f 29/54/8 5/53/8 14/56/8

vt -34.1566 24.3141
vn -1 2.09179e-014 -0
vt 0 24.3141
f 5/57/9 13/19/9 14/58/9

vt -34.1566 0
f 13/19/9 5/57/9 7/59/9

vt -2.46063 34.1566
vn 6.07209e-015 -1 1.28416e-016
vt 0 34.1566
f 8/60/10 13/19/10 7/61/10

vt -2.46063 -5.62041e-031
f 13/19/10 8/60/10 12/62/10

vt 34.1566 8.93524e-014
vn 1 -3.20716e-014 4.10533e-030
vt 1.01017e-029 3.09043
vt 1.01017e-029 9.82342e-014
f 8/63/11 11/64/11 12/65/11

vt 34.1566 3.09043
f 11/64/11 8/63/11 9/66/11

v 0.046875 0.595069 -0
vt 1.84547 23.4279
vt 2.46063 24.3141
f 14/20/4 30/67/4 29/68/4

v 0.0625 0.572559 -0
vt 2.46063 22.5417
f 14/20/4 31/69/4 30/67/4

v 0.0625 0.494062 -0
vt 2.46063 19.4513
f 14/20/4 32/70/4 31/69/4

v 0.046875 0.471553 -0
vt 1.84547 18.5651
f 14/20/4 33/71/4 32/70/4

v 0.0625 0.370547 -0
vt 2.46063 14.5885
f 14/20/4 34/72/4 33/71/4

f 14/20/4 19/39/4 34/72/4

vt 34.1566 12.3085
vn 0.821481 -0.570235 4.47719e-017
vt 1.34108e-016 13.3873
vt 1.00581e-016 12.3085
f 22/73/12 34/74/12 19/75/12

vt 34.1566 13.3873
f 34/74/12 22/73/12 23/76/12

vt 34.1566 14.5885
vn 1 -1.83934e-014 1.4107e-030
v 0.0625 0.449044 -0
vt 3.47121e-030 17.6789
vt 3.47121e-030 14.5885
f 23/77/13 35/78/13 34/79/13

v 0.0625 0.449044 -0.867578
vt 34.1566 17.6789
f 35/78/13 23/77/13 36/80/13

vt -2.46063 17.6789
f 23/47/2 24/48/2 36/81/2

vt 1.65801e-018 14.1985
vt 34.1566 13.1197
vt 34.1566 14.1985
f 33/82/3 36/83/3 24/84/3

vt 2.21068e-018 13.1197
f 36/83/3 33/82/3 35/85/3

vt 2.46063 17.6789
f 33/71/4 34/72/4 35/86/4

vt 34.1566 16.3032
vn 0.821481 -0.570235 5.9966e-017
vt 1.7962e-016 17.382
vt 1.34715e-016 16.3032
f 24/87/14 32/88/14 33/89/14

vt 34.1566 17.382
f 32/88/14 24/87/14 25/90/14

vt 34.1566 19.4513
vt 4.71161e-030 22.5417
vt 4.71161e-030 19.4513
f 25/91/7 31/92/7 32/93/7

vt 34.1566 22.5417
f 31/92/7 25/91/7 26/94/7

vt 34.1566 17.1144
vt 1.65801e-018 18.1932
vt 2.21068e-018 17.1144
f 26/95/3 30/96/3 31/97/3

vt 34.1566 18.1932
f 30/96/3 26/95/3 27/98/3

vt 34.1566 20.2979
vn 0.821481 -0.570235 4.99207e-017
vt 1.4953e-016 21.3767
vt 1.12148e-016 20.2979
f 27/99/15 29/100/15 30/101/15

vt 34.1566 21.3767
f 29/100/15 27/99/15 28/102/15

vt 1.65801e-018 10.2038
vt 34.1566 9.12502
vt 34.1566 10.2038
f 19/103/3 21/104/3 22/105/3

vt 2.21068e-018 9.12502
f 21/104/3 19/103/3 20/106/3

