# Alias OBJ Model File
# Exported from SketchUp, (c) 2000-2012 Trimble Navigation Limited
# File units = meters

mtllib spaceInterior_054.mtl

g Mesh1 Group1 Model

usemtl Metal
v 0 1 -1
vt -39.3701 39.3701
vn -1 0 -0
v 0 0 -0
vt 0 0
v 0 1 -0
vt 0 39.3701
f 1/1/1 2/2/1 3/3/1

v 0 0 -1
vt -39.3701 0
f 2/2/1 1/1/1 4/4/1

v 0.125 0.125 -1
vt -4.92126 4.92126
vn 0 0 -1
f 5/5/2 4/2/2 1/3/2

v 0.1875 0 -1
vt -7.38189 0
f 4/2/2 5/5/2 6/6/2

v 0.1875 0.125 -1
vt -7.38189 4.92126
f 7/7/2 6/6/2 5/5/2

v 0.1875 0.125 -0
vt 0 4.92126
vn 1 0 -0
vt 39.3701 0
vt 39.3701 4.92126
f 8/8/3 6/9/3 7/10/3

v 0.1875 0 -0
f 6/9/3 8/8/3 9/2/3

vt 7.38189 4.92126
vn 0 0 1
vt 7.38189 0
f 8/11/4 2/2/4 9/12/4

v 0.125 0.125 -0
vt 4.92126 4.92126
f 2/2/4 8/11/4 10/13/4

vn 0 1 -0
vt 4.92126 39.3701
vt 4.92126 0
f 8/12/5 5/14/5 10/15/5

vt 7.38189 39.3701
f 5/14/5 8/12/5 7/16/5

usemtl Dark_Metal
v 0.125 0.75 -0
vt 0 29.5276
f 5/10/3 11/17/3 10/8/3

v 0.125 0.75 -1
vt 39.3701 29.5276
f 11/17/3 5/10/3 12/18/3

usemtl Metal
vt -4.92126 29.5276
f 5/5/2 1/3/2 12/19/2

v 0.25 0.875 -1
vt -9.84252 34.4488
f 12/19/2 1/3/2 13/20/2

v 0.25 1 -1
vt -9.84252 39.3701
f 13/20/2 1/3/2 14/21/2

v 0.25 1 -0
vt 9.84252 0
vt 9.84252 39.3701
f 1/3/5 15/22/5 14/23/5

f 15/22/5 1/3/5 3/2/5

v 0.25 0.875 -0
vt 9.84252 34.4488
f 3/3/4 16/24/4 15/23/4

vt 4.92126 29.5276
f 3/3/4 11/25/4 16/24/4

f 3/3/4 10/13/4 11/25/4

f 2/2/4 10/13/4 3/3/4

vt 0 24.359
vn 0.707107 -0.707107 -0
vt 39.3701 31.3187
vt 0 31.3187
f 11/26/6 13/27/6 16/28/6

vt 39.3701 24.359
f 13/27/6 11/26/6 12/29/6

vt 39.3701 34.4488
vt 0 34.4488
f 13/30/3 15/3/3 16/31/3

vt 39.3701 39.3701
f 15/3/3 13/30/3 14/32/3

vn 0 -1 -0
vt -7.38189 39.3701
f 2/2/7 6/33/7 9/6/7

f 6/33/7 2/2/7 4/3/7

