# Alias OBJ Model File
# Exported from SketchUp, (c) 2000-2012 Trimble Navigation Limited
# File units = meters

mtllib spaceInterior_079.mtl

g Mesh1 Group1 Model

usemtl Metal
v 0 1 -0
vt 0 39.3701
vn -1 0 -0
v 0 0.617578 -0.132422
vt -5.21347 24.3141
v 0 0 -0
vt 0 0
f 1/1/1 2/2/1 3/3/1

v 0 1 -1
vt -39.3701 39.3701
f 2/2/1 1/1/1 4/4/1

v 0.25 1 -0
vt 9.84252 0
vn 0 1 -0
f 5/5/2 4/1/2 1/3/2

v 0.25 1 -1
vt 9.84252 39.3701
f 4/1/2 5/5/2 6/6/2

vn 1 0 -0
v 0.25 0.875 -1
vt 39.3701 34.4488
vt 39.3701 39.3701
f 5/1/3 7/7/3 6/8/3

v 0.25 0.875 -0
vt 0 34.4488
f 7/7/3 5/1/3 8/9/3

vn 0 0 1
vt 9.84252 34.4488
f 1/1/4 8/10/4 5/6/4

v 0.125 0.75 -0
vt 4.92126 29.5276
f 1/1/4 9/11/4 8/10/4

v 0.125 0.125 -0
vt 4.92126 4.92126
f 1/1/4 10/12/4 9/11/4

f 3/3/4 10/12/4 1/1/4

v 0.1875 0.125 -0
vt 7.38189 4.92126
f 3/3/4 11/13/4 10/12/4

v 0.1875 0 -0
vt 7.38189 0
f 11/13/4 3/3/4 12/14/4

vn 0 -1 -0
v 0.1875 0 -1
vt -7.38189 39.3701
vt -7.38189 0
f 3/3/5 13/15/5 12/16/5

v 0 0 -1
f 13/15/5 3/3/5 14/1/5

v 0 0.257422 -0.132422
vt -5.21347 10.1347
vt -39.3701 0
f 3/3/1 15/17/1 14/18/1

f 15/17/1 3/3/1 2/2/1

vt 0 24.3141
vn 0 0 -1
v 0.15625 0.257422 -0.132422
vt -6.15157 10.1347
vt 0 10.1347
f 2/19/6 16/20/6 15/21/6

v 0.15625 0.617578 -0.132422
vt -6.15157 24.3141
f 16/20/6 2/19/6 17/22/6

vt 0 5.21347
v 0.15625 0.617578 -0.867578
vt -6.15157 34.1566
vt -6.15157 5.21347
f 2/23/5 18/24/5 17/25/5

v 0 0.617578 -0.867578
vt 0 34.1566
f 18/24/5 2/23/5 19/26/5

vt -34.1566 24.3141
f 2/2/1 4/4/1 19/27/1

v 0 0.257422 -0.867578
vt -34.1566 10.1347
f 19/27/1 4/4/1 20/28/1

f 14/18/1 20/28/1 4/4/1

f 14/18/1 15/17/1 20/28/1

vt 6.15157 5.21347
f 16/29/2 20/26/2 15/23/2

v 0.15625 0.257422 -0.867578
vt 6.15157 34.1566
f 20/26/2 16/29/2 21/30/2

vt 5.21347 10.1347
v 0.15625 0.209972 -0.867578
vt 34.1566 8.26662
vt 34.1566 10.1347
f 16/31/3 22/32/3 21/33/3

v 0.15625 0.209972 -0.132422
vt 5.21347 8.26662
f 22/32/3 16/31/3 23/34/3

v 0.15625 0.665028 -0.132422
vt 5.21347 26.1822
f 24/35/3 23/34/3 16/31/3

v 0.15625 0.617578 -0.0849722
vt 3.34536 24.3141
f 25/36/3 23/34/3 24/35/3

v 0.15625 0.257422 -0.0849722
vt 3.34536 10.1347
f 23/34/3 25/36/3 26/37/3

vt 6.15157 24.3141
v 0.125 0.257422 -0.0849722
vt 4.92126 10.1347
vt 6.15157 10.1347
f 25/38/4 27/39/4 26/40/4

v 0.125 0.617578 -0.0849722
vt 4.92126 24.3141
f 27/39/4 25/38/4 28/41/4

vt 6.15157 22.2001
vn 0 0.707107 0.707107
vt 4.92126 19.5582
vt 6.15157 19.5582
f 24/42/7 28/43/7 25/44/7

v 0.125 0.665028 -0.132422
vt 4.92126 22.2001
f 28/43/7 24/42/7 29/45/7

v 0.125 0.665028 -0.867578
vt 4.92126 34.1566
vt 4.92126 5.21347
f 24/29/2 30/46/2 29/47/2

v 0.15625 0.665028 -0.867578
f 30/46/2 24/29/2 31/30/2

vt 34.1566 24.3141
vt 34.1566 26.1822
f 24/35/3 18/48/3 31/49/3

vt 5.21347 24.3141
f 24/35/3 17/50/3 18/48/3

f 24/35/3 16/31/3 17/50/3

v 0.15625 0.257422 -0.915028
vt 36.0247 10.1347
f 18/48/3 32/51/3 31/49/3

f 21/33/3 32/51/3 18/48/3

f 21/33/3 22/32/3 32/51/3

v 0.125 0.209972 -0.867578
vt -4.92126 29.9978
vn 0 -0.707107 -0.707107
vt -6.15157 32.6397
vt -6.15157 29.9978
f 33/52/8 32/53/8 22/54/8

v 0.125 0.257422 -0.915028
vt -4.92126 32.6397
f 32/53/8 33/52/8 34/55/8

usemtl Dark_Metal
v 0.125 0.125 -1
vt 39.3701 4.92126
f 33/32/3 35/56/3 34/51/3

v 0.125 0.209972 -0.132422
f 36/34/3 35/56/3 33/32/3

vt 0 4.92126
f 36/34/3 10/57/3 35/56/3

f 27/37/3 10/57/3 36/34/3

vt 0 29.5276
f 10/57/3 27/37/3 9/58/3

f 28/36/3 9/58/3 27/37/3

f 29/35/3 9/58/3 28/36/3

v 0.125 0.75 -1
vt 39.3701 29.5276
f 9/58/3 29/35/3 37/59/3

f 37/59/3 29/35/3 30/49/3

v 0.125 0.617578 -0.915028
vt 36.0247 24.3141
f 37/59/3 30/49/3 38/60/3

usemtl Metal
vt -4.92126 -5.63876
vn 0 0.707107 -0.707107
v 0.15625 0.617578 -0.915028
vt -6.15157 -8.28066
vt -4.92126 -8.28066
f 30/61/9 39/62/9 38/63/9

vt -6.15157 -5.63876
f 39/62/9 30/61/9 31/64/9

f 31/49/3 32/51/3 39/60/3

vt -4.92126 24.3141
f 32/20/6 38/65/6 39/22/6

vt -4.92126 10.1347
f 38/65/6 32/20/6 34/66/6

usemtl Dark_Metal
f 34/51/3 35/56/3 38/60/3

f 37/59/3 38/60/3 35/56/3

usemtl Metal
vt -4.92126 4.92126
vt -4.92126 29.5276
f 35/67/6 4/1/6 37/68/6

f 35/67/6 14/3/6 4/1/6

f 14/3/6 35/67/6 13/16/6

v 0.1875 0.125 -1
vt -7.38189 4.92126
f 40/69/6 13/16/6 35/67/6

vt 39.3701 0
f 11/57/3 13/70/3 40/56/3

f 13/70/3 11/57/3 12/3/3

vt 4.92126 39.3701
vt 7.38189 39.3701
f 35/71/2 11/14/2 40/72/2

vt 4.92126 0
f 11/14/2 35/71/2 10/73/2

vt -9.84252 34.4488
f 37/68/6 4/1/6 7/74/6

vt -9.84252 39.3701
f 7/74/6 4/1/6 6/75/6

vt 39.3701 31.3187
vn 0.707107 -0.707107 -0
vt 0 24.359
vt 39.3701 24.359
f 7/76/10 9/77/10 37/78/10

vt 0 31.3187
f 9/77/10 7/76/10 8/79/10

vt 4.92126 2.1589
vn 0 -0.707107 0.707107
vt 6.15157 4.80081
vt 4.92126 4.80081
f 36/80/11 26/81/11 27/82/11

vt 6.15157 2.1589
f 26/81/11 36/80/11 23/83/11

vt -4.92126 5.21347
f 36/84/5 22/24/5 23/25/5

vt -4.92126 34.1566
f 22/24/5 36/84/5 33/85/5

f 18/38/4 20/21/4 21/40/4

f 20/21/4 18/38/4 19/19/4

