# Alias OBJ Model File
# Exported from SketchUp, (c) 2000-2012 Trimble Navigation Limited
# File units = meters

mtllib spaceInterior_053.mtl

g Mesh1 Group1 Model

usemtl Red_Metal
v 1 0.174689 -0.9525
vt 39.3701 6.87753
vn -4.97162e-013 0 1
v 0.095 0.0291149 -0.9525
vt 3.74016 1.14626
v 1 0.0291149 -0.9525
vt 39.3701 1.14626
f 1/1/1 2/2/1 3/3/1

v 0.095 0.174689 -0.9525
vt 3.74016 6.87753
f 2/2/1 1/1/1 4/4/1

usemtl Metal
v 1 0.203804 -0.905
vt 39.3701 -26.1844
vn -2.9467e-013 -0.852585 0.522588
vt 3.74016 -28.3778
vt 39.3701 -28.3778
f 5/5/2 4/6/2 1/7/2

v 0.095 0.203804 -0.905
vt 3.74016 -26.1844
f 4/6/2 5/5/2 6/8/2

v 1 0.232919 -0.905
vt 39.3701 9.17004
vn -6.30576e-013 0 1
vt 3.74016 8.02379
vt 39.3701 8.02379
f 7/9/3 6/10/3 5/11/3

v 0.095 0.232919 -0.905
vt 3.74016 9.17004
f 6/10/3 7/9/3 8/12/3

v 1 0.232919 -1
vt 39.3701 39.3701
vn 0 1 -0
vt 3.74016 35.6299
vt 39.3701 35.6299
f 9/13/4 8/14/4 7/15/4

v 5.7031e-013 0.232919 -1
vt 2.24532e-011 39.3701
f 10/16/4 8/14/4 9/13/4

v 0.095 0.232919 -0
vt 3.74016 0
f 10/16/4 11/17/4 8/14/4

v 0 0.232919 -5.98284e-014
vt 0 2.35545e-012
f 11/17/4 10/16/4 12/18/4

vt -39.3701 9.17004
vn -1 -1.45659e-014 -5.8822e-013
v 0 0 -5.98284e-014
vt -2.35545e-012 2.01814e-038
vt -2.35545e-012 9.17004
f 10/19/5 13/20/5 12/21/5

v 5.7031e-013 0 -0.905
vt -35.6299 -2.17749e-026
f 13/20/5 10/19/5 14/22/5

v 5.7031e-013 0 -1
vt -39.3701 1.02707e-026
f 14/22/5 10/19/5 15/23/5

vt -4.0381e-012 9.17004
vn 4.67742e-013 -5.09336e-029 -1
v 0.095 0 -1
vt -3.74016 2.00526e-027
vt -4.0381e-012 2.00526e-027
f 10/24/6 16/25/6 15/26/6

v 1 0 -1
vt -39.3701 2.00526e-027
f 16/25/6 10/24/6 17/27/6

f 17/27/6 10/24/6 9/19/6

vn 1 0 4.96049e-013
vt 37.5 6.87753
vt 39.3701 0
f 9/9/7 1/28/7 17/29/7

vt 35.6299 9.17004
f 7/30/7 1/28/7 9/9/7

vt 35.6299 8.02379
f 1/28/7 7/30/7 5/31/7

vt 37.5 1.14626
f 3/32/7 17/29/7 1/28/7

v 1 0.0291149 -0.92875
vt 36.565 1.14626
f 18/33/7 17/29/7 3/32/7

v 1 0 -0.92875
vt 36.565 0
f 17/29/7 18/33/7 19/34/7

vn -4.99754e-013 0 1
v 0.095 0 -0.92875
f 18/3/8 20/17/8 19/29/8

v 0.095 0.0291149 -0.92875
f 20/17/8 18/3/8 21/2/8

vt 3.74016 37.5
vt 3.74016 36.565
vt 39.3701 36.565
f 2/35/4 21/36/4 18/37/4

v 0.07125 0.0291149 -0.905
vt 2.80512 35.6299
f 2/35/4 22/38/4 21/36/4

v 0.0475 0.0291149 -0.905
vt 1.87008 35.6299
f 23/39/4 22/38/4 2/35/4

v 0.07125 0.0291149 -1.56113e-014
vt 2.80512 6.14619e-013
f 23/39/4 24/40/4 22/38/4

v 0.0475 0.0291149 -2.98691e-014
vt 1.87008 1.17595e-012
f 24/40/4 23/39/4 25/41/4

usemtl Red_Metal
vt 35.6299 1.14626
vn 1 0 6.31373e-013
v 0.0475 0.174689 -2.98691e-014
vt 2.35667e-012 6.87753
vt 2.35667e-012 1.14626
f 23/42/9 26/43/9 25/44/9

v 0.0475 0.174689 -0.905
vt 35.6299 6.87753
f 26/43/9 23/42/9 27/45/9

vt 26.5165 1.14626
vn 0.707107 0 0.707107
vt 29.1612 6.87753
vt 26.5165 6.87753
f 23/46/10 4/47/10 27/48/10

vt 29.1612 1.14626
f 4/47/10 23/46/10 2/49/10

usemtl Metal
vt 29.1612 -13.5334
vn 0.463157 -0.755626 0.463157
vt 27.8388 -11.7834
vt 26.5165 -13.5334
f 4/50/11 6/51/11 27/52/11

v 0.095 0.203804 -0
vt 2.36144e-012 7.38194
vn 0.522588 -0.852585 3.29949e-013
vt 35.6299 5.18852
vt 35.6299 7.38194
f 28/53/12 27/54/12 6/55/12

vt 2.35667e-012 5.18852
f 27/54/12 28/53/12 26/56/12

vt -1.48425e-024 9.17004
vn -6.30135e-013 0 1
vt 1.87008 6.87753
f 12/57/13 26/58/13 28/10/13

vt 1.87008 1.14626
f 12/57/13 25/59/13 26/58/13

vt -1.48425e-024 0
f 13/60/13 25/59/13 12/57/13

vt 2.80512 1.14626
f 13/60/13 24/61/13 25/59/13

v 0.07125 0 -1.56113e-014
vt 2.80512 0
f 24/61/13 13/60/13 29/62/13

vt -2.24532e-011 35.6299
vn 0 -1 -0
vt -2.80512 6.14619e-013
f 14/63/14 29/64/14 13/18/14

v 0.07125 0 -0.905
vt -2.80512 35.6299
f 29/64/14 14/63/14 30/65/14

vt -3.74016 39.3701
f 14/63/14 16/66/14 30/65/14

vt -2.24532e-011 39.3701
f 16/66/14 14/63/14 15/67/14

vt -3.74016 36.565
f 30/65/14 16/66/14 20/68/14

vt -39.3701 36.565
f 16/66/14 19/69/14 20/68/14

vt -39.3701 39.3701
f 19/69/14 16/66/14 17/70/14

vt 28.5 1.14626
vn 0.707107 4.10893e-041 0.707107
vt 27.1777 9.53709e-040
vt 28.5 9.53709e-040
f 21/71/15 30/72/15 20/73/15

vt 27.1777 1.14626
f 30/72/15 21/71/15 22/74/15

vt 2.39241e-012 1.14626
vn 1 0 6.33766e-013
vt 35.6299 0
f 24/75/16 30/76/16 22/42/16

vt 2.39241e-012 0
f 30/76/16 24/75/16 29/77/16

f 12/57/13 28/10/13 11/12/13

vt 2.36144e-012 9.17004
vt 2.36144e-012 8.02379
f 6/31/9 11/78/9 28/79/9

f 11/78/9 6/31/9 8/30/9

vt 39.3701 37.5
f 2/35/4 18/37/4 3/80/4

