# Alias OBJ Model File
# Exported from SketchUp, (c) 2000-2012 Trimble Navigation Limited
# File units = meters

mtllib spaceInterior_018.mtl

g Mesh1 Group1 Model

usemtl Metal
v 0.04 0 -0.1053
vt 4.14567 0
vn 1 0 -0
v 0.04 0.19 -0.0247
vt 0.972441 7.48031
v 0.04 0 -0.0247
vt 0.972441 0
f 1/1/1 2/2/1 3/3/1

v 0.04 0.19 -0.1053
vt 4.14567 7.48031
f 2/2/1 1/1/1 4/4/1

vt 0.838217 0
vn 0.525402 0 -0.850854
v 0 0.19 -0.13
vt 2.68907 7.48031
vt 0.838217 7.48031
f 1/5/2 5/6/2 4/7/2

v 0 0 -0.13
vt 2.68907 0
f 5/6/2 1/5/2 6/8/2

vt -1.5748 4.14567
vn 0 -1 -0
v 0 0 -0
vt 0 0
vt 0 5.11811
f 1/9/3 7/10/3 6/11/3

vt -1.5748 0.972441
f 7/10/3 1/9/3 3/12/3

vt 1.85085 7.48031
vn 0.525402 -3.37641e-018 0.850854
vt 1.85085 -1.15556e-033
f 2/13/4 7/10/4 3/14/4

v 0 0.19 -0
vt 0 7.48031
f 7/10/4 2/13/4 8/15/4

vt 1.5748 0.972441
vn 0 1 -0
f 2/16/5 5/11/5 8/10/5

vt 1.5748 4.14567
f 5/11/5 2/16/5 4/17/5

vt -5.11811 7.48031
vn -1 0 -0
f 5/18/6 7/10/6 8/15/6

vt -5.11811 0
f 7/10/6 5/18/6 6/19/6

