# Alias OBJ Model File
# Exported from SketchUp, (c) 2000-2012 Trimble Navigation Limited
# File units = meters

mtllib spaceInterior_060.mtl

g Mesh1 Group1 Model

usemtl Metal
v 0.0625 1.12799e-017 -0.5
vt -2.46063 19.685
vn 9.02389e-017 -1 -1.12799e-017
v 0 0 -0
vt 0 0
v 0 0 -0.5
vt 0 19.685
f 1/1/1 2/2/1 3/3/1

v 0.0625 0 -0
vt -2.46063 -2.50463e-033
f 2/2/1 1/1/1 4/4/1

v 0.0625 0.125 -0.125
vt 4.92126 4.92126
vn 1 9.02389e-017 2.03577e-033
vt 5.00927e-033 -2.22045e-016
vt 19.685 2.22045e-016
f 5/5/2 4/6/2 1/7/2

v 0.0625 0.75 -0
vt 5.00927e-033 29.5276
f 4/6/2 5/5/2 6/8/2

v 0.0625 0.625 -0.125
vt 4.92126 24.6063
f 7/9/2 6/8/2 5/5/2

v 0.0625 0.75 -0.5
vt 19.685 29.5276
f 6/8/2 7/9/2 8/10/2

v 0.0625 0.625 -0.375
vt 14.7638 24.6063
f 8/10/2 7/9/2 9/11/2

v 0 0.625 -0.125
vt -1.11022e-015 4.92126
vn 4.51195e-017 -1 -0
vt -2.46063 14.7638
vt -2.46063 4.92126
f 10/12/3 9/13/3 7/14/3

v 0 0.625 -0.375
vt -1.11022e-015 14.7638
f 9/13/3 10/12/3 11/15/3

vt -4.92126 24.6063
vn -1 0 -0
v 0 0.75 -0.5
vt -19.685 29.5276
vt -14.7638 24.6063
f 10/16/4 12/17/4 11/18/4

v 0 0.75 -0
vt 0 29.5276
f 10/16/4 13/19/4 12/17/4

f 13/19/4 10/16/4 2/2/4

v 3.60956e-016 0.125 -0.125
vt -4.92126 4.92126
f 14/20/4 2/2/4 10/16/4

vt -19.685 0
f 2/2/4 14/20/4 3/21/4

v 3.60956e-016 0.125 -0.375
vt -14.7638 4.92126
f 3/21/4 14/20/4 15/22/4

v 0.0234375 0.125 -0.125
vt 0.922736 4.92126
vn -7.70039e-015 1 6.42097e-044
vt 5.21065e-014 14.7638
vt 5.21065e-014 4.92126
f 16/23/5 15/24/5 14/25/5

v 0.0234375 0.125 -0.375
vt 0.922736 14.7638
f 15/24/5 16/23/5 17/26/5

usemtl Dark_Metal
v 0.046875 0.125 -0.375
vt -1.84547 14.7638
vn -3.85019e-015 -1 -0
vt -0.922736 4.92126
vt -0.922736 14.7638
f 18/27/6 16/28/6 17/29/6

v 0.046875 0.125 -0.125
vt -1.84547 4.92126
f 16/28/6 18/27/6 19/30/6

usemtl Metal
vt 2.46063 4.92126
vn 5.77529e-015 1 -0
vt 1.84547 14.7638
vt 1.84547 4.92126
f 5/31/7 18/32/7 19/33/7

v 0.0625 0.125 -0.375
vt 2.46063 14.7638
f 18/32/7 5/31/7 20/34/7

vt 14.7638 4.92126
f 5/5/2 1/7/2 20/35/2

f 20/35/2 1/7/2 9/11/2

f 8/10/2 9/11/2 1/7/2

vt -2.46063 2.22045e-016
vn -2.03577e-033 1.12799e-017 -1
vt -4.00741e-032 29.5276
vt -2.46063 29.5276
f 1/36/8 12/37/8 8/38/8

vt -4.00741e-032 -2.22045e-016
f 12/37/8 1/36/8 3/39/8

f 3/21/4 15/22/4 12/17/4

f 11/18/4 12/17/4 15/22/4

vn 0 0 1
vt 0 24.6063
vt 1.42109e-014 4.92126
f 17/23/9 11/40/9 15/41/9

v 0.0234375 0.375 -0.375
f 11/40/9 17/23/9 21/26/9

usemtl FrontColor
v 0.046875 0.375 -0.375
f 17/23/9 22/32/9 21/26/9

f 22/32/9 17/23/9 18/33/9

usemtl Dark_Metal
v 0.046875 0.375 -0.125
vt 4.92126 14.7638
vn 1 0 -0
vt 14.7638 14.7638
f 23/42/10 18/35/10 22/43/10

f 18/35/10 23/42/10 19/5/10

usemtl Metal
vt -2.46063 24.6063
vn 0 0 -1
f 7/44/11 19/30/11 23/27/11

f 19/30/11 7/44/11 5/14/11

usemtl FrontColor
f 16/28/11 23/27/11 19/30/11

v 0.0234375 0.375 -0.125
f 23/27/11 16/28/11 24/29/11

usemtl Metal
f 16/28/11 10/40/11 24/29/11

vt -1.42109e-014 4.92126
f 10/40/11 16/28/11 14/45/11

f 24/29/11 10/40/11 23/27/11

f 7/44/11 23/27/11 10/40/11

usemtl Dark_Metal
vn 0 1 -0
f 23/33/12 21/26/12 24/23/12

f 21/26/12 23/33/12 22/32/12

usemtl Metal
vt 2.46063 24.6063
f 22/32/9 9/46/9 21/26/9

f 18/33/9 9/46/9 22/32/9

f 9/46/9 18/33/9 20/31/9

f 11/40/9 21/26/9 9/46/9

usemtl Dark_Metal
vt -14.7638 14.7638
vn -1 -2.88765e-015 1.05899e-031
vt -4.92126 14.7638
f 21/47/13 16/20/13 24/48/13

f 16/20/13 21/47/13 17/22/13

usemtl Metal
vt 2.66454e-015 19.685
vn -9.02389e-017 1 1.12799e-017
vt 2.46063 3.33067e-016
vt 2.46063 19.685
f 12/49/14 6/50/14 8/51/14

vt 2.66454e-015 3.33067e-016
f 6/50/14 12/49/14 13/52/14

vn 0 -1.12799e-017 1
vt 2.46063 29.5276
f 2/2/15 6/53/15 13/19/15

vt 2.46063 0
f 6/53/15 2/2/15 4/54/15

