# Alias OBJ Model File
# Exported from SketchUp, (c) 2000-2012 Trimble Navigation Limited
# File units = meters

mtllib spaceInterior_067.mtl

g Mesh1 Group1 Model

usemtl Dark_Metal
v 5.77529e-015 0 -1
vt -2.27374e-013 39.3701
vn 0 -1 -0
v 1 0 1.44382e-015
vt -39.3701 -5.68434e-014
v 0 0 -0
vt 0 0
f 1/1/1 2/2/1 3/3/1

v 1 0 -1
vt -39.3701 39.3701
f 2/2/1 1/1/1 4/4/1

v 5.77529e-015 0.0625 -1
vt -2.27374e-013 2.46063
vn 0 0 -1
vt -39.3701 0
vt -2.27374e-013 0
f 5/5/2 4/6/2 1/7/2

v 1 0.0625 -1
vt -39.3701 2.46063
f 4/6/2 5/5/2 6/8/2

vt 2.27374e-013 39.3701
vn 0 1 -0
v 1 0.0625 -0.874715
vt 39.3701 34.4376
vt 39.3701 39.3701
f 5/9/3 7/10/3 6/11/3

v 2.88765e-015 0.0625 -0.874715
vt 1.13687e-013 34.4376
f 7/10/3 5/9/3 8/12/3

vn -1 0 -0
vt -34.4376 2.46063
f 1/6/4 8/13/4 5/8/4

v 5.77529e-015 0.0425 -0.837244
vt -32.9623 1.67323
f 1/6/4 9/14/4 8/13/4

v 2.88765e-015 0.0425 -0.162756
vt -6.40773 1.67323
f 1/6/4 10/15/4 9/14/4

f 3/3/4 10/15/4 1/6/4

v 5.77529e-015 0.0625 -0.125285
vt -4.93247 2.46063
f 3/3/4 11/16/4 10/15/4

v 0 0.0625 -0
vt 0 2.46063
f 11/16/4 3/3/4 12/17/4

vn 0 0 1
v 1 0.0625 1.44382e-015
vt 39.3701 2.46063
f 3/3/5 13/18/5 12/17/5

vt 39.3701 0
f 13/18/5 3/3/5 2/19/5

vt -1.112e-013 -2.6585e-014
vn 1 6.7526e-016 -1.38065e-015
v 1 0.0425 -0.162756
vt 6.40773 1.67323
vt -1.112e-013 2.46063
f 2/20/6 14/21/6 13/22/6

vt 39.3701 -2.6585e-014
f 14/21/6 2/20/6 4/23/6

v 1 0.0425 -0.837244
vt 32.9623 1.67323
f 14/21/6 4/23/6 15/24/6

vt 34.4376 2.46063
f 15/24/6 4/23/6 7/25/6

f 7/25/6 4/23/6 6/18/6

vt 39.3701 31.5396
vn -4.57818e-017 0.882204 0.470867
vt 2.24169e-013 29.8674
vt 39.3701 29.8674
f 7/26/7 9/27/7 15/28/7

vt 1.10339e-013 31.5396
f 9/27/7 7/26/7 8/29/7

usemtl Metal
vt 2.27374e-013 32.9623
vt 39.3701 6.40773
vt 39.3701 32.9623
f 9/30/3 14/31/3 15/32/3

vt 1.13687e-013 6.40773
f 14/31/3 9/30/3 10/33/3

usemtl Dark_Metal
vt -2.32746e-013 -3.19282
vn -5.12888e-016 0.882204 -0.470867
vt -39.3701 -4.86506
vt -1.20666e-013 -4.86506
f 11/34/8 14/35/8 10/36/8

v 1 0.0625 -0.125285
vt -39.3701 -3.19282
f 14/35/8 11/34/8 16/37/8

vt 2.27374e-013 4.93247
vt 39.3701 -5.68434e-014
vt 39.3701 4.93247
f 11/38/3 13/39/3 16/40/3

f 13/39/3 11/38/3 12/3/3

vt 4.93247 2.46063
f 13/22/6 14/21/6 16/41/6

