# Alias OBJ Model File
# Exported from SketchUp, (c) 2000-2012 Trimble Navigation Limited
# File units = meters

mtllib spaceInterior_017.mtl

g Mesh1 Group1 Model

usemtl Metal
v 5.66244e-009 0 -0.38
vt -2.22931e-007 14.9606
vn 0 -1 -0
v 0.585 0 -1.71363e-009
vt -23.0315 6.74659e-008
v 0 0 -1.04308e-008
vt 0 4.10662e-007
f 1/1/1 2/2/1 3/3/1

v 0.585 0 -0.38
vt -23.0315 14.9606
f 2/2/1 1/1/1 4/4/1

v 5.66244e-009 0.23 -0.38
vt 7.31349e-015 9.05512
vn 1.49012e-008 0 -1
vt -23.0315 0
vt 7.31349e-015 0
f 5/5/2 4/6/2 1/7/2

v 0.7 0.115 -0.38
vt -27.5591 4.52756
f 4/6/2 5/5/2 6/8/2

v 0.7 0.23 -0.38
vt -27.5591 9.05512
f 6/8/2 5/5/2 7/9/2

usemtl Red_Metal
v 5.66244e-009 0.28 -0.38
vt 7.31349e-015 11.0236
f 8/10/2 7/9/2 5/5/2

v 0.68 0.28 -0.38
vt -26.7717 11.0236
f 7/9/2 8/10/2 9/11/2

vt 2.22931e-007 14.9606
vn 0 1 -0
v 0.0488873 0.28 -0.331113
vt 1.9247 13.0359
vt 26.7717 14.9606
f 8/12/3 10/13/3 9/14/3

v 0.0488873 0.28 -0.0488873
vt 1.9247 1.9247
f 10/13/3 8/12/3 11/15/3

v 0 0.28 -1.04308e-008
f 12/3/3 11/15/3 8/12/3

v 0.68 0.28 -2.98022e-010
vt 26.7717 1.17332e-008
f 11/15/3 12/3/3 13/16/3

v 0 0.23 -1.04308e-008
vt -6.11934e-015 9.05512
vn -1.49012e-008 0 1
vt 26.7717 11.0236
vt -6.11934e-015 11.0236
f 14/17/4 13/18/4 12/19/4

v 0.7 0.23 -0
vt 27.5591 9.05512
f 13/18/4 14/17/4 15/20/4

usemtl Metal
vn -1.49012e-008 -3.71661e-016 1
v 0.7 0.115 -0
vt 27.5591 4.52756
f 14/17/5 16/21/5 15/20/5

vt -6.11934e-015 -1.52627e-022
f 3/22/5 16/21/5 14/17/5

vt 23.0315 -1.52627e-022
f 16/21/5 3/22/5 2/23/5

vt 14.9606 16.2857
vn 0.707107 -0.707107 1.05367e-008
vt 4.10662e-007 22.6887
vt 4.10662e-007 16.2857
f 4/24/6 16/25/6 2/26/6

vt 14.9606 22.6887
f 16/25/6 4/24/6 6/27/6

vt 14.9606 4.52756
vn 1 0 1.49012e-008
vt 4.10662e-007 9.05512
vt 4.10662e-007 4.52756
f 6/28/7 15/29/7 16/30/7

vt 14.9606 9.05512
f 15/29/7 6/28/7 7/31/7

usemtl Red_Metal
vt 14.9606 -1.82771
vn 0.928477 0.371391 1.38354e-008
vt 4.10662e-007 0.292434
vt 4.10662e-007 -1.82771
f 7/32/8 13/33/8 15/34/8

vt 14.9606 0.292434
f 13/33/8 7/32/8 9/35/8

v 0.631113 0.28 -0.331113
vt 24.847 13.0359
f 9/14/3 17/36/3 13/16/3

f 9/14/3 10/13/3 17/36/3

usemtl Metal
v 0.0488873 0.12 -0.331113
vt 1.9247 4.72441
vt 24.847 11.0236
vt 1.9247 11.0236
f 18/37/4 17/38/4 10/39/4

v 0.631113 0.12 -0.331113
vt 24.847 4.72441
f 17/38/4 18/37/4 19/40/4

v 0.631113 0.12 -0.0488873
vt 24.847 1.9247
f 18/13/3 20/41/3 19/36/3

v 0.0488873 0.12 -0.0488873
f 20/41/3 18/13/3 21/15/3

vt 13.0359 4.72441
f 18/42/7 11/39/7 21/37/7

vt 13.0359 11.0236
f 11/39/7 18/42/7 10/43/7

vt -1.9247 11.0236
vt -24.847 4.72441
vt -1.9247 4.72441
f 11/44/2 20/45/2 21/46/2

v 0.631113 0.28 -0.0488873
vt -24.847 11.0236
f 20/45/2 11/44/2 22/47/2

usemtl Red_Metal
f 11/15/3 13/16/3 22/41/3

f 22/41/3 13/16/3 17/36/3

usemtl Metal
vt -13.0359 11.0236
vn -1 0 -1.49012e-008
f 17/48/9 20/46/9 22/44/9

vt -13.0359 4.72441
f 20/46/9 17/48/9 19/49/9

vt -14.9606 9.05512
vt -4.10662e-007 0
vt -4.10662e-007 9.05512
f 5/50/9 3/51/9 14/52/9

vt -14.9606 0
f 3/51/9 5/50/9 1/53/9

usemtl Red_Metal
vt -14.9606 11.0236
f 14/52/9 8/54/9 5/50/9

vt -4.10662e-007 11.0236
f 8/54/9 14/52/9 12/55/9

