# Alias OBJ Model File
# Exported from SketchUp, (c) 2000-2012 Trimble Navigation Limited
# File units = meters

mtllib spaceInterior_004.mtl

g Mesh1 Group1 Model

usemtl Metal
v 0.32451 0 -0.0645278
vt 2.54046 6.53145e-013
vn 1 -5.11228e-014 -0
v 0.32451 0.25 -0.0215093
vt 0.846821 9.84252
v 0.32451 0 -0.0215093
vt 0.846821 6.53145e-013
f 1/1/1 2/2/1 3/3/1

v 0.32451 0.25 -0.0645278
vt 2.54046 9.84252
f 2/2/1 1/1/1 4/4/1

v 0.287255 2.34621e-015 -0.0860371
vt -8.10046 3.11895e-013
vn 0.5 -2.55614e-014 -0.866025
vt -9.7941 9.84252
vt -9.7941 2.19524e-013
f 5/5/2 4/6/2 1/7/2

v 0.287255 0.25 -0.0860371
vt -8.10046 9.84252
f 4/6/2 5/5/2 6/8/2

v 0.25 4.78266e-015 -0.0645278
vt -9.7941 2.5785e-013
vn -0.5 2.55614e-014 -0.866025
vt -11.4877 9.84252
vt -11.4877 1.61927e-013
f 7/9/3 6/10/3 5/11/3

v 0.25 0.25 -0.0645278
f 6/10/3 7/9/3 8/6/3

v 0.25 4.78266e-015 -0.0215093
vt -0.846821 8.47819e-013
vn -1 6.70077e-014 -0
vt -2.54046 9.84252
vt -2.54046 8.47819e-013
f 9/12/4 8/13/4 7/14/4

v 0.25 0.25 -0.0215093
vt -0.846821 9.84252
f 8/13/4 9/12/4 10/15/4

vt 8.10046 3.32834e-013
vn -0.5 2.55614e-014 0.866025
v 0.287255 0.25 -0
vt 9.7941 9.84252
vt 8.10046 9.84252
f 9/16/5 11/17/5 10/18/5

v 0.287255 2.34621e-015 -0
vt 9.7941 2.36911e-013
f 11/17/5 9/16/5 12/19/5

vt -9.84252 0.846821
vn -5.14728e-014 -1 -3.91133e-030
vt -11.3093 3.38729
vt -11.3093 2.63815e-042
f 9/20/6 5/21/6 12/22/6

vt -9.84252 2.54046
f 5/21/6 9/20/6 7/23/6

vt -12.776 2.54046
f 12/22/6 5/21/6 1/24/6

vt -12.776 0.846821
f 12/22/6 1/24/6 3/25/6

vt 11.4877 9.84252
vn 0.5 -2.55614e-014 0.866025
vt 11.4877 1.4454e-013
f 2/26/7 12/19/7 3/27/7

f 12/19/7 2/26/7 11/17/7

vt 11.3093 3.38729
vn 5.67776e-014 1 -9.82856e-032
vt 11.3093 -9.67378e-031
vt 12.776 0.846821
f 6/28/8 11/29/8 2/30/8

vt 9.84252 2.54046
f 8/31/8 11/29/8 6/28/8

vt 9.84252 0.846821
f 11/29/8 8/31/8 10/32/8

v 0 0.25 -0.0215093
vt 6.30356e-013 0.846821
vn -6.40442e-014 -1 -0
f 13/33/9 8/23/9 10/20/9

v 0 0.25 -0.0645278
vt 6.30356e-013 2.54046
f 8/23/9 13/33/9 14/34/9

vn -1 6.38559e-014 -2.0009e-041
v 5.77529e-015 0.32451 -0.0645278
vt -2.54046 12.776
f 13/15/10 15/35/10 14/13/10

v 5.77529e-015 0.32451 -0.0215093
vt -0.846821 12.776
f 13/15/10 16/36/10 15/35/10

v 4.33147e-015 0.287255 -0
vt -3.41214e-054 11.3093
f 16/36/10 13/15/10 17/37/10

vt -3.1312e-014 8.10046
vn -3.20221e-014 -0.5 0.866025
v 0.25 0.287255 -0
vt 9.84252 9.7941
vt 1.7053e-013 9.7941
f 13/38/11 18/39/11 17/40/11

vt 9.84252 8.10046
f 18/39/11 13/38/11 10/41/11

vt 8.52387 7.91445
vn -0.447214 -0.447214 0.774597
vt 8.10046 6.27459
vt 9.7941 6.27459
f 18/42/12 10/43/12 11/44/12

vn 0.447214 0.447214 0.774597
v 0.25 0.32451 -0.0215093
vt 8.94728 9.55432
f 11/44/13 19/45/13 18/42/13

vt 11.4877 6.27459
f 19/45/13 11/44/13 2/46/13

vt 2.54046 -2.07428
vn 0.707107 0.707107 -4.97831e-029
vt 0.846821 2.07428
vt 0.846821 -2.07428
f 4/47/14 19/48/14 2/49/14

v 0.25 0.32451 -0.0645278
vt 2.54046 2.07428
f 19/48/14 4/47/14 20/50/14

vt -8.10046 4.9627
vn 0.447214 0.447214 -0.774597
vt -7.25364 8.24243
vt -9.7941 4.9627
f 6/51/15 20/52/15 4/53/15

v 0.25 0.287255 -0.0860371
vt -6.83023 6.60256
f 20/52/15 6/51/15 21/54/15

vt -10.2175 9.22634
vn -0.447214 -0.447214 -0.774597
vt -11.4877 7.58648
vt -9.7941 7.58648
f 21/55/16 6/56/16 8/57/16

vt -9.3936e-014 9.7941
vn -3.20221e-014 -0.5 -0.866025
vt -9.84252 11.4877
vt -9.84252 9.7941
f 14/58/17 21/59/17 8/60/17

v 4.33147e-015 0.287255 -0.0860371
vt -2.95778e-013 11.4877
f 21/59/17 14/58/17 22/61/17

vt -3.38729 11.3093
f 14/13/10 15/35/10 22/62/10

vn 3.20221e-014 0.5 -0.866025
vt -4.52823e-014 8.10046
vt -1.33438e-013 9.7941
f 20/60/18 22/63/18 15/64/18

vt -9.84252 8.10046
f 22/63/18 20/60/18 21/65/18

vt -5.90854e-013 2.54046
vn 6.40442e-014 1 -0
f 15/66/19 19/32/19 20/31/19

vt -5.90854e-013 0.846821
f 19/32/19 15/66/19 16/67/19

vn 3.20221e-014 0.5 0.866025
vt 9.84252 11.4877
vt 2.58686e-013 11.4877
f 17/40/20 19/68/20 16/69/20

f 19/68/20 17/40/20 18/39/20

vt 12.776 2.54046
f 6/28/8 2/30/8 4/70/8

