# Alias OBJ Model File
# Exported from SketchUp, (c) 2000-2012 Trimble Navigation Limited
# File units = meters

mtllib spaceInterior_011.mtl

g Mesh1 Group1 Model

usemtl Dark_Metal
v 0.165 0.046875 -0.58
vt 22.8346 1.84547
vn 1 0 -0
v 0.165 0.09375 -0.05
vt 1.9685 3.69094
v 0.165 0.046875 -0.05
vt 1.9685 1.84547
f 1/1/1 2/2/1 3/3/1

v 0.165 0.09375 -0.58
vt 22.8346 3.69094
f 2/2/1 1/1/1 4/4/1

v 0.0825 0.09375 -0.58
vt 3.24803 3.69094
vn 4.0586e-016 2.37523e-015 1
vt 6.49606 1.84547
vt 6.49606 3.69094
f 5/5/2 1/6/2 4/7/2

v 0 0 -0.58
vt 9.26766e-015 5.42375e-014
f 6/8/2 1/6/2 5/5/2

v 0.2475 0.046875 -0.58
vt 9.74409 1.84547
f 6/8/2 7/9/2 1/6/2

v 0.2475 0 -0.58
vt 9.74409 5.42375e-014
f 7/9/2 6/8/2 8/10/2

vt -9.74409 22.8346
vn 0 -1 -0
v 0 0 -0.53
vt 0 20.8661
vt 0 22.8346
f 8/11/3 9/12/3 6/13/3

v 0 0 -0.05
vt 0 1.9685
f 9/12/3 8/11/3 10/14/3

v 0.2475 0 -0.05
vt -9.74409 1.9685
f 10/14/3 8/11/3 11/15/3

vt 22.8346 0
v 0.2475 0.046875 -0.05
vt 1.9685 0
f 8/16/1 12/3/1 11/17/1

f 12/3/1 8/16/1 7/1/1

usemtl Metal
v 0.20625 0.046875 -0.58
vt 8.12008 22.8346
vn 0 1 -0
vt 9.74409 1.9685
vt 9.74409 22.8346
f 13/18/4 12/19/4 7/20/4

v 0.20625 0.046875 -0.05
vt 8.12008 1.9685
f 12/19/4 13/18/4 14/21/4

usemtl Dark_Metal
vt 6.49606 22.8346
f 1/22/4 14/21/4 13/18/4

vt 6.49606 1.9685
f 14/21/4 1/22/4 3/23/4

vt -6.49606 3.69094
vn 4.11018e-015 6.81183e-015 -1
vt -8.12008 1.84547
vt -6.49606 1.84547
f 2/24/5 14/25/5 3/26/5

vt -9.74409 1.84547
f 14/25/5 2/24/5 12/27/5

v 0.28 0.09375 -0.05
vt -11.0236 3.69094
f 15/28/5 12/27/5 2/24/5

v 0.28 0 -0.05
vt -11.0236 -1.34091e-014
f 16/29/5 12/27/5 15/28/5

vt -9.74409 -1.34091e-014
f 12/27/5 16/29/5 11/30/5

v 0.28 0 -0
vt -11.0236 0
vt -11.0236 1.9685
f 17/31/3 11/15/3 16/32/3

v 0 0 -0
vt 0 0
f 18/33/3 11/15/3 17/31/3

f 11/15/3 18/33/3 10/14/3

vn -1 0 -0
v 0 0.1875 -0.05
vt -1.9685 7.38189
vt -1.9685 0
f 18/33/6 19/34/6 10/35/6

v 0 0.1875 -0
vt 0 7.38189
f 19/34/6 18/33/6 20/36/6

vn -1.84161e-016 -2.75014e-016 -1
vt -11.0236 -5.58312e-031
f 20/36/7 17/37/7 18/33/7

v 0.28 0.09375 -0
f 17/37/7 20/36/7 21/28/7

v 0.14 0.1875 -0
vt -5.51181 7.38189
f 21/28/7 20/36/7 22/38/7

usemtl Metal
vt 5.51181 0
f 22/39/4 19/14/4 20/33/4

v 0.14 0.1875 -0.05
vt 5.51181 1.9685
f 19/14/4 22/39/4 23/40/4

vt -1.16241e-027 -7.10592
vn 0.556411 0.830907 -5.8672e-029
vt 1.9685 -0.472438
vt -5.81205e-028 -0.472438
f 21/41/8 23/42/8 22/43/8

vt 1.9685 -7.10592
f 23/42/8 21/41/8 15/44/8

usemtl Dark_Metal
vt 0 3.69094
f 21/45/1 16/17/1 15/2/1

f 16/17/1 21/45/1 17/33/1

v 0.0825 0.140625 -0.05
vt -3.24803 5.53642
f 15/28/5 24/46/5 23/38/5

f 2/24/5 24/46/5 15/28/5

v 0.12375 0.09375 -0.05
vt -4.87205 3.69094
f 25/47/5 24/46/5 2/24/5

v 0.0825 0.09375 -0.05
vt -3.24803 3.69094
f 24/46/5 25/47/5 26/48/5

vt 4.87205 1.9685
vt 3.24803 22.8346
vt 3.24803 1.9685
f 25/49/4 5/50/4 26/51/4

v 0.12375 0.09375 -0.58
vt 4.87205 22.8346
f 5/50/4 25/49/4 27/52/4

usemtl Metal
f 2/23/4 27/52/4 25/49/4

f 27/52/4 2/23/4 4/22/4

usemtl Dark_Metal
vt 4.87205 3.69094
f 5/5/2 4/7/2 27/53/2

vt 1.9685 5.53642
f 5/4/1 24/54/1 26/2/1

v 0.0825 0.140625 -0.58
vt 22.8346 5.53642
f 24/54/1 5/4/1 28/55/1

v 0 0.140625 -0.58
vt 9.26766e-015 5.53642
vt 3.24803 5.53642
f 29/56/2 5/5/2 28/57/2

f 6/8/2 5/5/2 29/56/2

vt -20.8661 0
vt -22.8346 5.53642
vt -22.8346 0
f 9/58/6 29/59/6 6/60/6

f 10/35/6 29/59/6 9/58/6

v 0 0.140625 -0.05
vt -1.9685 5.53642
f 10/35/6 30/61/6 29/59/6

f 10/35/6 19/34/6 30/61/6

vt 8.0909e-015 7.38189
v 0.04125 0.140625 -0.05
vt -1.62402 5.53642
vt 8.0909e-015 5.53642
f 19/62/5 31/63/5 30/64/5

f 31/63/5 19/62/5 24/46/5

f 23/38/5 24/46/5 19/62/5

usemtl Metal
v 0.04125 0.140625 -0.58
vt 1.62402 22.8346
vt 1.62402 1.9685
f 24/51/4 32/65/4 31/66/4

f 32/65/4 24/51/4 28/50/4

usemtl Dark_Metal
vt 1.62402 5.53642
f 29/56/2 28/57/2 32/67/2

f 29/13/4 31/66/4 32/65/4

f 31/66/4 29/13/4 30/14/4

vt 8.12008 1.84547
f 1/6/2 7/9/2 13/68/2

