# Alias OBJ Model File
# Exported from SketchUp, (c) 2000-2012 Trimble Navigation Limited
# File units = meters

mtllib spaceInterior_077.mtl

g Mesh1 Group1 Model

usemtl Dark_Metal
v 1 7.21911e-017 -1
vt -39.3701 39.3701
vn 0 -1 -0
v 0 0 -0
vt 0 0
v 0 0 -1
vt 0 39.3701
f 1/1/1 2/2/1 3/3/1

v 0.5 0 -7.21911e-016
vt -19.685 2.84217e-014
f 2/2/1 1/1/1 4/4/1

v 1 7.21911e-017 -1.44382e-015
vt -39.3701 5.68434e-014
f 4/4/1 1/1/1 5/5/1

v 1 0.0625 -1
vt 39.3701 2.46063
vn 1 5.77529e-016 6.83814e-017
vt 5.95356e-014 -1.98952e-014
vt 39.3701 -1.98952e-014
f 6/6/2 5/7/2 1/8/2

v 0.5 0.0625 -1
vt 19.685 39.4469
vn -1.35758e-016 0.998053 0.0623783
vt 39.3701 1.42427e-013
vt 39.3701 39.4469
f 7/9/3 5/10/3 6/11/3

v 0.5 0.015625 -0.25
vt 19.685 9.86172
f 8/12/3 5/10/3 7/9/3

vt 19.685 7.11247e-014
f 5/10/3 8/12/3 4/13/3

vt 9.84252 0.615157
vn 1 1.62009e-015 4.18915e-017
v 0.5 0.015625 -7.21911e-016
vt 2.92463e-014 0.615157
vt 2.92463e-014 -3.18916e-014
f 8/14/4 9/15/4 4/16/4

v 0.5 0.015625 -0.0625
vt 2.46063 0.615157
f 9/15/4 8/14/4 10/17/4

vt 19.685 9.84252
vn 0 1 -0
v 1.44382e-015 0.015625 -0.0625
vt 5.68434e-014 2.46063
vt 19.685 2.46063
f 8/18/5 11/19/5 10/20/5

v 9.92628e-016 0.015625 -0.25
vt 3.90799e-014 9.84252
f 11/19/5 8/18/5 12/21/5

usemtl Metal
v 0.5 0.03125 -0.25
vt 19.685 1.23031
vn 1.19496e-015 0 1
vt 5.08413e-014 0.615157
vt 19.685 0.615157
f 13/22/6 12/23/6 8/24/6

v 9.92628e-016 0.03125 -0.25
vt 5.08413e-014 1.23031
f 12/23/6 13/22/6 14/25/6

v 1.44382e-015 0.03125 -0.3125
vt 5.68434e-014 12.3031
f 13/18/5 15/26/5 14/21/5

v 0.5 0.03125 -0.3125
vt 19.685 12.3031
f 15/26/5 13/18/5 16/27/5

usemtl Dark_Metal
vt 9.84252 1.23031
v 0.5 0.03125 -0.5
vt 12.3031 1.23031
f 13/28/4 17/22/4 16/29/4

f 17/22/4 13/28/4 8/14/4

v 0.5 0.046875 -0.75
vt 19.685 29.5852
vt 19.685 19.7234
f 8/12/3 18/30/3 17/31/3

f 18/30/3 8/12/3 7/9/3

vn 1 2.66552e-015 3.59923e-016
v 0.5 0.0625 -0.75
vt 29.5276 2.46063
vt 29.5276 1.84547
f 7/6/7 19/32/7 18/33/7

v 0.5 0.0625 -0.8125
vt 31.9882 2.46063
f 19/32/7 7/6/7 20/34/7

v 0 0.0625 -1
vt 19.685 31.9882
vt 19.685 39.3701
f 21/3/5 20/35/5 7/36/5

v -6.64159e-014 0.0625 -0.8125
vt -2.6148e-012 31.9882
f 20/35/5 21/3/5 22/37/5

vt -39.3701 8.40416e-030
vn -1 1.84809e-015 1.15506e-016
vt -31.9882 2.46063
vt -39.3701 2.46063
f 3/38/8 22/39/8 21/40/8

v 1.44382e-015 0.046875 -0.75
vt -29.5276 1.84547
f 3/38/8 23/41/8 22/39/8

v 9.92628e-016 0.046875 -0.5625
vt -22.1457 1.84547
f 3/38/8 24/42/8 23/41/8

v 1.44382e-015 0.03125 -0.5
vt -19.685 1.23031
f 3/38/8 25/43/8 24/42/8

vt -12.3031 1.23031
f 3/38/8 15/44/8 25/43/8

vt -9.84252 0.615157
f 3/38/8 12/45/8 15/44/8

vt -2.46063 0.615157
f 3/38/8 11/46/8 12/45/8

f 2/2/8 11/46/8 3/38/8

v 1.44382e-015 0.015625 -0
vt 6.56575e-030 0.615157
f 11/46/8 2/2/8 26/47/8

usemtl Metal
vn 0 0 1
vt 5.68434e-014 0.615157
f 2/2/9 9/24/9 26/48/9

vt 19.685 0
f 9/24/9 2/2/9 4/49/9

vt 19.685 2.84217e-014
vt 5.68434e-014 0
f 9/50/5 11/19/5 26/51/5

f 11/19/5 9/50/5 10/20/5

usemtl Dark_Metal
vt -9.84252 1.23031
f 15/44/8 12/45/8 14/52/8

vt 5.68434e-014 19.685
f 16/27/5 25/53/5 15/26/5

vt 19.685 19.685
f 25/53/5 16/27/5 17/54/5

usemtl Metal
v 0.5 0.046875 -0.5
vt 19.685 1.84547
vt 8.03663e-014 1.23031
f 27/55/6 25/56/6 17/22/6

v 1.44382e-015 0.046875 -0.5
vt 8.03663e-014 1.84547
f 25/56/6 27/55/6 28/57/6

v 0.5 0.046875 -0.5625
vt 19.685 22.1457
f 29/58/5 28/53/5 27/54/5

vt 3.90799e-014 22.1457
f 28/53/5 29/58/5 24/59/5

usemtl Dark_Metal
vt 5.68434e-014 29.5276
f 29/58/5 23/60/5 24/59/5

vt 19.685 29.5276
f 23/60/5 29/58/5 18/61/5

vt 22.1457 1.84547
f 27/55/4 18/33/4 29/62/4

f 18/33/4 27/55/4 17/22/4

usemtl Metal
vt 9.21278e-014 1.84547
f 19/20/6 23/63/6 18/55/6

v 1.44382e-015 0.0625 -0.75
vt 9.21278e-014 2.46063
f 23/63/6 19/20/6 30/64/6

f 20/35/5 30/60/5 19/61/5

f 30/60/5 20/35/5 22/37/5

usemtl Dark_Metal
vt -29.5276 2.46063
f 22/39/8 23/41/8 30/65/8

vt -19.685 1.84547
f 24/42/8 25/43/8 28/66/8

vt 0 2.46063
vn 0 0 -1
vt -39.3701 2.84217e-015
f 21/67/10 1/68/10 3/2/10

vt -19.685 2.46063
f 1/68/10 21/67/10 7/69/10

f 1/68/10 7/69/10 6/40/10

