# Alias OBJ Model File
# Exported from SketchUp, (c) 2000-2012 Trimble Navigation Limited
# File units = meters

mtllib spaceInterior_032.mtl

g Mesh1 Group1 Model

usemtl Metal
v 0 1 -0
vt 0 39.3701
vn -1 3.48336e-016 -2.93104e-016
v 0 0.617578 -0.132422
vt -5.21347 24.3141
v 0 0 -0
vt 0 0
f 1/1/1 2/2/1 3/3/1

v 0 1 -1
vt -39.3701 39.3701
f 2/2/1 1/1/1 4/4/1

v 0.25 1 -0
vt 9.84252 0
vn 0 1 -0
f 5/5/2 4/1/2 1/3/2

v 0.25 1 -1
vt 9.84252 39.3701
f 4/1/2 5/5/2 6/6/2

vn 1 0 -0
v 0.25 0.875 -1
vt 39.3701 34.4488
vt 39.3701 39.3701
f 5/1/3 7/7/3 6/8/3

v 0.25 0.875 -0
vt 0 34.4488
f 7/7/3 5/1/3 8/9/3

vn 0 0 1
vt 9.84252 34.4488
f 1/1/4 8/10/4 5/6/4

v 0.125 0.75 -0
vt 4.92126 29.5276
f 1/1/4 9/11/4 8/10/4

v 0.125 0.125 -0
vt 4.92126 4.92126
f 1/1/4 10/12/4 9/11/4

f 3/3/4 10/12/4 1/1/4

v 0.1875 0.125 -0
vt 7.38189 4.92126
f 3/3/4 11/13/4 10/12/4

v 0.1875 0 -0
vt 7.38189 0
f 11/13/4 3/3/4 12/14/4

vn 4.10013e-015 -1 -5.06077e-015
v 0.15625 1.08287e-015 -0.0849722
vt -6.15157 3.34536
vt -7.38189 -1.53173e-028
f 3/3/5 13/15/5 12/16/5

v 0.15625 1.08287e-015 -0.132422
vt -6.15157 5.21347
f 3/3/5 14/17/5 13/15/5

v -1.44382e-015 0 -0.132422
vt 5.68434e-014 5.21347
f 14/17/5 3/3/5 15/18/5

vt -5.21347 -2.03329e-029
f 2/2/1 15/19/1 3/3/1

v 0 0.209972 -0.132422
vt -5.21347 8.26662
f 15/19/1 2/2/1 16/20/1

v 0.15625 0.617578 -0.132422
vt -6.15157 24.3141
vn 0 0 -1
vt 0 8.26662
vt 0 24.3141
f 17/21/6 16/22/6 2/23/6

v 0.15625 0.125 -0.132422
vt -6.15157 4.92126
f 18/24/6 16/22/6 17/21/6

vt -6.15157 4.26326e-014
f 14/25/6 16/22/6 18/24/6

vt 5.68434e-014 0
f 16/22/6 14/25/6 15/26/6

v 0.1875 0.125 -0.0849722
vt -1.26631 4.92126
vn 0.835151 3.91304e-018 -0.550021
vt 0.970538 4.26012e-014
vt 0.970538 4.92126
f 19/27/7 14/28/7 18/29/7

v 0.1875 1.03775e-015 -0.0849722
vt -1.26631 4.08249e-014
f 14/28/7 19/27/7 20/30/7

vt 0 4.92126
vt 3.34536 4.08562e-014
vt 3.34536 4.92126
f 11/31/3 20/32/3 19/33/3

f 20/32/3 11/31/3 12/3/3

vt -7.38189 3.34536
f 12/16/5 13/15/5 20/34/5

vn -1.44382e-015 -1 -0
f 20/34/8 13/15/8 14/17/8

vt 5.21347 4.26326e-014
v 0.15625 0.125 -0.0849722
vt 3.34536 4.26326e-014
f 14/35/3 21/33/3 13/36/3

vt 5.21347 4.92126
f 21/33/3 14/35/3 18/37/3

v 0.15625 0.617578 -0.0849722
vt 3.34536 24.3141
f 18/37/3 22/38/3 21/33/3

v 0.15625 0.665028 -0.132422
vt 5.21347 26.1822
f 22/38/3 18/37/3 23/39/3

vt 5.21347 24.3141
f 23/39/3 18/37/3 17/40/3

v 0.15625 0.617578 -0.867578
vt 34.1566 24.3141
f 23/39/3 17/40/3 24/41/3

vt 0 5.21347
vn 0 -1 -0
vt -6.15157 34.1566
f 2/42/9 24/43/9 17/17/9

v 0 0.617578 -0.867578
vt 0 34.1566
f 24/43/9 2/42/9 25/44/9

vt -34.1566 24.3141
f 2/2/1 4/4/1 25/45/1

v 0 0.209972 -0.867578
vt -34.1566 8.26662
f 25/45/1 4/4/1 26/46/1

v 0 -4.51195e-017 -0.867578
vt -34.1566 -1.77636e-015
f 26/46/1 4/4/1 27/47/1

v 0 0 -1
vt -39.3701 -4.01963e-030
f 27/47/1 4/4/1 28/48/1

v 0.125 0.125 -1
vt -4.92126 4.92126
f 29/49/6 28/3/6 4/1/6

v 0.1875 0 -1
vt -7.38189 0
f 28/3/6 29/49/6 30/50/6

v 0.1875 0.125 -1
vt -7.38189 4.92126
f 31/51/6 30/50/6 29/49/6

v 0.1875 0.125 -0.915028
vt 36.0247 4.92126
vt 39.3701 0
vt 39.3701 4.92126
f 32/52/3 30/53/3 31/54/3

v 0.1875 1.03775e-015 -0.915028
vt 36.0247 4.08562e-014
f 30/53/3 32/52/3 33/55/3

v 0.15625 0.125 -0.867578
vt 31.9094 4.92126
vn 0.835151 0 0.550021
vt 34.1463 4.08562e-014
vt 34.1463 4.92126
f 34/56/10 33/57/10 32/58/10

v 0.15625 1.03775e-015 -0.867578
vt 31.9094 4.08562e-014
f 33/57/10 34/56/10 35/59/10

vt 6.15157 4.08562e-014
vt 6.15157 4.92126
f 26/22/4 35/60/4 34/61/4

vt 0 -1.77636e-015
f 35/60/4 26/22/4 27/62/4

vn 4.13572e-015 -1 4.72876e-015
vt 7.34652e-030 34.1566
v 0.15625 1.03775e-015 -0.915028
vt -6.15157 36.0247
f 35/43/11 27/63/11 36/64/11

vt -7.38189 39.3701
f 27/63/11 30/65/11 36/64/11

f 30/65/11 27/63/11 28/1/11

vt -7.38189 36.0247
f 36/64/11 30/65/11 33/66/11

f 33/66/9 35/43/9 36/64/9

vt 34.1566 4.92126
vt 34.1566 4.08562e-014
f 36/55/3 34/67/3 35/68/3

v 0.15625 0.125 -0.915028
f 34/67/3 36/55/3 37/52/3

f 37/52/3 24/41/3 34/67/3

v 0.15625 0.665028 -0.867578
vt 34.1566 26.1822
f 24/41/3 37/52/3 38/69/3

v 0.15625 0.617578 -0.915028
vt 36.0247 24.3141
f 38/69/3 37/52/3 39/70/3

v 0.125 0.617578 -0.915028
vt -4.92126 24.3141
f 37/24/6 40/71/6 39/21/6

v 0.125 0.125 -0.915028
f 40/71/6 37/24/6 41/49/6

vt 6.15157 36.0247
vt 4.92126 39.3701
vt 4.92126 36.0247
f 37/72/2 29/73/2 41/74/2

vt 7.38189 39.3701
f 29/73/2 37/72/2 31/75/2

vt 7.38189 36.0247
f 31/75/2 37/72/2 32/76/2

vt 6.15157 34.1566
f 32/76/2 37/72/2 34/77/2

usemtl Dark_Metal
f 29/54/3 40/70/3 41/52/3

v 0.125 0.75 -1
vt 39.3701 29.5276
f 42/78/3 40/70/3 29/54/3

v 0.125 0.665028 -0.867578
f 42/78/3 43/69/3 40/70/3

v 0.125 0.665028 -0.132422
f 42/78/3 44/39/3 43/69/3

vt 0 29.5276
f 9/79/3 44/39/3 42/78/3

v 0.125 0.617578 -0.0849722
f 9/79/3 45/38/3 44/39/3

v 0.125 0.125 -0.0849722
f 9/79/3 46/33/3 45/38/3

f 46/33/3 9/79/3 10/31/3

usemtl Metal
vt 7.38189 2.76261e-015
vn 3.60956e-016 1 5.61362e-016
vt 4.92126 3.34536
vt 4.92126 2.76261e-015
f 11/80/12 46/81/12 10/82/12

vt 6.15157 3.34536
f 46/81/12 11/80/12 21/83/12

vt 6.15157 5.21347
f 21/83/12 11/80/12 18/84/12

vt 7.38189 3.34536
f 18/84/12 11/80/12 19/85/12

vt 6.15157 24.3141
f 22/86/4 46/12/4 21/61/4

vt 4.92126 24.3141
f 46/12/4 22/86/4 45/87/4

vt 6.15157 22.2001
vn 0 0.707107 0.707107
vt 4.92126 19.5582
vt 6.15157 19.5582
f 23/88/13 45/89/13 22/90/13

vt 4.92126 22.2001
f 45/89/13 23/88/13 44/91/13

vt 4.92126 34.1566
vt 4.92126 5.21347
f 23/84/2 43/92/2 44/93/2

f 43/92/2 23/84/2 38/77/2

f 23/39/3 24/41/3 38/69/3

vt -6.15157 -8.28066
vn 0 0.707107 -0.707107
vt -4.92126 -5.63876
vt -6.15157 -5.63876
f 39/94/14 43/95/14 38/96/14

vt -4.92126 -8.28066
f 43/95/14 39/94/14 40/97/14

vt 39.3701 31.3187
vn 0.707107 -0.707107 -0
vt 0 24.359
vt 39.3701 24.359
f 7/98/15 9/99/15 42/100/15

vt 0 31.3187
f 9/99/15 7/98/15 8/101/15

vt -4.92126 29.5276
vt -9.84252 34.4488
f 42/102/6 4/1/6 7/103/6

f 29/49/6 4/1/6 42/102/6

vt -9.84252 39.3701
f 7/103/6 4/1/6 6/104/6

f 26/22/4 34/61/4 24/86/4

f 26/22/4 24/86/4 25/23/4

