# Alias OBJ Model File
# Exported from SketchUp, (c) 2000-2012 Trimble Navigation Limited
# File units = meters

mtllib spaceInterior_034.mtl

g Mesh1 Group1 Model

usemtl Dark_Metal
v 1.44382e-015 0 -1
vt -5.68434e-014 39.3701
vn 0 -1 -0
v 1 0 3.60956e-016
vt -39.3701 -1.42109e-014
v 0 0 -0
vt 0 0
f 1/1/1 2/2/1 3/3/1

v 1 0 -1
vt -39.3701 39.3701
f 2/2/1 1/1/1 4/4/1

v 1.44382e-015 0.0625 -1
vt -5.68434e-014 2.46063
vn 0 0 -1
vt -39.3701 0
vt -5.68434e-014 0
f 5/5/2 4/6/2 1/7/2

v 1 0.0625 -1
vt -39.3701 2.46063
f 4/6/2 5/5/2 6/8/2

vt 5.68434e-014 39.3701
vn 0 1 -0
v 0.874715 0.0625 -0.874715
vt 34.4376 34.4376
vt 39.3701 39.3701
f 5/9/3 7/10/3 6/11/3

v -1.44382e-015 0.0625 -0.874715
vt -5.68434e-014 34.4376
f 7/10/3 5/9/3 8/12/3

vn -1 0 -0
vt -34.4376 2.46063
f 1/6/4 8/13/4 5/8/4

v 1.44382e-015 0.0425 -0.837244
vt -32.9623 1.67323
f 1/6/4 9/14/4 8/13/4

v -1.44382e-015 0.0425 -0.162756
vt -6.40773 1.67323
f 1/6/4 10/15/4 9/14/4

f 3/3/4 10/15/4 1/6/4

v 1.44382e-015 0.0625 -0.125285
vt -4.93247 2.46063
f 3/3/4 11/16/4 10/15/4

v 0 0.0625 -0
vt 0 2.46063
f 11/16/4 3/3/4 12/17/4

vn 0 0 1
v 1 0.0625 3.60956e-016
vt 39.3701 2.46063
f 3/3/5 13/18/5 12/17/5

vt 39.3701 0
f 13/18/5 3/3/5 2/19/5

vn 1 0 -0
vt -1.42109e-014 2.46063
vt -1.42109e-014 0
f 4/19/6 13/20/6 2/21/6

f 13/20/6 4/19/6 6/18/6

v 0.874715 0.0625 -0.125285
vt 34.4376 4.93247
vt 39.3701 -1.42109e-014
f 6/11/3 14/22/3 13/23/3

f 6/11/3 7/10/3 14/22/3

v 0.837244 0.0425 -0.837244
vt -32.9623 29.8674
vn -0.470867 0.882204 -8.60329e-019
vt -4.93247 31.5396
vt -34.4376 31.5396
f 15/24/7 14/25/7 7/26/7

v 0.837244 0.0425 -0.162756
vt -6.40773 29.8674
f 14/25/7 15/24/7 16/27/7

usemtl Metal
vt 5.68434e-014 32.9623
vt 32.9623 6.40773
vt 32.9623 32.9623
f 9/28/3 16/29/3 15/30/3

vt -5.68434e-014 6.40773
f 16/29/3 9/28/3 10/31/3

usemtl Dark_Metal
vt -5.68492e-014 -3.19282
vn -5.54505e-019 0.882204 -0.470867
vt -32.9623 -4.86506
vt 5.68359e-014 -4.86506
f 11/32/8 16/33/8 10/34/8

vt -34.4376 -3.19282
f 16/33/8 11/32/8 14/35/8

vt 5.68434e-014 4.93247
f 11/36/3 13/23/3 14/22/3

f 13/23/3 11/36/3 12/3/3

vt 34.4376 31.5396
vn 3.1686e-019 0.882204 0.470867
vt 5.68656e-014 29.8674
vt 32.9623 29.8674
f 7/37/9 9/38/9 15/39/9

vt -5.68202e-014 31.5396
f 9/38/9 7/37/9 8/40/9

