# Alias OBJ Model File
# Exported from SketchUp, (c) 2000-2012 Trimble Navigation Limited
# File units = meters

mtllib spaceInterior_010.mtl

g Mesh1 Group1 Model

usemtl Dark_Metal
v 0.04125 0.140625 -1.44382e-015
vt 1.62402 5.88429e-014
vn 1.79421e-015 1 3.61148e-016
v 7.21911e-016 0.140625 -0.58
vt 1.84882e-014 22.8346
v 0 0.140625 -1.44382e-015
vt -9.93352e-015 5.88429e-014
f 1/1/1 2/2/1 3/3/1

v 0.04125 0.140625 -0.58
vt 1.62402 22.8346
f 2/2/1 1/1/1 4/4/1

usemtl Metal
v 0.0825 0.140625 -1.44382e-015
vt 3.24803 5.68434e-014
vn 0 1 -0
vt 1.62402 5.68434e-014
f 5/5/2 4/4/2 1/6/2

v 0.0825 0.140625 -0.58
vt 3.24803 22.8346
f 4/4/2 5/5/2 6/7/2

usemtl Dark_Metal
vt 5.68434e-014 5.53642
vn 1 0 -0
v 0.0825 0.09375 -0.58
vt 22.8346 3.69094
vt 22.8346 5.53642
f 5/8/3 7/9/3 6/10/3

v 0.0825 0.09375 -1.44382e-015
vt 5.68434e-014 3.69094
f 7/9/3 5/8/3 8/11/3

vt -3.24803 3.69094
vn 7.25536e-016 1.52953e-015 -1
vt 4.12419e-029 5.53642
vt -3.24803 5.53642
f 8/12/4 3/13/4 5/14/4

v 0.165 0.046875 -1.44382e-015
vt -6.49606 1.84547
f 9/15/4 3/13/4 8/12/4

v 7.21911e-016 3.60956e-016 -0
vt -2.84217e-014 1.42109e-014
f 3/13/4 9/15/4 10/16/4

v 0.2475 0.046875 -1.44382e-015
vt -9.74409 1.84547
f 11/17/4 10/16/4 9/15/4

v 0.2475 0 -1.44382e-015
vt -9.74409 -9.77568e-029
f 10/16/4 11/17/4 12/18/4

v 0.2475 3.60956e-016 -0.05
vt 1.9685 -2.68159e-014
vn 1 4.21042e-015 9.63062e-016
vt 6.62276e-014 1.84547
vt 6.62276e-014 -4.10268e-014
f 13/19/5 11/20/5 12/21/5

v 0.2475 0.046875 -0.58
vt 22.8346 1.84547
f 11/20/5 13/19/5 14/22/5

v 0.2475 3.60956e-016 -0.58
vt 22.8346 -2.68159e-014
f 14/22/5 13/19/5 15/23/5

v 7.21911e-016 3.60956e-016 -0.05
vt -2.84217e-014 1.9685
vn 0 -1 -0
vt -9.74409 22.8346
vt -9.74409 1.9685
f 16/24/6 15/25/6 13/26/6

v 7.21911e-016 3.60956e-016 -0.53
vt -2.84217e-014 20.8661
f 17/27/6 15/25/6 16/24/6

v 7.21911e-016 3.60956e-016 -0.58
vt -2.84217e-014 22.8346
f 15/25/6 17/27/6 18/28/6

vt -20.8661 1.42109e-014
vn -1 -1.53519e-015 -3.09391e-016
vt -22.8346 5.53642
vt -22.8346 1.42109e-014
f 17/29/7 2/30/7 18/31/7

vt -1.9685 1.42109e-014
f 16/32/7 2/30/7 17/29/7

vt -5.68434e-014 5.53642
f 16/32/7 3/33/7 2/30/7

vt -8.79341e-030 1.42109e-014
f 3/33/7 16/32/7 10/34/7

vn -7.29203e-016 -1 -3.60956e-015
vt -2.84217e-014 5.12949e-029
f 13/26/8 10/35/8 16/24/8

vt -9.74409 5.68434e-014
f 10/35/8 13/26/8 12/36/8

vt 2.84217e-014 1.42109e-014
vn 0 0 1
vt 3.24803 3.69094
vt 2.84217e-014 5.53642
f 18/37/9 7/38/9 2/39/9

v 0.165 0.046875 -0.58
vt 6.49606 1.84547
f 18/37/9 19/40/9 7/38/9

vt 9.74409 1.84547
f 18/37/9 14/41/9 19/40/9

vt 9.74409 1.42109e-014
f 14/41/9 18/37/9 15/42/9

v 0.20625 0.046875 -0.58
vt 8.12008 1.84547
f 19/40/9 14/41/9 20/43/9

usemtl Metal
vt 8.12008 22.8346
vt 9.74409 5.68434e-014
vt 9.74409 22.8346
f 20/44/2 11/45/2 14/46/2

v 0.20625 0.046875 -1.44382e-015
vt 8.12008 5.68434e-014
f 11/45/2 20/44/2 21/47/2

usemtl Dark_Metal
vt 6.49606 22.8346
f 19/48/2 21/47/2 20/44/2

vt 6.49606 5.68434e-014
f 21/47/2 19/48/2 9/49/2

v 0.165 0.09375 -1.44382e-015
vt 5.68434e-014 1.84547
f 19/22/3 22/11/3 9/50/3

v 0.165 0.09375 -0.58
f 22/11/3 19/22/3 23/9/3

vt 6.49606 3.69094
f 7/38/9 19/40/9 23/51/9

v 0.12375 0.09375 -0.58
vt 4.87205 3.69094
f 7/38/9 23/51/9 24/52/9

usemtl Metal
vt 4.87205 22.8346
f 24/53/2 22/49/2 23/48/2

v 0.12375 0.09375 -1.44382e-015
vt 4.87205 5.68434e-014
f 22/49/2 24/53/2 25/54/2

usemtl Dark_Metal
f 7/7/2 25/54/2 24/53/2

f 25/54/2 7/7/2 8/5/2

vt -6.49606 3.69094
vt -4.87205 3.69094
f 22/55/4 8/12/4 25/56/4

f 8/12/4 22/55/4 9/15/4

vt -8.12008 1.84547
f 11/17/4 9/15/4 21/57/4

vt 3.24803 5.53642
f 2/39/9 7/38/9 6/58/9

vt 1.62402 5.53642
f 2/39/9 6/58/9 4/59/9

vt -1.62402 5.53642
f 5/14/4 3/13/4 1/60/4

