# Alias OBJ Model File
# Exported from SketchUp, (c) 2000-2012 Trimble Navigation Limited
# File units = meters

mtllib spaceInterior_026.mtl

g Mesh1 Group1 Model

usemtl Metal
v 0.0387 0.332075 -0.464831
vt -18.3004 13.1623
vn -0.993278 0.115757 9.77218e-033
v 0 0 -0
vt 0 0
v 0.0387 0.332075 -0
vt 1.49899e-032 13.1623
f 1/1/1 2/2/1 3/3/1

v 0 0 -0.464831
vt -18.3004 2.08415e-032
f 2/2/1 1/1/1 4/4/1

v 0.2206 0.0357479 -0.464831
vt -8.68504 1.4074
vn 7.13508e-015 2.80628e-015 -1
vt 1.30575e-013 -5.13562e-014
vt -1.52362 13.0738
f 5/5/2 4/6/2 1/7/2

v 0.2464 0 -0.464831
vt -9.70079 -5.13562e-014
f 4/6/2 5/5/2 6/8/2

v 0.2335 0.0357479 -0.464831
vt -9.19291 1.4074
f 7/9/2 6/8/2 5/5/2

v 0.2335 0.0357479 -0
vt 1.38826e-017 -1.79657
vn 0.940629 0.339436 1.42049e-018
vt 18.3004 -3.2928
vt 18.3004 -1.79657
f 8/10/3 6/11/3 7/12/3

v 0.2464 0 -0
vt 1.46496e-017 -3.2928
f 6/11/3 8/10/3 9/13/3

vt 9.19291 1.4074
vn 0 0 1
vt 9.70079 0
f 8/14/4 2/2/4 9/15/4

v 0.2206 0.0357479 -0
vt 8.68504 1.4074
f 2/2/4 8/14/4 10/16/4

vt 9.19291 0
vn 0 1 -0
vt 8.68504 18.3004
vt 8.68504 0
f 8/17/5 5/18/5 10/19/5

vt 9.19291 18.3004
f 5/18/5 8/17/5 7/20/5

vt 18.3004 1.4074
vn 1 0 -0
v 0.2206 0.138948 -0
vt 0 5.47039
vt 0 1.4074
f 5/21/6 11/22/6 10/23/6

v 0.2206 0.138948 -0.464831
vt 18.3004 5.47039
f 11/22/6 5/21/6 12/24/6

vt -8.68504 5.47039
f 5/5/2 1/7/2 12/25/2

v 0.298 0.138948 -0.464831
vt -11.7323 5.47039
f 12/25/2 1/7/2 13/26/2

v 0.298 0.232919 -0.464831
vt -11.7323 9.17004
f 13/26/2 1/7/2 14/27/2

v 0.129213 0.332075 -0.464831
vt -5.08713 13.0738
f 14/27/2 1/7/2 15/28/2

vt 1.52362 18.3004
v 0.129213 0.332075 -0
vt 5.08713 0
vt 5.08713 18.3004
f 1/29/5 16/30/5 15/31/5

vt 1.52362 0
f 16/30/5 1/29/5 3/32/5

vt 1.52362 13.0738
v 0.298 0.232919 -0
vt 11.7323 9.17004
vt 5.08713 13.0738
f 3/33/4 17/34/4 16/35/4

vt 8.68504 5.47039
f 3/33/4 11/36/4 17/34/4

f 3/33/4 10/16/4 11/36/4

f 2/2/4 10/16/4 3/33/4

v 0.298 0.138948 -0
vt 11.7323 5.47039
f 17/34/4 11/36/4 18/37/4

vt -8.68504 0
vn 0 -1 -0
vt -11.7323 18.3004
vt -11.7323 0
f 11/38/7 13/39/7 18/40/7

vt -8.68504 18.3004
f 13/39/7 11/38/7 12/41/7

vt 0 9.17004
f 13/24/6 17/42/6 18/22/6

vt 18.3004 9.17004
f 17/42/6 13/24/6 14/43/6

vt 18.3004 -5.47105
vn 0.506523 0.862226 -5.37324e-018
v 0.276559 0.245514 -0.441252
vt 17.3721 -4.49205
vt -1.24457e-016 -5.47105
f 14/44/8 19/45/8 17/46/8

v 0.150654 0.319479 -0.441252
vt 17.3721 1.25693
f 14/44/8 20/47/8 19/45/8

vt 18.3004 2.23593
f 15/48/8 20/47/8 14/44/8

v 0.150654 0.319479 -0.0235796
vt 0.92833 1.25693
f 20/47/8 15/48/8 21/49/8

vt -5.39647e-017 2.23593
f 16/50/8 21/49/8 15/48/8

f 21/49/8 16/50/8 17/46/8

v 0.276559 0.245514 -0.0235796
vt 0.92833 -4.49205
f 21/49/8 17/46/8 22/51/8

f 22/51/8 17/46/8 19/45/8

usemtl Dark_Metal
v 0.150654 0.245514 -0.441252
vt 5.93124 17.3721
vn 3.58359e-016 1 -1.46348e-033
vt 10.8882 0.92833
vt 10.8882 17.3721
f 23/52/9 22/53/9 19/54/9

v 0.150654 0.245514 -0.0235796
vt 5.93124 0.92833
f 22/53/9 23/52/9 24/55/9

usemtl FrontColor
vt 17.3721 9.66592
vt 0.92833 12.5779
vt 0.92833 9.66592
f 23/56/6 21/57/6 24/58/6

vt 17.3721 12.5779
f 21/57/6 23/56/6 20/59/6

vt 5.93124 12.5779
vn 2.29349e-014 3.90409e-014 1
vt 5.93124 9.66592
vt 10.8882 9.66592
f 20/60/10 23/61/10 19/62/10

vt -5.93124 12.5779
vn 0 0 -1
vt -10.8882 9.66592
vt -5.93124 9.66592
f 21/63/11 22/64/11 24/65/11

usemtl Metal
vt -9.70079 18.3004
vt -9.70079 0
f 2/2/7 6/66/7 9/67/7

vt 0 18.3004
f 6/66/7 2/2/7 4/68/7

