# Alias OBJ Model File
# Exported from SketchUp, (c) 2000-2012 Trimble Navigation Limited
# File units = meters

mtllib spaceInterior_078.mtl

g Mesh1 Group1 Model

usemtl Dark_Metal
v 1 0 -1
vt -39.3701 39.3701
vn 0 -1 -0
v 0 0 -0
vt 0 0
v 0 0 -1
vt 0 39.3701
f 1/1/1 2/2/1 3/3/1

v 1 0 -0
vt -39.3701 0
f 2/2/1 1/1/1 4/4/1

vt 39.3701 0
vn 1 0 -0
v 1 0.015625 -0
vt 0 0.615157
f 1/5/2 5/6/2 4/2/2

v 1 0.015625 -0.0625
vt 2.46063 0.615157
f 5/6/2 1/5/2 6/7/2

v 1 0.015625 -0.25
vt 9.84252 0.615157
f 6/7/2 1/5/2 7/8/2

v 1 0.03125 -0.25
vt 9.84252 1.23031
f 7/8/2 1/5/2 8/9/2

v 1 0.03125 -0.3125
vt 12.3031 1.23031
f 8/9/2 1/5/2 9/10/2

v 1 0.03125 -0.5
vt 19.685 1.23031
f 9/10/2 1/5/2 10/11/2

v 1 0.046875 -0.5
vt 19.685 1.84547
f 10/11/2 1/5/2 11/12/2

v 1 0.046875 -0.5625
vt 22.1457 1.84547
f 11/12/2 1/5/2 12/13/2

v 1 0.046875 -0.75
vt 29.5276 1.84547
f 12/13/2 1/5/2 13/14/2

v 1 0.0625 -0.75
vt 29.5276 2.46063
f 13/14/2 1/5/2 14/15/2

v 1 0.0625 -0.8125
vt 31.9882 2.46063
f 14/15/2 1/5/2 15/16/2

v 1 0.0625 -1
vt 39.3701 2.46063
f 15/16/2 1/5/2 16/17/2

vn 0 0 -1
v 0 0.0625 -1
vt 0 2.46063
vt -39.3701 2.46063
f 1/4/3 17/18/3 16/19/3

f 17/18/3 1/4/3 3/2/3

vt -39.3701 8.40416e-030
vn -1 1.84809e-015 1.15506e-016
v -6.64159e-014 0.0625 -0.8125
vt -31.9882 2.46063
f 3/20/4 18/21/4 17/19/4

v 1.44382e-015 0.046875 -0.75
vt -29.5276 1.84547
f 3/20/4 19/22/4 18/21/4

v 1.44382e-015 0.046875 -0.5625
vt -22.1457 1.84547
f 3/20/4 20/23/4 19/22/4

v 1.44382e-015 0.03125 -0.5
vt -19.685 1.23031
f 3/20/4 21/24/4 20/23/4

v 1.44382e-015 0.03125 -0.3125
vt -12.3031 1.23031
f 3/20/4 22/25/4 21/24/4

v 1.44382e-015 0.015625 -0.25
vt -9.84252 0.615157
f 3/20/4 23/26/4 22/25/4

v 1.44382e-015 0.015625 -0.0625
vt -2.46063 0.615157
f 3/20/4 24/27/4 23/26/4

f 2/2/4 24/27/4 3/20/4

v 1.44382e-015 0.015625 -0
vt 6.56575e-030 0.615157
f 24/27/4 2/2/4 25/28/4

usemtl Metal
vn 0 0 1
vt 39.3701 0.615157
vt 5.68434e-014 0.615157
f 2/2/5 5/29/5 25/30/5

f 5/29/5 2/2/5 4/5/5

vn 0 1 -0
vt 5.68434e-014 2.46063
vt 5.68434e-014 0
f 5/5/6 24/31/6 25/32/6

f 24/31/6 5/5/6 6/17/6

usemtl Dark_Metal
vt 5.68434e-014 9.84252
f 6/17/6 23/33/6 24/31/6

vt 39.3701 9.84252
f 23/33/6 6/17/6 7/34/6

usemtl Metal
vt 39.3701 1.23031
f 8/35/5 23/30/5 7/29/5

v 1.44382e-015 0.03125 -0.25
vt 5.68434e-014 1.23031
f 23/30/5 8/35/5 26/36/5

vt 5.68434e-014 12.3031
f 8/34/6 22/37/6 26/33/6

vt 39.3701 12.3031
f 22/37/6 8/34/6 9/38/6

usemtl Dark_Metal
vt 5.68434e-014 19.685
f 9/38/6 21/39/6 22/37/6

vt 39.3701 19.685
f 21/39/6 9/38/6 10/40/6

usemtl Metal
vt 39.3701 1.84547
f 11/41/5 21/36/5 10/35/5

v 1.44382e-015 0.046875 -0.5
vt 5.68434e-014 1.84547
f 21/36/5 11/41/5 27/42/5

vt 5.68434e-014 22.1457
f 11/40/6 20/43/6 27/39/6

vt 39.3701 22.1457
f 20/43/6 11/40/6 12/44/6

usemtl Dark_Metal
vt 5.68434e-014 29.5276
f 12/44/6 19/45/6 20/43/6

vt 39.3701 29.5276
f 19/45/6 12/44/6 13/46/6

usemtl Metal
f 14/17/5 19/42/5 13/41/5

v 1.44382e-015 0.0625 -0.75
f 19/42/5 14/17/5 28/31/5

vt 39.3701 31.9882
f 15/47/6 28/45/6 14/46/6

vt -2.6148e-012 31.9882
f 28/45/6 15/47/6 18/48/6

usemtl Dark_Metal
f 15/47/6 17/3/6 18/48/6

vt 39.3701 39.3701
f 17/3/6 15/47/6 16/49/6

vt -29.5276 2.46063
f 18/21/4 19/22/4 28/50/4

vt -19.685 1.84547
f 20/23/4 21/24/4 27/51/4

vt -9.84252 1.23031
f 22/25/4 23/26/4 26/52/4

