# Alias OBJ Model File
# Exported from SketchUp, (c) 2000-2012 Trimble Navigation Limited
# File units = meters

mtllib spaceInterior_033.mtl

g Mesh1 Group1 Model

usemtl Metal
v 0.25 1 -0
vt 9.84252 0
vn 0 1 -0
v 0 1 -1
vt 0 39.3701
v 0 1 -0
vt 0 0
f 1/1/1 2/2/1 3/3/1

v 0.25 1 -1
vt 9.84252 39.3701
f 2/2/1 1/1/1 4/4/1

vn 1 0 -0
v 0.25 0.875 -1
vt 39.3701 34.4488
vt 39.3701 39.3701
f 1/2/2 5/5/2 4/6/2

v 0.25 0.875 -0
vt 0 34.4488
f 5/5/2 1/2/2 6/7/2

vn 0 0 1
vt 9.84252 34.4488
f 3/2/3 6/8/3 1/4/3

v 0.125 0.75 -0
vt 4.92126 29.5276
f 3/2/3 7/9/3 6/8/3

v 0.125 0.665028 -0
vt 4.92126 26.1822
f 3/2/3 8/10/3 7/9/3

v 0 0.617578 -0
vt 0 24.3141
f 9/11/3 8/10/3 3/2/3

v 0.15625 0.665028 -0
vt 6.15157 26.1822
f 9/11/3 10/12/3 8/10/3

v 0.15625 0.617578 -0
vt 6.15157 24.3141
f 10/12/3 9/11/3 11/13/3

vn 0 -1 -0
v 0.15625 0.617578 -1
vt -6.15157 39.3701
vt -6.15157 0
f 9/3/4 12/14/4 11/15/4

v 0 0.617578 -1
f 12/14/4 9/3/4 13/2/4

vn -1 6.85768e-016 6.31193e-017
vt -39.3701 39.3701
vt -39.3701 24.3141
f 9/11/5 2/16/5 13/17/5

f 2/16/5 9/11/5 3/2/5

v 0.125 0.665028 -1
vt -4.92126 26.1822
vn 0 0 -1
f 14/18/6 13/11/6 2/2/6

vt -6.15157 24.3141
f 13/11/6 14/18/6 12/19/6

v 0.15625 0.665028 -1
vt -6.15157 26.1822
f 15/20/6 12/19/6 14/18/6

vt 0 26.1822
vt 39.3701 24.3141
vt 39.3701 26.1822
f 10/21/2 12/22/2 15/23/2

f 12/22/2 10/21/2 11/11/2

vt 4.92126 39.3701
vt 6.15157 0
vt 6.15157 39.3701
f 14/24/1 10/25/1 15/26/1

vt 4.92126 0
f 10/25/1 14/24/1 8/27/1

usemtl Dark_Metal
vt 0 29.5276
f 14/23/2 7/28/2 8/21/2

v 0.125 0.75 -1
vt 39.3701 29.5276
f 7/28/2 14/23/2 16/29/2

usemtl Metal
vt -4.92126 29.5276
f 14/18/6 2/2/6 16/30/6

vt -9.84252 34.4488
f 16/30/6 2/2/6 5/31/6

vt -9.84252 39.3701
f 5/31/6 2/2/6 4/32/6

vt 39.3701 31.3187
vn 0.707107 -0.707107 -0
vt 0 24.359
vt 39.3701 24.359
f 5/33/7 7/34/7 16/35/7

vt 0 31.3187
f 7/34/7 5/33/7 6/36/7

