# Alias OBJ Model File
# Exported from SketchUp, (c) 2000-2012 Trimble Navigation Limited
# File units = meters

mtllib spaceInterior_008.mtl

g Mesh1 Group1 Model

usemtl Metal
v 0.165 0.09375 -0
vt 6.49606 -7.24378e-016
vn 2.15524e-016 1 -1.96258e-016
v 0.12375 0.09375 -0.12375
vt 4.87205 4.87205
v 0.12375 0.09375 -0
vt 4.87205 -7.24378e-016
f 1/1/1 2/2/1 3/3/1

v 0.165 0.09375 -0.165
vt 6.49606 6.49606
f 4/4/1 2/2/1 1/1/1

v 2.16573e-015 0.09375 -0.165
vt 8.44696e-014 6.49606
f 5/5/1 2/2/1 4/4/1

v 1.44382e-015 0.09375 -0.12375
vt 5.60479e-014 4.87205
f 2/2/1 5/5/1 6/6/1

usemtl Dark_Metal
v 2.16573e-015 0.046875 -0.165
vt -6.49606 1.84547
vn -1 -8.20304e-015 6.34665e-016
vt -4.87205 3.69094
vt -6.49606 3.69094
f 7/7/2 6/8/2 5/9/2

v 2.88765e-015 0.09375 -0.0825
vt -3.24803 3.69094
f 7/7/2 8/10/2 6/8/2

v 3.60956e-015 0 -0.2475
vt -9.74409 -1.21645e-027
f 9/11/2 8/10/2 7/7/2

v 3.60956e-015 0 -0
vt 9.01913e-029 -1.16572e-027
f 10/12/2 8/10/2 9/11/2

v 0 0.140625 -0.04125
vt -1.62402 5.53642
f 10/12/2 11/13/2 8/10/2

v 3.60956e-015 0.140625 -0
vt 9.01913e-029 5.53642
f 11/13/2 10/12/2 12/14/2

vt 1.42109e-013 0
vn 0 0 1
v 0.165 0.046875 -0
vt 6.49606 1.84547
vt 1.42109e-013 5.53642
f 10/15/3 13/16/3 12/17/3

v 0.2475 0.046875 -0
vt 9.74409 1.84547
f 10/15/3 14/18/3 13/16/3

v 0.2475 0 -0
vt 9.74409 0
f 14/18/3 10/15/3 15/19/3

vt -1.42109e-013 0
vn 0 -1 -0
v 0.2475 0 -0.2475
vt -9.74409 9.74409
vt -9.74409 0
f 10/20/4 16/21/4 15/22/4

vt -1.42109e-013 9.74409
f 16/21/4 10/20/4 9/23/4

v 3.60956e-015 0.046875 -0.2475
vt -1.42109e-013 1.84547
vn 0 0 -1
f 17/24/5 16/22/5 9/20/5

v 0.2475 0.046875 -0.2475
vt -9.74409 1.84547
f 16/22/5 17/24/5 18/25/5

usemtl Metal
vt 1.42109e-013 9.74409
vn 0 1 -0
v 0.20625 0.046875 -0.20625
vt 8.12008 8.12008
vt 9.74409 9.74409
f 17/26/6 19/27/6 18/28/6

v 2.88765e-015 0.046875 -0.20625
vt 1.13687e-013 8.12008
f 19/27/6 17/26/6 20/29/6

usemtl Dark_Metal
vt -8.12008 1.84547
f 9/11/2 20/30/2 17/25/2

f 9/11/2 7/7/2 20/30/2

v 0.165 0.046875 -0.165
vt 8.52651e-014 6.49606
f 21/4/6 20/29/6 7/31/6

f 20/29/6 21/4/6 19/27/6

v 0.20625 0.046875 -0
vt 8.12008 0
f 19/27/6 21/4/6 22/32/6

vt 6.49606 0
f 22/32/6 21/4/6 13/33/6

vn 1 0 -0
vt 0 3.69094
vt 0 1.84547
f 21/16/7 1/34/7 13/35/7

vt 6.49606 3.69094
f 1/34/7 21/16/7 4/36/7

vt -8.52651e-014 3.69094
f 21/7/5 5/37/5 4/9/5

vt -8.52651e-014 1.84547
f 5/37/5 21/7/5 7/38/5

v 0.0825 0.09375 -0
vt 3.24803 3.69094
f 23/39/3 13/16/3 1/36/3

f 12/17/3 13/16/3 23/39/3

v 0.0825 0.140625 -0
vt 3.24803 5.53642
f 12/17/3 23/39/3 24/40/3

v 0.0825 0.09375 -0.0825
vn 1 0 -1.75009e-014
vt -5.68434e-014 5.53642
vt -5.68434e-014 3.69094
f 25/39/8 24/41/8 23/42/8

v 0.0825 0.140625 -0.0825
f 24/41/8 25/39/8 26/40/8

v 2.88765e-015 0.140625 -0.0825
vt -1.13687e-013 5.53642
vt -3.24803 5.53642
f 25/10/5 27/43/5 26/44/5

vt -1.13687e-013 3.69094
f 27/43/5 25/10/5 8/45/5

vn -2.57366e-016 1 2.57366e-016
vt 1.14637e-013 3.24803
vt 3.24803 3.24803
f 2/2/9 8/46/9 25/47/9

vt 5.77933e-014 4.87205
f 8/46/9 2/2/9 6/48/9

vt 3.24803 9.49923e-016
f 2/2/9 25/47/9 23/49/9

vt 4.87205 9.49923e-016
f 2/2/9 23/49/9 3/50/9

vt 4.87205 3.69094
f 3/51/3 23/39/3 1/36/3

f 8/10/2 11/13/2 27/44/2

usemtl Metal
v 0.04125 0.140625 -0.04125
vt 1.62402 1.62402
vt 1.13687e-013 3.24803
vt 0 1.62402
f 28/52/6 27/53/6 11/54/6

f 27/53/6 28/52/6 26/47/6

vt 3.24803 0
f 28/52/6 24/55/6 26/47/6

v 0.04125 0.140625 -0
vt 1.62402 0
f 24/55/6 28/52/6 29/56/6

usemtl Dark_Metal
f 28/52/6 12/15/6 29/56/6

f 12/15/6 28/52/6 11/54/6

vt 1.62402 5.53642
f 12/17/3 24/40/3 29/57/3

vt 8.12008 1.84547
f 13/16/3 14/18/3 22/58/3

usemtl Metal
f 14/19/6 19/27/6 22/32/6

f 18/28/6 19/27/6 14/19/6

usemtl Dark_Metal
f 14/35/7 16/19/7 18/18/7

vt 0 0
f 16/19/7 14/35/7 15/59/7

