# Alias OBJ Model File
# Exported from SketchUp, (c) 2000-2012 Trimble Navigation Limited
# File units = meters

mtllib spaceInterior_015.mtl

g Mesh1 Group1 Model

usemtl Red_Metal
v 0.0467654 0.58 -0.127
vt -5 17.9346
vn -0.730336 0.683088 5.25542e-016
v 0 0.53 -0.3
vt -11.811 15.2393
v 0 0.53 -0.1
vt -3.93701 15.2393
f 1/1/1 2/2/1 3/3/1

v 0.0467654 0.58 -0.273
vt -10.748 17.9346
f 2/2/1 1/1/1 4/4/1

vt 1.84116 5
vn 0 1 -0
v 0.173205 0.58 -0.346
vt 6.8191 13.622
vt 1.84116 10.748
f 1/5/2 5/6/2 4/7/2

v 0.173205 0.58 -0.054
vt 6.8191 2.12598
f 5/6/2 1/5/2 6/8/2

vt -0.905512 20.2637
vn -0.365168 0.683088 0.632489
v 0.173205 0.53 -0
vt 5.90551 17.5683
vt 4.84252 20.2637
f 1/9/3 7/10/3 6/11/3

vt -1.9685 17.5683
f 7/10/3 1/9/3 3/12/3

v 0 0.05 -0.1
vt -1.9685 1.9685
vn -0.5 0 0.866025
vt 5.90551 20.8661
vt -1.9685 20.8661
f 8/13/4 7/14/4 3/15/4

v 0.173205 0.05 -0
vt 5.90551 1.9685
f 7/14/4 8/13/4 9/16/4

v 0.0467654 0 -0.127
vt -0.905512 -3.5867
vn -0.365168 -0.683088 0.632489
vt 5.90551 -0.891355
vt -1.9685 -0.891355
f 10/17/5 9/18/5 8/19/5

v 0.173205 0 -0.054
vt 4.84252 -3.5867
f 9/18/5 10/17/5 11/20/5

vt -1.84116 5
vn 0 -1 -0
v 0.173205 0 -0.346
vt -6.8191 13.622
vt -6.8191 2.12598
f 10/21/6 12/22/6 11/23/6

v 0.0467654 0 -0.273
vt -1.84116 10.748
f 12/22/6 10/21/6 13/24/6

vt -5 -1.25767
vn -0.730336 -0.683088 3.21181e-018
v 0 0.05 -0.3
vt -11.811 1.43767
vt -10.748 -1.25767
f 10/25/7 14/26/7 13/27/7

vt -3.93701 1.43767
f 14/26/7 10/25/7 8/28/7

vt -3.93701 1.9685
vn -1 0 -0
vt -11.811 20.8661
vt -11.811 1.9685
f 8/29/8 2/30/8 14/31/8

vt -3.93701 20.8661
f 2/30/8 8/29/8 3/32/8

vt -5.90551 20.8661
vn -0.5 0 -0.866025
v 0.173205 0.05 -0.4
vt -13.7795 1.9685
vt -5.90551 1.9685
f 2/33/9 15/34/9 14/35/9

v 0.173205 0.53 -0.4
vt -13.7795 20.8661
f 15/34/9 2/33/9 16/36/9

vt -6.9685 10.9476
vn -0.365168 0.683088 -0.632489
vt -13.7795 8.25222
vt -5.90551 8.25222
f 4/37/10 16/38/10 2/39/10

vt -12.7165 10.9476
f 16/38/10 4/37/10 5/40/10

v 0.299645 0.58 -0.273
vt -4.84252 6.28951
vn 0.365168 0.683088 -0.632489
vt 1.9685 3.59417
vt 0.905512 6.28951
f 17/41/11 16/42/11 5/43/11

v 0.34641 0.53 -0.3
vt -5.90551 3.59417
f 16/42/11 17/41/11 18/44/11

v 0.299645 0.58 -0.127
vt 5 8.61854
vn 0.730336 0.683088 -0
vt 11.811 5.9232
vt 10.748 8.61854
f 19/45/12 18/46/12 17/47/12

v 0.34641 0.53 -0.1
vt 3.93701 5.9232
f 18/46/12 19/45/12 20/48/12

vt 6.9685 15.6056
vn 0.365168 0.683088 0.632489
vt 13.7795 12.9103
vt 12.7165 15.6056
f 6/49/13 20/50/13 19/51/13

vt 5.90551 12.9103
f 20/50/13 6/49/13 7/52/13

vn 0.5 0 0.866025
vt 13.7795 20.8661
f 9/16/14 20/53/14 7/14/14

v 0.34641 0.05 -0.1
vt 13.7795 1.9685
f 20/53/14 9/16/14 21/54/14

vt 5.90551 3.76669
vn 0.365168 -0.683088 0.632489
v 0.299645 0 -0.127
vt 12.7165 1.07135
vt 13.7795 3.76669
f 9/55/15 22/56/15 21/57/15

vt 6.9685 1.07135
f 22/56/15 9/55/15 11/58/15

v 0.299645 0 -0.273
vt -11.797 10.748
vt -11.797 5
f 11/23/6 23/59/6 22/60/6

f 11/23/6 12/22/6 23/59/6

vt 0.905512 10.3874
vn 0.365168 -0.683088 -0.632489
v 0.34641 0.05 -0.3
vt -5.90551 13.0828
vt -4.84252 10.3874
f 12/61/16 24/62/16 23/63/16

vt 1.9685 13.0828
f 24/62/16 12/61/16 15/64/16

vt -6.9685 5.7294
vn -0.365168 -0.683088 -0.632489
vt -13.7795 8.42474
vt -12.7165 5.7294
f 13/65/17 15/66/17 12/67/17

vt -5.90551 8.42474
f 15/66/17 13/65/17 14/68/17

vt 1.9685 20.8661
vn 0.5 0 -0.866025
vt 1.9685 1.9685
f 16/69/18 24/35/18 15/70/18

f 24/35/18 16/69/18 18/33/18

vt 3.93701 20.8661
vn 1 0 -0
vt 11.811 1.9685
vt 11.811 20.8661
f 20/71/19 24/72/19 18/73/19

vt 3.93701 1.9685
f 24/72/19 20/71/19 21/74/19

vt 5 8.05842
vn 0.730336 -0.683088 -2.51529e-015
vt 11.811 10.7538
vt 3.93701 10.7538
f 22/75/20 24/76/20 21/77/20

vt 10.748 8.05842
f 24/76/20 22/75/20 23/78/20

vt 11.797 5
f 5/6/2 6/8/2 19/79/2

vt 11.797 10.748
f 5/6/2 19/79/2 17/80/2

