# Alias OBJ Model File
# Exported from SketchUp, (c) 2000-2012 Trimble Navigation Limited
# File units = meters

mtllib spaceInterior_013.mtl

g Mesh1 Group1 Model

usemtl Red_Metal
v 0.92875 0.174689 -0.0475
vt 36.565 6.87753
vn -6.16202e-013 0 1
v 2.88765e-014 0.0291149 -0.0475
vt -1.5477e-014 1.14626
v 0.92875 0.0291149 -0.0475
vt 36.565 1.14626
f 1/1/1 2/2/1 3/3/1

v 2.88765e-014 0.174689 -0.0475
vt -1.5477e-014 6.87753
f 2/2/1 1/1/1 4/4/1

usemtl Metal
v 0.92875 0.203804 -0
vt 36.565 4.19313
vn -3.22019e-013 -0.852585 0.522588
vt -1.5477e-014 1.99971
vt 36.565 1.99971
f 5/5/2 4/6/2 1/7/2

v 0 0.203804 -5.73559e-013
vt -1.39141e-023 4.19313
f 4/6/2 5/5/2 6/8/2

v 0.92875 0.232919 -0
vt 36.565 9.17004
vt -1.39145e-023 8.02379
vt 36.565 8.02379
f 7/9/1 6/10/1 5/11/1

v 0 0.232919 -5.73559e-013
vt -1.39145e-023 9.17004
f 6/10/1 7/9/1 8/12/1

vt 36.565 0
vn 0 1 -0
v 5.84748e-014 0.232919 -0.095
vt 2.30216e-012 3.74016
vt 0 2.2581e-011
f 7/13/3 9/14/3 8/15/3

v 0.92875 0.232919 -0.095
vt 36.565 3.74016
f 9/14/3 7/13/3 10/16/3

v 1.02375 0.232919 -0.095
vt 40.3051 3.74016
f 10/16/3 7/13/3 11/17/3

vt 25.8553 8.02379
vn 0.707107 0 0.707107
vt 31.1447 9.17004
vt 25.8553 9.17004
f 5/18/4 11/19/4 7/20/4

v 1.02375 0.203804 -0.095
vt 31.1447 8.02379
f 11/19/4 5/18/4 12/21/4

vt 27.1777 23.0426
vn 0.463157 -0.755626 0.463157
vt 31.1447 24.7926
vt 25.8553 24.7926
f 1/22/5 12/23/5 5/24/5

v 0.97625 0.174689 -0.095
vt 29.8224 23.0426
f 12/23/5 1/22/5 13/25/5

usemtl Red_Metal
vt 27.1777 1.14626
vn 0.707107 6.79271e-032 0.707107
vt 29.8224 6.87753
vt 27.1777 6.87753
f 3/26/6 13/27/6 1/28/6

v 0.97625 0.0291149 -0.095
vt 29.8224 1.14626
f 13/27/6 3/26/6 14/29/6

usemtl Metal
vt 36.565 1.87008
v 1 0.0291149 -0.095
vt 39.3701 3.74016
vt 38.435 3.74016
f 3/30/3 15/31/3 14/32/3

v 0.92875 0.0291149 -0.02375
vt 36.565 0.935039
f 15/31/3 3/30/3 16/33/3

vt 1.13687e-012 1.87008
f 2/34/3 16/33/3 3/30/3

v 1.51601e-014 0.0291149 -0.02375
vt 5.96856e-013 0.935039
f 16/33/3 2/34/3 17/35/3

vt -1.87008 1.14626
vn -1 0 -6.16101e-013
v 1.51601e-014 0 -0.02375
vt -0.935039 0
vt -0.935039 1.14626
f 2/36/7 18/37/7 17/38/7

v 5.84748e-014 0 -0.095
vt -3.74016 0
f 18/37/7 2/36/7 19/39/7

vt -3.74016 9.17004
f 19/39/7 2/36/7 9/40/7

vt -1.87008 6.87753
f 4/41/7 9/40/7 2/36/7

vt -2.2581e-011 8.02379
f 6/42/7 9/40/7 4/41/7

vt -2.2581e-011 9.17004
f 9/40/7 6/42/7 8/43/7

vt -1.47273e-015 9.17004
vn 6.15131e-013 0 -1
v 0.92875 0 -0.095
vt -36.565 0
vt -1.47273e-015 0
f 9/44/8 20/45/8 19/46/8

vt -36.565 9.17004
f 20/45/8 9/44/8 10/47/8

v 0.92875 0.232919 -1.02375
vt -40.3051 9.17004
vn -1 0 -6.30385e-013
f 21/48/9 20/39/9 10/40/9

v 0.92875 0 -1.02375
vt -40.3051 0
f 20/39/9 21/48/9 22/49/9

v 0.97625 0.0291149 -1.02375
vt -38.435 1.14626
vn 6.30135e-013 0 -1
f 23/50/10 22/45/10 21/47/10

v 1 0 -1.02375
vt -39.3701 0
f 22/45/10 23/50/10 24/51/10

v 1 0.0291149 -1.02375
vt -39.3701 1.14626
f 25/52/10 24/51/10 23/50/10

vt 3.74016 1.14626
vn 1 0 6.30135e-013
vt 40.3051 0
vt 40.3051 1.14626
f 15/53/11 24/54/11 25/55/11

v 1 0 -0.095
vt 3.74016 0
f 24/54/11 15/53/11 26/56/11

vt 30.4835 1.14626
v 0.92875 0 -0.02375
vt 26.5165 0
vt 30.4835 0
f 15/57/4 27/58/4 26/59/4

vt 26.5165 1.14626
f 27/58/4 15/57/4 16/60/4

vt 2.06832e-014 0
f 16/3/1 18/61/1 27/13/1

vt 2.06832e-014 1.14626
f 18/61/1 16/3/1 17/62/1

vt -2.30216e-012 3.74016
vn 0 -1 -0
vt -36.565 0.935039
vt -5.96856e-013 0.935039
f 19/63/12 27/64/12 18/65/12

vt -36.565 3.74016
f 27/64/12 19/63/12 20/66/12

vt -39.3701 3.74016
f 27/64/12 20/66/12 26/67/12

vt -36.565 40.3051
f 26/67/12 20/66/12 22/68/12

vt -39.3701 40.3051
f 26/67/12 22/68/12 24/69/12

vt 38.435 40.3051
vt 39.3701 40.3051
f 23/70/3 15/31/3 25/71/3

f 15/31/3 23/70/3 14/32/3

usemtl Red_Metal
vt 3.74016 6.87753
f 23/55/11 13/72/11 14/53/11

v 0.97625 0.174689 -1.02375
vt 40.3051 6.87753
f 13/72/11 23/55/11 28/73/11

usemtl Metal
vt -38.435 6.87753
f 23/50/10 21/47/10 28/74/10

v 1.02375 0.203804 -1.02375
vt -40.3051 8.02379
f 28/74/10 21/47/10 29/75/10

v 1.02375 0.232919 -1.02375
f 29/75/10 21/47/10 30/48/10

vt 36.565 40.3051
vt 40.3051 40.3051
f 21/76/3 11/17/3 30/77/3

f 10/16/3 11/17/3 21/76/3

vt 3.74016 9.17004
vt 40.3051 8.02379
vt 40.3051 9.17004
f 11/78/11 29/79/11 30/80/11

vt 3.74016 8.02379
f 29/79/11 11/78/11 12/81/11

vt 3.74016 38.5567
vn 0.522588 -0.852585 3.29301e-013
vt 40.3051 36.3633
vt 40.3051 38.5567
f 12/82/13 28/83/13 29/84/13

vt 3.74016 36.3633
f 28/83/13 12/82/13 13/85/13

