# Alias OBJ Model File
# Exported from SketchUp, (c) 2000-2012 Trimble Navigation Limited
# File units = meters

mtllib spaceInterior_003.mtl

g Mesh1 Group1 Model

usemtl Metal
v 0.0372551 0.875 -0
vt 1.46674 0
vn 0 1 -0
v 0 0.875 -0.0645278
vt 0 2.54046
v 0 0.875 -0.0215093
vt 0 0.846821
f 1/1/1 2/2/1 3/3/1

v 0.0372551 0.875 -0.0860371
vt 1.46674 3.38729
f 2/2/1 1/1/1 4/4/1

v 0.0745103 0.875 -0.0215093
vt 2.93348 0.846821
f 4/4/1 1/1/1 5/5/1

v 0.0372551 0 -0
vt 1.27023 0
vn 0.5 0 0.866025
vt 2.96387 34.4488
vt 1.27023 34.4488
f 6/6/2 5/7/2 1/8/2

v 0.0745103 0 -0.0215093
vt 2.96387 0
f 5/7/2 6/6/2 7/9/2

vt -1.46674 0
vn 0 -1 -0
v 0.0745103 0 -0.0645278
vt -2.93348 2.54046
vt -2.93348 0.846821
f 6/10/3 8/11/3 7/12/3

v 0.0372551 0 -0.0860371
vt -1.46674 3.38729
f 6/10/3 9/13/3 8/11/3

v 0 0 -0.0215093
f 10/3/3 9/13/3 6/10/3

v 0 0 -0.0645278
f 9/13/3 10/3/3 11/2/3

vt -0.846821 0
vn -1 0 -0
vt -2.54046 34.4488
vt -2.54046 0
f 10/14/4 2/15/4 11/16/4

vt -0.846821 34.4488
f 2/15/4 10/14/4 3/17/4

vt -0.423411 0
vn -0.5 0 0.866025
vt -0.423411 34.4488
f 10/18/5 1/8/5 3/19/5

f 1/8/5 10/18/5 6/6/5

vt -1.27023 34.4488
vn -0.5 0 -0.866025
vt -2.96387 0
vt -1.27023 0
f 2/20/6 9/21/6 11/22/6

vt -2.96387 34.4488
f 9/21/6 2/20/6 4/23/6

vt 0.423411 34.4488
vn 0.5 0 -0.866025
vt 0.423411 0
f 4/24/7 8/22/7 9/25/7

v 0.0745103 0.875 -0.0645278
f 8/22/7 4/24/7 12/20/7

vt 2.93348 2.54046
f 4/4/1 5/5/1 12/26/1

vt 0.846821 34.4488
vn 1 0 -0
vt 2.54046 0
vt 2.54046 34.4488
f 5/27/8 8/28/8 12/29/8

vt 0.846821 0
f 8/28/8 5/27/8 7/30/8

