# Alias OBJ Model File
# Exported from SketchUp, (c) 2000-2012 Trimble Navigation Limited
# File units = meters

mtllib spaceInterior_051.mtl

g Mesh1 Group1 Model

usemtl Dark_Metal
v 1 0 -1
vt -39.3701 39.3701
vn -2.7952e-030 -1 2.70717e-017
v 0 2.25597e-017 -0
vt 2.48264e-045 -2.40445e-032
v 0 2.25597e-017 -1
vt 2.48264e-045 39.3701
f 1/1/1 2/2/1 3/3/1

v 0.666667 6.76792e-017 -0
vt -26.2467 -7.21334e-032
f 2/2/1 1/1/1 4/4/1

v 1 4.51195e-017 -0.333333
vt -39.3701 13.1234
f 4/4/1 1/1/1 5/5/1

usemtl Metal
vt 39.3701 -3.15156e-029
vn 1 8.00496e-031 -2.16573e-015
v 1 0.03125 -0.333333
vt 13.1234 1.23031
vt 13.1234 1.77636e-015
f 1/6/2 6/7/2 5/8/2

v 1 0.03125 -1
vt 39.3701 1.23031
f 6/7/2 1/6/2 7/9/2

usemtl Dark_Metal
vt -5.07203e-012 5.09601e-011
vn -1.28829e-013 -1.29436e-012 -1
vt -39.3701 1.23031
vt -39.3701 5.09592e-011
f 3/10/3 7/11/3 1/12/3

v 0.75 0.03125 -1
vt -29.5276 1.23031
f 7/11/3 3/10/3 8/13/3

v 0 0.125 -1
vt -5.07203e-012 4.92126
f 9/14/3 8/13/3 3/10/3

v 0.5 0.0625 -1
vt -19.685 2.46063
f 8/13/3 9/14/3 10/15/3

v 0.25 0.09375 -1
vt -9.84252 3.69094
f 10/15/3 9/14/3 11/16/3

v 0.25 0.125 -1
vt -9.84252 4.92126
f 11/16/3 9/14/3 12/17/3

v 0.1875 0.125 -1
vt -7.38189 4.92126
f 12/17/3 9/14/3 13/18/3

v 7.21911e-016 0.125 -0.8125
vt 2.84048e-014 31.9882
vn 3.43767e-018 1 -1.40945e-016
vt 7.38189 39.3701
vt -1.69177e-017 39.3701
f 14/19/4 13/20/4 9/21/4

v 0.125 0.125 -0.8125
vt 4.92126 31.9882
f 13/20/4 14/19/4 15/22/4

usemtl Metal
vt 2.79618e-014 31.9882
vn 9.34547e-017 1 -2.78264e-017
v 0.166667 0.125 -0.75
vt 6.56168 29.5276
f 14/23/5 16/24/5 15/22/5

v 7.21911e-016 0.125 -0.75
vt 2.79618e-014 29.5276
f 16/24/5 14/23/5 17/25/5

usemtl Dark_Metal
vt -31.9882 4.92126
vn -1 4.4178e-015 1.19078e-017
v 7.21911e-016 0.09375 -0.75
vt -29.5276 3.69094
vt -29.5276 4.92126
f 14/26/6 18/27/6 17/28/6

vt -39.3701 8.88178e-016
f 3/29/6 18/27/6 14/26/6

v 7.21911e-016 0.09375 -0.5625
vt -22.1457 3.69094
f 3/29/6 19/30/6 18/27/6

v 0 0.0625 -0.5
f 3/29/6 20/15/6 19/30/6

v 7.21911e-016 0.0625 -0.3125
vt -12.3031 2.46063
f 3/29/6 21/31/6 20/15/6

v 0 0.03125 -0.25
vt -9.84252 1.23031
f 3/29/6 22/32/6 21/31/6

v 0 0.03125 -0.0625
vt -2.46063 1.23031
f 3/29/6 23/33/6 22/32/6

vt 0 8.88178e-016
f 2/34/6 23/33/6 3/29/6

v 0 0.03125 -0
vt 0 1.23031
f 23/33/6 2/34/6 24/35/6

usemtl Metal
vt 26.2467 2.66454e-015
vn 0 0 1
f 4/36/7 24/35/7 2/34/7

v 0.666667 0.03125 -0
vt 26.2467 1.23031
f 24/35/7 4/36/7 25/37/7

vt 18.5592 1.03649e-014
vn 0.707107 -4.14909e-016 0.707107
vt 37.1185 1.23031
vt 18.5592 1.23031
f 4/38/8 6/39/8 25/40/8

vt 37.1185 9.47675e-015
f 6/39/8 4/38/8 5/41/8

v 0.9375 0.03125 -0.375
vt 36.9094 14.7638
vn 2.88569e-018 1 -2.50302e-017
vt 26.2467 -3.0795e-017
vt 39.3701 13.1234
f 26/42/9 25/43/9 6/44/9

v 0.625 0.03125 -0.0625
vt 24.6063 2.46063
f 27/45/9 25/43/9 26/42/9

vt -3.55031e-018 2.46063
f 23/46/9 25/43/9 27/45/9

vt -3.55031e-018 -3.0795e-017
f 25/43/9 23/46/9 24/47/9

usemtl Dark_Metal
vn -1.36189e-017 1 -4.53126e-017
vt 1.67556e-017 9.84252
vt 1.67556e-017 2.46063
f 27/45/10 22/48/10 23/49/10

v 0.5 0.03125 -0.25
vt 19.685 9.84252
f 22/48/10 27/45/10 28/50/10

v 0.75 0.03125 -0.5
vt 29.5276 19.685
f 28/50/10 27/45/10 29/51/10

f 29/51/10 27/45/10 26/42/10

vt 29.5276 39.3701
f 29/51/10 26/42/10 8/52/10

v 0.9375 0.03125 -1
vt 36.9094 39.3701
f 8/52/10 26/42/10 30/53/10

usemtl Metal
f 26/42/9 6/44/9 30/53/9

vt 39.3701 39.3701
f 30/53/9 6/44/9 7/54/9

usemtl Dark_Metal
vt -36.9094 1.23031
f 7/11/3 8/13/3 30/55/3

usemtl Metal
vn 1 0 -0
v 0.75 0.0625 -0.5
vt 19.685 2.46063
vt 19.685 1.23031
f 8/9/11 31/56/11 29/57/11

v 0.75 0.0625 -1
vt 39.3701 2.46063
f 31/56/11 8/9/11 32/58/11

usemtl Dark_Metal
vt -29.5276 2.46063
f 8/13/3 10/15/3 32/59/3

v 0.6875 0.0625 -1
vt -27.0669 2.46063
f 32/59/3 10/15/3 33/60/3

vt 19.685 39.3701
vn 3.48831e-017 1 -9.6022e-018
v 0.6875 0.0625 -0.541667
vt 27.0669 21.3255
vt 27.0669 39.3701
f 10/61/12 34/62/12 33/63/12

v 0.5 0.0625 -0.666667
vt 19.685 26.2467
f 35/64/12 34/62/12 10/61/12

v 0.458333 0.0625 -0.3125
vt 18.0446 12.3031
f 35/64/12 36/65/12 34/62/12

v 0.333333 0.0625 -0.5
vt 13.1234 19.685
f 37/66/12 36/65/12 35/64/12

vt 2.83359e-014 12.3031
f 37/66/12 21/67/12 36/65/12

vt -8.58345e-017 19.685
f 21/67/12 37/66/12 20/68/12

usemtl Metal
v 0.333333 0.09375 -0.5
vt 13.1234 3.69094
vn 0 2.87487e-017 1
vt 0 2.46063
vt 13.1234 2.46063
f 38/69/13 20/70/13 37/71/13

v 0 0.09375 -0.5
vt 0 3.69094
f 20/70/13 38/69/13 39/72/13

vn 3.32233e-017 1 -2.4274e-017
vt 2.82991e-014 22.1457
vt -1.22626e-016 19.685
f 38/66/14 19/73/14 39/74/14

v 0.291667 0.09375 -0.5625
vt 11.4829 22.1457
f 19/73/14 38/66/14 40/75/14

v 0.4375 0.09375 -0.708333
vt 17.2244 27.8871
f 40/75/14 38/66/14 41/76/14

v 0.5 0.09375 -0.666667
f 41/76/14 38/66/14 42/64/14

vt 23.199 2.46063
vn 0.707107 3.21258e-029 0.707107
vt 32.4787 3.69094
vt 23.199 3.69094
f 37/77/15 42/78/15 38/79/15

vt 32.4787 2.46063
f 42/78/15 37/77/15 35/80/15

vn 1 -2.87487e-017 -0
vt 26.2467 3.69094
vt 26.2467 2.46063
f 10/58/16 42/81/16 35/82/16

v 0.5 0.09375 -1
vt 39.3701 3.69094
f 42/81/16 10/58/16 43/83/16

usemtl Dark_Metal
vt -19.685 3.69094
f 10/15/3 11/16/3 43/84/3

v 0.4375 0.09375 -1
vt -17.2244 3.69094
f 44/85/3 43/84/3 11/16/3

usemtl Metal
vt 17.2244 39.3701
f 44/86/14 42/64/14 43/61/14

f 41/76/14 42/64/14 44/86/14

usemtl Dark_Metal
vn 3.66509e-017 1 -3.66509e-017
f 44/86/17 40/75/17 41/76/17

vt 9.84252 39.3701
f 11/87/17 40/75/17 44/86/17

v 0.25 0.09375 -0.833333
vt 9.84252 32.8084
f 45/88/17 40/75/17 11/87/17

v 0.166667 0.09375 -0.75
f 46/24/17 40/75/17 45/88/17

vt 2.82864e-014 29.5276
f 18/89/17 40/75/17 46/24/17

vt 2.82864e-014 22.1457
f 40/75/17 18/89/17 19/90/17

usemtl Metal
vt 6.56168 4.92126
vn 0 6.06406e-017 1
vt 2.84217e-014 3.69094
vt 6.56168 3.69094
f 16/91/18 18/92/18 46/93/18

vt 2.84217e-014 4.92126
f 18/92/18 16/91/18 17/94/18

vt 25.5189 3.69094
vn 0.707107 2.55583e-028 0.707107
v 0.25 0.125 -0.833333
vt 30.1588 4.92126
vt 25.5189 4.92126
f 46/95/19 47/96/19 16/97/19

vt 30.1588 3.69094
f 47/96/19 46/95/19 45/98/19

vn 1 -6.06406e-017 -0
vt 32.8084 4.92126
vt 32.8084 3.69094
f 11/83/20 47/99/20 45/100/20

vt 39.3701 4.92126
f 47/99/20 11/83/20 12/101/20

f 13/20/5 47/88/5 12/87/5

v 0.1875 0.125 -0.875
vt 7.38189 34.4488
f 48/102/5 47/88/5 13/20/5

f 48/102/5 16/24/5 47/88/5

f 15/22/5 16/24/5 48/102/5

usemtl Dark_Metal
f 13/20/4 15/22/4 48/102/4

f 19/30/6 20/15/6 39/84/6

usemtl Metal
vt 2.83559e-014 12.3031
vn 2.673e-017 1 -1.08638e-017
v 0.5 0.0625 -0.25
f 21/103/21 49/50/21 36/65/21

v 0 0.0625 -0.25
vt -6.57727e-017 9.84252
f 49/50/21 21/103/21 50/104/21

usemtl Dark_Metal
vt -9.84252 2.46063
f 21/31/6 22/32/6 50/105/6

usemtl Metal
f 22/35/7 49/56/7 50/70/7

f 49/56/7 22/35/7 28/57/7

vt 20.8791 1.23031
vn 0.707107 -7.35626e-027 0.707107
vt 34.7986 2.46063
vt 20.8791 2.46063
f 28/106/22 31/107/22 49/108/22

vt 34.7986 1.23031
f 31/107/22 28/106/22 29/109/22

f 34/62/21 49/50/21 31/51/21

f 36/65/21 49/50/21 34/62/21

f 34/62/21 31/51/21 33/63/21

f 33/63/21 31/51/21 32/52/21

usemtl Dark_Metal
vt -39.3701 4.92126
f 3/29/6 14/26/6 9/110/6

