# Alias OBJ Model File
# Exported from SketchUp, (c) 2000-2012 Trimble Navigation Limited
# File units = meters

mtllib spaceInterior_007.mtl

g Mesh1 Group1 Model

usemtl Metal
v 0.4375 0.0625 -1
vt 39.3701 2.46063
vn 1 -3.58068e-013 1.31024e-014
v 0.4375 0.125 -5.77529e-015
vt 4.53055e-013 4.92126
v 0.4375 0.0625 -5.77529e-015
vt 4.53055e-013 2.46063
f 1/1/1 2/2/1 3/3/1

v 0.4375 0.125 -1
vt 39.3701 4.92126
f 2/2/1 1/1/1 4/4/1

vt -17.2244 2.46063
vn 4.16416e-015 4.29789e-016 -1
v 5.34214e-014 0.125 -1
vt -1.93926e-012 4.92126
vt -17.2244 4.92126
f 1/5/2 5/6/2 4/7/2

v 0 8.08541e-014 -1
vt 1.63943e-013 3.16631e-012
f 1/5/2 6/8/2 5/6/2

v 0.375 0 -1
vt -14.7638 -1.69208e-014
f 6/8/2 1/5/2 7/9/2

vt 4.40571e-013 13.9194
vn 0.707107 -0.707107 8.75228e-015
vt 39.3701 10.4396
vt 39.3701 13.9194
f 3/10/3 7/11/3 1/12/3

v 0.375 0 -5.77529e-015
vt 4.10114e-013 10.4396
f 7/11/3 3/10/3 8/13/3

vt 17.2244 2.46063
vn 1.34786e-014 -3.15194e-015 1
v 3.60956e-014 8.08541e-014 -0
vt 1.42109e-012 3.18323e-012
vt 14.7638 -8.94481e-029
f 3/14/4 9/15/4 8/16/4

v 3.60956e-014 0.125 -0
vt 1.42109e-012 4.92126
f 9/15/4 3/14/4 10/17/4

vt 17.2244 4.92126
f 10/17/4 3/14/4 2/18/4

vt 17.2244 2.27374e-013
vn 2.13686e-013 1 3.72538e-027
vt 1.0516e-012 39.3701
vt 3.69482e-013 1.83335e-026
f 2/19/5 5/20/5 10/21/5

vt 17.2244 39.3701
f 5/20/5 2/19/5 4/22/5

vt -39.3701 4.92126
vn -1 2.13686e-013 9.27682e-015
vt 1.31832e-026 3.18323e-012
vt 1.31832e-026 4.92126
f 5/23/6 9/24/6 10/25/6

vt -39.3701 3.18323e-012
f 9/24/6 5/23/6 6/26/6

vt -14.7638 39.3701
vn -2.15611e-013 -1 2.16106e-027
vt -1.42109e-012 -6.87914e-039
vt 6.86339e-025 39.3701
f 7/27/7 9/28/7 6/29/7

vt -14.7638 2.27374e-013
f 9/28/7 7/27/7 8/30/7

