# Alias OBJ Model File
# Exported from SketchUp, (c) 2000-2012 Trimble Navigation Limited
# File units = meters

mtllib spaceInterior_068.mtl

g Mesh1 Group1 Model

usemtl Dark_Metal
v 1 0 -1
vt -39.3701 39.3701
vn 0 -1 -0
v 0 0 -0
vt 0 0
v 0 0 -1
vt 0 39.3701
f 1/1/1 2/2/1 3/3/1

v 1 0 -0
vt -39.3701 0
f 2/2/1 1/1/1 4/4/1

v 1 0.0425 -0.162756
vt 6.40773 1.67323
vn 1 1.17081e-014 1.24759e-016
vt 4.91178e-015 -4.6095e-013
vt 39.3701 -4.6095e-013
f 5/5/2 4/6/2 1/7/2

v 1 0.0625 -0.125285
vt 4.93247 2.46063
f 6/8/2 4/6/2 5/5/2

v 1 0.0625 2.29207e-013
vt -9.01898e-012 2.46063
f 4/6/2 6/8/2 7/9/2

vt 39.3701 4.93247
vn 0 1 -0
v 0.874715 0.0625 1.97443e-013
vt 34.4376 -7.77334e-012
vt 39.3701 -9.02389e-012
f 6/10/3 8/11/3 7/12/3

vt -32.3698 19.6112
vn -0.426003 0.798149 -0.426003
vt -24.3511 20.9182
vt -31.3266 20.9182
f 5/13/4 8/14/4 6/15/4

v 0.837244 0.0425 1.91667e-013
vt -23.3079 19.6112
f 8/14/4 5/13/4 9/16/4

usemtl Metal
v 1 0.0425 -0.837244
vt 39.3701 32.9623
vt 32.9623 -7.54596e-012
vt 39.3701 6.40773
f 10/17/3 9/18/3 5/19/3

v 0.162756 0.0425 -0.837244
vt 6.40773 32.9623
f 11/20/3 9/18/3 10/17/3

v 0.162756 0.0425 3.42908e-014
vt 6.40773 -1.35003e-012
f 9/18/3 11/20/3 12/21/3

usemtl Dark_Metal
v 0.125285 0.0625 -0.837244
vt 32.9623 -3.19282
vn 0.470867 0.882204 7.69182e-014
vt -3.03299e-013 -4.86506
vt 32.9623 -4.86506
f 13/22/5 12/23/5 11/24/5

v 0.125285 0.0625 2.85155e-014
vt -3.16915e-013 -3.19282
f 12/23/5 13/22/5 14/25/5

v 0 0.0625 -1
vt -3.75093e-014 39.3701
vn 1.52438e-014 1 2.24816e-015
vt 4.93247 -1.11713e-012
vt 4.93247 32.9623
f 15/26/6 14/27/6 13/28/6

v 0 0.0625 -0
vt -3.75093e-014 5.53189e-015
f 14/27/6 15/26/6 16/29/6

vt -39.3701 2.46063
vn -1 8.72919e-013 -4.46995e-014
vt 0 2.46063
f 15/30/7 2/2/7 16/31/7

vt -39.3701 -1.53618e-024
f 2/2/7 15/30/7 3/32/7

vt 4.25086e-014 2.46063
vn 1.07972e-015 -3.24088e-014 -1
vt -39.3701 1.27594e-012
vt 4.25086e-014 1.27594e-012
f 15/33/8 1/34/8 3/35/8

v 1 0.0625 -1
f 1/34/8 15/33/8 17/30/8

v 0.162756 0.0625 -0.874715
vt 6.40773 34.4376
vt 39.3701 39.3701
f 15/26/6 18/36/6 17/37/6

f 15/26/6 13/28/6 18/36/6

vt 27.8388 15.9949
vn 0.426003 0.798149 0.426003
vt 28.882 17.3018
vt 26.7957 17.3018
f 11/38/9 18/39/9 13/40/9

vt 6.40773 29.8674
vn -3.72994e-014 0.882204 0.470867
v 1 0.0625 -0.874715
vt 39.3701 31.5396
vt 6.40773 31.5396
f 11/41/10 19/42/10 18/43/10

vt 39.3701 29.8674
f 19/42/10 11/41/10 10/44/10

vt 32.9623 1.67323
vt 34.4376 2.46063
f 10/45/2 1/7/2 19/46/2

f 5/5/2 1/7/2 10/45/2

vt 39.3701 2.46063
f 19/46/2 1/7/2 17/47/2

vt 39.3701 34.4376
f 17/37/6 18/36/6 19/48/6

vn -1.55633e-013 -1.8283e-012 1
f 2/2/11 12/5/11 16/31/11

f 12/5/11 2/2/11 9/45/11

vt 39.3701 -1.12025e-023
f 4/49/11 9/45/11 2/2/11

f 9/45/11 4/49/11 7/47/11

f 9/45/11 7/47/11 8/46/11

f 16/31/11 12/5/11 14/8/11

