# Alias OBJ Model File
# Exported from SketchUp, (c) 2000-2012 Trimble Navigation Limited
# File units = meters

mtllib spaceInterior_065.mtl

g Mesh1 Group1 Model

usemtl Metal
v 1 1 -6.29507e-013
vt 39.3701 39.3701
vn 1.49113e-013 -1.43539e-013 1
v 0.89 0 -6.29507e-013
vt 35.0394 -2.80747e-024
v 1 0 -6.29507e-013
vt 39.3701 -2.71478e-024
f 1/1/1 2/2/1 3/3/1

v 0.89 0.89 -5.16889e-013
vt 35.0394 35.0394
f 2/2/1 1/1/1 4/4/1

v 0.11 0.89 -0
vt 4.33071 35.0394
f 4/4/1 1/1/1 5/5/1

v 0 1 -6.29507e-013
vt 3.69558e-024 39.3701
f 6/6/1 5/5/1 1/1/1

v 0 0 -6.29507e-013
vt 3.69558e-024 -3.55744e-024
f 7/7/1 5/5/1 6/6/1

v 0.11 0 -6.29507e-013
vt 4.33071 -3.46475e-024
f 5/5/1 7/7/1 8/8/1

vt 0 2.47837e-011
vn 0 -1 -0
v 0.11 0 -0.11
vt -4.33071 4.33071
vt -4.33071 2.47837e-011
f 7/9/2 9/10/2 8/11/2

v 0 0 -0.11
vt 0 4.33071
f 9/10/2 7/9/2 10/12/2

vt -4.33071 -1.13122e-030
vn -1 1.03584e-015 -2.5217e-016
vt -2.47837e-011 -6.47371e-042
v 2.88765e-015 0.89 -0.11
vt -4.33071 35.0394
f 10/13/3 7/14/3 11/15/3

vt -2.47837e-011 39.3701
f 6/16/3 11/15/3 7/14/3

v 0 1 -1
vt -39.3701 39.3701
f 11/15/3 6/16/3 12/17/3

vt 5.28736e-012 2.00406e-011
vn -1.34299e-013 1 -1.20474e-013
v 0.11 1 -0.11
vt 4.33071 4.33071
vt 5.28736e-012 39.3701
f 6/18/4 13/19/4 12/20/4

vt 39.3701 2.00406e-011
f 13/19/4 6/18/4 1/21/4

v 0.89 1 -0.11
vt 35.0394 4.33071
f 13/19/4 1/21/4 14/22/4

v 0.89 1 -0.89
f 14/22/4 1/21/4 15/4/4

v 1 1 -1
f 16/1/4 15/4/4 1/21/4

v 0.11 1 -0.89
f 16/1/4 17/5/4 15/4/4

f 12/20/4 17/5/4 16/1/4

f 17/5/4 12/20/4 13/19/4

vt 4.33071 39.3701
vn 1 -3.34704e-013 4.72019e-014
v 0.11 0.89 -0.89
vt 35.0394 39.3701
f 13/23/5 18/4/5 17/24/5

v 0.11 0.89 -0.11
f 18/4/5 13/23/5 19/5/5

vt -35.0394 39.3701
vn -3.29488e-013 -3.38642e-012 -1
vt -4.33071 39.3701
f 14/25/6 19/15/6 13/26/6

v 0.89 0.89 -0.11
vt -35.0394 35.0394
f 19/15/6 14/25/6 20/27/6

vn -1 -9.56885e-026 -9.34783e-014
v 0.89 0.89 -0.89
f 14/26/7 21/27/7 20/15/7

f 21/27/7 14/26/7 15/25/7

vn 6.62678e-013 1.0238e-012 1
f 15/24/8 18/5/8 21/4/8

f 18/5/8 15/24/8 17/23/8

vn -2.31382e-016 -1 1.03201e-012
v 0.89 0.89 -1
f 18/15/9 22/25/9 21/27/9

v 0.11 0.89 -1
f 22/25/9 18/15/9 23/26/9

v 0.11 0 -0.89
vt 35.0394 -1.79153e-013
vn 1 4.1368e-014 -3.34704e-013
vt 39.3701 35.0394
f 24/28/10 23/29/10 18/4/10

v 0.11 0 -1
vt 39.3701 -1.79153e-013
f 23/29/10 24/28/10 25/30/10

v 0 0 -0.89
vt 0 35.0394
f 26/31/2 25/26/2 24/15/2

v 0 0 -1
vt 0 39.3701
f 25/26/2 26/31/2 27/32/2

vt -35.0394 -9.15256e-030
vt -39.3701 -1.02838e-029
f 26/33/3 12/17/3 27/34/3

v 2.88765e-015 0.89 -0.89
f 28/27/3 12/17/3 26/33/3

f 11/15/3 12/17/3 28/27/3

vn 3.14606e-012 -1 4.43675e-013
vt -1.1035e-010 4.33071
vt -1.1035e-010 35.0394
f 18/15/11 11/35/11 28/36/11

f 11/35/11 18/15/11 19/10/11

vt -4.33071 -1.8126e-012
vn 2.36262e-012 4.18546e-013 -1
vt 1.01181e-011 35.0394
f 9/37/12 11/38/12 19/15/12

vt 1.02318e-011 -1.8126e-012
f 11/38/12 9/37/12 10/39/12

vt 2.33342e-011 -1.79153e-013
vt 4.33071 -1.79153e-013
f 19/5/10 8/40/10 9/41/10

vt -1.44951e-012 35.0394
f 8/40/10 19/5/10 5/42/10

vt -35.0394 4.33071
vt -4.33071 -3.61608e-011
f 20/43/9 5/44/9 19/10/9

vt -35.0394 -1.58109e-011
f 5/44/9 20/43/9 4/45/9

vn -1 -4.17735e-014 3.31423e-013
vt -1.31709e-011 -1.46372e-012
vt -8.73709e-012 35.0394
f 20/15/13 2/46/13 4/47/13

v 0.89 0 -0.11
vt -4.33071 -1.46372e-012
f 2/46/13 20/15/13 29/48/13

vn -1.31257e-014 1.2816e-013 -1
v 1 0 -0.11
vt -39.3701 -5.55022e-013
vt -35.0394 -5.55022e-013
f 20/27/14 30/49/14 29/50/14

v 1 0.89 -0.11
vt -39.3701 35.0394
f 30/49/14 20/27/14 31/51/14

vn 4.17806e-012 -1 4.43675e-013
vt -39.3701 4.33071
f 21/27/15 31/52/15 20/43/15

v 1 0.89 -0.89
f 31/52/15 21/27/15 32/51/15

v 0.89 0 -0.89
vt 35.0394 -4.43379e-012
vn -4.41645e-029 -1.26537e-013 1
f 33/53/16 32/29/16 21/4/16

v 1 0 -0.89
vt 39.3701 -4.43379e-012
f 32/29/16 33/53/16 34/54/16

v 1 0 -1
f 33/27/2 35/17/2 34/51/2

v 0.89 0 -1
f 35/17/2 33/27/2 36/25/2

vt -35.0394 -1.46372e-012
vt -39.3701 -1.46372e-012
f 33/55/13 22/51/13 36/56/13

f 22/51/13 33/55/13 21/27/13

vn -1.7576e-013 2.34658e-013 -1
vt -39.3701 -9.23849e-012
vt -35.0394 -9.23849e-012
f 22/27/17 35/57/17 36/58/17

f 35/57/17 22/27/17 16/17/17

f 16/17/17 22/27/17 23/15/17

vt -6.91969e-012 39.3701
f 16/17/17 23/15/17 12/59/17

vt -4.33071 -9.23849e-012
f 25/60/17 12/59/17 23/15/17

vt -6.91969e-012 -9.23849e-012
f 12/59/17 25/60/17 27/61/17

vn 1 0 -0
vt 35.0394 0
vt 39.3701 0
f 16/1/18 34/62/18 35/63/18

f 16/1/18 32/4/18 34/62/18

f 16/1/18 31/5/18 32/4/18

vt 2.47837e-011 39.3701
f 31/5/18 16/1/18 1/64/18

vt 4.33071 0
f 1/64/18 30/65/18 31/5/18

vt 2.47837e-011 0
f 30/65/18 1/64/18 3/66/18

vt -35.0394 2.47837e-011
vt -39.3701 2.47837e-011
f 2/67/2 30/52/2 3/68/2

f 30/52/2 2/67/2 29/43/2

vt -8.23248e-011 -1.46088e-011
vn -2.34949e-012 -4.16924e-013 1
vt -8.22111e-011 35.0394
f 26/69/19 18/5/19 28/70/19

vt 4.33071 -1.46088e-011
f 18/5/19 26/69/19 24/71/19

