# Alias OBJ Model File
# Exported from SketchUp, (c) 2000-2012 Trimble Navigation Limited
# File units = meters

mtllib spaceInterior_022.mtl

g Mesh1 Group1 Model

usemtl Metal
v 0.205326 0.265992 -0.9416
vt -8.08372 10.4721
vn 0 0 -1
v 0.500874 0.0412915 -0.9416
vt -19.7194 1.62565
v 0.205326 0.0412915 -0.9416
vt -8.08372 1.62565
f 1/1/1 2/2/1 3/3/1

v 0.500874 0.265992 -0.9416
vt -19.7194 10.4721
f 2/2/1 1/1/1 4/4/1

v 0.0535 0.348566 -0.9416
vt -2.1063 13.7231
f 4/4/1 1/1/1 5/5/1

vt -37.0709 -2.09801
vn -0.47778 -0.878479 -0
v 0.0535 0.348566 -0.0642
vt -2.52756 4.70626
vt -37.0709 4.70626
f 1/6/2 6/7/2 5/8/2

v 0.205326 0.265992 -0.0642
vt -2.52756 -2.09801
f 6/7/2 1/6/2 7/9/2

vt -37.0709 10.4721
vn -1 0 -0
v 0.205326 0.0412915 -0.0642
vt -2.52756 1.62565
vt -2.52756 10.4721
f 1/10/3 8/11/3 7/12/3

vt -37.0709 1.62565
f 8/11/3 1/10/3 3/13/3

vt 8.08372 37.0709
vn 0 1 -0
v 0.162526 0.0412915 -0.9816
vt 6.39868 38.6457
vt 8.08372 2.52756
f 3/14/4 9/15/4 8/16/4

v 0.543674 0.0412915 -0.9816
vt 21.4045 38.6457
f 9/15/4 3/14/4 10/17/4

vt 19.7194 37.0709
f 10/17/4 3/14/4 2/18/4

usemtl FrontColor
v 0.500874 0.0412915 -0.0642
vt 19.7194 2.52756
f 3/14/4 11/19/4 2/18/4

f 11/19/4 3/14/4 8/16/4

usemtl Metal
v 0.500874 0.265992 -0.0642
vt 19.7194 10.4721
vn 0 0 1
vt 8.08372 1.62565
vt 19.7194 1.62565
f 12/20/5 8/21/5 11/22/5

vt 8.08372 10.4721
f 8/21/5 12/20/5 7/23/5

v 0.6527 0.348566 -0.0642
vt 25.6969 13.7231
f 7/23/5 12/20/5 13/24/5

vt 2.52756 22.3265
vn 0.47778 -0.878479 -0
v 0.6527 0.348566 -0.9416
vt 37.0709 29.1308
vt 2.52756 29.1308
f 12/25/6 14/26/6 13/27/6

vt 37.0709 22.3265
f 14/26/6 12/25/6 4/28/6

vt 2.52756 10.4721
vn 1 0 -0
vt 37.0709 1.62565
vt 37.0709 10.4721
f 12/29/7 2/30/7 4/31/7

vt 2.52756 1.62565
f 2/30/7 12/29/7 11/32/7

v 0.543674 0.0412915 -0.0242
vt 21.4045 0.952756
f 11/19/4 15/33/4 2/18/4

f 8/16/4 15/33/4 11/19/4

v 0.162526 0.0412915 -0.0242
vt 6.39868 0.952756
f 8/16/4 16/34/4 15/33/4

f 16/34/4 8/16/4 9/15/4

vt -38.6457 4.7413
vn -0.851285 0.524703 -0
v 0.137076 0 -0.0242
vt -0.952756 2.83166
vt -0.952756 4.7413
f 9/35/8 17/36/8 16/37/8

v 0.137076 0 -0.9816
vt -38.6457 2.83166
f 17/36/8 9/35/8 18/38/8

vt -6.39868 1.62565
v 0.569124 0 -0.9816
vt -22.4065 0
vt -5.39668 0
f 9/39/1 19/40/1 18/41/1

vt -21.4045 1.62565
f 19/40/1 9/39/1 10/42/1

vt 0.952756 -9.84711
vn 0.851285 0.524703 -0
vt 38.6457 -11.7567
vt 38.6457 -9.84711
f 15/43/9 19/44/9 10/45/9

v 0.569124 0 -0.0242
vt 0.952756 -11.7567
f 19/44/9 15/43/9 20/46/9

vt 21.4045 1.62565
vt 5.39668 0
vt 22.4065 0
f 15/47/5 17/48/5 20/49/5

vt 6.39868 1.62565
f 17/48/5 15/47/5 16/50/5

vt -5.39668 0.952756
vn 0 -1 -0
vt -22.4065 38.6457
vt -22.4065 0.952756
f 17/51/10 19/52/10 20/53/10

vt -5.39668 38.6457
f 19/52/10 17/51/10 18/54/10

f 10/17/4 2/18/4 15/33/4

vt -25.6969 13.7231
f 4/4/1 5/5/1 14/55/1

vt -2.1063 37.0709
vn -3.49542e-017 -1 -2.45392e-017
v 0.672173 0.348566 -1.0058
vt -26.4635 39.5984
vt -25.6969 37.0709
f 5/56/11 21/57/11 14/58/11

v 0.0340273 0.348566 -1.0058
vt -1.33966 39.5984
f 5/56/11 22/59/11 21/57/11

v 0.0340273 0.348566 -0
vt -1.33966 3.36753e-016
f 23/60/11 22/59/11 5/56/11

v 0 0.348566 -0.0340273
vt 4.79678e-016 1.33966
f 24/61/11 22/59/11 23/60/11

v 0 0.348566 -0.971773
vt 4.79678e-016 38.2588
f 22/59/11 24/61/11 25/62/11

usemtl Dark_Metal
vt -1.33966 13.7231
v 0 0.4066 -0.971773
vt -38.2588 16.0079
vt -38.2588 13.7231
f 24/63/3 26/64/3 25/65/3

v 0 0.4066 -0.0340273
vt -1.33966 16.0079
f 26/64/3 24/63/3 27/66/3

vt 0.947281 13.7231
vn -0.707107 1.3677e-029 0.707107
vt -0.947281 16.0079
vt -0.947281 13.7231
f 23/67/12 27/68/12 24/69/12

v 0.0340273 0.4066 -0
vt 0.947281 16.0079
f 27/68/12 23/67/12 28/70/12

vt 1.33966 13.7231
v 0.672173 0.4066 -0
vt 26.4635 16.0079
vt 1.33966 16.0079
f 23/71/5 29/72/5 28/73/5

v 0.672173 0.348566 -0
vt 26.4635 13.7231
f 29/72/5 23/71/5 30/74/5

usemtl Metal
vt -2.1063 2.52756
vt -26.4635 3.36753e-016
f 23/60/11 6/75/11 30/76/11

f 6/75/11 23/60/11 5/56/11

vt -25.6969 2.52756
f 30/76/11 6/75/11 13/77/11

vt 2.1063 13.7231
f 7/23/5 13/24/5 6/78/5

f 30/76/11 13/77/11 21/57/11

f 14/58/11 21/57/11 13/77/11

v 0.7062 0.348566 -0.971773
vt -27.8031 38.2588
f 30/76/11 21/57/11 31/79/11

usemtl Dark_Metal
vt 9.2878 13.7231
vn 0.707107 1.3677e-029 -0.707107
v 0.7062 0.4066 -0.971773
vt 7.39324 16.0079
vt 7.39324 13.7231
f 21/80/13 32/81/13 31/82/13

v 0.672173 0.4066 -1.0058
vt 9.2878 16.0079
f 32/81/13 21/80/13 33/83/13

vt -26.4635 13.7231
v 0.0340273 0.4066 -1.0058
vt -26.4635 16.0079
f 21/84/1 34/66/1 33/85/1

f 34/66/1 21/84/1 22/63/1

vt -27.053 13.7231
vn -0.707107 -1.3677e-029 -0.707107
vt -28.9476 16.0079
vt -28.9476 13.7231
f 25/86/14 34/87/14 22/88/14

vt -27.053 16.0079
f 34/87/14 25/86/14 26/89/14

usemtl Metal
vt 0 38.2588
vt 1.33966 0
vt 1.33966 39.5984
f 26/90/4 28/91/4 34/92/4

vt 0 1.33966
f 28/91/4 26/90/4 27/93/4

vt 26.4635 0
f 34/92/4 28/91/4 29/94/4

vt 26.4635 39.5984
f 34/92/4 29/94/4 33/95/4

v 0.7062 0.4066 -0.0340273
vt 27.8031 1.33966
f 33/95/4 29/94/4 35/96/4

usemtl Dark_Metal
vt 18.7125 16.0079
vn 0.707107 -1.3677e-029 0.707107
v 0.7062 0.348566 -0.0340273
vt 20.6071 13.7231
vt 20.6071 16.0079
f 29/97/15 36/98/15 35/99/15

vt 18.7125 13.7231
f 36/98/15 29/97/15 30/100/15

usemtl Metal
vt -27.8031 1.33966
f 30/76/11 31/79/11 36/101/11

usemtl Dark_Metal
vt 38.2588 13.7231
f 31/102/7 35/73/7 36/71/7

vt 38.2588 16.0079
f 35/73/7 31/102/7 32/103/7

usemtl Metal
vt 27.8031 38.2588
f 33/95/4 35/96/4 32/104/4

