# Alias OBJ Model File
# Exported from SketchUp, (c) 2000-2012 Trimble Navigation Limited
# File units = meters

mtllib spaceInterior_045.mtl

g Mesh1 Group1 Model

usemtl Metal
v 0.1875 0 -0.1875
vt -7.38189 7.38189
vn 0 -1 -0
v 0 0 -0
vt 0 0
v 0 0 -0.1875
vt 0 7.38189
f 1/1/1 2/2/1 3/3/1

v 0.1875 0 -0
vt -7.38189 0
f 2/2/1 1/1/1 4/4/1

vt 7.38189 -3.2263e-015
vn 1 4.37056e-016 1.96152e-015
v 0.1875 0.125 -0
vt 1.44797e-014 4.92126
vt 1.44797e-014 -3.2263e-015
f 1/5/2 5/6/2 4/7/2

v 0.1875 0.125 -0.0625
vt 2.46063 4.92126
f 5/6/2 1/5/2 6/8/2

v 0.1875 0.75 -0.0625
vt 2.46063 29.5276
f 6/8/2 1/5/2 7/9/2

v 0.1875 1 -0.1875
vt 7.38189 39.3701
f 8/10/2 7/9/2 1/5/2

v 0.1875 1 1.44382e-015
vt -4.23637e-014 39.3701
f 9/11/2 7/9/2 8/10/2

v 0.1875 0.8125 1.44382e-015
vt -4.23637e-014 31.9882
f 7/9/2 9/11/2 10/12/2

v 0 1 -0
vt 0 39.3701
vn -3.92304e-015 -8.74112e-016 1
vt 7.38189 31.9882
f 11/13/3 10/14/3 9/10/3

v 0.125 0.75 -0
vt 4.92126 29.5276
f 11/13/3 12/15/3 10/14/3

v 0.125 0.125 -0
vt 4.92126 4.92126
f 11/13/3 13/16/3 12/15/3

f 2/2/3 13/16/3 11/13/3

vt 7.38189 4.92126
f 2/2/3 5/17/3 13/16/3

vt 7.38189 -2.53138e-029
f 5/17/3 2/2/3 4/18/3

vt 7.38189 2.46063
vn 0 1 -0
vt 4.92126 0
vt 7.38189 0
f 6/19/4 13/20/4 5/21/4

usemtl Dark_Metal
vt 6.95971 29.5276
vn 0.707107 0 0.707107
vt 3.47986 4.92126
vt 6.95971 4.92126
f 7/22/5 13/23/5 6/24/5

vt 3.47986 29.5276
f 13/23/5 7/22/5 12/25/5

usemtl Metal
vt 5.21978 29.1319
vn 0.57735 -0.57735 0.57735
vt 3.47986 26.1182
vt 6.95971 26.1182
f 10/26/6 12/27/6 7/28/6

v 0 1 -0.1875
vt -7.38189 39.3701
vn -1 0 -0
f 14/29/7 2/2/7 11/13/7

f 2/2/7 14/29/7 3/4/7

vn 0 0 -1
f 14/13/8 1/4/8 3/2/8

f 1/4/8 14/13/8 8/29/8

vt 7.38189 -5.68434e-014
vt 7.38189 7.38189
f 14/3/4 9/30/4 8/31/4

f 9/30/4 14/3/4 11/2/4

