# Alias OBJ Model File
# Exported from SketchUp, (c) 2000-2012 Trimble Navigation Limited
# File units = meters

mtllib spaceInterior_009.mtl

g Mesh1 Group1 Model

usemtl Dark_Metal
v 0.0825 0.09375 -0.0825
vt 3.24803 3.24803
vn 2.77174e-014 1 -2.71049e-014
v 0.12375 0.09375 -0.2475
vt 4.87205 9.74409
v 0.0825 0.09375 -0.2475
vt 3.24803 9.74409
f 1/1/1 2/2/1 3/3/1

v 0.12375 0.09375 -0.12375
vt 4.87205 4.87205
f 2/2/1 1/1/1 4/4/1

v 0.2475 0.09375 -0.0825
vt 9.74409 3.24803
f 4/4/1 1/1/1 5/5/1

vt -3.24803 3.69094
vn -1.18405e-013 -1.84963e-014 -1
v 0.2475 0.140625 -0.0825
vt -9.74409 5.53642
vt -9.74409 3.69094
f 1/6/2 6/7/2 5/8/2

v 0.0825 0.140625 -0.0825
vt -3.24803 5.53642
f 6/7/2 1/6/2 7/9/2

vt 9.74409 3.69094
vn 1 -1.96743e-014 -1.18405e-013
vt 3.24803 5.53642
vt 3.24803 3.69094
f 3/10/3 7/11/3 1/12/3

v 0.0825 0.140625 -0.2475
vt 9.74409 5.53642
f 7/11/3 3/10/3 8/13/3

vn -4.64852e-009 -4.17473e-009 -1
v 0 0.140625 -0.2475
vt -4.52956e-008 5.53642
f 3/6/4 9/14/4 8/9/4

v 0.2475 3.60956e-016 -0.2475
vt -9.74409 4.06789e-008
f 10/15/4 9/14/4 3/6/4

v 0 3.60956e-016 -0.2475
vt -4.52956e-008 4.06789e-008
f 9/14/4 10/15/4 11/16/4

vt -9.74409 1.42109e-014
vn -1 1.02394e-015 1.18405e-013
v 2.95984e-014 0.140625 -1.44382e-015
vt -5.68434e-014 5.53642
f 11/17/5 12/18/5 9/7/5

v 2.95984e-014 2.48157e-016 -0
vt 1.37977e-025 9.76996e-015
f 12/18/5 11/17/5 13/19/5

vt 1.16529e-012 9.76996e-015
vn 1.18405e-013 -4.30961e-016 1
v 0.2475 0.140625 -3.03203e-014
vt 1.16529e-012 5.53642
f 13/20/6 14/13/6 12/21/6

v 0.2475 0 -2.88765e-014
vt 9.74409 7.27632e-030
f 14/13/6 13/20/6 15/22/6

vt 9.74409 3.46861e-013
vn 1 -3.41386e-014 -9.86355e-014
vt 2.32598e-013 5.53642
vt 1.75755e-013 3.3265e-013
f 10/23/7 14/24/7 15/25/7

v 0.2475 0.046875 -0.165
vt 6.49606 1.84547
f 14/24/7 10/23/7 16/26/7

v 0.2475 0.046875 -0.20625
vt 8.12008 1.84547
f 16/26/7 10/23/7 17/27/7

v 0.2475 0.046875 -0.2475
vt 9.74409 1.84547
f 17/27/7 10/23/7 18/28/7

v 0.20625 0.046875 -0.2475
vt -8.12008 1.84547
vt -9.74409 1.84547
f 10/15/4 19/29/4 18/30/4

v 0.165 0.046875 -0.2475
vt -6.49606 1.84547
f 19/29/4 10/15/4 20/31/4

f 10/15/4 3/6/4 20/31/4

vt -4.87205 3.69094
f 2/32/4 20/31/4 3/6/4

v 0.165 0.09375 -0.2475
vt -6.49606 3.69094
f 20/31/4 2/32/4 21/33/4

usemtl Metal
vn -1.15443e-015 1 1.32271e-015
vt 6.49606 9.74409
f 4/4/8 21/34/8 2/2/8

v 0.165 0.09375 -0.165
vt 6.49606 6.49606
f 21/34/8 4/4/8 22/35/8

v 0.2475 0.09375 -0.12375
vt 9.74409 4.87205
f 22/35/8 4/4/8 23/36/8

usemtl Dark_Metal
f 4/4/1 5/5/1 23/36/1

vt 4.87205 3.69094
f 5/12/7 16/26/7 23/37/7

f 14/24/7 16/26/7 5/12/7

v 0.2475 0.140625 -0.04125
vt 1.62402 5.53642
f 14/24/7 5/12/7 24/38/7

f 6/11/7 24/38/7 5/12/7

usemtl Metal
vn 1.66472e-014 1 -1.6167e-014
vt 9.74409 1.62402
f 7/1/9 24/39/9 6/5/9

v 0.04125 0.140625 -0.04125
vt 1.62402 1.62402
f 7/1/9 25/40/9 24/39/9

f 8/3/9 25/40/9 7/1/9

v 0.04125 0.140625 -0.2475
vt 1.62402 9.74409
f 25/40/9 8/3/9 26/41/9

usemtl Dark_Metal
vt -1.62402 5.53642
f 8/9/4 9/14/4 26/42/4

vt 1.14368e-012 4.09961e-014
vn 3.90239e-015 1 -2.86238e-015
vt -2.16052e-014 9.74409
f 12/43/10 26/41/10 9/44/10

f 26/41/10 12/43/10 25/40/10

vt 9.74409 1.17786e-012
f 25/40/10 12/43/10 14/45/10

f 25/40/10 14/45/10 24/39/10

v 0.2475 0.09375 -0.165
vt 6.49606 3.69094
f 27/46/7 23/37/7 16/26/7

usemtl Metal
vt 9.74409 6.49606
f 22/35/8 23/36/8 27/47/8

usemtl Dark_Metal
vn 1.49011e-008 9.70752e-016 -1
f 16/30/11 22/33/11 27/8/11

v 0.165 0.046875 -0.165
f 22/33/11 16/30/11 28/31/11

v 0.20625 0.046875 -0.20625
vt 8.12008 8.12008
vn -4.19292e-016 1 -5.10442e-016
f 29/48/12 28/35/12 16/47/12

vt 8.12008 9.74409
f 19/49/12 28/35/12 29/48/12

f 28/35/12 19/49/12 20/34/12

vn 1 5.46903e-017 -8.34035e-014
f 20/28/13 22/46/13 28/26/13

f 22/46/13 20/28/13 21/10/13

usemtl Metal
vn -3.34978e-015 1 3.34978e-015
vt 9.74409 9.74409
f 29/48/14 18/50/14 19/49/14

vt 9.74409 8.12008
f 18/50/14 29/48/14 17/51/14

usemtl Dark_Metal
f 29/48/12 16/47/12 17/51/12

