# Alias OBJ Model File
# Exported from SketchUp, (c) 2000-2012 Trimble Navigation Limited
# File units = meters

mtllib spaceInterior_058.mtl

g Mesh1 Group1 Model

usemtl Metal
v 0 1 -1.1875
vt -6.48735e-012 39.3701
vn -1.38761e-013 -1.02917e-014 -1
v 0.25 0 -1.1875
vt -9.84252 4.81159e-013
v 0 0 -1.1875
vt -6.48735e-012 4.81159e-013
f 1/1/1 2/2/1 3/3/1

v 1.1875 1 -1.1875
vt -46.752 39.3701
f 4/4/1 2/2/1 1/1/1

v 1.1875 -2.25597e-017 -1.1875
vt -46.752 4.80271e-013
f 2/2/1 4/4/1 5/5/1

vt 46.752 39.3701
vn 1 3.15776e-029 -1.59276e-013
v 1.1875 0.75 -1.0625
vt 41.8307 29.5276
vt 46.752 -8.88178e-016
f 4/6/2 6/7/2 5/8/2

v 1.1875 1 -0.9375
vt 36.9094 39.3701
f 7/9/2 6/7/2 4/6/2

v 1.1875 0.875 -0.9375
vt 36.9094 34.4488
f 6/7/2 7/9/2 8/10/2

vn 1.70057e-013 0 1
v 0.25 0.875 -0.9375
vt 9.84252 34.4488
vt 46.752 34.4488
f 7/6/3 9/11/3 8/12/3

v 0.25 1 -0.9375
vt 9.84252 39.3701
f 9/11/3 7/6/3 10/13/3

vt 46.752 46.752
vn 0 1 -0
vt 9.84252 36.9094
vt 46.752 36.9094
f 4/14/4 10/15/4 7/16/4

vt 0 46.752
f 1/17/4 10/15/4 4/14/4

v 0.25 1 -0
vt 9.84252 0
f 1/17/4 11/18/4 10/15/4

v 0 1 -0
vt 0 0
f 11/18/4 1/17/4 12/19/4

vn -1 -2.63891e-016 -1.28742e-016
v 0 0 -0
vt 0 39.3701
f 1/4/5 13/19/5 12/20/5

v 1.44382e-015 0 -0.9375
vt -36.9094 -1.37465e-029
f 13/19/5 1/4/5 14/21/5

vt -46.752 1.58835e-030
f 14/21/5 1/4/5 3/22/5

vt -9.84252 46.752
vn 0 -1 -0
vt -5.68434e-014 36.9094
f 2/23/6 14/24/6 3/17/6

v 0.1875 0 -0.9375
vt -7.38189 36.9094
f 14/24/6 2/23/6 15/25/6

v 0.25 0 -1
vt -9.84252 39.3701
f 15/25/6 2/23/6 16/26/6

vt -46.752 46.752
vn -2.40637e-017 -1 3.83634e-030
f 5/27/7 16/26/7 2/23/7

v 1.1875 -2.25597e-017 -1
f 16/26/7 5/27/7 17/4/7

v 1.1875 0.125 -1
vt 39.3701 4.92126
vt 39.3701 -8.88178e-016
f 5/8/2 18/28/2 17/29/2

v 1.1875 0.125 -1.0625
vt 41.8307 4.92126
f 18/28/2 5/8/2 19/30/2

f 19/30/2 5/8/2 6/7/2

usemtl Dark_Metal
vt 46.752 29.5276
v 0.25 0.125 -1.0625
vt 9.84252 4.92126
vt 46.752 4.92126
f 6/31/3 20/32/3 19/33/3

v 0.25 0.75 -1.0625
vt 9.84252 29.5276
f 20/32/3 6/31/3 21/34/3

usemtl Metal
vt 46.752 -8.69964
vn 1.2025e-013 -0.707107 0.707107
vt 9.84252 -1.73993
vt 9.84252 -8.69964
f 6/35/8 9/36/8 21/37/8

vt 46.752 -1.73993
f 9/36/8 6/35/8 8/38/8

vt 33.0586 17.0773
vn 0.57735 -0.57735 0.57735
v 0.125 0.75 -0.9375
vt 29.5788 11.05
vt 36.5385 11.05
f 9/39/9 22/40/9 21/41/9

vt 36.9094 31.3187
vn 0.707107 -0.707107 -4.61108e-016
v 0.125 0.75 -0
vt -3.20918e-015 24.359
vt 36.9094 24.359
f 9/42/10 23/43/10 22/44/10

v 0.25 0.875 -0
vt -6.41835e-015 31.3187
f 23/43/10 9/42/10 24/45/10

vn 1 0 -6.48367e-016
vt -6.38157e-015 39.3701
vt -6.38157e-015 34.4488
f 9/10/11 11/46/11 24/47/11

f 11/46/11 9/10/11 10/9/11

vn -2.43179e-015 4.38578e-031 1
f 12/20/12 24/11/12 11/13/12

vt 4.92126 29.5276
f 12/20/12 23/48/12 24/11/12

v 0.125 0.125 -0
vt 4.92126 4.92126
f 12/20/12 25/49/12 23/48/12

f 13/19/12 25/49/12 12/20/12

v 0.1875 0.125 -0
vt 7.38189 4.92126
f 13/19/12 26/50/12 25/49/12

v 0.1875 0 -0
vt 7.38189 7.87299e-045
f 26/50/12 13/19/12 27/51/12

vt -7.38189 0
f 14/24/6 27/52/6 13/19/6

f 27/52/6 14/24/6 15/25/6

vt 36.9094 -3.31792e-043
vn 1 4.49468e-044 -6.48367e-016
vt -4.78618e-015 4.92126
vt -4.78618e-015 -3.31792e-043
f 15/53/13 26/54/13 27/55/13

v 0.1875 0.125 -0.9375
vt 36.9094 4.92126
f 26/54/13 15/53/13 28/56/13

vt 34.7986 -1.53885e-029
vn 0.707107 -7.37026e-031 0.707107
vt 31.3187 4.92126
vt 31.3187 -1.53885e-029
f 16/57/14 28/58/14 15/59/14

v 0.25 0.125 -1
vt 34.7986 4.92126
f 28/58/14 16/57/14 29/60/14

vt 9.84252 7.2766e-028
vn 1.70057e-013 1.84826e-029 1
f 16/61/15 18/33/15 29/32/15

f 18/33/15 16/61/15 17/8/15

vt 46.752 41.8307
vn 2.28073e-017 1 1.14995e-018
f 19/62/16 29/13/16 18/6/16

vt 9.84252 41.8307
f 20/63/16 29/13/16 19/62/16

vt 7.38189 36.9094
f 20/63/16 28/64/16 29/13/16

v 0.125 0.125 -0.9375
vt 4.92126 36.9094
f 30/65/16 28/64/16 20/63/16

vt 7.38189 5.65919e-018
f 30/65/16 26/66/16 28/64/16

vt 4.92126 5.65919e-018
f 26/66/16 30/65/16 25/67/16

usemtl Dark_Metal
vt -3.19078e-015 29.5276
vt -3.19078e-015 4.92126
f 30/56/11 23/68/11 25/69/11

vt 36.9094 29.5276
f 23/68/11 30/56/11 22/70/11

vt 36.5385 4.92126
vn 0.707107 0 0.707107
vt 29.5788 29.5276
vt 29.5788 4.92126
f 20/71/17 22/72/17 30/73/17

vt 36.5385 29.5276
f 22/72/17 20/71/17 21/74/17

