# Alias OBJ Model File
# Exported from SketchUp, (c) 2000-2012 Trimble Navigation Limited
# File units = meters

mtllib spaceInterior_049.mtl

g Mesh1 Group1 Model

usemtl Dark_Metal
v 1 0 -1
vt -39.3701 39.3701
vn 0 -1 -0
v 0 0 -0
vt 0 0
v 0 0 -1
vt 0 39.3701
f 1/1/1 2/2/1 3/3/1

v 0.5 0 -0
vt -19.685 0
f 2/2/1 1/1/1 4/4/1

v 1 0 -0.5
vt -39.3701 19.685
f 4/4/1 1/1/1 5/5/1

vt 39.3701 0
vn 1 0 -0
v 1 0.0625 -0.5
vt 19.685 2.46063
vt 19.685 0
f 1/6/2 6/7/2 5/8/2

v 1 0.0625 -1
vt 39.3701 2.46063
f 6/7/2 1/6/2 7/9/2

vt -39.3701 0
vn 0 0 -1
v 0 0.0625 -1
vt 0 2.46063
vt -39.3701 2.46063
f 1/10/3 8/11/3 7/12/3

f 8/11/3 1/10/3 3/2/3

vn -1 0 -0
f 2/2/4 8/12/4 3/10/4

v 0 0.0625 -0
f 8/12/4 2/2/4 9/11/4

vn 0 0 1
v 0.5 0.0625 -0
f 2/2/5 10/7/5 9/11/5

f 10/7/5 2/2/5 4/8/5

vt 41.7583 -4.10359e-029
vn 0.707107 2.9481e-030 0.707107
vt 13.9194 2.46063
vt 13.9194 -4.10359e-029
f 5/13/6 10/14/6 4/15/6

vt 41.7583 2.46063
f 10/14/6 5/13/6 6/16/6

vt 39.3701 39.3701
vn 0 1 -0
vt 39.3701 19.685
f 7/17/7 10/8/7 6/18/7

f 8/3/7 10/8/7 7/17/7

f 10/8/7 8/3/7 9/2/7

