# Alias OBJ Model File
# Exported from SketchUp, (c) 2000-2012 Trimble Navigation Limited
# File units = meters

mtllib spaceInterior_001.mtl

g Mesh1 Group1 Model

usemtl Dark_Metal
v 0.0670304 0 -0.1548
vt -2.63899 6.09449
vn 0 -1 -0
v 0 0 -0.0387
vt 0 1.52362
v 0 0 -0.1161
vt 0 4.57087
f 1/1/1 2/2/1 3/3/1

v 0.0670304 0 -0
vt -2.63899 0
f 2/2/1 1/1/1 4/4/1

v 0.134061 0 -0.1161
vt -5.27798 4.57087
f 4/4/1 1/1/1 5/5/1

v 0.0670304 0.03 -0.1548
vt 0.761811 1.1811
vn 0.5 0 -0.866025
vt -2.28543 0
vt 0.761811 0
f 6/6/2 5/7/2 1/8/2

v 0.134061 0.03 -0.1161
vt -2.28543 1.1811
f 5/7/2 6/6/2 7/9/2

vt 2.63899 6.09449
vn 0 1 -0
v 0.104286 0.03 -0.0989093
vt 4.10573 3.89407
vt 5.27798 4.57087
f 6/10/3 8/11/3 7/12/3

v 0.0670304 0.03 -0.120419
vt 2.63899 4.74089
f 6/10/3 9/13/3 8/11/3

v 0.0297752 0.03 -0.0989093
vt 1.17225 3.89407
f 6/10/3 10/14/3 9/13/3

v 0 0.03 -0.1161
f 11/3/3 10/14/3 6/10/3

v 0.0297752 0.03 -0.0558907
vt 1.17225 2.20042
f 10/14/3 11/3/3 12/15/3

v 0 0.03 -0.0387
f 13/2/3 12/15/3 11/3/3

v 0.0670304 0.03 -0
vt 2.63899 0
f 12/15/3 13/2/3 14/16/3

vt -0.761811 0
vn -0.5 0 0.866025
vt 2.28543 1.1811
vt -0.761811 1.1811
f 2/17/4 14/18/4 13/19/4

vt 2.28543 0
f 14/18/4 2/17/4 4/20/4

vn 0.5 0 0.866025
v 0.134061 0.03 -0.0387
vt 5.33268 1.1811
f 4/20/5 15/21/5 14/18/5

v 0.134061 0 -0.0387
vt 5.33268 0
f 15/21/5 4/20/5 16/22/5

vt -5.27798 1.52362
f 4/4/1 5/5/1 16/23/1

vt 4.57087 0
vn 1 0 -0
vt 1.52362 1.1811
vt 1.52362 0
f 5/24/6 15/25/6 16/26/6

vt 4.57087 1.1811
f 15/25/6 5/24/6 7/27/6

vt 5.27798 1.52362
f 7/12/3 8/11/3 15/28/3

v 0.104286 0.03 -0.0558907
vt 4.10573 2.20042
f 17/29/3 15/28/3 8/11/3

v 0.0670304 0.03 -0.0343815
vt 2.63899 1.3536
f 18/30/3 15/28/3 17/29/3

f 18/30/3 14/16/3 15/28/3

f 12/15/3 14/16/3 18/30/3

usemtl Metal
v 0.0670304 0.5 -0.0343815
vt 1.60863 19.685
vt -0.0850104 1.1811
vt 1.60863 1.1811
f 19/31/4 12/32/4 18/33/4

v 0.0297752 0.5 -0.0558907
vt -0.0850104 19.685
f 12/32/4 19/31/4 20/34/4

v 0.0297752 0.5 -0.0989093
f 19/30/3 21/14/3 20/15/3

v 0.0670304 0.5 -0.120419
f 21/14/3 19/30/3 22/13/3

v 0.104286 0.5 -0.0558907
f 22/13/3 19/30/3 23/29/3

vt 2.96223 1.1811
vt 4.65588 19.685
vt 2.96223 19.685
f 18/35/5 23/36/5 19/37/5

vt 4.65588 1.1811
f 23/36/5 18/35/5 17/38/5

vt 3.89407 1.1811
vt 2.20042 19.685
vt 2.20042 1.1811
f 8/39/6 23/40/6 17/41/6

v 0.104286 0.5 -0.0989093
vt 3.89407 19.685
f 23/40/6 8/39/6 24/42/6

vt -1.60863 1.1811
vt 0.0850104 19.685
vt -1.60863 19.685
f 8/43/2 22/44/2 24/45/2

vt 0.0850104 1.1811
f 22/44/2 8/43/2 9/46/2

vt -4.65588 1.1811
vn -0.5 0 -0.866025
vt -2.96223 19.685
vt -4.65588 19.685
f 9/47/7 21/48/7 22/49/7

vt -2.96223 1.1811
f 21/48/7 9/47/7 10/50/7

vt -2.20042 1.1811
vn -1 0 -0
vt -3.89407 19.685
vt -3.89407 1.1811
f 12/51/8 21/52/8 10/53/8

vt -2.20042 19.685
f 21/52/8 12/51/8 20/54/8

f 22/13/3 23/29/3 24/11/3

usemtl Dark_Metal
vt -4.57087 1.1811
vt -1.52362 0
vt -1.52362 1.1811
f 11/55/8 2/56/8 13/57/8

vt -4.57087 0
f 2/56/8 11/55/8 3/58/8

vt -5.33268 0
f 11/9/7 1/59/7 3/7/7

vt -5.33268 1.1811
f 1/59/7 11/9/7 6/60/7

