
<svg xmlns="http://www.w3.org/2000/svg" version="1.1" xmlns:xlink="http://www.w3.org/1999/xlink" preserveAspectRatio="none" x="0px" y="0px" width="512px" height="512px" viewBox="0 0 512 512">
<defs>
<g id="Layer0_0_FILL">
<path fill="#191919" stroke="none" d="
M 0 0
L 0 512 512 512 512 0 0 0
M 498.95 58.05
L 498.95 65.05 498.95 87.55 498.95 93.95 498.95 96.65 498.95 101 498.95 132.55 498.95 137.55 498.95 153.95 462.95 153.95 462.95 190.9 425.95 190.9 425.95 153.95 353.95 153.95 353.95 137.55 353.95 132.55 353.95 93.95 353.95 87.55 353.95 65.05 353.95 58.05 353.95 46.05 425.95 46.05 425.95 11.1 462.95 11.1 462.95 46.05 498.95 46.05 498.95 58.05
M 330.95 150
L 330.95 153 182.95 153 182.95 227 108.95 227 108.95 153 34.95 153 34.95 150 34.95 79 108.95 79 108.95 5 182.95 5 182.95 79 330.95 79 330.95 150
M 420.95 276
L 420.95 282 420.95 288 420.95 294 420.95 300 420.95 312 311.95 312 311.95 348.95 237.95 348.95 237.95 312 201.95 312 201.95 300 201.95 294 201.95 288 201.95 282 201.95 276 201.95 202 237.95 202 237.95 165.05 311.95 165.05 311.95 202 420.95 202 420.95 276
M 352 358
L 352 352 428 352 428 317.05 466 317.05 466 352 504 352 504 358 504 433.95 504 440.9 504 460.9 466 460.9 466 495.85 428 495.85 428 460.9 352 460.9 352 440.9 352 433.95 352 358
M 92.95 205.05
L 92.95 240 164.95 240 164.95 252 164.95 259 164.95 281.5 164.95 287.9 164.95 326.5 164.95 331.5 164.95 347.9 92.95 347.9 92.95 384.85 55.95 384.85 55.95 347.9 19.95 347.9 19.95 331.5 19.95 326.5 19.95 294.95 19.95 290.6 19.95 287.9 19.95 281.5 19.95 259 19.95 252 19.95 240 55.95 240 55.95 205.05 92.95 205.05
M 139 369
L 139 363 177 363 177 328.05 215 328.05 215 363 291 363 291 369 291 444.95 291 451.9 291 471.9 215 471.9 215 506.85 177 506.85 177 471.9 139 471.9 139 451.9 139 444.95 139 369 Z"/>

<path fill="#4A4A4A" stroke="none" d="
M 291 451.9
L 291 444.95 139 444.95 139 451.9 291 451.9
M 177 413.95
L 177 417.95 193 426.85 193 422.6 193 413.95 177 413.95
M 215 417.95
L 215 413.95 199 413.95 199 422.6 199 426.85 215 417.95
M 139 363
L 139 369 291 369 291 363 215 363 215 328.05 177 328.05 177 363 139 363
M 19.95 326.5
L 19.95 331.5 164.95 331.5 164.95 326.5 19.95 326.5
M 19.95 252
L 19.95 259 164.95 259 164.95 252 19.95 252
M 107.95 287.9
L 113.95 287.9 164.95 287.9 164.95 281.5 19.95 281.5 19.95 287.9 34.95 287.9 40.95 287.9 107.95 287.9
M 504 440.9
L 504 433.95 352 433.95 352 440.9 504 440.9
M 444 415.85
L 444 411.6 444 402.95 428 402.95 428 406.95 444 415.85
M 466 406.95
L 466 402.95 450 402.95 450 411.6 450 415.85 466 406.95
M 352 352
L 352 358 504 358 504 352 466 352 466 317.05 428 317.05 428 352 352 352
M 498.95 137.55
L 498.95 132.55 353.95 132.55 353.95 137.55 498.95 137.55
M 498.95 93.95
L 498.95 87.55 353.95 87.55 353.95 93.95 404.95 93.95 410.95 93.95 477.95 93.95 483.95 93.95 498.95 93.95
M 498.95 65.05
L 498.95 58.05 353.95 58.05 353.95 65.05 498.95 65.05 Z"/>

<path fill="#FFCC00" stroke="none" d="
M 291 471.9
L 291 451.9 139 451.9 139 471.9 177 471.9 177 506.85 215 506.85 215 471.9 291 471.9
M 291 369
L 139 369 139 444.95 291 444.95 291 369
M 215 413.95
L 215 417.95 199 426.85 193 426.85 177 417.95 141 417.95 177 413.6 177 413.95 193 413.95 193 422.6 199 422.6 199 413.95 215 413.95
M 55.95 347.9
L 55.95 384.85 92.95 384.85 92.95 347.9 164.95 347.9 164.95 331.5 19.95 331.5 19.95 347.9 55.95 347.9
M 19.95 259
L 19.95 281.5 164.95 281.5 164.95 259 19.95 259
M 19.95 287.9
L 19.95 290.6 34.95 292.4 34.95 287.9 19.95 287.9
M 92.95 294.95
L 107.95 293.15 107.95 287.9 40.95 287.9 40.95 293.15 55.95 294.95 40.95 294.95 40.95 303.9 34.95 303.9 34.95 294.95 19.95 294.95 19.95 326.5 164.95 326.5 164.95 287.9 113.95 287.9 113.95 292.4 128.95 290.6 128.95 294.95 113.95 294.95 113.95 303.9 107.95 303.9 107.95 294.95 92.95 294.95
M 504 460.9
L 504 440.9 352 440.9 352 460.9 428 460.9 428 495.85 466 495.85 466 460.9 504 460.9
M 504 358
L 352 358 352 433.95 504 433.95 504 358
M 466 406.95
L 450 415.85 444 415.85 428 406.95 428 402.95 444 402.95 444 411.6 450 411.6 450 402.95 466 402.95 466 402.6 502 406.95 466 406.95
M 420.95 276
L 420.95 202 311.95 202 311.95 165.05 237.95 165.05 237.95 202 201.95 202 201.95 276 237.95 276
Q 238.2603515625 275.9974609375 238.55 276 248.1470703125 275.704296875 255.85 271.65 264.5580078125 266.9470703125 274.95 266.5 285.35 266.95 294.05 271.65 301.7515625 275.71875 311.3 276 311.639453125 275.99765625 311.95 276
L 420.95 276
M 284.35 227.55
Q 288.3 231.45 288.3 237 288.3 242.55 284.35 246.45 280.45 250.4 274.9 250.4 269.35 250.4 265.45 246.45 261.55 242.55 261.55 237 261.55 231.45 265.45 227.55 269.35 223.65 274.9 223.65 280.45 223.65 284.35 227.55
M 108.95 153
L 108.95 227 182.95 227 182.95 153 108.95 153
M 330.95 150
L 330.95 79 182.95 79 182.95 5 108.95 5 108.95 79 34.95 79 34.95 150 330.95 150
M 229 111.65
Q 232.95 115.55 232.95 121.1 232.95 126.65 229 130.55 225.1 134.5 219.55 134.5 214 134.5 210.1 130.55 206.2 126.65 206.2 121.1 206.2 115.55 210.1 111.65 214 107.75 219.55 107.75 225.1 107.75 229 111.65
M 172.4 104.4
Q 172.45 104.7 172.35 104.95 172.2 105.15 172 105.3 171.75 105.4 171.5 105.45
L 155.6 104.45
Q 155.35 104.35 155.15 104.25 154.9 104 154.85 103.8 154.8 103.5 154.85 103.3 154.95 103.05 155.2 102.9
L 160.05 99.5
Q 160.3 99.2 160.65 99.25
L 171.2 101
Q 171.45 101 171.65 101.2 171.85 101.35 171.85 101.65
L 172.4 104.4
M 165.8 112.65
Q 167.35 114.15 167.35 116.3 167.35 118.45 165.8 119.9 164.35 121.45 162.2 121.45 160.1 121.45 158.55 119.9 157.05 118.45 157.05 116.3 157.05 114.15 158.55 112.65 160.1 111.15 162.2 111.15 164.35 111.15 165.8 112.65
M 170.65 121.8
Q 170.85 121.55 171.1 121.45 171.35 121.45 171.6 121.5
L 172.85 122.1
Q 173.1 122.25 173.2 122.55 173.3 122.85 173.25 123.05
L 170.85 130.1
Q 170.75 130.2 170.75 130.25
L 166.4 136.25
Q 166.25 136.45 165.95 136.55 165.7 136.6 165.45 136.5
L 164.3 136
Q 164.05 135.85 163.95 135.6 163.8 135.35 163.95 135
L 166.15 128.3
Q 166.2 128.2 166.3 128.1
L 170.65 121.8
M 151.45 94
Q 151.45 96.3 149.8 97.9 148.2 99.5 145.95 99.5 143.65 99.5 142.05 97.9 140.45 96.3 140.45 94 140.45 91.7 142.05 90.1 143.65 88.5 145.95 88.5 148.2 88.5 149.8 90.1 151.45 91.7 151.45 94
M 62.8 130.55
Q 58.9 126.65 58.9 121.1 58.9 115.55 62.8 111.65 66.7 107.75 72.25 107.75 77.8 107.75 81.7 111.65 85.65 115.55 85.65 121.1 85.65 126.65 81.7 130.55 77.8 134.5 72.25 134.5 66.7 134.5 62.8 130.55
M 133.1 102.5
L 137.95 105.9
Q 138.2 106.05 138.3 106.3 138.35 106.5 138.3 106.8 138.25 107 138 107.25 137.8 107.35 137.55 107.45
L 121.65 108.45
Q 121.4 108.4 121.15 108.3 120.95 108.15 120.8 107.95 120.7 107.7 120.75 107.4
L 121.3 104.65
Q 121.3 104.35 121.5 104.2 121.7 104 121.95 104
L 132.5 102.25
Q 132.85 102.2 133.1 102.5
M 124.55 116.3
Q 124.55 114.15 126 112.65 127.55 111.15 129.7 111.15 131.8 111.15 133.25 112.65 134.8 114.15 134.8 116.3 134.8 118.45 133.25 119.9 131.8 121.45 129.7 121.45 127.55 121.45 126 119.9 124.55 118.45 124.55 116.3
M 132.8 131.35
L 132.8 131.3
Q 132.8 129.35 134.15 128 135.5 126.65 137.45 126.65
L 154.5 126.65
Q 156.45 126.65 157.8 128 159.15 129.35 159.15 131.3
L 159.15 131.35
Q 159.15 133.3 157.8 134.65 156.45 136 154.5 136
L 137.45 136
Q 135.5 136 134.15 134.65 132.8 133.3 132.8 131.35
M 128.15 135.6
Q 128.05 135.85 127.8 136
L 126.65 136.5
Q 126.4 136.6 126.15 136.55 125.85 136.45 125.7 136.25
L 121.35 130.25
Q 121.35 130.2 121.25 130.1
L 118.85 123.05
Q 118.8 122.85 118.9 122.55 119 122.25 119.25 122.1
L 120.5 121.5
Q 120.75 121.45 121 121.45 121.25 121.55 121.45 121.8
L 125.8 128.1
Q 125.9 128.2 125.95 128.3
L 128.15 135
Q 128.3 135.35 128.15 135.6
M 498.95 153.95
L 498.95 137.55 353.95 137.55 353.95 153.95 425.95 153.95 425.95 190.9 462.95 190.9 462.95 153.95 498.95 153.95
M 498.95 132.55
L 498.95 101 483.95 101 483.95 109.95 477.95 109.95 477.95 101 462.95 101 477.95 99.2 477.95 93.95 410.95 93.95 410.95 99.2 425.95 101 410.95 101 410.95 109.95 404.95 109.95 404.95 101 389.95 101 389.95 96.65 404.95 98.5 404.95 93.95 353.95 93.95 353.95 132.55 498.95 132.55
M 498.95 87.55
L 498.95 65.05 353.95 65.05 353.95 87.55 498.95 87.55
M 498.95 96.65
L 498.95 93.95 483.95 93.95 483.95 98.5 498.95 96.65 Z"/>

<path fill="#E5B700" stroke="none" d="
M 199 422.6
L 193 422.6 193 426.85 199 426.85 199 422.6
M 177 417.95
L 177 413.95 177 413.6 141 417.95 177 417.95
M 450 415.85
L 450 411.6 444 411.6 444 415.85 450 415.85
M 466 402.95
L 466 406.95 502 406.95 466 402.6 466 402.95 Z"/>

<path fill="#EEBE00" stroke="none" d="
M 40.95 293.15
L 40.95 294.95 55.95 294.95 40.95 293.15
M 19.95 290.6
L 19.95 294.95 34.95 294.95 34.95 292.4 19.95 290.6
M 107.95 294.95
L 107.95 293.15 92.95 294.95 107.95 294.95
M 113.95 292.4
L 113.95 294.95 128.95 294.95 128.95 290.6 113.95 292.4
M 425.95 101
L 410.95 99.2 410.95 101 425.95 101
M 462.95 101
L 477.95 101 477.95 99.2 462.95 101
M 404.95 98.5
L 389.95 96.65 389.95 101 404.95 101 404.95 98.5
M 498.95 101
L 498.95 96.65 483.95 98.5 483.95 101 498.95 101 Z"/>

<path fill="#E2E2E2" stroke="none" d="
M 34.95 287.9
L 34.95 292.4 34.95 294.95 34.95 303.9 40.95 303.9 40.95 294.95 40.95 293.15 40.95 287.9 34.95 287.9
M 113.95 294.95
L 113.95 292.4 113.95 287.9 107.95 287.9 107.95 293.15 107.95 294.95 107.95 303.9 113.95 303.9 113.95 294.95
M 404.95 93.95
L 404.95 98.5 404.95 101 404.95 109.95 410.95 109.95 410.95 101 410.95 99.2 410.95 93.95 404.95 93.95
M 483.95 98.5
L 483.95 93.95 477.95 93.95 477.95 99.2 477.95 101 477.95 109.95 483.95 109.95 483.95 101 483.95 98.5 Z"/>

<path fill="#333333" stroke="none" d="
M 92.95 240
L 92.95 205.05 55.95 205.05 55.95 240 19.95 240 19.95 252 164.95 252 164.95 240 92.95 240
M 420.95 312
L 420.95 300 311.95 300
Q 302 299.85 294.05 295.65 285.35 290.95 274.95 290.5 264.55 290.95 255.85 295.65 247.9 299.85 237.95 300
L 201.95 300 201.95 312 237.95 312 237.95 348.95 311.95 348.95 311.95 312 420.95 312
M 274.9 237
L 261.55 237
Q 261.55 242.55 265.45 246.45 269.35 250.4 274.9 250.4
L 274.9 237
M 288.3 237
Q 288.3 231.45 284.35 227.55 280.45 223.65 274.9 223.65
L 274.9 237 288.3 237
M 420.95 294
L 420.95 288 311.95 288
Q 302 287.85 294.05 283.65 285.35 278.95 274.95 278.5 264.55 278.95 255.85 283.65 247.9 287.85 237.95 288
L 201.95 288 201.95 294 237.95 294
Q 247.9 293.85 255.85 289.65 264.55 284.95 274.95 284.5 285.35 284.95 294.05 289.65 302 293.85 311.95 294
L 420.95 294
M 420.95 282
L 420.95 276 311.95 276
Q 311.639453125 275.99765625 311.3 276 301.7515625 275.71875 294.05 271.65 285.35 266.95 274.95 266.5 264.5580078125 266.9470703125 255.85 271.65 248.1470703125 275.704296875 238.55 276 238.2603515625 275.9974609375 237.95 276
L 201.95 276 201.95 282 237.95 282
Q 247.9 281.85 255.85 277.65 257.52265625 276.7462890625 259.25 276 266.549609375 272.8634765625 274.95 272.5 283.3505859375 272.8634765625 290.65 276 292.37734375 276.7462890625 294.05 277.65 302 281.85 311.95 282
L 420.95 282
M 126 112.65
Q 124.55 114.15 124.55 116.3 124.55 118.45 126 119.9 127.55 121.45 129.7 121.45 131.8 121.45 133.25 119.9 134.8 118.45 134.8 116.3 134.8 114.15 133.25 112.65 131.8 111.15 129.7 111.15 127.55 111.15 126 112.65
M 137.95 105.9
L 133.1 102.5
Q 132.85 102.2 132.5 102.25
L 121.95 104
Q 121.7 104 121.5 104.2 121.3 104.35 121.3 104.65
L 120.75 107.4
Q 120.7 107.7 120.8 107.95 120.95 108.15 121.15 108.3 121.4 108.4 121.65 108.45
L 137.55 107.45
Q 137.8 107.35 138 107.25 138.25 107 138.3 106.8 138.35 106.5 138.3 106.3 138.2 106.05 137.95 105.9
M 72.25 107.75
L 72.25 121.1 85.65 121.1
Q 85.65 115.55 81.7 111.65 77.8 107.75 72.25 107.75
M 72.25 134.5
L 72.25 121.1 58.9 121.1
Q 58.9 126.65 62.8 130.55 66.7 134.5 72.25 134.5
M 140.45 94
Q 140.45 96.3 142.05 97.9 143.65 99.5 145.95 99.5
L 145.95 94 140.45 94
M 149.8 90.1
Q 148.2 88.5 145.95 88.5
L 145.95 94 151.45 94
Q 151.45 91.7 149.8 90.1
M 167.35 116.3
Q 167.35 114.15 165.8 112.65 164.35 111.15 162.2 111.15 160.1 111.15 158.55 112.65 157.05 114.15 157.05 116.3 157.05 118.45 158.55 119.9 160.1 121.45 162.2 121.45 164.35 121.45 165.8 119.9 167.35 118.45 167.35 116.3
M 172.35 104.95
Q 172.45 104.7 172.4 104.4
L 171.85 101.65
Q 171.85 101.35 171.65 101.2 171.45 101 171.2 101
L 160.65 99.25
Q 160.3 99.2 160.05 99.5
L 155.2 102.9
Q 154.95 103.05 154.85 103.3 154.8 103.5 154.85 103.8 154.9 104 155.15 104.25 155.35 104.35 155.6 104.45
L 171.5 105.45
Q 171.75 105.4 172 105.3 172.2 105.15 172.35 104.95
M 219.55 121.1
L 206.2 121.1
Q 206.2 126.65 210.1 130.55 214 134.5 219.55 134.5
L 219.55 121.1
M 232.95 121.1
Q 232.95 115.55 229 111.65 225.1 107.75 219.55 107.75
L 219.55 121.1 232.95 121.1
M 330.95 153
L 330.95 150 34.95 150 34.95 153 108.95 153 182.95 153 330.95 153
M 498.95 58.05
L 498.95 46.05 462.95 46.05 462.95 11.1 425.95 11.1 425.95 46.05 353.95 46.05 353.95 58.05 498.95 58.05 Z"/>

<path fill="#434343" stroke="none" d="
M 420.95 300
L 420.95 294 311.95 294
Q 302 293.85 294.05 289.65 285.35 284.95 274.95 284.5 264.55 284.95 255.85 289.65 247.9 293.85 237.95 294
L 201.95 294 201.95 300 237.95 300
Q 247.9 299.85 255.85 295.65 264.55 290.95 274.95 290.5 285.35 290.95 294.05 295.65 302 299.85 311.95 300
L 420.95 300
M 420.95 288
L 420.95 282 311.95 282
Q 302 281.85 294.05 277.65 292.37734375 276.7462890625 290.65 276 283.3505859375 272.8634765625 274.95 272.5 266.549609375 272.8634765625 259.25 276 257.52265625 276.7462890625 255.85 277.65 247.9 281.85 237.95 282
L 201.95 282 201.95 288 237.95 288
Q 247.9 287.85 255.85 283.65 264.55 278.95 274.95 278.5 285.35 278.95 294.05 283.65 302 287.85 311.95 288
L 420.95 288 Z"/>

<path fill="#FFFFFF" stroke="none" d="
M 261.55 237
L 274.9 237 274.9 223.65
Q 269.35 223.65 265.45 227.55 261.55 231.45 261.55 237
M 284.35 246.45
Q 288.3 242.55 288.3 237
L 274.9 237 274.9 250.4
Q 280.45 250.4 284.35 246.45
M 132.8 131.3
L 132.8 131.35
Q 132.8 133.3 134.15 134.65 135.5 136 137.45 136
L 154.5 136
Q 156.45 136 157.8 134.65 159.15 133.3 159.15 131.35
L 159.15 131.3
Q 159.15 129.35 157.8 128 156.45 126.65 154.5 126.65
L 137.45 126.65
Q 135.5 126.65 134.15 128 132.8 129.35 132.8 131.3
M 58.9 121.1
L 72.25 121.1 72.25 107.75
Q 66.7 107.75 62.8 111.65 58.9 115.55 58.9 121.1
M 72.25 121.1
L 72.25 134.5
Q 77.8 134.5 81.7 130.55 85.65 126.65 85.65 121.1
L 72.25 121.1
M 145.95 88.5
Q 143.65 88.5 142.05 90.1 140.45 91.7 140.45 94
L 145.95 94 145.95 88.5
M 149.8 97.9
Q 151.45 96.3 151.45 94
L 145.95 94 145.95 99.5
Q 148.2 99.5 149.8 97.9
M 219.55 121.1
L 219.55 134.5
Q 225.1 134.5 229 130.55 232.95 126.65 232.95 121.1
L 219.55 121.1
M 219.55 121.1
L 219.55 107.75
Q 214 107.75 210.1 111.65 206.2 115.55 206.2 121.1
L 219.55 121.1 Z"/>

<path fill="#F3C200" stroke="none" d="
M 127.8 136
Q 128.05 135.85 128.15 135.6 128.3 135.35 128.15 135
L 125.95 128.3
Q 125.9 128.2 125.8 128.1
L 121.45 121.8
Q 121.25 121.55 121 121.45 120.75 121.45 120.5 121.5
L 119.25 122.1
Q 119 122.25 118.9 122.55 118.8 122.85 118.85 123.05
L 121.25 130.1
Q 121.35 130.2 121.35 130.25
L 125.7 136.25
Q 125.85 136.45 126.15 136.55 126.4 136.6 126.65 136.5
L 127.8 136
M 171.1 121.45
Q 170.85 121.55 170.65 121.8
L 166.3 128.1
Q 166.2 128.2 166.15 128.3
L 163.95 135
Q 163.8 135.35 163.95 135.6 164.05 135.85 164.3 136
L 165.45 136.5
Q 165.7 136.6 165.95 136.55 166.25 136.45 166.4 136.25
L 170.75 130.25
Q 170.75 130.2 170.85 130.1
L 173.25 123.05
Q 173.3 122.85 173.2 122.55 173.1 122.25 172.85 122.1
L 171.6 121.5
Q 171.35 121.45 171.1 121.45 Z"/>
</g>
</defs>

<g transform="matrix( 1, 0, 0, 1, 0,0) ">
<use xlink:href="#Layer0_0_FILL"/>
</g>
</svg>
