<svg xmlns="http://www.w3.org/2000/svg" xmlns:xlink="http://www.w3.org/1999/xlink">
  <defs>
    <linearGradient gradientUnits="userSpaceOnUse" x1="-819.2" x2="819.2" spreadMethod="pad" gradientTransform="matrix(0.00885009765625 0 0 0.013153076171875 218.75 119.7)" id="gradient0">
      <stop offset="0" stop-color="#1ABC9C"/>
      <stop offset="1" stop-color="#138C74"/>
    </linearGradient>
    <linearGradient gradientUnits="userSpaceOnUse" x1="-819.2" x2="819.2" spreadMethod="pad" gradientTransform="matrix(-0.00885009765625 0 0 0.013153076171875 73.15 119.7)" id="gradient1">
      <stop offset="0" stop-color="#1ABC9C"/>
      <stop offset="1" stop-color="#138C74"/>
    </linearGradient>
  </defs>
  <g>
    <path stroke="none" fill="#191919" d="M498.95 96.65 L498.95 46.05 462.95 46.05 462.95 11.1 425.95 11.1 425.95 46.05 353.95 46.05 353.95 122.95 353.95 129.9 353.95 153.95 425.95 153.95 425.95 190.9 462.95 190.9 462.95 153.95 498.95 153.95 498.95 129.9 498.95 122.95 498.95 101 498.95 96.65 M330.95 136 L330.95 79 182.95 79 182.95 5 108.95 5 108.95 79 34.95 79 34.95 135.9 34.95 153 108.95 153 108.95 227 182.95 227 182.95 153 330.95 153 330.95 136 M201.95 301 L201.95 312 237.95 312 237.95 348.95 311.95 348.95 311.95 312 420.95 312 420.95 301 420.95 202 311.95 202 311.95 165.05 237.95 165.05 237.95 202 201.95 202 201.95 301 M504 433.95 L504 352 466 352 466 317.05 428 317.05 428 352 352 352 352 433.95 352 440.9 352 457.95 352 460.9 428 460.9 428 495.85 466 495.85 466 460.9 504 460.9 504 457.95 504 440.9 504 433.95 M164.95 316.9 L164.95 240 92.95 240 92.95 205.05 55.95 205.05 55.95 240 19.95 240 19.95 290.6 19.95 294.95 19.95 316.9 19.95 323.85 19.95 347.9 55.95 347.9 55.95 384.85 92.95 384.85 92.95 347.9 164.95 347.9 164.95 323.85 164.95 316.9 M291 444.95 L291 363 215 363 215 328.05 177 328.05 177 363 139 363 139 444.95 139 451.9 139 471.9 177 471.9 177 506.85 215 506.85 215 471.9 291 471.9 291 451.9 291 444.95 M512 512 L0 512 0 0 512 0 512 512"/>
    <path stroke="none" fill="#E05848" d="M442.55 412.35 Q443.6 412.85 444.25 413.95 445.05 415.4 444.65 416.95 444.2 418.55 442.75 419.35 441.35 420.2 439.8 419.75 438.2 419.35 437.4 417.9 436.55 416.5 437 414.9 437.4 413.35 438.8 412.5 440.1 411.8 441.55 412.05 L441.85 412.1 442.55 412.35 M144.7 128.9 L144.7 132.85 139.7 133.3 140 127.85 140.55 128.05 Q142.35 128.75 144.7 128.9 M144.7 140.35 L144.7 142.6 Q144.7 143.75 143.85 144.55 143.05 145.4 141.9 145.4 140.75 145.4 139.9 144.55 139.1 143.75 139.1 142.6 L139.35 139.1 144.7 140.35 M108.75 286.55 Q109.15 286.95 109.15 287.45 109.15 287.95 108.75 288.3 108.4 288.7 107.9 288.7 107.4 288.7 107 288.3 106.65 287.95 106.65 287.45 106.65 286.95 107 286.55 107.4 286.2 107.9 286.2 108.4 286.2 108.75 286.55 M107.4 294.95 L107.55 294.8 Q108.7 293.65 110.35 293.65 112 293.65 113.15 294.8 L113.3 294.95 Q114.1 295.8 114.25 296.95 L114.3 297.6 114.3 297.75 Q114.25 299.3 113.15 300.4 112 301.55 110.35 301.55 108.7 301.55 107.55 300.4 106.4 299.25 106.4 297.6 106.4 296.05 107.4 294.95 M119.2 291.8 L119.2 292.05 Q119.2 292.75 118.7 293.2 118.25 293.7 117.55 293.7 116.85 293.7 116.35 293.2 115.95 292.8 115.9 292.2 L115.9 292.05 Q115.9 291.35 116.35 290.85 116.85 290.4 117.55 290.4 118.25 290.4 118.7 290.85 L119.2 291.8 M122.95 299.2 L123.2 300.3 Q123.2 301.3 122.5 302 121.8 302.7 120.8 302.7 119.8 302.7 119.1 302 118.4 301.3 118.4 300.3 118.4 299.3 119.1 298.6 L119.2 298.55 Q119.85 297.9 120.8 297.9 121.8 297.9 122.5 298.6 L122.95 299.2 M115.05 305.8 Q115.5 305.4 116.1 305.4 116.7 305.4 117.1 305.8 117.55 306.25 117.55 306.85 117.55 307.45 117.1 307.85 116.7 308.3 116.1 308.3 115.5 308.3 115.05 307.85 114.65 307.45 114.65 306.85 114.65 306.25 115.05 305.8 M102.55 304.15 Q103 304.6 103 305.25 103 305.9 102.55 306.35 102.1 306.8 101.45 306.8 100.8 306.8 100.35 306.35 99.9 305.9 99.9 305.25 99.9 304.6 100.35 304.15 100.8 303.7 101.45 303.7 102.1 303.7 102.55 304.15 M294.7 233.85 Q295.2 233.85 295.55 234.2 295.95 234.6 295.95 235.1 295.95 235.6 295.55 235.95 295.2 236.35 294.7 236.35 294.2 236.35 293.8 235.95 293.45 235.6 293.45 235.1 293.45 234.6 293.8 234.2 294.2 233.85 294.7 233.85 M303.15 238.5 Q303.65 238.05 304.35 238.05 305.05 238.05 305.5 238.5 306 239 306 239.7 306 240.4 305.5 240.85 305.05 241.35 304.35 241.35 303.65 241.35 303.15 240.85 302.7 240.4 302.7 239.7 302.7 239 303.15 238.5 M305.25 248.35 L305.2 247.95 Q305.2 246.95 305.9 246.25 306.6 245.55 307.6 245.55 308.6 245.55 309.3 246.25 310 246.95 310 247.95 310 248.95 309.3 249.65 308.6 250.35 307.6 250.35 306.6 250.35 305.9 249.65 L305.55 249.15 305.25 248.35 M300.5 247.4 L299.95 248.05 Q298.8 249.2 297.15 249.2 295.5 249.2 294.35 248.05 293.2 246.9 293.2 245.25 293.2 243.6 294.35 242.45 295.3 241.5 296.65 241.35 L297.15 241.3 Q298.8 241.3 299.95 242.45 301.1 243.6 301.1 245.25 301.1 246.45 300.5 247.4 M259 270.25 L260.15 270.1 Q260.8 270.25 261.1 270.85 261.45 271.4 261.25 272 261.15 272.6 260.55 272.9 L259.35 273.1 258.45 272.4 Q258.15 271.8 258.25 271.2 258.45 270.6 259 270.25 M246.7 271.4 L247.55 272.05 Q247.85 272.55 247.75 273.15 L247.05 274.05 245.95 274.2 Q245.3 274 245 273.5 244.7 273 244.9 272.45 245.05 271.85 245.6 271.55 L246.7 271.4 M257.85 281.35 Q256.45 282.2 254.9 281.75 253.3 281.35 252.5 279.9 251.65 278.5 252.1 276.9 252.5 275.35 253.9 274.5 255.35 273.7 256.95 274.1 258.5 274.55 259.35 275.95 260.15 277.4 259.75 278.95 259.3 280.55 257.85 281.35 M254.05 284.25 Q253.9 284.9 253.25 285.25 L252.05 285.45 Q251.35 285.25 251 284.65 250.65 284.05 250.9 283.4 251 282.75 251.6 282.4 L252.9 282.2 253.85 283 Q254.2 283.6 254.05 284.25 M245.95 282 Q245.45 281.15 245.7 280.2 245.95 279.25 246.8 278.75 247.7 278.25 248.65 278.5 249.6 278.75 250.1 279.6 250.6 280.5 250.35 281.45 250.1 282.4 249.2 282.9 248.35 283.4 247.4 283.15 246.45 282.9 245.95 282 M268.75 276.6 L267.8 276.7 267 276.1 Q266.75 275.65 266.95 275.15 267.05 274.65 267.5 274.4 L268.45 274.3 Q268.9 274.4 269.15 274.85 269.4 275.3 269.3 275.85 L268.75 276.6 M303.9 255.5 Q303.5 255.95 302.9 255.95 302.3 255.95 301.85 255.5 301.45 255.1 301.45 254.5 301.45 253.9 301.85 253.45 302.3 253.05 302.9 253.05 303.5 253.05 303.9 253.45 304.35 253.9 304.35 254.5 L303.9 255.5 M288.25 254.45 Q287.6 254.45 287.15 254 286.7 253.55 286.7 252.9 286.7 252.25 287.15 251.8 287.6 251.35 288.25 251.35 288.9 251.35 289.35 251.8 289.8 252.25 289.8 252.9 289.8 253.55 289.35 254 288.9 254.45 288.25 254.45 M451.85 413.15 Q451.95 412.65 452.4 412.4 L453.35 412.3 Q453.8 412.4 454.05 412.85 454.3 413.3 454.2 413.85 L453.65 414.6 452.7 414.7 Q452.15 414.55 451.9 414.1 451.65 413.65 451.85 413.15 M446.15 410 Q446.05 410.6 445.45 410.9 L444.25 411.1 443.35 410.4 Q443.05 409.8 443.15 409.2 443.35 408.6 443.9 408.25 L445.05 408.1 Q445.7 408.25 446 408.85 446.35 409.4 446.15 410 M432.65 411.15 L431.95 412.05 430.85 412.2 Q430.2 412 429.9 411.5 429.6 411 429.8 410.45 429.95 409.85 430.5 409.55 L431.6 409.4 Q432.15 409.55 432.45 410.05 432.75 410.55 432.65 411.15 M435.25 419.45 Q435 420.4 434.1 420.9 L432.3 421.15 Q431.35 420.9 430.85 420 430.35 419.15 430.6 418.2 430.85 417.25 431.7 416.75 432.6 416.25 433.55 416.5 434.5 416.75 435 417.6 435.5 418.5 435.25 419.45 M437.8 420.2 Q438.4 420.4 438.75 421 439.1 421.6 438.95 422.25 438.8 422.9 438.15 423.25 L436.95 423.45 Q436.25 423.25 435.9 422.65 435.55 422.05 435.8 421.4 435.9 420.75 436.5 420.4 L437.8 420.2"/>
    <path stroke="none" fill="#FFFFFF" d="M164.2 121.45 Q162.1 121.45 160.55 119.9 159.05 118.45 159.05 116.3 159.05 114.15 160.55 112.65 162.1 111.15 164.2 111.15 166.35 111.15 167.8 112.65 169.35 114.15 169.35 116.3 169.35 118.45 167.8 119.9 166.35 121.45 164.2 121.45 M144.7 132.85 L157.9 131.55 Q158.75 131.45 159.55 131.9 160.45 132.35 160.8 133.15 L160.9 133.4 155.35 137.25 159.55 142.25 158.2 143.1 156.65 143.15 144.7 140.35 139.35 139.1 Q138.25 138.8 137.6 138 137 137.1 137.1 136.05 137.1 134.95 137.85 134.2 138.6 133.4 139.7 133.3 L144.7 132.85 M124 112.65 Q125.55 111.15 127.7 111.15 129.8 111.15 131.25 112.65 132.8 114.15 132.8 116.3 132.8 118.45 131.25 119.9 129.8 121.45 127.7 121.45 125.55 121.45 124 119.9 122.55 118.45 122.55 116.3 122.55 114.15 124 112.65"/>
    <path stroke="none" fill="#333333" d="M330.95 136 L324.35 130.95 312.85 138 298.6 130.25 285.75 136.25 272.35 131.45 256.95 136 256.95 135.9 251.85 130.75 243.95 130.75 243.85 130.75 239.75 123.6 230.8 125.6 Q232.9 117.05 227.55 111.7 224.4 108.55 219.9 108.75 L216.05 109 215.8 108.95 215.6 108.95 Q213.95 108.95 212.7 112.2 211.5 115.3 211.5 119.7 L211.5 119.75 211.5 119.95 208.15 116.85 203.25 119.95 198.75 91.05 194.35 95.75 182.95 87.15 182.95 87 171.65 88.6 173.5 92.95 151 91.35 149.85 98.25 134.5 91 132.1 94.75 108.95 87 108.95 87.15 97.55 95.75 93.15 91.05 88.65 119.95 83.75 116.85 80.4 119.95 80.4 119.75 80.4 119.7 Q80.4 115.3 79.2 112.2 77.95 108.95 76.3 108.95 L76.1 108.95 75.85 109 72 108.75 Q67.5 108.55 64.35 111.7 59 117.05 61.1 125.6 L52.15 123.6 48.05 130.75 40.05 130.75 34.95 135.9 34.95 79 108.95 79 108.95 5 182.95 5 182.95 79 330.95 79 330.95 136 M166.4 101.35 L167.25 101.55 167.8 102.25 169.25 106.05 169.3 106.9 168.8 107.6 167.95 107.9 Q163.7 107.85 159.8 110.2 L159.05 110.4 158.3 110.2 157.8 109.6 156.65 106.9 156.6 106.05 157 105.3 Q160.95 101.8 166.4 101.35 M160.9 133.4 L161.05 134.9 160.2 140.7 Q160.1 141.55 159.55 142.2 L159.55 142.25 155.35 137.25 160.9 133.4 M135.3 105.25 L135.25 106.1 134.1 108.8 133.6 109.4 132.85 109.6 132.1 109.4 Q128.2 107.05 123.95 107.1 L123.1 106.8 Q122.7 106.55 122.6 106.1 122.5 105.65 122.65 105.25 L124.1 101.45 124.65 100.75 Q125.05 100.5 125.5 100.55 130.95 101 134.9 104.5 L135.3 105.25"/>
    <path stroke="none" fill="#694C39" d="M420.95 301 L420.95 312 311.95 312 311.95 348.95 237.95 348.95 237.95 312 201.95 312 201.95 301 242.15 301 245.1 297.85 248.45 301 266.45 301 266.45 312 283.4 312 283.4 301 292.25 301 295.35 296.85 299.6 301 420.95 301 M504 440.9 L504 457.95 352 457.95 352 440.9 504 440.9"/>
    <path stroke="none" fill="#C3DAE2" d="M283.4 301 L283.4 312 266.45 312 266.45 301 283.4 301"/>
    <path stroke="none" fill="#34495E" d="M353.95 122.95 L353.95 46.05 425.95 46.05 425.95 11.1 462.95 11.1 462.95 46.05 498.95 46.05 498.95 96.65 465.65 100.7 461.45 81.25 465.55 76.65 476.45 83.75 469.7 72 483.95 54.5 469.95 63.25 455.7 57.75 465.7 68.25 458.45 75.35 443.2 79.25 456.3 83.5 465.55 100.7 462.95 101 465.7 101 498.95 101 498.95 122.95 353.95 122.95 M369.05 71.2 L372.9 87.25 363.15 99 376.3 92.85 380.7 102 379.55 117.65 387.75 106.6 407.35 103.3 387.25 101 384.2 95.7 394.4 87.6 381.1 90.25 369.05 71.2 M425.95 101 L389.95 96.65 389.95 101 425.95 101 M420.95 301 L299.6 301 295.35 296.85 292.25 301 283.4 301 281 290.85 284.6 286.35 279.4 284.05 274.95 265.25 266.45 301 248.45 301 245.1 297.85 242.15 301 201.95 301 201.95 202 237.95 202 237.95 165.05 311.95 165.05 311.95 202 420.95 202 420.95 301 M19.95 290.6 L19.95 240 55.95 240 55.95 205.05 92.95 205.05 92.95 240 164.95 240 164.95 316.9 19.95 316.9 19.95 294.95 53.2 294.95 55.95 294.95 53.4 294.65 62.6 277.45 75.7 273.2 60.45 269.3 53.2 262.2 63.2 251.7 48.95 257.2 34.95 248.45 49.2 265.95 42.45 277.7 53.35 270.6 57.45 275.2 53.3 294.65 19.95 290.6 M108.75 286.55 Q108.4 286.2 107.9 286.2 107.4 286.2 107 286.55 106.65 286.95 106.65 287.45 106.65 287.95 107 288.3 107.4 288.7 107.9 288.7 108.4 288.7 108.75 288.3 109.15 287.95 109.15 287.45 109.15 286.95 108.75 286.55 M113.3 294.95 L128.95 294.95 128.95 290.6 119.2 291.8 118.7 290.85 Q118.25 290.4 117.55 290.4 116.85 290.4 116.35 290.85 115.9 291.35 115.9 292.05 L115.9 292.2 92.95 294.95 107.4 294.95 Q106.4 296.05 106.4 297.6 106.4 299.25 107.55 300.4 108.7 301.55 110.35 301.55 112 301.55 113.15 300.4 114.25 299.3 114.3 297.75 L119.2 298.55 119.1 298.6 Q118.4 299.3 118.4 300.3 118.4 301.3 119.1 302 119.8 302.7 120.8 302.7 121.8 302.7 122.5 302 123.2 301.3 123.2 300.3 L122.95 299.2 131.15 300.55 139.35 311.6 138.2 295.95 142.6 286.8 155.75 292.95 146 281.2 149.85 265.15 137.8 284.2 124.5 281.55 134.7 289.65 131.65 294.95 114.25 296.95 Q114.1 295.8 113.3 294.95 M102.55 304.15 Q102.1 303.7 101.45 303.7 100.8 303.7 100.35 304.15 99.9 304.6 99.9 305.25 99.9 305.9 100.35 306.35 100.8 306.8 101.45 306.8 102.1 306.8 102.55 306.35 103 305.9 103 305.25 103 304.6 102.55 304.15 M115.05 305.8 Q114.65 306.25 114.65 306.85 114.65 307.45 115.05 307.85 115.5 308.3 116.1 308.3 116.7 308.3 117.1 307.85 117.55 307.45 117.55 306.85 117.55 306.25 117.1 305.8 116.7 305.4 116.1 305.4 115.5 305.4 115.05 305.8 M300 202 L290.25 202 259.65 202 249.9 202 240.9 202 258.5 231.6 262.6 231.6 261.15 236.1 274.95 259.25 293.7 227.75 292.5 223.75 296.1 223.75 309 202 300 202 M303.15 238.5 Q302.7 239 302.7 239.7 302.7 240.4 303.15 240.85 303.65 241.35 304.35 241.35 305.05 241.35 305.5 240.85 306 240.4 306 239.7 306 239 305.5 238.5 305.05 238.05 304.35 238.05 303.65 238.05 303.15 238.5 M294.7 233.85 Q294.2 233.85 293.8 234.2 293.45 234.6 293.45 235.1 293.45 235.6 293.8 235.95 294.2 236.35 294.7 236.35 295.2 236.35 295.55 235.95 295.95 235.6 295.95 235.1 295.95 234.6 295.55 234.2 295.2 233.85 294.7 233.85 M305.25 248.35 L302.45 242.1 302.35 241.95 297.45 236.35 Q297.3 236.15 297 236.1 L296.45 236.2 295.3 237 295 237.4 295.05 237.95 296.65 241.35 Q295.3 241.5 294.35 242.45 293.2 243.6 293.2 245.25 293.2 246.9 294.35 248.05 295.5 249.2 297.15 249.2 298.8 249.2 299.95 248.05 L300.5 247.4 303.15 250.4 Q303.35 250.65 303.65 250.65 L304.2 250.55 305.2 249.8 305.5 249.4 305.55 249.15 305.9 249.65 Q306.6 250.35 307.6 250.35 308.6 250.35 309.3 249.65 310 248.95 310 247.95 310 246.95 309.3 246.25 308.6 245.55 307.6 245.55 306.6 245.55 305.9 246.25 305.2 246.95 305.2 247.95 L305.25 248.35 M252.35 245.4 L248 234.75 248 248.35 263.1 255.25 252.35 245.4 M245.95 282 Q246.45 282.9 247.4 283.15 248.35 283.4 249.2 282.9 250.1 282.4 250.35 281.45 250.6 280.5 250.1 279.6 249.6 278.75 248.65 278.5 247.7 278.25 246.8 278.75 245.95 279.25 245.7 280.2 245.45 281.15 245.95 282 M254.05 284.25 Q254.2 283.6 253.85 283 L252.9 282.2 251.6 282.4 Q251 282.75 250.9 283.4 250.65 284.05 251 284.65 251.35 285.25 252.05 285.45 L253.25 285.25 Q253.9 284.9 254.05 284.25 M257.85 281.35 Q259.3 280.55 259.75 278.95 260.15 277.4 259.35 275.95 258.5 274.55 256.95 274.1 255.35 273.7 253.9 274.5 252.5 275.35 252.1 276.9 251.65 278.5 252.5 279.9 253.3 281.35 254.9 281.75 256.45 282.2 257.85 281.35 M246.7 271.4 L245.6 271.55 Q245.05 271.85 244.9 272.45 244.7 273 245 273.5 245.3 274 245.95 274.2 L247.05 274.05 247.75 273.15 Q247.85 272.55 247.55 272.05 L246.7 271.4 M259 270.25 Q258.45 270.6 258.25 271.2 258.15 271.8 258.45 272.4 L259.35 273.1 260.55 272.9 Q261.15 272.6 261.25 272 261.45 271.4 261.1 270.85 260.8 270.25 260.15 270.1 L259 270.25 M261.15 287.7 L261.3 287.55 265.45 281.35 265.55 280.9 265.3 280.4 264.25 279.5 263.8 279.3 263.25 279.5 257.4 284.5 257.25 284.65 253.35 290.5 Q253.15 290.75 253.25 291.05 L253.45 291.6 254.45 292.35 254.9 292.55 255.45 292.35 261.15 287.7 M268.75 276.6 L269.3 275.85 Q269.4 275.3 269.15 274.85 268.9 274.4 268.45 274.3 L267.5 274.4 Q267.05 274.65 266.95 275.15 266.75 275.65 267 276.1 L267.8 276.7 268.75 276.6 M288.25 254.45 Q288.9 254.45 289.35 254 289.8 253.55 289.8 252.9 289.8 252.25 289.35 251.8 288.9 251.35 288.25 251.35 287.6 251.35 287.15 251.8 286.7 252.25 286.7 252.9 286.7 253.55 287.15 254 287.6 254.45 288.25 254.45 M303.9 255.5 L304.35 254.5 Q304.35 253.9 303.9 253.45 303.5 253.05 302.9 253.05 302.3 253.05 301.85 253.45 301.45 253.9 301.45 254.5 301.45 255.1 301.85 255.5 302.3 255.95 302.9 255.95 303.5 255.95 303.9 255.5 M298.75 275.5 L295.55 282.5 287.6 288.5 296.1 286.6 304.1 290 300.35 282.85 303.1 274.25 294.85 268 298.75 275.5"/>
    <path stroke="none" fill="#D9D9D9" d="M300 202 L296.1 210.05 287.85 205.8 290.25 202 300 202 M253.8 210.05 L249.9 202 259.65 202 262.1 205.8 253.8 210.05"/>
    <path stroke="none" fill="#283848" d="M253.8 210.05 L274.95 253.25 283 236.85 286.75 235.75 284.75 233.3 296.1 210.05 300 202 309 202 296.1 223.75 292.5 223.75 293.7 227.75 274.95 259.25 261.15 236.1 262.6 231.6 258.5 231.6 240.9 202 249.9 202 253.8 210.05 M296.65 241.35 L295.05 237.95 295 237.4 295.3 237 296.45 236.2 297 236.1 Q297.3 236.15 297.45 236.35 L302.35 241.95 302.45 242.1 305.25 248.35 305.55 249.15 305.5 249.4 305.2 249.8 304.2 250.55 303.65 250.65 Q303.35 250.65 303.15 250.4 L300.5 247.4 Q301.1 246.45 301.1 245.25 301.1 243.6 299.95 242.45 298.8 241.3 297.15 241.3 L296.65 241.35 M261.15 287.7 L255.45 292.35 254.9 292.55 254.45 292.35 253.45 291.6 253.25 291.05 Q253.15 290.75 253.35 290.5 L257.25 284.65 257.4 284.5 263.25 279.5 263.8 279.3 264.25 279.5 265.3 280.4 265.55 280.9 265.45 281.35 261.3 287.55 261.15 287.7 M266.45 301 L274.95 265.25 279.4 284.05 284.6 286.35 281 290.85 283.4 301 266.45 301"/>
    <path stroke="none" fill="#FAFAFA" d="M287.85 205.8 L296.1 210.05 284.75 233.3 286.75 235.75 283 236.85 274.95 253.25 253.8 210.05 262.1 205.8 274.95 226 281.5 215.75 285.85 216.6 285.05 210.2 287.85 205.8"/>
    <path stroke="none" fill="#1ABC9C" d="M135.3 105.25 L134.9 104.5 Q130.95 101 125.5 100.55 125.05 100.5 124.65 100.75 L124.1 101.45 122.65 105.25 Q122.5 105.65 122.6 106.1 122.7 106.55 123.1 106.8 L123.95 107.1 Q128.2 107.05 132.1 109.4 L132.85 109.6 133.6 109.4 134.1 108.8 135.25 106.1 135.3 105.25 M498.95 129.9 L498.95 153.95 462.95 153.95 462.95 190.9 425.95 190.9 425.95 153.95 353.95 153.95 353.95 129.9 363.85 129.9 368.3 125.45 372.75 129.9 404.85 129.9 409.3 125.45 413.75 129.9 477.35 129.9 483.8 123.45 490.25 129.9 498.95 129.9 M465.55 100.7 L456.3 83.5 443.2 79.25 458.45 75.35 465.7 68.25 455.7 57.75 469.95 63.25 483.95 54.5 469.7 72 476.45 83.75 465.55 76.65 461.45 81.25 465.65 100.7 465.7 101 465.55 100.7 M369.05 71.2 L381.1 90.25 394.4 87.6 384.2 95.7 387.25 101 407.35 103.3 387.75 106.6 379.55 117.65 380.7 102 376.3 92.85 363.15 99 372.9 87.25 369.05 71.2 M216.05 109 L219.9 108.75 Q224.4 108.55 227.55 111.7 232.9 117.05 230.8 125.6 L239.75 123.6 243.85 130.75 243.95 130.75 251.85 130.75 256.95 135.9 256.95 136 272.35 131.45 285.75 136.25 298.6 130.25 312.85 138 324.35 130.95 330.95 136 330.95 153 182.95 153 182.95 227 108.95 227 108.95 153 34.95 153 34.95 135.9 40.05 130.75 48.05 130.75 52.15 123.6 61.1 125.6 Q59 117.05 64.35 111.7 67.5 108.55 72 108.75 L75.85 109 Q71.9 109.4 69 112.2 65.9 115.3 65.9 119.7 L65.9 119.75 Q65.9 124.25 69 127.4 72 130.3 76.1 130.5 L76.3 130.5 Q77.95 130.5 79.2 127.4 80.35 124.3 80.4 119.95 L83.75 116.85 88.65 119.95 93.15 91.05 97.55 95.75 108.95 87.15 108.95 87 132.1 94.75 134.5 91 149.85 98.25 151 91.35 173.5 92.95 171.65 88.6 182.95 87 182.95 87.15 194.35 95.75 198.75 91.05 203.25 119.95 208.15 116.85 211.5 119.95 Q211.55 124.3 212.7 127.4 213.95 130.5 215.6 130.5 L215.8 130.5 Q219.9 130.3 222.9 127.4 226 124.25 226 119.75 L226 119.7 Q226 115.3 222.9 112.2 220 109.4 216.05 109 M440.5 402.95 L439.65 395.65 434.35 392.6 426.25 402.8 428.9 389.5 409.85 377.45 425.9 381.3 437.65 371.55 431.5 384.7 440.65 389.1 456.3 387.95 445.25 396.15 444.1 402.95 443.45 406.95 442.55 412.35 441.85 412.1 441.55 412.05 440.95 406.95 440.5 402.95 M166.4 101.35 Q160.95 101.8 157 105.3 L156.6 106.05 156.65 106.9 157.8 109.6 158.3 110.2 159.05 110.4 159.8 110.2 Q163.7 107.85 167.95 107.9 L168.8 107.6 169.3 106.9 169.25 106.05 167.8 102.25 167.25 101.55 166.4 101.35 M164.2 121.45 Q166.35 121.45 167.8 119.9 169.35 118.45 169.35 116.3 169.35 114.15 167.8 112.65 166.35 111.15 164.2 111.15 162.1 111.15 160.55 112.65 159.05 114.15 159.05 116.3 159.05 118.45 160.55 119.9 162.1 121.45 164.2 121.45 M173.15 123.5 L172.65 123.45 172.2 123.8 167.85 130.1 167.7 130.3 165.5 137 Q165.35 137.35 165.5 137.6 L165.85 138 167 138.5 167.5 138.55 167.95 138.25 172.3 132.25 172.4 132.1 174.8 125.05 174.75 124.55 174.4 124.1 173.15 123.5 M144.7 128.9 L145.95 128.9 146 128.9 Q149.25 128.9 151.5 128.05 153.75 127.15 153.75 125.95 L153.75 125.8 Q153.6 122.85 151.5 120.7 149.25 118.45 146 118.45 L145.95 118.45 Q142.8 118.45 140.55 120.7 138.45 122.85 138.2 125.8 L138.2 125.95 Q138.2 127 140 127.85 L139.7 133.3 Q138.6 133.4 137.85 134.2 137.1 134.95 137.1 136.05 137 137.1 137.6 138 138.25 138.8 139.35 139.1 L139.1 142.6 Q139.1 143.75 139.9 144.55 140.75 145.4 141.9 145.4 143.05 145.4 143.85 144.55 144.7 143.75 144.7 142.6 L144.7 140.35 156.65 143.15 158.2 143.1 159.55 142.25 159.55 142.2 Q160.1 141.55 160.2 140.7 L161.05 134.9 160.9 133.4 160.8 133.15 Q160.45 132.35 159.55 131.9 158.75 131.45 157.9 131.55 L144.7 132.85 144.7 128.9 M124 112.65 Q122.55 114.15 122.55 116.3 122.55 118.45 124 119.9 125.55 121.45 127.7 121.45 129.8 121.45 131.25 119.9 132.8 118.45 132.8 116.3 132.8 114.15 131.25 112.65 129.8 111.15 127.7 111.15 125.55 111.15 124 112.65 M128.1 134.75 L125.1 128 125 127.85 120.1 122.25 119.65 122 119.1 122.1 117.95 122.9 117.65 123.3 117.7 123.85 121 130.8 121.1 131 125.8 136.3 126.3 136.55 126.85 136.45 127.85 135.7 128.15 135.3 128.1 134.75 M53.3 294.65 L57.45 275.2 53.35 270.6 42.45 277.7 49.2 265.95 34.95 248.45 48.95 257.2 63.2 251.7 53.2 262.2 60.45 269.3 75.7 273.2 62.6 277.45 53.4 294.65 53.2 294.95 53.3 294.65 M164.95 323.85 L164.95 347.9 92.95 347.9 92.95 384.85 55.95 384.85 55.95 347.9 19.95 347.9 19.95 323.85 28.65 323.85 35.1 317.4 41.55 323.85 105.15 323.85 109.6 319.4 114.05 323.85 146.15 323.85 150.6 319.4 155.05 323.85 164.95 323.85 M114.3 297.75 L114.3 297.6 114.25 296.95 131.65 294.95 134.7 289.65 124.5 281.55 137.8 284.2 149.85 265.15 146 281.2 155.75 292.95 142.6 286.8 138.2 295.95 139.35 311.6 131.15 300.55 122.95 299.2 122.5 298.6 Q121.8 297.9 120.8 297.9 119.85 297.9 119.2 298.55 L114.3 297.75 M290.25 202 L287.85 205.8 285.05 210.2 285.85 216.6 281.5 215.75 274.95 226 262.1 205.8 259.65 202 290.25 202 M252.35 245.4 L263.1 255.25 248 248.35 248 234.75 252.35 245.4 M298.75 275.5 L294.85 268 303.1 274.25 300.35 282.85 304.1 290 296.1 286.6 287.6 288.5 295.55 282.5 298.75 275.5 M291 451.9 L291 471.9 215 471.9 215 506.85 177 506.85 177 471.9 139 471.9 139 451.9 291 451.9"/>
    <path stroke="none" fill="url(#gradient0)" d="M211.5 119.95 L211.5 119.75 211.5 119.7 Q211.5 115.3 212.7 112.2 213.95 108.95 215.6 108.95 L215.8 108.95 216.05 109 Q220 109.4 222.9 112.2 226 115.3 226 119.7 L226 119.75 Q226 124.25 222.9 127.4 219.9 130.3 215.8 130.5 L215.6 130.5 Q213.95 130.5 212.7 127.4 211.55 124.3 211.5 119.95"/>
    <path stroke="none" fill="url(#gradient1)" d="M75.85 109 L76.1 108.95 76.3 108.95 Q77.95 108.95 79.2 112.2 80.4 115.3 80.4 119.7 L80.4 119.75 80.4 119.95 Q80.35 124.3 79.2 127.4 77.95 130.5 76.3 130.5 L76.1 130.5 Q72 130.3 69 127.4 65.9 124.25 65.9 119.75 L65.9 119.7 Q65.9 115.3 69 112.2 71.9 109.4 75.85 109"/>
    <path stroke="none" fill="#138C74" d="M173.15 123.5 L174.4 124.1 174.75 124.55 174.8 125.05 172.4 132.1 172.3 132.25 167.95 138.25 167.5 138.55 167 138.5 165.85 138 165.5 137.6 Q165.35 137.35 165.5 137 L167.7 130.3 167.85 130.1 172.2 123.8 172.65 123.45 173.15 123.5 M140 127.85 Q138.2 127 138.2 125.95 L138.2 125.8 Q138.45 122.85 140.55 120.7 142.8 118.45 145.95 118.45 L146 118.45 Q149.25 118.45 151.5 120.7 153.6 122.85 153.75 125.8 L153.75 125.95 Q153.75 127.15 151.5 128.05 149.25 128.9 146 128.9 L145.95 128.9 144.7 128.9 Q142.35 128.75 140.55 128.05 L140 127.85 M128.1 134.75 L128.15 135.3 127.85 135.7 126.85 136.45 126.3 136.55 125.8 136.3 121.1 131 121 130.8 117.7 123.85 117.65 123.3 117.95 122.9 119.1 122.1 119.65 122 120.1 122.25 125 127.85 125.1 128 128.1 134.75"/>
    <path stroke="none" fill="#CDC09F" d="M444.1 402.95 L445.25 396.15 456.3 387.95 440.65 389.1 431.5 384.7 437.65 371.55 425.9 381.3 409.85 377.45 428.9 389.5 426.25 402.8 434.35 392.6 439.65 395.65 440.5 402.95 428 402.95 428 406.95 440.95 406.95 441.55 412.05 Q440.1 411.8 438.8 412.5 437.4 413.35 437 414.9 436.55 416.5 437.4 417.9 438.2 419.35 439.8 419.75 441.35 420.2 442.75 419.35 444.2 418.55 444.65 416.95 445.05 415.4 444.25 413.95 443.6 412.85 442.55 412.35 L443.45 406.95 466 406.95 502 406.95 466 402.6 466 402.95 444.1 402.95 M352 433.95 L352 352 428 352 428 317.05 466 317.05 466 352 504 352 504 433.95 352 433.95 M139 444.95 L139 363 177 363 177 328.05 215 328.05 215 363 291 363 291 444.95 139 444.95 M177 417.95 L215 417.95 215 413.95 177 413.95 177 413.6 141 417.95 177 417.95 M446.15 410 Q446.35 409.4 446 408.85 445.7 408.25 445.05 408.1 L443.9 408.25 Q443.35 408.6 443.15 409.2 443.05 409.8 443.35 410.4 L444.25 411.1 445.45 410.9 Q446.05 410.6 446.15 410 M451.85 413.15 Q451.65 413.65 451.9 414.1 452.15 414.55 452.7 414.7 L453.65 414.6 454.2 413.85 Q454.3 413.3 454.05 412.85 453.8 412.4 453.35 412.3 L452.4 412.4 Q451.95 412.65 451.85 413.15 M435.25 419.45 Q435.5 418.5 435 417.6 434.5 416.75 433.55 416.5 432.6 416.25 431.7 416.75 430.85 417.25 430.6 418.2 430.35 419.15 430.85 420 431.35 420.9 432.3 421.15 L434.1 420.9 Q435 420.4 435.25 419.45 M432.65 411.15 Q432.75 410.55 432.45 410.05 432.15 409.55 431.6 409.4 L430.5 409.55 Q429.95 409.85 429.8 410.45 429.6 411 429.9 411.5 430.2 412 430.85 412.2 L431.95 412.05 432.65 411.15 M437.8 420.2 L436.5 420.4 Q435.9 420.75 435.8 421.4 435.55 422.05 435.9 422.65 436.25 423.25 436.95 423.45 L438.15 423.25 Q438.8 422.9 438.95 422.25 439.1 421.6 438.75 421 438.4 420.4 437.8 420.2"/>
    <path stroke="none" fill="#2C3D4F" d="M498.95 96.65 L498.95 101 465.7 101 462.95 101 465.55 100.7 465.7 101 465.65 100.7 498.95 96.65 M498.95 122.95 L498.95 129.9 490.25 129.9 483.8 123.45 477.35 129.9 413.75 129.9 409.3 125.45 404.85 129.9 372.75 129.9 368.3 125.45 363.85 129.9 353.95 129.9 353.95 122.95 498.95 122.95 M425.95 101 L389.95 101 389.95 96.65 425.95 101 M19.95 290.6 L53.3 294.65 53.2 294.95 19.95 294.95 19.95 290.6 M53.4 294.65 L55.95 294.95 53.2 294.95 53.4 294.65 M19.95 316.9 L164.95 316.9 164.95 323.85 155.05 323.85 150.6 319.4 146.15 323.85 114.05 323.85 109.6 319.4 105.15 323.85 41.55 323.85 35.1 317.4 28.65 323.85 19.95 323.85 19.95 316.9 M113.3 294.95 L113.15 294.8 Q112 293.65 110.35 293.65 108.7 293.65 107.55 294.8 L107.4 294.95 92.95 294.95 115.9 292.2 Q115.95 292.8 116.35 293.2 116.85 293.7 117.55 293.7 118.25 293.7 118.7 293.2 119.2 292.75 119.2 292.05 L119.2 291.8 128.95 290.6 128.95 294.95 113.3 294.95"/>
    <path stroke="none" fill="#BDB192" d="M466 402.95 L466 402.6 502 406.95 466 406.95 466 402.95 M504 433.95 L504 440.9 352 440.9 352 433.95 504 433.95 M139 444.95 L291 444.95 291 451.9 139 451.9 139 444.95 M177 417.95 L141 417.95 177 413.6 177 413.95 177 417.95"/>
    <path stroke="none" fill="#876149" d="M504 457.95 L504 460.9 466 460.9 466 495.85 428 495.85 428 460.9 352 460.9 352 457.95 504 457.95"/>
    <path stroke="none" fill="#E2D4AF" d="M444.1 402.95 L466 402.95 466 406.95 443.45 406.95 444.1 402.95 M440.95 406.95 L428 406.95 428 402.95 440.5 402.95 440.95 406.95 M177 413.95 L215 413.95 215 417.95 177 417.95 177 413.95"/>
  </g>
</svg>