<svg xmlns="http://www.w3.org/2000/svg" xmlns:xlink="http://www.w3.org/1999/xlink">
  <defs>
    <linearGradient gradientUnits="userSpaceOnUse" x1="-819.2" x2="819.2" spreadMethod="pad" gradientTransform="matrix(-0.00885009765625 0 0 0.013153076171875 218.75 119.7)" id="gradient0">
      <stop offset="0" stop-color="#EECC98"/>
      <stop offset="1" stop-color="#FFE0B1"/>
    </linearGradient>
    <linearGradient gradientUnits="userSpaceOnUse" x1="-819.2" x2="819.2" spreadMethod="pad" gradientTransform="matrix(0.00885009765625 0 0 0.013153076171875 73.15 119.7)" id="gradient1">
      <stop offset="0" stop-color="#EECC98"/>
      <stop offset="1" stop-color="#FFE0B1"/>
    </linearGradient>
  </defs>
  <g>
    <path stroke="none" fill="#191919" d="M498.95 73.05 L498.95 66.1 498.95 46.05 462.95 46.05 462.95 11.1 425.95 11.1 425.95 46.05 353.95 46.05 353.95 66.1 353.95 73.05 353.95 153.95 425.95 153.95 425.95 190.9 462.95 190.9 462.95 153.95 498.95 153.95 498.95 101 498.95 96.65 498.95 73.05 M223.25 153 L330.95 153 330.95 79 182.95 79 182.95 5 108.95 5 108.95 79 34.95 79 34.95 153 71.95 153 108.95 153 108.95 227 182.95 227 182.95 153 223.25 153 M201.95 301 L201.95 312 237.95 312 237.95 348.95 311.95 348.95 311.95 312 420.95 312 420.95 301 420.95 202 311.95 202 311.95 165.05 237.95 165.05 237.95 202 201.95 202 201.95 301 M504 418.95 L504 352 466 352 466 317.05 428 317.05 428 352 352 352 352 418.95 352 425.9 352 457.95 352 460.9 428 460.9 428 495.85 466 495.85 466 460.9 504 460.9 504 457.95 504 425.9 504 418.95 M164.95 260.05 L164.95 240 92.95 240 92.95 205.05 55.95 205.05 55.95 240 19.95 240 19.95 260.05 19.95 267 19.95 290.6 19.95 294.95 19.95 325 19.95 332 19.95 347.9 55.95 347.9 55.95 384.85 92.95 384.85 92.95 347.9 164.95 347.9 164.95 332 164.95 325 164.95 267 164.95 260.05 M291 429.95 L291 363 215 363 215 328.05 177 328.05 177 363 139 363 139 429.95 139 436.9 139 468.95 139 471.9 177 471.9 177 506.85 215 506.85 215 471.9 291 471.9 291 468.95 291 436.9 291 429.95 M512 0 L512 512 0 512 0 0 512 0"/>
    <path stroke="none" fill="#333333" d="M504 425.9 L504 457.95 352 457.95 352 425.9 504 425.9 M291 436.9 L291 468.95 139 468.95 139 436.9 291 436.9"/>
    <path stroke="none" fill="#694C39" d="M71.95 153 L34.95 153 34.95 79 108.95 79 108.95 5 182.95 5 182.95 79 330.95 79 330.95 153 223.25 153 230.8 125.7 230.8 125.6 230.95 125.1 Q232.75 116.9 227.55 111.7 225.25 109.4 222.25 108.9 L219.95 108.6 215.25 108.95 Q209.1 110.25 204.45 116.1 198.65 86.95 182.95 84.75 165.9 83.4 150.7 95.65 135.5 107.9 108.95 106.5 93.7 105.1 87.45 116.1 81.1 108.1 71.95 108.6 L69.65 108.9 Q66.65 109.4 64.35 111.7 59 117.05 61.1 125.6 L61.25 126.3 71.95 153 M420.95 301 L420.95 312 311.95 312 311.95 348.95 237.95 348.95 237.95 312 201.95 312 201.95 301 266.45 301 266.45 312 283.4 312 283.4 301 420.95 301 M352 418.95 L352 352 428 352 428 317.05 466 317.05 466 352 504 352 504 418.95 352 418.95 M171.45 102.15 L171.35 104.5 171.1 105.4 170.25 105.9 169.3 105.85 Q166.25 104.75 160.2 104.75 L159.35 104.45 158.8 103.75 158.2 102.25 Q158.05 101.75 158.2 101.3 158.25 100.85 158.65 100.5 158.95 100.2 159.5 100.15 L170.2 100.6 Q170.8 100.7 171.2 101.2 L171.45 102.15 M167.3 119.9 Q165.85 121.45 163.7 121.45 161.6 121.45 160.05 119.9 158.55 118.45 158.55 116.3 158.55 114.15 160.05 112.65 161.6 111.15 163.7 111.15 165.85 111.15 167.3 112.65 168.85 114.15 168.85 116.3 168.85 118.45 167.3 119.9 M123.05 116.3 Q123.05 114.15 124.5 112.65 126.05 111.15 128.2 111.15 130.3 111.15 131.75 112.65 133.3 114.15 133.3 116.3 133.3 118.45 131.75 119.9 130.3 121.45 128.2 121.45 126.05 121.45 124.5 119.9 123.05 118.45 123.05 116.3 M164.95 325 L164.95 332 19.95 332 19.95 325 164.95 325 M139 429.95 L139 363 177 363 177 328.05 215 328.05 215 363 291 363 291 429.95 139 429.95 M279.4 308 L270.45 308 270.45 305 279.4 305 279.4 308 M177 417.95 L215 417.95 215 413.95 177 413.95 177 413.6 141 417.95 177 417.95 M466 406.95 L502 406.95 466 402.6 466 402.95 428 402.95 428 406.95 466 406.95"/>
    <path stroke="none" fill="#C3DAE2" d="M283.4 301 L283.4 312 266.45 312 266.45 301 283.4 301 M279.4 308 L279.4 305 270.45 305 270.45 308 279.4 308"/>
    <path stroke="none" fill="#FFE0B1" d="M498.95 73.05 L498.95 96.65 462.95 101 498.95 101 498.95 153.95 462.95 153.95 462.95 190.9 425.95 190.9 425.95 153.95 353.95 153.95 353.95 73.05 498.95 73.05 M223.25 153 L182.95 153 182.95 227 108.95 227 108.95 153 71.95 153 61.25 126.3 61.1 125.6 Q59 117.05 64.35 111.7 66.65 109.4 69.65 108.9 L71.95 108.6 Q81.1 108.1 87.45 116.1 93.7 105.1 108.95 106.5 135.5 107.9 150.7 95.65 165.9 83.4 182.95 84.75 198.65 86.95 204.45 116.1 209.1 110.25 215.25 108.95 L219.95 108.6 222.25 108.9 Q225.25 109.4 227.55 111.7 232.75 116.9 230.95 125.1 L230.8 125.6 230.8 125.7 223.25 153 M389.95 101 L425.95 101 389.95 96.65 389.95 101 M226 119.7 Q226 115.3 222.9 112.2 220 109.4 216.05 109 L213.65 110.35 212.7 112.2 Q211.5 115.3 211.5 119.7 L211.5 119.75 211.5 119.95 Q211.55 124.3 212.7 127.4 213.95 130.5 215.6 130.5 L215.8 130.5 Q219.9 130.3 222.9 127.4 226 124.25 226 119.75 L226 119.7 M171.45 102.15 L171.2 101.2 Q170.8 100.7 170.2 100.6 L159.5 100.15 Q158.95 100.2 158.65 100.5 158.25 100.85 158.2 101.3 158.05 101.75 158.2 102.25 L158.8 103.75 159.35 104.45 160.2 104.75 Q166.25 104.75 169.3 105.85 L170.25 105.9 171.1 105.4 171.35 104.5 171.45 102.15 M167.3 119.9 Q168.85 118.45 168.85 116.3 168.85 114.15 167.3 112.65 165.85 111.15 163.7 111.15 161.6 111.15 160.05 112.65 158.55 114.15 158.55 116.3 158.55 118.45 160.05 119.9 161.6 121.45 163.7 121.45 165.85 121.45 167.3 119.9 M75.85 109 Q71.9 109.4 69 112.2 65.9 115.3 65.9 119.7 L65.9 119.75 Q65.9 124.25 69 127.4 72 130.3 76.1 130.5 L76.3 130.5 Q77.95 130.5 79.2 127.4 80.35 124.3 80.4 119.95 L80.4 119.75 80.4 119.7 Q80.4 115.3 79.2 112.2 L78.25 110.35 75.85 109 M151.8 123.25 Q151.7 121.05 150.15 119.45 148.45 117.75 146 117.75 L145.95 117.75 Q143.6 117.75 141.9 119.45 140.35 121.05 140.15 123.25 L140.15 123.35 Q140.15 124.25 141.9 124.95 L145.95 125.6 146 125.6 Q148.45 125.6 150.15 124.95 151.8 124.25 151.8 123.35 L151.8 123.25 M123.05 116.3 Q123.05 118.45 124.5 119.9 126.05 121.45 128.2 121.45 130.3 121.45 131.75 119.9 133.3 118.45 133.3 116.3 133.3 114.15 131.75 112.65 130.3 111.15 128.2 111.15 126.05 111.15 124.5 112.65 123.05 114.15 123.05 116.3 M134.25 132.25 L132.95 133.75 Q132.4 134.35 132.45 135.2 132.5 136 133.1 136.55 137.65 140.75 147.9 140.3 148.7 140.25 149.25 139.65 149.85 139.05 149.8 138.2 L149.7 136.2 Q149.65 135.4 149.05 134.85 148.45 134.25 147.6 134.3 140.35 134.65 137.05 132.05 136.4 131.5 135.6 131.55 134.8 131.6 134.25 132.25 M164.95 267 L164.95 325 19.95 325 19.95 294.95 55.95 294.95 19.95 290.6 19.95 267 164.95 267 M164.95 332 L164.95 347.9 92.95 347.9 92.95 384.85 55.95 384.85 55.95 347.9 19.95 347.9 19.95 332 164.95 332 M128.95 294.95 L128.95 290.6 92.95 294.95 128.95 294.95 M291 213.05 Q284.35 219.75 274.95 219.75 265.55 219.75 258.85 213.05 254.05 208.25 252.7 202 L297.2 202 Q295.85 208.25 291 213.05"/>
    <path stroke="none" fill="#9B59B6" d="M353.95 66.1 L353.95 46.05 425.95 46.05 425.95 11.1 462.95 11.1 462.95 46.05 498.95 46.05 498.95 66.1 353.95 66.1 M420.95 301 L283.4 301 266.45 301 201.95 301 201.95 202 237.95 202 237.95 165.05 311.95 165.05 311.95 202 420.95 202 420.95 301 M19.95 260.05 L19.95 240 55.95 240 55.95 205.05 92.95 205.05 92.95 240 164.95 240 164.95 260.05 19.95 260.05 M291 213.05 Q295.85 208.25 297.2 202 L252.7 202 Q254.05 208.25 258.85 213.05 265.55 219.75 274.95 219.75 284.35 219.75 291 213.05 M244.45 233.65 Q243.8 230.7 244.6 228.1 L244.6 227.8 244.45 227.55 243.3 226.25 242.95 226 242.55 226.05 242.3 226.35 242.25 226.4 Q240.3 230.5 241.3 235.25 242.05 238.9 244.25 241.6 245.65 243.3 247.7 244.6 252.75 247.85 258.7 246.7 264.15 245.65 267.35 241.25 L267.5 240.8 267.3 240.45 266.6 239.8 266.15 239.6 265.7 239.8 Q263.1 242.55 259.2 243.3 254.05 244.3 249.85 241.5 245.45 238.65 244.45 233.65 M290.2 243.3 Q286.3 242.55 283.7 239.8 L283.3 239.6 Q283 239.6 282.85 239.8 L282.15 240.45 281.9 240.8 282.05 241.25 Q285.25 245.65 290.7 246.7 296.65 247.85 301.8 244.6 L304.4 242.45 Q307.25 239.5 308.1 235.25 309.15 230.5 307.15 226.4 L306.9 226.05 306.55 226 306.45 226 306.15 226.25 305 227.55 304.9 227.8 304.9 228.1 Q305.6 230.7 304.95 233.65 303.95 238.65 299.65 241.5 295.35 244.3 290.2 243.3"/>
    <path stroke="none" fill="#814A98" d="M498.95 66.1 L498.95 73.05 353.95 73.05 353.95 66.1 498.95 66.1 M19.95 260.05 L164.95 260.05 164.95 267 19.95 267 19.95 260.05 M290.2 243.3 Q295.35 244.3 299.65 241.5 303.95 238.65 304.95 233.65 305.6 230.7 304.9 228.1 L304.9 227.8 305 227.55 306.15 226.25 306.45 226 306.55 226 306.9 226.05 307.15 226.4 Q309.15 230.5 308.1 235.25 307.25 239.5 304.4 242.45 L301.8 244.6 Q296.65 247.85 290.7 246.7 285.25 245.65 282.05 241.25 L281.9 240.8 282.15 240.45 282.85 239.8 Q283 239.6 283.3 239.6 L283.7 239.8 Q286.3 242.55 290.2 243.3 M244.45 233.65 Q245.45 238.65 249.85 241.5 254.05 244.3 259.2 243.3 263.1 242.55 265.7 239.8 L266.15 239.6 266.6 239.8 267.3 240.45 267.5 240.8 267.35 241.25 Q264.15 245.65 258.7 246.7 252.75 247.85 247.7 244.6 245.65 243.3 244.25 241.6 242.05 238.9 241.3 235.25 240.3 230.5 242.25 226.4 L242.3 226.35 242.55 226.05 242.95 226 243.3 226.25 244.45 227.55 244.6 227.8 244.6 228.1 Q243.8 230.7 244.45 233.65"/>
    <path stroke="none" fill="#E7CBA0" d="M498.95 96.65 L498.95 101 462.95 101 498.95 96.65 M389.95 101 L389.95 96.65 425.95 101 389.95 101 M19.95 294.95 L19.95 290.6 55.95 294.95 19.95 294.95 M128.95 294.95 L92.95 294.95 128.95 290.6 128.95 294.95"/>
    <path stroke="none" fill="#876249" d="M504 418.95 L504 425.9 352 425.9 352 418.95 504 418.95 M139 429.95 L291 429.95 291 436.9 139 436.9 139 429.95"/>
    <path stroke="none" fill="#CDB68D" d="M504 457.95 L504 460.9 466 460.9 466 495.85 428 495.85 428 460.9 352 460.9 352 457.95 504 457.95 M291 468.95 L291 471.9 215 471.9 215 506.85 177 506.85 177 471.9 139 471.9 139 468.95 291 468.95"/>
    <path stroke="none" fill="#7E5A44" d="M177 413.95 L215 413.95 215 417.95 177 417.95 177 413.95 M466 402.95 L466 406.95 428 406.95 428 402.95 466 402.95"/>
    <path stroke="none" fill="#5B4231" d="M466 402.95 L466 402.6 502 406.95 466 406.95 466 402.95 M177 413.95 L177 417.95 141 417.95 177 413.6 177 413.95"/>
    <path stroke="none" fill="#EECC98" d="M151.8 123.25 L151.8 123.35 Q151.8 124.25 150.15 124.95 148.45 125.6 146 125.6 L145.95 125.6 141.9 124.95 Q140.15 124.25 140.15 123.35 L140.15 123.25 Q140.35 121.05 141.9 119.45 143.6 117.75 145.95 117.75 L146 117.75 Q148.45 117.75 150.15 119.45 151.7 121.05 151.8 123.25 M134.25 132.25 Q134.8 131.6 135.6 131.55 136.4 131.5 137.05 132.05 140.35 134.65 147.6 134.3 148.45 134.25 149.05 134.85 149.65 135.4 149.7 136.2 L149.8 138.2 Q149.85 139.05 149.25 139.65 148.7 140.25 147.9 140.3 137.65 140.75 133.1 136.55 132.5 136 132.45 135.2 132.4 134.35 132.95 133.75 L134.25 132.25"/>
    <path stroke="none" fill="url(#gradient0)" d="M226 119.7 L226 119.75 Q226 124.25 222.9 127.4 219.9 130.3 215.8 130.5 L215.6 130.5 Q213.95 130.5 212.7 127.4 211.55 124.3 211.5 119.95 L211.5 119.75 211.5 119.7 Q211.5 115.3 212.7 112.2 L213.65 110.35 216.05 109 Q220 109.4 222.9 112.2 226 115.3 226 119.7"/>
    <path stroke="none" fill="url(#gradient1)" d="M75.85 109 L78.25 110.35 79.2 112.2 Q80.4 115.3 80.4 119.7 L80.4 119.75 80.4 119.95 Q80.35 124.3 79.2 127.4 77.95 130.5 76.3 130.5 L76.1 130.5 Q72 130.3 69 127.4 65.9 124.25 65.9 119.75 L65.9 119.7 Q65.9 115.3 69 112.2 71.9 109.4 75.85 109"/>
    <path stroke="none" fill="#694C39" d="M238.4 242.45 L238.3 241.85 Q238.45 221.65 244.75 202 L264.2 202 264.9 205.8 267.55 233.6 267.5 234.05 267.5 234.2 267.5 234.25 267.35 234.5 266.75 235.2 Q255.6 243.6 240.35 243.85 L239.35 243.6 238.6 242.85 238.4 242.45 M282.85 234.2 L282.8 234.05 282.75 233.6 285.4 205.8 286.15 202 305.55 202 Q311.85 221.65 312 241.85 L311.9 242.45 311.7 242.85 310.95 243.6 309.95 243.85 Q294.7 243.6 283.55 235.2 L282.95 234.5 282.85 234.2"/>
    <path stroke="none" fill="#000000" fill-opacity="0.10196078431372549" d="M311.9 242.45 L312 246.85 311.7 247.8 310.95 248.4 309.95 248.5 Q294.7 245.65 283.55 235.35 L282.95 234.55 282.85 234.2 282.95 234.5 283.55 235.2 Q294.7 243.6 309.95 243.85 L310.95 243.6 311.7 242.85 311.9 242.45 M238.4 242.45 L238.6 242.85 239.35 243.6 240.35 243.85 Q255.6 243.6 266.75 235.2 L267.35 234.5 267.5 234.25 267.35 234.55 266.75 235.35 Q255.6 245.65 240.35 248.5 L239.35 248.4 Q238.85 248.2 238.6 247.8 L238.3 246.85 238.4 242.45"/>
  </g>
</svg>