<svg xmlns="http://www.w3.org/2000/svg" xmlns:xlink="http://www.w3.org/1999/xlink">
  <defs>
    <linearGradient gradientUnits="userSpaceOnUse" x1="-819.2" x2="819.2" spreadMethod="pad" gradientTransform="matrix(-0.00885009765625 0 0 0.013153076171875 218.75 119.7)" id="gradient0">
      <stop offset="0" stop-color="#EECC98"/>
      <stop offset="1" stop-color="#FFE0B1"/>
    </linearGradient>
    <linearGradient gradientUnits="userSpaceOnUse" x1="-819.2" x2="819.2" spreadMethod="pad" gradientTransform="matrix(0.00885009765625 0 0 0.013153076171875 73.15 119.7)" id="gradient1">
      <stop offset="0" stop-color="#EECC98"/>
      <stop offset="1" stop-color="#FFE0B1"/>
    </linearGradient>
  </defs>
  <g>
    <path stroke="none" fill="#191919" d="M498.95 96.65 L498.95 46.05 462.95 46.05 462.95 11.1 425.95 11.1 425.95 46.05 353.95 46.05 353.95 106.1 353.95 113.05 353.95 126.95 353.95 153.95 425.95 153.95 425.95 190.9 462.95 190.9 462.95 153.95 498.95 153.95 498.95 126.95 498.95 113.05 498.95 106.1 498.95 101 498.95 96.65 M256.95 153 L330.95 153 330.95 79 182.95 79 182.95 5 108.95 5 108.95 79 34.95 79 34.95 153 108.95 153 108.95 227 182.95 227 182.95 153 256.95 153 M201.95 306 L201.95 312 237.95 312 237.95 348.95 311.95 348.95 311.95 312 420.95 312 420.95 306 420.95 202 311.95 202 311.95 165.05 237.95 165.05 237.95 202 201.95 202 201.95 306 M504 418.95 L504 352 466 352 466 317.05 428 317.05 428 352 352 352 352 418.95 352 425.9 352 457.95 352 460.9 428 460.9 428 495.85 466 495.85 466 460.9 504 460.9 504 457.95 504 425.9 504 418.95 M164.95 300.05 L164.95 240 92.95 240 92.95 205.05 55.95 205.05 55.95 240 19.95 240 19.95 290.6 19.95 294.95 19.95 300.05 19.95 307 19.95 320.9 19.95 347.9 55.95 347.9 55.95 384.85 92.95 384.85 92.95 347.9 164.95 347.9 164.95 320.9 164.95 307 164.95 300.05 M291 429.95 L291 363 215 363 215 328.05 177 328.05 177 363 139 363 139 429.95 139 436.9 139 468.95 139 471.9 177 471.9 177 506.85 215 506.85 215 471.9 291 471.9 291 468.95 291 436.9 291 429.95 M512 0 L512 512 0 512 0 0 512 0"/>
    <path stroke="none" fill="#FFFFFF" d="M498.95 113.05 L498.95 126.95 353.95 126.95 353.95 113.05 498.95 113.05 M138.7 137.75 Q137.55 136.4 136.75 134.65 L157.05 133.45 157 133.65 156.55 134.55 155.35 136.8 138.7 137.75 M164.95 307 L164.95 320.9 19.95 320.9 19.95 307 164.95 307"/>
    <path stroke="none" fill="#C6B088" d="M34.95 153 L34.95 79 108.95 79 108.95 5 182.95 5 182.95 79 330.95 79 330.95 153 256.95 153 Q226.75 144.1 230.8 125.6 232.9 117.05 227.55 111.7 224.4 108.55 219.9 108.75 L216.05 109 214.8 109.2 Q199.85 116.25 182.95 117.5 L182.95 117.45 167.35 116.75 Q162.15 115.85 157.6 113.95 148.2 110.1 141.2 102.25 126 85.15 108.95 87 L108.95 87.15 Q96.6 90.65 93.2 101.15 89.15 113.7 77.55 109.45 76.95 108.95 76.3 108.95 L76.1 108.95 75.85 109 72 108.75 Q67.5 108.55 64.35 111.7 59 117.05 61.1 125.6 64.6 146.05 34.95 153"/>
    <path stroke="none" fill="#694C39" d="M157.6 113.95 Q162.15 115.85 167.35 116.75 167.2 118.6 165.8 119.9 164.35 121.45 162.2 121.45 160.1 121.45 158.55 119.9 157.05 118.45 157.05 116.3 157.05 115 157.6 113.95 M420.95 306 L420.95 312 311.95 312 311.95 348.95 237.95 348.95 237.95 312 201.95 312 201.95 306 420.95 306 M504 425.9 L504 457.95 352 457.95 352 425.9 504 425.9 M126 119.9 Q124.55 118.45 124.55 116.3 124.55 114.15 126 112.65 127.55 111.15 129.7 111.15 131.8 111.15 133.25 112.65 134.8 114.15 134.8 116.3 134.8 118.45 133.25 119.9 131.8 121.45 129.7 121.45 127.55 121.45 126 119.9 M291 436.9 L291 468.95 139 468.95 139 436.9 291 436.9"/>
    <path stroke="none" fill="#FFE0B1" d="M498.95 126.95 L498.95 153.95 462.95 153.95 462.95 190.9 425.95 190.9 425.95 153.95 353.95 153.95 353.95 126.95 498.95 126.95 M256.95 153 L182.95 153 182.95 227 108.95 227 108.95 153 34.95 153 Q64.6 146.05 61.1 125.6 59 117.05 64.35 111.7 67.5 108.55 72 108.75 L75.85 109 Q71.9 109.4 69 112.2 65.9 115.3 65.9 119.7 L65.9 119.75 Q65.9 124.25 69 127.4 72 130.3 76.1 130.5 L76.3 130.5 Q77.95 130.5 79.2 127.4 80.35 124.3 80.4 119.95 L80.4 119.75 80.4 119.7 Q80.4 115.3 79.2 112.2 78.45 110.2 77.55 109.45 89.15 113.7 93.2 101.15 96.6 90.65 108.95 87.15 L108.95 87 Q126 85.15 141.2 102.25 148.2 110.1 157.6 113.95 157.05 115 157.05 116.3 157.05 118.45 158.55 119.9 160.1 121.45 162.2 121.45 164.35 121.45 165.8 119.9 167.2 118.6 167.35 116.75 L182.95 117.45 182.95 117.5 Q199.85 116.25 214.8 109.2 L216.05 109 219.9 108.75 Q224.4 108.55 227.55 111.7 232.9 117.05 230.8 125.6 226.75 144.1 256.95 153 M216.05 109 L213.65 110.35 212.7 112.2 Q211.5 115.3 211.5 119.7 L211.5 119.75 211.5 119.95 Q211.55 124.3 212.7 127.4 213.95 130.5 215.6 130.5 L215.8 130.5 Q219.9 130.3 222.9 127.4 226 124.25 226 119.75 L226 119.7 Q226 115.3 222.9 112.2 220 109.4 216.05 109 M219.15 133.15 Q218.25 132.25 217 132.25 215.8 132.25 214.9 133.15 214 134.05 214 135.25 214 136.5 214.9 137.4 215.8 138.25 217 138.25 218.25 138.25 219.15 137.4 220 136.5 220 135.25 220 134.05 219.15 133.15 M79.15 133.15 Q78.25 132.25 77 132.25 75.8 132.25 74.9 133.15 74 134.05 74 135.25 74 136.5 74.9 137.4 75.8 138.25 77 138.25 78.25 138.25 79.15 137.4 80 136.5 80 135.25 80 134.05 79.15 133.15 M150.15 122.45 Q148.45 120.75 146 120.75 L145.95 120.75 Q143.6 120.75 141.9 122.45 140.35 124.05 140.15 126.25 L140.15 126.35 Q140.15 127.25 141.9 127.95 L145.95 128.6 146 128.6 Q148.45 128.6 150.15 127.95 151.8 127.25 151.8 126.35 L151.8 126.25 Q151.7 124.05 150.15 122.45 M134.3 103.75 L134.9 102.25 134.9 101.3 Q134.85 100.85 134.45 100.5 134.15 100.2 133.6 100.15 L122.9 100.6 Q122.3 100.7 121.9 101.2 121.65 101.65 121.65 102.15 L121.75 104.5 Q121.7 104.95 122 105.4 122.35 105.8 122.85 105.9 L123.8 105.85 Q126.85 104.75 132.9 104.75 L133.75 104.45 134.3 103.75 M126 119.9 Q127.55 121.45 129.7 121.45 131.8 121.45 133.25 119.9 134.8 118.45 134.8 116.3 134.8 114.15 133.25 112.65 131.8 111.15 129.7 111.15 127.55 111.15 126 112.65 124.55 114.15 124.55 116.3 124.55 118.45 126 119.9 M155.35 136.8 L156.55 134.55 157 133.65 157.05 133.45 136.75 134.65 Q137.55 136.4 138.7 137.75 140.2 139.4 142.4 140.25 146.5 142 150.65 140.25 153.6 139.15 155.35 136.8 M164.95 320.9 L164.95 347.9 92.95 347.9 92.95 384.85 55.95 384.85 55.95 347.9 19.95 347.9 19.95 320.9 164.95 320.9 M291 213.05 Q284.35 219.75 274.95 219.75 265.55 219.75 258.85 213.05 254.05 208.25 252.7 202 L297.2 202 Q295.85 208.25 291 213.05"/>
    <path stroke="none" fill="#876249" d="M504 418.95 L504 425.9 352 425.9 352 418.95 504 418.95 M504 457.95 L504 460.9 466 460.9 466 495.85 428 495.85 428 460.9 352 460.9 352 457.95 504 457.95 M139 429.95 L291 429.95 291 436.9 139 436.9 139 429.95 M291 468.95 L291 471.9 215 471.9 215 506.85 177 506.85 177 471.9 139 471.9 139 468.95 291 468.95"/>
    <path stroke="none" fill="#CDB68D" d="M352 418.95 L352 352 428 352 428 317.05 466 317.05 466 352 504 352 504 418.95 352 418.95 M139 429.95 L139 363 177 363 177 328.05 215 328.05 215 363 291 363 291 429.95 139 429.95 M177 417.95 L215 417.95 215 413.95 177 413.95 177 413.6 141 417.95 177 417.95 M466 406.95 L502 406.95 466 402.6 466 402.95 428 402.95 428 406.95 466 406.95"/>
    <path stroke="none" fill="#EECC98" d="M150.15 122.45 Q151.7 124.05 151.8 126.25 L151.8 126.35 Q151.8 127.25 150.15 127.95 148.45 128.6 146 128.6 L145.95 128.6 141.9 127.95 Q140.15 127.25 140.15 126.35 L140.15 126.25 Q140.35 124.05 141.9 122.45 143.6 120.75 145.95 120.75 L146 120.75 Q148.45 120.75 150.15 122.45"/>
    <path stroke="none" fill="url(#gradient0)" d="M216.05 109 Q220 109.4 222.9 112.2 226 115.3 226 119.7 L226 119.75 Q226 124.25 222.9 127.4 219.9 130.3 215.8 130.5 L215.6 130.5 Q213.95 130.5 212.7 127.4 211.55 124.3 211.5 119.95 L211.5 119.75 211.5 119.7 Q211.5 115.3 212.7 112.2 L213.65 110.35 216.05 109"/>
    <path stroke="none" fill="url(#gradient1)" d="M75.85 109 L76.1 108.95 76.3 108.95 Q76.95 108.95 77.55 109.45 78.45 110.2 79.2 112.2 80.4 115.3 80.4 119.7 L80.4 119.75 80.4 119.95 Q80.35 124.3 79.2 127.4 77.95 130.5 76.3 130.5 L76.1 130.5 Q72 130.3 69 127.4 65.9 124.25 65.9 119.75 L65.9 119.7 Q65.9 115.3 69 112.2 71.9 109.4 75.85 109"/>
    <path stroke="none" fill="#1ABC9C" d="M353.95 106.1 L353.95 46.05 425.95 46.05 425.95 11.1 462.95 11.1 462.95 46.05 498.95 46.05 498.95 96.65 462.95 101 498.95 101 498.95 106.1 353.95 106.1 M425.95 101 L389.95 96.65 389.95 101 425.95 101 M420.95 306 L201.95 306 201.95 202 237.95 202 237.95 165.05 311.95 165.05 311.95 202 420.95 202 420.95 306 M219.15 133.15 Q220 134.05 220 135.25 220 136.5 219.15 137.4 218.25 138.25 217 138.25 215.8 138.25 214.9 137.4 214 136.5 214 135.25 214 134.05 214.9 133.15 215.8 132.25 217 132.25 218.25 132.25 219.15 133.15 M79.15 133.15 Q80 134.05 80 135.25 80 136.5 79.15 137.4 78.25 138.25 77 138.25 75.8 138.25 74.9 137.4 74 136.5 74 135.25 74 134.05 74.9 133.15 75.8 132.25 77 132.25 78.25 132.25 79.15 133.15 M19.95 290.6 L19.95 240 55.95 240 55.95 205.05 92.95 205.05 92.95 240 164.95 240 164.95 300.05 19.95 300.05 19.95 294.95 55.95 294.95 19.95 290.6 M128.95 294.95 L128.95 290.6 92.95 294.95 128.95 294.95 M291 213.05 Q295.85 208.25 297.2 202 L252.7 202 Q254.05 208.25 258.85 213.05 265.55 219.75 274.95 219.75 284.35 219.75 291 213.05 M259.2 243.3 Q254.05 244.3 249.85 241.5 245.45 238.65 244.45 233.65 243.8 230.7 244.6 228.1 L244.6 227.8 244.45 227.55 243.3 226.25 242.95 226 242.55 226.05 242.3 226.35 242.25 226.4 Q240.3 230.5 241.3 235.25 242.05 238.9 244.25 241.6 245.65 243.3 247.7 244.6 252.75 247.85 258.7 246.7 264.15 245.65 267.35 241.25 L267.5 240.8 267.3 240.45 266.6 239.8 266.15 239.6 265.7 239.8 Q263.1 242.55 259.2 243.3 M290.7 246.7 Q296.65 247.85 301.8 244.6 L304.4 242.45 Q307.25 239.5 308.1 235.25 309.15 230.5 307.15 226.4 L306.9 226.05 306.55 226 306.45 226 306.15 226.25 305 227.55 304.9 227.8 304.9 228.1 Q305.6 230.7 304.95 233.65 303.95 238.65 299.65 241.5 295.35 244.3 290.2 243.3 286.3 242.55 283.7 239.8 L283.3 239.6 Q283 239.6 282.85 239.8 L282.15 240.45 281.9 240.8 282.05 241.25 Q285.25 245.65 290.7 246.7"/>
    <path stroke="none" fill="#D4BD92" d="M177 413.95 L215 413.95 215 417.95 177 417.95 177 413.95 M466 406.95 L428 406.95 428 402.95 466 402.95 466 406.95"/>
    <path stroke="none" fill="#B4A07B" d="M466 406.95 L466 402.95 466 402.6 502 406.95 466 406.95 M177 413.95 L177 417.95 141 417.95 177 413.6 177 413.95"/>
    <path stroke="none" fill="#17AD8F" d="M498.95 96.65 L498.95 101 462.95 101 498.95 96.65 M498.95 106.1 L498.95 113.05 353.95 113.05 353.95 106.1 498.95 106.1 M425.95 101 L389.95 101 389.95 96.65 425.95 101 M19.95 290.6 L55.95 294.95 19.95 294.95 19.95 290.6 M19.95 300.05 L164.95 300.05 164.95 307 19.95 307 19.95 300.05 M128.95 294.95 L92.95 294.95 128.95 290.6 128.95 294.95"/>
    <path stroke="none" fill="#15A387" d="M290.7 246.7 Q285.25 245.65 282.05 241.25 L281.9 240.8 282.15 240.45 282.85 239.8 Q283 239.6 283.3 239.6 L283.7 239.8 Q286.3 242.55 290.2 243.3 295.35 244.3 299.65 241.5 303.95 238.65 304.95 233.65 305.6 230.7 304.9 228.1 L304.9 227.8 305 227.55 306.15 226.25 306.45 226 306.55 226 306.9 226.05 307.15 226.4 Q309.15 230.5 308.1 235.25 307.25 239.5 304.4 242.45 L301.8 244.6 Q296.65 247.85 290.7 246.7 M259.2 243.3 Q263.1 242.55 265.7 239.8 L266.15 239.6 266.6 239.8 267.3 240.45 267.5 240.8 267.35 241.25 Q264.15 245.65 258.7 246.7 252.75 247.85 247.7 244.6 245.65 243.3 244.25 241.6 242.05 238.9 241.3 235.25 240.3 230.5 242.25 226.4 L242.3 226.35 242.55 226.05 242.95 226 243.3 226.25 244.45 227.55 244.6 227.8 244.6 228.1 Q243.8 230.7 244.45 233.65 245.45 238.65 249.85 241.5 254.05 244.3 259.2 243.3"/>
    <path stroke="none" fill="#5D544E" d="M134.3 103.75 L133.75 104.45 132.9 104.75 Q126.85 104.75 123.8 105.85 L122.85 105.9 Q122.35 105.8 122 105.4 121.7 104.95 121.75 104.5 L121.65 102.15 Q121.65 101.65 121.9 101.2 122.3 100.7 122.9 100.6 L133.6 100.15 Q134.15 100.2 134.45 100.5 134.85 100.85 134.9 101.3 L134.9 102.25 134.3 103.75"/>
    <path stroke="none" fill="#4D4743" d="M138.7 137.75 L155.35 136.8 Q153.6 139.15 150.65 140.25 146.5 142 142.4 140.25 140.2 139.4 138.7 137.75"/>
    <path stroke="none" fill="#000000" fill-opacity="0.10196078431372549" d="M238.65 255.2 L238.85 255.6 239.6 256.35 240.6 256.6 Q255.85 256.35 267 247.95 L267.6 247.25 267.75 246.8 267.6 247.3 267 248.1 Q255.85 258.4 240.6 261.25 L239.6 261.15 238.85 260.55 Q238.55 260.1 238.55 259.6 L238.65 255.2"/>
    <path stroke="none" fill="#CDB68D" d="M238.65 255.2 L238.55 254.6 Q238.75 227.85 249.75 202 L261.2 202 Q263.65 210.1 265.15 218.55 L267.8 246.35 267.75 246.8 267.6 247.25 267 247.95 Q255.85 256.35 240.6 256.6 L239.6 256.35 238.85 255.6 238.65 255.2"/>
  </g>
</svg>