<svg xmlns="http://www.w3.org/2000/svg" xmlns:xlink="http://www.w3.org/1999/xlink">
  <defs>
    <linearGradient gradientUnits="userSpaceOnUse" x1="-819.2" x2="819.2" spreadMethod="pad" gradientTransform="matrix(-0.00885009765625 0 0 0.013153076171875 218.75 119.7)" id="gradient0">
      <stop offset="0" stop-color="#EECC98"/>
      <stop offset="1" stop-color="#FFE0B1"/>
    </linearGradient>
    <linearGradient gradientUnits="userSpaceOnUse" x1="-819.2" x2="819.2" spreadMethod="pad" gradientTransform="matrix(0.00885009765625 0 0 0.013153076171875 73.15 119.7)" id="gradient1">
      <stop offset="0" stop-color="#EECC98"/>
      <stop offset="1" stop-color="#FFE0B1"/>
    </linearGradient>
  </defs>
  <g>
    <path stroke="none" fill="#191919" d="M498.95 96.65 L498.95 46.05 462.95 46.05 462.95 11.1 425.95 11.1 425.95 46.05 353.95 46.05 353.95 122.95 353.95 129.9 353.95 153.95 425.95 153.95 425.95 190.9 462.95 190.9 462.95 153.95 498.95 153.95 498.95 129.9 498.95 122.95 498.95 101 498.95 96.65 M34.95 135.9 L34.95 153 108.95 153 108.95 227 182.95 227 182.95 153 330.95 153 330.95 136 330.95 79 182.95 79 182.95 5 108.95 5 108.95 79 34.95 79 34.95 135.9 M201.95 301 L201.95 312 237.95 312 237.95 348.95 311.95 348.95 311.95 312 420.95 312 420.95 301 420.95 202 311.95 202 311.95 165.05 237.95 165.05 237.95 202 201.95 202 201.95 301 M504 433.95 L504 352 466 352 466 317.05 428 317.05 428 352 352 352 352 433.95 352 440.9 352 457.95 352 460.9 428 460.9 428 495.85 466 495.85 466 460.9 504 460.9 504 457.95 504 440.9 504 433.95 M164.95 316.9 L164.95 240 92.95 240 92.95 205.05 55.95 205.05 55.95 240 19.95 240 19.95 290.6 19.95 294.95 19.95 316.9 19.95 323.85 19.95 347.9 55.95 347.9 55.95 384.85 92.95 384.85 92.95 347.9 164.95 347.9 164.95 323.85 164.95 316.9 M291 444.95 L291 363 215 363 215 328.05 177 328.05 177 363 139 363 139 444.95 139 451.9 139 468.95 139 471.9 177 471.9 177 506.85 215 506.85 215 471.9 291 471.9 291 468.95 291 451.9 291 444.95 M512 0 L512 512 0 512 0 0 512 0"/>
    <path stroke="none" fill="#E05848" d="M353.95 122.95 L353.95 46.05 425.95 46.05 425.95 11.1 462.95 11.1 462.95 46.05 498.95 46.05 498.95 96.65 462.95 101 498.95 101 498.95 122.95 353.95 122.95 M425.95 101 L389.95 96.65 389.95 101 425.95 101 M420.95 301 L294.35 301 297.4 283.25 288.2 274.75 261.5 274.75 252.4 283.25 255.4 301 201.95 301 201.95 202 237.95 202 237.95 165.05 311.95 165.05 311.95 202 420.95 202 420.95 301 M19.95 290.6 L19.95 240 55.95 240 55.95 205.05 92.95 205.05 92.95 240 164.95 240 164.95 316.9 19.95 316.9 19.95 294.95 55.95 294.95 19.95 290.6 M128.95 294.95 L128.95 290.6 92.95 294.95 128.95 294.95 M291.95 229.5 L291.95 202 288.1 202 288.1 229.5 285.3 240.45 290 246.05 294.75 240.45 291.95 229.5 M261.8 229.5 L261.8 202 257.95 202 257.95 229.5 255.15 240.45 259.85 246.05 264.6 240.45 261.8 229.5"/>
    <path stroke="none" fill="#FFFFFF" d="M162.35 132.15 Q163.7 133.5 163.7 135.45 L163.7 135.5 Q163.7 137.45 162.35 138.8 161 140.15 159.05 140.15 L132 140.15 Q130.05 140.15 128.7 138.8 127.35 137.45 127.35 135.5 L127.35 135.45 Q127.35 133.5 128.7 132.15 130.05 130.8 132 130.8 L159.05 130.8 Q161 130.8 162.35 132.15"/>
    <path stroke="none" fill="#694C39" d="M80.4 119.95 L80.4 119.75 80.4 119.7 Q80.4 115.3 79.2 112.2 77.95 108.95 76.3 108.95 L76.1 108.95 75.85 109 72 108.75 Q67.5 108.55 64.35 111.7 59 117.05 61.1 125.6 L34.95 135.9 34.95 79 108.95 79 108.95 5 182.95 5 182.95 79 330.95 79 330.95 136 256.95 136 256.95 135.9 230.8 125.6 Q232.9 117.05 227.55 111.7 224.4 108.55 219.9 108.75 L216.05 109 215.8 108.95 215.6 108.95 Q213.95 108.95 212.7 112.2 211.5 115.3 211.5 119.7 L211.5 119.75 211.5 119.95 203.25 119.95 198.75 91.05 182.95 87.15 182.95 87 145.45 93.5 108.95 87 108.95 87.15 93.15 91.05 88.65 119.95 80.4 119.95 M420.95 301 L420.95 312 311.95 312 311.95 348.95 237.95 348.95 237.95 312 201.95 312 201.95 301 255.4 301 266.45 301 266.45 312 283.4 312 283.4 301 294.35 301 420.95 301 M504 440.9 L504 457.95 352 457.95 352 440.9 504 440.9 M164.2 121.45 Q162.1 121.45 160.55 119.9 159.05 118.45 159.05 116.3 159.05 114.15 160.55 112.65 162.1 111.15 164.2 111.15 166.35 111.15 167.8 112.65 169.35 114.15 169.35 116.3 169.35 118.45 167.8 119.9 166.35 121.45 164.2 121.45 M124 112.65 Q125.55 111.15 127.7 111.15 129.8 111.15 131.25 112.65 132.8 114.15 132.8 116.3 132.8 118.45 131.25 119.9 129.8 121.45 127.7 121.45 125.55 121.45 124 119.9 122.55 118.45 122.55 116.3 122.55 114.15 124 112.65 M288.1 229.5 L291.95 229.5 294.75 240.45 290 246.05 285.3 240.45 288.1 229.5 M257.95 229.5 L261.8 229.5 264.6 240.45 259.85 246.05 255.15 240.45 257.95 229.5 M291 451.9 L291 468.95 139 468.95 139 451.9 291 451.9"/>
    <path stroke="none" fill="#C3DAE2" d="M283.4 301 L283.4 312 266.45 312 266.45 301 283.4 301"/>
    <path stroke="none" fill="#FFE0B1" d="M162.35 132.15 Q161 130.8 159.05 130.8 L132 130.8 Q130.05 130.8 128.7 132.15 127.35 133.5 127.35 135.45 L127.35 135.5 Q127.35 137.45 128.7 138.8 130.05 140.15 132 140.15 L159.05 140.15 Q161 140.15 162.35 138.8 163.7 137.45 163.7 135.5 L163.7 135.45 Q163.7 133.5 162.35 132.15 M498.95 129.9 L498.95 153.95 462.95 153.95 462.95 190.9 425.95 190.9 425.95 153.95 353.95 153.95 353.95 129.9 498.95 129.9 M330.95 136 L330.95 153 182.95 153 182.95 227 108.95 227 108.95 153 34.95 153 34.95 135.9 61.1 125.6 Q59 117.05 64.35 111.7 67.5 108.55 72 108.75 L75.85 109 Q71.9 109.4 69 112.2 65.9 115.3 65.9 119.7 L65.9 119.75 Q65.9 124.25 69 127.4 72 130.3 76.1 130.5 L76.3 130.5 Q77.95 130.5 79.2 127.4 80.35 124.3 80.4 119.95 L88.65 119.95 93.15 91.05 108.95 87.15 108.95 87 145.45 93.5 182.95 87 182.95 87.15 198.75 91.05 203.25 119.95 211.5 119.95 Q211.55 124.3 212.7 127.4 213.95 130.5 215.6 130.5 L215.8 130.5 Q219.9 130.3 222.9 127.4 226 124.25 226 119.75 L226 119.7 Q226 115.3 222.9 112.2 220 109.4 216.05 109 L219.9 108.75 Q224.4 108.55 227.55 111.7 232.9 117.05 230.8 125.6 L256.95 135.9 256.95 136 330.95 136 M504 457.95 L504 460.9 466 460.9 466 495.85 428 495.85 428 460.9 352 460.9 352 457.95 504 457.95 M171.55 103.45 Q171.65 102.9 171.4 102.4 L170.65 101.75 Q165.65 99.7 160.35 99.55 L159.5 99.75 158.95 100.45 Q158.7 100.85 158.85 101.3 L159.55 105.4 159.9 106.15 Q160.2 106.5 160.65 106.6 L161.5 106.55 169.15 106.8 170 106.8 Q170.4 106.7 170.75 106.4 L171.1 105.65 171.55 103.45 M164.2 121.45 Q166.35 121.45 167.8 119.9 169.35 118.45 169.35 116.3 169.35 114.15 167.8 112.65 166.35 111.15 164.2 111.15 162.1 111.15 160.55 112.65 159.05 114.15 159.05 116.3 159.05 118.45 160.55 119.9 162.1 121.45 164.2 121.45 M151.5 120.7 Q149.25 118.45 146 118.45 L145.95 118.45 Q142.8 118.45 140.55 120.7 138.45 122.85 138.2 125.8 L138.2 125.95 Q138.2 127.15 140.55 128.05 142.8 128.9 145.95 128.9 L146 128.9 Q149.25 128.9 151.5 128.05 153.75 127.15 153.75 125.95 L153.75 125.8 Q153.6 122.85 151.5 120.7 M132.35 105.4 L133.05 101.3 Q133.2 100.85 132.95 100.45 L132.4 99.75 131.55 99.55 Q126.25 99.7 121.25 101.75 120.75 101.95 120.5 102.4 120.25 102.9 120.35 103.45 L120.8 105.65 121.15 106.4 121.9 106.8 122.75 106.8 130.4 106.55 131.25 106.6 132 106.15 132.35 105.4 M124 112.65 Q122.55 114.15 122.55 116.3 122.55 118.45 124 119.9 125.55 121.45 127.7 121.45 129.8 121.45 131.25 119.9 132.8 118.45 132.8 116.3 132.8 114.15 131.25 112.65 129.8 111.15 127.7 111.15 125.55 111.15 124 112.65 M164.95 323.85 L164.95 347.9 92.95 347.9 92.95 384.85 55.95 384.85 55.95 347.9 19.95 347.9 19.95 323.85 164.95 323.85 M291 468.95 L291 471.9 215 471.9 215 506.85 177 506.85 177 471.9 139 471.9 139 468.95 291 468.95"/>
    <path stroke="none" fill="#5B4231" d="M171.55 103.45 L171.1 105.65 170.75 106.4 Q170.4 106.7 170 106.8 L169.15 106.8 161.5 106.55 160.65 106.6 Q160.2 106.5 159.9 106.15 L159.55 105.4 158.85 101.3 Q158.7 100.85 158.95 100.45 L159.5 99.75 160.35 99.55 Q165.65 99.7 170.65 101.75 L171.4 102.4 Q171.65 102.9 171.55 103.45 M132.35 105.4 L132 106.15 131.25 106.6 130.4 106.55 122.75 106.8 121.9 106.8 121.15 106.4 120.8 105.65 120.35 103.45 Q120.25 102.9 120.5 102.4 120.75 101.95 121.25 101.75 126.25 99.7 131.55 99.55 L132.4 99.75 132.95 100.45 Q133.2 100.85 133.05 101.3 L132.35 105.4"/>
    <path stroke="none" fill="#EECC98" d="M151.5 120.7 Q153.6 122.85 153.75 125.8 L153.75 125.95 Q153.75 127.15 151.5 128.05 149.25 128.9 146 128.9 L145.95 128.9 Q142.8 128.9 140.55 128.05 138.2 127.15 138.2 125.95 L138.2 125.8 Q138.45 122.85 140.55 120.7 142.8 118.45 145.95 118.45 L146 118.45 Q149.25 118.45 151.5 120.7"/>
    <path stroke="none" fill="url(#gradient0)" d="M216.05 109 Q220 109.4 222.9 112.2 226 115.3 226 119.7 L226 119.75 Q226 124.25 222.9 127.4 219.9 130.3 215.8 130.5 L215.6 130.5 Q213.95 130.5 212.7 127.4 211.55 124.3 211.5 119.95 L211.5 119.75 211.5 119.7 Q211.5 115.3 212.7 112.2 213.95 108.95 215.6 108.95 L215.8 108.95 216.05 109"/>
    <path stroke="none" fill="url(#gradient1)" d="M80.4 119.95 Q80.35 124.3 79.2 127.4 77.95 130.5 76.3 130.5 L76.1 130.5 Q72 130.3 69 127.4 65.9 124.25 65.9 119.75 L65.9 119.7 Q65.9 115.3 69 112.2 71.9 109.4 75.85 109 L76.1 108.95 76.3 108.95 Q77.95 108.95 79.2 112.2 80.4 115.3 80.4 119.7 L80.4 119.75 80.4 119.95"/>
    <path stroke="none" fill="#BF493B" d="M294.35 301 L283.4 301 266.45 301 255.4 301 252.4 283.25 261.5 274.75 288.2 274.75 297.4 283.25 294.35 301 M288.1 229.5 L288.1 202 291.95 202 291.95 229.5 288.1 229.5 M257.95 229.5 L257.95 202 261.8 202 261.8 229.5 257.95 229.5"/>
    <path stroke="none" fill="#66CCCC" d="M352 433.95 L352 352 428 352 428 317.05 466 317.05 466 352 504 352 504 433.95 352 433.95 M139 444.95 L139 363 177 363 177 328.05 215 328.05 215 363 291 363 291 444.95 139 444.95 M177 417.95 L215 417.95 215 413.95 177 413.95 177 413.6 141 417.95 177 417.95 M466 406.95 L502 406.95 466 402.6 466 402.95 428 402.95 428 406.95 466 406.95"/>
    <path stroke="none" fill="#6CD9D9" d="M466 406.95 L428 406.95 428 402.95 466 402.95 466 406.95 M177 413.95 L215 413.95 215 417.95 177 417.95 177 413.95"/>
    <path stroke="none" fill="#57AFAF" d="M177 413.95 L177 417.95 141 417.95 177 413.6 177 413.95 M504 433.95 L504 440.9 352 440.9 352 433.95 504 433.95 M139 444.95 L291 444.95 291 451.9 139 451.9 139 444.95 M466 402.95 L466 402.6 502 406.95 466 406.95 466 402.95"/>
    <path stroke="none" fill="#C44C3D" d="M498.95 96.65 L498.95 101 462.95 101 498.95 96.65 M498.95 122.95 L498.95 129.9 353.95 129.9 353.95 122.95 498.95 122.95 M425.95 101 L389.95 101 389.95 96.65 425.95 101 M19.95 290.6 L55.95 294.95 19.95 294.95 19.95 290.6 M19.95 316.9 L164.95 316.9 164.95 323.85 19.95 323.85 19.95 316.9 M128.95 294.95 L92.95 294.95 128.95 290.6 128.95 294.95"/>
  </g>
</svg>