<svg xmlns="http://www.w3.org/2000/svg" xmlns:xlink="http://www.w3.org/1999/xlink">
  <defs>
    <linearGradient gradientUnits="userSpaceOnUse" x1="-819.2" x2="819.2" spreadMethod="pad" gradientTransform="matrix(-0.00885009765625 0 0 0.013153076171875 218.75 119.7)" id="gradient0">
      <stop offset="0" stop-color="#EECC98"/>
      <stop offset="1" stop-color="#FFE0B1"/>
    </linearGradient>
    <linearGradient gradientUnits="userSpaceOnUse" x1="-819.2" x2="819.2" spreadMethod="pad" gradientTransform="matrix(0.00885009765625 0 0 0.013153076171875 73.15 119.7)" id="gradient1">
      <stop offset="0" stop-color="#EECC98"/>
      <stop offset="1" stop-color="#FFE0B1"/>
    </linearGradient>
  </defs>
  <g>
    <path stroke="none" fill="#191919" d="M498.95 96.65 L498.95 46.05 462.95 46.05 462.95 11.1 425.95 11.1 425.95 46.05 353.95 46.05 353.95 122.95 353.95 129.9 353.95 153.95 425.95 153.95 425.95 190.9 462.95 190.9 462.95 153.95 498.95 153.95 498.95 129.9 498.95 122.95 498.95 101 498.95 96.65 M34.95 135.9 L34.95 153 108.95 153 108.95 227 182.95 227 182.95 153 330.95 153 330.95 136 330.95 79 182.95 79 182.95 5 108.95 5 108.95 79 34.95 79 34.95 135.9 M420.95 261.5 L420.95 202 407 202 360.95 202 347.95 202 311.95 202 311.95 165.05 237.95 165.05 237.95 202 201.95 202 201.95 306 201.95 312 237.95 312 237.95 348.95 311.95 348.95 311.95 312 420.95 312 420.95 306 420.95 261.5 M504 433.95 L504 352 466 352 466 317.05 428 317.05 428 352 352 352 352 433.95 352 440.9 352 457.95 352 460.9 428 460.9 428 495.85 466 495.85 466 460.9 504 460.9 504 457.95 504 440.9 504 433.95 M164.95 316.9 L164.95 240 92.95 240 92.95 205.05 55.95 205.05 55.95 240 19.95 240 19.95 290.6 19.95 294.95 19.95 316.9 19.95 323.85 19.95 347.9 55.95 347.9 55.95 384.85 92.95 384.85 92.95 347.9 164.95 347.9 164.95 323.85 164.95 316.9 M291 444.95 L291 363 215 363 215 328.05 177 328.05 177 363 139 363 139 444.95 139 451.9 139 468.95 139 471.9 177 471.9 177 506.85 215 506.85 215 471.9 291 471.9 291 468.95 291 451.9 291 444.95 M512 0 L512 512 0 512 0 0 512 0"/>
    <path stroke="none" fill="#333333" d="M80 115 L79.2 112.2 Q77.95 108.95 76.3 108.95 L76.1 108.95 72 108.75 Q67.5 108.55 64.35 111.7 62.8 113.25 62.45 115.65 61 125.5 51.75 129.3 L34.95 135.9 34.95 79 108.95 79 108.95 5 182.95 5 182.95 79 330.95 79 330.95 136 256.95 136 256.95 135.9 240.15 129.3 Q230.9 125.5 229.45 115.65 229.1 113.25 227.55 111.7 224.4 108.55 219.9 108.75 L215.8 108.95 215.6 108.95 Q213.95 108.95 212.7 112.2 L211.9 115 202.3 113.8 195.95 93.75 Q192.55 83.1 182.95 87.15 L182.95 87 Q163.5 96.1 147.2 91.75 143.7 90.75 140.6 91.35 135.85 92.15 137.45 95.95 124.3 94.6 123.95 87.65 L108.95 87 Q99.75 86.5 95.95 93.75 L89.6 113.8 80 115 M504 440.9 L504 457.95 352 457.95 352 440.9 504 440.9 M171.5 106 Q170.95 106.5 170.2 106.55 163.65 106.8 158.75 108.6 L157.3 108.55 Q156.55 108.2 156.3 107.5 L155.65 105.75 Q155.4 105 155.7 104.3 156 103.6 156.75 103.3 162.4 101.15 170 100.9 170.8 100.85 171.35 101.4 171.95 101.95 171.95 102.75 L172 104.6 Q172 105.35 171.5 106 M136.2 106.75 Q136.5 107.45 136.25 108.2 L135.6 109.95 Q135.35 110.65 134.6 111 L133.15 111.05 Q128.25 109.25 121.7 109 120.95 108.95 120.4 108.45 119.9 107.8 119.9 107.05 L119.95 105.2 Q119.95 104.4 120.55 103.85 121.1 103.3 121.9 103.35 129.5 103.6 135.15 105.75 135.9 106.05 136.2 106.75 M291 451.9 L291 468.95 139 468.95 139 451.9 291 451.9"/>
    <path stroke="none" fill="#889176" d="M452.1 395.4 Q452.6 395.9 453.3 395.9 454 395.9 454.45 395.4 454.95 394.95 454.95 394.25 454.95 393.55 454.45 393.05 454 392.6 453.3 392.6 452.6 392.6 452.1 393.05 451.65 393.55 451.65 394.25 451.65 394.95 452.1 395.4 M442.75 390.5 Q443.15 390.9 443.65 390.9 444.15 390.9 444.5 390.5 444.9 390.15 444.9 389.65 444.9 389.15 444.5 388.75 444.15 388.4 443.65 388.4 443.15 388.4 442.75 388.75 442.4 389.15 442.4 389.65 442.4 390.15 442.75 390.5 M352 433.95 L352 352 428 352 428 317.05 466 317.05 466 352 504 352 504 433.95 352 433.95 M200 382.55 L200.1 382.75 204.8 388.05 205.3 388.3 205.85 388.2 206.85 387.45 207.15 387.05 207.1 386.5 204.1 379.75 204 379.6 199.1 374 198.65 373.75 198.1 373.85 196.95 374.65 196.65 375.05 196.7 375.6 200 382.55 M139 444.95 L139 363 177 363 177 328.05 215 328.05 215 363 291 363 291 444.95 139 444.95 M203.6 418.5 Q202.95 418.5 202.5 418.95 202.05 419.4 202.05 420.05 202.05 420.7 202.5 421.15 202.95 421.6 203.6 421.6 204.25 421.6 204.7 421.15 205.15 420.7 205.15 420.05 205.15 419.4 204.7 418.95 204.25 418.5 203.6 418.5 M203.75 405.4 Q203.75 406 204.15 406.45 204.6 406.85 205.2 406.85 205.8 406.85 206.2 406.45 L206.65 405.4 Q206.65 404.8 206.2 404.4 205.8 403.95 205.2 403.95 204.6 403.95 204.15 404.4 203.75 404.8 203.75 405.4 M177 417.95 L215 417.95 215 413.95 198.75 413.95 Q199.9 412.8 199.9 411.15 199.9 409.5 198.75 408.35 197.6 407.2 195.95 407.2 194.3 407.2 193.15 408.35 192 409.5 192 411.15 192 412.8 193.15 413.95 L187 413.95 187.05 413.6 Q187.05 413.1 186.65 412.75 186.3 412.35 185.8 412.35 185.3 412.35 184.9 412.75 184.55 413.1 184.55 413.6 L184.6 413.95 177 413.95 177 413.6 141 417.95 177 417.95 M191.55 405.15 Q192.05 404.65 192.05 403.95 192.05 403.25 191.55 402.8 191.1 402.3 190.4 402.3 189.7 402.3 189.2 402.8 188.75 403.25 188.75 403.95 188.75 404.65 189.2 405.15 189.7 405.6 190.4 405.6 191.1 405.6 191.55 405.15 M201.05 400.7 Q201.05 399.7 200.35 399 199.65 398.3 198.65 398.3 197.65 398.3 196.95 399 196.25 399.7 196.25 400.7 196.25 401.7 196.95 402.4 197.65 403.1 198.65 403.1 199.65 403.1 200.35 402.4 201.05 401.7 201.05 400.7 M466 406.95 L502 406.95 466 402.6 466 402.95 458.9 402.95 458.95 402.5 Q458.95 401.5 458.25 400.8 457.55 400.1 456.55 400.1 455.55 400.1 454.85 400.8 454.15 401.5 454.15 402.5 L454.2 402.95 448.5 402.95 448.9 402.6 Q450.05 401.45 450.05 399.8 450.05 398.15 448.9 397 447.75 395.85 446.1 395.85 444.45 395.85 443.3 397 442.15 398.15 442.15 399.8 442.15 401.45 443.3 402.6 L443.7 402.95 428 402.95 428 406.95 435.75 406.95 435.65 407.45 Q435.65 408.1 436.1 408.55 436.55 409 437.2 409 437.85 409 438.3 408.55 L438.75 407.45 438.7 406.95 466 406.95 M452.85 408 Q452.45 407.6 451.85 407.6 451.25 407.6 450.8 408 450.4 408.45 450.4 409.05 450.4 409.65 450.8 410.05 451.25 410.5 451.85 410.5 L452.85 410.05 Q453.3 409.65 453.3 409.05 453.3 408.45 452.85 408"/>
    <path stroke="none" fill="#C6B088" d="M353.95 122.95 L353.95 46.05 425.95 46.05 425.95 11.1 462.95 11.1 462.95 46.05 498.95 46.05 498.95 96.65 462.95 101 498.95 101 498.95 122.95 353.95 122.95 M425.95 101 L389.95 96.65 389.95 101 425.95 101 M420.95 261.5 L420.95 306 283.4 306 283.4 301 266.45 301 266.45 306 201.95 306 201.95 202 237.95 202 237.95 165.05 311.95 165.05 311.95 202 347.95 202 347.95 261.5 348.9 260.15 Q361.95 240.3 360.95 202 L407 202 Q405.9 241.65 420.95 261.5 M325.45 270 L329.3 253.95 317.25 273 303.95 270.35 314.15 278.45 311.1 283.75 291 286.05 310.6 289.35 318.8 300.4 317.65 284.75 322.05 275.6 335.2 281.75 325.45 270 M19.95 290.6 L19.95 240 55.95 240 55.95 205.05 92.95 205.05 92.95 240 164.95 240 164.95 316.9 19.95 316.9 19.95 294.95 55.95 294.95 19.95 290.6 M128.95 294.95 L128.95 290.6 92.95 294.95 128.95 294.95 M74.2 255.15 L61.25 264 51.1 264.75 49.85 250.3 44.55 264.6 28.7 269.3 51.25 270.2 55.65 283.1 57.55 270.2 63.65 270.2 75.65 286.45 68.75 267.8 74.2 255.15 M274.95 227.1 L295.35 219.85 292.2 202 257.65 202 254.35 212.1 274.95 227.1 M311.95 202 L298 202 Q296.9 241.65 311.95 261.5 L311.95 202 M279.35 237.4 Q278.25 237.4 277.45 238.15 276.7 238.95 276.7 240.05 276.7 241.15 277.45 241.9 278.25 242.7 279.35 242.7 280.45 242.7 281.2 241.9 282 241.15 282 240.05 282 238.95 281.2 238.15 280.45 237.4 279.35 237.4 M281.2 229.65 Q280.45 228.9 279.35 228.9 278.25 228.9 277.45 229.65 276.7 230.45 276.7 231.55 276.7 232.65 277.45 233.4 278.25 234.2 279.35 234.2 280.45 234.2 281.2 233.4 282 232.65 282 231.55 282 230.45 281.2 229.65 M237.95 202 L237.95 261.5 Q253 241.65 251.9 202 L237.95 202"/>
    <path stroke="none" fill="#A18E6D" d="M498.95 96.65 L498.95 101 462.95 101 498.95 96.65 M498.95 122.95 L498.95 129.9 353.95 129.9 353.95 122.95 498.95 122.95 M425.95 101 L389.95 101 389.95 96.65 425.95 101 M19.95 290.6 L55.95 294.95 19.95 294.95 19.95 290.6 M19.95 316.9 L164.95 316.9 164.95 323.85 19.95 323.85 19.95 316.9 M128.95 294.95 L92.95 294.95 128.95 290.6 128.95 294.95"/>
    <path stroke="none" fill="#694C39" d="M407 202 L420.95 202 420.95 261.5 Q405.9 241.65 407 202 M420.95 306 L420.95 312 311.95 312 311.95 348.95 237.95 348.95 237.95 312 201.95 312 201.95 306 266.45 306 266.45 312 283.4 312 283.4 306 420.95 306 M347.95 202 L360.95 202 Q361.95 240.3 348.9 260.15 L347.95 261.5 347.95 202 M504 457.95 L504 460.9 466 460.9 466 495.85 428 495.85 428 460.9 352 460.9 352 457.95 504 457.95 M169.35 116.3 Q169.35 118.45 167.8 119.9 166.35 121.45 164.2 121.45 162.1 121.45 160.55 119.9 159.05 118.45 159.05 116.3 159.05 114.15 160.55 112.65 162.1 111.15 164.2 111.15 166.35 111.15 167.8 112.65 169.35 114.15 169.35 116.3 M124 112.65 Q125.55 111.15 127.7 111.15 129.8 111.15 131.25 112.65 132.8 114.15 132.8 116.3 132.8 118.45 131.25 119.9 129.8 121.45 127.7 121.45 125.55 121.45 124 119.9 122.55 118.45 122.55 116.3 122.55 114.15 124 112.65 M311.95 202 L311.95 261.5 Q296.9 241.65 298 202 L311.95 202 M237.95 202 L251.9 202 Q253 241.65 237.95 261.5 L237.95 202 M291 468.95 L291 471.9 215 471.9 215 506.85 177 506.85 177 471.9 139 471.9 139 468.95 291 468.95"/>
    <path stroke="none" fill="#D9C195" d="M292.2 202 L295.35 219.85 274.95 227.1 292.2 202 M274.95 227.1 L254.35 212.1 257.65 202 274.95 227.1"/>
    <path stroke="none" fill="#C3DAE2" d="M283.4 306 L283.4 312 266.45 312 266.45 306 266.45 301 283.4 301 283.4 306"/>
    <path stroke="none" fill="#B6A27D" d="M325.45 270 L335.2 281.75 322.05 275.6 317.65 284.75 318.8 300.4 310.6 289.35 291 286.05 311.1 283.75 314.15 278.45 303.95 270.35 317.25 273 329.3 253.95 325.45 270 M74.2 255.15 L68.75 267.8 75.65 286.45 63.65 270.2 57.55 270.2 55.65 283.1 51.25 270.2 28.7 269.3 44.55 264.6 49.85 250.3 51.1 264.75 61.25 264 74.2 255.15"/>
    <path stroke="none" fill="#A4AF8E" d="M198.75 413.95 L215 413.95 215 417.95 177 417.95 177 413.95 184.6 413.95 184.9 414.5 Q185.3 414.85 185.8 414.85 186.3 414.85 186.65 414.5 L187 413.95 193.15 413.95 Q194.3 415.1 195.95 415.1 197.6 415.1 198.75 413.95 M466 406.95 L438.7 406.95 438.3 406.35 Q437.85 405.9 437.2 405.9 436.55 405.9 436.1 406.35 435.85 406.6 435.75 406.95 L428 406.95 428 402.95 443.7 402.95 Q444.7 403.75 446.1 403.75 447.5 403.75 448.5 402.95 L454.2 402.95 Q454.3 403.65 454.85 404.2 455.55 404.9 456.55 404.9 457.55 404.9 458.25 404.2 L458.9 402.95 466 402.95 466 406.95"/>
    <path stroke="none" fill="#69705A" d="M466 406.95 L466 402.95 466 402.6 502 406.95 466 406.95 M504 433.95 L504 440.9 352 440.9 352 433.95 504 433.95 M200 382.55 L196.7 375.6 196.65 375.05 196.95 374.65 198.1 373.85 198.65 373.75 199.1 374 204 379.6 204.1 379.75 207.1 386.5 207.15 387.05 206.85 387.45 205.85 388.2 205.3 388.3 204.8 388.05 200.1 382.75 200 382.55 M139 444.95 L291 444.95 291 451.9 139 451.9 139 444.95 M177 413.95 L177 417.95 141 417.95 177 413.6 177 413.95"/>
    <path stroke="none" fill="#FFE0B1" d="M498.95 129.9 L498.95 153.95 462.95 153.95 462.95 190.9 425.95 190.9 425.95 153.95 353.95 153.95 353.95 129.9 498.95 129.9 M330.95 136 L330.95 153 182.95 153 182.95 227 108.95 227 108.95 153 34.95 153 34.95 135.9 51.75 129.3 Q61 125.5 62.45 115.65 62.8 113.25 64.35 111.7 67.5 108.55 72 108.75 L76.1 108.95 Q71.9 109.4 69 112.2 65.9 115.3 65.9 119.7 L65.9 119.75 Q65.9 124.25 69 127.4 72 130.3 76.1 130.5 L76.3 130.5 Q77.95 130.5 79.2 127.4 80.35 124.3 80.4 119.95 L80.4 119.75 80.4 119.7 Q80.4 117.15 80 115 L89.6 113.8 95.95 93.75 Q99.75 86.5 108.95 87 L123.95 87.65 Q124.3 94.6 137.45 95.95 135.85 92.15 140.6 91.35 143.7 90.75 147.2 91.75 163.5 96.1 182.95 87 L182.95 87.15 Q192.55 83.1 195.95 93.75 L202.3 113.8 211.9 115 Q211.5 117.15 211.5 119.7 L211.5 119.75 211.5 119.95 Q211.55 124.3 212.7 127.4 213.95 130.5 215.6 130.5 L215.8 130.5 Q219.9 130.3 222.9 127.4 226 124.25 226 119.75 L226 119.7 Q226 115.3 222.9 112.2 220 109.4 215.8 108.95 L219.9 108.75 Q224.4 108.55 227.55 111.7 229.1 113.25 229.45 115.65 230.9 125.5 240.15 129.3 L256.95 135.9 256.95 136 330.95 136 M171.5 106 Q172 105.35 172 104.6 L171.95 102.75 Q171.95 101.95 171.35 101.4 170.8 100.85 170 100.9 162.4 101.15 156.75 103.3 156 103.6 155.7 104.3 155.4 105 155.65 105.75 L156.3 107.5 Q156.55 108.2 157.3 108.55 L158.75 108.6 Q163.65 106.8 170.2 106.55 170.95 106.5 171.5 106 M169.35 116.3 Q169.35 114.15 167.8 112.65 166.35 111.15 164.2 111.15 162.1 111.15 160.55 112.65 159.05 114.15 159.05 116.3 159.05 118.45 160.55 119.9 162.1 121.45 164.2 121.45 166.35 121.45 167.8 119.9 169.35 118.45 169.35 116.3 M123.6 132.65 Q121.2 135.85 119.95 140.35 114.05 140.7 108.95 129.35 L108.95 153 182.95 153 182.95 129.55 Q177.85 140.7 172 140.35 168.3 126.7 153.7 125.15 153.35 122.65 151.5 120.8 149.25 118.55 146 118.55 L145.95 118.55 Q142.8 118.55 140.55 120.8 138.7 122.65 138.3 125.15 131.4 125.85 126.95 129.3 L126.6 128.5 126.5 128.35 121.6 122.75 121.15 122.5 120.6 122.6 119.45 123.4 119.15 123.8 119.2 124.35 122.5 131.3 122.6 131.5 123.6 132.65 M136.2 106.75 Q135.9 106.05 135.15 105.75 129.5 103.6 121.9 103.35 121.1 103.3 120.55 103.85 119.95 104.4 119.95 105.2 L119.9 107.05 Q119.9 107.8 120.4 108.45 120.95 108.95 121.7 109 128.25 109.25 133.15 111.05 L134.6 111 Q135.35 110.65 135.6 109.95 L136.25 108.2 Q136.5 107.45 136.2 106.75 M124 112.65 Q122.55 114.15 122.55 116.3 122.55 118.45 124 119.9 125.55 121.45 127.7 121.45 129.8 121.45 131.25 119.9 132.8 118.45 132.8 116.3 132.8 114.15 131.25 112.65 129.8 111.15 127.7 111.15 125.55 111.15 124 112.65 M164.95 323.85 L164.95 347.9 92.95 347.9 92.95 384.85 55.95 384.85 55.95 347.9 19.95 347.9 19.95 323.85 164.95 323.85 M292.2 202 L274.95 227.1 257.65 202 292.2 202"/>
    <path stroke="none" fill="#EECC98" d="M123.6 132.65 L122.6 131.5 122.5 131.3 119.2 124.35 119.15 123.8 119.45 123.4 120.6 122.6 121.15 122.5 121.6 122.75 126.5 128.35 126.6 128.5 126.95 129.3 129.6 135.25 129.65 135.8 129.35 136.2 128.35 136.95 127.8 137.05 127.3 136.8 123.6 132.65 M138.3 125.15 Q138.7 122.65 140.55 120.8 142.8 118.55 145.95 118.55 L146 118.55 Q149.25 118.55 151.5 120.8 153.35 122.65 153.7 125.15 L153.75 125.9 153.75 126.05 Q153.75 127.25 151.5 128.15 149.25 129 146 129 L145.95 129 Q142.8 129 140.55 128.15 138.2 127.25 138.2 126.05 L138.2 125.9 138.3 125.15"/>
    <path stroke="none" fill="url(#gradient0)" d="M215.8 108.95 Q220 109.4 222.9 112.2 226 115.3 226 119.7 L226 119.75 Q226 124.25 222.9 127.4 219.9 130.3 215.8 130.5 L215.6 130.5 Q213.95 130.5 212.7 127.4 211.55 124.3 211.5 119.95 L211.5 119.75 211.5 119.7 Q211.5 117.15 211.9 115 L212.7 112.2 Q213.95 108.95 215.6 108.95 L215.8 108.95"/>
    <path stroke="none" fill="url(#gradient1)" d="M80 115 Q80.4 117.15 80.4 119.7 L80.4 119.75 80.4 119.95 Q80.35 124.3 79.2 127.4 77.95 130.5 76.3 130.5 L76.1 130.5 Q72 130.3 69 127.4 65.9 124.25 65.9 119.75 L65.9 119.7 Q65.9 115.3 69 112.2 71.9 109.4 76.1 108.95 L76.3 108.95 Q77.95 108.95 79.2 112.2 L80 115"/>
    <path stroke="none" fill="#E7E2DA" d="M163.5 132.75 L162.2 131.25 Q161.65 130.6 160.85 130.55 160.05 130.5 159.4 131.05 156.1 133.65 148.85 133.3 148 133.25 147.4 133.85 146.8 134.4 146.75 135.2 L146.65 137.2 Q146.6 138.05 147.2 138.65 147.75 139.25 148.55 139.3 158.8 139.75 163.35 135.55 163.95 135 164 134.2 164.05 133.35 163.5 132.75 M153.7 125.15 Q168.3 126.7 172 140.35 177.85 140.7 182.95 129.55 L182.95 153 108.95 153 108.95 129.35 Q114.05 140.7 119.95 140.35 121.2 135.85 123.6 132.65 L127.3 136.8 127.8 137.05 128.35 136.95 129.35 136.2 129.65 135.8 129.6 135.25 126.95 129.3 Q131.4 125.85 138.3 125.15 L138.2 125.9 138.2 126.05 Q138.2 127.25 140.55 128.15 142.8 129 145.95 129 L146 129 Q149.25 129 151.5 128.15 153.75 127.25 153.75 126.05 L153.75 125.9 153.7 125.15"/>
    <path stroke="none" fill="#AD9976" d="M281.2 229.65 Q282 230.45 282 231.55 282 232.65 281.2 233.4 280.45 234.2 279.35 234.2 278.25 234.2 277.45 233.4 276.7 232.65 276.7 231.55 276.7 230.45 277.45 229.65 278.25 228.9 279.35 228.9 280.45 228.9 281.2 229.65 M279.35 237.4 Q280.45 237.4 281.2 238.15 282 238.95 282 240.05 282 241.15 281.2 241.9 280.45 242.7 279.35 242.7 278.25 242.7 277.45 241.9 276.7 241.15 276.7 240.05 276.7 238.95 277.45 238.15 278.25 237.4 279.35 237.4"/>
    <path stroke="none" fill="#7E5B44" d="M442.75 390.5 Q442.4 390.15 442.4 389.65 442.4 389.15 442.75 388.75 443.15 388.4 443.65 388.4 444.15 388.4 444.5 388.75 444.9 389.15 444.9 389.65 444.9 390.15 444.5 390.5 444.15 390.9 443.65 390.9 443.15 390.9 442.75 390.5 M452.1 395.4 Q451.65 394.95 451.65 394.25 451.65 393.55 452.1 393.05 452.6 392.6 453.3 392.6 454 392.6 454.45 393.05 454.95 393.55 454.95 394.25 454.95 394.95 454.45 395.4 454 395.9 453.3 395.9 452.6 395.9 452.1 395.4 M203.75 405.4 Q203.75 404.8 204.15 404.4 204.6 403.95 205.2 403.95 205.8 403.95 206.2 404.4 206.65 404.8 206.65 405.4 L206.2 406.45 Q205.8 406.85 205.2 406.85 204.6 406.85 204.15 406.45 203.75 406 203.75 405.4 M203.6 418.5 Q204.25 418.5 204.7 418.95 205.15 419.4 205.15 420.05 205.15 420.7 204.7 421.15 204.25 421.6 203.6 421.6 202.95 421.6 202.5 421.15 202.05 420.7 202.05 420.05 202.05 419.4 202.5 418.95 202.95 418.5 203.6 418.5 M198.75 413.95 Q197.6 415.1 195.95 415.1 194.3 415.1 193.15 413.95 192 412.8 192 411.15 192 409.5 193.15 408.35 194.3 407.2 195.95 407.2 197.6 407.2 198.75 408.35 199.9 409.5 199.9 411.15 199.9 412.8 198.75 413.95 M187 413.95 L186.65 414.5 Q186.3 414.85 185.8 414.85 185.3 414.85 184.9 414.5 L184.6 413.95 184.55 413.6 Q184.55 413.1 184.9 412.75 185.3 412.35 185.8 412.35 186.3 412.35 186.65 412.75 187.05 413.1 187.05 413.6 L187 413.95 M201.05 400.7 Q201.05 401.7 200.35 402.4 199.65 403.1 198.65 403.1 197.65 403.1 196.95 402.4 196.25 401.7 196.25 400.7 196.25 399.7 196.95 399 197.65 398.3 198.65 398.3 199.65 398.3 200.35 399 201.05 399.7 201.05 400.7 M191.55 405.15 Q191.1 405.6 190.4 405.6 189.7 405.6 189.2 405.15 188.75 404.65 188.75 403.95 188.75 403.25 189.2 402.8 189.7 402.3 190.4 402.3 191.1 402.3 191.55 402.8 192.05 403.25 192.05 403.95 192.05 404.65 191.55 405.15 M438.7 406.95 L438.75 407.45 438.3 408.55 Q437.85 409 437.2 409 436.55 409 436.1 408.55 435.65 408.1 435.65 407.45 L435.75 406.95 Q435.85 406.6 436.1 406.35 436.55 405.9 437.2 405.9 437.85 405.9 438.3 406.35 L438.7 406.95 M443.7 402.95 L443.3 402.6 Q442.15 401.45 442.15 399.8 442.15 398.15 443.3 397 444.45 395.85 446.1 395.85 447.75 395.85 448.9 397 450.05 398.15 450.05 399.8 450.05 401.45 448.9 402.6 L448.5 402.95 Q447.5 403.75 446.1 403.75 444.7 403.75 443.7 402.95 M454.2 402.95 L454.15 402.5 Q454.15 401.5 454.85 400.8 455.55 400.1 456.55 400.1 457.55 400.1 458.25 400.8 458.95 401.5 458.95 402.5 L458.9 402.95 458.25 404.2 Q457.55 404.9 456.55 404.9 455.55 404.9 454.85 404.2 454.3 403.65 454.2 402.95 M452.85 408 Q453.3 408.45 453.3 409.05 453.3 409.65 452.85 410.05 L451.85 410.5 Q451.25 410.5 450.8 410.05 450.4 409.65 450.4 409.05 450.4 408.45 450.8 408 451.25 407.6 451.85 407.6 452.45 407.6 452.85 408"/>
    <path stroke="none" fill="#A6A29C" d="M163.5 132.75 Q164.05 133.35 164 134.2 163.95 135 163.35 135.55 158.8 139.75 148.55 139.3 147.75 139.25 147.2 138.65 146.6 138.05 146.65 137.2 L146.75 135.2 Q146.8 134.4 147.4 133.85 148 133.25 148.85 133.3 156.1 133.65 159.4 131.05 160.05 130.5 160.85 130.55 161.65 130.6 162.2 131.25 L163.5 132.75"/>
    <path stroke="none" fill="#7E5B44" d="M406.45 268.75 L397.6 268.75 399.75 256.25 393.3 250.3 374.55 250.3 368.15 256.25 370.25 268.75 361.5 268.75 358.95 268.75 Q356.35 268.75 356.35 266.15 L356.35 233.5 383.95 237.5 411.6 233.5 411.6 266.15 Q411.6 268.75 409 268.75 L406.45 268.75 M356.35 228.5 L356.35 211.35 Q356.35 208.75 358.95 208.75 L409 208.75 Q411.6 208.75 411.6 211.35 L411.6 228.5 383.95 232.5 356.35 228.5 M385.8 225.6 Q385.05 224.85 383.95 224.85 382.85 224.85 382.05 225.6 381.3 226.4 381.3 227.5 381.3 228.6 382.05 229.35 382.85 230.15 383.95 230.15 385.05 230.15 385.8 229.35 386.6 228.6 386.6 227.5 386.6 226.4 385.8 225.6"/>
    <path stroke="none" fill="#694C39" d="M385.8 225.6 Q386.6 226.4 386.6 227.5 386.6 228.6 385.8 229.35 385.05 230.15 383.95 230.15 382.85 230.15 382.05 229.35 381.3 228.6 381.3 227.5 381.3 226.4 382.05 225.6 382.85 224.85 383.95 224.85 385.05 224.85 385.8 225.6 M411.6 228.5 L411.6 233.5 383.95 237.5 356.35 233.5 356.35 228.5 383.95 232.5 411.6 228.5 M370.25 268.75 L368.15 256.25 374.55 250.3 393.3 250.3 399.75 256.25 397.6 268.75 370.25 268.75"/>
    <path stroke="none" fill="#000000" fill-opacity="0.10196078431372549" d="M406.45 268.75 Q384 274.5 361.5 268.75 L370.25 268.75 397.6 268.75 406.45 268.75"/>
  </g>
</svg>