<svg xmlns="http://www.w3.org/2000/svg" xmlns:xlink="http://www.w3.org/1999/xlink">
  <defs>
    <linearGradient gradientUnits="userSpaceOnUse" x1="-819.2" x2="819.2" spreadMethod="pad" gradientTransform="matrix(-0.00885009765625 0 0 0.013153076171875 218.75 119.7)" id="gradient0">
      <stop offset="0" stop-color="#EECC98"/>
      <stop offset="1" stop-color="#FFE0B1"/>
    </linearGradient>
    <linearGradient gradientUnits="userSpaceOnUse" x1="-819.2" x2="819.2" spreadMethod="pad" gradientTransform="matrix(0.00885009765625 0 0 0.013153076171875 73.15 119.7)" id="gradient1">
      <stop offset="0" stop-color="#EECC98"/>
      <stop offset="1" stop-color="#FFE0B1"/>
    </linearGradient>
  </defs>
  <g>
    <path stroke="none" fill="#191919" d="M498.95 96.65 L498.95 79.9 498.95 72.95 498.95 46.05 462.95 46.05 462.95 11.1 425.95 11.1 425.95 46.05 353.95 46.05 353.95 72.95 353.95 79.9 353.95 153.95 425.95 153.95 425.95 190.9 462.95 190.9 462.95 153.95 498.95 153.95 498.95 101 498.95 96.65 M34.95 135.9 L34.95 153 108.95 153 108.95 227 182.95 227 182.95 153 330.95 153 330.95 136 330.95 79 182.95 79 182.95 5 108.95 5 108.95 79 34.95 79 34.95 135.9 M201.95 301 L201.95 312 237.95 312 237.95 348.95 311.95 348.95 311.95 312 420.95 312 420.95 301 420.95 202 311.95 202 311.95 165.05 237.95 165.05 237.95 202 201.95 202 201.95 301 M504 433.95 L504 352 466 352 466 317.05 428 317.05 428 352 352 352 352 433.95 352 440.9 352 457.95 352 460.9 428 460.9 428 495.85 466 495.85 466 460.9 504 460.9 504 457.95 504 440.9 504 433.95 M164.95 266.9 L164.95 240 92.95 240 92.95 205.05 55.95 205.05 55.95 240 19.95 240 19.95 266.9 19.95 273.85 19.95 290.6 19.95 294.95 19.95 347.9 55.95 347.9 55.95 384.85 92.95 384.85 92.95 347.9 164.95 347.9 164.95 273.85 164.95 266.9 M291 444.95 L291 363 215 363 215 328.05 177 328.05 177 363 139 363 139 444.95 139 451.9 139 468.95 139 471.9 177 471.9 177 506.85 215 506.85 215 471.9 291 471.9 291 468.95 291 451.9 291 444.95 M0 0 L512 0 512 512 0 512 0 0"/>
    <path stroke="none" fill="#333333" d="M34.95 135.9 L34.95 79 108.95 79 108.95 5 182.95 5 182.95 79 330.95 79 330.95 136 256.95 136 256.95 135.9 240.15 129.3 Q230.9 125.5 229.45 115.65 229.1 113.25 227.55 111.7 224.4 108.55 219.9 108.75 L215.8 108.95 215.6 108.95 Q213.95 108.95 212.7 112.2 L211.9 115 202.3 113.8 195.95 93.75 Q192.55 83.1 182.95 87.15 L182.95 87 Q163.5 96.1 147.2 91.75 130.15 87 108.95 87 L108.95 87.15 Q99.35 83.1 95.95 93.75 L89.6 113.8 80 115 79.2 112.2 Q77.95 108.95 76.3 108.95 L76.1 108.95 72 108.75 Q67.5 108.55 64.35 111.7 62.8 113.25 62.45 115.65 61 125.5 51.75 129.3 L34.95 135.9 M211.5 118.85 L211.3 121.65 201.45 120.1 201.9 116.7 211.6 117.6 211.5 118.85 M80.3 117.6 L90 116.7 90.45 120.1 80.6 121.65 80.4 118.85 80.3 117.6 M420.95 301 L420.95 312 311.95 312 311.95 348.95 237.95 348.95 237.95 312 201.95 312 201.95 301 223.85 301 266.45 301 266.45 312 283.4 312 283.4 301 420.95 301 M223.95 303.05 L223.85 301 223.95 303.05 M504 440.9 L504 457.95 352 457.95 352 440.9 504 440.9 M251.65 230.2 L246.8 230.95 Q244.45 231.35 244.1 229.05 L241.7 213.95 Q241.35 211.65 243.7 211.25 L253.3 209.75 253.7 209.7 254.6 209.8 Q255.7 210.15 255.95 211.7 L258.35 226.8 Q258.7 229.1 256.4 229.45 L251.65 230.2 M167.95 99.2 Q168.6 99.7 168.7 100.5 L169.05 102.3 Q169.2 103.05 168.7 103.7 168.25 104.3 167.5 104.5 162.35 105.4 156.5 108.4 L155.15 108.6 Q154.35 108.3 154 107.65 L153.1 106.05 Q152.7 105.35 152.95 104.55 153.15 103.8 153.9 103.45 160.55 99.85 166.55 98.9 167.35 98.75 167.95 99.2 M153.75 126.05 Q158.3 128 162.75 132.4 L163.15 133.15 Q163.2 133.65 162.9 133.95 L162.25 135 161.55 135.5 160.65 135.5 158.75 134.7 152.1 132.3 146.1 130.8 Q139.25 132.1 131.55 135.5 L130.65 135.5 129.95 135 129.3 133.95 Q128.95 133.65 129.05 133.15 129.1 132.75 129.45 132.4 133.75 128.1 138.2 126.15 138.3 127.3 140.55 128.15 142.8 129 145.95 129 L146 129 Q149.25 129 151.5 128.15 153.75 127.25 153.75 126.05 M137.45 108.5 L136.05 108.7 Q129.65 107.25 124.5 107.7 123.65 107.75 123.1 107.3 122.45 106.75 122.35 106 L122.2 104.15 Q122.15 103.35 122.65 102.8 123.1 102.15 123.9 102.05 129.9 101.45 137.3 103.2 138.1 103.35 138.5 104.05 138.95 104.7 138.75 105.5 L138.3 107.25 137.45 108.5 M244.55 213.95 L245.6 220.65 254.4 219.3 253.35 212.55 244.55 213.95 M291 451.9 L291 468.95 139 468.95 139 451.9 291 451.9"/>
    <path stroke="none" fill="#694C39" d="M504 457.95 L504 460.9 466 460.9 466 495.85 428 495.85 428 460.9 352 460.9 352 457.95 504 457.95 M166.35 116.3 Q166.35 118.45 164.8 119.9 163.35 121.45 161.2 121.45 159.1 121.45 157.55 119.9 156.05 118.45 156.05 116.3 156.05 114.15 157.55 112.65 159.1 111.15 161.2 111.15 163.35 111.15 164.8 112.65 166.35 114.15 166.35 116.3 M127 112.65 Q128.55 111.15 130.7 111.15 132.8 111.15 134.25 112.65 135.8 114.15 135.8 116.3 135.8 118.45 134.25 119.9 132.8 121.45 130.7 121.45 128.55 121.45 127 119.9 125.55 118.45 125.55 116.3 125.55 114.15 127 112.65 M291 468.95 L291 471.9 215 471.9 215 506.85 177 506.85 177 471.9 139 471.9 139 468.95 291 468.95"/>
    <path stroke="none" fill="#C3DAE2" d="M283.4 301 L283.4 312 266.45 312 266.45 301 272.45 301 277.45 301 283.4 301"/>
    <path stroke="none" fill="#FFE0B1" d="M498.95 79.9 L498.95 96.65 462.95 101 498.95 101 498.95 153.95 462.95 153.95 462.95 190.9 425.95 190.9 425.95 153.95 353.95 153.95 353.95 79.9 498.95 79.9 M330.95 136 L330.95 153 182.95 153 182.95 227 108.95 227 108.95 153 34.95 153 34.95 135.9 51.75 129.3 Q61 125.5 62.45 115.65 62.8 113.25 64.35 111.7 67.5 108.55 72 108.75 L76.1 108.95 Q71.9 109.4 69 112.2 65.9 115.3 65.9 119.7 L65.9 119.75 Q65.9 121.95 66.6 123.8 67.4 125.8 69 127.4 72 130.3 76.1 130.5 L76.3 130.5 Q77.95 130.5 79.2 127.4 80.1 124.95 80.3 121.7 L80.4 119.95 80.4 119.75 80.4 119.7 80.4 118.85 80.6 121.65 90.45 120.1 90 116.7 80.3 117.6 80 115 89.6 113.8 95.95 93.75 Q99.35 83.1 108.95 87.15 L108.95 87 Q130.15 87 147.2 91.75 163.5 96.1 182.95 87 L182.95 87.15 Q192.55 83.1 195.95 93.75 L202.3 113.8 211.9 115 211.6 117.6 201.9 116.7 201.45 120.1 211.3 121.65 211.5 118.85 211.5 119.7 211.5 119.75 211.5 119.95 211.6 121.7 Q211.8 124.95 212.7 127.4 213.95 130.5 215.6 130.5 L215.8 130.5 Q219.9 130.3 222.9 127.4 224.5 125.8 225.3 123.8 226 121.95 226 119.75 L226 119.7 Q226 115.3 222.9 112.2 220 109.4 215.8 108.95 L219.9 108.75 Q224.4 108.55 227.55 111.7 229.1 113.25 229.45 115.65 230.9 125.5 240.15 129.3 L256.95 135.9 256.95 136 330.95 136 M425.95 101 L389.95 96.65 389.95 101 425.95 101 M259.7 202 L290.25 202 287.85 205.8 274.95 209.25 262.1 205.8 259.7 202 M166.35 116.3 Q166.35 114.15 164.8 112.65 163.35 111.15 161.2 111.15 159.1 111.15 157.55 112.65 156.05 114.15 156.05 116.3 156.05 118.45 157.55 119.9 159.1 121.45 161.2 121.45 163.35 121.45 164.8 119.9 166.35 118.45 166.35 116.3 M167.95 99.2 Q167.35 98.75 166.55 98.9 160.55 99.85 153.9 103.45 153.15 103.8 152.95 104.55 152.7 105.35 153.1 106.05 L154 107.65 Q154.35 108.3 155.15 108.6 L156.5 108.4 Q162.35 105.4 167.5 104.5 168.25 104.3 168.7 103.7 169.2 103.05 169.05 102.3 L168.7 100.5 Q168.6 99.7 167.95 99.2 M138.3 125.15 Q123.65 126.7 119.95 140.35 114.05 140.7 108.95 129.35 L108.95 153 182.95 153 182.95 129.55 Q177.85 140.7 172 140.35 168.3 126.7 153.7 125.15 153.35 122.65 151.5 120.8 149.25 118.55 146 118.55 L145.95 118.55 Q142.8 118.55 140.55 120.8 138.7 122.65 138.3 125.15 M137.45 108.5 L138.3 107.25 138.75 105.5 Q138.95 104.7 138.5 104.05 138.1 103.35 137.3 103.2 129.9 101.45 123.9 102.05 123.1 102.15 122.65 102.8 122.15 103.35 122.2 104.15 L122.35 106 Q122.45 106.75 123.1 107.3 123.65 107.75 124.5 107.7 129.65 107.25 136.05 108.7 L137.45 108.5 M127 112.65 Q125.55 114.15 125.55 116.3 125.55 118.45 127 119.9 128.55 121.45 130.7 121.45 132.8 121.45 134.25 119.9 135.8 118.45 135.8 116.3 135.8 114.15 134.25 112.65 132.8 111.15 130.7 111.15 128.55 111.15 127 112.65 M164.95 273.85 L164.95 347.9 92.95 347.9 92.95 384.85 55.95 384.85 55.95 347.9 19.95 347.9 19.95 294.95 55.95 294.95 19.95 290.6 19.95 273.85 164.95 273.85 M128.95 294.95 L128.95 290.6 92.95 294.95 128.95 294.95"/>
    <path stroke="none" fill="#E7CBA0" d="M498.95 96.65 L498.95 101 462.95 101 498.95 96.65 M425.95 101 L389.95 101 389.95 96.65 425.95 101 M19.95 294.95 L19.95 290.6 55.95 294.95 19.95 294.95 M128.95 294.95 L92.95 294.95 128.95 290.6 128.95 294.95"/>
    <path stroke="none" fill="#EECC98" d="M153.75 126.05 Q153.75 127.25 151.5 128.15 149.25 129 146 129 L145.95 129 Q142.8 129 140.55 128.15 138.3 127.3 138.2 126.15 L138.2 126.05 138.2 125.9 138.3 125.15 Q138.7 122.65 140.55 120.8 142.8 118.55 145.95 118.55 L146 118.55 Q149.25 118.55 151.5 120.8 153.35 122.65 153.7 125.15 L153.75 125.9 153.75 126.05 M152.1 132.3 L158.75 134.7 158.2 135.55 Q153.65 139.75 143.4 139.3 142.6 139.25 142.05 138.65 141.45 138.05 141.5 137.2 L141.6 135.2 Q141.65 134.4 142.25 133.85 142.85 133.25 143.7 133.3 148.9 133.55 152.1 132.3"/>
    <path stroke="none" fill="url(#gradient0)" d="M215.8 108.95 Q220 109.4 222.9 112.2 226 115.3 226 119.7 L226 119.75 Q226 121.95 225.3 123.8 224.5 125.8 222.9 127.4 219.9 130.3 215.8 130.5 L215.6 130.5 Q213.95 130.5 212.7 127.4 211.8 124.95 211.6 121.7 L211.5 119.95 211.5 119.75 211.5 119.7 211.5 118.85 211.6 117.6 211.9 115 212.7 112.2 Q213.95 108.95 215.6 108.95 L215.8 108.95"/>
    <path stroke="none" fill="url(#gradient1)" d="M80 115 L80.3 117.6 80.4 118.85 80.4 119.7 80.4 119.75 80.4 119.95 80.3 121.7 Q80.1 124.95 79.2 127.4 77.95 130.5 76.3 130.5 L76.1 130.5 Q72 130.3 69 127.4 67.4 125.8 66.6 123.8 65.9 121.95 65.9 119.75 L65.9 119.7 Q65.9 115.3 69 112.2 71.9 109.4 76.1 108.95 L76.3 108.95 Q77.95 108.95 79.2 112.2 L80 115"/>
    <path stroke="none" fill="#FFCC66" d="M488.1 58.45 Q486.85 65.25 481.15 67.7 L480.95 67.75 480.75 67.7 Q475.05 65.25 473.8 58.45 L473.8 58.25 474.9 51.65 Q474.9 51.45 475.05 51.35 L475.35 51.2 480.9 50.8 481 50.8 486.55 51.2 486.85 51.35 487 51.65 488.1 58.25 488.1 58.45 M43.85 245.1 L44 245.4 45.1 252 45.1 252.2 Q43.85 259 38.15 261.45 L37.95 261.5 37.75 261.45 Q32.05 259 30.8 252.2 L30.8 252 31.9 245.4 Q31.9 245.2 32.05 245.1 L32.35 244.95 37.9 244.55 38 244.55 43.55 244.95 43.85 245.1 M305.75 221.25 L305.6 221.8 304.3 223.35 Q305.6 225.05 305.6 227.35 305.6 231.65 302.45 232.3 L302.35 232.3 Q300.5 232.55 299.85 233.35 L299.45 233.65 298.95 233.65 298.5 233.3 Q297.9 232.55 296.1 232.3 L296.05 232.3 Q292.8 231.65 292.8 227.35 292.8 225.05 294.2 223.35 L292.85 221.8 292.65 221.25 Q292.65 220.9 292.9 220.7 L295.4 217.95 295.85 217.7 296.3 217.75 299.2 218.85 302.15 217.75 302.65 217.7 303.05 217.95 305.55 220.7 Q305.75 220.9 305.75 221.25"/>
    <path stroke="none" fill="#34495E" d="M488.1 58.45 L488.1 58.25 487 51.65 486.85 51.35 486.55 51.2 481 50.8 480.9 50.8 475.35 51.2 475.05 51.35 Q474.9 51.45 474.9 51.65 L473.8 58.25 473.8 58.45 Q475.05 65.25 480.75 67.7 L480.95 67.75 481.15 67.7 Q486.85 65.25 488.1 58.45 M353.95 72.95 L353.95 46.05 425.95 46.05 425.95 11.1 462.95 11.1 462.95 46.05 498.95 46.05 498.95 72.95 353.95 72.95 M420.95 301 L283.4 301 277.45 301 277.45 234.9 291.95 208 296.05 210.15 300 202 290.25 202 259.7 202 249.9 202 249.95 202.05 253.7 209.7 253.3 209.75 243.7 211.25 Q241.35 211.65 241.7 213.95 L244.1 229.05 Q244.45 231.35 246.8 230.95 L251.65 230.2 251.65 232.3 Q251.65 232.7 251.95 233 L252.15 233.15 252.05 237 252.15 233.15 252.65 233.3 264.15 233.3 Q264.55 233.3 264.85 233 L265.15 232.3 265.15 227.8 264.85 227.1 Q264.55 226.8 264.15 226.8 L258.35 226.8 255.95 211.7 Q255.7 210.15 254.6 209.8 L258 208 272.45 234.9 272.45 301 266.45 301 223.85 301 201.95 301 201.95 202 237.95 202 237.95 165.05 311.95 165.05 311.95 202 420.95 202 420.95 301 M352 433.95 L352 352 428 352 428 317.05 466 317.05 466 352 504 352 504 433.95 352 433.95 M250.85 246.8 Q250.05 250.9 248.7 254.95 246.5 261.75 240.15 264.9 233.4 268.25 229.75 274.95 223.15 287 223.85 301 223.15 287 229.75 274.95 233.4 268.25 240.15 264.9 246.5 261.75 248.7 254.95 250.05 250.9 250.85 246.8 L254.85 247.95 255.6 247.95 265.35 245.15 266 244.65 266.3 243.85 266.3 238.35 265.85 237.4 Q265.45 237 264.9 237 L252.05 237 245.45 237 Q244.95 237 244.5 237.4 244.1 237.85 244.1 238.35 L244.1 243.85 Q244.1 244.3 244.4 244.65 L245.1 245.15 250.85 246.8 M19.95 266.9 L19.95 240 55.95 240 55.95 205.05 92.95 205.05 92.95 240 164.95 240 164.95 266.9 19.95 266.9 M43.85 245.1 L43.55 244.95 38 244.55 37.9 244.55 32.35 244.95 32.05 245.1 Q31.9 245.2 31.9 245.4 L30.8 252 30.8 252.2 Q32.05 259 37.75 261.45 L37.95 261.5 38.15 261.45 Q43.85 259 45.1 252.2 L45.1 252 44 245.4 43.85 245.1 M305.75 221.25 Q305.75 220.9 305.55 220.7 L303.05 217.95 302.65 217.7 302.15 217.75 299.2 218.85 296.3 217.75 295.85 217.7 295.4 217.95 292.9 220.7 Q292.65 220.9 292.65 221.25 L292.85 221.8 294.2 223.35 Q292.8 225.05 292.8 227.35 292.8 231.65 296.05 232.3 L296.1 232.3 Q297.9 232.55 298.5 233.3 L298.95 233.65 299.45 233.65 299.85 233.35 Q300.5 232.55 302.35 232.3 L302.45 232.3 Q305.6 231.65 305.6 227.35 305.6 225.05 304.3 223.35 L305.6 221.8 305.75 221.25 M284.4 244.65 L285.1 245.15 294.85 247.95 295.6 247.95 305.35 245.15 306 244.65 306.3 243.85 306.3 238.35 305.85 237.4 304.9 237 285.45 237 Q284.95 237 284.5 237.4 284.1 237.85 284.1 238.35 L284.1 243.85 Q284.1 244.3 284.4 244.65 M296.7 242.75 Q297.35 243.4 297.35 244.25 297.35 245.1 296.7 245.7 296.1 246.35 295.25 246.35 294.4 246.35 293.75 245.7 293.15 245.1 293.15 244.25 293.15 243.4 293.75 242.75 294.4 242.15 295.25 242.15 296.1 242.15 296.7 242.75 M256.7 245.7 Q256.1 246.35 255.25 246.35 254.4 246.35 253.75 245.7 253.15 245.1 253.15 244.25 253.15 243.4 253.75 242.75 254.4 242.15 255.25 242.15 256.1 242.15 256.7 242.75 257.35 243.4 257.35 244.25 257.35 245.1 256.7 245.7 M139 444.95 L139 363 177 363 177 328.05 215 328.05 215 363 291 363 291 444.95 139 444.95 M177 417.95 L215 417.95 215 413.95 177 413.95 177 413.6 141 417.95 177 417.95 M466 406.95 L502 406.95 466 402.6 466 402.95 428 402.95 428 406.95 466 406.95"/>
    <path stroke="none" fill="#3C556D" d="M177 413.95 L215 413.95 215 417.95 177 417.95 177 413.95 M466 406.95 L428 406.95 428 402.95 466 402.95 466 406.95"/>
    <path stroke="none" fill="#273748" d="M466 406.95 L466 402.95 466 402.6 502 406.95 466 406.95 M353.95 79.9 L353.95 72.95 498.95 72.95 498.95 79.9 353.95 79.9 M504 433.95 L504 440.9 352 440.9 352 433.95 504 433.95 M19.95 266.9 L164.95 266.9 164.95 273.85 19.95 273.85 19.95 266.9 M139 444.95 L291 444.95 291 451.9 139 451.9 139 444.95 M177 413.95 L177 417.95 141 417.95 177 413.6 177 413.95"/>
    <path stroke="none" fill="#D9D9D9" d="M253.7 209.7 L249.95 202.05 249.9 202 259.7 202 262.1 205.8 258 208 254.6 209.8 253.7 209.7 M290.25 202 L300 202 296.05 210.15 291.95 208 287.85 205.8 290.25 202"/>
    <path stroke="none" fill="#283848" d="M250.85 246.8 L245.1 245.15 244.4 244.65 Q244.1 244.3 244.1 243.85 L244.1 238.35 Q244.1 237.85 244.5 237.4 244.95 237 245.45 237 L252.05 237 264.9 237 Q265.45 237 265.85 237.4 L266.3 238.35 266.3 243.85 266 244.65 265.35 245.15 255.6 247.95 254.85 247.95 250.85 246.8 M291.95 208 L277.45 234.9 277.45 301 272.45 301 272.45 234.9 258 208 262.1 205.8 274.95 229.9 287.85 205.8 291.95 208 M284.4 244.65 Q284.1 244.3 284.1 243.85 L284.1 238.35 Q284.1 237.85 284.5 237.4 284.95 237 285.45 237 L304.9 237 305.85 237.4 306.3 238.35 306.3 243.85 306 244.65 305.35 245.15 295.6 247.95 294.85 247.95 285.1 245.15 284.4 244.65 M296.7 242.75 Q296.1 242.15 295.25 242.15 294.4 242.15 293.75 242.75 293.15 243.4 293.15 244.25 293.15 245.1 293.75 245.7 294.4 246.35 295.25 246.35 296.1 246.35 296.7 245.7 297.35 245.1 297.35 244.25 297.35 243.4 296.7 242.75 M256.7 245.7 Q257.35 245.1 257.35 244.25 257.35 243.4 256.7 242.75 256.1 242.15 255.25 242.15 254.4 242.15 253.75 242.75 253.15 243.4 253.15 244.25 253.15 245.1 253.75 245.7 254.4 246.35 255.25 246.35 256.1 246.35 256.7 245.7"/>
    <path stroke="none" fill="#FAFAFA" d="M252.15 233.15 L251.95 233 Q251.65 232.7 251.65 232.3 L251.65 230.2 256.4 229.45 Q258.7 229.1 258.35 226.8 L264.15 226.8 Q264.55 226.8 264.85 227.1 L265.15 227.8 265.15 232.3 264.85 233 Q264.55 233.3 264.15 233.3 L252.65 233.3 252.15 233.15 M287.85 205.8 L274.95 229.9 262.1 205.8 274.95 209.25 287.85 205.8"/>
    <path stroke="none" fill="#E7E2DA" fill-opacity="0.5019607843137255" d="M158.75 134.7 L160.65 135.5 161.55 135.5 162.25 135 162.9 133.95 Q163.2 133.65 163.15 133.15 L162.75 132.4 Q158.3 128 153.75 126.05 L153.75 125.9 153.7 125.15 Q168.3 126.7 172 140.35 177.85 140.7 182.95 129.55 L182.95 153 108.95 153 108.95 129.35 Q114.05 140.7 119.95 140.35 123.65 126.7 138.3 125.15 L138.2 125.9 138.2 126.05 138.2 126.15 Q133.75 128.1 129.45 132.4 129.1 132.75 129.05 133.15 128.95 133.65 129.3 133.95 L129.95 135 130.65 135.5 131.55 135.5 Q139.25 132.1 146.1 130.8 L152.1 132.3 Q148.9 133.55 143.7 133.3 142.85 133.25 142.25 133.85 141.65 134.4 141.6 135.2 L141.5 137.2 Q141.45 138.05 142.05 138.65 142.6 139.25 143.4 139.3 153.65 139.75 158.2 135.55 L158.75 134.7"/>
    <path stroke="none" fill="#545454" d="M244.55 213.95 L253.35 212.55 254.4 219.3 245.6 220.65 244.55 213.95"/>
    <path fill="none" stroke="#333333" stroke-width="3" stroke-linecap="butt" stroke-linejoin="miter" stroke-miterlimit="3" d="M223.85 301 L223.95 303.05 M223.85 301 Q223.15 287 229.75 274.95 233.4 268.25 240.15 264.9 246.5 261.75 248.7 254.95 250.05 250.9 250.85 246.8 M252.05 237 L252.15 233.15"/>
  </g>
</svg>