<svg xmlns="http://www.w3.org/2000/svg" xmlns:xlink="http://www.w3.org/1999/xlink">
  <defs>
    <linearGradient gradientUnits="userSpaceOnUse" x1="-819.2" x2="819.2" spreadMethod="pad" gradientTransform="matrix(-0.00885009765625 0 0 0.013153076171875 218.75 119.7)" id="gradient0">
      <stop offset="0" stop-color="#EECC98"/>
      <stop offset="1" stop-color="#FFE0B1"/>
    </linearGradient>
    <linearGradient gradientUnits="userSpaceOnUse" x1="-819.2" x2="819.2" spreadMethod="pad" gradientTransform="matrix(0.00885009765625 0 0 0.013153076171875 73.15 119.7)" id="gradient1">
      <stop offset="0" stop-color="#EECC98"/>
      <stop offset="1" stop-color="#FFE0B1"/>
    </linearGradient>
  </defs>
  <g>
    <path stroke="none" fill="#191919" d="M498.95 96.65 L498.95 46.05 462.95 46.05 462.95 11.1 425.95 11.1 425.95 46.05 353.95 46.05 353.95 122.95 353.95 129.9 353.95 153.95 425.95 153.95 425.95 190.9 462.95 190.9 462.95 153.95 498.95 153.95 498.95 129.9 498.95 122.95 498.95 101 498.95 96.65 M34.95 135.9 L34.95 153 108.95 153 108.95 227 182.95 227 182.95 153 330.95 153 330.95 136 330.95 79 182.95 79 182.95 5 108.95 5 108.95 79 34.95 79 34.95 135.9 M201.95 306 L201.95 312 237.95 312 237.95 348.95 311.95 348.95 311.95 312 420.95 312 420.95 306 420.95 202 311.95 202 311.95 165.05 237.95 165.05 237.95 202 201.95 202 201.95 306 M504 433.95 L504 352 466 352 466 317.05 428 317.05 428 352 352 352 352 433.95 352 440.9 352 457.95 352 460.9 428 460.9 428 495.85 466 495.85 466 460.9 504 460.9 504 457.95 504 440.9 504 433.95 M164.95 316.9 L164.95 240 92.95 240 92.95 205.05 55.95 205.05 55.95 240 19.95 240 19.95 290.6 19.95 294.95 19.95 316.9 19.95 323.85 19.95 347.9 55.95 347.9 55.95 384.85 92.95 384.85 92.95 347.9 164.95 347.9 164.95 323.85 164.95 316.9 M291 444.95 L291 363 215 363 215 328.05 177 328.05 177 363 139 363 139 444.95 139 451.9 139 468.95 139 471.9 177 471.9 177 506.85 215 506.85 215 471.9 291 471.9 291 468.95 291 451.9 291 444.95 M512 0 L512 512 0 512 0 0 512 0"/>
    <path stroke="none" fill="#333333" d="M504 440.9 L504 457.95 352 457.95 352 440.9 504 440.9 M291 451.9 L291 468.95 139 468.95 139 451.9 291 451.9"/>
    <path stroke="none" fill="#889176" d="M352 433.95 L352 352 428 352 428 317.05 466 317.05 466 352 504 352 504 433.95 352 433.95 M139 444.95 L139 363 177 363 177 328.05 215 328.05 215 363 291 363 291 444.95 139 444.95 M177 417.95 L215 417.95 215 413.95 177 413.95 177 413.6 141 417.95 177 417.95 M466 406.95 L502 406.95 466 402.6 466 402.95 428 402.95 428 406.95 466 406.95"/>
    <path stroke="none" fill="#694C39" d="M420.95 306 L420.95 312 311.95 312 311.95 348.95 237.95 348.95 237.95 312 201.95 312 201.95 306 266.45 306 266.45 312 283.4 312 283.4 306 420.95 306 M504 457.95 L504 460.9 466 460.9 466 495.85 428 495.85 428 460.9 352 460.9 352 457.95 504 457.95 M164.8 119.9 Q163.35 121.45 161.2 121.45 159.1 121.45 157.55 119.9 156.05 118.45 156.05 116.3 156.05 114.15 157.55 112.65 159.1 111.15 161.2 111.15 163.35 111.15 164.8 112.65 166.35 114.15 166.35 116.3 166.35 118.45 164.8 119.9 M127 112.65 Q128.55 111.15 130.7 111.15 132.8 111.15 134.25 112.65 135.8 114.15 135.8 116.3 135.8 118.45 134.25 119.9 132.8 121.45 130.7 121.45 128.55 121.45 127 119.9 125.55 118.45 125.55 116.3 125.55 114.15 127 112.65 M291 468.95 L291 471.9 215 471.9 215 506.85 177 506.85 177 471.9 139 471.9 139 468.95 291 468.95"/>
    <path stroke="none" fill="#A4AF8E" d="M177 413.95 L215 413.95 215 417.95 177 417.95 177 413.95 M466 406.95 L428 406.95 428 402.95 466 402.95 466 406.95"/>
    <path stroke="none" fill="#69705A" d="M466 406.95 L466 402.95 466 402.6 502 406.95 466 406.95 M504 433.95 L504 440.9 352 440.9 352 433.95 504 433.95 M139 444.95 L291 444.95 291 451.9 139 451.9 139 444.95 M177 413.95 L177 417.95 141 417.95 177 413.6 177 413.95"/>
    <path stroke="none" fill="#FFE0B1" d="M498.95 129.9 L498.95 153.95 462.95 153.95 462.95 190.9 425.95 190.9 425.95 153.95 353.95 153.95 353.95 129.9 498.95 129.9 M330.95 136 L330.95 153 182.95 153 182.95 227 108.95 227 108.95 153 34.95 153 34.95 135.9 51.75 129.3 Q61 125.5 62.45 115.65 62.8 113.25 64.35 111.7 67.5 108.55 72 108.75 L76.1 108.95 Q71.9 109.4 69 112.2 65.9 115.3 65.9 119.7 L65.9 119.75 Q65.9 124.25 69 127.4 72 130.3 76.1 130.5 L76.3 130.5 Q77.95 130.5 79.2 127.4 80.35 124.3 80.4 119.95 L80.4 119.75 80.4 119.7 Q80.4 117.15 80 115 L89.6 113.8 95.95 93.75 Q99.75 86.5 108.95 87 130.15 87 147.2 91.75 163.5 96.1 182.95 87 L182.95 87.15 Q192.55 83.1 195.95 93.75 L202.3 113.8 211.9 115 Q211.5 117.15 211.5 119.7 L211.5 119.75 211.5 119.95 Q211.55 124.3 212.7 127.4 213.95 130.5 215.6 130.5 L215.8 130.5 Q219.9 130.3 222.9 127.4 226 124.25 226 119.75 L226 119.7 Q226 115.3 222.9 112.2 220 109.4 215.8 108.95 L219.9 108.75 Q224.4 108.55 227.55 111.7 229.1 113.25 229.45 115.65 230.9 125.5 240.15 129.3 L256.95 135.9 256.95 136 330.95 136 M164.8 119.9 Q166.35 118.45 166.35 116.3 166.35 114.15 164.8 112.65 163.35 111.15 161.2 111.15 159.1 111.15 157.55 112.65 156.05 114.15 156.05 116.3 156.05 118.45 157.55 119.9 159.1 121.45 161.2 121.45 163.35 121.45 164.8 119.9 M167.7 107.45 Q168.45 107.1 168.7 106.4 L169.35 104.65 Q169.6 103.9 169.3 103.2 169 102.5 168.25 102.2 162.6 100.05 155 99.8 154.2 99.75 153.65 100.3 153.05 100.85 153.05 101.65 L153 103.5 Q153 104.25 153.5 104.9 154.05 105.4 154.8 105.45 161.35 105.7 166.25 107.5 L167.7 107.45 M158.85 133.85 Q162.15 134.95 165.65 136.5 L166.55 136.5 167.25 136 167.9 134.95 168.15 134.15 167.75 133.4 Q161.3 127 154.55 125.75 L153.75 125.65 Q153.5 122.85 151.5 120.8 149.25 118.55 146 118.55 L145.95 118.55 Q142.8 118.55 140.55 120.8 138.55 122.85 138.25 125.7 L137.65 125.75 Q130.9 127 124.45 133.4 124.1 133.75 124.05 134.15 123.95 134.65 124.3 134.95 L124.95 136 125.65 136.5 126.55 136.5 Q134.6 132.95 141.75 131.65 144.65 131.25 145.15 130.1 L145.5 129 145.95 129 146 129 146.7 129 Q146.65 129.6 147.05 130.1 147.55 131.25 150.45 131.65 L152.55 132.1 Q149.3 133.55 143.7 133.3 142.85 133.25 142.25 133.85 141.65 134.4 141.6 135.2 L141.5 137.2 Q141.45 138.05 142.05 138.65 142.6 139.25 143.4 139.3 153.65 139.75 158.2 135.55 158.8 135 158.85 134.2 L158.85 133.85 M137.85 100.3 Q137.3 99.75 136.5 99.8 128.9 100.05 123.25 102.2 122.5 102.5 122.2 103.2 121.9 103.9 122.15 104.65 L122.8 106.4 Q123.05 107.1 123.8 107.45 L125.25 107.5 Q130.15 105.7 136.7 105.45 137.45 105.4 138 104.9 138.5 104.25 138.5 103.5 L138.45 101.65 Q138.45 100.85 137.85 100.3 M127 112.65 Q125.55 114.15 125.55 116.3 125.55 118.45 127 119.9 128.55 121.45 130.7 121.45 132.8 121.45 134.25 119.9 135.8 118.45 135.8 116.3 135.8 114.15 134.25 112.65 132.8 111.15 130.7 111.15 128.55 111.15 127 112.65 M164.95 323.85 L164.95 347.9 92.95 347.9 92.95 384.85 55.95 384.85 55.95 347.9 19.95 347.9 19.95 323.85 164.95 323.85"/>
    <path stroke="none" fill="#EECC98" d="M153.75 125.65 L153.75 125.9 153.75 126.05 Q153.75 127.25 151.5 128.15 L146.7 129 146 129 145.95 129 145.5 129 Q142.65 128.95 140.55 128.15 138.2 127.25 138.2 126.05 L138.2 125.9 138.25 125.7 Q138.55 122.85 140.55 120.8 142.8 118.55 145.95 118.55 L146 118.55 Q149.25 118.55 151.5 120.8 153.5 122.85 153.75 125.65 M152.55 132.1 Q155.6 132.75 158.85 133.85 L158.85 134.2 Q158.8 135 158.2 135.55 153.65 139.75 143.4 139.3 142.6 139.25 142.05 138.65 141.45 138.05 141.5 137.2 L141.6 135.2 Q141.65 134.4 142.25 133.85 142.85 133.25 143.7 133.3 149.3 133.55 152.55 132.1"/>
    <path stroke="none" fill="url(#gradient0)" d="M215.8 108.95 Q220 109.4 222.9 112.2 226 115.3 226 119.7 L226 119.75 Q226 124.25 222.9 127.4 219.9 130.3 215.8 130.5 L215.6 130.5 Q213.95 130.5 212.7 127.4 211.55 124.3 211.5 119.95 L211.5 119.75 211.5 119.7 Q211.5 117.15 211.9 115 L212.7 112.2 Q213.95 108.95 215.6 108.95 L215.8 108.95"/>
    <path stroke="none" fill="url(#gradient1)" d="M80 115 Q80.4 117.15 80.4 119.7 L80.4 119.75 80.4 119.95 Q80.35 124.3 79.2 127.4 77.95 130.5 76.3 130.5 L76.1 130.5 Q72 130.3 69 127.4 65.9 124.25 65.9 119.75 L65.9 119.7 Q65.9 115.3 69 112.2 71.9 109.4 76.1 108.95 L76.3 108.95 Q77.95 108.95 79.2 112.2 L80 115"/>
    <path stroke="none" fill="#FFCC66" d="M283.4 306 L283.4 312 266.45 312 266.45 306 283.4 306"/>
    <path stroke="none" fill="#D4946B" d="M34.95 135.9 L34.95 79 108.95 79 108.95 5 182.95 5 182.95 79 330.95 79 330.95 136 256.95 136 256.95 135.9 240.15 129.3 Q230.9 125.5 229.45 115.65 229.1 113.25 227.55 111.7 224.4 108.55 219.9 108.75 L215.8 108.95 215.6 108.95 Q213.95 108.95 212.7 112.2 L211.9 115 202.3 113.8 195.95 93.75 Q192.55 83.1 182.95 87.15 L182.95 87 Q163.5 96.1 147.2 91.75 130.15 87 108.95 87 99.75 86.5 95.95 93.75 L89.6 113.8 80 115 79.2 112.2 Q77.95 108.95 76.3 108.95 L76.1 108.95 72 108.75 Q67.5 108.55 64.35 111.7 62.8 113.25 62.45 115.65 61 125.5 51.75 129.3 L34.95 135.9 M153.75 125.65 L154.55 125.75 Q161.3 127 167.75 133.4 L168.15 134.15 167.9 134.95 167.25 136 166.55 136.5 165.65 136.5 Q162.15 134.95 158.85 133.85 155.6 132.75 152.55 132.1 L150.45 131.65 Q147.55 131.25 147.05 130.1 146.65 129.6 146.7 129 L151.5 128.15 Q153.75 127.25 153.75 126.05 L153.75 125.9 153.75 125.65 M167.7 107.45 L166.25 107.5 Q161.35 105.7 154.8 105.45 154.05 105.4 153.5 104.9 153 104.25 153 103.5 L153.05 101.65 Q153.05 100.85 153.65 100.3 154.2 99.75 155 99.8 162.6 100.05 168.25 102.2 169 102.5 169.3 103.2 169.6 103.9 169.35 104.65 L168.7 106.4 Q168.45 107.1 167.7 107.45 M137.85 100.3 Q138.45 100.85 138.45 101.65 L138.5 103.5 Q138.5 104.25 138 104.9 137.45 105.4 136.7 105.45 130.15 105.7 125.25 107.5 L123.8 107.45 Q123.05 107.1 122.8 106.4 L122.15 104.65 Q121.9 103.9 122.2 103.2 122.5 102.5 123.25 102.2 128.9 100.05 136.5 99.8 137.3 99.75 137.85 100.3 M138.25 125.7 L138.2 125.9 138.2 126.05 Q138.2 127.25 140.55 128.15 142.65 128.95 145.5 129 L145.15 130.1 Q144.65 131.25 141.75 131.65 134.6 132.95 126.55 136.5 L125.65 136.5 124.95 136 124.3 134.95 Q123.95 134.65 124.05 134.15 124.1 133.75 124.45 133.4 130.9 127 137.65 125.75 L138.25 125.7"/>
    <path stroke="none" fill="#A3BD6B" d="M353.95 122.95 L353.95 46.05 425.95 46.05 425.95 11.1 462.95 11.1 462.95 46.05 498.95 46.05 498.95 96.65 462.95 101 498.95 101 498.95 122.95 353.95 122.95 M425.95 101 L389.95 96.65 389.95 101 425.95 101 M420.95 306 L283.4 306 266.45 306 201.95 306 201.95 202 237.95 202 237.95 165.05 311.95 165.05 311.95 202 420.95 202 420.95 306 M19.95 290.6 L19.95 240 55.95 240 55.95 205.05 92.95 205.05 92.95 240 164.95 240 164.95 316.9 19.95 316.9 19.95 294.95 55.95 294.95 19.95 290.6 M128.95 294.95 L128.95 290.6 92.95 294.95 128.95 294.95 M276.05 235.95 Q275.6 235.5 275 235.5 L274.95 235.5 Q274.3 235.5 273.85 235.95 273.4 236.45 273.4 237.05 L273.4 242.95 Q273.4 243.55 273.85 244 274.3 244.5 274.95 244.5 L275 244.5 Q275.6 244.5 276.05 244 276.55 243.55 276.55 242.95 L276.55 237.05 Q276.55 236.45 276.05 235.95 M276.5 232.35 Q278.75 232.8 280.45 234.5 L281 235.1 Q282.5 236.9 282.7 239.15 L282.75 239.5 282.75 240 282.75 240.45 282.75 240.8 Q282.45 243.55 280.45 245.55 278.15 247.8 274.95 247.8 271.65 247.8 269.4 245.55 267.35 243.45 267.2 240.6 L267.2 240.45 267.15 240 267.2 239.5 267.25 238.9 Q267.5 236.7 269 234.95 L269.4 234.5 Q270.9 232.95 272.85 232.45 L274.95 232.2 276.5 232.35 M287.95 240.75 L287.95 240 287.95 239.5 287.95 239.45 287.95 239.3 287.95 239.25 Q287.7 234.35 284.1 230.85 L281.45 228.75 Q279.2 227.4 276.5 227.1 L274.95 227 272.85 227.15 Q270.5 227.5 268.5 228.7 267.05 229.55 265.75 230.85 262.45 234.1 262 238.5 L262 239 262 239.5 261.95 240 262 240.75 262 241.5 Q262.45 245.9 265.75 249.2 269.5 253 274.95 253 280.35 253 284.1 249.2 287.7 245.65 287.95 240.75"/>
    <path stroke="none" fill="#879C58" d="M498.95 96.65 L498.95 101 462.95 101 498.95 96.65 M498.95 122.95 L498.95 129.9 353.95 129.9 353.95 122.95 498.95 122.95 M425.95 101 L389.95 101 389.95 96.65 425.95 101 M19.95 290.6 L55.95 294.95 19.95 294.95 19.95 290.6 M19.95 316.9 L164.95 316.9 164.95 323.85 19.95 323.85 19.95 316.9 M128.95 294.95 L92.95 294.95 128.95 290.6 128.95 294.95"/>
    <path stroke="none" fill="#8BA15B" d="M287.95 240.75 Q287.7 245.65 284.1 249.2 280.35 253 274.95 253 269.5 253 265.75 249.2 262.45 245.9 262 241.5 L262 240.75 261.95 240 262 239.5 262 239 262 238.5 Q262.45 234.1 265.75 230.85 267.05 229.55 268.5 228.7 270.5 227.5 272.85 227.15 L274.95 227 276.5 227.1 Q279.2 227.4 281.45 228.75 L284.1 230.85 Q287.7 234.35 287.95 239.25 L287.95 239.3 287.95 239.45 287.95 239.5 287.95 240 287.95 240.75 M276.5 232.35 L274.95 232.2 272.85 232.45 Q270.9 232.95 269.4 234.5 L269 234.95 Q267.5 236.7 267.25 238.9 L267.2 239.5 267.15 240 267.2 240.45 267.2 240.6 Q267.35 243.45 269.4 245.55 271.65 247.8 274.95 247.8 278.15 247.8 280.45 245.55 282.45 243.55 282.75 240.8 L282.75 240.45 282.75 240 282.75 239.5 282.7 239.15 Q282.5 236.9 281 235.1 L280.45 234.5 Q278.75 232.8 276.5 232.35 M276.05 235.95 Q276.55 236.45 276.55 237.05 L276.55 242.95 Q276.55 243.55 276.05 244 275.6 244.5 275 244.5 L274.95 244.5 Q274.3 244.5 273.85 244 273.4 243.55 273.4 242.95 L273.4 237.05 Q273.4 236.45 273.85 235.95 274.3 235.5 274.95 235.5 L275 235.5 Q275.6 235.5 276.05 235.95"/>
  </g>
</svg>