
<svg xmlns="http://www.w3.org/2000/svg" version="1.1" xmlns:xlink="http://www.w3.org/1999/xlink" preserveAspectRatio="none" x="0px" y="0px" width="512px" height="512px" viewBox="0 0 512 512">
<defs>
<linearGradient id="Gradient_1" gradientUnits="userSpaceOnUse" x1="65.9" y1="119.7" x2="80.4" y2="119.7" spreadMethod="pad">
<stop  offset="0%" stop-color="#E4E4E4"/>

<stop  offset="100%" stop-color="#FFFFFF"/>
</linearGradient>

<linearGradient id="Gradient_2" gradientUnits="userSpaceOnUse" x1="226" y1="119.7" x2="211.5" y2="119.7" spreadMethod="pad">
<stop  offset="0%" stop-color="#E2E2E2"/>

<stop  offset="100%" stop-color="#FFFFFF"/>
</linearGradient>

<g id="Layer0_0_FILL">
<path fill="#191919" stroke="none" d="
M 0 0
L 0 512 512 512 512 0 0 0
M 498.95 46.05
L 498.95 96.65 498.95 101 498.95 131 498.95 140 498.95 153.95 462.95 153.95 462.95 190.9 425.95 190.9 425.95 153.95 353.95 153.95 353.95 140 353.95 131 353.95 46.05 425.95 46.05 425.95 11.1 462.95 11.1 462.95 46.05 498.95 46.05
M 330.95 79
L 330.95 153 223.25 153 182.95 153 182.95 227 108.95 227 108.95 153 71.95 153 34.95 153 34.95 79 87.2 79 87.2 78.95 101 78.95 101 79 108.95 79 108.95 71 108.95 57.25 108.95 5 182.95 5 182.95 57.25 182.95 71 182.95 79 190.9 79 190.9 78.95 204.7 78.95 204.7 79 330.95 79
M 420.95 202
L 420.95 238.45 420.95 261.25 420.95 312 311.95 312 311.95 348.95 237.95 348.95 237.95 312 201.95 312 201.95 261.3 201.95 238.55 201.95 202 237.95 202 237.95 165.05 311.95 165.05 311.95 202 420.95 202
M 352 362
L 352 352 428 352 428 317.05 466 317.05 466 352 504 352 504 362 504 366.5 504 396.5 504 418.5 504 444 504 452.95 504 460.9 466 460.9 466 495.85 428 495.85 428 460.9 352 460.9 352 452.95 352 444 352 418.5 352 396.5 352 366.5 352 362
M 92.95 205.05
L 92.95 240 164.95 240 164.95 324.95 164.95 333.95 164.95 347.9 92.95 347.9 92.95 384.85 55.95 384.85 55.95 347.9 19.95 347.9 19.95 333.95 19.95 324.95 19.95 294.95 19.95 290.6 19.95 240 55.95 240 55.95 205.05 92.95 205.05
M 139 377.5
L 139 373 139 363 177 363 177 328.05 215 328.05 215 363 291 363 291 373 291 377.5 291 407.5 291 429.5 291 455 291 463.95 291 471.9 215 471.9 215 506.85 177 506.85 177 471.9 139 471.9 139 463.95 139 455 139 429.5 139 407.5 139 377.5 Z"/>

<path fill="#E05848" stroke="none" d="
M 291 455
L 291 429.5 139 429.5 139 455 291 455
M 139 373
L 139 377.5 291 377.5 291 373 139 373
M 504 444
L 504 418.5 352 418.5 352 444 504 444
M 352 362
L 352 366.5 504 366.5 504 362 352 362
M 272.25 279.5
L 285.3 272 225 272 228.6 279.5 272.25 279.5
M 254.85 289.5
L 263.55 284.5 230.95 284.5 233.35 289.5 254.85 289.5
M 420.95 261.25
L 420.95 238.45 347.95 238.45 347.95 238.55 311.95 238.55 311.95 238.5 284.1 238.5 265.8 238.5 237.95 238.5 237.95 238.55 201.95 238.55 201.95 261.3 219.95 261.3 237.95 261.3 237.95 261.25 304 261.25 311.95 261.25 311.95 261.3 347.95 261.3 347.95 261.25 420.95 261.25
M 101 79
L 101 78.95 87.2 78.95 87.2 79
Q 87.2 79.15 87.2 79.3 87.2 82.2 89.2 84.2 91.25 86.25 94.1 86.25 96.95 86.25 98.95 84.2 101 82.2 101 79.3 101 79.15 101 79
M 192.95 84.2
Q 194.95 86.25 197.8 86.25 200.65 86.25 202.7 84.2 204.7 82.2 204.7 79.3 204.7 79.15 204.7 79
L 204.7 78.95 190.9 78.95 190.9 79
Q 190.9 79.15 190.9 79.3 190.9 82.2 192.95 84.2
M 182.95 71
L 182.95 57.25 108.95 57.25 108.95 71 182.95 71 Z"/>

<path fill="#FFFFFF" stroke="none" d="
M 291 463.95
L 291 455 139 455 139 463.95 291 463.95
M 504 452.95
L 504 444 352 444 352 452.95 504 452.95
M 263.55 284.5
L 272.25 279.5 228.6 279.5 230.95 284.5 263.55 284.5
M 269.05 218.9
L 280.85 218.9 297.2 202 252.7 202 269.05 218.9
M 222.25 108.9
L 219.95 108.6
Q 217.5 108.45 215.25 108.95 210.55 109.95 207.7 113.55 204.05 118.2 203.3 132.35 203.85 115.8 199.35 99.3 193.25 86.2 182.95 84.75 167.353515625 83.5150390625 154.6 95.45 144.840234375 104.65078125 132.1 109.5 138.7619140625 105.5927734375 144.4 99.85 130.378125 107.6298828125 108.95 106.5 96.1240234375 105.3244140625 92.1 113.15 88.1982421875 120.878125 88.85 132.65 87.2408203125 115.1369140625 82.25 111.25 77.6560546875 108.28203125 71.95 108.55
L 69.65 108.9
Q 66.644921875 109.405078125 64.35 111.7 59 117.05 61.1 125.6 61.1775390625 125.9544921875 61.25 126.3
L 71.95 153 108.95 153 108.95 227 182.95 227 182.95 153 223.25 153 230.8 125.7
Q 230.8 125.65 230.8 125.6 230.85 125.35 230.95 125.1 232.75 116.9 227.55 111.7 225.25 109.4 222.25 108.9
M 226 119.7
L 226 119.75
Q 226 124.25 222.9 127.4 219.9 130.3 215.8 130.5
L 215.6 130.5
Q 213.95 130.5 212.7 127.4 211.55 124.3 211.5 119.95 211.5 119.85 211.5 119.75
L 211.5 119.7
Q 211.5 115.3 212.7 112.2 213.15 111.05 213.65 110.35
L 216.05 109
Q 220 109.4 222.9 112.2 226 115.3 226 119.7
M 75.85 109
L 78.25 110.35
Q 78.75 111.05 79.2 112.2 80.4 115.3 80.4 119.7
L 80.4 119.75
Q 80.4 119.85 80.4 119.95 80.35 124.3 79.2 127.4 77.95 130.5 76.3 130.5
L 76.1 130.5
Q 72 130.3 69 127.4 65.9 124.25 65.9 119.75
L 65.9 119.7
Q 65.9 115.3 69 112.2 71.9 109.4 75.85 109 Z"/>

<path fill="#694C39" stroke="none" d="
M 291 471.9
L 291 463.95 139 463.95 139 471.9 177 471.9 177 506.85 215 506.85 215 471.9 291 471.9
M 504 460.9
L 504 452.95 352 452.95 352 460.9 428 460.9 428 495.85 466 495.85 466 460.9 504 460.9 Z"/>

<path fill="#1ABC9C" stroke="none" d="
M 291 429.5
L 291 407.5 139 407.5 139 429.5 291 429.5
M 215 413.95
L 215 417.95 177 417.95 141 417.95 177 413.6 177 413.95 215 413.95
M 139 363
L 139 373 291 373 291 363 215 363 215 328.05 177 328.05 177 363 139 363
M 92.95 240
L 92.95 205.05 55.95 205.05 55.95 240 19.95 240 19.95 290.6 55.95 294.95 19.95 294.95 19.95 324.95 164.95 324.95 164.95 240 92.95 240
M 128.95 290.6
L 128.95 294.95 92.95 294.95 128.95 290.6
M 504 418.5
L 504 396.5 352 396.5 352 418.5 504 418.5
M 466 402.95
L 466 402.6 502 406.95 466 406.95 428 406.95 428 402.95 466 402.95
M 352 352
L 352 362 504 362 504 352 466 352 466 317.05 428 317.05 428 352 352 352
M 237.95 238.55
L 237.95 238.5 265.8 238.5 237.95 202 201.95 202 201.95 238.55 237.95 238.55
M 280.85 218.9
L 269.05 218.9 274.95 225 280.85 218.9
M 311.95 165.05
L 237.95 165.05 237.95 202 252.7 202 297.2 202 311.95 202 311.95 165.05
M 347.95 261.25
L 347.95 261.3 311.95 261.3 311.95 261.25 304 261.25 285.3 272 272.25 279.5 263.55 284.5 254.85 289.5 237.95 299.2 233.35 289.5 230.95 284.5 228.6 279.5 225 272 219.95 261.3 201.95 261.3 201.95 312 237.95 312 237.95 348.95 311.95 348.95 311.95 312 420.95 312 420.95 261.25 347.95 261.25
M 274.15 289.5
Q 277.8791015625 287.13515625 281.45 284.5 284.678515625 282.111328125 287.75 279.5 291.9771484375 275.9548828125 295.9 272 298.4681640625 269.459765625 300.9 266.75 299.0080078125 269.4509765625 297 272 293.9001953125 275.9306640625 290.5 279.5 288.0658203125 282.0955078125 285.45 284.5 282.6203125 287.1130859375 279.6 289.5 274.103125 293.879296875 268 297.5
L 265 294.75
Q 269.6890625 292.3166015625 274.15 289.5
M 420.95 238.45
L 420.95 202 311.95 202 284.1 238.5 311.95 238.5 311.95 238.55 347.95 238.55 347.95 238.45 420.95 238.45
M 498.95 96.65
L 498.95 46.05 462.95 46.05 462.95 11.1 425.95 11.1 425.95 46.05 353.95 46.05 353.95 131 498.95 131 498.95 101 462.95 101 498.95 96.65
M 389.95 101
L 389.95 96.65 425.95 101 389.95 101 Z"/>

<path fill="#18B193" stroke="none" d="
M 177 417.95
L 177 413.95 177 413.6 141 417.95 177 417.95
M 19.95 324.95
L 19.95 333.95 164.95 333.95 164.95 324.95 19.95 324.95
M 19.95 290.6
L 19.95 294.95 55.95 294.95 19.95 290.6
M 128.95 294.95
L 128.95 290.6 92.95 294.95 128.95 294.95
M 466 402.95
L 466 406.95 502 406.95 466 402.6 466 402.95
M 498.95 101
L 498.95 96.65 462.95 101 498.95 101
M 498.95 140
L 498.95 131 353.95 131 353.95 140 498.95 140
M 389.95 96.65
L 389.95 101 425.95 101 389.95 96.65 Z"/>

<path fill="#1BC9A6" stroke="none" d="
M 215 417.95
L 215 413.95 177 413.95 177 417.95 215 417.95
M 466 406.95
L 466 402.95 428 402.95 428 406.95 466 406.95 Z"/>

<path fill="#333333" stroke="none" d="
M 291 377.5
L 139 377.5 139 407.5 291 407.5 291 377.5
M 504 366.5
L 352 366.5 352 396.5 504 396.5 504 366.5
M 233.35 289.5
L 237.95 299.2 254.85 289.5 233.35 289.5
M 285.3 272
L 304 261.25 237.95 261.25 237.95 261.3 219.95 261.3 225 272 285.3 272
M 182.95 57.25
L 182.95 5 108.95 5 108.95 57.25 182.95 57.25
M 330.95 153
L 330.95 79 204.7 79
Q 204.7 79.15 204.7 79.3 204.7 82.2 202.7 84.2 200.65 86.25 197.8 86.25 194.95 86.25 192.95 84.2 190.9 82.2 190.9 79.3 190.9 79.15 190.9 79
L 182.95 79 182.95 71 108.95 71 108.95 79 101 79
Q 101 79.15 101 79.3 101 82.2 98.95 84.2 96.95 86.25 94.1 86.25 91.25 86.25 89.2 84.2 87.2 82.2 87.2 79.3 87.2 79.15 87.2 79
L 34.95 79 34.95 153 71.95 153 61.25 126.3
Q 61.1775390625 125.9544921875 61.1 125.6 59 117.05 64.35 111.7 66.644921875 109.405078125 69.65 108.9
L 71.95 108.55
Q 77.6560546875 108.28203125 82.25 111.25 87.2408203125 115.1369140625 88.85 132.65 88.1982421875 120.878125 92.1 113.15 96.1240234375 105.3244140625 108.95 106.5 130.378125 107.6298828125 144.4 99.85 138.7619140625 105.5927734375 132.1 109.5 144.840234375 104.65078125 154.6 95.45 167.353515625 83.5150390625 182.95 84.75 193.25 86.2 199.35 99.3 203.85 115.8 203.3 132.35 204.05 118.2 207.7 113.55 210.55 109.95 215.25 108.95 217.5 108.45 219.95 108.6
L 222.25 108.9
Q 225.25 109.4 227.55 111.7 232.75 116.9 230.95 125.1 230.85 125.35 230.8 125.6 230.8 125.65 230.8 125.7
L 223.25 153 330.95 153 Z"/>

<path fill="#FFE0B1" stroke="none" d="
M 55.95 347.9
L 55.95 384.85 92.95 384.85 92.95 347.9 164.95 347.9 164.95 333.95 19.95 333.95 19.95 347.9 55.95 347.9
M 498.95 153.95
L 498.95 140 353.95 140 353.95 153.95 425.95 153.95 425.95 190.9 462.95 190.9 462.95 153.95 498.95 153.95 Z"/>

<path fill="#17AA8D" stroke="none" d="
M 266.25 233
L 274.95 225 269.05 218.9 252.7 202 237.95 202 266.25 233
M 283.65 233
L 311.95 202 297.2 202 280.85 218.9 274.95 225 283.65 233
M 281.45 284.5
Q 277.8791015625 287.13515625 274.15 289.5 269.6890625 292.3166015625 265 294.75
L 268 297.5
Q 274.103125 293.879296875 279.6 289.5 282.6203125 287.1130859375 285.45 284.5 288.0658203125 282.0955078125 290.5 279.5 293.9001953125 275.9306640625 297 272 299.0080078125 269.4509765625 300.9 266.75 298.4681640625 269.459765625 295.9 272 291.9771484375 275.9548828125 287.75 279.5 284.678515625 282.111328125 281.45 284.5 Z"/>

<path fill="#1CCDAA" stroke="none" d="
M 284.1 238.5
L 311.95 202 283.65 233 274.95 225 266.25 233 237.95 202 265.8 238.5 284.1 238.5 Z"/>

<path fill="url(#Gradient_1)" stroke="none" d="
M 78.25 110.35
L 75.85 109
Q 71.9 109.4 69 112.2 65.9 115.3 65.9 119.7
L 65.9 119.75
Q 65.9 124.25 69 127.4 72 130.3 76.1 130.5
L 76.3 130.5
Q 77.95 130.5 79.2 127.4 80.35 124.3 80.4 119.95 80.4 119.85 80.4 119.75
L 80.4 119.7
Q 80.4 115.3 79.2 112.2 78.75 111.05 78.25 110.35 Z"/>

<path fill="url(#Gradient_2)" stroke="none" d="
M 226 119.75
L 226 119.7
Q 226 115.3 222.9 112.2 220 109.4 216.05 109
L 213.65 110.35
Q 213.15 111.05 212.7 112.2 211.5 115.3 211.5 119.7
L 211.5 119.75
Q 211.5 119.85 211.5 119.95 211.55 124.3 212.7 127.4 213.95 130.5 215.6 130.5
L 215.8 130.5
Q 219.9 130.3 222.9 127.4 226 124.25 226 119.75 Z"/>
</g>

<g id="Layer0_1_MEMBER_0_FILL">
<path fill="#FF66CC" fill-opacity="0.2" stroke="none" d="
M 132.35 114.35
Q 132.35 111.55 130.4 109.6 128.45 107.65 125.65 107.65 122.85 107.65 120.9 109.6 118.95 111.55 118.95 114.35 118.95 117.15 120.9 119.1 122.85 121.05 125.65 121.05 128.45 121.05 130.4 119.1 132.35 117.15 132.35 114.35 Z"/>
</g>

<g id="Layer0_1_MEMBER_1_FILL">
<path fill="#FF66CC" fill-opacity="0.2" stroke="none" d="
M 170.4 109.6
Q 168.45 107.65 165.65 107.65 162.85 107.65 160.9 109.6 158.95 111.55 158.95 114.35 158.95 117.15 160.9 119.1 162.85 121.05 165.65 121.05 168.45 121.05 170.4 119.1 172.35 117.15 172.35 114.35 172.35 111.55 170.4 109.6 Z"/>
</g>

<g id="Layer0_1_MEMBER_2_FILL">
<path fill="#414141" stroke="none" d="
M 122.9 116.3
Q 122.9 114.15 124.45 112.65 125.7 111.35 127.95 111.15 121.8 111.45 120.25 110.7 120.65 115.3 123.35 118.5 122.9 117.5 122.9 116.3
M 171.5 110.7
Q 169.928515625 111.4716796875 163.8 111.15 166.0482421875 111.355078125 167.3 112.65 168.85 114.15 168.85 116.3 168.85 117.4974609375 168.35 118.45 171.0826171875 115.3060546875 171.5 110.7 Z"/>

<path fill="#333333" stroke="none" d="
M 128.05 111.15
Q 128 111.15 127.95 111.15 125.7 111.35 124.45 112.65 122.9 114.15 122.9 116.3 122.9 117.5 123.35 118.5 123.75 119.2 124.3 119.8 124.4 119.85 124.45 119.9 125.9 121.45 128.05 121.45 130.15 121.45 131.7 119.9 133.2 118.45 133.2 116.3 133.2 114.15 131.7 112.65 130.15 111.15 128.05 111.15
M 163.8 111.15
Q 163.7501953125 111.15 163.7 111.15 161.6 111.15 160.05 112.65 158.55 114.15 158.55 116.3 158.55 118.45 160.05 119.9 161.6 121.45 163.7 121.45 165.85 121.45 167.3 119.9 167.36484375 119.8392578125 167.4 119.75 168.0234375 119.18359375 168.35 118.45 168.85 117.4974609375 168.85 116.3 168.85 114.15 167.3 112.65 166.0482421875 111.355078125 163.8 111.15 Z"/>

<path fill="#EEEEEE" stroke="none" d="
M 150.15 119.45
Q 148.45 117.75 146 117.75
L 145.95 117.75
Q 143.6 117.75 141.9 119.45 140.35 121.05 140.15 123.25
L 140.15 123.35
Q 140.15 124.25 141.9 124.95 143.6 125.6 145.95 125.6
L 146 125.6
Q 148.45 125.6 150.15 124.95 151.8 124.25 151.8 123.35
L 151.8 123.25
Q 151.7 121.05 150.15 119.45 Z"/>
</g>

<g id="Layer0_1_MEMBER_2_MEMBER_0_FILL">
<path fill="#333333" stroke="none" d="
M 171.25 99.35
Q 171 99.2 170.8 99.2 163.35 99.5 157.45 101.65 157.15 101.8 157 102.15 156.8 102.45 156.95 102.8
L 157.5 104.45
Q 157.6 104.75 157.95 104.9 158.25 105.1 158.6 104.95 164 103.2 170.8 103.45 171 103.45 171.25 103.35 171.4 103.2 171.55 103 171.65 102.8 171.65 102.55
L 171.65 100.1
Q 171.65 99.85 171.55 99.65 171.4 99.45 171.25 99.35 Z"/>
</g>

<g id="Layer0_1_MEMBER_2_MEMBER_1_FILL">
<path fill="#BF493B" stroke="none" d="
M 140.1 133.15
Q 139.1 134.2 139 135.6 139.15 137 140.9 138.05 143 139.25 145.75 139.25 148.55 139.25 150.5 138.05 152.35 137 152.6 135.6 152.5 134.2 151.45 133.15 150.35 132.05 148.8 132.05 147.25 132.05 146.1 133.15 145.95 133.35 145.8 133.55 145.65 133.35 145.45 133.15 144.35 132.05 142.8 132.05 141.25 132.05 140.1 133.15 Z"/>
</g>

<g id="Layer0_2_MEMBER_0_FILL">
<path fill="#E05848" stroke="none" d="
M 322 90.4
Q 321.95 89.9 321.7 89.5
L 319 85.95
Q 318.65 85.45 318.05 85.35 317.45 85.2 316.9 85.55
L 268.8 114.2
Q 268.35 114.4 268.15 114.85 267.95 115.3 268.05 115.8 268.1 116.3 268.45 116.65
L 269.6 117.9
Q 269.95 118.25 270.5 118.4 271.05 118.45 271.5 118.2
L 321.15 91.9
Q 321.55 91.65 321.8 91.25 322.05 90.8 322 90.4 Z"/>
</g>

<g id="Layer0_2_MEMBER_1_FILL">
<path fill="#E05848" stroke="none" d="
M 271.95 85.35
Q 271.35 85.45 271 85.95
L 268.3 89.5
Q 268.05 89.9 268 90.4 267.95 90.8 268.2 91.25 268.45 91.65 268.85 91.9
L 318.5 118.2
Q 318.95 118.45 319.5 118.4 320.05 118.25 320.4 117.9
L 321.55 116.65
Q 321.9 116.3 321.95 115.8 322.05 115.3 321.85 114.85 321.65 114.4 321.2 114.2
L 273.1 85.55
Q 272.55 85.2 271.95 85.35 Z"/>
</g>

<g id="Layer0_3_FILL">
<path fill="#2A2A2A" stroke="none" d="
M 313.15 113
Q 311.6193359375 116.2306640625 308.9 118.95 302.7 125.15 293.95 125.15 285.2 125.15 279 118.95 275.637890625 115.587890625 274.1 111.45 274.576953125 118.676953125 279.8 123.9 285.55 129.65 293.7 129.65 301.85 129.65 307.6 123.9 312.24765625 119.25234375 313.15 113 Z"/>

<path fill="#414141" stroke="none" d="
M 308.9 89.05
Q 302.7 82.85 293.95 82.85 285.2 82.85 279 89.05 272.8 95.25 272.8 104 272.8 108.0041015625 274.1 111.45 275.637890625 115.587890625 279 118.95 285.2 125.15 293.95 125.15 302.7 125.15 308.9 118.95 311.6193359375 116.2306640625 313.15 113 315.0826171875 108.958203125 315.1 104.1 315.1 104.04375 315.1 104 315.1 95.25 308.9 89.05 Z"/>
</g>

<g id="Layer0_4_FILL">
<path fill="#F0D3E7" stroke="none" d="
M 203.2 137.4
Q 204.1 137.1 203.35 135.3 203.3 135.3 203.3 135.25 201.25 131.8 198.3 129.5 198.2 129.4 198.05 129.4 197.85 129.4 197.75 129.5 194.8 131.8 192.75 135.25
L 192.75 135.3
Q 191.95 137.1 192.85 137.4 193.45 137.8 195.2 136.8
L 198.05 135.25 200.9 136.8
Q 202.65 137.8 203.2 137.4
M 203.35 127.3
Q 203.3 127.3 203.3 127.25 201.25 123.8 198.3 121.5 198.2 121.4 198.05 121.4 197.85 121.4 197.75 121.5 194.8 123.8 192.75 127.25
L 192.75 127.3
Q 191.95 129.1 192.85 129.4 193.45 129.8 195.2 128.8
L 198.05 127.25 200.9 128.8
Q 202.65 129.8 203.2 129.4 204.1 129.1 203.35 127.3
M 203.35 119.3
Q 203.3 119.3 203.3 119.25 201.25 115.8 198.3 113.5 198.2 113.4 198.05 113.4 197.85 113.4 197.75 113.5 194.8 115.8 192.75 119.25
L 192.75 119.3
Q 191.95 121.1 192.85 121.4 193.45 121.8 195.2 120.8
L 198.05 119.25 200.9 120.8
Q 202.65 121.8 203.2 121.4 204.1 121.1 203.35 119.3
M 203.35 111.3
Q 203.3 111.3 203.3 111.25 201.25 107.8 198.3 105.5 198.2 105.4 198.05 105.4 197.85 105.4 197.75 105.5 194.8 107.8 192.75 111.25
L 192.75 111.3
Q 191.95 113.1 192.85 113.4 193.45 113.8 195.2 112.8
L 198.05 111.25 200.9 112.8
Q 202.65 113.8 203.2 113.4 204.1 113.1 203.35 111.3
M 198.3 97.5
Q 198.2 97.4 198.05 97.4 197.85 97.4 197.75 97.5 194.8 99.8 192.75 103.25
L 192.75 103.3
Q 191.95 105.1 192.85 105.4 193.45 105.8 195.2 104.8
L 198.05 103.25 200.9 104.8
Q 202.65 105.8 203.2 105.4 204.1 105.1 203.35 103.3 203.3 103.3 203.3 103.25 201.25 99.8 198.3 97.5
M 198.3 89.5
Q 198.2 89.4 198.05 89.4 197.85 89.4 197.75 89.5 194.8 91.8 192.75 95.25
L 192.75 95.3
Q 191.95 97.1 192.85 97.4 193.45 97.8 195.2 96.8
L 198.05 95.25 200.9 96.8
Q 202.65 97.8 203.2 97.4 204.1 97.1 203.35 95.3 203.3 95.3 203.3 95.25 201.25 91.8 198.3 89.5 Z"/>
</g>
</defs>

<g transform="matrix( 1, 0, 0, 1, 0,0) ">
<use xlink:href="#Layer0_0_FILL"/>
</g>

<g transform="matrix( 1, 0, 0, 1, 0,0) ">
<use xlink:href="#Layer0_1_MEMBER_0_FILL"/>
</g>

<g transform="matrix( 1, 0, 0, 1, 0,0) ">
<use xlink:href="#Layer0_1_MEMBER_1_FILL"/>
</g>

<g transform="matrix( 1, 0, 0, 1, 0,0) ">
<use xlink:href="#Layer0_1_MEMBER_2_FILL"/>
</g>

<g transform="matrix( 1, 0, 0, 1, 0,0) ">
<use xlink:href="#Layer0_1_MEMBER_2_MEMBER_0_FILL"/>
</g>

<g transform="matrix( 1, 0, 0, 1, 0,0) ">
<use xlink:href="#Layer0_1_MEMBER_2_MEMBER_1_FILL"/>
</g>

<g transform="matrix( 1, 0, 0, 1, 0,0) ">
<use xlink:href="#Layer0_2_MEMBER_0_FILL"/>
</g>

<g transform="matrix( 1, 0, 0, 1, 0,0) ">
<use xlink:href="#Layer0_2_MEMBER_1_FILL"/>
</g>

<g transform="matrix( 1, 0, 0, 1, 0,0) ">
<use xlink:href="#Layer0_3_FILL"/>
</g>

<g transform="matrix( 1, 0, 0, 1, 0,0) ">
<use xlink:href="#Layer0_4_FILL"/>
</g>
</svg>
