# Alias OBJ Model File
# Exported from SketchUp, (c) 2000-2012 Trimble Navigation Limited
# File units = meters

mtllib watercraftPack_016.mtl

g Mesh1 Group1 Model

usemtl Dark_metal
v 0.40698 -3.20593e-031 0.95147
vt -23.1454 30.9434
vn 0.325791 -0.92287 0.205356
v 0.296815 0.2 2.02504
vt -61.2143 51.3895
v 0.178089 -3.20593e-031 1.3146
vt -40.0449 30.9434
f 1/1/1 2/2/1 3/3/1

v 0.6783 0.2 1.41983
vt -33.0485 51.3895
f 2/2/1 1/1/1 4/4/1

vt -37.4594 12.8975
vn 0.593353 -0.804942 1.79112e-018
v 0.6783 0.2 -0.95147
vt 37.4594 26.1678
vt -55.8988 26.1678
f 1/5/2 5/6/2 4/7/2

v 0.40698 -3.20593e-031 -0.95147
vt 37.4594 12.8975
f 5/6/2 1/5/2 6/8/2

vt -7.01139 -51.7558
vn 0 -1 -0
vt -16.0228 37.4594
vt -16.0228 -37.4594
f 3/9/3 6/10/3 1/11/3

v 0 -3.20593e-031 1.41317
vt 0 -55.6366
f 7/12/3 6/10/3 3/9/3

v -0.178089 -3.20593e-031 1.3146
vt 7.01139 -51.7558
f 8/13/3 6/10/3 7/12/3

v -0.40698 -3.20593e-031 0.95147
vt 16.0228 -37.4594
f 9/14/3 6/10/3 8/13/3

v -0.40698 -3.20593e-031 -0.95147
vt 16.0228 37.4594
f 6/10/3 9/14/3 10/15/3

v -0.6783 0.2 1.41983
vt 55.8988 26.1678
vn -0.593353 -0.804942 3.58224e-018
f 11/16/4 10/5/4 9/8/4

v -0.6783 0.2 -0.95147
vt -37.4594 26.1678
f 10/5/4 11/16/4 12/17/4

vt 55.8988 19.548
vn -0.881559 -0.472075 -1.97308e-018
v -0.8925 0.6 -0.95147
vt -37.4594 37.4119
vt -37.4594 19.548
f 11/18/5 13/19/5 12/20/5

v -0.8925 0.6 1.70603
vt 67.1665 37.4119
f 13/19/5 11/18/5 14/21/5

v -0.296815 0.2 2.02504
vt 61.2143 39.619
vn -0.649501 -0.640734 0.4094
vt 38.0838 60.1305
vt 33.0485 39.619
f 15/22/6 14/23/6 11/24/6

v -0.390546 0.6 2.50236
vt 75.1441 60.1305
f 14/23/6 15/22/6 16/25/6

vt 28.3846 62.214
vn -0.316584 -0.756718 0.571972
v 0 0.6 2.71853
vt 51.8304 86.3031
vt 34.2564 86.3031
f 15/26/7 17/27/7 16/28/7

v 0 0.2 2.18933
vt 41.7409 62.214
f 17/27/7 15/26/7 18/29/7

vt 18.9292 46.6946
vn -0.136814 -0.959262 0.247181
vt 41.7409 74.5654
vt 28.3846 74.5654
f 8/30/8 18/31/8 15/32/8

vt 26.9429 46.6946
f 18/31/8 8/30/8 7/33/8

vt -18.9292 46.6946
vn 0.136814 -0.959262 0.247181
vt -41.7409 74.5654
vt -26.9429 46.6946
f 3/34/9 18/35/9 7/36/9

vt -28.3846 74.5654
f 18/35/9 3/34/9 2/37/9

vt -28.3846 62.214
vn 0.316584 -0.756718 0.571972
vt -51.8304 86.3031
vt -41.7409 62.214
f 2/38/10 17/39/10 18/40/10

v 0.390546 0.6 2.50236
vt -34.2564 86.3031
f 17/39/10 2/38/10 19/41/10

vt -61.2143 39.619
vn 0.649501 -0.640734 0.4094
v 0.8925 0.6 1.70603
vt -38.0838 60.1305
vt -75.1441 60.1305
f 2/42/11 20/43/11 19/44/11

vt -33.0485 39.619
f 20/43/11 2/42/11 4/45/11

vt -55.8988 19.548
vn 0.881559 -0.472075 6.57693e-019
v 0.8925 0.6 -0.95147
vt 37.4594 37.4119
vt -67.1665 37.4119
f 4/46/12 21/47/12 20/48/12

vt 37.4594 19.548
f 21/47/12 4/46/12 5/49/12

vt -26.7047 7.87402
vn 0 0 -1
vt 35.1378 23.622
vt -35.1378 23.622
f 5/50/13 13/51/13 21/52/13

vt 26.7047 7.87402
f 13/51/13 5/50/13 12/53/13

vt -16.0228 -1.26218e-029
f 6/54/13 12/53/13 5/50/13

vt 16.0228 -1.26218e-029
f 12/53/13 6/54/13 10/55/13

usemtl Red_metal
v -0.847875 0.8 -0.95147
vt 33.3809 31.4961
f 22/56/13 21/52/13 13/51/13

v 0.847875 0.8 -0.95147
vt -33.3809 31.4961
f 21/52/13 22/56/13 23/57/13

v -0.551119 0.9 -0.95147
vt 21.6976 35.4331
f 23/57/13 22/56/13 24/58/13

vt -37.4594 -21.5754
vn -0.319334 0.947642 -2.6153e-017
v -0.551119 0.9 1.43011
vt 56.3033 -9.24658
vt -37.4594 -9.24658
f 22/59/14 25/60/14 24/61/14

v -0.847875 0.8 1.64641
vt 64.8191 -21.5754
f 25/60/14 22/59/14 26/62/14

vt -37.4594 15.4032
vn -0.976 0.21777 -2.29898e-019
vt 64.8191 23.4708
vt -37.4594 23.4708
f 13/63/15 26/64/15 22/65/15

vt 67.1665 15.4032
f 26/64/15 13/63/15 14/66/15

vt 38.0838 0.78547
vn -0.799036 0.328438 0.503657
v -0.371019 0.8 2.40292
vt 72.242 9.12195
vt 37.0347 9.12195
f 14/67/16 27/68/16 26/69/16

vt 75.1441 0.78547
f 27/68/16 14/67/16 16/70/16

vt 34.2564 -19.4026
vn -0.436185 0.434414 0.788053
v 0 0.8 2.60828
vt 49.7284 -10.6606
vt 33.0331 -10.6606
f 16/71/17 28/72/17 27/73/17

vt 51.8304 -19.4026
f 28/72/17 16/71/17 17/74/17

vt -51.8304 -19.4026
vn 0.436185 0.434414 0.788053
v 0.371019 0.8 2.40292
vt -33.0331 -10.6606
vt -49.7284 -10.6606
f 17/75/18 29/76/18 28/77/18

vt -34.2564 -19.4026
f 29/76/18 17/75/18 19/78/18

vt -38.0838 0.78547
vn 0.799036 0.328438 0.503657
vt -72.242 9.12195
vt -75.1441 0.78547
f 20/79/19 29/80/19 19/81/19

v 0.847875 0.8 1.64641
vt -37.0347 9.12195
f 29/80/19 20/79/19 30/82/19

vt 37.4594 15.4032
vn 0.976 0.21777 -2.71697e-019
vt -64.8191 23.4708
vt -67.1665 15.4032
f 21/83/20 30/84/20 20/85/20

vt 37.4594 23.4708
f 30/84/20 21/83/20 23/86/20

vt 37.4594 -21.5754
vn 0.319334 0.947642 5.46347e-017
v 0.551119 0.9 -0.17906
vt 7.0496 -9.24658
vt -64.8191 -21.5754
f 23/87/21 31/88/21 30/89/21

v 0.551119 0.9 -0.95147
vt 37.4594 -9.24658
f 32/90/21 31/88/21 23/87/21

v 0.551119 0.9 -0.32906
vt 12.9551 -9.24658
f 31/88/21 32/90/21 33/91/21

vt -21.6976 37.4594
vn 0 1 -0
vt 21.6976 12.9551
vt 21.6976 37.4594
f 24/92/22 33/93/22 32/94/22

v -0.551119 0.9 -0.32906
vt -21.6976 12.9551
f 33/93/22 24/92/22 34/95/22

v -0.551119 0.9 0.450523
vt 17.7371 -9.24658
vt -12.9551 -9.24658
f 24/61/14 35/96/14 34/97/14

v -0.551119 0.9 1.15052
vt 45.2962 -9.24658
f 24/61/14 36/98/14 35/96/14

f 24/61/14 25/60/14 36/98/14

v -0.241162 0.9 1.92184
vt -9.49459 -75.663
vt -21.6976 -45.2962
vt -21.6976 -56.3033
f 37/99/22 36/100/22 25/101/22

v 0.551119 0.9 1.15052
vt 21.6976 -45.2962
f 36/100/22 37/99/22 38/102/22

v 5.77529e-015 0.9 2.05532
vt 2.27374e-013 -80.9183
f 38/102/22 37/99/22 39/103/22

vt 28.334 -62.1591
vn -0.0980256 0.979299 0.177102
vt 49.7284 -81.6087
vt 39.1859 -62.1591
f 37/104/23 28/105/23 39/106/23

vt 33.0331 -81.6087
f 28/105/23 37/104/23 27/107/23

vt 36.0607 -37.3416
vn -0.222748 0.964712 0.140405
vt 72.242 -52.2938
vt 58.9454 -37.3416
f 25/108/24 27/109/24 37/110/24

vt 37.0347 -52.2938
f 27/109/24 25/108/24 26/111/24

vt -33.0331 -81.6087
vn 0.0980256 0.979299 0.177102
vt -39.1859 -62.1591
vt -49.7284 -81.6087
f 29/112/25 39/113/25 28/114/25

v 0.241162 0.9 1.92184
vt -28.334 -62.1591
f 39/113/25 29/112/25 40/115/25

vt -72.242 -52.2938
vn 0.222748 0.964712 0.140405
v 0.551119 0.9 1.43011
vt -36.0607 -37.3416
vt -58.9454 -37.3416
f 29/116/26 41/117/26 40/118/26

vt -37.0347 -52.2938
f 41/117/26 29/116/26 30/119/26

vt -45.2962 -9.24658
vt -56.3033 -9.24658
f 30/89/21 38/120/21 41/121/21

v 0.551119 0.9 0.450523
vt -17.7371 -9.24658
f 38/120/21 30/89/21 42/122/21

f 42/122/21 30/89/21 31/88/21

usemtl Grey_metal_1
v 0.551119 0.8 0.0709401
vt 2.79292 31.4961
vn -1 -6.02921e-015 -3.37508e-015
vt 17.7371 35.4331
vt -7.0496 35.4331
f 43/123/27 42/124/27 31/125/27

v 0.551119 0.6 0.450523
vt 17.7371 23.622
f 42/124/27 43/123/27 44/126/27

v 0.551119 0.6 0.0709401
vt 2.79292 23.622
f 45/127/27 44/126/27 43/123/27

v -0.551119 0.6 0.0709401
vt -21.6976 -2.79292
vt 21.6976 -17.7371
vt 21.6976 -2.79292
f 46/128/22 44/129/22 45/130/22

v -0.551119 0.6 0.450523
vt -21.6976 -17.7371
f 44/129/22 46/128/22 47/131/22

vt -2.79292 23.622
vn 1 -1.93302e-015 2.0578e-015
vt -17.7371 35.4331
vt -17.7371 23.622
f 46/132/28 35/133/28 47/134/28

v -0.551119 0.8 0.0709401
vt -2.79292 31.4961
f 35/133/28 46/132/28 48/135/28

usemtl Wood
vt -21.6976 23.622
vn 0 0 1
vt 21.6976 31.4961
vt -21.6976 31.4961
f 46/136/29 43/137/29 48/138/29

vt 21.6976 23.622
f 43/137/29 46/136/29 45/139/29

v -0.551119 0.8 -0.12906
vt -21.6976 5.0811
f 43/130/22 49/140/22 48/128/22

v 0.551119 0.8 -0.12906
vt 21.6976 5.0811
f 49/140/22 43/130/22 50/141/22

usemtl Grey_metal_1
vt -5.0811 31.4961
f 43/123/27 31/125/27 50/142/27

usemtl Wood
vt 21.6976 34.845
vn 7.99321e-032 0.447214 0.894427
vt -21.6976 30.4433
vt 21.6976 30.4433
f 31/143/30 49/144/30 50/145/30

v -0.551119 0.9 -0.17906
vt -21.6976 34.845
f 49/144/30 31/143/30 51/146/30

v 0.551119 1 -0.22906
vt 21.6976 39.2467
f 51/146/30 31/143/30 52/147/30

vt 12.9551 35.4331
vn 1 -1.77701e-014 -1.33276e-014
vt 9.01811 39.3701
vt 7.0496 35.4331
f 33/148/31 52/149/31 31/150/31

v 0.551119 1 -0.32906
vt 12.9551 39.3701
f 52/149/31 33/148/31 53/151/31

vt -21.6976 35.4331
v -0.551119 1 -0.32906
vt 21.6976 39.3701
vt -21.6976 39.3701
f 33/152/13 54/153/13 53/154/13

f 54/153/13 33/152/13 34/58/13

usemtl Grey_metal_1
v 0.551119 0.8 -0.32906
f 55/138/13 34/58/13 33/152/13

v -0.551119 0.8 -0.32906
f 34/58/13 55/138/13 56/137/13

f 56/95/22 50/141/22 55/93/22

f 50/141/22 56/95/22 49/140/22

vt 12.9551 31.4961
vn 1 6.35282e-015 -3.46517e-015
vt 5.0811 31.4961
f 56/155/32 51/150/32 49/156/32

f 51/150/32 56/155/32 34/148/32

usemtl Wood
v -0.551119 1 -0.22906
vt -9.01811 39.3701
vn -1 8.88506e-015 6.6638e-015
vt -12.9551 35.4331
f 57/157/33 34/158/33 51/125/33

vt -12.9551 39.3701
f 34/158/33 57/157/33 54/159/33

vt 21.6976 9.01811
vt -21.6976 9.01811
f 52/160/22 54/95/22 57/161/22

f 54/95/22 52/160/22 53/93/22

vt -21.6976 39.2467
f 51/146/30 52/147/30 57/162/30

usemtl Red_metal
vt -7.0496 -9.24658
f 51/163/14 34/97/14 35/96/14

usemtl Grey_metal_1
f 35/133/28 48/135/28 51/150/28

f 51/150/28 48/135/28 49/156/28

vn -1 -1.27056e-014 6.93035e-015
vt -12.9551 31.4961
f 31/125/34 55/164/34 50/142/34

f 55/164/34 31/125/34 33/158/34

f 35/58/13 44/136/13 47/139/13

f 44/136/13 35/58/13 42/152/13

usemtl Green_metal
f 35/131/22 38/102/22 42/129/22

f 38/102/22 35/131/22 36/100/22

usemtl Glass
v -0.551119 1.04975 0.800523
vt 31.5166 41.3288
vn -1 0 -0
vt 45.2962 35.4331
f 58/165/35 35/124/35 36/166/35

v -0.551119 1.04975 0.450523
vt 17.7371 41.3288
f 35/124/35 58/165/35 59/167/35

v 0.551119 1.04975 0.800523
vt 21.6976 -31.5166
vt -21.6976 -31.5166
f 60/168/22 59/131/22 58/169/22

v 0.551119 1.04975 0.450523
f 59/131/22 60/168/22 61/129/22

vt -31.5166 41.3288
vn 1 0 -0
vt -17.7371 41.3288
f 60/170/36 42/133/36 61/171/36

vt -45.2962 35.4331
f 42/133/36 60/170/36 38/172/36

vt -21.6976 -12.7184
vn 0 0.919381 0.393367
vt 21.6976 -27.7062
vt 21.6976 -12.7184
f 58/173/37 38/174/37 60/175/37

vt -21.6976 -27.7062
f 38/174/37 58/173/37 36/176/37

vt 21.6976 41.3288
vt -21.6976 41.3288
f 42/152/13 59/177/13 61/178/13

f 59/177/13 42/152/13 35/58/13

usemtl Red_metal
vt 9.49459 -75.663
vt 21.6976 -56.3033
f 38/102/22 40/179/22 41/180/22

f 38/102/22 39/103/22 40/179/22

f 23/57/13 24/58/13 32/152/13

usemtl Dark_metal
vt 61.2143 51.3895
vn -0.325791 -0.92287 0.205356
vt 23.1454 30.9434
vt 40.0449 30.9434
f 15/181/38 9/182/38 8/183/38

vt 33.0485 51.3895
f 9/182/38 15/181/38 11/184/38

