# Alias OBJ Model File
# Exported from SketchUp, (c) 2000-2012 Trimble Navigation Limited
# File units = meters

mtllib watercraftPack_019.mtl

g Mesh1 Group1 Model

usemtl Red_metal
v -0.241162 0.9 1.92184
vt -9.49459 -75.663
vn 0 1 -0
v -0.551119 0.9 1.15052
vt -21.6976 -45.2962
v -0.551119 0.9 1.43011
vt -21.6976 -56.3033
f 1/1/1 2/2/1 3/3/1

v 0.551119 0.9 1.15052
vt 21.6976 -45.2962
f 2/2/1 1/1/1 4/4/1

v 5.77529e-015 0.9 2.05532
vt 2.27374e-013 -80.9183
f 4/4/1 1/1/1 5/5/1

vt 28.334 -62.1591
vn -0.0980256 0.979299 0.177102
v 0 0.8 2.60828
vt 49.7284 -81.6087
vt 39.1859 -62.1591
f 1/6/2 6/7/2 5/8/2

v -0.371019 0.8 2.40292
vt 33.0331 -81.6087
f 6/7/2 1/6/2 7/9/2

vt 36.0607 -37.3416
vn -0.222748 0.964712 0.140405
vt 72.242 -52.2938
vt 58.9454 -37.3416
f 3/10/3 7/11/3 1/12/3

v -0.847875 0.8 1.64641
vt 37.0347 -52.2938
f 7/11/3 3/10/3 8/13/3

vt 56.3033 -9.24658
vn -0.319334 0.947642 1.63133e-018
v -0.847875 0.8 -0.95147
vt -37.4594 -21.5754
vt 64.8191 -21.5754
f 3/14/4 9/15/4 8/16/4

v -0.551119 0.9 -0.95147
vt -37.4594 -9.24658
f 9/15/4 3/14/4 10/17/4

vt 45.2962 -9.24658
f 10/17/4 3/14/4 2/18/4

v -0.551119 0.9 0.450523
vt 17.7371 -9.24658
f 10/17/4 2/18/4 11/19/4

usemtl Glass
vt 17.7371 35.4331
vn -1 0 -0
vt 45.2962 35.4331
v -0.551119 1.1995 0.450523
vt 17.7371 47.2245
f 11/20/5 2/21/5 12/22/5

usemtl Green_metal
vt -21.6976 -17.7371
f 4/4/1 11/23/1 2/2/1

v 0.551119 0.9 0.450523
vt 21.6976 -17.7371
f 11/23/1 4/4/1 13/24/1

usemtl Red_metal
vt -45.2962 -9.24658
vn 0.319334 0.947642 3.17775e-018
v 0.847875 0.8 1.64641
vt -64.8191 -21.5754
vt -17.7371 -9.24658
f 4/25/6 14/26/6 13/27/6

v 0.551119 0.9 1.43011
vt -56.3033 -9.24658
f 14/26/6 4/25/6 15/28/6

v 0.241162 0.9 1.92184
vt 9.49459 -75.663
vt 21.6976 -56.3033
f 4/4/1 16/29/1 15/30/1

f 4/4/1 5/5/1 16/29/1

vt -39.1859 -62.1591
vn 0.0980256 0.979299 0.177102
v 0.371019 0.8 2.40292
vt -33.0331 -81.6087
vt -28.334 -62.1591
f 5/31/7 17/32/7 16/33/7

vt -49.7284 -81.6087
f 17/32/7 5/31/7 6/34/7

v 0 0.6 2.71853
vt -51.8304 -19.4026
vn 0.436185 0.434414 0.788053
vt -33.0331 -10.6606
vt -49.7284 -10.6606
f 18/35/8 17/36/8 6/37/8

v 0.390546 0.6 2.50236
vt -34.2564 -19.4026
f 17/36/8 18/35/8 19/38/8

usemtl Dark_metal
vt -51.8304 86.3031
vn 0.316584 -0.756718 0.571972
v 0.296815 0.2 2.02504
vt -28.3846 62.214
vt -34.2564 86.3031
f 18/39/9 20/40/9 19/41/9

v 0 0.2 2.18933
vt -41.7409 62.214
f 20/40/9 18/39/9 21/42/9

vt 51.8304 86.3031
vn -0.316584 -0.756718 0.571972
v -0.296815 0.2 2.02504
vt 28.3846 62.214
vt 41.7409 62.214
f 18/43/10 22/44/10 21/45/10

v -0.390546 0.6 2.50236
vt 34.2564 86.3031
f 22/44/10 18/43/10 23/46/10

usemtl Red_metal
vt 49.7284 -10.6606
vn -0.436185 0.434414 0.788053
vt 34.2564 -19.4026
vt 51.8304 -19.4026
f 6/47/11 23/48/11 18/49/11

vt 33.0331 -10.6606
f 23/48/11 6/47/11 7/50/11

vt 72.242 9.12195
vn -0.799036 0.328438 0.503657
v -0.8925 0.6 1.70603
vt 38.0838 0.78547
vt 75.1441 0.78547
f 7/51/12 24/52/12 23/53/12

vt 37.0347 9.12195
f 24/52/12 7/51/12 8/54/12

vt 64.8191 23.4708
vn -0.976 0.21777 -3.76196e-019
v -0.8925 0.6 -0.95147
vt -37.4594 15.4032
vt 67.1665 15.4032
f 8/55/13 25/56/13 24/57/13

vt -37.4594 23.4708
f 25/56/13 8/55/13 9/58/13

vt 33.3809 31.4961
vn 0 0 -1
v 0.8925 0.6 -0.95147
vt -35.1378 23.622
vt 35.1378 23.622
f 9/59/14 26/60/14 25/61/14

v 0.847875 0.8 -0.95147
vt -33.3809 31.4961
f 26/60/14 9/59/14 27/62/14

vt 21.6976 35.4331
f 27/62/14 9/59/14 10/63/14

v 0.551119 0.9 -0.95147
vt -21.6976 35.4331
f 27/62/14 10/63/14 28/64/14

vt -21.6976 37.4594
v 0.551119 0.9 -0.32906
vt 21.6976 12.9551
vt 21.6976 37.4594
f 10/65/1 29/66/1 28/67/1

v -0.551119 0.9 -0.32906
vt -21.6976 12.9551
f 29/66/1 10/65/1 30/68/1

vt -12.9551 -9.24658
f 10/17/4 11/19/4 30/69/4

usemtl Grey_metal_1
v -0.551119 1.1995 -0.17906
vt -7.0496 47.2245
vt -12.9551 35.4331
f 11/20/5 31/70/5 30/71/5

f 31/70/5 11/20/5 12/22/5

vt 21.6976 47.2245
f 12/72/14 13/64/14 11/63/14

v 0.551119 1.1995 0.450523
vt -21.6976 47.2245
f 13/64/14 12/72/14 32/73/14

vt -21.6976 7.0496
f 32/24/1 31/74/1 12/23/1

v 0.551119 1.1995 -0.17906
vt 21.6976 7.0496
f 31/74/1 32/24/1 33/75/1

vt -17.7371 47.2245
vn 1 0 -0
vt 12.9551 35.4331
vt 7.0496 47.2245
f 32/76/15 29/77/15 33/78/15

vt -17.7371 35.4331
f 29/77/15 32/76/15 13/79/15

usemtl Glass
vt -45.2962 35.4331
f 32/76/15 4/80/15 13/79/15

vt -21.6976 2.26941
vn 0 0.919381 0.393367
vt 21.6976 -27.7062
vt 21.6976 2.26941
f 12/81/16 4/82/16 32/83/16

vt -21.6976 -27.7062
f 4/82/16 12/81/16 2/84/16

usemtl Red_metal
vt 12.9551 -9.24658
f 13/27/6 14/26/6 29/85/6

vt 37.4594 -9.24658
f 29/85/6 14/26/6 28/86/6

vt 37.4594 -21.5754
f 28/86/6 14/26/6 27/87/6

vt -64.8191 23.4708
vn 0.976 0.21777 1.67198e-019
vt 37.4594 15.4032
vt 37.4594 23.4708
f 14/88/17 26/89/17 27/90/17

v 0.8925 0.6 1.70603
vt -67.1665 15.4032
f 26/89/17 14/88/17 34/91/17

vt -72.242 9.12195
vn 0.799036 0.328438 0.503657
vt -38.0838 0.78547
vt -37.0347 9.12195
f 17/92/18 34/93/18 14/94/18

vt -75.1441 0.78547
f 34/93/18 17/92/18 19/95/18

usemtl Dark_metal
vt -61.2143 39.619
vn 0.649501 -0.640734 0.4094
vt -38.0838 60.1305
vt -75.1441 60.1305
f 20/96/19 34/97/19 19/98/19

v 0.6783 0.2 1.41983
vt -33.0485 39.619
f 34/97/19 20/96/19 35/99/19

vt -61.2143 51.3895
vn 0.325791 -0.92287 0.205356
v 0.40698 -1.60297e-031 0.95147
vt -23.1454 30.9434
vt -33.0485 51.3895
f 20/100/20 36/101/20 35/102/20

v 0.178089 -1.60297e-031 1.3146
vt -40.0449 30.9434
f 36/101/20 20/100/20 37/103/20

vt -41.7409 74.5654
vn 0.136814 -0.959262 0.247181
vt -18.9292 46.6946
vt -28.3846 74.5654
f 21/104/21 37/105/21 20/106/21

v 0 -1.60297e-031 1.41317
vt -26.9429 46.6946
f 37/105/21 21/104/21 38/107/21

vt 41.7409 74.5654
vn -0.136814 -0.959262 0.247181
v -0.178089 -1.60297e-031 1.3146
vt 18.9292 46.6946
vt 26.9429 46.6946
f 21/108/22 39/109/22 38/110/22

vt 28.3846 74.5654
f 39/109/22 21/108/22 22/111/22

vt 61.2143 51.3895
vn -0.325791 -0.92287 0.205356
v -0.40698 -1.60297e-031 0.95147
vt 23.1454 30.9434
vt 40.0449 30.9434
f 22/112/23 40/113/23 39/114/23

v -0.6783 0.2 1.41983
vt 33.0485 51.3895
f 40/113/23 22/112/23 41/115/23

vt 61.2143 39.619
vn -0.649501 -0.640734 0.4094
vt 38.0838 60.1305
vt 33.0485 39.619
f 22/116/24 24/117/24 41/118/24

vt 75.1441 60.1305
f 24/117/24 22/116/24 23/119/24

vt -37.4594 37.4119
vn -0.881559 -0.472075 -4.60385e-018
vt 55.8988 19.548
vt 67.1665 37.4119
f 25/120/25 41/121/25 24/122/25

v -0.6783 0.2 -0.95147
vt -37.4594 19.548
f 41/121/25 25/120/25 42/123/25

v 0.6783 0.2 -0.95147
vt -26.7047 7.87402
vt 26.7047 7.87402
f 25/61/14 43/124/14 42/125/14

f 43/124/14 25/61/14 26/60/14

vt 37.4594 37.4119
vn 0.881559 -0.472075 6.57693e-019
vt -55.8988 19.548
vt 37.4594 19.548
f 26/126/26 35/127/26 43/128/26

vt -67.1665 37.4119
f 35/127/26 26/126/26 34/129/26

vt -37.4594 12.8975
vn 0.593353 -0.804942 -1.79112e-018
vt 37.4594 26.1678
vt -55.8988 26.1678
f 36/130/27 43/131/27 35/132/27

v 0.40698 -1.60297e-031 -0.95147
vt 37.4594 12.8975
f 43/131/27 36/130/27 44/133/27

vt -7.01139 -51.7558
vn 0 -1 -0
vt -16.0228 37.4594
vt -16.0228 -37.4594
f 37/134/28 44/135/28 36/136/28

vt 0 -55.6366
f 38/137/28 44/135/28 37/134/28

vt 7.01139 -51.7558
f 39/138/28 44/135/28 38/137/28

vt 16.0228 -37.4594
f 40/139/28 44/135/28 39/138/28

v -0.40698 -1.60297e-031 -0.95147
vt 16.0228 37.4594
f 44/135/28 40/139/28 45/140/28

vt 55.8988 26.1678
vn -0.593353 -0.804942 3.58224e-018
f 41/141/29 45/130/29 40/133/29

vt -37.4594 26.1678
f 45/130/29 41/141/29 42/142/29

vt -16.0228 -6.31089e-030
vt 16.0228 -6.31089e-030
f 42/125/14 44/143/14 45/144/14

f 44/143/14 42/125/14 43/124/14

usemtl Red_metal
vt -36.0607 -37.3416
vn 0.222748 0.964712 0.140405
vt -72.242 -52.2938
vt -37.0347 -52.2938
f 15/145/30 17/146/30 14/147/30

vt -58.9454 -37.3416
f 17/146/30 15/145/30 16/148/30

usemtl Grey_metal_1
f 11/24/28 29/68/28 13/23/28

f 29/68/28 11/24/28 30/66/28

vt 21.6976 39.068
vn 3.83547e-031 0.447807 -0.89413
vt -21.6976 25.8804
vt 21.6976 25.8804
f 31/149/31 29/150/31 30/151/31

vt -21.6976 39.068
f 29/150/31 31/149/31 33/152/31

