# Alias OBJ Model File
# Exported from SketchUp, (c) 2000-2012 Trimble Navigation Limited
# File units = meters

mtllib watercraftPack_013.mtl

g Mesh1 Group1 Model

usemtl Grey_metal_1
v 0.55 0.35 -0.6
vt 21.6535 13.7795
vn 2.62513e-015 0 1
v -0.55 0.15 -0.6
vt -21.6535 5.90551
v 0.55 0.15 -0.6
vt 21.6535 5.90551
f 1/1/1 2/2/1 3/3/1

v -0.55 0.35 -0.6
vt -21.6535 13.7795
f 2/2/1 1/1/1 4/4/1

vt -21.6535 23.622
vn 0 1 -0
v 0.55 0.35 -0.4
vt 21.6535 15.748
vt 21.6535 23.622
f 4/5/2 5/6/2 1/7/2

v -0.55 0.35 -0.4
vt -21.6535 15.748
f 5/6/2 4/5/2 6/8/2

vt 15.748 13.7795
vn 1 0 -0
vt 23.622 5.90551
vt 23.622 13.7795
f 6/9/3 2/10/3 4/11/3

v -0.55 0.15 -0.4
vt 15.748 5.90551
f 2/10/3 6/9/3 7/12/3

f 7/2/1 5/1/1 6/4/1

v 0.55 0.15 -0.4
f 5/1/1 7/2/1 8/3/1

f 8/6/2 2/5/2 7/8/2

f 2/5/2 8/6/2 3/7/2

vt -15.748 5.90551
vn -1 0 -0
vt -23.622 13.7795
vt -23.622 5.90551
f 8/13/4 1/14/4 3/15/4

vt -15.748 13.7795
f 1/14/4 8/13/4 5/16/4

v 0.55 0.15 -0.2
vt -7.87402 5.90551
f 9/17/4 5/16/4 8/13/4

v 0.55 0.35 -0.2
vt -7.87402 13.7795
f 5/16/4 9/17/4 10/18/4

v 0.55 0.15 0.295
vt 11.6142 5.90551
f 9/17/4 11/19/4 10/18/4

v -0.55 0.15 -0.2
vt -21.6535 7.87402
vt 21.6535 -11.6142
vt 21.6535 7.87402
f 12/20/2 11/21/2 9/22/2

v -0.55 0.15 0.295
vt -21.6535 -11.6142
f 11/21/2 12/20/2 13/23/2

vt 7.87402 5.90551
vn 1 1.25164e-015 3.78891e-016
v -0.55 0.45 0.295
vt -11.6142 17.7165
vt -11.6142 5.90551
f 12/24/5 14/25/5 13/26/5

v -0.55 0.35 -0.2
vt 7.87402 13.7795
f 14/25/5 12/24/5 15/27/5

vn 1 0 -3.60956e-015
f 7/12/6 15/27/6 12/24/6

f 15/27/6 7/12/6 6/9/6

usemtl Wood
f 15/20/2 5/6/2 6/8/2

f 5/6/2 15/20/2 10/22/2

f 12/2/1 10/1/1 15/4/1

f 10/1/1 12/2/1 9/3/1

usemtl Grey_metal_1
f 8/6/2 12/20/2 9/22/2

f 12/20/2 8/6/2 7/8/2

v 0.55 0.45 -0.433333
vt -17.0604 17.7165
f 10/18/4 16/28/4 5/16/4

f 11/19/4 16/28/4 10/18/4

v 0.55 0.45 0.295
vt 11.6142 17.7165
f 16/28/4 11/19/4 17/29/4

vn 0 0 -1
vt 21.6535 17.7165
vt -21.6535 17.7165
f 11/2/7 14/30/7 17/31/7

f 14/30/7 11/2/7 13/3/7

vn 8.20354e-017 1 -1.28913e-016
v 0.55 0.45 0.995
vt 21.6535 -39.1732
f 14/23/8 18/32/8 17/21/8

v -0.55 0.45 0.995
vt -21.6535 -39.1732
f 18/32/8 14/23/8 19/33/8

usemtl Glass
v -0.55 0.824627 0.47
vt 18.5039 32.4656
vn -1 1.92701e-015 -0
vt 39.1732 17.7165
f 20/34/9 14/29/9 19/35/9

v -0.55 0.824627 0.295
vt 11.6142 32.4656
f 14/29/9 20/34/9 21/36/9

v 0.55 0.824627 0.47
vt 21.6535 -18.5039
vt -21.6535 -18.5039
f 22/37/2 21/23/2 20/38/2

v 0.55 0.824627 0.295
f 21/23/2 22/37/2 23/21/2

vt -18.5039 32.4656
vt -11.6142 32.4656
f 22/39/3 17/25/3 23/40/3

vt -39.1732 17.7165
f 17/25/3 22/39/3 18/41/3

vt -21.6535 3.7955
vn 1.67458e-018 0.814007 0.580855
vt 21.6535 -21.5965
vt 21.6535 3.7955
f 20/42/10 18/43/10 22/44/10

vt -21.6535 -21.5965
f 18/43/10 20/42/10 19/45/10

usemtl Red_metal
vn 3.57453e-017 1 6.47033e-017
v -0.417522 0.45 1.68421
vt -16.4379 -66.3076
f 19/33/11 24/46/11 18/32/11

v -0.75 0.45 1.40355
vt -29.5276 -55.2578
f 19/33/11 25/47/11 24/46/11

v -0.75 0.45 -0.8
vt -29.5276 31.4961
f 25/47/11 19/33/11 26/48/11

v -0.55 0.45 -0.6
f 27/5/11 26/48/11 19/33/11

v -0.545 0.45 -0.8
vt -21.4567 31.4961
f 26/48/11 27/5/11 28/49/11

v 0.55 0.45 -0.6
f 28/49/11 27/5/11 29/7/11

usemtl Grey_metal_1
vn -2.62513e-015 8.55065e-045 -1
f 1/4/12 27/30/12 29/31/12

f 27/30/12 1/4/12 4/1/12

v -0.55 0.45 -0.433333
vt 17.0604 17.7165
vt 23.622 17.7165
f 30/50/3 4/11/3 27/51/3

f 4/11/3 30/50/3 6/9/3

f 30/50/5 15/27/5 6/9/5

f 14/25/5 15/27/5 30/50/5

usemtl Red_metal
vt -21.6535 17.0604
f 27/5/11 14/23/11 30/52/11

f 27/5/11 19/33/11 14/23/11

usemtl Wood
v -0.55 0.65 -0.5
vt -19.685 25.5906
vt -23.622 17.7165
f 31/53/4 27/54/4 30/28/4

v -0.55 0.65 -0.6
vt -23.622 25.5906
f 27/54/4 31/53/4 32/55/4

v 0.55 0.65 -0.5
vt 21.6535 19.685
vt -21.6535 19.685
f 33/56/2 32/5/2 31/57/2

v 0.55 0.65 -0.6
f 32/5/2 33/56/2 34/7/2

vt 19.685 25.5906
vt 23.622 25.5906
f 33/58/3 29/51/3 34/59/3

f 29/51/3 33/58/3 16/50/3

vt -21.6535 22.2023
vn 2.48873e-015 0.316228 0.948683
vt 21.6535 22.2023
vt 21.6535 30.5023
f 30/60/13 16/61/13 33/62/13

vt -21.6535 18.0524
f 6/63/13 16/61/13 30/60/13

vt 21.6535 18.0524
f 16/61/13 6/63/13 5/64/13

usemtl Grey_metal_1
f 16/28/4 1/14/4 5/16/4

f 1/14/4 16/28/4 29/54/4

usemtl Red_metal
vt 21.6535 17.0604
v 0.75 0.45 1.40355
vt 29.5276 -55.2578
f 16/65/11 35/66/11 29/7/11

f 17/21/11 35/66/11 16/65/11

f 18/32/11 35/66/11 17/21/11

v 0.417522 0.45 1.68421
vt 16.4379 -66.3076
f 18/32/11 36/67/11 35/66/11

v 0 0.45 1.79645
vt -6.33283e-016 -70.7264
f 18/32/11 37/68/11 36/67/11

f 18/32/11 24/46/11 37/68/11

v -0.417522 0.65 1.68421
vt -1.33922 25.5906
vn 0.259601 0 -0.965716
vt -18.3606 17.7165
vt -1.33922 17.7165
f 38/69/14 37/70/14 24/71/14

v 0 0.65 1.79645
vt -18.3606 25.5906
f 37/70/14 38/69/14 39/72/14

v 0 0.65 1.9
vt 0 -74.8031
vt 0 -70.7264
f 38/46/2 40/73/2 39/74/2

v -0.465 0.65 1.775
vt -18.3071 -69.8819
f 38/46/2 41/75/2 40/73/2

v -0.75 0.65 1.40355
f 42/47/2 41/75/2 38/46/2

v -0.85 0.65 1.45
vt -33.4646 -57.0866
f 42/47/2 43/76/2 41/75/2

v -0.85 0.65 -0.9
vt -33.4646 35.4331
f 43/76/2 42/47/2 44/77/2

v -0.75 0.65 -0.8
f 45/48/2 44/77/2 42/47/2

v -0.545 0.65 -0.9
vt -21.4567 35.4331
f 44/77/2 45/48/2 46/78/2

v -0.545 0.65 -0.8
f 46/78/2 45/48/2 47/49/2

vt -29.5276 17.7165
vn 0 0 1
vt -21.4567 25.5906
vt -29.5276 25.5906
f 26/79/15 47/80/15 45/81/15

vt -21.4567 17.7165
f 47/80/15 26/79/15 28/82/15

v -0.545 0.45 -0.9
vt 35.4331 17.7165
vt 31.4961 25.5906
vt 31.4961 17.7165
f 48/83/3 47/84/3 28/85/3

vt 35.4331 25.5906
f 47/84/3 48/83/3 46/86/3

vt 21.4567 17.7165
vt 33.4646 25.5906
vt 21.4567 25.5906
f 48/87/7 44/88/7 46/89/7

v -0.8925 0.35 -0.9
vt 35.1378 13.7795
f 48/87/7 49/90/7 44/88/7

v 0.8925 0.35 -0.9
vt -35.1378 13.7795
f 49/90/7 48/87/7 50/91/7

v 0.545 0.45 -0.9
f 51/82/7 50/91/7 48/87/7

v 0.85 0.65 -0.9
vt -33.4646 25.5906
f 50/91/7 51/82/7 52/92/7

v 0.545 0.65 -0.9
f 52/92/7 51/82/7 53/80/7

v 0.545 0.45 -0.8
vt -31.4961 17.7165
vt -35.4331 25.5906
vt -35.4331 17.7165
f 54/93/4 53/94/4 51/95/4

v 0.545 0.65 -0.8
vt -31.4961 25.5906
f 53/94/4 54/93/4 55/96/4

v 0.75 0.65 -0.8
vt 29.5276 25.5906
f 54/87/15 56/97/15 55/89/15

v 0.75 0.45 -0.8
vt 29.5276 17.7165
f 56/97/15 54/87/15 57/98/15

vt 21.4567 31.4961
vt 29.5276 31.4961
f 54/99/11 29/7/11 57/100/11

f 48/78/11 29/7/11 54/99/11

f 28/49/11 29/7/11 48/78/11

vt 21.4567 35.4331
f 51/101/11 48/78/11 54/99/11

f 57/100/11 29/7/11 35/66/11

vt 55.2578 17.7165
f 35/102/4 56/96/4 57/93/4

v 0.75 0.65 1.40355
vt 55.2578 25.5906
f 56/96/4 35/102/4 58/103/4

vt 30.2111 17.7165
vn -0.645052 1.13731e-018 -0.764139
vt 13.081 25.5906
vt 13.081 17.7165
f 36/104/16 58/105/16 35/106/16

v 0.417522 0.65 1.68421
vt 30.2111 25.5906
f 58/105/16 36/104/16 59/107/16

vt 1.33922 17.7165
vn -0.259601 0 -0.965716
vt 18.3606 25.5906
vt 1.33922 25.5906
f 36/108/17 39/109/17 59/110/17

vt 18.3606 17.7165
f 39/109/17 36/108/17 37/111/17

v 0.465 0.65 1.775
vt 18.3071 -69.8819
f 39/74/2 60/112/2 59/67/2

f 39/74/2 40/73/2 60/112/2

v 0 0.35 1.97
vt -20.1344 -3.0222
vn 0.253251 0.219822 0.942095
vt -0.461967 9.08497
vt -19.419 9.08497
f 61/113/18 60/114/18 40/115/18

v 0.48825 0.35 1.83875
vt -0.229553 -3.0222
f 60/114/18 61/113/18 62/116/18

usemtl Dark_metal
vt -20.1344 68.4121
vn 0.154374 -0.803979 0.574271
v 0.372 0.1 1.52
vt -1.39163 51.8606
vt -0.229553 68.4121
f 61/117/19 63/118/19 62/119/19

v -4.33147e-015 0.1 1.62
vt -16.5572 51.8606
f 63/118/19 61/117/19 64/120/19

vt 20.1344 68.4121
vn -0.154374 -0.803979 0.574271
v -0.372 0.1 1.52
vt 1.39163 51.8606
vt 16.5572 51.8606
f 61/121/20 65/122/20 64/123/20

v -0.48825 0.35 1.83875
vt 0.229553 68.4121
f 65/122/20 61/121/20 66/124/20

usemtl Red_metal
vt 19.419 9.08497
vn -0.253251 0.219822 0.942095
vt 0.229553 -3.0222
vt 20.1344 -3.0222
f 40/125/21 66/126/21 61/127/21

vt 0.461967 9.08497
f 66/126/21 40/125/21 41/128/21

vt 31.0883 11.486
vn -0.63098 0.207738 0.747469
v -0.8925 0.35 1.4975
vt 11.18 -0.588432
vt 32.0078 -0.588432
f 41/129/22 67/130/22 66/131/22

vt 11.2523 11.486
f 67/130/22 41/129/22 43/132/22

vt 57.0866 20.6436
vn -0.990114 0.140266 8.08318e-019
vt -35.4331 8.71466
vt 58.9567 8.71466
f 43/133/23 49/134/23 67/135/23

vt -35.4331 20.6436
f 49/134/23 43/133/23 44/136/23

usemtl Dark_metal
vt -35.4331 33.2561
vn -0.761939 -0.647648 4.43174e-019
v -0.68 0.1 1.26
vt 49.6063 20.3384
vt 58.9567 33.2561
f 49/137/24 68/138/24 67/139/24

v -0.68 0.1 -0.9
vt -35.4331 20.3384
f 68/138/24 49/137/24 69/140/24

v 0.68 0.1 -0.9
vt -26.7717 3.93701
vt 26.7717 3.93701
f 49/90/7 70/141/7 69/142/7

f 70/141/7 49/90/7 50/91/7

vt 35.4331 33.2561
vn 0.761939 -0.647648 -2.12724e-017
v 0.68 0.1 1.26
vt -49.6063 20.3384
vt 35.4331 20.3384
f 50/143/25 71/144/25 70/145/25

v 0.8925 0.35 1.4975
vt -58.9567 33.2561
f 71/144/25 50/143/25 72/146/25

usemtl Red_metal
vt 35.4331 8.71466
vn 0.990114 0.140266 3.27946e-018
v 0.85 0.65 1.45
vt -57.0866 20.6436
vt -58.9567 8.71466
f 50/147/26 73/148/26 72/149/26

vt 35.4331 20.6436
f 73/148/26 50/147/26 52/150/26

vt 33.4646 35.4331
vt 33.4646 -57.0866
f 52/151/2 56/100/2 73/152/2

f 53/101/2 56/100/2 52/151/2

f 56/100/2 53/101/2 55/99/2

f 58/66/2 73/152/2 56/100/2

f 58/66/2 60/112/2 73/152/2

f 59/67/2 60/112/2 58/66/2

vt -32.0078 -0.588432
vn 0.63098 0.207738 0.747469
vt -11.2523 11.486
vt -31.0883 11.486
f 62/153/27 73/154/27 60/155/27

vt -11.18 -0.588432
f 73/154/27 62/153/27 72/156/27

usemtl Dark_metal
vt -32.0078 61.778
vn 0.398237 -0.786671 0.471758
vt -11.5414 45.8353
vt -11.18 61.778
f 62/157/28 71/158/28 72/159/28

vt -27.4102 45.8353
f 71/158/28 62/157/28 63/160/28

vt -27.4102 54.7174
vn 0.13977 -0.976243 0.165574
v 0.408 -9.02389e-017 0.9
vt -10.5818 36.5478
vt -11.5414 54.7174
f 63/161/29 74/162/29 71/163/29

v 0.2232 0 1.056
vt -20.1031 36.5478
f 74/162/29 63/161/29 75/164/29

vt -1.39163 61.125
vn 0.0522454 -0.979539 0.194353
v 0 0 1.116
vt -11.4061 41.5625
vt -2.30673 41.5625
f 63/165/30 76/166/30 75/167/30

vt -16.5572 61.125
f 76/166/30 63/165/30 64/168/30

usemtl Grey_metal_1
vt 1.70644e-013 -63.7795
vn -2.88579e-017 -1 -5.60952e-018
vt -26.7717 35.4331
vt -14.6457 -59.8425
f 64/169/31 70/170/31 63/171/31

vt 14.6457 -59.8425
f 65/172/31 70/170/31 64/169/31

vt 26.7717 -49.6063
f 68/173/31 70/170/31 65/172/31

vt 26.7717 35.4331
f 70/170/31 68/173/31 69/174/31

usemtl Dark_metal
v -0.408 0 -0.9
vt -35.4331 15.0764
vn -0.345066 -0.938579 -6.07481e-019
vt 49.6063 26.4858
vt -35.4331 26.4858
f 77/175/32 68/176/32 69/177/32

v -0.408 0 0.9
vt 35.4331 15.0764
f 68/176/32 77/175/32 78/178/32

v 0.408 0 -0.9
vt -16.063 35.4331
vn -4.80965e-017 -1 -7.5762e-018
vt 16.063 -35.4331
vt 16.063 35.4331
f 79/179/33 78/180/33 77/181/33

v -0.2232 0 1.056
vt 8.7874 -41.5748
f 78/180/33 79/179/33 80/182/33

vt 0 -43.937
f 80/182/33 79/179/33 76/183/33

vt -8.7874 -41.5748
f 76/183/33 79/179/33 75/184/33

vt -16.063 -35.4331
f 75/184/33 79/179/33 74/185/33

vt 35.4331 26.4858
vn 0.345066 -0.938579 -4.49536e-017
f 70/186/34 74/175/34 79/178/34

vt -49.6063 26.4858
f 74/175/34 70/186/34 71/187/34

usemtl Grey_metal_1
vt -26.7717 -49.6063
f 63/171/31 70/170/31 71/188/31

usemtl Dark_metal
vt -16.063 0
f 79/189/7 69/142/7 70/141/7

vt 16.063 0
f 69/142/7 79/189/7 77/190/7

vt 16.5572 61.125
vn -0.0522454 -0.979539 0.194353
vt 2.30673 41.5625
vt 11.4061 41.5625
f 64/191/35 80/192/35 76/193/35

vt 1.39163 61.125
f 80/192/35 64/191/35 65/194/35

vt 27.4102 54.7174
vn -0.13977 -0.976243 0.165574
vt 10.5818 36.5478
vt 20.1031 36.5478
f 65/195/36 78/196/36 80/197/36

vt 11.5414 54.7174
f 78/196/36 65/195/36 68/198/36

vt 32.0078 61.778
vn -0.398237 -0.786671 0.471758
vt 11.5414 45.8353
vt 27.4102 45.8353
f 66/199/37 68/200/37 65/201/37

vt 11.18 61.778
f 68/200/37 66/199/37 67/202/37

usemtl Red_metal
vt -55.2578 25.5906
f 42/203/3 26/85/3 45/84/3

vt -55.2578 17.7165
f 26/85/3 42/203/3 25/204/3

vt -13.081 25.5906
vn 0.645052 0 -0.764139
vt -30.2111 17.7165
vt -13.081 17.7165
f 42/205/38 24/206/38 25/207/38

vt -30.2111 25.5906
f 24/206/38 42/205/38 38/208/38

usemtl Wood
vt -21.6535 30.5023
f 30/60/13 33/62/13 31/209/13

vn -2.62513e-015 0 -1
vt 21.6535 25.5906
vt -21.6535 25.5906
f 29/31/39 32/210/39 34/211/39

f 32/210/39 29/31/39 27/30/39

usemtl Glass
vt -21.6535 32.4656
f 14/30/7 23/212/7 17/31/7

vt 21.6535 32.4656
f 23/212/7 14/30/7 21/213/7

