<svg xmlns="http://www.w3.org/2000/svg" xmlns:xlink="http://www.w3.org/1999/xlink">
  <defs>
    <linearGradient gradientUnits="userSpaceOnUse" x1="-819.2" x2="819.2" spreadMethod="pad" gradientTransform="matrix(-0.00885009765625 0 0 0.013153076171875 218.75 115.7)" id="gradient0">
      <stop offset="0" stop-color="#775D36"/>
      <stop offset="1" stop-color="#957544"/>
    </linearGradient>
    <linearGradient gradientUnits="userSpaceOnUse" x1="-819.2" x2="819.2" spreadMethod="pad" gradientTransform="matrix(0.00885009765625 0 0 0.013153076171875 73.15 115.7)" id="gradient1">
      <stop offset="0" stop-color="#775D36"/>
      <stop offset="1" stop-color="#957544"/>
    </linearGradient>
  </defs>
  <g>
    <path stroke="none" fill="#191919" d="M488.8 69 L488.8 59 488.8 49 449.8 49 449.8 59 449.8 69 449.8 101 439.5 69 436.3 59 433.45 50.15 433.45 12 412.8 12 412.8 48.75 356.15 48.75 352.75 59 349.45 69 337.5 105.2 337.5 126 337.5 133 337.5 161.15 344.4 181.25 359.35 181.25 353.3 161 353.3 144.4 393.8 144.4 393.8 173 381.8 173 381.8 193 415.05 193 415.05 162.5 426.8 162.5 426.8 144.25 436.55 144.25 436.55 161 430.15 181.4 445.15 181.4 449.8 166 449.8 242 468.8 242 468.8 254 488.8 254 488.8 133 488.8 126 488.8 69 M182.95 149 L330.95 149 330.95 132 330.95 75 182.95 75 182.95 1 108.95 1 108.95 75 34.95 75 34.95 131.9 34.95 149 108.95 149 108.95 223 182.95 223 182.95 149 M424.95 313 L424.95 209 424.9 209 315.95 209 315.95 172.05 241.95 172.05 241.95 209 205.95 209 205.95 238.15 205.95 313 205.95 319 241.95 319 241.95 355.95 315.95 355.95 315.95 319 424.95 319 424.95 313 M503 425.05 L503 360.75 469 361 469 326 431 326 431.25 360.75 361 361 361 425.05 361 432 361 465 361.25 467.4 396 467.4 396 503.75 452 503.75 488 503.75 487.6 467.4 503 467.4 503 465 503 432 503 425.05 M154.05 237 L150.65 226.75 94 226.75 94 190 73.35 190 73.35 228.15 70.5 237 67.3 247 57 279 57 247 57 237 57 227 18 227 18 237 18 247 18 304 18 311 18 432 38 432 38 420 57 420 57 344 61.65 359.4 76.65 359.4 70.25 339 70.25 322.25 80 322.25 80 340.5 91.75 340.5 91.75 371 125 371 125 351 113 351 113 322.4 153.5 322.4 153.5 339 147.45 359.25 162.4 359.25 169.3 339.15 169.3 311 169.3 304 169.3 283.2 157.35 247 154.05 237 M289 429.05 L289 365 218.75 364.75 219 330 181 330 181 365 147 364.75 147 429.05 147 436 147 469 147 471.4 162.4 471.4 162 507.75 198 507.75 254 507.75 254 471.4 288.75 471.4 289 469 289 436 289 429.05 M0 512 L0 0 512 0 512 512 0 512"/>
    <path stroke="none" fill="#694C39" d="M351.35 313 L371.95 313 424.95 313 424.95 319 315.95 319 315.95 355.95 241.95 355.95 241.95 319 205.95 319 205.95 313 270.45 313 270.45 319 287.4 319 287.4 313 294.9 313 315.5 313 351.35 313 M503 465 L503 467.4 487.6 467.4 487.6 467.35 452 467.4 452 503.75 396 503.75 396 467.4 361.25 467.4 361 465 503 465 M289 469 L288.75 471.4 254 471.4 254 507.75 198 507.75 198 471.4 162.4 471.35 162.4 471.4 147 471.4 147 469 289 469"/>
    <path stroke="none" fill="#C3DAE2" d="M287.4 313 L287.4 319 270.45 319 270.45 313 270.45 308 287.4 308 287.4 313"/>
    <path stroke="none" fill="#C6B088" d="M117.6 287.55 L119.5 274.65 125.6 274.65 137.6 290.9 130.7 272.25 136.15 259.6 123.2 268.45 113.05 269.2 111.8 254.75 106.5 269.05 90.65 273.75 113.2 274.65 117.6 287.55 M488.8 69 L488.8 126 337.5 126 337.5 105.2 349.45 69 439.5 69 449.8 101 449.8 69 488.8 69 M488.75 103.7 L488.75 99.35 449.75 103.7 488.75 103.7 M157.35 247 L169.3 283.2 169.3 304 18 304 18 247 57 247 57 279 67.3 247 157.35 247 M18.05 281.7 L57.05 281.7 18.05 277.35 18.05 281.7"/>
    <path stroke="none" fill="#889176" d="M352.75 59 L356.15 48.75 412.8 48.75 412.8 12 433.45 12 433.45 50.15 436.3 59 352.75 59 M449.8 59 L449.8 49 488.8 49 488.8 59 449.8 59 M413.05 254.95 L424.9 238.15 424.9 209 399.05 245.65 389.75 248.8 384.8 235.2 383.35 250.4 369.25 259 391.3 254.05 392.15 255.35 351.35 313 315.5 313 286.1 271.45 283.65 267.95 272.85 252.7 278.5 246.75 269 236.25 264.35 240.65 241.95 209 241.95 172.05 315.95 172.05 315.95 209 424.9 209 424.95 209 424.95 313 371.95 313 411.35 257.35 419.05 263.45 413.05 254.95 M205.95 313 L205.95 238.15 241.95 238.15 252 252.3 247 257 258.25 267.85 261 265.05 269.4 276.9 271.85 280.4 294.9 313 287.4 313 287.4 308 270.45 308 270.45 313 205.95 313 M404.65 377.7 Q402.9 378.7 403.9 380.45 L414.9 399.5 Q415.9 401.2 417.65 400.2 L427.6 394.45 Q429.35 393.45 428.35 391.75 L417.35 372.7 Q416.35 370.95 414.6 371.95 L404.65 377.7 M382.85 386.7 Q381.45 385.25 380 386.7 L364.45 402.25 Q363.1 403.7 364.5 405.1 L372.6 413.25 Q374.05 414.65 375.45 413.25 L391 397.7 Q392.4 396.25 391 394.8 L382.85 386.7 M337.45 292.45 L353.55 296.35 334.45 284.25 337.05 270.85 329 281.1 323.7 278.05 321.45 257.95 318.05 277.55 307.1 285.8 322.7 284.6 331.8 289.05 325.7 302.2 337.45 292.45 M472.75 366.95 Q471.35 365.5 469.9 366.95 L454.35 382.5 Q453 383.95 454.4 385.35 L462.5 393.5 Q463.95 394.9 465.35 393.5 L480.9 377.95 Q482.3 376.5 480.9 375.05 L472.75 366.95 M483.5 389.25 L489 398.85 Q490.3 401 492.45 399.75 L497.45 396.85 Q498.55 396.25 498.7 395.35 499.05 394.5 498.4 393.4 L492.85 383.85 Q491.6 381.65 489.45 382.9 L484.4 385.8 Q482.25 387.05 483.5 389.25 M361 425.05 L361 361 431.25 360.75 431 326 469 326 469 361 503 360.75 503 425.05 361 425.05 M70.5 237 L73.35 228.15 73.35 190 94 190 94 226.75 150.65 226.75 154.05 237 70.5 237 M18 237 L18 227 57 227 57 237 18 237 M288.5 244.4 Q288.1 244.85 288.1 245.35 L288.1 250.85 Q288.1 251.3 288.4 251.65 L289.1 252.15 298.85 254.95 299.6 254.95 309.35 252.15 310 251.65 310.3 250.85 310.3 245.35 309.85 244.4 Q309.45 244 308.9 244 L289.45 244 Q288.95 244 288.5 244.4 M278.95 234.1 L299.35 226.85 296.2 209 261.65 209 258.35 219.1 278.95 234.1 M309.55 257.75 L289.55 257.75 Q287.55 257.75 287.55 259.75 L287.55 266.25 Q287.55 268.25 289.55 268.25 L309.55 268.25 Q311.55 268.25 311.55 266.25 L311.55 259.75 Q311.55 257.75 309.55 257.75 M299.25 253.35 Q298.4 253.35 297.75 252.7 297.15 252.1 297.15 251.25 297.15 250.4 297.75 249.75 298.4 249.15 299.25 249.15 300.1 249.15 300.7 249.75 301.35 250.4 301.35 251.25 301.35 252.1 300.7 252.7 300.1 253.35 299.25 253.35 M200.8 367.55 L190.85 373.3 Q189.1 374.3 190.1 376.05 L201.1 395.1 Q202.1 396.8 203.85 395.8 L213.8 390.05 Q215.55 389.05 214.55 387.35 L203.55 368.3 Q202.55 366.55 200.8 367.55 M170.05 380.3 Q168.65 378.85 167.2 380.3 L151.65 395.85 Q150.3 397.3 151.7 398.7 L159.8 406.85 Q161.25 408.25 162.65 406.85 L178.2 391.3 Q179.6 389.85 178.2 388.4 L170.05 380.3 M237.55 388.1 Q236.2 389.55 237.6 390.95 L245.7 399.1 Q247.15 400.5 248.55 399.1 L264.1 383.55 Q265.5 382.1 264.1 380.65 L255.95 372.55 Q254.55 371.1 253.1 372.55 L237.55 388.1 M147 429.05 L147 364.75 181 365 181 330 219 330 218.75 364.75 289 365 289 429.05 147 429.05 M267.6 391.4 Q265.45 392.65 266.7 394.85 L272.2 404.45 Q273.5 406.6 275.65 405.35 L280.65 402.45 Q281.75 401.85 281.9 400.95 282.25 400.1 281.6 399 L276.05 389.45 Q274.8 387.25 272.65 388.5 L267.6 391.4 M218.75 420 L218.75 416 182 416 182 420 218.75 420 M173.15 408.65 Q171.9 406.45 169.75 407.7 L164.7 410.6 Q162.55 411.85 163.8 414.05 L169.3 423.65 Q170.6 425.8 172.75 424.55 L177.75 421.65 Q178.85 421.05 179 420.15 179.35 419.3 178.7 418.2 L173.15 408.65 M468 412 L431.25 412 431.25 416 468 416 468 412 M389.5 405 Q387.35 406.25 388.6 408.45 L394.1 418.05 Q395.4 420.2 397.55 418.95 L402.55 416.05 Q403.65 415.45 403.8 414.55 404.15 413.7 403.5 412.6 L397.95 403.05 Q396.7 400.85 394.55 402.1 L389.5 405"/>
    <path stroke="none" fill="#69705A" d="M503 425.05 L503 432 361 432 361 425.05 503 425.05 M147 429.05 L289 429.05 289 436 147 436 147 429.05"/>
    <path stroke="none" fill="#333333" d="M34.95 131.9 L34.95 75 108.95 75 108.95 1 182.95 1 182.95 75 330.95 75 330.95 132 256.95 132 256.95 131.9 240.15 125.3 Q230.9 121.5 229.45 111.65 229.1 109.25 227.55 107.7 224.4 104.55 219.9 104.75 L215.8 104.95 215.6 104.95 Q213.95 104.95 212.7 108.2 L211.9 111 202.3 109.8 195.95 89.75 Q192.55 79.1 182.95 83.15 L182.95 83 Q163.5 92.1 147.2 87.75 143.7 86.75 140.6 87.35 135.85 88.15 137.45 91.95 124.3 90.6 123.95 83.65 L108.95 83 Q99.75 82.5 95.95 89.75 L89.6 109.8 80 111 79.2 108.2 Q77.95 104.95 76.3 104.95 L76.1 104.95 72 104.75 Q67.5 104.55 64.35 107.7 62.8 109.25 62.45 111.65 61 121.5 51.75 125.3 L34.95 131.9 M503 432 L503 465 361 465 361 432 503 432 M487.6 467.4 L488 503.75 452 503.75 452 467.4 487.6 467.35 487.6 467.4 M171.95 98.75 L172 100.6 Q172 101.35 171.5 102 170.95 102.5 170.2 102.55 163.65 102.8 158.75 104.6 L157.3 104.55 Q156.55 104.2 156.3 103.5 L155.65 101.75 Q155.4 101 155.7 100.3 156 99.6 156.75 99.3 162.4 97.15 170 96.9 170.8 96.85 171.35 97.4 171.95 97.95 171.95 98.75 M169.35 112.3 Q169.35 114.45 167.8 115.9 166.35 117.45 164.2 117.45 162.1 117.45 160.55 115.9 159.05 114.45 159.05 112.3 159.05 110.15 160.55 108.65 162.1 107.15 164.2 107.15 166.35 107.15 167.8 108.65 169.35 110.15 169.35 112.3 M160.25 122.65 Q164.05 126.25 166.25 133.5 L166.25 134.15 165.85 134.65 159.75 138.65 159.2 138.8 158.6 138.6 158.25 138.1 Q155.2 128.3 150.95 124.35 L151.5 124.15 Q153.75 123.25 153.75 122.05 L153.75 121.9 Q153.7 120.45 153.15 119.2 157.2 119.75 160.25 122.65 M141.5 124.5 Q137.35 128.45 134.35 138.1 L134 138.6 133.4 138.8 132.85 138.65 126.75 134.65 126.35 134.15 126.35 133.5 Q128.65 125.9 132.75 122.3 135.4 119.95 138.85 119.3 138.3 120.5 138.2 121.9 L138.2 122.05 Q138.2 123.25 140.55 124.15 L141.5 124.5 M135.15 101.75 Q135.9 102.05 136.2 102.75 136.5 103.45 136.25 104.2 L135.6 105.95 Q135.35 106.65 134.6 107 L133.15 107.05 Q128.25 105.25 121.7 105 120.95 104.95 120.4 104.45 119.9 103.8 119.9 103.05 L119.95 101.2 Q119.95 100.4 120.55 99.85 121.1 99.3 121.9 99.35 129.5 99.6 135.15 101.75 M127.7 107.15 Q129.8 107.15 131.25 108.65 132.8 110.15 132.8 112.3 132.8 114.45 131.25 115.9 129.8 117.45 127.7 117.45 125.55 117.45 124 115.9 122.55 114.45 122.55 112.3 122.55 110.15 124 108.65 125.55 107.15 127.7 107.15 M289 436 L289 469 147 469 147 436 289 436 M198 507.75 L162 507.75 162.4 471.4 162.4 471.35 198 471.4 198 507.75"/>
    <path stroke="none" fill="#A4AF8E" d="M472.75 366.95 L480.9 375.05 Q482.3 376.5 480.9 377.95 L465.35 393.5 Q463.95 394.9 462.5 393.5 L454.4 385.35 Q453 383.95 454.35 382.5 L469.9 366.95 Q471.35 365.5 472.75 366.95 M237.55 388.1 L253.1 372.55 Q254.55 371.1 255.95 372.55 L264.1 380.65 Q265.5 382.1 264.1 383.55 L248.55 399.1 Q247.15 400.5 245.7 399.1 L237.6 390.95 Q236.2 389.55 237.55 388.1 M218.75 420 L182 420 182 416 218.75 416 218.75 420 M173.15 408.65 L178.7 418.2 Q179.35 419.3 179 420.15 178.85 421.05 177.75 421.65 L172.75 424.55 Q170.6 425.8 169.3 423.65 L163.8 414.05 Q162.55 411.85 164.7 410.6 L169.75 407.7 Q171.9 406.45 173.15 408.65 M389.5 405 L394.55 402.1 Q396.7 400.85 397.95 403.05 L403.5 412.6 Q404.15 413.7 403.8 414.55 403.65 415.45 402.55 416.05 L397.55 418.95 Q395.4 420.2 394.1 418.05 L388.6 408.45 Q387.35 406.25 389.5 405 M468 412 L468 416 431.25 416 431.25 412 468 412"/>
    <path stroke="none" fill="#A18E6D" d="M488.8 126 L488.8 133 337.5 133 337.5 126 488.8 126 M488.75 103.7 L449.75 103.7 488.75 99.35 488.75 103.7 M169.3 304 L169.3 311 18 311 18 304 169.3 304 M18.05 281.7 L18.05 277.35 57.05 281.7 18.05 281.7"/>
    <path stroke="none" fill="#D9C195" d="M264.35 240.65 L269 236.25 278.5 246.75 272.85 252.7 264.35 240.65 M296.2 209 L299.35 226.85 278.95 234.1 296.2 209 M278.95 234.1 L258.35 219.1 261.65 209 278.95 234.1 M261 265.05 L258.25 267.85 247 257 252 252.3 261 265.05 M309.55 257.75 Q311.55 257.75 311.55 259.75 L311.55 266.25 Q311.55 268.25 309.55 268.25 L289.55 268.25 Q287.55 268.25 287.55 266.25 L287.55 259.75 Q287.55 257.75 289.55 257.75 L309.55 257.75"/>
    <path stroke="none" fill="#B6A27D" d="M117.6 287.55 L113.2 274.65 90.65 273.75 106.5 269.05 111.8 254.75 113.05 269.2 123.2 268.45 136.15 259.6 130.7 272.25 137.6 290.9 125.6 274.65 119.5 274.65 117.6 287.55"/>
    <path stroke="none" fill="#97A183" d="M488.8 59 L488.8 69 449.8 69 449.8 59 488.8 59 M349.45 69 L352.75 59 436.3 59 439.5 69 349.45 69 M70.5 237 L154.05 237 157.35 247 67.3 247 70.5 237 M18 247 L18 237 57 237 57 247 18 247"/>
    <path stroke="none" fill="#957544" d="M488.8 133 L488.8 254 468.8 254 468.8 242 449.8 242 449.8 166 445.15 181.4 430.15 181.4 436.55 161 436.55 144.25 426.8 144.25 426.8 162.5 415.05 162.5 415.05 193 381.8 193 381.8 173 393.8 173 393.8 144.4 353.3 144.4 353.3 161 359.35 181.25 344.4 181.25 337.5 161.15 337.5 133 488.8 133 M330.95 132 L330.95 149 182.95 149 182.95 125.55 Q177.85 136.7 172 136.35 169.2 126.1 160.25 122.65 157.2 119.75 153.15 119.2 L151.5 116.8 Q149.25 114.55 146 114.55 L145.95 114.55 Q142.8 114.55 140.55 116.8 139.45 117.95 138.85 119.3 135.4 119.95 132.75 122.3 122.9 125.5 119.95 136.35 114.05 136.7 108.95 125.35 L108.95 149 34.95 149 34.95 131.9 51.75 125.3 Q61 121.5 62.45 111.65 62.8 109.25 64.35 107.7 67.5 104.55 72 104.75 L76.1 104.95 Q71.9 105.4 69 108.2 65.9 111.3 65.9 115.7 L65.9 115.75 Q65.9 120.25 69 123.4 72 126.3 76.1 126.5 L76.3 126.5 Q77.95 126.5 79.2 123.4 80.35 120.3 80.4 115.95 L80.4 115.75 80.4 115.7 Q80.4 113.15 80 111 L89.6 109.8 95.95 89.75 Q99.75 82.5 108.95 83 L123.95 83.65 Q124.3 90.6 137.45 91.95 135.85 88.15 140.6 87.35 143.7 86.75 147.2 87.75 163.5 92.1 182.95 83 L182.95 83.15 Q192.55 79.1 195.95 89.75 L202.3 109.8 211.9 111 Q211.5 113.15 211.5 115.7 L211.5 115.75 211.5 115.95 Q211.55 120.3 212.7 123.4 213.95 126.5 215.6 126.5 L215.8 126.5 Q219.9 126.3 222.9 123.4 226 120.25 226 115.75 L226 115.7 Q226 111.3 222.9 108.2 220 105.4 215.8 104.95 L219.9 104.75 Q224.4 104.55 227.55 107.7 229.1 109.25 229.45 111.65 230.9 121.5 240.15 125.3 L256.95 131.9 256.95 132 330.95 132 M171.95 98.75 Q171.95 97.95 171.35 97.4 170.8 96.85 170 96.9 162.4 97.15 156.75 99.3 156 99.6 155.7 100.3 155.4 101 155.65 101.75 L156.3 103.5 Q156.55 104.2 157.3 104.55 L158.75 104.6 Q163.65 102.8 170.2 102.55 170.95 102.5 171.5 102 172 101.35 172 100.6 L171.95 98.75 M169.35 112.3 Q169.35 110.15 167.8 108.65 166.35 107.15 164.2 107.15 162.1 107.15 160.55 108.65 159.05 110.15 159.05 112.3 159.05 114.45 160.55 115.9 162.1 117.45 164.2 117.45 166.35 117.45 167.8 115.9 169.35 114.45 169.35 112.3 M135.15 101.75 Q129.5 99.6 121.9 99.35 121.1 99.3 120.55 99.85 119.95 100.4 119.95 101.2 L119.9 103.05 Q119.9 103.8 120.4 104.45 120.95 104.95 121.7 105 128.25 105.25 133.15 107.05 L134.6 107 Q135.35 106.65 135.6 105.95 L136.25 104.2 Q136.5 103.45 136.2 102.75 135.9 102.05 135.15 101.75 M127.7 107.15 Q125.55 107.15 124 108.65 122.55 110.15 122.55 112.3 122.55 114.45 124 115.9 125.55 117.45 127.7 117.45 129.8 117.45 131.25 115.9 132.8 114.45 132.8 112.3 132.8 110.15 131.25 108.65 129.8 107.15 127.7 107.15 M169.3 311 L169.3 339.15 162.4 359.25 147.45 359.25 153.5 339 153.5 322.4 113 322.4 113 351 125 351 125 371 91.75 371 91.75 340.5 80 340.5 80 322.25 70.25 322.25 70.25 339 76.65 359.4 61.65 359.4 57 344 57 420 38 420 38 432 18 432 18 311 169.3 311 M296.2 209 L278.95 234.1 261.65 209 296.2 209"/>
    <path stroke="none" fill="#747B64" d="M399.05 245.65 L392.15 255.35 391.3 254.05 369.25 259 383.35 250.4 384.8 235.2 389.75 248.8 399.05 245.65 M411.35 257.35 L413.05 254.95 419.05 263.45 411.35 257.35 M337.45 292.45 L325.7 302.2 331.8 289.05 322.7 284.6 307.1 285.8 318.05 277.55 321.45 257.95 323.7 278.05 329 281.1 337.05 270.85 334.45 284.25 353.55 296.35 337.45 292.45 M382.85 386.7 L391 394.8 Q392.4 396.25 391 397.7 L375.45 413.25 Q374.05 414.65 372.6 413.25 L364.5 405.1 Q363.1 403.7 364.45 402.25 L380 386.7 Q381.45 385.25 382.85 386.7 M404.65 377.7 L414.6 371.95 Q416.35 370.95 417.35 372.7 L428.35 391.75 Q429.35 393.45 427.6 394.45 L417.65 400.2 Q415.9 401.2 414.9 399.5 L403.9 380.45 Q402.9 378.7 404.65 377.7 M483.5 389.25 Q482.25 387.05 484.4 385.8 L489.45 382.9 Q491.6 381.65 492.85 383.85 L498.4 393.4 Q499.05 394.5 498.7 395.35 498.55 396.25 497.45 396.85 L492.45 399.75 Q490.3 401 489 398.85 L483.5 389.25 M288.5 244.4 Q288.95 244 289.45 244 L308.9 244 Q309.45 244 309.85 244.4 L310.3 245.35 310.3 250.85 310 251.65 309.35 252.15 299.6 254.95 298.85 254.95 289.1 252.15 288.4 251.65 Q288.1 251.3 288.1 250.85 L288.1 245.35 Q288.1 244.85 288.5 244.4 M299.25 253.35 Q300.1 253.35 300.7 252.7 301.35 252.1 301.35 251.25 301.35 250.4 300.7 249.75 300.1 249.15 299.25 249.15 298.4 249.15 297.75 249.75 297.15 250.4 297.15 251.25 297.15 252.1 297.75 252.7 298.4 253.35 299.25 253.35 M170.05 380.3 L178.2 388.4 Q179.6 389.85 178.2 391.3 L162.65 406.85 Q161.25 408.25 159.8 406.85 L151.7 398.7 Q150.3 397.3 151.65 395.85 L167.2 380.3 Q168.65 378.85 170.05 380.3 M200.8 367.55 Q202.55 366.55 203.55 368.3 L214.55 387.35 Q215.55 389.05 213.8 390.05 L203.85 395.8 Q202.1 396.8 201.1 395.1 L190.1 376.05 Q189.1 374.3 190.85 373.3 L200.8 367.55 M267.6 391.4 L272.65 388.5 Q274.8 387.25 276.05 389.45 L281.6 399 Q282.25 400.1 281.9 400.95 281.75 401.85 280.65 402.45 L275.65 405.35 Q273.5 406.6 272.2 404.45 L266.7 394.85 Q265.45 392.65 267.6 391.4"/>
    <path stroke="none" fill="#584030" d="M399.05 245.65 L424.9 209 424.9 238.15 413.05 254.95 411.35 257.35 371.95 313 351.35 313 392.15 255.35 399.05 245.65 M205.95 238.15 L205.95 209 241.95 209 264.35 240.65 272.85 252.7 283.65 267.95 281.75 278.85 269.4 276.9 261 265.05 252 252.3 241.95 238.15 205.95 238.15 M286.1 271.45 L315.5 313 294.9 313 271.85 280.4 284.2 282.35 286.1 271.45 M279.4 271.55 Q278.85 270.95 278.05 270.95 277.25 270.95 276.6 271.55 276.05 272.15 276.05 272.95 276.05 273.8 276.6 274.35 277.25 274.95 278.05 274.95 278.85 274.95 279.4 274.35 280.05 273.8 280.05 272.95 280.05 272.15 279.4 271.55 M271.45 266.6 Q271.45 267.45 272 268 272.65 268.6 273.45 268.6 274.25 268.6 274.8 268 275.45 267.45 275.45 266.6 275.45 265.8 274.8 265.2 274.25 264.6 273.45 264.6 272.65 264.6 272 265.2 271.45 265.8 271.45 266.6"/>
    <path stroke="none" fill="#4D382A" d="M283.65 267.95 L286.1 271.45 284.2 282.35 271.85 280.4 269.4 276.9 281.75 278.85 283.65 267.95 M271.45 266.6 Q271.45 265.8 272 265.2 272.65 264.6 273.45 264.6 274.25 264.6 274.8 265.2 275.45 265.8 275.45 266.6 275.45 267.45 274.8 268 274.25 268.6 273.45 268.6 272.65 268.6 272 268 271.45 267.45 271.45 266.6 M279.4 271.55 Q280.05 272.15 280.05 272.95 280.05 273.8 279.4 274.35 278.85 274.95 278.05 274.95 277.25 274.95 276.6 274.35 276.05 273.8 276.05 272.95 276.05 272.15 276.6 271.55 277.25 270.95 278.05 270.95 278.85 270.95 279.4 271.55"/>
    <path stroke="none" fill="url(#gradient0)" d="M215.8 104.95 Q220 105.4 222.9 108.2 226 111.3 226 115.7 L226 115.75 Q226 120.25 222.9 123.4 219.9 126.3 215.8 126.5 L215.6 126.5 Q213.95 126.5 212.7 123.4 211.55 120.3 211.5 115.95 L211.5 115.75 211.5 115.7 Q211.5 113.15 211.9 111 L212.7 108.2 Q213.95 104.95 215.6 104.95 L215.8 104.95"/>
    <path stroke="none" fill="#85683B" d="M182.95 149 L182.95 223 108.95 223 108.95 149 108.95 125.35 Q114.05 136.7 119.95 136.35 122.9 125.5 132.75 122.3 128.65 125.9 126.35 133.5 L126.35 134.15 126.75 134.65 132.85 138.65 133.4 138.8 134 138.6 134.35 138.1 Q137.35 128.45 141.5 124.5 L145.95 125 146 125 150.95 124.35 Q155.2 128.3 158.25 138.1 L158.6 138.6 159.2 138.8 159.75 138.65 165.85 134.65 166.25 134.15 166.25 133.5 Q164.05 126.25 160.25 122.65 169.2 126.1 172 136.35 177.85 136.7 182.95 125.55 L182.95 149"/>
    <path stroke="none" fill="url(#gradient1)" d="M80 111 Q80.4 113.15 80.4 115.7 L80.4 115.75 80.4 115.95 Q80.35 120.3 79.2 123.4 77.95 126.5 76.3 126.5 L76.1 126.5 Q72 126.3 69 123.4 65.9 120.25 65.9 115.75 L65.9 115.7 Q65.9 111.3 69 108.2 71.9 105.4 76.1 104.95 L76.3 104.95 Q77.95 104.95 79.2 108.2 L80 111"/>
    <path stroke="none" fill="#7E6339" d="M150.95 124.35 L146 125 145.95 125 141.5 124.5 140.55 124.15 Q138.2 123.25 138.2 122.05 L138.2 121.9 Q138.3 120.5 138.85 119.3 139.45 117.95 140.55 116.8 142.8 114.55 145.95 114.55 L146 114.55 Q149.25 114.55 151.5 116.8 L153.15 119.2 Q153.7 120.45 153.75 121.9 L153.75 122.05 Q153.75 123.25 151.5 124.15 L150.95 124.35"/>
  </g>
</svg>