<svg xmlns="http://www.w3.org/2000/svg" xmlns:xlink="http://www.w3.org/1999/xlink">
  <defs/>
  <g>
    <path stroke="none" fill="#191919" d="M488.8 64 L488.8 61 488.8 49 449.8 49 449.8 61 449.8 64 449.8 73 449.8 82 449.8 91 449.8 94 449.8 101 447.55 94 446.6 91 443.7 82 440.8 73 437.9 64 436.95 61 433.45 50.15 433.45 12 412.8 12 412.8 48.75 356.15 48.75 352.1 61 351.1 64 348.1 73 345.15 82 342.15 91 341.15 94 337.5 105.2 337.5 133 337.5 141 337.5 144 337.5 161.15 344.4 181.25 359.35 181.25 353.3 161 353.3 144.4 393.8 144.4 393.8 173 381.8 173 381.8 193 415.05 193 415.05 162.5 426.8 162.5 426.8 144.25 436.55 144.25 436.55 161 430.15 181.4 445.15 181.4 449.8 166 449.8 242 468.8 242 468.8 254 488.8 254 488.8 144 488.8 141 488.8 133 488.8 94 488.8 91 488.8 82 488.8 73 488.8 64 M182.95 149 L331 149 331 143 330.95 143 330.95 75 182.95 75 182.95 1 151 1 151 0.95 140.95 0.95 140.95 1 108.95 1 108.95 75 34.95 75 34.95 143 34.95 149 108.95 149 108.95 223 182.95 223 182.95 149 M424.95 233.3 L424.95 230.3 424.95 209 315.95 209 315.95 172.05 241.95 172.05 241.95 209 205.95 209 205.95 230.3 205.95 233.3 205.95 250.3 205.95 263.3 205.95 301 205.95 319 241.95 319 241.95 355.95 315.95 355.95 315.95 319 424.95 319 424.95 301 424.95 263.3 424.95 250.3 424.95 233.3 M361 374.65 L361 391.25 361 403.95 361 442 361 449.8 361 452.7 361 466 361.2 468 396 468 396 504.4 452 504.4 488 504.4 488 468.05 487.6 468.05 487.6 468 503 468 503 452.7 503 449.8 503 442 503 403.95 503 391.25 503 374.65 503 371.75 503 360.75 469 361 469 326 431 326 431.25 360.75 361 361 361 371.75 361 374.65 M154.7 239 L150.65 226.75 94 226.75 94 190 73.35 190 73.35 228.15 69.85 239 68.9 242 66 251 63.1 260 60.2 269 59.25 272 57 279 57 272 57 269 57 260 57 251 57 242 57 239 57 227 18 227 18 239 18 242 18 251 18 260 18 269 18 272 18 311 18 319 18 322 18 432 38 432 38 420 57 420 57 344 61.65 359.4 76.65 359.4 70.25 339 70.25 322.25 80 322.25 80 340.5 91.75 340.5 91.75 371 125 371 125 351 113 351 113 322.4 153.5 322.4 153.5 339 147.45 359.25 162.4 359.25 169.3 339.15 169.3 322 169.3 319 169.3 311 169.3 283.2 165.65 272 164.65 269 161.65 260 158.7 251 155.7 242 154.7 239 M147 378.65 L147 395.25 147 407.95 147 446 147 453.8 147 456.7 147 472 162.4 472 162 508.4 198 508.4 254 508.4 254 472 288.8 472 289 470 289 456.7 289 453.8 289 446 289 407.95 289 395.25 289 378.65 289 375.75 289 365 218.75 364.75 219 330 181 330 181 365 147 364.75 147 375.75 147 378.65 M0 512 L0 0 512 0 512 512 0 512"/>
    <path stroke="none" fill="#E05848" d="M488.8 64 L488.8 73 449.8 73 449.8 64 488.8 64 M488.8 82 L488.8 91 449.8 91 449.8 82 488.8 82 M342.15 91 L345.15 82 443.7 82 446.6 91 342.15 91 M348.1 73 L351.1 64 437.9 64 440.8 73 348.1 73 M406.3 230.3 L407.55 231.4 409.15 233.3 Q410.95 236.05 410.95 239.55 L410.95 247.55 388.95 247.55 388.95 234.8 388.95 234.75 389.1 234.5 389.75 233.3 Q390.4 232.3 391.3 231.4 L392.6 230.3 Q395.55 228.05 399.45 228.05 403.35 228.05 406.3 230.3 M274.05 230.3 L276.8 227.5 Q278.95 225.4 281.05 227.5 L283.85 230.3 286.85 233.3 294 240.45 Q296.1 242.55 294 244.7 L288.4 250.3 281.05 257.6 Q278.95 259.7 276.8 257.6 L269.5 250.3 263.9 244.7 Q261.8 242.55 263.9 240.45 L271.05 233.3 274.05 230.3 M369.6 230.3 Q372.55 228.05 376.45 228.05 380.35 228.05 383.3 230.3 L384.55 231.4 386.15 233.3 386.8 234.5 386.95 234.8 386.95 247.55 364.95 247.55 364.95 239.55 Q364.95 236.05 366.75 233.3 L368.3 231.4 Q368.9 230.8 369.6 230.3 M407.4 237.9 Q407.4 236.45 406.4 235.45 405.4 234.45 403.95 234.45 402.5 234.45 401.5 235.45 400.5 236.45 400.5 237.9 400.5 239.35 401.5 240.35 402.5 241.35 403.95 241.35 405.4 241.35 406.4 240.35 407.4 239.35 407.4 237.9 M410.95 254.25 L410.95 263.3 410.95 272.55 388.95 272.55 388.95 254.25 410.95 254.25 M410.95 279.25 L410.95 283.05 Q410.95 287.8 407.55 291.15 404.2 294.55 399.45 294.55 394.7 294.55 391.3 291.15 389.8 289.65 388.95 287.85 L388.95 279.25 410.95 279.25 M386.95 287.8 Q386.1 289.6 384.55 291.15 381.2 294.55 376.45 294.55 371.7 294.55 368.3 291.15 364.95 287.8 364.95 283.05 L364.95 279.25 386.95 279.25 386.95 287.8 M364.95 272.55 L364.95 263.3 364.95 254.25 386.95 254.25 386.95 272.55 364.95 272.55 M383.65 237.9 Q383.65 236.45 382.65 235.45 381.65 234.45 380.2 234.45 378.75 234.45 377.75 235.45 376.75 236.45 376.75 237.9 376.75 239.35 377.75 240.35 378.75 241.35 380.2 241.35 381.65 241.35 382.65 240.35 383.65 239.35 383.65 237.9 M361 391.25 L361 374.65 503 374.65 503 391.25 361 391.25 M167.8 108.65 Q169.35 110.15 169.35 112.3 169.35 114.45 167.8 115.9 166.35 117.45 164.2 117.45 162.1 117.45 160.55 115.9 159.05 114.45 159.05 112.3 159.05 110.15 160.55 108.65 162.1 107.15 164.2 107.15 166.35 107.15 167.8 108.65 M127.7 107.15 Q129.8 107.15 131.25 108.65 132.8 110.15 132.8 112.3 132.8 114.45 131.25 115.9 129.8 117.45 127.7 117.45 125.55 117.45 124 115.9 122.55 114.45 122.55 112.3 122.55 110.15 124 108.65 125.55 107.15 127.7 107.15 M155.7 242 L158.7 251 66 251 68.9 242 155.7 242 M161.65 260 L164.65 269 60.2 269 63.1 260 161.65 260 M18 269 L18 260 57 260 57 269 18 269 M18 251 L18 242 57 242 57 251 18 251 M147 395.25 L147 378.65 289 378.65 289 395.25 147 395.25 M283.65 242.95 L283.75 242.8 286.45 236.05 286.45 235.8 286.3 235.6 286.05 235.5 277.55 235.5 277.3 235.55 277.15 235.75 275.05 241.35 272.85 241.35 Q272.7 241.35 272.6 241.5 L272.45 241.75 272.45 250.7 272.6 251 272.85 251.1 273.15 251 281.1 243.05 283.4 243.05 283.65 242.95"/>
    <path stroke="none" fill="#FFFFFF" d="M170.6 105.8 L170.7 105.9 Q173.35 108.55 173.35 112.3 173.35 116.05 170.75 118.65 L170.55 118.85 Q167.95 121.45 164.2 121.45 160.5 121.45 157.8 118.8 L157.75 118.75 Q155.05 116.15 155.05 112.3 155.05 108.5 157.75 105.85 L157.8 105.8 Q160.5 103.15 164.2 103.15 168 103.15 170.6 105.8 M167.8 108.65 Q166.35 107.15 164.2 107.15 162.1 107.15 160.55 108.65 159.05 110.15 159.05 112.3 159.05 114.45 160.55 115.9 162.1 117.45 164.2 117.45 166.35 117.45 167.8 115.9 169.35 114.45 169.35 112.3 169.35 110.15 167.8 108.65 M134.15 105.9 Q136.8 108.55 136.8 112.3 136.8 116.05 134.2 118.65 L134 118.85 Q131.4 121.45 127.7 121.45 123.9 121.45 121.2 118.75 118.6 116.15 118.55 112.3 118.55 108.5 121.15 105.9 L121.25 105.8 Q123.95 103.15 127.7 103.15 131.45 103.15 134.05 105.8 L134.15 105.9 M127.7 107.15 Q125.55 107.15 124 108.65 122.55 110.15 122.55 112.3 122.55 114.45 124 115.9 125.55 117.45 127.7 117.45 129.8 117.45 131.25 115.9 132.8 114.45 132.8 112.3 132.8 110.15 131.25 108.65 129.8 107.15 127.7 107.15 M133.7 125.15 Q135.05 123.8 137 123.8 L154.05 123.8 Q156 123.8 157.35 125.15 158.7 126.5 158.7 128.45 L158.7 128.5 Q158.7 130.45 157.35 131.8 156 133.15 154.05 133.15 L137 133.15 Q135.05 133.15 133.7 131.8 132.35 130.45 132.35 128.5 L132.35 128.45 Q132.35 126.5 133.7 125.15 M283.65 242.95 L283.4 243.05 281.1 243.05 273.15 251 272.85 251.1 272.6 251 272.45 250.7 272.45 241.75 272.6 241.5 Q272.7 241.35 272.85 241.35 L275.05 241.35 277.15 235.75 277.3 235.55 277.55 235.5 286.05 235.5 286.3 235.6 286.45 235.8 286.45 236.05 283.75 242.8 283.65 242.95"/>
    <path stroke="none" fill="#A5BABF" d="M488.8 94 L488.8 133 337.5 133 337.5 105.2 341.15 94 447.55 94 449.8 101 449.8 94 488.8 94 M488.8 144 L488.8 254 468.8 254 468.8 242 449.8 242 449.8 166 445.15 181.4 430.15 181.4 436.55 161 436.55 144.25 426.8 144.25 426.8 162.5 415.05 162.5 415.05 193 381.8 193 381.8 173 393.8 173 393.8 144.4 353.3 144.4 353.3 161 359.35 181.25 344.4 181.25 337.5 161.15 337.5 144 488.8 144 M352.1 61 L356.15 48.75 412.8 48.75 412.8 12 433.45 12 433.45 50.15 436.95 61 352.1 61 M449.8 61 L449.8 49 488.8 49 488.8 61 449.8 61 M182.95 149 L182.95 223 108.95 223 108.95 149 115.1 149 122.85 122.6 92.15 122.6 79.9 143 34.95 143 34.95 75 108.95 75 108.95 1 140.95 1 140.95 110.45 Q140.95 112.6 142.4 114.05 143.8 115.45 146 115.45 148.15 115.45 149.55 114.05 151 112.6 151 110.45 L151 1 182.95 1 182.95 75 330.95 75 330.95 143 212 143 199.75 122.6 169.05 122.6 176.8 149 182.95 149 M424.95 230.3 L406.3 230.3 Q403.35 228.05 399.45 228.05 395.55 228.05 392.6 230.3 L383.3 230.3 Q380.35 228.05 376.45 228.05 372.55 228.05 369.6 230.3 L283.85 230.3 281.05 227.5 Q278.95 225.4 276.8 227.5 L274.05 230.3 205.95 230.3 205.95 209 241.95 209 241.95 172.05 315.95 172.05 315.95 209 424.95 209 424.95 230.3 M409.15 233.3 L424.95 233.3 424.95 250.3 415.95 250.3 415.95 247.55 410.95 247.55 410.95 239.55 Q410.95 236.05 409.15 233.3 M410.95 263.3 L424.95 263.3 424.95 301 205.95 301 205.95 263.3 364.95 263.3 364.95 272.55 359.95 272.55 359.95 279.25 364.95 279.25 364.95 283.05 Q364.95 287.8 368.3 291.15 371.7 294.55 376.45 294.55 381.2 294.55 384.55 291.15 386.1 289.6 386.95 287.8 387.85 285.8 387.95 283.5 388.05 285.85 388.95 287.85 389.8 289.65 391.3 291.15 394.7 294.55 399.45 294.55 404.2 294.55 407.55 291.15 410.95 287.8 410.95 283.05 L410.95 279.25 415.95 279.25 415.95 272.55 410.95 272.55 410.95 263.3 M366.75 233.3 Q364.95 236.05 364.95 239.55 L364.95 247.55 359.95 247.55 359.95 250.3 288.4 250.3 294 244.7 Q296.1 242.55 294 240.45 L286.85 233.3 366.75 233.3 M386.95 234.8 L386.8 234.5 386.15 233.3 389.75 233.3 389.1 234.5 388.95 234.75 388.95 234.8 386.95 234.8 M269.5 250.3 L205.95 250.3 205.95 233.3 271.05 233.3 263.9 240.45 Q261.8 242.55 263.9 244.7 L269.5 250.3 M361 371.75 L361 361 431.25 360.75 431 326 469 326 469 361 503 360.75 503 371.75 361 371.75 M315.95 319 L315.95 355.95 241.95 355.95 241.95 319 315.95 319 M224.75 107.85 Q224.25 108.35 224.25 109.1 L224.25 120.85 Q224.25 121.6 224.75 122.1 225.25 122.6 226 122.6 226.75 122.6 227.25 122.1 227.75 121.6 227.75 120.85 L227.75 109.1 Q227.75 108.35 227.25 107.85 226.75 107.35 226 107.35 225.25 107.35 224.75 107.85 M222.75 109.1 Q222.75 108.35 222.25 107.85 221.75 107.35 221 107.35 220.25 107.35 219.75 107.85 219.25 108.35 219.25 109.1 L219.25 120.85 Q219.25 121.6 219.75 122.1 220.25 122.6 221 122.6 221.75 122.6 222.25 122.1 222.75 121.6 222.75 120.85 L222.75 109.1 M217.25 107.85 Q216.75 107.35 216 107.35 215.25 107.35 214.75 107.85 214.25 108.35 214.25 109.1 L214.25 120.85 Q214.25 121.6 214.75 122.1 215.25 122.6 216 122.6 216.75 122.6 217.25 122.1 217.75 121.6 217.75 120.85 L217.75 109.1 Q217.75 108.35 217.25 107.85 M170.6 105.8 Q168 103.15 164.2 103.15 160.5 103.15 157.8 105.8 L157.75 105.85 Q155.05 108.5 155.05 112.3 155.05 116.15 157.75 118.75 L157.8 118.8 Q160.5 121.45 164.2 121.45 167.95 121.45 170.55 118.85 L170.75 118.65 Q173.35 116.05 173.35 112.3 173.35 108.55 170.7 105.9 L170.6 105.8 M67.65 109.1 Q67.65 108.35 67.15 107.85 66.65 107.35 65.9 107.35 65.15 107.35 64.65 107.85 64.15 108.35 64.15 109.1 L64.15 120.85 Q64.15 121.6 64.65 122.1 65.15 122.6 65.9 122.6 66.65 122.6 67.15 122.1 67.65 121.6 67.65 120.85 L67.65 109.1 M72.65 109.1 Q72.65 108.35 72.15 107.85 71.65 107.35 70.9 107.35 70.15 107.35 69.65 107.85 69.15 108.35 69.15 109.1 L69.15 120.85 Q69.15 121.6 69.65 122.1 70.15 122.6 70.9 122.6 71.65 122.6 72.15 122.1 72.65 121.6 72.65 120.85 L72.65 109.1 M74.65 107.85 Q74.15 108.35 74.15 109.1 L74.15 120.85 Q74.15 121.6 74.65 122.1 75.15 122.6 75.9 122.6 76.65 122.6 77.15 122.1 77.65 121.6 77.65 120.85 L77.65 109.1 Q77.65 108.35 77.15 107.85 76.65 107.35 75.9 107.35 75.15 107.35 74.65 107.85 M134.15 105.9 L134.05 105.8 Q131.45 103.15 127.7 103.15 123.95 103.15 121.25 105.8 L121.15 105.9 Q118.55 108.5 118.55 112.3 118.6 116.15 121.2 118.75 123.9 121.45 127.7 121.45 131.4 121.45 134 118.85 L134.2 118.65 Q136.8 116.05 136.8 112.3 136.8 108.55 134.15 105.9 M133.7 125.15 Q132.35 126.5 132.35 128.45 L132.35 128.5 Q132.35 130.45 133.7 131.8 135.05 133.15 137 133.15 L154.05 133.15 Q156 133.15 157.35 131.8 158.7 130.45 158.7 128.5 L158.7 128.45 Q158.7 126.5 157.35 125.15 156 123.8 154.05 123.8 L137 123.8 Q135.05 123.8 133.7 125.15 M69.85 239 L73.35 228.15 73.35 190 94 190 94 226.75 150.65 226.75 154.7 239 69.85 239 M165.65 272 L169.3 283.2 169.3 311 18 311 18 272 57 272 57 279 59.25 272 165.65 272 M169.3 322 L169.3 339.15 162.4 359.25 147.45 359.25 153.5 339 153.5 322.4 113 322.4 113 351 125 351 125 371 91.75 371 91.75 340.5 80 340.5 80 322.25 70.25 322.25 70.25 339 76.65 359.4 61.65 359.4 57 344 57 420 38 420 38 432 18 432 18 322 169.3 322 M18 239 L18 227 57 227 57 239 18 239 M147 375.75 L147 364.75 181 365 181 330 219 330 218.75 364.75 289 365 289 375.75 147 375.75 M289 407.95 L289 446 147 446 147 407.95 195 407.95 190.1 412.7 Q188.7 414.05 190.1 415.45 L198.6 423.75 Q200 425.1 201.4 423.75 L209.9 415.45 Q211.3 414.05 209.9 412.7 L205.05 407.95 289 407.95 M289 456.7 L289 470 288.8 472 254 472 254 508.4 198 508.4 198 472.05 162.4 472 147 472 147 456.7 289 456.7 M261.2 284.25 Q264 287.05 267.95 287.05 L289.95 287.05 Q293.9 287.05 296.65 284.25 299.45 281.5 299.45 277.55 299.45 273.6 296.65 270.8 293.9 268.05 289.95 268.05 L267.95 268.05 Q264 268.05 261.2 270.8 258.45 273.6 258.45 277.55 258.45 281.5 261.2 284.25 M503 403.95 L503 442 361 442 361 403.95 444.95 403.95 440.1 408.7 Q438.7 410.05 440.1 411.45 L448.6 419.75 Q450 421.1 451.4 419.75 L459.9 411.45 Q461.3 410.05 459.9 408.7 L455 403.95 503 403.95 M503 452.7 L503 468 487.6 468 487.6 468.05 452.4 468 452 504.4 396 504.4 396 468 361.2 468 361 466 361 452.7 503 452.7"/>
    <path stroke="none" fill="#D2DDDF" d="M503 452.7 L361 452.7 361 449.8 503 449.8 503 452.7 M488.8 61 L488.8 64 449.8 64 449.8 61 488.8 61 M488.8 141 L488.8 144 337.5 144 337.5 141 488.8 141 M351.1 64 L352.1 61 436.95 61 437.9 64 351.1 64 M406.3 230.3 L424.95 230.3 424.95 233.3 409.15 233.3 407.55 231.4 406.3 230.3 M205.95 230.3 L274.05 230.3 271.05 233.3 205.95 233.3 205.95 230.3 M283.85 230.3 L369.6 230.3 Q368.9 230.8 368.3 231.4 L366.75 233.3 286.85 233.3 283.85 230.3 M383.3 230.3 L392.6 230.3 391.3 231.4 Q390.4 232.3 389.75 233.3 L386.15 233.3 384.55 231.4 383.3 230.3 M503 374.65 L361 374.65 361 371.75 503 371.75 503 374.65 M69.85 239 L154.7 239 155.7 242 68.9 242 69.85 239 M169.3 319 L169.3 322 18 322 18 319 169.3 319 M18 242 L18 239 57 239 57 242 18 242 M147 378.65 L147 375.75 289 375.75 289 378.65 147 378.65 M289 453.8 L289 456.7 147 456.7 147 453.8 289 453.8 M268 279 L268 276 290 276 290 279 268 279 M205.05 407.95 L209.9 412.7 Q211.3 414.05 209.9 415.45 L201.4 423.75 Q200 425.1 198.6 423.75 L190.1 415.45 Q188.7 414.05 190.1 412.7 L195 407.95 198.6 404.4 Q200 403.05 201.4 404.4 L205.05 407.95 M455 403.95 L459.9 408.7 Q461.3 410.05 459.9 411.45 L451.4 419.75 Q450 421.1 448.6 419.75 L440.1 411.45 Q438.7 410.05 440.1 408.7 L444.95 403.95 448.6 400.4 Q450 399.05 451.4 400.4 L455 403.95"/>
    <path stroke="none" fill="#95A8AD" d="M455 403.95 L451.4 400.4 Q450 399.05 448.6 400.4 L444.95 403.95 361 403.95 361 391.25 503 391.25 503 403.95 455 403.95 M488.8 73 L488.8 82 449.8 82 449.8 73 488.8 73 M488.8 91 L488.8 94 449.8 94 449.8 91 488.8 91 M488.8 133 L488.8 141 337.5 141 337.5 133 488.8 133 M341.15 94 L342.15 91 446.6 91 447.55 94 341.15 94 M345.15 82 L348.1 73 440.8 73 443.7 82 345.15 82 M415.95 250.3 L424.95 250.3 424.95 263.3 410.95 263.3 410.95 254.25 415.95 254.25 415.95 250.3 M364.95 263.3 L205.95 263.3 205.95 250.3 269.5 250.3 276.8 257.6 Q278.95 259.7 281.05 257.6 L288.4 250.3 359.95 250.3 359.95 254.25 364.95 254.25 364.95 263.3 M205.95 301 L424.95 301 424.95 319 315.95 319 241.95 319 205.95 319 205.95 301 M158.7 251 L161.65 260 63.1 260 66 251 158.7 251 M164.65 269 L165.65 272 59.25 272 60.2 269 164.65 269 M169.3 311 L169.3 319 18 319 18 311 169.3 311 M18 272 L18 269 57 269 57 272 18 272 M18 260 L18 251 57 251 57 260 18 260 M289 395.25 L289 407.95 205.05 407.95 201.4 404.4 Q200 403.05 198.6 404.4 L195 407.95 147 407.95 147 395.25 289 395.25 M289 446 L289 453.8 147 453.8 147 446 289 446 M198 508.4 L162 508.4 162.4 472 198 472.05 198 508.4 M361 442 L503 442 503 449.8 361 449.8 361 442 M487.6 468.05 L488 468.05 488 504.4 452 504.4 452.4 468 487.6 468.05"/>
    <path stroke="none" fill="#E95B4B" d="M407.4 237.9 Q407.4 239.35 406.4 240.35 405.4 241.35 403.95 241.35 402.5 241.35 401.5 240.35 400.5 239.35 400.5 237.9 400.5 236.45 401.5 235.45 402.5 234.45 403.95 234.45 405.4 234.45 406.4 235.45 407.4 236.45 407.4 237.9 M383.65 237.9 Q383.65 239.35 382.65 240.35 381.65 241.35 380.2 241.35 378.75 241.35 377.75 240.35 376.75 239.35 376.75 237.9 376.75 236.45 377.75 235.45 378.75 234.45 380.2 234.45 381.65 234.45 382.65 235.45 383.65 236.45 383.65 237.9"/>
    <path stroke="none" fill="#899B9F" d="M410.95 247.55 L415.95 247.55 415.95 250.3 415.95 254.25 410.95 254.25 388.95 254.25 386.95 254.25 364.95 254.25 359.95 254.25 359.95 250.3 359.95 247.55 364.95 247.55 386.95 247.55 388.95 247.55 410.95 247.55 M410.95 272.55 L415.95 272.55 415.95 279.25 410.95 279.25 388.95 279.25 386.95 279.25 364.95 279.25 359.95 279.25 359.95 272.55 364.95 272.55 386.95 272.55 388.95 272.55 410.95 272.55"/>
    <path stroke="none" fill="#C94F40" d="M388.95 287.85 Q388.05 285.85 387.95 283.5 387.85 285.8 386.95 287.8 L386.95 279.25 388.95 279.25 388.95 287.85 M386.95 247.55 L386.95 234.8 388.95 234.8 388.95 247.55 386.95 247.55 M386.95 254.25 L388.95 254.25 388.95 272.55 386.95 272.55 386.95 254.25"/>
    <path stroke="none" fill="#84959A" d="M261.2 284.25 Q258.45 281.5 258.45 277.55 258.45 273.6 261.2 270.8 264 268.05 267.95 268.05 L289.95 268.05 Q293.9 268.05 296.65 270.8 299.45 273.6 299.45 277.55 299.45 281.5 296.65 284.25 293.9 287.05 289.95 287.05 L267.95 287.05 Q264 287.05 261.2 284.25 M268 279 L290 279 290 276 268 276 268 279"/>
    <path stroke="none" fill="#91A4A8" d="M330.95 143 L331 143 331 149 182.95 149 176.8 149 169.05 122.6 199.75 122.6 212 143 330.95 143 M108.95 149 L34.95 149 34.95 143 79.9 143 92.15 122.6 122.85 122.6 115.1 149 108.95 149 M140.95 1 L140.95 0.95 151 0.95 151 1 151 110.45 Q151 112.6 149.55 114.05 148.15 115.45 146 115.45 143.8 115.45 142.4 114.05 140.95 112.6 140.95 110.45 L140.95 1 M217.25 107.85 Q217.75 108.35 217.75 109.1 L217.75 120.85 Q217.75 121.6 217.25 122.1 216.75 122.6 216 122.6 215.25 122.6 214.75 122.1 214.25 121.6 214.25 120.85 L214.25 109.1 Q214.25 108.35 214.75 107.85 215.25 107.35 216 107.35 216.75 107.35 217.25 107.85 M222.75 109.1 L222.75 120.85 Q222.75 121.6 222.25 122.1 221.75 122.6 221 122.6 220.25 122.6 219.75 122.1 219.25 121.6 219.25 120.85 L219.25 109.1 Q219.25 108.35 219.75 107.85 220.25 107.35 221 107.35 221.75 107.35 222.25 107.85 222.75 108.35 222.75 109.1 M224.75 107.85 Q225.25 107.35 226 107.35 226.75 107.35 227.25 107.85 227.75 108.35 227.75 109.1 L227.75 120.85 Q227.75 121.6 227.25 122.1 226.75 122.6 226 122.6 225.25 122.6 224.75 122.1 224.25 121.6 224.25 120.85 L224.25 109.1 Q224.25 108.35 224.75 107.85 M74.65 107.85 Q75.15 107.35 75.9 107.35 76.65 107.35 77.15 107.85 77.65 108.35 77.65 109.1 L77.65 120.85 Q77.65 121.6 77.15 122.1 76.65 122.6 75.9 122.6 75.15 122.6 74.65 122.1 74.15 121.6 74.15 120.85 L74.15 109.1 Q74.15 108.35 74.65 107.85 M72.65 109.1 L72.65 120.85 Q72.65 121.6 72.15 122.1 71.65 122.6 70.9 122.6 70.15 122.6 69.65 122.1 69.15 121.6 69.15 120.85 L69.15 109.1 Q69.15 108.35 69.65 107.85 70.15 107.35 70.9 107.35 71.65 107.35 72.15 107.85 72.65 108.35 72.65 109.1 M67.65 109.1 L67.65 120.85 Q67.65 121.6 67.15 122.1 66.65 122.6 65.9 122.6 65.15 122.6 64.65 122.1 64.15 121.6 64.15 120.85 L64.15 109.1 Q64.15 108.35 64.65 107.85 65.15 107.35 65.9 107.35 66.65 107.35 67.15 107.85 67.65 108.35 67.65 109.1"/>
  </g>
</svg>