
<svg xmlns="http://www.w3.org/2000/svg" version="1.1" xmlns:xlink="http://www.w3.org/1999/xlink" preserveAspectRatio="none" x="0px" y="0px" width="512px" height="512px" viewBox="0 0 512 512">
<defs>
<g id="Layer0_0_FILL">
<path fill="#191919" stroke="none" d="
M 0 0
L 0 512 512 512 512 0 0 0
M 488.8 61
L 488.8 68 488.8 90.5 488.8 96.9 488.8 135.5 488.8 140.5 488.8 254 468.8 254 468.8 242 449.8 242 449.8 166 445.15 181.4 430.15 181.4 436.55 161 436.55 144.25 426.8 144.25 426.8 162.5 415.05 162.5 415.05 193 381.8 193 381.8 173 393.8 173 393.8 144.4 353.3 144.4 353.3 161 359.35 181.25 344.4 181.25 337.5 161.15 337.5 140.5 337.5 135.5 337.5 105.2 340.25 96.9 342.35 90.5 349.75 68 352.1 61 356.15 48.75 412.8 48.75 412.8 12 433.45 12 433.45 50.15 436.95 61 439.2 68 446.4 90.5 448.45 96.9 449.8 101 449.8 96.9 449.8 90.5 449.8 68 449.8 61 449.8 49 488.8 49 488.8 61
M 330.95 146
L 330.95 149 182.95 149 182.95 223 108.95 223 108.95 149 34.95 149 34.95 146 34.95 75 108.95 75 108.95 1 182.95 1 182.95 75 330.95 75 330.95 146
M 424.95 283
L 424.95 289 424.95 295 424.95 301 424.95 307 424.95 319 315.95 319 315.95 355.95 241.95 355.95 241.95 319 205.95 319 205.95 307 205.95 301 205.95 295 205.95 289 205.95 283 205.95 209 241.95 209 241.95 172.05 315.95 172.05 315.95 209 424.95 209 424.95 283
M 361 366.95
L 361 361 431.25 360.75 431 326 469 326 469 361 503 360.75 503 366.95 503 434.05 503 441 503 467 487.6 467 488 503.4 396 503.4 396 467 361.2 467 361 465 361 441 361 434.05 361 366.95
M 73.35 190
L 94 190 94 226.75 150.65 226.75 154.7 239 157 246 164.45 268.5 166.55 274.9 169.3 283.2 169.3 313.5 169.3 318.5 169.3 339.15 162.4 359.25 147.45 359.25 153.5 339 153.5 322.4 113 322.4 113 351 125 351 125 371 91.75 371 91.75 340.5 80 340.5 80 322.25 70.25 322.25 70.25 339 76.65 359.4 61.65 359.4 57 344 57 420 38 420 38 432 18 432 18 318.5 18 313.5 18 274.9 18 268.5 18 246 18 239 18 227 57 227 57 239 57 246 57 268.5 57 274.9 57 279 58.3 274.9 60.35 268.5 67.6 246 69.85 239 73.35 228.15 73.35 190
M 147 370.95
L 147 364.75 181 365 181 330 219 330 218.75 364.75 289 365 289 370.95 289 438.05 289 445 289 469 288.8 471 254 471 254 507.4 162 507.4 162.4 471 147 471 147 445 147 438.05 147 370.95 Z"/>

<path fill="#FFCC00" stroke="none" d="
M 288.8 471
L 289 469 289 445 215.6 445 199.75 452.5 183.4 445 147 445 147 471 162.4 471 162 507.4 254 507.4 254 471 288.8 471
M 289 370.95
L 147 370.95 147 438.05 289 438.05 289 370.95
M 218.75 420
L 202.75 428.9 196.75 428.9 180.75 420 180.75 416 196.75 416 196.75 424.65 202.75 424.65 202.75 416 218.75 416 218.75 420
M 80 322.25
L 80 340.5 91.75 340.5 91.75 371 125 371 125 351 113 351 113 322.4 153.5 322.4 153.5 339 147.45 359.25 162.4 359.25 169.3 339.15 169.3 318.5 18 318.5 18 432 38 432 38 420 57 420 57 344 61.65 359.4 76.65 359.4 70.25 339 70.25 322.25 80 322.25
M 67.6 246
L 60.35 268.5 164.45 268.5 157 246 67.6 246
M 57 246
L 18 246 18 268.5 57 268.5 57 246
M 147.2 290.9
L 147.2 274.9 80.2 274.9 80.2 290.9 74.2 290.9 74.2 274.9 58.3 274.9 57 279 57 274.9 18 274.9 18 313.5 169.3 313.5 169.3 283.2 166.55 274.9 153.2 274.9 153.2 290.9 147.2 290.9
M 18.05 281.7
L 18.05 277.35 57 281.7 18.05 281.7
M 487.6 467
L 503 467 503 441 466.6 441 450.25 448.5 434.4 441 361 441 361 465 361.2 467 396 467 396 503.4 488 503.4 487.6 467
M 503 366.95
L 361 366.95 361 434.05 503 434.05 503 366.95
M 469.25 412
L 469.25 416 453.25 424.9 447.25 424.9 431.25 416 431.25 412 447.25 412 447.25 420.65 453.25 420.65 453.25 412 469.25 412
M 424.95 283
L 424.95 209 315.95 209 315.95 172.05 241.95 172.05 241.95 209 205.95 209 205.95 283 241.95 283
Q 242.25 283 242.6 283 252.15 282.7 259.85 278.65 268.55 273.95 278.95 273.5 289.35 273.95 298.05 278.65 305.75 282.7 315.35 283 315.65 283 315.95 283
L 424.95 283
M 288.35 234.55
Q 292.3 238.45 292.3 244 292.3 249.55 288.35 253.45 284.45 257.4 278.9 257.4 273.35 257.4 269.45 253.45 265.55 249.55 265.55 244 265.55 238.45 269.45 234.55 273.35 230.65 278.9 230.65 284.45 230.65 288.35 234.55
M 182.95 223
L 182.95 149 108.95 149 108.95 223 182.95 223
M 330.95 146
L 330.95 75 182.95 75 182.95 1 108.95 1 108.95 75 34.95 75 34.95 146 330.95 146
M 171.2 97
Q 171.45 97 171.65 97.2 171.85 97.35 171.85 97.65
L 172.4 100.4
Q 172.45 100.7 172.35 100.95 172.2 101.15 172 101.3 171.75 101.4 171.5 101.45
L 155.6 100.45
Q 155.35 100.35 155.15 100.25 154.9 100 154.85 99.8 154.8 99.5 154.85 99.3 154.95 99.05 155.2 98.9
L 160.05 95.5
Q 160.3 95.2 160.65 95.25
L 171.2 97
M 229 107.65
Q 232.95 111.55 232.95 117.1 232.95 122.65 229 126.55 225.1 130.5 219.55 130.5 214 130.5 210.1 126.55 206.2 122.65 206.2 117.1 206.2 111.55 210.1 107.65 214 103.75 219.55 103.75 225.1 103.75 229 107.65
M 162.2 107.15
Q 164.35 107.15 165.8 108.65 167.35 110.15 167.35 112.3 167.35 114.45 165.8 115.9 164.35 117.45 162.2 117.45 160.1 117.45 158.55 115.9 157.05 114.45 157.05 112.3 157.05 110.15 158.55 108.65 160.1 107.15 162.2 107.15
M 170.65 117.8
Q 170.85 117.55 171.1 117.45 171.35 117.45 171.6 117.5
L 172.85 118.1
Q 173.1 118.25 173.2 118.55 173.3 118.85 173.25 119.05
L 170.85 126.1
Q 170.75 126.2 170.75 126.25
L 166.4 132.25
Q 166.25 132.45 165.95 132.55 165.7 132.6 165.45 132.5
L 164.3 132
Q 164.05 131.85 163.95 131.6 163.8 131.35 163.95 131
L 166.15 124.3
Q 166.2 124.2 166.3 124.1
L 170.65 117.8
M 132.5 98.25
Q 132.85 98.2 133.1 98.5
L 137.95 101.9
Q 138.2 102.05 138.3 102.3 138.35 102.5 138.3 102.8 138.25 103 138 103.25 137.8 103.35 137.55 103.45
L 121.65 104.45
Q 121.4 104.4 121.15 104.3 120.95 104.15 120.8 103.95 120.7 103.7 120.75 103.4
L 121.3 100.65
Q 121.3 100.35 121.5 100.2 121.7 100 121.95 100
L 132.5 98.25
M 142.05 86.1
Q 143.65 84.5 145.95 84.5 148.2 84.5 149.8 86.1 151.45 87.7 151.45 90 151.45 92.3 149.8 93.9 148.2 95.5 145.95 95.5 143.65 95.5 142.05 93.9 140.45 92.3 140.45 90 140.45 87.7 142.05 86.1
M 62.8 126.55
Q 58.9 122.65 58.9 117.1 58.9 111.55 62.8 107.65 66.7 103.75 72.25 103.75 77.8 103.75 81.7 107.65 85.65 111.55 85.65 117.1 85.65 122.65 81.7 126.55 77.8 130.5 72.25 130.5 66.7 130.5 62.8 126.55
M 126 108.65
Q 127.55 107.15 129.7 107.15 131.8 107.15 133.25 108.65 134.8 110.15 134.8 112.3 134.8 114.45 133.25 115.9 131.8 117.45 129.7 117.45 127.55 117.45 126 115.9 124.55 114.45 124.55 112.3 124.55 110.15 126 108.65
M 137.45 132
Q 135.5 132 134.15 130.65 132.8 129.3 132.8 127.35
L 132.8 127.3
Q 132.8 125.35 134.15 124 135.5 122.65 137.45 122.65
L 154.5 122.65
Q 156.45 122.65 157.8 124 159.15 125.35 159.15 127.3
L 159.15 127.35
Q 159.15 129.3 157.8 130.65 156.45 132 154.5 132
L 137.45 132
M 126.15 132.55
Q 125.85 132.45 125.7 132.25
L 121.35 126.25
Q 121.35 126.2 121.25 126.1
L 118.85 119.05
Q 118.8 118.85 118.9 118.55 119 118.25 119.25 118.1
L 120.5 117.5
Q 120.75 117.45 121 117.45 121.25 117.55 121.45 117.8
L 125.8 124.1
Q 125.9 124.2 125.95 124.3
L 128.15 131
Q 128.3 131.35 128.15 131.6 128.05 131.85 127.8 132
L 126.65 132.5
Q 126.4 132.6 126.15 132.55
M 359.35 181.25
L 353.3 161 353.3 144.4 393.8 144.4 393.8 173 381.8 173 381.8 193 415.05 193 415.05 162.5 426.8 162.5 426.8 144.25 436.55 144.25 436.55 161 430.15 181.4 445.15 181.4 449.8 166 449.8 242 468.8 242 468.8 254 488.8 254 488.8 140.5 337.5 140.5 337.5 161.15 344.4 181.25 359.35 181.25
M 446.4 90.5
L 439.2 68 349.75 68 342.35 90.5 446.4 90.5
M 488.8 135.5
L 488.8 96.9 449.8 96.9 449.8 101 448.45 96.9 432.6 96.9 432.6 112.9 426.6 112.9 426.6 96.9 359.6 96.9 359.6 112.9 353.6 112.9 353.6 96.9 340.25 96.9 337.5 105.2 337.5 135.5 488.8 135.5
M 488.75 99.35
L 488.75 103.7 449.8 103.7 488.75 99.35
M 488.8 90.5
L 488.8 68 449.8 68 449.8 90.5 488.8 90.5 Z"/>

<path fill="#4A4A4A" stroke="none" d="
M 289 445
L 289 438.05 147 438.05 147 445 183.4 445 199.75 452.5 215.6 445 289 445
M 180.75 420
L 196.75 428.9 196.75 424.65 196.75 416 180.75 416 180.75 420
M 202.75 428.9
L 218.75 420 218.75 416 202.75 416 202.75 424.65 202.75 428.9
M 147 364.75
L 147 370.95 289 370.95 289 365 218.75 364.75 219 330 181 330 181 365 147 364.75
M 18 313.5
L 18 318.5 169.3 318.5 169.3 313.5 18 313.5
M 18 268.5
L 18 274.9 57 274.9 57 268.5 18 268.5
M 57 246
L 57 239 18 239 18 246 57 246
M 147.2 274.9
L 153.2 274.9 166.55 274.9 164.45 268.5 60.35 268.5 58.3 274.9 74.2 274.9 80.2 274.9 147.2 274.9
M 157 246
L 154.7 239 69.85 239 67.6 246 157 246
M 503 441
L 503 434.05 361 434.05 361 441 434.4 441 450.25 448.5 466.6 441 503 441
M 447.25 420.65
L 447.25 412 431.25 412 431.25 416 447.25 424.9 447.25 420.65
M 469.25 416
L 469.25 412 453.25 412 453.25 420.65 453.25 424.9 469.25 416
M 361 361
L 361 366.95 503 366.95 503 360.75 469 361 469 326 431 326 431.25 360.75 361 361
M 439.2 68
L 436.95 61 352.1 61 349.75 68 439.2 68
M 426.6 96.9
L 432.6 96.9 448.45 96.9 446.4 90.5 342.35 90.5 340.25 96.9 353.6 96.9 359.6 96.9 426.6 96.9
M 488.8 140.5
L 488.8 135.5 337.5 135.5 337.5 140.5 488.8 140.5
M 488.8 96.9
L 488.8 90.5 449.8 90.5 449.8 96.9 488.8 96.9
M 488.8 68
L 488.8 61 449.8 61 449.8 68 488.8 68 Z"/>

<path fill="#E5B700" stroke="none" d="
M 202.75 428.9
L 202.75 424.65 196.75 424.65 196.75 428.9 202.75 428.9
M 453.25 420.65
L 447.25 420.65 447.25 424.9 453.25 424.9 453.25 420.65 Z"/>

<path fill="#E2E2E2" stroke="none" d="
M 74.2 290.9
L 80.2 290.9 80.2 274.9 74.2 274.9 74.2 290.9
M 147.2 274.9
L 147.2 290.9 153.2 290.9 153.2 274.9 147.2 274.9
M 359.6 96.9
L 353.6 96.9 353.6 112.9 359.6 112.9 359.6 96.9
M 432.6 96.9
L 426.6 96.9 426.6 112.9 432.6 112.9 432.6 96.9 Z"/>

<path fill="#333333" stroke="none" d="
M 57 239
L 57 227 18 227 18 239 57 239
M 94 190
L 73.35 190 73.35 228.15 69.85 239 154.7 239 150.65 226.75 94 226.75 94 190
M 424.95 301
L 424.95 295 315.95 295
Q 306 294.85 298.05 290.65 289.35 285.95 278.95 285.5 268.55 285.95 259.85 290.65 251.9 294.85 241.95 295
L 205.95 295 205.95 301 241.95 301
Q 251.9 300.85 259.85 296.65 268.55 291.95 278.95 291.5 289.35 291.95 298.05 296.65 306 300.85 315.95 301
L 424.95 301
M 424.95 319
L 424.95 307 315.95 307
Q 306 306.85 298.05 302.65 289.35 297.95 278.95 297.5 268.55 297.95 259.85 302.65 251.9 306.85 241.95 307
L 205.95 307 205.95 319 241.95 319 241.95 355.95 315.95 355.95 315.95 319 424.95 319
M 278.9 244
L 265.55 244
Q 265.55 249.55 269.45 253.45 273.35 257.4 278.9 257.4
L 278.9 244
M 292.3 244
Q 292.3 238.45 288.35 234.55 284.45 230.65 278.9 230.65
L 278.9 244 292.3 244
M 424.95 289
L 424.95 283 315.95 283
Q 315.65 283 315.35 283 305.75 282.7 298.05 278.65 289.35 273.95 278.95 273.5 268.55 273.95 259.85 278.65 252.15 282.7 242.6 283 242.25 283 241.95 283
L 205.95 283 205.95 289 241.95 289
Q 251.9 288.85 259.85 284.65 261.5 283.75 263.25 283 270.55 279.85 278.95 279.5 287.35 279.85 294.65 283 296.4 283.75 298.05 284.65 306 288.85 315.95 289
L 424.95 289
M 129.7 107.15
Q 127.55 107.15 126 108.65 124.55 110.15 124.55 112.3 124.55 114.45 126 115.9 127.55 117.45 129.7 117.45 131.8 117.45 133.25 115.9 134.8 114.45 134.8 112.3 134.8 110.15 133.25 108.65 131.8 107.15 129.7 107.15
M 72.25 103.75
L 72.25 117.1 85.65 117.1
Q 85.65 111.55 81.7 107.65 77.8 103.75 72.25 103.75
M 72.25 130.5
L 72.25 117.1 58.9 117.1
Q 58.9 122.65 62.8 126.55 66.7 130.5 72.25 130.5
M 145.95 95.5
L 145.95 90 140.45 90
Q 140.45 92.3 142.05 93.9 143.65 95.5 145.95 95.5
M 149.8 86.1
Q 148.2 84.5 145.95 84.5
L 145.95 90 151.45 90
Q 151.45 87.7 149.8 86.1
M 133.1 98.5
Q 132.85 98.2 132.5 98.25
L 121.95 100
Q 121.7 100 121.5 100.2 121.3 100.35 121.3 100.65
L 120.75 103.4
Q 120.7 103.7 120.8 103.95 120.95 104.15 121.15 104.3 121.4 104.4 121.65 104.45
L 137.55 103.45
Q 137.8 103.35 138 103.25 138.25 103 138.3 102.8 138.35 102.5 138.3 102.3 138.2 102.05 137.95 101.9
L 133.1 98.5
M 165.8 108.65
Q 164.35 107.15 162.2 107.15 160.1 107.15 158.55 108.65 157.05 110.15 157.05 112.3 157.05 114.45 158.55 115.9 160.1 117.45 162.2 117.45 164.35 117.45 165.8 115.9 167.35 114.45 167.35 112.3 167.35 110.15 165.8 108.65
M 219.55 117.1
L 206.2 117.1
Q 206.2 122.65 210.1 126.55 214 130.5 219.55 130.5
L 219.55 117.1
M 232.95 117.1
Q 232.95 111.55 229 107.65 225.1 103.75 219.55 103.75
L 219.55 117.1 232.95 117.1
M 171.65 97.2
Q 171.45 97 171.2 97
L 160.65 95.25
Q 160.3 95.2 160.05 95.5
L 155.2 98.9
Q 154.95 99.05 154.85 99.3 154.8 99.5 154.85 99.8 154.9 100 155.15 100.25 155.35 100.35 155.6 100.45
L 171.5 101.45
Q 171.75 101.4 172 101.3 172.2 101.15 172.35 100.95 172.45 100.7 172.4 100.4
L 171.85 97.65
Q 171.85 97.35 171.65 97.2
M 330.95 149
L 330.95 146 34.95 146 34.95 149 108.95 149 182.95 149 330.95 149
M 433.45 12
L 412.8 12 412.8 48.75 356.15 48.75 352.1 61 436.95 61 433.45 50.15 433.45 12
M 488.8 61
L 488.8 49 449.8 49 449.8 61 488.8 61 Z"/>

<path fill="#EEBE00" stroke="none" d="
M 18.05 277.35
L 18.05 281.7 57 281.7 18.05 277.35
M 488.75 103.7
L 488.75 99.35 449.8 103.7 488.75 103.7 Z"/>

<path fill="#434343" stroke="none" d="
M 424.95 307
L 424.95 301 315.95 301
Q 306 300.85 298.05 296.65 289.35 291.95 278.95 291.5 268.55 291.95 259.85 296.65 251.9 300.85 241.95 301
L 205.95 301 205.95 307 241.95 307
Q 251.9 306.85 259.85 302.65 268.55 297.95 278.95 297.5 289.35 297.95 298.05 302.65 306 306.85 315.95 307
L 424.95 307
M 424.95 295
L 424.95 289 315.95 289
Q 306 288.85 298.05 284.65 296.4 283.75 294.65 283 287.35 279.85 278.95 279.5 270.55 279.85 263.25 283 261.5 283.75 259.85 284.65 251.9 288.85 241.95 289
L 205.95 289 205.95 295 241.95 295
Q 251.9 294.85 259.85 290.65 268.55 285.95 278.95 285.5 289.35 285.95 298.05 290.65 306 294.85 315.95 295
L 424.95 295 Z"/>

<path fill="#FFFFFF" stroke="none" d="
M 288.35 253.45
Q 292.3 249.55 292.3 244
L 278.9 244 278.9 257.4
Q 284.45 257.4 288.35 253.45
M 265.55 244
L 278.9 244 278.9 230.65
Q 273.35 230.65 269.45 234.55 265.55 238.45 265.55 244
M 134.15 130.65
Q 135.5 132 137.45 132
L 154.5 132
Q 156.45 132 157.8 130.65 159.15 129.3 159.15 127.35
L 159.15 127.3
Q 159.15 125.35 157.8 124 156.45 122.65 154.5 122.65
L 137.45 122.65
Q 135.5 122.65 134.15 124 132.8 125.35 132.8 127.3
L 132.8 127.35
Q 132.8 129.3 134.15 130.65
M 58.9 117.1
L 72.25 117.1 72.25 103.75
Q 66.7 103.75 62.8 107.65 58.9 111.55 58.9 117.1
M 72.25 117.1
L 72.25 130.5
Q 77.8 130.5 81.7 126.55 85.65 122.65 85.65 117.1
L 72.25 117.1
M 145.95 95.5
Q 148.2 95.5 149.8 93.9 151.45 92.3 151.45 90
L 145.95 90 145.95 95.5
M 145.95 84.5
Q 143.65 84.5 142.05 86.1 140.45 87.7 140.45 90
L 145.95 90 145.95 84.5
M 219.55 117.1
L 219.55 130.5
Q 225.1 130.5 229 126.55 232.95 122.65 232.95 117.1
L 219.55 117.1
M 219.55 117.1
L 219.55 103.75
Q 214 103.75 210.1 107.65 206.2 111.55 206.2 117.1
L 219.55 117.1 Z"/>

<path fill="#F3C200" stroke="none" d="
M 125.7 132.25
Q 125.85 132.45 126.15 132.55 126.4 132.6 126.65 132.5
L 127.8 132
Q 128.05 131.85 128.15 131.6 128.3 131.35 128.15 131
L 125.95 124.3
Q 125.9 124.2 125.8 124.1
L 121.45 117.8
Q 121.25 117.55 121 117.45 120.75 117.45 120.5 117.5
L 119.25 118.1
Q 119 118.25 118.9 118.55 118.8 118.85 118.85 119.05
L 121.25 126.1
Q 121.35 126.2 121.35 126.25
L 125.7 132.25
M 171.1 117.45
Q 170.85 117.55 170.65 117.8
L 166.3 124.1
Q 166.2 124.2 166.15 124.3
L 163.95 131
Q 163.8 131.35 163.95 131.6 164.05 131.85 164.3 132
L 165.45 132.5
Q 165.7 132.6 165.95 132.55 166.25 132.45 166.4 132.25
L 170.75 126.25
Q 170.75 126.2 170.85 126.1
L 173.25 119.05
Q 173.3 118.85 173.2 118.55 173.1 118.25 172.85 118.1
L 171.6 117.5
Q 171.35 117.45 171.1 117.45 Z"/>
</g>
</defs>

<g transform="matrix( 1, 0, 0, 1, 0,0) ">
<use xlink:href="#Layer0_0_FILL"/>
</g>
</svg>
