<svg xmlns="http://www.w3.org/2000/svg" xmlns:xlink="http://www.w3.org/1999/xlink">
  <defs>
    <linearGradient gradientUnits="userSpaceOnUse" x1="-819.2" x2="819.2" spreadMethod="pad" gradientTransform="matrix(0.00885009765625 0 0 0.013153076171875 73.15 115.7)" id="gradient0">
      <stop offset="0" stop-color="#EECC98"/>
      <stop offset="1" stop-color="#FFE0B1"/>
    </linearGradient>
    <linearGradient gradientUnits="userSpaceOnUse" x1="-819.2" x2="819.2" spreadMethod="pad" gradientTransform="matrix(-0.00885009765625 0 0 0.013153076171875 218.75 115.7)" id="gradient1">
      <stop offset="0" stop-color="#EECC98"/>
      <stop offset="1" stop-color="#FFE0B1"/>
    </linearGradient>
  </defs>
  <g>
    <path stroke="none" fill="#191919" d="M488.8 133 L488.8 126 488.8 49 449.8 49 449.8 101 433.45 50.15 433.45 12 412.8 12 412.8 48.75 356.15 48.75 337.5 105.2 337.5 126 337.5 133 337.5 161.15 344.4 181.25 359.35 181.25 353.3 161 353.3 144.4 393.8 144.4 393.8 173 381.8 173 381.8 193 415.05 193 415.05 162.5 426.8 162.5 426.8 144.25 436.55 144.25 436.55 161 430.15 181.4 445.15 181.4 449.8 166 449.8 242 468.8 242 468.8 254 488.8 254 488.8 133 M34.95 131.9 L34.95 149 108.95 149 108.95 223 182.95 223 182.95 149 330.95 149 330.95 132 330.95 75 182.95 75 182.95 1 108.95 1 108.95 75 34.95 75 34.95 131.9 M205.95 308 L205.95 319 241.95 319 241.95 355.95 315.95 355.95 315.95 319 424.95 319 424.95 308 424.95 209 315.95 209 315.95 172.05 241.95 172.05 241.95 209 205.95 209 205.95 308 M503 434.05 L503 360.75 469 361 469 326 431 326 431.25 360.75 361 361 361 434.05 361 441 361 465 361.25 467.4 396 467.4 396 503.75 452 503.75 488 503.75 487.6 467.4 503 467.4 503 465 503 441 503 434.05 M169.3 304 L169.3 283.2 150.65 226.75 94 226.75 94 190 73.35 190 73.35 228.15 57 279 57 227 18 227 18 304 18 311 18 432 38 432 38 420 57 420 57 344 61.65 359.4 76.65 359.4 70.25 339 70.25 322.25 80 322.25 80 340.5 91.75 340.5 91.75 371 125 371 125 351 113 351 113 322.4 153.5 322.4 153.5 339 147.45 359.25 162.4 359.25 169.3 339.15 169.3 311 169.3 304 M289 438.05 L289 365 218.75 364.75 219 330 181 330 181 365 147 364.75 147 438.05 147 445 147 469 147 471 162.4 471 162 507.4 198 507.4 254 507.4 254 471 288.8 471 289 469 289 445 289 438.05 M512 512 L0 512 0 0 512 0 512 512"/>
    <path stroke="none" fill="#C44C3D" d="M488.75 103.7 L449.75 103.7 488.75 99.35 488.75 103.7 M488.8 126 L488.8 133 337.5 133 337.5 126 488.8 126 M18 304 L169.3 304 169.3 311 18 311 18 304 M18.05 281.7 L18.05 277.35 57.05 281.7 18.05 281.7"/>
    <path stroke="none" fill="#E05848" d="M18.05 281.7 L57.05 281.7 18.05 277.35 18.05 281.7 M488.75 103.7 L488.75 99.35 449.75 103.7 488.75 103.7 M337.5 126 L337.5 105.2 356.15 48.75 412.8 48.75 412.8 12 433.45 12 433.45 50.15 449.8 101 449.8 49 488.8 49 488.8 126 337.5 126 M424.95 308 L298.35 308 301.4 290.25 292.2 281.75 265.5 281.75 256.4 290.25 259.4 308 205.95 308 205.95 209 241.95 209 241.95 172.05 315.95 172.05 315.95 209 424.95 209 424.95 308 M18 304 L18 227 57 227 57 279 73.35 228.15 73.35 190 94 190 94 226.75 150.65 226.75 169.3 283.2 169.3 304 18 304 M295.95 236.5 L295.95 209 292.1 209 292.1 236.5 289.3 247.45 294 253.05 298.75 247.45 295.95 236.5 M261.95 236.5 L259.15 247.45 263.85 253.05 268.6 247.45 265.8 236.5 265.8 209 261.95 209 261.95 236.5"/>
    <path stroke="none" fill="#FFE0B1" d="M488.8 133 L488.8 254 468.8 254 468.8 242 449.8 242 449.8 166 445.15 181.4 430.15 181.4 436.55 161 436.55 144.25 426.8 144.25 426.8 162.5 415.05 162.5 415.05 193 381.8 193 381.8 173 393.8 173 393.8 144.4 353.3 144.4 353.3 161 359.35 181.25 344.4 181.25 337.5 161.15 337.5 133 488.8 133 M330.95 132 L330.95 149 182.95 149 182.95 223 108.95 223 108.95 149 34.95 149 34.95 131.9 61.1 121.6 Q59 113.05 64.35 107.7 67.5 104.55 72 104.75 L75.85 105 Q71.9 105.4 69 108.2 65.9 111.3 65.9 115.7 L65.9 115.75 Q65.9 120.25 69 123.4 72 126.3 76.1 126.5 L76.3 126.5 Q77.95 126.5 79.2 123.4 80.35 120.3 80.4 115.95 L88.65 115.95 93.15 87.05 108.95 83.15 108.95 83 145.45 89.5 182.95 83 182.95 83.15 198.75 87.05 203.25 115.95 211.5 115.95 Q211.55 120.3 212.7 123.4 213.95 126.5 215.6 126.5 L215.8 126.5 Q219.9 126.3 222.9 123.4 226 120.25 226 115.75 L226 115.7 Q226 111.3 222.9 108.2 220 105.4 216.05 105 L219.9 104.75 Q224.4 104.55 227.55 107.7 232.9 113.05 230.8 121.6 L256.95 131.9 256.95 132 330.95 132 M503 465 L503 467.4 487.6 467.4 487.6 467.35 452 467.4 452 503.75 396 503.75 396 467.4 361.25 467.4 361 465 503 465 M171.4 98.4 L170.65 97.75 Q165.65 95.7 160.35 95.55 L159.5 95.75 158.95 96.45 Q158.7 96.85 158.85 97.3 L159.55 101.4 159.9 102.15 Q160.2 102.5 160.65 102.6 L161.5 102.55 169.15 102.8 170 102.8 Q170.4 102.7 170.75 102.4 L171.1 101.65 171.55 99.45 Q171.65 98.9 171.4 98.4 M167.8 108.65 Q166.35 107.15 164.2 107.15 162.1 107.15 160.55 108.65 159.05 110.15 159.05 112.3 159.05 114.45 160.55 115.9 162.1 117.45 164.2 117.45 166.35 117.45 167.8 115.9 169.35 114.45 169.35 112.3 169.35 110.15 167.8 108.65 M163.7 131.5 L163.7 131.45 Q163.7 129.5 162.35 128.15 161 126.8 159.05 126.8 L132 126.8 Q130.05 126.8 128.7 128.15 127.35 129.5 127.35 131.45 L127.35 131.5 Q127.35 133.45 128.7 134.8 130.05 136.15 132 136.15 L159.05 136.15 Q161 136.15 162.35 134.8 163.7 133.45 163.7 131.5 M120.5 98.4 Q120.25 98.9 120.35 99.45 L120.8 101.65 121.15 102.4 121.9 102.8 122.75 102.8 130.4 102.55 131.25 102.6 132 102.15 132.35 101.4 133.05 97.3 Q133.2 96.85 132.95 96.45 L132.4 95.75 131.55 95.55 Q126.25 95.7 121.25 97.75 120.75 97.95 120.5 98.4 M146 114.45 L145.95 114.45 Q142.8 114.45 140.55 116.7 138.45 118.85 138.2 121.8 L138.2 121.95 Q138.2 123.15 140.55 124.05 142.8 124.9 145.95 124.9 L146 124.9 Q149.25 124.9 151.5 124.05 153.75 123.15 153.75 121.95 L153.75 121.8 Q153.6 118.85 151.5 116.7 149.25 114.45 146 114.45 M131.25 108.65 Q129.8 107.15 127.7 107.15 125.55 107.15 124 108.65 122.55 110.15 122.55 112.3 122.55 114.45 124 115.9 125.55 117.45 127.7 117.45 129.8 117.45 131.25 115.9 132.8 114.45 132.8 112.3 132.8 110.15 131.25 108.65 M169.3 311 L169.3 339.15 162.4 359.25 147.45 359.25 153.5 339 153.5 322.4 113 322.4 113 351 125 351 125 371 91.75 371 91.75 340.5 80 340.5 80 322.25 70.25 322.25 70.25 339 76.65 359.4 61.65 359.4 57 344 57 420 38 420 38 432 18 432 18 311 169.3 311 M289 469 L288.8 471 254 471 254 507.4 198 507.4 198 471.05 196.6 471.05 196.15 471.05 168.5 471 162.4 471 147 471 147 469 289 469"/>
    <path stroke="none" fill="#694C39" d="M289 469 L147 469 147 445 183.4 445 199.75 452.5 215.6 445 289 445 289 469 M34.95 131.9 L34.95 75 108.95 75 108.95 1 182.95 1 182.95 75 330.95 75 330.95 132 256.95 132 256.95 131.9 230.8 121.6 Q232.9 113.05 227.55 107.7 224.4 104.55 219.9 104.75 L216.05 105 215.8 104.95 215.6 104.95 Q213.95 104.95 212.7 108.2 211.5 111.3 211.5 115.7 L211.5 115.75 211.5 115.95 203.25 115.95 198.75 87.05 182.95 83.15 182.95 83 145.45 89.5 108.95 83 108.95 83.15 93.15 87.05 88.65 115.95 80.4 115.95 80.4 115.75 80.4 115.7 Q80.4 111.3 79.2 108.2 77.95 104.95 76.3 104.95 L76.1 104.95 75.85 105 72 104.75 Q67.5 104.55 64.35 107.7 59 113.05 61.1 121.6 L34.95 131.9 M424.95 308 L424.95 319 315.95 319 315.95 355.95 241.95 355.95 241.95 319 205.95 319 205.95 308 259.4 308 270.45 308 270.45 319 287.4 319 287.4 308 298.35 308 424.95 308 M503 441 L503 465 361 465 361 441 434.4 441 450.25 448.5 466.6 441 503 441 M487.6 467.4 L488 503.75 452 503.75 452 467.4 487.6 467.35 487.6 467.4 M167.8 108.65 Q169.35 110.15 169.35 112.3 169.35 114.45 167.8 115.9 166.35 117.45 164.2 117.45 162.1 117.45 160.55 115.9 159.05 114.45 159.05 112.3 159.05 110.15 160.55 108.65 162.1 107.15 164.2 107.15 166.35 107.15 167.8 108.65 M131.25 108.65 Q132.8 110.15 132.8 112.3 132.8 114.45 131.25 115.9 129.8 117.45 127.7 117.45 125.55 117.45 124 115.9 122.55 114.45 122.55 112.3 122.55 110.15 124 108.65 125.55 107.15 127.7 107.15 129.8 107.15 131.25 108.65 M292.1 236.5 L295.95 236.5 298.75 247.45 294 253.05 289.3 247.45 292.1 236.5 M265.8 236.5 L268.6 247.45 263.85 253.05 259.15 247.45 261.95 236.5 265.8 236.5 M198 507.4 L162 507.4 162.4 471 168.5 471 196.15 471.05 196.6 471.05 198 471.05 198 507.4"/>
    <path stroke="none" fill="#BF493B" d="M298.35 308 L287.4 308 270.45 308 259.4 308 256.4 290.25 265.5 281.75 292.2 281.75 301.4 290.25 298.35 308 M292.1 236.5 L292.1 209 295.95 209 295.95 236.5 292.1 236.5 M265.8 236.5 L261.95 236.5 261.95 209 265.8 209 265.8 236.5"/>
    <path stroke="none" fill="#C3DAE2" d="M287.4 308 L287.4 319 270.45 319 270.45 308 287.4 308"/>
    <path stroke="none" fill="url(#gradient0)" d="M80.4 115.95 Q80.35 120.3 79.2 123.4 77.95 126.5 76.3 126.5 L76.1 126.5 Q72 126.3 69 123.4 65.9 120.25 65.9 115.75 L65.9 115.7 Q65.9 111.3 69 108.2 71.9 105.4 75.85 105 L76.1 104.95 76.3 104.95 Q77.95 104.95 79.2 108.2 80.4 111.3 80.4 115.7 L80.4 115.75 80.4 115.95"/>
    <path stroke="none" fill="url(#gradient1)" d="M216.05 105 Q220 105.4 222.9 108.2 226 111.3 226 115.7 L226 115.75 Q226 120.25 222.9 123.4 219.9 126.3 215.8 126.5 L215.6 126.5 Q213.95 126.5 212.7 123.4 211.55 120.3 211.5 115.95 L211.5 115.75 211.5 115.7 Q211.5 111.3 212.7 108.2 213.95 104.95 215.6 104.95 L215.8 104.95 216.05 105"/>
    <path stroke="none" fill="#66CCCC" d="M361 434.05 L361 361 431.25 360.75 431 326 469 326 469 361 503 360.75 503 434.05 361 434.05 M147 438.05 L147 364.75 181 365 181 330 219 330 218.75 364.75 289 365 289 438.05 147 438.05 M218.75 420 L218.75 416 182 416 182 420 218.75 420 M468 412 L431.25 412 431.25 416 468 416 468 412"/>
    <path stroke="none" fill="#57AFAF" d="M503 434.05 L503 441 466.6 441 450.25 448.5 434.4 441 361 441 361 434.05 503 434.05 M289 438.05 L289 445 215.6 445 199.75 452.5 183.4 445 147 445 147 438.05 289 438.05"/>
    <path stroke="none" fill="#6CD9D9" d="M218.75 420 L182 420 182 416 218.75 416 218.75 420 M468 412 L468 416 431.25 416 431.25 412 468 412"/>
    <path stroke="none" fill="#5B4231" d="M171.4 98.4 Q171.65 98.9 171.55 99.45 L171.1 101.65 170.75 102.4 Q170.4 102.7 170 102.8 L169.15 102.8 161.5 102.55 160.65 102.6 Q160.2 102.5 159.9 102.15 L159.55 101.4 158.85 97.3 Q158.7 96.85 158.95 96.45 L159.5 95.75 160.35 95.55 Q165.65 95.7 170.65 97.75 L171.4 98.4 M120.5 98.4 Q120.75 97.95 121.25 97.75 126.25 95.7 131.55 95.55 L132.4 95.75 132.95 96.45 Q133.2 96.85 133.05 97.3 L132.35 101.4 132 102.15 131.25 102.6 130.4 102.55 122.75 102.8 121.9 102.8 121.15 102.4 120.8 101.65 120.35 99.45 Q120.25 98.9 120.5 98.4"/>
    <path stroke="none" fill="#FFFFFF" d="M163.7 131.5 Q163.7 133.45 162.35 134.8 161 136.15 159.05 136.15 L132 136.15 Q130.05 136.15 128.7 134.8 127.35 133.45 127.35 131.5 L127.35 131.45 Q127.35 129.5 128.7 128.15 130.05 126.8 132 126.8 L159.05 126.8 Q161 126.8 162.35 128.15 163.7 129.5 163.7 131.45 L163.7 131.5"/>
    <path stroke="none" fill="#EECC98" d="M146 114.45 Q149.25 114.45 151.5 116.7 153.6 118.85 153.75 121.8 L153.75 121.95 Q153.75 123.15 151.5 124.05 149.25 124.9 146 124.9 L145.95 124.9 Q142.8 124.9 140.55 124.05 138.2 123.15 138.2 121.95 L138.2 121.8 Q138.45 118.85 140.55 116.7 142.8 114.45 145.95 114.45 L146 114.45"/>
  </g>
</svg>