
<svg xmlns="http://www.w3.org/2000/svg" version="1.1" xmlns:xlink="http://www.w3.org/1999/xlink" preserveAspectRatio="none" x="0px" y="0px" width="512px" height="512px" viewBox="0 0 512 512">
<defs>
<linearGradient id="Gradient_1" gradientUnits="userSpaceOnUse" x1="65.9" y1="115.7" x2="80.4" y2="115.7" spreadMethod="pad">
<stop  offset="0%" stop-color="#EECC98"/>

<stop  offset="100%" stop-color="#FFE0B1"/>
</linearGradient>

<linearGradient id="Gradient_2" gradientUnits="userSpaceOnUse" x1="226" y1="115.7" x2="211.5" y2="115.7" spreadMethod="pad">
<stop  offset="0%" stop-color="#EECC98"/>

<stop  offset="100%" stop-color="#FFE0B1"/>
</linearGradient>

<g id="Layer0_0_FILL">
<path fill="#191919" stroke="none" d="
M 512 0
L 0 0 0 512 512 512 512 0
M 488.8 125.9
L 488.8 132.85 488.8 254 468.8 254 468.8 242 449.8 242 449.8 166 445.15 181.4 430.15 181.4 436.55 161 436.55 144.25 426.8 144.25 426.8 162.5 415.05 162.5 415.05 193 381.8 193 381.8 173 393.8 173 393.8 144.4 353.3 144.4 353.3 161 359.35 181.25 344.4 181.25 337.5 161.15 337.5 132.85 337.5 125.9 337.5 105.2 356.15 48.75 412.8 48.75 412.8 12 433.45 12 433.45 50.15 449.8 101 449.8 49 488.8 49 488.8 125.9
M 330.95 75
L 330.95 149 182.95 149 182.95 223 108.95 223 108.95 149 34.95 149 34.95 75 108.95 75 108.95 1 182.95 1 182.95 75 330.95 75
M 469 326
L 469 361 503 360.75 503 434.05 503 441 503 465 503 467.4 487.6 467.4 488 503.75 452 503.75 396 503.75 396 467.4 361.25 467.4 361 465 361 441 361 434.05 361 361 431.25 360.75 431 326 469 326
M 424.95 209
L 424.95 319 315.95 319 315.95 355.95 241.95 355.95 241.95 319 205.95 319 205.95 209 241.95 209 241.95 172.05 315.95 172.05 315.95 209 424.95 209
M 73.35 190
L 94 190 94 226.75 150.65 226.75 169.3 283.2 169.3 303.9 169.3 310.85 169.3 339.15 162.4 359.25 147.45 359.25 153.5 339 153.5 322.4 113 322.4 113 351 125 351 125 371 91.75 371 91.75 340.5 80 340.5 80 322.25 70.25 322.25 70.25 339 76.65 359.4 61.65 359.4 57 344 57 420 38 420 38 432 18 432 18 310.85 18 303.9 18 227 57 227 57 279 73.35 228.15 73.35 190
M 181 365
L 181 330 219 330 218.75 364.75 289 365 289 438.05 289 445 289 469 288.75 471.4 254 471.4 254 507.75 198 507.75 162 507.75 162.4 471.4 147 471.4 147 469 147 445 147 438.05 147 364.75 181 365 Z"/>

<path fill="#694C39" stroke="none" d="
M 162.4 471.35
L 162.4 471.4 162 507.75 198 507.75 198 471.4 162.4 471.35
M 289 469
L 289 445 215.6 445 199.75 452.5 183.4 445 147 445 147 469 289 469
M 503 465
L 503 441 466.6 441 450.25 448.5 434.4 441 361 441 361 465 503 465
M 487.6 467.4
L 487.6 467.35 452 467.4 452 503.75 488 503.75 487.6 467.4 Z"/>

<path fill="#986D51" stroke="none" d="
M 288.75 471.4
L 289 469 147 469 147 471.4 162.4 471.4 162.4 471.35 198 471.4 198 507.75 254 507.75 254 471.4 288.75 471.4
M 487.6 467.35
L 487.6 467.4 503 467.4 503 465 361 465 361.25 467.4 396 467.4 396 503.75 452 503.75 452 467.4 487.6 467.35 Z"/>

<path fill="#BAC6CB" stroke="none" d="
M 289 445
L 289 438.05 147 438.05 147 445 183.4 445 199.75 452.5 215.6 445 289 445
M 211.5 420
L 211.5 416 211.5 415.35
Q 211.5 414.85 211.05 414.4 210.65 414 210.1 414
L 190.65 414
Q 190.15 414 189.7 414.4 189.3 414.85 189.3 415.35
L 189.3 416 189.3 420 189.3 420.85
Q 189.3 420.95 189.3 421 189.35 421.35 189.6 421.65 189.85 422 190.3 422.15
L 200.05 424.95
Q 200.4 425.05 200.8 424.95
L 210.55 422.15
Q 210.95 422 211.2 421.65 211.45 421.35 211.5 421 211.5 420.95 211.5 420.85
L 211.5 420
M 503 441
L 503 434.05 361 434.05 361 441 434.4 441 450.25 448.5 466.6 441 503 441
M 460.3 410.4
Q 459.85 410 459.35 410
L 439.9 410
Q 439.35 410 438.95 410.4 438.5 410.85 438.5 411.35
L 438.5 412 438.5 416 438.5 416.85
Q 438.5 416.95 438.5 417 438.55 417.35 438.8 417.65 439.05 418 439.45 418.15
L 449.2 420.95
Q 449.6 421.05 449.95 420.95
L 459.7 418.15
Q 460.15 418 460.4 417.65 460.65 417.35 460.7 417 460.7 416.95 460.7 416.85
L 460.7 416 460.7 412 460.7 411.35
Q 460.7 410.85 460.3 410.4 Z"/>

<path fill="#CBD9DE" stroke="none" d="
M 181 330
L 181 365 147 364.75 147 438.05 289 438.05 289 365 218.75 364.75 219 330 181 330
M 218.75 416
L 218.75 420 211.5 420 211.5 420.85
Q 211.5 420.95 211.5 421 211.45 421.35 211.2 421.65 210.95 422 210.55 422.15
L 200.8 424.95
Q 200.4 425.05 200.05 424.95
L 190.3 422.15
Q 189.85 422 189.6 421.65 189.35 421.35 189.3 421 189.3 420.95 189.3 420.85
L 189.3 420 182 420 182 416 189.3 416 189.3 415.35
Q 189.3 414.85 189.7 414.4 190.15 414 190.65 414
L 210.1 414
Q 210.65 414 211.05 414.4 211.5 414.85 211.5 415.35
L 211.5 416 218.75 416
M 18 303.9
L 18 310.85 169.3 310.85 169.3 303.9 18 303.9
M 18.05 277.35
L 18.05 281.7 57.05 281.7 18.05 277.35
M 283.55 233.4
Q 292.95 228.7 303.35 231.45 303.95 226.15 298.55 222 303.15 222.85 307.7 225.6 306 214.6 300.5 209
L 279.8 235.6 259.15 209
Q 251.2 213.45 250.2 223.65 255.4 221.35 261.1 222 255.7 226.15 256.3 231.45 266 231.2 274.8 233.85 275.45 234.05 276.05 234.25
L 276.05 319 241.95 319 241.95 355.95 315.95 355.95 315.95 319 283.55 319 283.55 233.4
M 279.8 245.7
Q 280.75 245.7 281.4 246.4 282.15 247.1 282.15 248.05 282.15 249 281.4 249.65 280.75 250.35 279.8 250.35 278.85 250.35 278.15 249.65 277.45 249 277.45 248.05 277.45 247.1 278.15 246.4 278.85 245.7 279.8 245.7
M 277.45 263.45
Q 277.45 262.45 278.15 261.75 278.85 261.1 279.8 261.1 280.75 261.1 281.4 261.75 282.15 262.45 282.15 263.45 282.15 264.4 281.4 265.05 280.75 265.75 279.8 265.75 278.85 265.75 278.15 265.05 277.45 264.4 277.45 263.45
M 278.15 277.15
Q 278.85 276.5 279.8 276.5 280.75 276.5 281.4 277.15 282.15 277.85 282.15 278.8 282.15 279.75 281.4 280.45 280.75 281.15 279.8 281.15 278.85 281.15 278.15 280.45 277.45 279.75 277.45 278.8 277.45 277.85 278.15 277.15
M 278.15 295.8
Q 277.45 295.15 277.45 294.2 277.45 293.2 278.15 292.5 278.85 291.85 279.8 291.85 280.75 291.85 281.4 292.5 282.15 293.2 282.15 294.2 282.15 295.15 281.4 295.8 280.75 296.5 279.8 296.5 278.85 296.5 278.15 295.8
M 302.6 257.55
L 296.55 257.95 297 264 303.05 263.6 302.6 257.55
M 303.9 253.7
L 303.9 253.7 303.95 253.7 303.9 253.7
M 289.45 244
Q 288.95 244 288.5 244.4 288.1 244.85 288.1 245.35
L 288.1 250.85
Q 288.1 251.3 288.4 251.65 288.65 252 289.1 252.15
L 296.4 254.25 301.75 253.95 301.75 253.7 301.15 253.7
Q 300 253.7 300 252.55
L 300 248.15
Q 300 247 301.15 247
L 304.3 247
Q 305.45 247 305.45 248.15
L 305.45 252.55
Q 305.45 253.05546875 305.2 253.35
L 309.35 252.15
Q 309.75 252 310 251.65 310.3 251.3 310.3 250.85
L 310.3 245.35
Q 310.3 244.85 309.85 244.4 309.45 244 308.9 244
L 289.45 244
M 469 361
L 469 326 431 326 431.25 360.75 361 361 361 434.05 503 434.05 503 360.75 469 361
M 468 412
L 468 416 460.7 416 460.7 416.85
Q 460.7 416.95 460.7 417 460.65 417.35 460.4 417.65 460.15 418 459.7 418.15
L 449.95 420.95
Q 449.6 421.05 449.2 420.95
L 439.45 418.15
Q 439.05 418 438.8 417.65 438.55 417.35 438.5 417 438.5 416.95 438.5 416.85
L 438.5 416 431.25 416 431.25 412 438.5 412 438.5 411.35
Q 438.5 410.85 438.95 410.4 439.35 410 439.9 410
L 459.35 410
Q 459.85 410 460.3 410.4 460.7 410.85 460.7 411.35
L 460.7 412 468 412
M 488.75 103.7
L 488.75 99.35 449.75 103.7 488.75 103.7
M 488.8 132.85
L 488.8 125.9 337.5 125.9 337.5 132.85 488.8 132.85 Z"/>

<path fill="#E9F9FF" stroke="none" d="
M 189.3 420
L 189.3 416 182 416 182 420 189.3 420
M 218.75 420
L 218.75 416 211.5 416 211.5 420 218.75 420
M 94 190
L 73.35 190 73.35 228.15 57 279 57 227 18 227 18 303.9 169.3 303.9 169.3 283.2 150.65 226.75 94 226.75 94 190
M 18.05 281.7
L 18.05 277.35 57.05 281.7 18.05 281.7
M 277.45 294.2
Q 277.45 295.15 278.15 295.8 278.85 296.5 279.8 296.5 280.75 296.5 281.4 295.8 282.15 295.15 282.15 294.2 282.15 293.2 281.4 292.5 280.75 291.85 279.8 291.85 278.85 291.85 278.15 292.5 277.45 293.2 277.45 294.2
M 279.8 276.5
Q 278.85 276.5 278.15 277.15 277.45 277.85 277.45 278.8 277.45 279.75 278.15 280.45 278.85 281.15 279.8 281.15 280.75 281.15 281.4 280.45 282.15 279.75 282.15 278.8 282.15 277.85 281.4 277.15 280.75 276.5 279.8 276.5
M 278.15 261.75
Q 277.45 262.45 277.45 263.45 277.45 264.4 278.15 265.05 278.85 265.75 279.8 265.75 280.75 265.75 281.4 265.05 282.15 264.4 282.15 263.45 282.15 262.45 281.4 261.75 280.75 261.1 279.8 261.1 278.85 261.1 278.15 261.75
M 281.4 246.4
Q 280.75 245.7 279.8 245.7 278.85 245.7 278.15 246.4 277.45 247.1 277.45 248.05 277.45 249 278.15 249.65 278.85 250.35 279.8 250.35 280.75 250.35 281.4 249.65 282.15 249 282.15 248.05 282.15 247.1 281.4 246.4
M 424.95 319
L 424.95 209 315.95 209 315.95 172.05 241.95 172.05 241.95 209 205.95 209 205.95 319 241.95 319 276.05 319 276.05 234.25
Q 275.45 234.05 274.8 233.85 266 231.2 256.3 231.45 255.7 226.15 261.1 222 255.4 221.35 250.2 223.65 251.2 213.45 259.15 209
L 300.5 209
Q 306 214.6 307.7 225.6 303.15 222.85 298.55 222 303.95 226.15 303.35 231.45 292.95 228.7 283.55 233.4
L 283.55 319 315.95 319 424.95 319
M 288.5 244.4
Q 288.95 244 289.45 244
L 308.9 244
Q 309.45 244 309.85 244.4 310.3 244.85 310.3 245.35
L 310.3 250.85
Q 310.3 251.3 310 251.65 309.75 252 309.35 252.15
L 305.2 253.35
Q 304.94453125 253.7 304.3 253.7
L 303.95 253.7 303.9 253.7 303.9 253.8 309.1 253.5
Q 312.6 253.25 312.8 256.75
L 313.25 264.35
Q 313.45 267.9 309.95 268.15
L 297.25 268.9
Q 293.75 269.1 293.55 265.55
L 293.1 257.95
Q 292.9 254.45 296.4 254.25
L 289.1 252.15
Q 288.65 252 288.4 251.65 288.1 251.3 288.1 250.85
L 288.1 245.35
Q 288.1 244.85 288.5 244.4
M 431.25 412
L 431.25 416 438.5 416 438.5 412 431.25 412
M 468 416
L 468 412 460.7 412 460.7 416 468 416
M 488.8 125.9
L 488.8 49 449.8 49 449.8 101 433.45 50.15 433.45 12 412.8 12 412.8 48.75 356.15 48.75 337.5 105.2 337.5 125.9 488.8 125.9
M 488.75 99.35
L 488.75 103.7 449.75 103.7 488.75 99.35 Z"/>

<path fill="#FFE0B1" stroke="none" d="
M 80 322.25
L 80 340.5 91.75 340.5 91.75 371 125 371 125 351 113 351 113 322.4 153.5 322.4 153.5 339 147.45 359.25 162.4 359.25 169.3 339.15 169.3 310.85 18 310.85 18 432 38 432 38 420 57 420 57 344 61.65 359.4 76.65 359.4 70.25 339 70.25 322.25 80 322.25
M 330.95 149
L 330.95 75 182.95 75 182.95 1 108.95 1 108.95 75 34.95 75 34.95 149 108.95 149 108.95 223 182.95 223 182.95 149 330.95 149
M 195.95 89.75
Q 195.65 88.85 195.35 88.05 220.75 83.85 246.2 97.1 250.95 115.2 243.15 126.45
L 240.15 125.3
Q 230.9 121.5 229.45 111.65 229.1 109.25 227.55 107.7 224.4 104.55 219.9 104.75 218.1 104.65 215.8 104.95 220 105.4 222.9 108.2 226 111.3 226 115.7
L 226 115.75
Q 226 120.25 222.9 123.4 219.9 126.3 215.8 126.5
L 215.6 126.5
Q 213.95 126.5 212.7 123.4 211.55 120.3 211.5 115.95 211.5 115.85 211.5 115.75
L 211.5 115.7
Q 211.5 113.15 211.9 111
L 202.3 109.8 195.95 89.75
M 96.55 88.05
Q 96.25 88.85 95.95 89.75
L 89.6 109.8 80 111
Q 80.4 113.15 80.4 115.7
L 80.4 115.75
Q 80.4 115.85 80.4 115.95 80.35 120.3 79.2 123.4 77.95 126.5 76.3 126.5
L 76.1 126.5
Q 72 126.3 69 123.4 65.9 120.25 65.9 115.75
L 65.9 115.7
Q 65.9 111.3 69 108.2 71.9 105.4 76.1 104.95 73.8 104.65 72 104.75 67.5 104.55 64.35 107.7 62.8 109.25 62.45 111.65 61 121.5 51.75 125.3
L 48.75 126.45
Q 40.95 115.2 45.7 97.1 71.15 83.85 96.55 88.05
M 165 121.8
L 164.95 121.85
Q 162.5 124.3 159.05 124.3 156.0119140625 124.3 153.7 122.35 153.489453125 123.2224609375 152 123.9 153.20234375 124.5025390625 154.25 125.35 156.75 127.45 157.8 128.9 158 129.2 158 129.55 158 129.9 157.85 130.2 157.75 130.55 157.4 130.75 147.7 137 135.75 132.1 135.3 131.9 135.1 131.5 134.8 131.05 134.95 130.6 135.45 127.55 138.25 125.35 139.1810546875 124.5740234375 140.2 124 138.4583984375 123.2724609375 138.2 122.3 135.94375 124.3 132.85 124.3 129.4 124.3 126.9 121.8 124.45 119.35 124.45 115.9 124.45 112.45 126.9 109.95 129.4 107.5 132.85 107.5 136.3 107.5 138.75 109.95 140.3 111.5 140.9 113.4 143.1 111.75 145.95 111.75 148.85 111.75 151 113.45 151.55 111.5 153.1 109.95 155.6 107.5 159.05 107.5 162.5 107.5 164.95 109.95 167.45 112.45 167.45 115.9 167.45 119.35 165 121.8
M 169.35 100.65
L 168.7 102.4
Q 168.45 103.1 167.7 103.45 167 103.75 166.25 103.5 161.35 101.7 154.8 101.45 154.05 101.4 153.5 100.9 153 100.25 153 99.5
L 153.05 97.65
Q 153.05 96.85 153.65 96.3 154.2 95.75 155 95.8 162.6 96.05 168.25 98.2 169 98.5 169.3 99.2 169.6 99.9 169.35 100.65
M 137.85 96.3
Q 138.45 96.85 138.45 97.65
L 138.5 99.5
Q 138.5 100.25 138 100.9 137.45 101.4 136.7 101.45 130.15 101.7 125.25 103.5 124.5 103.75 123.8 103.45 123.05 103.1 122.8 102.4
L 122.15 100.65
Q 121.9 99.9 122.2 99.2 122.5 98.5 123.25 98.2 128.9 96.05 136.5 95.8 137.3 95.75 137.85 96.3
M 337.5 161.15
L 344.4 181.25 359.35 181.25 353.3 161 353.3 144.4 393.8 144.4 393.8 173 381.8 173 381.8 193 415.05 193 415.05 162.5 426.8 162.5 426.8 144.25 436.55 144.25 436.55 161 430.15 181.4 445.15 181.4 449.8 166 449.8 242 468.8 242 468.8 254 488.8 254 488.8 132.85 337.5 132.85 337.5 161.15 Z"/>

<path fill="#FFFFFF" stroke="none" d="
M 259.15 209
L 279.8 235.6 300.5 209 259.15 209
M 311.05 256.85
Q 310.95 255.1 309.2 255.25
L 303.85 255.6
Q 303.8 255.8 303.6 256 303.25 256.3 302.85 256.3
L 302.8 256.3
Q 302.35 256.3 302.05 256 301.9 255.85 301.85 255.7
L 296.5 256
Q 294.75 256.1 294.85 257.85
L 295.3 265.45
Q 295.4 267.25 297.15 267.15
L 309.85 266.4
Q 311.6 266.25 311.5 264.45
L 311.05 256.85
M 296.55 257.95
L 302.6 257.55 303.05 263.6 297 264 296.55 257.95
M 129 112.1
Q 127.45 113.7 127.45 115.9 127.45 118.15 129 119.7 130.6 121.3 132.85 121.3 135.05 121.3 136.65 119.7 137.8 118.55 138.15 117.05 138.15 116.85 138.2 116.65 138.25 116.3 138.25 115.9 138.25 113.65 136.65 112.05 135.1 110.5 132.85 110.5 130.65 110.5 129.05 112.05
L 129 112.1
M 162.85 119.7
Q 164.45 118.1 164.45 115.9 164.45 113.65 162.85 112.05 161.3 110.5 159.05 110.5 156.85 110.5 155.25 112.05
L 155.2 112.1
Q 153.65 113.7 153.65 115.9 153.65 116.35 153.75 116.85
L 153.75 116.95
Q 154.05 118.5 155.2 119.7 156.8 121.3 159.05 121.3 161.25 121.3 162.85 119.7 Z"/>

<path fill="#D3E2E7" stroke="none" d="
M 303.9 255.25
Q 303.9 255.4 303.85 255.6
L 309.2 255.25
Q 310.95 255.1 311.05 256.85
L 311.5 264.45
Q 311.6 266.25 309.85 266.4
L 297.15 267.15
Q 295.4 267.25 295.3 265.45
L 294.85 257.85
Q 294.75 256.1 296.5 256
L 301.85 255.7
Q 301.75 255.5 301.75 255.25
L 301.75 253.95 296.4 254.25
Q 292.9 254.45 293.1 257.95
L 293.55 265.55
Q 293.75 269.1 297.25 268.9
L 309.95 268.15
Q 313.45 267.9 313.25 264.35
L 312.8 256.75
Q 312.6 253.25 309.1 253.5
L 303.9 253.8 303.9 255.25 Z"/>

<path fill="#D9D9D9" stroke="none" d="
M 303.85 255.6
Q 303.9 255.4 303.9 255.25
L 303.9 253.8 303.9 253.7 303.9 253.7 303.9 253
Q 303.9 252.6 303.6 252.25 303.25 251.95 302.85 251.95
L 302.8 251.95
Q 302.35 251.95 302.05 252.25 301.75 252.6 301.75 253
L 301.75 253.7 301.75 253.95 301.75 255.25
Q 301.75 255.5 301.85 255.7 301.9 255.85 302.05 256 302.35 256.3 302.8 256.3
L 302.85 256.3
Q 303.25 256.3 303.6 256 303.8 255.8 303.85 255.6 Z"/>

<path fill="#CCCCCC" stroke="none" d="
M 304.3 247
L 301.15 247
Q 300 247 300 248.15
L 300 252.55
Q 300 253.7 301.15 253.7
L 301.75 253.7 301.75 253
Q 301.75 252.6 302.05 252.25 302.35 251.95 302.8 251.95
L 302.85 251.95
Q 303.25 251.95 303.6 252.25 303.9 252.6 303.9 253
L 303.9 253.7 303.95 253.7 304.3 253.7
Q 304.94453125 253.7 305.2 253.35 305.45 253.05546875 305.45 252.55
L 305.45 248.15
Q 305.45 247 304.3 247 Z"/>

<path fill="#999999" stroke="none" d="
M 138.45 97.65
Q 138.45 96.85 137.85 96.3 137.3 95.75 136.5 95.8 128.9 96.05 123.25 98.2 122.5 98.5 122.2 99.2 121.9 99.9 122.15 100.65
L 122.8 102.4
Q 123.05 103.1 123.8 103.45 124.5 103.75 125.25 103.5 130.15 101.7 136.7 101.45 137.45 101.4 138 100.9 138.5 100.25 138.5 99.5
L 138.45 97.65
M 168.7 102.4
L 169.35 100.65
Q 169.6 99.9 169.3 99.2 169 98.5 168.25 98.2 162.6 96.05 155 95.8 154.2 95.75 153.65 96.3 153.05 96.85 153.05 97.65
L 153 99.5
Q 153 100.25 153.5 100.9 154.05 101.4 154.8 101.45 161.35 101.7 166.25 103.5 167 103.75 167.7 103.45 168.45 103.1 168.7 102.4
M 134.95 130.6
Q 134.8 131.05 135.1 131.5 135.3 131.9 135.75 132.1 147.7 137 157.4 130.75 157.75 130.55 157.85 130.2 158 129.9 158 129.55 158 129.2 157.8 128.9 156.75 127.45 154.25 125.35 153.20234375 124.5025390625 152 123.9 151.7861328125 124.035546875 151.5 124.15 149.25 125 146 125
L 145.95 125
Q 142.8 125 140.55 124.15 140.378515625 124.084375 140.2 124 139.1810546875 124.5740234375 138.25 125.35 135.45 127.55 134.95 130.6
M 95.95 89.75
Q 96.25 88.85 96.55 88.05 71.15 83.85 45.7 97.1 40.95 115.2 48.75 126.45
L 51.75 125.3
Q 61 121.5 62.45 111.65 62.8 109.25 64.35 107.7 67.5 104.55 72 104.75 73.8 104.65 76.1 104.95
L 76.3 104.95
Q 77.95 104.95 79.2 108.2 79.7 109.5 80 111
L 89.6 109.8 95.95 89.75
M 195.35 88.05
Q 195.65 88.85 195.95 89.75
L 202.3 109.8 211.9 111
Q 212.2 109.5 212.7 108.2 213.95 104.95 215.6 104.95
L 215.8 104.95
Q 218.1 104.65 219.9 104.75 224.4 104.55 227.55 107.7 229.1 109.25 229.45 111.65 230.9 121.5 240.15 125.3
L 243.15 126.45
Q 250.95 115.2 246.2 97.1 220.75 83.85 195.35 88.05 Z"/>

<path fill="#EECC98" stroke="none" d="
M 150.85 117.65
Q 150.35 116.9 149.75 116.3 148.2 114.75 145.95 114.75 143.7 114.75 142.1 116.35
L 142.1 116.3
Q 141.5 116.95 141.1 117.65 140.6 120 138.8 121.8
L 138.75 121.85
Q 138.496875 122.103125 138.2 122.3 138.4583984375 123.2724609375 140.2 124 140.378515625 124.084375 140.55 124.15 142.8 125 145.95 125
L 146 125
Q 149.25 125 151.5 124.15 151.7861328125 124.035546875 152 123.9 153.489453125 123.2224609375 153.7 122.35 153.3984375 122.0984375 153.1 121.8 151.3 120 150.85 117.65 Z"/>

<path fill="#707070" stroke="none" d="
M 164.95 121.85
L 165 121.8
Q 167.45 119.35 167.45 115.9 167.45 112.45 164.95 109.95 162.5 107.5 159.05 107.5 155.6 107.5 153.1 109.95 151.55 111.5 151 113.45 148.85 111.75 145.95 111.75 143.1 111.75 140.9 113.4 140.3 111.5 138.75 109.95 136.3 107.5 132.85 107.5 129.4 107.5 126.9 109.95 124.45 112.45 124.45 115.9 124.45 119.35 126.9 121.8 129.4 124.3 132.85 124.3 135.94375 124.3 138.2 122.3 138.496875 122.103125 138.75 121.85
L 138.8 121.8
Q 140.6 120 141.1 117.65 141.5 116.95 142.1 116.3
L 142.1 116.35
Q 143.7 114.75 145.95 114.75 148.2 114.75 149.75 116.3 150.35 116.9 150.85 117.65 151.3 120 153.1 121.8 153.3984375 122.0984375 153.7 122.35 156.0119140625 124.3 159.05 124.3 162.5 124.3 164.95 121.85
M 164.45 115.9
Q 164.45 118.1 162.85 119.7 161.25 121.3 159.05 121.3 156.8 121.3 155.2 119.7 154.05 118.5 153.75 116.95
L 153.75 116.85
Q 153.65 116.35 153.65 115.9 153.65 113.7 155.2 112.1
L 155.25 112.05
Q 156.85 110.5 159.05 110.5 161.3 110.5 162.85 112.05 164.45 113.65 164.45 115.9
M 127.45 115.9
Q 127.45 113.7 129 112.1
L 129.05 112.05
Q 130.65 110.5 132.85 110.5 135.1 110.5 136.65 112.05 138.25 113.65 138.25 115.9 138.25 116.3 138.2 116.65 138.15 116.85 138.15 117.05 137.8 118.55 136.65 119.7 135.05 121.3 132.85 121.3 130.6 121.3 129 119.7 127.45 118.15 127.45 115.9 Z"/>

<path fill="url(#Gradient_1)" stroke="none" d="
M 79.2 108.2
Q 77.95 104.95 76.3 104.95
L 76.1 104.95
Q 71.9 105.4 69 108.2 65.9 111.3 65.9 115.7
L 65.9 115.75
Q 65.9 120.25 69 123.4 72 126.3 76.1 126.5
L 76.3 126.5
Q 77.95 126.5 79.2 123.4 80.35 120.3 80.4 115.95 80.4 115.85 80.4 115.75
L 80.4 115.7
Q 80.4 113.15 80 111 79.7 109.5 79.2 108.2 Z"/>

<path fill="url(#Gradient_2)" stroke="none" d="
M 226 115.7
Q 226 111.3 222.9 108.2 220 105.4 215.8 104.95
L 215.6 104.95
Q 213.95 104.95 212.7 108.2 212.2 109.5 211.9 111 211.5 113.15 211.5 115.7
L 211.5 115.75
Q 211.5 115.85 211.5 115.95 211.55 120.3 212.7 123.4 213.95 126.5 215.6 126.5
L 215.8 126.5
Q 219.9 126.3 222.9 123.4 226 120.25 226 115.75
L 226 115.7 Z"/>
</g>
</defs>

<g transform="matrix( 1, 0, 0, 1, 0,0) ">
<use xlink:href="#Layer0_0_FILL"/>
</g>
</svg>
