<svg xmlns="http://www.w3.org/2000/svg" xmlns:xlink="http://www.w3.org/1999/xlink">
  <defs>
    <linearGradient gradientUnits="userSpaceOnUse" x1="-819.2" x2="819.2" spreadMethod="pad" gradientTransform="matrix(0.00885009765625 0 0 0.013153076171875 218.75 115.7)" id="gradient0">
      <stop offset="0" stop-color="#1ABC9C"/>
      <stop offset="1" stop-color="#138C74"/>
    </linearGradient>
    <linearGradient gradientUnits="userSpaceOnUse" x1="-819.2" x2="819.2" spreadMethod="pad" gradientTransform="matrix(-0.00885009765625 0 0 0.013153076171875 73.15 115.7)" id="gradient1">
      <stop offset="0" stop-color="#1ABC9C"/>
      <stop offset="1" stop-color="#138C74"/>
    </linearGradient>
  </defs>
  <g>
    <path stroke="none" fill="#191919" d="M488.8 133 L488.8 126 488.8 49 449.8 49 449.8 101 433.45 50.15 433.45 12 412.8 12 412.8 48.75 356.15 48.75 337.5 105.2 337.5 126 337.5 133 337.5 161.15 344.4 181.25 359.35 181.25 353.3 161 353.3 144.4 393.8 144.4 393.8 173 381.8 173 381.8 193 415.05 193 415.05 162.5 426.8 162.5 426.8 144.25 436.55 144.25 436.55 161 430.15 181.4 445.15 181.4 449.8 166 449.8 242 468.8 242 468.8 254 488.8 254 488.8 133 M330.95 132 L330.95 75 182.95 75 182.95 1 108.95 1 108.95 75 34.95 75 34.95 131.9 34.95 149 108.95 149 108.95 223 182.95 223 182.95 149 330.95 149 330.95 132 M205.95 308 L205.95 319 241.95 319 241.95 355.95 315.95 355.95 315.95 319 424.95 319 424.95 308 424.95 209 315.95 209 315.95 172.05 241.95 172.05 241.95 209 205.95 209 205.95 308 M503 434.05 L503 360.75 469 361 469 326 431 326 431.25 360.75 361 361 361 434.05 361 441 361 465 361.25 467.4 396 467.4 396 503.75 452 503.75 488 503.75 487.6 467.4 503 467.4 503 465 503 441 503 434.05 M169.3 304 L169.3 283.2 150.65 226.75 94 226.75 94 190 73.35 190 73.35 228.15 57 279 57 227 18 227 18 304 18 311 18 432 38 432 38 420 57 420 57 344 61.65 359.4 76.65 359.4 70.25 339 70.25 322.25 80 322.25 80 340.5 91.75 340.5 91.75 371 125 371 125 351 113 351 113 322.4 153.5 322.4 153.5 339 147.45 359.25 162.4 359.25 169.3 339.15 169.3 311 169.3 304 M289 438.05 L289 365 218.75 364.75 219 330 181 330 181 365 147 364.75 147 438.05 147 445 147 471 162.4 471 162 507.4 254 507.4 254 471 288.8 471 289 469 289 445 289 438.05 M0 512 L0 0 512 0 512 512 0 512"/>
    <path stroke="none" fill="#E05848" d="M428.9 85.35 Q428.45 85.8 427.8 85.8 427.15 85.8 426.7 85.35 426.25 84.9 426.25 84.25 426.25 83.6 426.7 83.15 427.15 82.7 427.8 82.7 428.45 82.7 428.9 83.15 429.35 83.6 429.35 84.25 429.35 84.9 428.9 85.35 M414.2 84.8 Q414.6 85.25 414.6 85.85 414.6 86.45 414.2 86.85 413.75 87.3 413.15 87.3 412.55 87.3 412.15 86.85 411.7 86.45 411.7 85.85 411.7 85.25 412.15 84.8 412.55 84.4 413.15 84.4 413.75 84.4 414.2 84.8 M410.15 77.6 Q410.85 78.3 410.85 79.3 410.85 80.3 410.15 81 409.45 81.7 408.45 81.7 407.45 81.7 406.75 81 406.05 80.3 406.05 79.3 406.05 78.3 406.75 77.6 407.45 76.9 408.45 76.9 409.45 76.9 410.15 77.6 M416.1 73.8 Q417.25 72.65 418.9 72.65 420.55 72.65 421.7 73.8 422.85 74.95 422.85 76.6 422.85 78.25 421.7 79.4 420.55 80.55 418.9 80.55 417.25 80.55 416.1 79.4 414.95 78.25 414.95 76.6 414.95 74.95 416.1 73.8 M422.25 67.3 Q421.85 67.7 421.35 67.7 420.85 67.7 420.5 67.3 420.1 66.95 420.1 66.45 420.1 65.95 420.5 65.55 420.85 65.2 421.35 65.2 421.85 65.2 422.25 65.55 422.6 65.95 422.6 66.45 422.6 66.95 422.25 67.3 M411.7 69.4 Q412.4 69.4 412.9 69.85 413.35 70.35 413.35 71.05 L412.9 72.2 Q412.4 72.7 411.7 72.7 411 72.7 410.55 72.2 410.05 71.75 410.05 71.05 410.05 70.35 410.55 69.85 411 69.4 411.7 69.4 M456.15 412 L455.95 411.75 Q455.65 411.25 455.85 410.7 456 410.1 456.55 409.8 L457.65 409.65 Q458.2 409.8 458.5 410.3 458.8 410.8 458.7 411.4 L458.4 412 458 412.3 456.9 412.45 Q456.45 412.3 456.15 412 M468 412.4 Q469.5 412.85 470.3 414.2 471.1 415.65 470.7 417.2 470.25 418.8 468.8 419.6 467.4 420.45 465.85 420 464.25 419.6 463.45 418.15 462.85 417.15 462.9 416 L463.05 415.15 Q463.45 413.6 464.85 412.75 466.3 411.95 467.9 412.35 L468 412.4 M144.7 124.9 L144.7 128.85 139.7 129.3 140 123.85 140.55 124.05 Q142.35 124.75 144.7 124.9 M144.7 136.35 L144.7 138.6 Q144.7 139.75 143.85 140.55 143.05 141.4 141.9 141.4 140.75 141.4 139.9 140.55 139.1 139.75 139.1 138.6 L139.35 135.1 144.7 136.35 M83.45 279.05 Q83.45 278.35 83.9 277.85 84.4 277.4 85.1 277.4 85.8 277.4 86.25 277.85 86.75 278.35 86.75 279.05 86.75 279.75 86.25 280.2 85.8 280.7 85.1 280.7 84.4 280.7 83.9 280.2 83.45 279.75 83.45 279.05 M90.05 289 Q89.35 289.7 88.35 289.7 87.35 289.7 86.65 289 85.95 288.3 85.95 287.3 85.95 286.3 86.65 285.6 87.35 284.9 88.35 284.9 89.35 284.9 90.05 285.6 90.75 286.3 90.75 287.3 90.75 288.3 90.05 289 M82.6 294.85 Q82.2 294.45 82.2 293.85 82.2 293.25 82.6 292.8 83.05 292.4 83.65 292.4 84.25 292.4 84.65 292.8 85.1 293.25 85.1 293.85 85.1 294.45 84.65 294.85 84.25 295.3 83.65 295.3 83.05 295.3 82.6 294.85 M76.3 275.3 Q75.95 275.7 75.45 275.7 74.95 275.7 74.55 275.3 74.2 274.95 74.2 274.45 74.2 273.95 74.55 273.55 74.95 273.2 75.45 273.2 75.95 273.2 76.3 273.55 76.7 273.95 76.7 274.45 76.7 274.95 76.3 275.3 M75.1 281.8 Q76.25 280.65 77.9 280.65 79.55 280.65 80.7 281.8 81.85 282.95 81.85 284.6 81.85 286.25 80.7 287.4 79.55 288.55 77.9 288.55 76.25 288.55 75.1 287.4 73.95 286.25 73.95 284.6 73.95 282.95 75.1 281.8 M69 293.8 Q68.35 293.8 67.9 293.35 67.45 292.9 67.45 292.25 67.45 291.6 67.9 291.15 68.35 290.7 69 290.7 69.65 290.7 70.1 291.15 70.55 291.6 70.55 292.25 70.55 292.9 70.1 293.35 L69 293.8 M299.55 241.2 Q299.95 241.6 299.95 242.1 299.95 242.6 299.55 242.95 299.2 243.35 298.7 243.35 298.2 243.35 297.8 242.95 297.45 242.6 297.45 242.1 297.45 241.6 297.8 241.2 298.2 240.85 298.7 240.85 299.2 240.85 299.55 241.2 M309.25 255.35 L309.2 254.95 Q309.2 253.95 309.9 253.25 310.6 252.55 311.6 252.55 312.6 252.55 313.3 253.25 314 253.95 314 254.95 314 255.95 313.3 256.65 312.6 257.35 311.6 257.35 310.6 257.35 309.9 256.65 L309.55 256.15 309.25 255.35 M304.5 254.4 L303.95 255.05 Q302.8 256.2 301.15 256.2 299.5 256.2 298.35 255.05 297.2 253.9 297.2 252.25 297.2 250.6 298.35 249.45 299.3 248.5 300.65 248.35 L301.15 248.3 Q302.8 248.3 303.95 249.45 305.1 250.6 305.1 252.25 305.1 253.45 304.5 254.4 M307.15 245.5 Q307.65 245.05 308.35 245.05 309.05 245.05 309.5 245.5 310 246 310 246.7 310 247.4 309.5 247.85 309.05 248.35 308.35 248.35 307.65 248.35 307.15 247.85 306.7 247.4 306.7 246.7 306.7 246 307.15 245.5 M262.25 278.2 Q262.45 277.6 263 277.25 L264.15 277.1 Q264.8 277.25 265.1 277.85 265.45 278.4 265.25 279 265.15 279.6 264.55 279.9 L263.35 280.1 Q262.8 279.95 262.45 279.4 262.15 278.8 262.25 278.2 M260.95 281.1 Q262.5 281.55 263.35 282.95 264.15 284.4 263.75 285.95 263.3 287.55 261.85 288.35 260.45 289.2 258.9 288.75 257.3 288.35 256.5 286.9 255.65 285.5 256.1 283.9 256.5 282.35 257.9 281.5 259.35 280.7 260.95 281.1 M251.05 281.05 L249.95 281.2 249 280.5 Q248.7 280 248.9 279.45 249.05 278.85 249.6 278.55 L250.7 278.4 Q251.25 278.55 251.55 279.05 251.85 279.55 251.75 280.15 L251.05 281.05 M250.8 285.75 Q251.7 285.25 252.65 285.5 253.6 285.75 254.1 286.6 254.6 287.5 254.35 288.45 254.1 289.4 253.2 289.9 252.35 290.4 251.4 290.15 250.45 289.9 249.95 289 249.45 288.15 249.7 287.2 249.95 286.25 250.8 285.75 M257.85 290 Q258.2 290.6 258.05 291.25 257.9 291.9 257.25 292.25 L256.05 292.45 Q255.35 292.25 255 291.65 254.65 291.05 254.9 290.4 255 289.75 255.6 289.4 L256.9 289.2 257.85 290 M271.5 281.4 L272.45 281.3 Q272.9 281.4 273.15 281.85 273.4 282.3 273.3 282.85 L272.75 283.6 271.8 283.7 271 283.1 Q270.75 282.65 270.95 282.15 271.05 281.65 271.5 281.4 M307.9 262.5 Q307.5 262.95 306.9 262.95 306.3 262.95 305.85 262.5 305.45 262.1 305.45 261.5 305.45 260.9 305.85 260.45 306.3 260.05 306.9 260.05 307.5 260.05 307.9 260.45 308.35 260.9 308.35 261.5 308.35 262.1 307.9 262.5 M293.35 258.8 L293.8 259.9 293.35 261 Q292.9 261.45 292.25 261.45 L291.15 261 Q290.7 260.55 290.7 259.9 290.7 259.25 291.15 258.8 291.6 258.35 292.25 258.35 292.9 258.35 293.35 258.8 M198 380.25 Q199.7 380.2 200.75 381.35 201.95 382.5 201.95 384.15 202 385.8 200.8 386.95 199.65 388.1 198.05 388.1 196.4 388.1 195.2 386.95 194.05 385.75 194 384.15 194.05 382.5 195.15 381.35 196.35 380.15 198 380.25 M187.5 380.2 L187.05 381.05 Q186.7 381.45 186.2 381.4 185.7 381.4 185.35 381.05 185 380.7 185 380.2 185 379.65 185.35 379.25 185.75 378.9 186.25 378.9 186.7 378.9 187.1 379.25 187.5 379.7 187.5 380.2 M191.5 386.2 Q192.1 386.15 192.6 386.65 193 387 193.05 387.7 193 388.35 192.6 388.8 192.15 389.25 191.45 389.25 190.8 389.2 190.4 388.8 189.9 388.35 189.95 387.65 189.95 387.05 190.4 386.65 190.8 386.15 191.5 386.2 M203.95 379.15 Q204.65 379.15 205.1 379.6 205.6 380.1 205.6 380.75 205.6 381.5 205.1 381.9 204.65 382.4 204 382.4 203.2 382.45 202.75 381.95 202.35 381.45 202.35 380.8 202.35 380.1 202.75 379.6 203.25 379.1 203.95 379.15 M208.65 385.6 Q208.65 386.6 208 387.3 207.25 388 206.3 388 205.25 387.95 204.6 387.3 203.85 386.6 203.9 385.6 203.9 384.55 204.55 383.9 205.3 383.15 206.3 383.2 207.3 383.2 207.95 383.85 208.7 384.6 208.65 385.6 M202.7 394.4 Q202.3 394 202.3 393.45 202.3 392.85 202.65 392.4 203.15 391.95 203.7 391.95 204.35 391.95 204.75 392.35 205.25 392.85 205.25 393.45 L204.8 394.4 Q204.35 394.85 203.75 394.8 203.15 394.85 202.7 394.4 M162.4 407.6 Q162.4 408.1 162 408.45 161.65 408.85 161.15 408.85 160.65 408.85 160.25 408.45 159.9 408.1 159.9 407.6 159.9 407.1 160.25 406.7 160.65 406.35 161.15 406.35 161.65 406.35 162 406.7 162.4 407.1 162.4 407.6 M171.95 411 Q172.45 411.5 172.45 412.2 172.45 412.9 171.95 413.35 171.5 413.85 170.8 413.85 170.1 413.85 169.6 413.35 169.15 412.9 169.15 412.2 169.15 411.5 169.6 411 170.1 410.55 170.8 410.55 171.5 410.55 171.95 411 M166.4 420.55 Q165.25 421.7 163.6 421.7 161.95 421.7 160.8 420.55 159.65 419.4 159.65 417.75 159.65 416.1 160.8 414.95 161.95 413.8 163.6 413.8 165.25 413.8 166.4 414.95 167.55 416.1 167.55 417.75 167.55 419.4 166.4 420.55 M176.45 420.45 Q176.45 421.45 175.75 422.15 175.05 422.85 174.05 422.85 173.05 422.85 172.35 422.15 171.65 421.45 171.65 420.45 171.65 419.45 172.35 418.75 173.05 418.05 174.05 418.05 175.05 418.05 175.75 418.75 176.45 419.45 176.45 420.45 M170.35 425.95 Q170.8 426.4 170.8 427 170.8 427.6 170.35 428 169.95 428.45 169.35 428.45 168.75 428.45 168.3 428 167.9 427.6 167.9 427 167.9 426.4 168.3 425.95 168.75 425.55 169.35 425.55 169.95 425.55 170.35 425.95 M154.7 423.85 Q155.35 423.85 155.8 424.3 156.25 424.75 156.25 425.4 156.25 426.05 155.8 426.5 155.35 426.95 154.7 426.95 154.05 426.95 153.6 426.5 153.15 426.05 153.15 425.4 153.15 424.75 153.6 424.3 154.05 423.85 154.7 423.85 M472.2 410.25 Q472.1 410.85 471.5 411.15 L470.3 411.35 Q469.75 411.2 469.4 410.65 469.1 410.05 469.2 409.45 469.4 408.85 469.95 408.5 L471.1 408.35 Q471.75 408.5 472.05 409.1 472.4 409.65 472.2 410.25 M477.95 414.35 Q477.7 413.9 477.9 413.4 478 412.9 478.45 412.65 L479.4 412.55 Q479.85 412.65 480.1 413.1 480.35 413.55 480.25 414.1 L479.7 414.85 478.75 414.95 Q478.2 414.8 477.95 414.35 M456.65 418.45 Q456.9 417.5 457.75 417 458.65 416.5 459.6 416.75 460.55 417 461.05 417.85 461.55 418.75 461.3 419.7 461.05 420.65 460.15 421.15 L458.35 421.4 Q457.4 421.15 456.9 420.25 456.4 419.4 456.65 418.45 M463.85 420.45 L464.8 421.25 Q465.15 421.85 465 422.5 464.85 423.15 464.2 423.5 L463 423.7 Q462.3 423.5 461.95 422.9 461.6 422.3 461.85 421.65 461.95 421 462.55 420.65 L463.85 420.45"/>
    <path stroke="none" fill="#694C39" d="M424.95 308 L424.95 319 315.95 319 315.95 355.95 241.95 355.95 241.95 319 205.95 319 205.95 308 246.15 308 249.1 304.85 252.45 308 270.45 308 270.45 319 287.4 319 287.4 308 296.25 308 299.35 303.85 303.6 308 424.95 308 M503 441 L503 465 361 465 361 441 434.4 441 450.25 448.5 466.6 441 503 441 M487.6 467.4 L488 503.75 452 503.75 452 467.4 487.6 467.35 487.6 467.4"/>
    <path stroke="none" fill="#C3DAE2" d="M287.4 308 L287.4 319 270.45 319 270.45 308 287.4 308"/>
    <path stroke="none" fill="#FFFFFF" d="M167.8 108.65 Q169.35 110.15 169.35 112.3 169.35 114.45 167.8 115.9 166.35 117.45 164.2 117.45 162.1 117.45 160.55 115.9 159.05 114.45 159.05 112.3 159.05 110.15 160.55 108.65 162.1 107.15 164.2 107.15 166.35 107.15 167.8 108.65 M144.7 128.85 L157.9 127.55 Q158.75 127.45 159.55 127.9 160.45 128.35 160.8 129.15 L160.9 129.4 155.35 133.25 159.55 138.25 158.2 139.1 156.65 139.15 144.7 136.35 139.35 135.1 Q138.25 134.8 137.6 134 137 133.1 137.1 132.05 137.1 130.95 137.85 130.2 138.6 129.4 139.7 129.3 L144.7 128.85 M127.7 107.15 Q129.8 107.15 131.25 108.65 132.8 110.15 132.8 112.3 132.8 114.45 131.25 115.9 129.8 117.45 127.7 117.45 125.55 117.45 124 115.9 122.55 114.45 122.55 112.3 122.55 110.15 124 108.65 125.55 107.15 127.7 107.15"/>
    <path stroke="none" fill="#1ABC9C" d="M488.8 133 L488.8 254 468.8 254 468.8 242 449.8 242 449.8 166 445.15 181.4 430.15 181.4 436.55 161 436.55 144.25 426.8 144.25 426.8 162.5 415.05 162.5 415.05 193 381.8 193 381.8 173 393.8 173 393.8 144.4 353.3 144.4 353.3 161 359.35 181.25 344.4 181.25 337.5 161.15 337.5 133 352.7 133 357.15 128.55 361.6 133 393.7 133 398.15 128.55 402.6 133 466.2 133 472.65 126.55 479.1 133 488.8 133 M363 89.85 L354.25 75.85 371.75 90.1 383.5 83.35 376.4 94.25 381 98.35 400.75 94.1 383.25 103.5 379 116.6 375.1 101.35 368 94.1 357.5 104.1 363 89.85 M216.05 105 L219.9 104.75 Q224.4 104.55 227.55 107.7 232.9 113.05 230.8 121.6 L239.75 119.6 243.85 126.75 251.85 126.75 256.95 131.9 256.95 132 272.35 127.45 285.75 132.25 298.6 126.25 312.85 134 324.35 126.95 330.95 132 330.95 149 182.95 149 182.95 223 108.95 223 108.95 149 34.95 149 34.95 131.9 40.05 126.75 48.05 126.75 52.15 119.6 61.1 121.6 Q59 113.05 64.35 107.7 67.5 104.55 72 104.75 L75.85 105 Q71.9 105.4 69 108.2 65.9 111.3 65.9 115.7 L65.9 115.75 Q65.9 120.25 69 123.4 72 126.3 76.1 126.5 L76.3 126.5 Q77.95 126.5 79.2 123.4 80.35 120.3 80.4 115.95 L83.75 112.85 88.65 115.95 93.15 87.05 97.55 91.75 108.95 83.15 108.95 83 132.1 90.75 134.5 87 149.85 94.25 151 87.35 173.5 88.95 171.65 84.6 182.95 83 182.95 83.15 194.35 91.75 198.75 87.05 203.25 115.95 208.15 112.85 211.5 115.95 Q211.55 120.3 212.7 123.4 213.95 126.5 215.6 126.5 L215.8 126.5 Q219.9 126.3 222.9 123.4 226 120.25 226 115.75 L226 115.7 Q226 111.3 222.9 108.2 220 105.4 216.05 105 M441.5 412 L440.2 400.65 434.9 397.6 426.8 407.8 429.45 394.5 410.4 382.45 426.45 386.3 438.2 376.55 432.05 389.7 441.2 394.1 456.85 392.95 445.8 401.15 444 412 443.3 416 442.5 420.75 441.95 416 441.5 412 M166.4 97.35 Q160.95 97.8 157 101.3 L156.6 102.05 156.65 102.9 157.8 105.6 158.3 106.2 159.05 106.4 159.8 106.2 Q163.7 103.85 167.95 103.9 L168.8 103.6 169.3 102.9 169.25 102.05 167.8 98.25 167.25 97.55 166.4 97.35 M167.8 108.65 Q166.35 107.15 164.2 107.15 162.1 107.15 160.55 108.65 159.05 110.15 159.05 112.3 159.05 114.45 160.55 115.9 162.1 117.45 164.2 117.45 166.35 117.45 167.8 115.9 169.35 114.45 169.35 112.3 169.35 110.15 167.8 108.65 M173.15 119.5 L172.65 119.45 172.2 119.8 167.85 126.1 167.7 126.3 165.5 133 Q165.35 133.35 165.5 133.6 L165.85 134 167 134.5 167.5 134.55 167.95 134.25 172.3 128.25 172.4 128.1 174.8 121.05 174.75 120.55 174.4 120.1 173.15 119.5 M125.5 96.55 Q125.05 96.5 124.65 96.75 L124.1 97.45 122.65 101.25 Q122.5 101.65 122.6 102.1 122.7 102.55 123.1 102.8 L123.95 103.1 Q128.2 103.05 132.1 105.4 L132.85 105.6 133.6 105.4 134.1 104.8 135.25 102.1 135.3 101.25 134.9 100.5 Q130.95 97 125.5 96.55 M144.7 124.9 L145.95 124.9 146 124.9 Q149.25 124.9 151.5 124.05 153.75 123.15 153.75 121.95 L153.75 121.8 Q153.6 118.85 151.5 116.7 149.25 114.45 146 114.45 L145.95 114.45 Q142.8 114.45 140.55 116.7 138.45 118.85 138.2 121.8 L138.2 121.95 Q138.2 123 140 123.85 L139.7 129.3 Q138.6 129.4 137.85 130.2 137.1 130.95 137.1 132.05 137 133.1 137.6 134 138.25 134.8 139.35 135.1 L139.1 138.6 Q139.1 139.75 139.9 140.55 140.75 141.4 141.9 141.4 143.05 141.4 143.85 140.55 144.7 139.75 144.7 138.6 L144.7 136.35 156.65 139.15 158.2 139.1 159.55 138.25 159.55 138.2 Q160.1 137.55 160.2 136.7 L161.05 130.9 160.9 129.4 160.8 129.15 Q160.45 128.35 159.55 127.9 158.75 127.45 157.9 127.55 L144.7 128.85 144.7 124.9 M127.7 107.15 Q125.55 107.15 124 108.65 122.55 110.15 122.55 112.3 122.55 114.45 124 115.9 125.55 117.45 127.7 117.45 129.8 117.45 131.25 115.9 132.8 114.45 132.8 112.3 132.8 110.15 131.25 108.65 129.8 107.15 127.7 107.15 M128.1 130.75 L125.1 124 125 123.85 120.1 118.25 119.65 118 119.1 118.1 117.95 118.9 117.65 119.3 117.7 119.85 121 126.8 121.1 127 125.8 132.3 126.3 132.55 126.85 132.45 127.85 131.7 128.15 131.3 128.1 130.75 M169.3 311 L169.3 339.15 162.4 359.25 147.45 359.25 153.5 339 153.5 322.4 113 322.4 113 351 125 351 125 371 91.75 371 91.75 340.5 80 340.5 80 322.25 70.25 322.25 70.25 339 76.65 359.4 61.65 359.4 57 344 57 420 38 420 38 432 18 432 18 311 27.7 311 34.15 304.55 40.6 311 104.2 311 108.65 306.55 113.1 311 145.2 311 149.65 306.55 154.1 311 169.3 311 M134.45 261.8 L149.7 265.7 136.6 269.95 127.2 287.45 131.45 267.7 127.35 263.1 116.45 270.2 123.2 258.45 108.95 240.95 122.95 249.7 137.2 244.2 127.2 254.7 134.45 261.8 M263.65 209 L294.25 209 291.85 212.8 289.05 217.2 289.85 223.6 285.5 222.75 278.95 233 266.1 212.8 263.65 209 M252 255.35 L252 241.75 256.35 252.4 267.1 262.25 252 255.35 M302.75 282.5 L298.85 275 307.1 281.25 304.35 289.85 308.1 297 300.1 293.6 291.6 295.5 299.55 289.5 302.75 282.5 M289 445 L289 469 288.8 471 254 471 254 507.4 162 507.4 162.4 471 147 471 147 445 183.4 445 199.75 452.5 215.6 445 289 445 M266 394.95 L275.75 406.7 262.6 400.55 258.2 409.7 259.35 425.35 251.15 414.3 231.55 411 251.65 408.7 254.7 403.4 244.5 395.3 257.8 397.95 269.85 378.9 266 394.95"/>
    <path stroke="none" fill="#333333" d="M330.95 132 L324.35 126.95 312.85 134 298.6 126.25 285.75 132.25 272.35 127.45 256.95 132 256.95 131.9 251.85 126.75 243.85 126.75 239.75 119.6 230.8 121.6 Q232.9 113.05 227.55 107.7 224.4 104.55 219.9 104.75 L216.05 105 215.8 104.95 215.6 104.95 Q213.95 104.95 212.7 108.2 211.5 111.3 211.5 115.7 L211.5 115.75 211.5 115.95 208.15 112.85 203.25 115.95 198.75 87.05 194.35 91.75 182.95 83.15 182.95 83 171.65 84.6 173.5 88.95 151 87.35 149.85 94.25 134.5 87 132.1 90.75 108.95 83 108.95 83.15 97.55 91.75 93.15 87.05 88.65 115.95 83.75 112.85 80.4 115.95 80.4 115.75 80.4 115.7 Q80.4 111.3 79.2 108.2 77.95 104.95 76.3 104.95 L76.1 104.95 75.85 105 72 104.75 Q67.5 104.55 64.35 107.7 59 113.05 61.1 121.6 L52.15 119.6 48.05 126.75 40.05 126.75 34.95 131.9 34.95 75 108.95 75 108.95 1 182.95 1 182.95 75 330.95 75 330.95 132 M166.4 97.35 L167.25 97.55 167.8 98.25 169.25 102.05 169.3 102.9 168.8 103.6 167.95 103.9 Q163.7 103.85 159.8 106.2 L159.05 106.4 158.3 106.2 157.8 105.6 156.65 102.9 156.6 102.05 157 101.3 Q160.95 97.8 166.4 97.35 M125.5 96.55 Q130.95 97 134.9 100.5 L135.3 101.25 135.25 102.1 134.1 104.8 133.6 105.4 132.85 105.6 132.1 105.4 Q128.2 103.05 123.95 103.1 L123.1 102.8 Q122.7 102.55 122.6 102.1 122.5 101.65 122.65 101.25 L124.1 97.45 124.65 96.75 Q125.05 96.5 125.5 96.55 M160.9 129.4 L161.05 130.9 160.2 136.7 Q160.1 137.55 159.55 138.2 L159.55 138.25 155.35 133.25 160.9 129.4"/>
    <path stroke="none" fill="url(#gradient0)" d="M211.5 115.95 L211.5 115.75 211.5 115.7 Q211.5 111.3 212.7 108.2 213.95 104.95 215.6 104.95 L215.8 104.95 216.05 105 Q220 105.4 222.9 108.2 226 111.3 226 115.7 L226 115.75 Q226 120.25 222.9 123.4 219.9 126.3 215.8 126.5 L215.6 126.5 Q213.95 126.5 212.7 123.4 211.55 120.3 211.5 115.95"/>
    <path stroke="none" fill="url(#gradient1)" d="M75.85 105 L76.1 104.95 76.3 104.95 Q77.95 104.95 79.2 108.2 80.4 111.3 80.4 115.7 L80.4 115.75 80.4 115.95 Q80.35 120.3 79.2 123.4 77.95 126.5 76.3 126.5 L76.1 126.5 Q72 126.3 69 123.4 65.9 120.25 65.9 115.75 L65.9 115.7 Q65.9 111.3 69 108.2 71.9 105.4 75.85 105"/>
    <path stroke="none" fill="#138C74" d="M173.15 119.5 L174.4 120.1 174.75 120.55 174.8 121.05 172.4 128.1 172.3 128.25 167.95 134.25 167.5 134.55 167 134.5 165.85 134 165.5 133.6 Q165.35 133.35 165.5 133 L167.7 126.3 167.85 126.1 172.2 119.8 172.65 119.45 173.15 119.5 M140 123.85 Q138.2 123 138.2 121.95 L138.2 121.8 Q138.45 118.85 140.55 116.7 142.8 114.45 145.95 114.45 L146 114.45 Q149.25 114.45 151.5 116.7 153.6 118.85 153.75 121.8 L153.75 121.95 Q153.75 123.15 151.5 124.05 149.25 124.9 146 124.9 L145.95 124.9 144.7 124.9 Q142.35 124.75 140.55 124.05 L140 123.85 M128.1 130.75 L128.15 131.3 127.85 131.7 126.85 132.45 126.3 132.55 125.8 132.3 121.1 127 121 126.8 117.7 119.85 117.65 119.3 117.95 118.9 119.1 118.1 119.65 118 120.1 118.25 125 123.85 125.1 124 128.1 130.75"/>
    <path stroke="none" fill="#34495E" d="M287.4 308 L285 297.85 288.6 293.35 283.4 291.05 278.95 272.25 270.45 308 252.45 308 249.1 304.85 246.15 308 205.95 308 205.95 209 241.95 209 241.95 172.05 315.95 172.05 315.95 209 424.95 209 424.95 308 303.6 308 299.35 303.85 296.25 308 287.4 308 M337.5 126 L337.5 105.2 356.15 48.75 412.8 48.75 412.8 12 433.45 12 433.45 50.15 449.8 101 449.8 49 488.8 49 488.8 126 337.5 126 M488.75 103.7 L488.75 99.35 449.75 103.7 488.75 103.7 M411.7 69.4 Q411 69.4 410.55 69.85 410.05 70.35 410.05 71.05 410.05 71.75 410.55 72.2 411 72.7 411.7 72.7 412.4 72.7 412.9 72.2 L413.35 71.05 Q413.35 70.35 412.9 69.85 412.4 69.4 411.7 69.4 M422.25 67.3 Q422.6 66.95 422.6 66.45 422.6 65.95 422.25 65.55 421.85 65.2 421.35 65.2 420.85 65.2 420.5 65.55 420.1 65.95 420.1 66.45 420.1 66.95 420.5 67.3 420.85 67.7 421.35 67.7 421.85 67.7 422.25 67.3 M416.1 73.8 Q414.95 74.95 414.95 76.6 414.95 78.25 416.1 79.4 417.25 80.55 418.9 80.55 420.55 80.55 421.7 79.4 422.85 78.25 422.85 76.6 422.85 74.95 421.7 73.8 420.55 72.65 418.9 72.65 417.25 72.65 416.1 73.8 M410.15 77.6 Q409.45 76.9 408.45 76.9 407.45 76.9 406.75 77.6 406.05 78.3 406.05 79.3 406.05 80.3 406.75 81 407.45 81.7 408.45 81.7 409.45 81.7 410.15 81 410.85 80.3 410.85 79.3 410.85 78.3 410.15 77.6 M414.2 84.8 Q413.75 84.4 413.15 84.4 412.55 84.4 412.15 84.8 411.7 85.25 411.7 85.85 411.7 86.45 412.15 86.85 412.55 87.3 413.15 87.3 413.75 87.3 414.2 86.85 414.6 86.45 414.6 85.85 414.6 85.25 414.2 84.8 M428.9 85.35 Q429.35 84.9 429.35 84.25 429.35 83.6 428.9 83.15 428.45 82.7 427.8 82.7 427.15 82.7 426.7 83.15 426.25 83.6 426.25 84.25 426.25 84.9 426.7 85.35 427.15 85.8 427.8 85.8 428.45 85.8 428.9 85.35 M363 89.85 L357.5 104.1 368 94.1 375.1 101.35 379 116.6 383.25 103.5 400.75 94.1 381 98.35 376.4 94.25 383.5 83.35 371.75 90.1 354.25 75.85 363 89.85 M18 304 L18 227 57 227 57 279 73.35 228.15 73.35 190 94 190 94 226.75 150.65 226.75 169.3 283.2 169.3 304 18 304 M82.6 294.85 Q83.05 295.3 83.65 295.3 84.25 295.3 84.65 294.85 85.1 294.45 85.1 293.85 85.1 293.25 84.65 292.8 84.25 292.4 83.65 292.4 83.05 292.4 82.6 292.8 82.2 293.25 82.2 293.85 82.2 294.45 82.6 294.85 M90.05 289 Q90.75 288.3 90.75 287.3 90.75 286.3 90.05 285.6 89.35 284.9 88.35 284.9 87.35 284.9 86.65 285.6 85.95 286.3 85.95 287.3 85.95 288.3 86.65 289 87.35 289.7 88.35 289.7 89.35 289.7 90.05 289 M83.45 279.05 Q83.45 279.75 83.9 280.2 84.4 280.7 85.1 280.7 85.8 280.7 86.25 280.2 86.75 279.75 86.75 279.05 86.75 278.35 86.25 277.85 85.8 277.4 85.1 277.4 84.4 277.4 83.9 277.85 83.45 278.35 83.45 279.05 M134.45 261.8 L127.2 254.7 137.2 244.2 122.95 249.7 108.95 240.95 123.2 258.45 116.45 270.2 127.35 263.1 131.45 267.7 127.2 287.45 136.6 269.95 149.7 265.7 134.45 261.8 M18.05 281.7 L57.05 281.7 18.05 277.35 18.05 281.7 M69 293.8 L70.1 293.35 Q70.55 292.9 70.55 292.25 70.55 291.6 70.1 291.15 69.65 290.7 69 290.7 68.35 290.7 67.9 291.15 67.45 291.6 67.45 292.25 67.45 292.9 67.9 293.35 68.35 293.8 69 293.8 M75.1 281.8 Q73.95 282.95 73.95 284.6 73.95 286.25 75.1 287.4 76.25 288.55 77.9 288.55 79.55 288.55 80.7 287.4 81.85 286.25 81.85 284.6 81.85 282.95 80.7 281.8 79.55 280.65 77.9 280.65 76.25 280.65 75.1 281.8 M76.3 275.3 Q76.7 274.95 76.7 274.45 76.7 273.95 76.3 273.55 75.95 273.2 75.45 273.2 74.95 273.2 74.55 273.55 74.2 273.95 74.2 274.45 74.2 274.95 74.55 275.3 74.95 275.7 75.45 275.7 75.95 275.7 76.3 275.3 M253.9 209 L244.9 209 262.5 238.6 266.6 238.6 265.15 243.1 278.95 266.25 297.7 234.75 296.5 230.75 300.1 230.75 313 209 304 209 294.25 209 263.65 209 253.9 209 M299.55 241.2 Q299.2 240.85 298.7 240.85 298.2 240.85 297.8 241.2 297.45 241.6 297.45 242.1 297.45 242.6 297.8 242.95 298.2 243.35 298.7 243.35 299.2 243.35 299.55 242.95 299.95 242.6 299.95 242.1 299.95 241.6 299.55 241.2 M309.25 255.35 L306.45 249.1 306.35 248.95 301.45 243.35 Q301.3 243.15 301 243.1 L300.45 243.2 299.3 244 299 244.4 299.05 244.95 300.65 248.35 Q299.3 248.5 298.35 249.45 297.2 250.6 297.2 252.25 297.2 253.9 298.35 255.05 299.5 256.2 301.15 256.2 302.8 256.2 303.95 255.05 L304.5 254.4 307.15 257.4 Q307.35 257.65 307.65 257.65 L308.2 257.55 309.2 256.8 309.5 256.4 309.55 256.15 309.9 256.65 Q310.6 257.35 311.6 257.35 312.6 257.35 313.3 256.65 314 255.95 314 254.95 314 253.95 313.3 253.25 312.6 252.55 311.6 252.55 310.6 252.55 309.9 253.25 309.2 253.95 309.2 254.95 L309.25 255.35 M307.15 245.5 Q306.7 246 306.7 246.7 306.7 247.4 307.15 247.85 307.65 248.35 308.35 248.35 309.05 248.35 309.5 247.85 310 247.4 310 246.7 310 246 309.5 245.5 309.05 245.05 308.35 245.05 307.65 245.05 307.15 245.5 M257.85 290 L256.9 289.2 255.6 289.4 Q255 289.75 254.9 290.4 254.65 291.05 255 291.65 255.35 292.25 256.05 292.45 L257.25 292.25 Q257.9 291.9 258.05 291.25 258.2 290.6 257.85 290 M250.8 285.75 Q249.95 286.25 249.7 287.2 249.45 288.15 249.95 289 250.45 289.9 251.4 290.15 252.35 290.4 253.2 289.9 254.1 289.4 254.35 288.45 254.6 287.5 254.1 286.6 253.6 285.75 252.65 285.5 251.7 285.25 250.8 285.75 M251.05 281.05 L251.75 280.15 Q251.85 279.55 251.55 279.05 251.25 278.55 250.7 278.4 L249.6 278.55 Q249.05 278.85 248.9 279.45 248.7 280 249 280.5 L249.95 281.2 251.05 281.05 M260.95 281.1 Q259.35 280.7 257.9 281.5 256.5 282.35 256.1 283.9 255.65 285.5 256.5 286.9 257.3 288.35 258.9 288.75 260.45 289.2 261.85 288.35 263.3 287.55 263.75 285.95 264.15 284.4 263.35 282.95 262.5 281.55 260.95 281.1 M262.25 278.2 Q262.15 278.8 262.45 279.4 262.8 279.95 263.35 280.1 L264.55 279.9 Q265.15 279.6 265.25 279 265.45 278.4 265.1 277.85 264.8 277.25 264.15 277.1 L263 277.25 Q262.45 277.6 262.25 278.2 M261.4 291.5 L261.25 291.65 257.35 297.5 Q257.15 297.75 257.25 298.05 L257.45 298.6 258.45 299.35 258.9 299.55 259.45 299.35 265.15 294.7 265.3 294.55 269.45 288.35 269.55 287.9 269.3 287.4 268.25 286.5 267.8 286.3 267.25 286.5 261.4 291.5 M271.5 281.4 Q271.05 281.65 270.95 282.15 270.75 282.65 271 283.1 L271.8 283.7 272.75 283.6 273.3 282.85 Q273.4 282.3 273.15 281.85 272.9 281.4 272.45 281.3 L271.5 281.4 M252 255.35 L267.1 262.25 256.35 252.4 252 241.75 252 255.35 M293.35 258.8 Q292.9 258.35 292.25 258.35 291.6 258.35 291.15 258.8 290.7 259.25 290.7 259.9 290.7 260.55 291.15 261 L292.25 261.45 Q292.9 261.45 293.35 261 L293.8 259.9 293.35 258.8 M307.9 262.5 Q308.35 262.1 308.35 261.5 308.35 260.9 307.9 260.45 307.5 260.05 306.9 260.05 306.3 260.05 305.85 260.45 305.45 260.9 305.45 261.5 305.45 262.1 305.85 262.5 306.3 262.95 306.9 262.95 307.5 262.95 307.9 262.5 M302.75 282.5 L299.55 289.5 291.6 295.5 300.1 293.6 308.1 297 304.35 289.85 307.1 281.25 298.85 275 302.75 282.5"/>
    <path stroke="none" fill="#2C3D4F" d="M488.8 126 L488.8 133 479.1 133 472.65 126.55 466.2 133 402.6 133 398.15 128.55 393.7 133 361.6 133 357.15 128.55 352.7 133 337.5 133 337.5 126 488.8 126 M488.75 103.7 L449.75 103.7 488.75 99.35 488.75 103.7 M18 304 L169.3 304 169.3 311 154.1 311 149.65 306.55 145.2 311 113.1 311 108.65 306.55 104.2 311 40.6 311 34.15 304.55 27.7 311 18 311 18 304 M18.05 281.7 L18.05 277.35 57.05 281.7 18.05 281.7"/>
    <path stroke="none" fill="#CDC09F" d="M444 412 L445.8 401.15 456.85 392.95 441.2 394.1 432.05 389.7 438.2 376.55 426.45 386.3 410.4 382.45 429.45 394.5 426.8 407.8 434.9 397.6 440.2 400.65 441.5 412 431.25 412 431.25 416 441.95 416 442.5 420.75 443.3 416 462.9 416 Q462.85 417.15 463.45 418.15 464.25 419.6 465.85 420 467.4 420.45 468.8 419.6 470.25 418.8 470.7 417.2 471.1 415.65 470.3 414.2 469.5 412.85 468 412.4 L468 412 458.4 412 458.7 411.4 Q458.8 410.8 458.5 410.3 458.2 409.8 457.65 409.65 L456.55 409.8 Q456 410.1 455.85 410.7 455.65 411.25 455.95 411.75 L456.15 412 444 412 M361 434.05 L361 361 431.25 360.75 431 326 469 326 469 361 503 360.75 503 434.05 361 434.05 M202.7 394.4 Q203.15 394.85 203.75 394.8 204.35 394.85 204.8 394.4 L205.25 393.45 Q205.25 392.85 204.75 392.35 204.35 391.95 203.7 391.95 203.15 391.95 202.65 392.4 202.3 392.85 202.3 393.45 202.3 394 202.7 394.4 M208.65 385.6 Q208.7 384.6 207.95 383.85 207.3 383.2 206.3 383.2 205.3 383.15 204.55 383.9 203.9 384.55 203.9 385.6 203.85 386.6 204.6 387.3 205.25 387.95 206.3 388 207.25 388 208 387.3 208.65 386.6 208.65 385.6 M203.95 379.15 Q203.25 379.1 202.75 379.6 202.35 380.1 202.35 380.8 202.35 381.45 202.75 381.95 203.2 382.45 204 382.4 204.65 382.4 205.1 381.9 205.6 381.5 205.6 380.75 205.6 380.1 205.1 379.6 204.65 379.15 203.95 379.15 M191.5 386.2 Q190.8 386.15 190.4 386.65 189.95 387.05 189.95 387.65 189.9 388.35 190.4 388.8 190.8 389.2 191.45 389.25 192.15 389.25 192.6 388.8 193 388.35 193.05 387.7 193 387 192.6 386.65 192.1 386.15 191.5 386.2 M187.5 380.2 Q187.5 379.7 187.1 379.25 186.7 378.9 186.25 378.9 185.75 378.9 185.35 379.25 185 379.65 185 380.2 185 380.7 185.35 381.05 185.7 381.4 186.2 381.4 186.7 381.45 187.05 381.05 L187.5 380.2 M198 380.25 Q196.35 380.15 195.15 381.35 194.05 382.5 194 384.15 194.05 385.75 195.2 386.95 196.4 388.1 198.05 388.1 199.65 388.1 200.8 386.95 202 385.8 201.95 384.15 201.95 382.5 200.75 381.35 199.7 380.2 198 380.25 M147 438.05 L147 364.75 181 365 181 330 219 330 218.75 364.75 289 365 289 438.05 147 438.05 M266 394.95 L269.85 378.9 257.8 397.95 244.5 395.3 254.7 403.4 251.65 408.7 231.55 411 251.15 414.3 259.35 425.35 258.2 409.7 262.6 400.55 275.75 406.7 266 394.95 M218.75 420 L218.75 416 182 416 182 420 218.75 420 M170.35 425.95 Q169.95 425.55 169.35 425.55 168.75 425.55 168.3 425.95 167.9 426.4 167.9 427 167.9 427.6 168.3 428 168.75 428.45 169.35 428.45 169.95 428.45 170.35 428 170.8 427.6 170.8 427 170.8 426.4 170.35 425.95 M176.45 420.45 Q176.45 419.45 175.75 418.75 175.05 418.05 174.05 418.05 173.05 418.05 172.35 418.75 171.65 419.45 171.65 420.45 171.65 421.45 172.35 422.15 173.05 422.85 174.05 422.85 175.05 422.85 175.75 422.15 176.45 421.45 176.45 420.45 M166.4 420.55 Q167.55 419.4 167.55 417.75 167.55 416.1 166.4 414.95 165.25 413.8 163.6 413.8 161.95 413.8 160.8 414.95 159.65 416.1 159.65 417.75 159.65 419.4 160.8 420.55 161.95 421.7 163.6 421.7 165.25 421.7 166.4 420.55 M171.95 411 Q171.5 410.55 170.8 410.55 170.1 410.55 169.6 411 169.15 411.5 169.15 412.2 169.15 412.9 169.6 413.35 170.1 413.85 170.8 413.85 171.5 413.85 171.95 413.35 172.45 412.9 172.45 412.2 172.45 411.5 171.95 411 M162.4 407.6 Q162.4 407.1 162 406.7 161.65 406.35 161.15 406.35 160.65 406.35 160.25 406.7 159.9 407.1 159.9 407.6 159.9 408.1 160.25 408.45 160.65 408.85 161.15 408.85 161.65 408.85 162 408.45 162.4 408.1 162.4 407.6 M154.7 423.85 Q154.05 423.85 153.6 424.3 153.15 424.75 153.15 425.4 153.15 426.05 153.6 426.5 154.05 426.95 154.7 426.95 155.35 426.95 155.8 426.5 156.25 426.05 156.25 425.4 156.25 424.75 155.8 424.3 155.35 423.85 154.7 423.85 M472.2 410.25 Q472.4 409.65 472.05 409.1 471.75 408.5 471.1 408.35 L469.95 408.5 Q469.4 408.85 469.2 409.45 469.1 410.05 469.4 410.65 469.75 411.2 470.3 411.35 L471.5 411.15 Q472.1 410.85 472.2 410.25 M477.95 414.35 Q478.2 414.8 478.75 414.95 L479.7 414.85 480.25 414.1 Q480.35 413.55 480.1 413.1 479.85 412.65 479.4 412.55 L478.45 412.65 Q478 412.9 477.9 413.4 477.7 413.9 477.95 414.35 M463.85 420.45 L462.55 420.65 Q461.95 421 461.85 421.65 461.6 422.3 461.95 422.9 462.3 423.5 463 423.7 L464.2 423.5 Q464.85 423.15 465 422.5 465.15 421.85 464.8 421.25 L463.85 420.45 M456.65 418.45 Q456.4 419.4 456.9 420.25 457.4 421.15 458.35 421.4 L460.15 421.15 Q461.05 420.65 461.3 419.7 461.55 418.75 461.05 417.85 460.55 417 459.6 416.75 458.65 416.5 457.75 417 456.9 417.5 456.65 418.45"/>
    <path stroke="none" fill="#BDB192" d="M503 434.05 L503 441 466.6 441 450.25 448.5 434.4 441 361 441 361 434.05 503 434.05 M289 438.05 L289 445 215.6 445 199.75 452.5 183.4 445 147 445 147 438.05 289 438.05"/>
    <path stroke="none" fill="#E2D4AF" d="M444 412 L456.15 412 Q456.45 412.3 456.9 412.45 L458 412.3 458.4 412 468 412 468 412.4 467.9 412.35 Q466.3 411.95 464.85 412.75 463.45 413.6 463.05 415.15 L462.9 416 443.3 416 444 412 M441.95 416 L431.25 416 431.25 412 441.5 412 441.95 416 M218.75 420 L182 420 182 416 218.75 416 218.75 420"/>
    <path stroke="none" fill="#876149" d="M503 465 L503 467.4 487.6 467.4 487.6 467.35 452 467.4 452 503.75 396 503.75 396 467.4 361.25 467.4 361 465 503 465"/>
    <path stroke="none" fill="#283848" d="M304 209 L313 209 300.1 230.75 296.5 230.75 297.7 234.75 278.95 266.25 265.15 243.1 266.6 238.6 262.5 238.6 244.9 209 253.9 209 257.8 217.05 278.95 260.25 287 243.85 290.75 242.75 288.75 240.3 300.1 217.05 304 209 M300.65 248.35 L299.05 244.95 299 244.4 299.3 244 300.45 243.2 301 243.1 Q301.3 243.15 301.45 243.35 L306.35 248.95 306.45 249.1 309.25 255.35 309.55 256.15 309.5 256.4 309.2 256.8 308.2 257.55 307.65 257.65 Q307.35 257.65 307.15 257.4 L304.5 254.4 Q305.1 253.45 305.1 252.25 305.1 250.6 303.95 249.45 302.8 248.3 301.15 248.3 L300.65 248.35 M261.4 291.5 L267.25 286.5 267.8 286.3 268.25 286.5 269.3 287.4 269.55 287.9 269.45 288.35 265.3 294.55 265.15 294.7 259.45 299.35 258.9 299.55 258.45 299.35 257.45 298.6 257.25 298.05 Q257.15 297.75 257.35 297.5 L261.25 291.65 261.4 291.5 M270.45 308 L278.95 272.25 283.4 291.05 288.6 293.35 285 297.85 287.4 308 270.45 308"/>
    <path stroke="none" fill="#FAFAFA" d="M300.1 217.05 L288.75 240.3 290.75 242.75 287 243.85 278.95 260.25 257.8 217.05 266.1 212.8 278.95 233 285.5 222.75 289.85 223.6 289.05 217.2 291.85 212.8 300.1 217.05"/>
    <path stroke="none" fill="#D9D9D9" d="M300.1 217.05 L291.85 212.8 294.25 209 304 209 300.1 217.05 M253.9 209 L263.65 209 266.1 212.8 257.8 217.05 253.9 209"/>
  </g>
</svg>