<svg xmlns="http://www.w3.org/2000/svg" xmlns:xlink="http://www.w3.org/1999/xlink">
  <defs>
    <linearGradient gradientUnits="userSpaceOnUse" x1="-819.2" x2="819.2" spreadMethod="pad" gradientTransform="matrix(0.00885009765625 0 0 0.013153076171875 218.75 115.7)" id="gradient0">
      <stop offset="0" stop-color="#1ABC9C"/>
      <stop offset="1" stop-color="#138C74"/>
    </linearGradient>
    <linearGradient gradientUnits="userSpaceOnUse" x1="-819.2" x2="819.2" spreadMethod="pad" gradientTransform="matrix(-0.00885009765625 0 0 0.013153076171875 73.15 115.7)" id="gradient1">
      <stop offset="0" stop-color="#1ABC9C"/>
      <stop offset="1" stop-color="#138C74"/>
    </linearGradient>
  </defs>
  <g>
    <path stroke="none" fill="#191919" d="M433.45 12 L412.8 12 412.8 48.75 356.15 48.75 337.5 105.2 337.5 161.15 344.4 181.25 359.35 181.25 353.3 161 353.3 144.4 393.8 144.4 393.8 173 381.8 173 381.8 193 415.05 193 415.05 162.5 426.8 162.5 426.8 144.25 436.55 144.25 436.55 161 430.15 181.4 445.15 181.4 449.8 166 449.8 242 468.8 242 468.8 254 488.8 254 488.8 49 449.8 49 449.8 101 433.45 50.15 433.45 12 M330.95 132 L330.95 75 182.95 75 182.95 1 108.95 1 108.95 75 34.95 75 34.95 131.9 34.95 149 108.95 149 108.95 223 182.95 223 182.95 149 330.95 149 330.95 132 M424.95 299.5 L424.95 209 402.65 209 315.95 209 315.95 172.05 264.25 172.05 241.95 172.05 241.95 209 205.95 209 205.95 319 241.95 319 241.95 355.95 315.95 355.95 315.95 319 424.95 319 424.95 311.75 424.95 310.55 424.95 299.5 M503 365.6 L503 360.75 469 360.75 469 326 431 326 431.25 360.75 429 360.8 361 360.75 361 365.6 361 373 361 430.5 361 434.5 361 465 361.2 467 396 467 396 503.4 488 503.4 487.6 467 503 467 503 434.5 503 430.5 503 373 503 365.6 M160.65 257 L150.65 226.75 94 226.75 94 190 73.35 190 73.35 228.15 64.1 257 61.6 264.75 57 279 57 264.75 57 257 57 227 18 227 18 257 18 264.75 18 329.95 17.9 329.95 18 330 18 432 38 432 38 420 57 420 57 344 61.65 359.4 76.65 359.4 70.25 339 70.25 322.25 80 322.25 80 340.5 91.75 340.5 91.75 371 125 371 125 351 113 351 113 322.4 153.5 322.4 153.5 339 147.45 359.25 162.4 359.25 169.3 339.15 169.3 283.2 163.2 264.75 160.65 257 M289 369.6 L289 364.75 221 364.8 218.75 364.75 219 330 181 330 181 364.75 147 364.75 147 369.6 147 377 147 434.5 147 438.5 147 471 162.4 471 162 507.4 254 507.4 254 471 288.8 471 289 469 289 438.5 289 434.5 289 377 289 369.6 M0 512 L0 0 512 0 512 512 0 512"/>
    <path stroke="none" fill="#694C39" d="M372.6 267.5 L369.85 264.1 372.05 262.2 372.55 261.75 Q392.95 243 402.65 209 L424.95 209 424.95 299.5 395.7 298.05 372.6 267.5 M264.25 172.05 L264.25 209 Q268.15 222.7 273.8 233.9 L273.75 233.9 273.65 233.95 269.8 236.75 269.65 237.1 269.65 237.5 270.05 238.25 270.25 238.5 270.6 238.5 275.2 237.1 275.3 237.05 275.4 237 Q277.7 241.3 280.35 245.2 L280.3 245.2 280.15 245.3 276.75 248.65 276.55 249.05 276.65 249.4 277.1 250.15 277.4 250.35 277.75 250.3 282.1 248.15 282.2 248.1 282.3 248.05 287.75 254.95 287.4 255.4 287.3 255.6 285.45 260.1 Q285.3 260.35 285.4 260.55 L285.6 260.85 286.3 261.35 286.65 261.45 286.95 261.2 290 257.45 294.35 261.75 294.85 262.2 297.05 264.1 294.3 267.5 271.2 298.05 263.5 308.9 262.45 310.35 259.65 309.2 256 307.75 254.35 303.35 249.6 305.2 241.95 302.1 241.95 310.55 241.95 311.75 241.95 319 205.95 319 205.95 209 241.95 209 241.95 172.05 264.25 172.05 M297.25 269.4 Q305.95 274.55 315.95 276 L350.95 276 Q360.95 274.55 369.65 269.4 L390.55 297.9 350.95 296.3 315.95 296.3 276.35 297.9 297.25 269.4 M64.1 257 L73.35 228.15 73.35 190 94 190 94 226.75 150.65 226.75 160.65 257 64.1 257 M18 257 L18 227 57 227 57 257 18 257 M25.75 236.9 L29.05 243.85 29.15 244.05 33.85 249.35 Q34.05 249.6 34.35 249.6 L34.9 249.5 35.9 248.75 36.2 248.35 36.15 247.8 33.15 241.05 33.05 240.9 28.15 235.3 Q28 235.1 27.7 235.05 L27.15 235.15 26 235.95 25.7 236.35 25.75 236.9"/>
    <path stroke="none" fill="#C3DAE2" d="M503 434.5 L503 467 487.6 467 488 503.4 396 503.4 396 467 361.2 467 361 465 361 434.5 429.75 434.5 450.25 424 467.75 434.5 503 434.5 M289 438.5 L289 469 288.8 471 254 471 254 507.4 162 507.4 162.4 471 147 471 147 438.5 182.25 438.5 199.75 428 220.25 438.5 289 438.5 M199.2 443.5 L217.25 454 250.75 454 217.25 448.5 199.2 438 183.75 448.5 150.25 454 183.75 454 199.2 443.5 M466.25 444.5 L450.8 434 432.75 444.5 399.25 450 432.75 450 450.8 439.5 466.25 450 499.75 450 466.25 444.5"/>
    <path stroke="none" fill="#FFFFFF" d="M163.9 132.7 L156.35 132.3 156.4 132.1 158.9 127.35 159.9 125.4 Q160.15 124.95 160.55 124.8 160.95 124.55 161.4 124.65 161.9 124.7 162.2 125.05 L162.6 125.8 163.15 128.7 163.9 132.7 M140.65 131.5 L133.65 131.15 134.45 126.8 134.65 125.6 Q134.7 125.1 135.05 124.85 135.35 124.5 135.85 124.45 L136.7 124.6 137.35 125.2 137.7 125.85 140.65 131.5"/>
    <path stroke="none" fill="#1ABC9C" d="M488.75 103.7 L488.75 99.35 449.75 103.7 488.75 103.7 M433.45 12 L433.45 50.15 449.8 101 449.8 49 488.8 49 488.8 254 468.8 254 468.8 242 449.8 242 449.8 166 445.15 181.4 430.15 181.4 436.55 161 436.55 144.25 426.8 144.25 426.8 162.5 415.05 162.5 415.05 193 381.8 193 381.8 173 393.8 173 393.8 144.4 353.3 144.4 353.3 161 359.35 181.25 344.4 181.25 337.5 161.15 337.5 105.2 356.15 48.75 412.8 48.75 412.8 12 433.45 12 M410.1 79.5 L417.9 69 405.7 75 389.15 59.75 397 74.2 390.65 88.15 401.75 78.75 408.4 86.45 411.3 101.9 416.4 89.1 434.45 80.85 414.45 83.8 410.1 79.5 M359.95 98.85 Q360.75 98.85 361.3 98.3 361.85 97.7 361.85 96.95 361.85 96.15 361.3 95.6 360.75 95.05 359.95 95.05 359.15 95.05 358.6 95.6 358.05 96.15 358.05 96.95 358.05 97.7 358.6 98.3 359.15 98.85 359.95 98.85 M397.6 99.7 L385.55 115.95 379.45 115.95 377.5 103.05 373.15 115.9 350.65 116.8 366.45 121.5 371.8 135.85 373 121.35 383.15 122.15 396.15 130.95 390.65 118.3 397.6 99.7 M345.85 120.55 Q345.3 120 344.5 120 343.7 120 343.15 120.55 342.6 121.1 342.6 121.9 342.6 122.65 343.15 123.25 343.7 123.8 344.5 123.8 345.3 123.8 345.85 123.25 346.4 122.65 346.4 121.9 346.4 121.1 345.85 120.55 M343 136.3 Q343.8 136.3 344.35 135.75 344.9 135.15 344.9 134.4 344.9 133.6 344.35 133.05 343.8 132.5 343 132.5 342.2 132.5 341.65 133.05 341.1 133.6 341.1 134.4 341.1 135.15 341.65 135.75 342.2 136.3 343 136.3 M216.05 105 L219.9 104.75 Q224.4 104.55 227.55 107.7 232.9 113.05 230.8 121.6 L239.75 119.6 243.85 126.75 251.85 126.75 256.95 131.9 256.95 132 272.35 127.45 285.75 132.25 298.6 126.25 312.85 134 324.35 126.95 330.95 132 330.95 149 182.95 149 182.95 223 108.95 223 108.95 149 34.95 149 34.95 131.9 40.05 126.75 48.05 126.75 52.15 119.6 61.1 121.6 Q59 113.05 64.35 107.7 67.5 104.55 72 104.75 L75.85 105 Q71.9 105.4 69 108.2 65.9 111.3 65.9 115.7 L65.9 115.75 Q65.9 120.25 69 123.4 72 126.3 76.1 126.5 L76.3 126.5 Q77.95 126.5 79.2 123.4 80.35 120.3 80.4 115.95 L83.75 112.85 88.65 115.95 93.15 87.05 97.55 91.75 108.95 83.15 108.95 83 132.1 90.75 134.5 87 149.85 94.25 151 87.35 173.5 88.95 171.65 84.6 182.95 83 182.95 83.15 194.35 91.75 198.75 87.05 203.25 115.95 208.15 112.85 211.5 115.95 Q211.55 120.3 212.7 123.4 213.95 126.5 215.6 126.5 L215.8 126.5 Q219.9 126.3 222.9 123.4 226 120.25 226 115.75 L226 115.7 Q226 111.3 222.9 108.2 220 105.4 216.05 105 M347.15 129.55 Q346.6 130.1 346.6 130.9 346.6 131.65 347.15 132.25 347.7 132.8 348.5 132.8 349.3 132.8 349.85 132.25 350.4 131.65 350.4 130.9 350.4 130.1 349.85 129.55 349.3 129 348.5 129 347.7 129 347.15 129.55 M472.9 119.15 Q471.55 119.15 470.6 120.1 469.65 121.05 469.65 122.4 469.65 123.75 470.6 124.7 471.55 125.65 472.9 125.65 474.25 125.65 475.2 124.7 476.15 123.75 476.15 122.4 476.15 121.05 475.2 120.1 474.25 119.15 472.9 119.15 M481.35 113.4 Q481.35 112.6 480.8 112.05 480.25 111.5 479.45 111.5 478.65 111.5 478.1 112.05 477.55 112.6 477.55 113.4 477.55 114.15 478.1 114.75 478.65 115.3 479.45 115.3 480.25 115.3 480.8 114.75 481.35 114.15 481.35 113.4 M481.7 125.65 Q480.9 125.65 480.35 126.2 479.8 126.75 479.8 127.55 479.8 128.3 480.35 128.9 480.9 129.45 481.7 129.45 L482.65 129.2 483.05 128.9 Q483.6 128.3 483.6 127.55 483.6 126.75 483.05 126.2 L482.65 125.9 Q482.25 125.65 481.7 125.65 M430.45 108.2 Q429.65 108.2 429.1 108.75 428.55 109.3 428.55 110.1 428.55 110.85 429.1 111.45 429.65 112 430.45 112 431.25 112 431.8 111.45 432.35 110.85 432.35 110.1 432.35 109.3 431.8 108.75 431.25 108.2 430.45 108.2 M426.55 120.1 Q426 119.55 425.2 119.55 424.4 119.55 423.85 120.1 423.3 120.65 423.3 121.45 423.3 122.2 423.85 122.8 424.4 123.35 425.2 123.35 426 123.35 426.55 122.8 427.1 122.2 427.1 121.45 427.1 120.65 426.55 120.1 M422.4 107.45 Q421.05 107.45 420.1 108.4 419.15 109.35 419.15 110.7 419.15 112.05 420.1 113 421.05 113.95 422.4 113.95 423.75 113.95 424.7 113 425.65 112.05 425.65 110.7 425.65 109.35 424.7 108.4 423.75 107.45 422.4 107.45 M421.45 129.7 Q420.65 129.7 420.1 130.25 419.55 130.8 419.55 131.6 419.55 132.35 420.1 132.95 420.65 133.5 421.45 133.5 422.25 133.5 422.8 132.95 423.35 132.35 423.35 131.6 423.35 130.8 422.8 130.25 422.25 129.7 421.45 129.7 M402.65 209 Q392.95 243 372.55 261.75 L372.05 262.2 369.85 264.1 372.6 267.5 369.65 269.4 Q360.95 274.55 350.95 276 L315.95 276 Q305.95 274.55 297.25 269.4 L294.3 267.5 297.05 264.1 294.85 262.2 294.35 261.75 290 257.45 290.15 257.25 290.2 257.15 292.2 252.35 292.2 251.95 292 251.6 291.25 251.1 290.95 251 290.65 251.2 287.75 254.95 282.3 248.05 285.8 244.6 285.95 244.25 285.9 243.9 285.4 243.05 285.15 242.85 284.8 242.9 280.35 245.2 Q277.7 241.3 275.4 237 L279.35 234.15 279.55 233.85 279.55 233.45 279.1 232.6 278.9 232.3 278.5 232.3 273.8 233.9 Q268.15 222.7 264.25 209 L264.25 172.05 315.95 172.05 315.95 209 402.65 209 M503 373 L503 430.5 467.75 430.5 450.25 420 429.75 430.5 361 430.5 361 373 396.5 385.25 432 385.25 467.5 373 484.15 373 487.7 368.6 491.35 373 503 373 M465.15 391.25 Q456.7 396.45 448.2 401.6 L467.65 396.3 472.45 400.05 466 411.35 477.3 404 495.65 417.2 486.15 403.7 490.8 389.2 480.85 399.75 473.35 392.9 468.7 378 465.15 391.25 M181.6 102.75 Q181.6 101.95 181.05 101.4 180.5 100.85 179.7 100.85 178.9 100.85 178.35 101.4 177.8 101.95 177.8 102.75 177.8 103.5 178.35 104.1 178.9 104.65 179.7 104.65 180.5 104.65 181.05 104.1 181.6 103.5 181.6 102.75 M183.1 115.25 Q183.1 114.45 182.55 113.9 182 113.35 181.2 113.35 180.4 113.35 179.85 113.9 179.3 114.45 179.3 115.25 179.3 116 179.85 116.6 180.4 117.15 181.2 117.15 182 117.15 182.55 116.6 183.1 116 183.1 115.25 M162.05 97.35 Q162.6 96.75 162.6 96 162.6 95.2 162.05 94.65 161.5 94.1 160.7 94.1 159.9 94.1 159.35 94.65 158.8 95.2 158.8 96 158.8 96.75 159.35 97.35 159.9 97.9 160.7 97.9 161.5 97.9 162.05 97.35 M168.2 109.85 L171.6 109.6 172.75 109.2 173.4 108.25 Q173.55 107.65 173.35 107.1 L171.4 102.05 Q171.2 101.45 170.7 101.1 170.15 100.8 169.55 100.85 162.3 101.45 157 106.1 156.6 106.5 156.5 107.1 156.35 107.7 156.55 108.25 L158.1 111.85 158.75 112.65 159.75 112.9 160.75 112.65 161.35 112.3 Q161.35 113.9 162.45 115 163.65 116.15 165.2 116.15 166.8 116.15 167.9 115 169.05 113.9 169.05 112.3 169.05 110.85 168.2 109.85 M177.05 110.4 Q176.5 109.85 175.7 109.85 174.9 109.85 174.35 110.4 173.8 110.95 173.8 111.75 173.8 112.5 174.35 113.1 174.9 113.65 175.7 113.65 176.5 113.65 177.05 113.1 177.6 112.5 177.6 111.75 177.6 110.95 177.05 110.4 M163.9 132.7 L165.25 132.75 166.25 132.45 166.85 131.6 166.7 130.55 165.95 129.85 163.15 128.7 162.6 125.8 162.2 125.05 Q161.9 124.7 161.4 124.65 160.95 124.55 160.55 124.8 160.15 124.95 159.9 125.4 L158.9 127.35 156.1 126.6 148.65 125.35 148.55 125.3 137.7 125.85 137.35 125.2 136.7 124.6 135.85 124.45 Q135.35 124.5 135.05 124.85 134.7 125.1 134.65 125.6 L134.45 126.8 Q132.9 127.4 131.6 128.2 131.15 128.45 131 128.95 130.8 129.4 130.95 129.9 131.05 130.4 131.45 130.7 131.8 131 132.3 131.05 L133.65 131.15 140.65 131.5 156.35 132.3 163.9 132.7 M80.05 127.4 Q80.05 128.15 80.6 128.75 81.15 129.3 81.95 129.3 82.75 129.3 83.3 128.75 83.85 128.15 83.85 127.4 83.85 126.6 83.3 126.05 82.75 125.5 81.95 125.5 81.15 125.5 80.6 126.05 80.05 126.6 80.05 127.4 M130.5 111.95 L131.05 112.25 132 112.55 132.95 112.25 133.6 111.5 135.1 108 135.15 106.9 134.65 105.95 Q129.55 101.45 122.55 100.85 121.95 100.8 121.45 101.1 120.9 101.45 120.7 102.05 L118.85 106.9 Q118.65 107.45 118.8 108 118.9 108.6 119.45 108.9 119.95 109.3 120.55 109.3 L123.9 109.55 Q122.8 110.65 122.8 112.3 122.8 113.9 123.9 115 125.05 116.15 126.7 116.15 128.25 116.15 129.35 115 130.5 113.9 130.5 112.3 L130.5 111.95 M144.35 122.5 L145.95 122.5 Q150.1 122.5 152.9 121.4 155.75 120.3 155.75 118.8 L155.75 118.6 Q155.5 114.9 152.9 112.2 150.1 109.4 145.95 109.4 142 109.4 139.1 112.2 136.5 114.9 136.15 118.6 L136.15 118.8 Q136.15 120.15 138.45 121.15 L139.1 121.4 Q141.4 122.35 144.35 122.5 M124.55 119.95 Q123.6 119 122.25 119 120.9 119 119.95 119.95 119 120.9 119 122.25 119 123.6 119.95 124.55 120.9 125.5 122.25 125.5 123.6 125.5 124.55 124.55 125.5 123.6 125.5 122.25 125.5 120.9 124.55 119.95 M113.2 141.25 Q112.4 141.25 111.85 141.8 111.3 142.35 111.3 143.15 111.3 143.9 111.85 144.5 112.4 145.05 113.2 145.05 114 145.05 114.55 144.5 115.1 143.9 115.1 143.15 115.1 142.35 114.55 141.8 114 141.25 113.2 141.25 M119.45 131.1 Q118.65 131.1 118.1 131.65 117.55 132.2 117.55 133 117.55 133.75 118.1 134.35 118.65 134.9 119.45 134.9 120.25 134.9 120.8 134.35 121.35 133.75 121.35 133 121.35 132.2 120.8 131.65 120.25 131.1 119.45 131.1 M92.85 111.9 Q92.3 112.45 92.3 113.25 92.3 114 92.85 114.6 93.4 115.15 94.2 115.15 95 115.15 95.55 114.6 96.1 114 96.1 113.25 96.1 112.45 95.55 111.9 95 111.35 94.2 111.35 93.4 111.35 92.85 111.9 M88.45 119.95 Q87.5 120.9 87.5 122.25 87.5 123.6 88.45 124.55 89.4 125.5 90.75 125.5 92.1 125.5 93.05 124.55 94 123.6 94 122.25 94 120.9 93.05 119.95 92.1 119 90.75 119 89.4 119 88.45 119.95 M114.2 119.75 Q113.4 119.75 112.85 120.3 112.3 120.85 112.3 121.65 112.3 122.4 112.85 123 113.4 123.55 114.2 123.55 115 123.55 115.55 123 116.1 122.4 116.1 121.65 116.1 120.85 115.55 120.3 115 119.75 114.2 119.75 M163.2 264.75 L169.3 283.2 169.3 339.15 162.4 359.25 147.45 359.25 153.5 339 153.5 322.4 113 322.4 113 351 125 351 125 371 91.75 371 91.75 340.5 80 340.5 80 322.25 70.25 322.25 70.25 339 76.65 359.4 61.65 359.4 57 344 57 420 38 420 38 432 18 432 18 330 37.5 333.25 45.7 344.3 44.55 328.65 48.95 319.5 62.1 325.65 52.35 313.9 56.2 297.85 44.15 316.9 30.85 314.25 41.05 322.35 38 327.65 18 329.95 18 264.75 31.2 264.75 37.65 258.3 44.1 264.75 57 264.75 57 279 61.6 264.75 79.7 264.75 84.15 260.3 88.6 264.75 138.7 264.75 143.15 260.3 147.6 264.75 163.2 264.75 M86.7 286.4 Q85.75 285.45 84.4 285.45 83.05 285.45 82.1 286.4 81.15 287.35 81.15 288.7 81.15 290.05 82.1 291 83.05 291.95 84.4 291.95 85.75 291.95 86.7 291 87.65 290.05 87.65 288.7 87.65 287.35 86.7 286.4 M137.95 295.4 L133.6 291.1 136.6 271.1 128.3 289.2 115.55 294.25 130.95 297.2 138.65 303.8 129.3 314.9 143.15 308.55 157.65 316.4 142.4 299.8 148.4 287.65 137.95 295.4 M146.85 276.85 Q147.65 276.85 148.2 276.3 148.75 275.7 148.75 274.95 148.75 274.15 148.2 273.6 147.65 273.05 146.85 273.05 146.05 273.05 145.5 273.6 144.95 274.15 144.95 274.95 144.95 275.7 145.5 276.3 146.05 276.85 146.85 276.85 M25.75 236.9 L25.7 236.35 26 235.95 27.15 235.15 27.7 235.05 Q28 235.1 28.15 235.3 L33.05 240.9 33.15 241.05 36.15 247.8 36.2 248.35 35.9 248.75 34.9 249.5 34.35 249.6 Q34.05 249.6 33.85 249.35 L29.15 244.05 29.05 243.85 25.75 236.9 M18.05 281.7 L57.05 281.7 18.05 277.35 18.05 281.7 M77.7 289.45 Q78.25 288.85 78.25 288.1 78.25 287.3 77.7 286.75 77.15 286.2 76.35 286.2 75.55 286.2 75 286.75 74.45 287.3 74.45 288.1 74.45 288.85 75 289.45 75.55 290 76.35 290 77.15 290 77.7 289.45 M27.35 293.3 Q28.15 293.3 28.7 292.75 29.25 292.15 29.25 291.4 29.25 290.6 28.7 290.05 28.15 289.5 27.35 289.5 26.55 289.5 26 290.05 25.45 290.6 25.45 291.4 25.45 292.15 26 292.75 26.55 293.3 27.35 293.3 M79.7 299.45 Q79.7 300.2 80.25 300.8 80.8 301.35 81.6 301.35 82.4 301.35 82.95 300.8 83.5 300.2 83.5 299.45 83.5 298.65 82.95 298.1 82.4 297.55 81.6 297.55 80.8 297.55 80.25 298.1 79.7 298.65 79.7 299.45 M85.35 307.7 Q84.55 307.7 84 308.25 83.45 308.8 83.45 309.6 83.45 310.35 84 310.95 84.55 311.5 85.35 311.5 86.15 311.5 86.7 310.95 87.25 310.35 87.25 309.6 87.25 308.8 86.7 308.25 86.15 307.7 85.35 307.7 M160.4 299.9 Q160.4 300.65 160.95 301.25 161.5 301.8 162.3 301.8 163.1 301.8 163.65 301.25 164.2 300.65 164.2 299.9 164.2 299.1 163.65 298.55 163.1 298 162.3 298 161.5 298 160.95 298.55 160.4 299.1 160.4 299.9 M160.2 308.9 Q160.2 308.1 159.65 307.55 159.1 307 158.3 307 157.5 307 156.95 307.55 156.4 308.1 156.4 308.9 156.4 309.65 156.95 310.25 157.5 310.8 158.3 310.8 159.1 310.8 159.65 310.25 160.2 309.65 160.2 308.9 M24.15 307.2 L25.1 307.45 Q25.9 307.45 26.45 306.9 27 306.3 27 305.55 27 304.75 26.45 304.2 25.9 303.65 25.1 303.65 L24.15 303.9 23.75 304.2 Q23.2 304.75 23.2 305.55 23.2 306.3 23.75 306.9 L24.15 307.2 M36.2 298.1 Q35.25 297.15 33.9 297.15 32.55 297.15 31.6 298.1 30.65 299.05 30.65 300.4 30.65 301.75 31.6 302.7 32.55 303.65 33.9 303.65 35.25 303.65 36.2 302.7 37.15 301.75 37.15 300.4 37.15 299.05 36.2 298.1 M289 377 L289 434.5 260.45 434.5 260.95 414.65 270.65 404.95 255.4 408.35 245.7 405.3 249.85 391.4 239.65 402.7 223.2 401.2 243.8 410.45 243.1 423.95 249.65 412.7 255.3 414.95 260.45 434.5 220.25 434.5 199.75 424 182.25 434.5 147 434.5 147 377 158.65 377 162.3 372.6 165.85 377 182.5 377 202.35 383.85 Q204.95 382.7 207.5 381.5 L208.1 385.85 218 389.25 253.5 389.25 263.7 385.75 264.85 379.6 270.5 383.4 289 377 M286.55 233.9 Q286 233.35 285.2 233.35 284.4 233.35 283.85 233.9 283.3 234.45 283.3 235.25 283.3 236 283.85 236.6 284.4 237.15 285.2 237.15 286 237.15 286.55 236.6 287.1 236 287.1 235.25 287.1 234.45 286.55 233.9 M302.55 227.7 Q302.55 228.45 303.1 229.05 303.65 229.6 304.45 229.6 305.25 229.6 305.8 229.05 306.35 228.45 306.35 227.7 306.35 226.9 305.8 226.35 305.25 225.8 304.45 225.8 303.65 225.8 303.1 226.35 302.55 226.9 302.55 227.7 M290.3 222.2 Q289.35 221.25 288 221.25 286.65 221.25 285.7 222.2 284.75 223.15 284.75 224.5 284.75 225.85 285.7 226.8 286.65 227.75 288 227.75 289.35 227.75 290.3 226.8 291.25 225.85 291.25 224.5 291.25 223.15 290.3 222.2 M298.85 237.85 Q298.45 239.25 299.7 240.6 301 242 303.15 242.6 305.35 243.15 307.1 242.6 308.9 242.05 309.3 240.65 309.65 239.25 308.4 237.8 307.15 236.4 304.95 235.85 302.8 235.25 301 235.8 299.2 236.45 298.85 237.85 M279.95 222 Q279.15 222 278.6 222.55 278.05 223.1 278.05 223.9 278.05 224.65 278.6 225.25 279.15 225.8 279.95 225.8 280.75 225.8 281.3 225.25 281.85 224.65 281.85 223.9 281.85 223.1 281.3 222.55 280.75 222 279.95 222 M162.45 313.75 Q163 314.3 163.8 314.3 164.6 314.3 165.15 313.75 165.7 313.15 165.7 312.4 165.7 311.6 165.15 311.05 164.6 310.5 163.8 310.5 163 310.5 162.45 311.05 161.9 311.6 161.9 312.4 161.9 313.15 162.45 313.75 M218.75 420 L218.75 416 182 416 182 420 218.75 420 M468 412 L431.25 412 431.25 416 468 416 468 412"/>
    <path stroke="none" fill="#C6B088" d="M395.7 298.05 L424.95 299.5 424.95 310.55 407.25 309.2 404.45 310.35 403.4 308.9 350.95 304.95 315.95 304.95 263.5 308.9 271.2 298.05 276.35 297.9 315.95 296.3 350.95 296.3 390.55 297.9 395.7 298.05 M259.65 309.2 L241.95 310.55 241.95 302.1 249.6 305.2 254.35 303.35 256 307.75 259.65 309.2 M241.95 311.75 L315.95 309.5 350.95 309.5 424.95 311.75 424.95 319 315.95 319 315.95 355.95 241.95 355.95 241.95 319 241.95 311.75 M503 365.6 L503 373 491.35 373 487.7 368.6 484.15 373 467.5 373 432 385.25 396.5 385.25 361 373 361 365.6 503 365.6 M147 369.6 L289 369.6 289 377 270.5 383.4 264.85 379.6 263.7 385.75 253.5 389.25 218 389.25 208.1 385.85 207.5 381.5 Q204.95 382.7 202.35 383.85 L182.5 377 165.85 377 162.3 372.6 158.65 377 147 377 147 369.6"/>
    <path stroke="none" fill="#333333" d="M163.15 128.7 L165.95 129.85 166.7 130.55 166.85 131.6 166.25 132.45 165.25 132.75 163.9 132.7 163.15 128.7 M156.35 132.3 L140.65 131.5 137.7 125.85 148.55 125.3 148.65 125.35 156.1 126.6 158.9 127.35 156.4 132.1 156.35 132.3 M133.65 131.15 L132.3 131.05 Q131.8 131 131.45 130.7 131.05 130.4 130.95 129.9 130.8 129.4 131 128.95 131.15 128.45 131.6 128.2 132.9 127.4 134.45 126.8 L133.65 131.15"/>
    <path stroke="none" fill="#17A88B" d="M488.75 103.7 L449.75 103.7 488.75 99.35 488.75 103.7 M410.1 79.5 L414.45 83.8 434.45 80.85 416.4 89.1 411.3 101.9 408.4 86.45 401.75 78.75 390.65 88.15 397 74.2 389.15 59.75 405.7 75 417.9 69 410.1 79.5 M397.6 99.7 L390.65 118.3 396.15 130.95 383.15 122.15 373 121.35 371.8 135.85 366.45 121.5 350.65 116.8 373.15 115.9 377.5 103.05 379.45 115.95 385.55 115.95 397.6 99.7 M465.15 391.25 L468.7 378 473.35 392.9 480.85 399.75 490.8 389.2 486.15 403.7 495.65 417.2 477.3 404 466 411.35 472.45 400.05 467.65 396.3 448.2 401.6 Q456.7 396.45 465.15 391.25 M18 330 L17.9 329.95 18 329.95 38 327.65 41.05 322.35 30.85 314.25 44.15 316.9 56.2 297.85 52.35 313.9 62.1 325.65 48.95 319.5 44.55 328.65 45.7 344.3 37.5 333.25 18 330 M137.95 295.4 L148.4 287.65 142.4 299.8 157.65 316.4 143.15 308.55 129.3 314.9 138.65 303.8 130.95 297.2 115.55 294.25 128.3 289.2 136.6 271.1 133.6 291.1 137.95 295.4 M18.05 281.7 L18.05 277.35 57.05 281.7 18.05 281.7 M260.45 434.5 L255.3 414.95 249.65 412.7 243.1 423.95 243.8 410.45 223.2 401.2 239.65 402.7 249.85 391.4 245.7 405.3 255.4 408.35 270.65 404.95 260.95 414.65 260.45 434.5"/>
    <path stroke="none" fill="#543D2E" d="M372.6 267.5 L395.7 298.05 390.55 297.9 369.65 269.4 372.6 267.5 M273.8 233.9 L278.5 232.3 278.9 232.3 279.1 232.6 279.55 233.45 279.55 233.85 279.35 234.15 275.4 237 275.3 237.05 275.2 237.1 270.6 238.5 270.25 238.5 270.05 238.25 269.65 237.5 269.65 237.1 269.8 236.75 273.65 233.95 273.75 233.9 273.8 233.9 M280.35 245.2 L284.8 242.9 285.15 242.85 285.4 243.05 285.9 243.9 285.95 244.25 285.8 244.6 282.3 248.05 282.2 248.1 282.1 248.15 277.75 250.3 277.4 250.35 277.1 250.15 276.65 249.4 276.55 249.05 276.75 248.65 280.15 245.3 280.3 245.2 280.35 245.2 M287.75 254.95 L290.65 251.2 290.95 251 291.25 251.1 292 251.6 292.2 251.95 292.2 252.35 290.2 257.15 290.15 257.25 290 257.45 286.95 261.2 286.65 261.45 286.3 261.35 285.6 260.85 285.4 260.55 Q285.3 260.35 285.45 260.1 L287.3 255.6 287.4 255.4 287.75 254.95 M294.3 267.5 L297.25 269.4 276.35 297.9 271.2 298.05 294.3 267.5 M64.1 257 L160.65 257 163.2 264.75 147.6 264.75 143.15 260.3 138.7 264.75 88.6 264.75 84.15 260.3 79.7 264.75 61.6 264.75 64.1 257 M18 264.75 L18 257 57 257 57 264.75 44.1 264.75 37.65 258.3 31.2 264.75 18 264.75"/>
    <path stroke="none" fill="#B8A47E" d="M361 365.6 L361 360.75 429 360.8 431.25 360.75 431 326 469 326 469 360.75 503 360.75 503 365.6 361 365.6 M147 369.6 L147 364.75 181 364.75 181 330 219 330 218.75 364.75 221 364.8 289 364.75 289 369.6 147 369.6"/>
    <path stroke="none" fill="#CBE4EC" d="M503 430.5 L503 434.5 467.75 434.5 450.25 424 429.75 434.5 361 434.5 361 430.5 429.75 430.5 450.25 420 467.75 430.5 503 430.5 M289 434.5 L289 438.5 220.25 438.5 199.75 428 182.25 438.5 147 438.5 147 434.5 182.25 434.5 199.75 424 220.25 434.5 260.45 434.5 289 434.5"/>
    <path stroke="none" fill="#1CD0AC" d="M218.75 420 L182 420 182 416 218.75 416 218.75 420 M468 412 L468 416 431.25 416 431.25 412 468 412"/>
    <path stroke="none" fill="#B5CAD2" d="M199.2 443.5 L183.75 454 150.25 454 183.75 448.5 199.2 438 217.25 448.5 250.75 454 217.25 454 199.2 443.5 M466.25 444.5 L499.75 450 466.25 450 450.8 439.5 432.75 450 399.25 450 432.75 444.5 450.8 434 466.25 444.5"/>
    <path stroke="none" fill="#1CD0AD" d="M359.95 98.85 Q359.15 98.85 358.6 98.3 358.05 97.7 358.05 96.95 358.05 96.15 358.6 95.6 359.15 95.05 359.95 95.05 360.75 95.05 361.3 95.6 361.85 96.15 361.85 96.95 361.85 97.7 361.3 98.3 360.75 98.85 359.95 98.85 M343 136.3 Q342.2 136.3 341.65 135.75 341.1 135.15 341.1 134.4 341.1 133.6 341.65 133.05 342.2 132.5 343 132.5 343.8 132.5 344.35 133.05 344.9 133.6 344.9 134.4 344.9 135.15 344.35 135.75 343.8 136.3 343 136.3 M345.85 120.55 Q346.4 121.1 346.4 121.9 346.4 122.65 345.85 123.25 345.3 123.8 344.5 123.8 343.7 123.8 343.15 123.25 342.6 122.65 342.6 121.9 342.6 121.1 343.15 120.55 343.7 120 344.5 120 345.3 120 345.85 120.55 M347.15 129.55 Q347.7 129 348.5 129 349.3 129 349.85 129.55 350.4 130.1 350.4 130.9 350.4 131.65 349.85 132.25 349.3 132.8 348.5 132.8 347.7 132.8 347.15 132.25 346.6 131.65 346.6 130.9 346.6 130.1 347.15 129.55 M421.45 129.7 Q422.25 129.7 422.8 130.25 423.35 130.8 423.35 131.6 423.35 132.35 422.8 132.95 422.25 133.5 421.45 133.5 420.65 133.5 420.1 132.95 419.55 132.35 419.55 131.6 419.55 130.8 420.1 130.25 420.65 129.7 421.45 129.7 M422.4 107.45 Q423.75 107.45 424.7 108.4 425.65 109.35 425.65 110.7 425.65 112.05 424.7 113 423.75 113.95 422.4 113.95 421.05 113.95 420.1 113 419.15 112.05 419.15 110.7 419.15 109.35 420.1 108.4 421.05 107.45 422.4 107.45 M426.55 120.1 Q427.1 120.65 427.1 121.45 427.1 122.2 426.55 122.8 426 123.35 425.2 123.35 424.4 123.35 423.85 122.8 423.3 122.2 423.3 121.45 423.3 120.65 423.85 120.1 424.4 119.55 425.2 119.55 426 119.55 426.55 120.1 M430.45 108.2 Q431.25 108.2 431.8 108.75 432.35 109.3 432.35 110.1 432.35 110.85 431.8 111.45 431.25 112 430.45 112 429.65 112 429.1 111.45 428.55 110.85 428.55 110.1 428.55 109.3 429.1 108.75 429.65 108.2 430.45 108.2 M481.7 125.65 Q482.25 125.65 482.65 125.9 L483.05 126.2 Q483.6 126.75 483.6 127.55 483.6 128.3 483.05 128.9 L482.65 129.2 481.7 129.45 Q480.9 129.45 480.35 128.9 479.8 128.3 479.8 127.55 479.8 126.75 480.35 126.2 480.9 125.65 481.7 125.65 M481.35 113.4 Q481.35 114.15 480.8 114.75 480.25 115.3 479.45 115.3 478.65 115.3 478.1 114.75 477.55 114.15 477.55 113.4 477.55 112.6 478.1 112.05 478.65 111.5 479.45 111.5 480.25 111.5 480.8 112.05 481.35 112.6 481.35 113.4 M472.9 119.15 Q474.25 119.15 475.2 120.1 476.15 121.05 476.15 122.4 476.15 123.75 475.2 124.7 474.25 125.65 472.9 125.65 471.55 125.65 470.6 124.7 469.65 123.75 469.65 122.4 469.65 121.05 470.6 120.1 471.55 119.15 472.9 119.15 M162.05 97.35 Q161.5 97.9 160.7 97.9 159.9 97.9 159.35 97.35 158.8 96.75 158.8 96 158.8 95.2 159.35 94.65 159.9 94.1 160.7 94.1 161.5 94.1 162.05 94.65 162.6 95.2 162.6 96 162.6 96.75 162.05 97.35 M183.1 115.25 Q183.1 116 182.55 116.6 182 117.15 181.2 117.15 180.4 117.15 179.85 116.6 179.3 116 179.3 115.25 179.3 114.45 179.85 113.9 180.4 113.35 181.2 113.35 182 113.35 182.55 113.9 183.1 114.45 183.1 115.25 M181.6 102.75 Q181.6 103.5 181.05 104.1 180.5 104.65 179.7 104.65 178.9 104.65 178.35 104.1 177.8 103.5 177.8 102.75 177.8 101.95 178.35 101.4 178.9 100.85 179.7 100.85 180.5 100.85 181.05 101.4 181.6 101.95 181.6 102.75 M177.05 110.4 Q177.6 110.95 177.6 111.75 177.6 112.5 177.05 113.1 176.5 113.65 175.7 113.65 174.9 113.65 174.35 113.1 173.8 112.5 173.8 111.75 173.8 110.95 174.35 110.4 174.9 109.85 175.7 109.85 176.5 109.85 177.05 110.4 M80.05 127.4 Q80.05 126.6 80.6 126.05 81.15 125.5 81.95 125.5 82.75 125.5 83.3 126.05 83.85 126.6 83.85 127.4 83.85 128.15 83.3 128.75 82.75 129.3 81.95 129.3 81.15 129.3 80.6 128.75 80.05 128.15 80.05 127.4 M124.55 119.95 Q125.5 120.9 125.5 122.25 125.5 123.6 124.55 124.55 123.6 125.5 122.25 125.5 120.9 125.5 119.95 124.55 119 123.6 119 122.25 119 120.9 119.95 119.95 120.9 119 122.25 119 123.6 119 124.55 119.95 M114.2 119.75 Q115 119.75 115.55 120.3 116.1 120.85 116.1 121.65 116.1 122.4 115.55 123 115 123.55 114.2 123.55 113.4 123.55 112.85 123 112.3 122.4 112.3 121.65 112.3 120.85 112.85 120.3 113.4 119.75 114.2 119.75 M88.45 119.95 Q89.4 119 90.75 119 92.1 119 93.05 119.95 94 120.9 94 122.25 94 123.6 93.05 124.55 92.1 125.5 90.75 125.5 89.4 125.5 88.45 124.55 87.5 123.6 87.5 122.25 87.5 120.9 88.45 119.95 M92.85 111.9 Q93.4 111.35 94.2 111.35 95 111.35 95.55 111.9 96.1 112.45 96.1 113.25 96.1 114 95.55 114.6 95 115.15 94.2 115.15 93.4 115.15 92.85 114.6 92.3 114 92.3 113.25 92.3 112.45 92.85 111.9 M119.45 131.1 Q120.25 131.1 120.8 131.65 121.35 132.2 121.35 133 121.35 133.75 120.8 134.35 120.25 134.9 119.45 134.9 118.65 134.9 118.1 134.35 117.55 133.75 117.55 133 117.55 132.2 118.1 131.65 118.65 131.1 119.45 131.1 M113.2 141.25 Q114 141.25 114.55 141.8 115.1 142.35 115.1 143.15 115.1 143.9 114.55 144.5 114 145.05 113.2 145.05 112.4 145.05 111.85 144.5 111.3 143.9 111.3 143.15 111.3 142.35 111.85 141.8 112.4 141.25 113.2 141.25 M86.7 286.4 Q87.65 287.35 87.65 288.7 87.65 290.05 86.7 291 85.75 291.95 84.4 291.95 83.05 291.95 82.1 291 81.15 290.05 81.15 288.7 81.15 287.35 82.1 286.4 83.05 285.45 84.4 285.45 85.75 285.45 86.7 286.4 M146.85 276.85 Q146.05 276.85 145.5 276.3 144.95 275.7 144.95 274.95 144.95 274.15 145.5 273.6 146.05 273.05 146.85 273.05 147.65 273.05 148.2 273.6 148.75 274.15 148.75 274.95 148.75 275.7 148.2 276.3 147.65 276.85 146.85 276.85 M27.35 293.3 Q26.55 293.3 26 292.75 25.45 292.15 25.45 291.4 25.45 290.6 26 290.05 26.55 289.5 27.35 289.5 28.15 289.5 28.7 290.05 29.25 290.6 29.25 291.4 29.25 292.15 28.7 292.75 28.15 293.3 27.35 293.3 M77.7 289.45 Q77.15 290 76.35 290 75.55 290 75 289.45 74.45 288.85 74.45 288.1 74.45 287.3 75 286.75 75.55 286.2 76.35 286.2 77.15 286.2 77.7 286.75 78.25 287.3 78.25 288.1 78.25 288.85 77.7 289.45 M79.7 299.45 Q79.7 298.65 80.25 298.1 80.8 297.55 81.6 297.55 82.4 297.55 82.95 298.1 83.5 298.65 83.5 299.45 83.5 300.2 82.95 300.8 82.4 301.35 81.6 301.35 80.8 301.35 80.25 300.8 79.7 300.2 79.7 299.45 M36.2 298.1 Q37.15 299.05 37.15 300.4 37.15 301.75 36.2 302.7 35.25 303.65 33.9 303.65 32.55 303.65 31.6 302.7 30.65 301.75 30.65 300.4 30.65 299.05 31.6 298.1 32.55 297.15 33.9 297.15 35.25 297.15 36.2 298.1 M24.15 307.2 L23.75 306.9 Q23.2 306.3 23.2 305.55 23.2 304.75 23.75 304.2 L24.15 303.9 25.1 303.65 Q25.9 303.65 26.45 304.2 27 304.75 27 305.55 27 306.3 26.45 306.9 25.9 307.45 25.1 307.45 L24.15 307.2 M160.2 308.9 Q160.2 309.65 159.65 310.25 159.1 310.8 158.3 310.8 157.5 310.8 156.95 310.25 156.4 309.65 156.4 308.9 156.4 308.1 156.95 307.55 157.5 307 158.3 307 159.1 307 159.65 307.55 160.2 308.1 160.2 308.9 M160.4 299.9 Q160.4 299.1 160.95 298.55 161.5 298 162.3 298 163.1 298 163.65 298.55 164.2 299.1 164.2 299.9 164.2 300.65 163.65 301.25 163.1 301.8 162.3 301.8 161.5 301.8 160.95 301.25 160.4 300.65 160.4 299.9 M85.35 307.7 Q86.15 307.7 86.7 308.25 87.25 308.8 87.25 309.6 87.25 310.35 86.7 310.95 86.15 311.5 85.35 311.5 84.55 311.5 84 310.95 83.45 310.35 83.45 309.6 83.45 308.8 84 308.25 84.55 307.7 85.35 307.7 M290.3 222.2 Q291.25 223.15 291.25 224.5 291.25 225.85 290.3 226.8 289.35 227.75 288 227.75 286.65 227.75 285.7 226.8 284.75 225.85 284.75 224.5 284.75 223.15 285.7 222.2 286.65 221.25 288 221.25 289.35 221.25 290.3 222.2 M302.55 227.7 Q302.55 226.9 303.1 226.35 303.65 225.8 304.45 225.8 305.25 225.8 305.8 226.35 306.35 226.9 306.35 227.7 306.35 228.45 305.8 229.05 305.25 229.6 304.45 229.6 303.65 229.6 303.1 229.05 302.55 228.45 302.55 227.7 M286.55 233.9 Q287.1 234.45 287.1 235.25 287.1 236 286.55 236.6 286 237.15 285.2 237.15 284.4 237.15 283.85 236.6 283.3 236 283.3 235.25 283.3 234.45 283.85 233.9 284.4 233.35 285.2 233.35 286 233.35 286.55 233.9 M279.95 222 Q280.75 222 281.3 222.55 281.85 223.1 281.85 223.9 281.85 224.65 281.3 225.25 280.75 225.8 279.95 225.8 279.15 225.8 278.6 225.25 278.05 224.65 278.05 223.9 278.05 223.1 278.6 222.55 279.15 222 279.95 222 M162.45 313.75 Q161.9 313.15 161.9 312.4 161.9 311.6 162.45 311.05 163 310.5 163.8 310.5 164.6 310.5 165.15 311.05 165.7 311.6 165.7 312.4 165.7 313.15 165.15 313.75 164.6 314.3 163.8 314.3 163 314.3 162.45 313.75"/>
    <path stroke="none" fill="#412E23" d="M330.95 132 L324.35 126.95 312.85 134 298.6 126.25 285.75 132.25 272.35 127.45 256.95 132 256.95 131.9 251.85 126.75 243.85 126.75 239.75 119.6 230.8 121.6 Q232.9 113.05 227.55 107.7 224.4 104.55 219.9 104.75 L216.05 105 215.8 104.95 215.6 104.95 Q213.95 104.95 212.7 108.2 211.5 111.3 211.5 115.7 L211.5 115.75 211.5 115.95 208.15 112.85 203.25 115.95 198.75 87.05 194.35 91.75 182.95 83.15 182.95 83 171.65 84.6 173.5 88.95 151 87.35 149.85 94.25 134.5 87 132.1 90.75 108.95 83 108.95 83.15 97.55 91.75 93.15 87.05 88.65 115.95 83.75 112.85 80.4 115.95 80.4 115.75 80.4 115.7 Q80.4 111.3 79.2 108.2 77.95 104.95 76.3 104.95 L76.1 104.95 75.85 105 72 104.75 Q67.5 104.55 64.35 107.7 59 113.05 61.1 121.6 L52.15 119.6 48.05 126.75 40.05 126.75 34.95 131.9 34.95 75 108.95 75 108.95 1 182.95 1 182.95 75 330.95 75 330.95 132"/>
    <path stroke="none" fill="#B19E79" d="M263.5 308.9 L315.95 304.95 350.95 304.95 403.4 308.9 404.45 310.35 407.25 309.2 424.95 310.55 424.95 311.75 350.95 309.5 315.95 309.5 241.95 311.75 241.95 310.55 259.65 309.2 262.45 310.35 263.5 308.9"/>
    <path stroke="none" fill="url(#gradient0)" d="M211.5 115.95 L211.5 115.75 211.5 115.7 Q211.5 111.3 212.7 108.2 213.95 104.95 215.6 104.95 L215.8 104.95 216.05 105 Q220 105.4 222.9 108.2 226 111.3 226 115.7 L226 115.75 Q226 120.25 222.9 123.4 219.9 126.3 215.8 126.5 L215.6 126.5 Q213.95 126.5 212.7 123.4 211.55 120.3 211.5 115.95"/>
    <path stroke="none" fill="url(#gradient1)" d="M75.85 105 L76.1 104.95 76.3 104.95 Q77.95 104.95 79.2 108.2 80.4 111.3 80.4 115.7 L80.4 115.75 80.4 115.95 Q80.35 120.3 79.2 123.4 77.95 126.5 76.3 126.5 L76.1 126.5 Q72 126.3 69 123.4 65.9 120.25 65.9 115.75 L65.9 115.7 Q65.9 111.3 69 108.2 71.9 105.4 75.85 105"/>
    <path stroke="none" fill="#FFCC00" d="M161.35 112.3 Q164.65 110.4 168.2 109.85 169.05 110.85 169.05 112.3 169.05 113.9 167.9 115 166.8 116.15 165.2 116.15 163.65 116.15 162.45 115 161.35 113.9 161.35 112.3 M130.5 111.95 L130.5 112.3 Q130.5 113.9 129.35 115 128.25 116.15 126.7 116.15 125.05 116.15 123.9 115 122.8 113.9 122.8 112.3 122.8 110.65 123.9 109.55 127.25 110.15 130.5 111.95"/>
    <path stroke="none" fill="#138C74" d="M130.5 111.95 Q127.25 110.15 123.9 109.55 L120.55 109.3 Q119.95 109.3 119.45 108.9 118.9 108.6 118.8 108 118.65 107.45 118.85 106.9 L120.7 102.05 Q120.9 101.45 121.45 101.1 121.95 100.8 122.55 100.85 129.55 101.45 134.65 105.95 L135.15 106.9 135.1 108 133.6 111.5 132.95 112.25 132 112.55 131.05 112.25 130.5 111.95 M161.35 112.3 L160.75 112.65 159.75 112.9 158.75 112.65 158.1 111.85 156.55 108.25 Q156.35 107.7 156.5 107.1 156.6 106.5 157 106.1 162.3 101.45 169.55 100.85 170.15 100.8 170.7 101.1 171.2 101.45 171.4 102.05 L173.35 107.1 Q173.55 107.65 173.4 108.25 L172.75 109.2 171.6 109.6 168.2 109.85 Q164.65 110.4 161.35 112.3 M144.35 122.5 Q141.4 122.35 139.1 121.4 L138.45 121.15 Q136.15 120.15 136.15 118.8 L136.15 118.6 Q136.5 114.9 139.1 112.2 142 109.4 145.95 109.4 150.1 109.4 152.9 112.2 155.5 114.9 155.75 118.6 L155.75 118.8 Q155.75 120.3 152.9 121.4 150.1 122.5 145.95 122.5 L144.35 122.5 M298.85 237.85 Q299.2 236.45 301 235.8 302.8 235.25 304.95 235.85 307.15 236.4 308.4 237.8 309.65 239.25 309.3 240.65 308.9 242.05 307.1 242.6 305.35 243.15 303.15 242.6 301 242 299.7 240.6 298.45 239.25 298.85 237.85"/>
  </g>
</svg>