
<svg xmlns="http://www.w3.org/2000/svg" version="1.1" xmlns:xlink="http://www.w3.org/1999/xlink" preserveAspectRatio="none" x="0px" y="0px" width="512px" height="512px" viewBox="0 0 512 512">
<defs>
<g id="Layer0_0_FILL">
<path fill="#191919" stroke="none" d="
M 512 512
L 512 0 0 0 0 512 512 512
M 488.8 61
L 488.8 64 488.8 73 488.8 82 488.8 85 488.8 88 488.8 126 488.8 141 488.8 144 488.8 254 468.8 254 468.8 242 449.8 242 449.8 166 445.15 181.4 430.15 181.4 436.55 161 436.55 144.25 426.8 144.25 426.8 162.5 415.05 162.5 415.05 193 381.8 193 381.8 173 393.8 173 393.8 144.4 353.3 144.4 353.3 161 359.35 181.25 344.4 181.25 337.5 161.15 337.5 144 337.5 141 337.5 126 337.5 105.2 343.15 88 344.15 85 345.15 82 348.1 73 351.1 64 352.1 61 356.15 48.75 412.8 48.75 412.8 12 433.45 12 433.45 50.15 436.95 61 437.9 64 440.8 73 443.7 82 444.65 85 445.6 88 449.8 101 449.8 88 449.8 85 449.8 82 449.8 73 449.8 64 449.8 61 449.8 49 488.8 49 488.8 61
M 330.95 143
L 331 143 331 149 182.95 149 182.95 223 108.95 223 108.95 149 34.95 149 34.95 143 34.95 75 108.95 75 108.95 1 140.95 1 140.95 0.95 151 0.95 151 1 182.95 1 182.95 75 330.95 75 330.95 143
M 424.95 209
L 424.95 230.3 424.95 233.3 424.95 255.3 424.95 268.3 424.95 301 424.95 319 315.95 319 315.95 355.95 241.95 355.95 241.95 319 205.95 319 205.95 301 205.95 268.3 205.95 255.3 205.95 233.3 205.95 230.3 205.95 209 241.95 209 241.95 172.05 315.95 172.05 315.95 209 424.95 209
M 361 371.75
L 361 361 431.25 360.75 431 326 469 326 469 361 503 360.75 503 371.75 503 374.65 503 389.8 503 392.7 503 403.95 503 442 503 449.8 503 452.7 503 468 487.6 468 487.6 468.05 488 468.05 488 504.4 452 504.4 396 504.4 396 468 361.2 468 361 466 361 452.7 361 449.8 361 442 361 403.95 361 392.7 361 389.8 361 374.65 361 371.75
M 73.35 190
L 94 190 94 226.75 150.65 226.75 154.7 239 155.7 242 158.65 251 161.65 260 162.65 263 163.6 266 169.3 283.2 169.3 304 169.3 319 169.3 322 169.3 339.15 162.4 359.25 147.45 359.25 153.5 339 153.5 322.4 113 322.4 113 351 125 351 125 371 91.75 371 91.75 340.5 80 340.5 80 322.25 70.25 322.25 70.25 339 76.65 359.4 61.65 359.4 57 344 57 420 38 420 38 432 18 432 18 322 18 319 18 304 18 266 18 263 18 260 18 251 18 242 18 239 18 227 57 227 57 239 57 242 57 251 57 260 57 263 57 266 57 279 61.15 266 62.15 263 63.1 260 65.95 251 68.85 242 69.85 239 73.35 228.15 73.35 190
M 147 375.75
L 147 364.75 181 365 181 330 219 330 218.75 364.75 289 365 289 375.75 289 378.65 289 393.8 289 396.7 289 407.95 289 446 289 453.8 289 456.7 289 470 288.8 472 254 472 254 508.4 198 508.4 162 508.4 162 472.05 162.4 472.05 162.4 472 147 472 147 456.7 147 453.8 147 446 147 407.95 147 396.7 147 393.8 147 378.65 147 375.75 Z"/>

<path fill="#95A8AD" stroke="none" d="
M 162.4 472.05
L 162 472.05 162 508.4 198 508.4 197.6 472 162.4 472.05
M 289 453.8
L 289 446 147 446 147 453.8 289 453.8
M 289 407.95
L 289 396.7 147 396.7 147 407.95 195 407.95 198.6 404.4
Q 200 403.05 201.4 404.4
L 205.05 407.95 289 407.95
M 18 304
L 18 319 169.3 319 169.3 304 18 304
M 62.15 263
L 61.15 266 163.6 266 162.65 263 62.15 263
M 18 251
L 18 260 57 260 57 251 18 251
M 18 263
L 18 266 57 266 57 263 18 263
M 161.65 260
L 158.65 251 65.95 251 63.1 260 161.65 260
M 503 449.8
L 503 442 361 442 361 449.8 503 449.8
M 488 468.05
L 487.6 468.05 452.4 468 452 504.4 488 504.4 488 468.05
M 503 392.7
L 361 392.7 361 403.95 444.95 403.95 448.6 400.4
Q 450 399.05 451.4 400.4
L 455 403.95 503 403.95 503 392.7
M 246.35 233.3
Q 246.3 233.3015625 246.3 233.35 246.25 233.35 246.25 233.4 244.3 237.5 245.3 242.25 246.05 245.9 248.25 248.6 249.65 250.3 251.7 251.6 256.75 254.85 262.7 253.7 266.7 252.9 269.55 250.35
L 267.7 248.5
Q 265.7 249.8 263.2 250.3 258.05 251.3 253.85 248.5 249.45 245.65 248.45 240.65 247.8 237.7 248.6 235.1 248.6 234.9 248.6 234.8 248.5 234.6 248.45 234.55
L 247.35 233.3 247.3 233.25
Q 247.1 233.05 246.95 233 246.75 232.95 246.55 233.05 246.4 233.15 246.35 233.3
M 310.15 233.25
L 310.1 233.3 309 234.55
Q 308.9 234.6 308.9 234.8 308.8 234.9 308.9 235.1 309.6 237.7 308.95 240.65 307.95 245.65 303.65 248.5 299.35 251.3 294.2 250.3 291.85 249.85 290 248.7
L 288.15 250.6
Q 290.85 252.95 294.7 253.7 300.65 254.85 305.8 251.6 307.2 250.6 308.4 249.45 311.25 246.5 312.1 242.25 313.15 237.5 311.15 233.4 311.15 233.35 311.15 233.3 311.05 233.15 310.9 233.05 310.7 232.95 310.55 233
L 310.45 233
Q 310.3 233.05 310.15 233.25
M 424.95 319
L 424.95 301 205.95 301 205.95 319 241.95 319 315.95 319 424.95 319
M 374.45 268.3
L 374.45 255.3 288.4 255.3 281.05 262.6
Q 280.6 263.05 280.15 263.3 278.95 264 277.7 263.3 277.25 263.05 276.8 262.6
L 269.5 255.3 205.95 255.3 205.95 268.3 374.45 268.3
M 424.95 268.3
L 424.95 255.3 402.45 255.3 402.45 268.3 424.95 268.3
M 445.6 88
L 444.65 85 344.15 85 343.15 88 445.6 88
M 443.7 82
L 440.8 73 348.1 73 345.15 82 443.7 82
M 488.8 141
L 488.8 126 337.5 126 337.5 141 488.8 141
M 488.8 82
L 488.8 73 449.8 73 449.8 82 488.8 82
M 488.8 88
L 488.8 85 449.8 85 449.8 88 488.8 88 Z"/>

<path fill="#D2DDDF" stroke="none" d="
M 209.9 415.45
Q 211.3 414.05 209.9 412.7
L 205.05 407.95 201.4 404.4
Q 200 403.05 198.6 404.4
L 195 407.95 190.1 412.7
Q 188.7 414.05 190.1 415.45
L 198.6 423.75
Q 200 425.1 201.4 423.75
L 209.9 415.45
M 289 456.7
L 289 453.8 147 453.8 147 456.7 289 456.7
M 147 375.75
L 147 378.65 289 378.65 289 375.75 147 375.75
M 18 319
L 18 322 169.3 322 169.3 319 18 319
M 57 242
L 57 239 18 239 18 242 57 242
M 155.7 242
L 154.7 239 69.85 239 68.85 242 155.7 242
M 448.6 419.75
Q 450 421.1 451.4 419.75
L 459.9 411.45
Q 461.3 410.05 459.9 408.7
L 455 403.95 451.4 400.4
Q 450 399.05 448.6 400.4
L 444.95 403.95 440.1 408.7
Q 438.7 410.05 440.1 411.45
L 448.6 419.75
M 503 452.7
L 503 449.8 361 449.8 361 452.7 503 452.7
M 361 371.75
L 361 374.65 503 374.65 503 371.75 361 371.75
M 246.35 233.3
Q 246.4 233.15 246.55 233.05 246.75 232.95 246.95 233 247.1 233.05 247.3 233.25
L 247.35 233.3 271.05 233.3 274.05 230.3 205.95 230.3 205.95 233.3 246.35 233.3
M 376.15 233.3
Q 377.05 231.7 378.4 230.3
L 283.85 230.3 286.85 233.3 310.1 233.3 310.15 233.25
Q 310.3 233.05 310.45 233
L 310.55 233
Q 310.7 232.95 310.9 233.05 311.05 233.15 311.15 233.3
L 376.15 233.3
M 268 281
L 268 284 290 284 290 281 268 281
M 424.95 233.3
L 424.95 230.3 398.5 230.3
Q 399.85 231.7 400.75 233.3
L 424.95 233.3
M 437.9 64
L 436.95 61 352.1 61 351.1 64 437.9 64
M 488.8 144
L 488.8 141 337.5 141 337.5 144 488.8 144
M 488.8 64
L 488.8 61 449.8 61 449.8 64 488.8 64 Z"/>

<path fill="#A5BABF" stroke="none" d="
M 289 446
L 289 407.95 205.05 407.95 209.9 412.7
Q 211.3 414.05 209.9 415.45
L 201.4 423.75
Q 200 425.1 198.6 423.75
L 190.1 415.45
Q 188.7 414.05 190.1 412.7
L 195 407.95 147 407.95 147 446 289 446
M 288.8 472
L 289 470 289 456.7 147 456.7 147 472 162.4 472 162.4 472.05 197.6 472 198 508.4 254 508.4 254 472 288.8 472
M 289 393.8
L 147 393.8 147 396.7 289 396.7 289 393.8
M 147 364.75
L 147 375.75 289 375.75 289 365 218.75 364.75 219 330 181 330 181 365 147 364.75
M 70.25 339
L 70.25 322.25 80 322.25 80 340.5 91.75 340.5 91.75 371 125 371 125 351 113 351 113 322.4 153.5 322.4 153.5 339 147.45 359.25 162.4 359.25 169.3 339.15 169.3 322 18 322 18 432 38 432 38 420 57 420 57 344 61.65 359.4 76.65 359.4 70.25 339
M 61.15 266
L 57 279 57 266 18 266 18 304 169.3 304 169.3 283.2 163.6 266 61.15 266
M 57 239
L 57 227 18 227 18 239 57 239
M 94 190
L 73.35 190 73.35 228.15 69.85 239 154.7 239 150.65 226.75 94 226.75 94 190
M 503 468
L 503 452.7 361 452.7 361 466 361.2 468 396 468 396 504.4 452 504.4 452.4 468 487.6 468.05 487.6 468 503 468
M 503 442
L 503 403.95 455 403.95 459.9 408.7
Q 461.3 410.05 459.9 411.45
L 451.4 419.75
Q 450 421.1 448.6 419.75
L 440.1 411.45
Q 438.7 410.05 440.1 408.7
L 444.95 403.95 361 403.95 361 442 503 442
M 361 389.8
L 361 392.7 503 392.7 503 389.8 361 389.8
M 361 361
L 361 371.75 503 371.75 503 360.75 469 361 469 326 431 326 431.25 360.75 361 361
M 241.95 319
L 241.95 355.95 315.95 355.95 315.95 319 241.95 319
M 248.45 234.55
Q 248.5 234.6 248.6 234.8 248.6 234.9 248.6 235.1 247.8 237.7 248.45 240.65 249.45 245.65 253.85 248.5 258.05 251.3 263.2 250.3 265.7 249.8 267.7 248.5
L 263.9 244.7
Q 261.8 242.55 263.9 240.45
L 271.05 233.3 247.35 233.3 248.45 234.55
M 294 240.45
Q 296.1 242.55 294 244.7
L 290 248.7
Q 291.85 249.85 294.2 250.3 299.35 251.3 303.65 248.5 307.95 245.65 308.95 240.65 309.6 237.7 308.9 235.1 308.8 234.9 308.9 234.8 308.9 234.6 309 234.55
L 310.1 233.3 286.85 233.3 294 240.45
M 371.55 245
L 374.45 245 374.45 240.05
Q 374.45 236.3 376.15 233.3
L 311.15 233.3
Q 311.15 233.35 311.15 233.4 313.15 237.5 312.1 242.25 311.25 246.5 308.4 249.45 307.2 250.6 305.8 251.6 300.65 254.85 294.7 253.7 290.85 252.95 288.15 250.6
L 288.15 250.55 281.05 257.6
Q 278.95 259.7 276.8 257.6
L 269.55 250.35
Q 266.7 252.9 262.7 253.7 256.75 254.85 251.7 251.6 249.65 250.3 248.25 248.6 246.05 245.9 245.3 242.25 244.3 237.5 246.25 233.4 246.25 233.35 246.3 233.35 246.3 233.3015625 246.35 233.3
L 205.95 233.3 205.95 255.3 269.5 255.3 276.8 262.6
Q 277.25 263.05 277.7 263.3 278.95 264 280.15 263.3 280.6 263.05 281.05 262.6
L 288.4 255.3 374.45 255.3 374.45 251.7 371.55 251.7 371.55 245
M 424.95 255.3
L 424.95 233.3 400.75 233.3
Q 402.45 236.3 402.45 240.05
L 402.45 245 405.35 245 405.35 251.7 402.45 251.7 402.45 255.3 424.95 255.3
M 405.35 272.5
L 405.35 279.2 402.45 279.2 402.45 280.3
Q 402.45 286.1 398.35 290.2 394.25 294.3 388.45 294.3 382.65 294.3 378.55 290.2 374.45 286.1 374.45 280.3
L 374.45 279.2 371.55 279.2 371.55 272.5 374.45 272.5 374.45 268.3 205.95 268.3 205.95 301 424.95 301 424.95 268.3 402.45 268.3 402.45 272.5 405.35 272.5
M 258.75 280.05
Q 259.35 277.65 261.2 275.8 264 273.05 267.95 273.05
L 289.95 273.05
Q 293.9 273.05 296.65 275.8 298.5 277.65 299.15 280.05 299.45 281.25 299.45 282.55 299.45 286.5 296.65 289.25 293.9 292.05 289.95 292.05
L 267.95 292.05
Q 264 292.05 261.2 289.25 258.45 286.5 258.45 282.55 258.45 281.25 258.75 280.05
M 424.95 230.3
L 424.95 209 315.95 209 315.95 172.05 241.95 172.05 241.95 209 205.95 209 205.95 230.3 274.05 230.3 276.8 227.5
Q 278.95 225.4 281.05 227.5
L 283.85 230.3 378.4 230.3
Q 378.5 230.2 378.55 230.15 382.65 226.05 388.45 226.05 394.25 226.05 398.35 230.15 398.4 230.2 398.5 230.3
L 424.95 230.3
M 330.95 143
L 330.95 75 182.95 75 182.95 1 151 1 151 110.45
Q 151 112.6 149.55 114.05 148.15 115.45 146 115.45 143.8 115.45 142.4 114.05 140.95 112.6 140.95 110.45
L 140.95 1 108.95 1 108.95 75 34.95 75 34.95 143 72.9 143
Q 84.4 142.35 86.5 132.75 88.6 123.35 97.65 122.6
L 122.85 122.6 115.1 149 108.95 149 108.95 223 182.95 223 182.95 149 176.8 149 169.05 122.6 194.25 122.6
Q 203.3 123.35 205.4 132.75 207.5 142.35 219 143
L 330.95 143
M 223.95 109.6
Q 224.45 109.1 225.15 109.1 225.85 109.1 226.35 109.6 226.9 110.15 226.9 110.85 226.9 111.55 226.4 112.05
L 218.05 120.4
Q 217.55 120.9 216.85 120.9 216.15 120.9 215.6 120.35 215.1 119.85 215.1 119.15 215.1 118.45 215.6 117.95
L 223.95 109.6
M 222.85 106.1
Q 223.35 106.6 223.35 107.3 223.35 108 222.85 108.5
L 214.5 116.85
Q 214 117.35 213.3 117.35 212.6 117.35 212.1 116.85 211.55 116.3 211.55 115.6 211.55 114.9 212.05 114.4
L 220.4 106.05
Q 220.9 105.55 221.6 105.55 222.3 105.55 222.85 106.1
M 227.45 113.1
Q 227.95 112.6 228.65 112.6 229.35 112.6 229.9 113.15 230.45 113.7 230.45 114.4 230.45 115.1 229.95 115.6
L 221.6 123.95
Q 221.1 124.45 220.4 124.45 219.7 124.45 219.15 123.9 218.6 123.35 218.6 122.65 218.6 121.95 219.1 121.45
L 227.45 113.1
M 65 110.85
Q 65 110.15 65.55 109.6 66.05 109.1 66.75 109.1 67.45 109.1 67.95 109.6
L 76.3 117.95
Q 76.8 118.45 76.8 119.15 76.8 119.85 76.3 120.35 75.75 120.9 75.05 120.9 74.35 120.9 73.85 120.4
L 65.5 112.05
Q 65 111.55 65 110.85
M 69.05 106.1
Q 69.6 105.55 70.3 105.55 71 105.55 71.5 106.05
L 79.85 114.4
Q 80.35 114.9 80.35 115.6 80.35 116.3 79.8 116.85 79.3 117.35 78.6 117.35 77.9 117.35 77.4 116.85
L 69.05 108.5
Q 68.55 108 68.55 107.3 68.55 106.6 69.05 106.1
M 63.25 112.6
Q 63.95 112.6 64.45 113.1
L 72.8 121.45
Q 73.3 121.95 73.3 122.65 73.3 123.35 72.75 123.9 72.2 124.45 71.5 124.45 70.8 124.45 70.3 123.95
L 61.95 115.6
Q 61.45 115.1 61.45 114.4 61.45 113.7 62 113.15 62.55 112.6 63.25 112.6
M 139.05 125.45
Q 138.95 125.1 139.1 124.8 139.25 124.45 139.6 124.3 145.75 121.35 151.95 124.3 152.25 124.45 152.4 124.8 152.55 125.1 152.5 125.45 152.45 125.55 152.4 125.7 152.45 125.85 152.5 126 152.55 126.4 152.6 126.85
L 152.65 126.85
Q 153.05 126.85 153.35 127.15 153.6 127.45 153.6 127.85 153.6 128.15 153.6 128.5 153.6 131.9 151.35 134.35
L 151.25 134.4
Q 148.95 136.85 145.75 136.85 142.55 136.85 140.2 134.35 137.9 131.9 137.9 128.5 137.9 128.1 138 127.75 138.05 127.35 138.35 127.15 138.6 126.9 138.9 126.9 138.95 126.5 139 126.05 139.05 125.85 139.15 125.7 139.05 125.55 139.05 125.45
M 164.2 103.15
Q 165.26796875 103.15 166.25 103.35 170.44453125 103.241015625 174.4 101.6 173.8115234375 105.182421875 171.8 107.2 173.35 109.4408203125 173.35 112.3 173.35 116.05 170.75 118.65 170.65 118.75 170.55 118.85 169.85 119.5 169.1 120.05 166.95 119.15 164.2 119.15 161.5 119.15 159.35 120.05 158.5 119.5 157.8 118.8
L 157.75 118.75
Q 155.05 116.15 155.05 112.3 155.05 108.5 157.75 105.85
L 157.8 105.8
Q 160.5 103.15 164.2 103.15
M 134.05 105.8
Q 134.1 105.8 134.15 105.9 136.8 108.55 136.8 112.3 136.8 116.05 134.2 118.65 134.1 118.75 134 118.85 133.3 119.5 132.55 120.05 130.45 119.15 127.7 119.15 124.95 119.15 122.8 120.05 121.95 119.5 121.2 118.75 118.6 116.15 118.55 112.3 118.55 109.7380859375 119.7 107.7 117.2646484375 105.6458984375 116.6 101.6 120.9681640625 103.4123046875 125.65 103.35 126.626171875 103.15 127.7 103.15 131.45 103.15 134.05 105.8
M 359.35 181.25
L 353.3 161 353.3 144.4 393.8 144.4 393.8 173 381.8 173 381.8 193 415.05 193 415.05 162.5 426.8 162.5 426.8 144.25 436.55 144.25 436.55 161 430.15 181.4 445.15 181.4 449.8 166 449.8 242 468.8 242 468.8 254 488.8 254 488.8 144 337.5 144 337.5 161.15 344.4 181.25 359.35 181.25
M 433.45 12
L 412.8 12 412.8 48.75 356.15 48.75 352.1 61 436.95 61 433.45 50.15 433.45 12
M 488.8 126
L 488.8 88 449.8 88 449.8 101 445.6 88 343.15 88 337.5 105.2 337.5 126 488.8 126
M 488.8 61
L 488.8 49 449.8 49 449.8 61 488.8 61 Z"/>

<path fill="#FF66CC" stroke="none" d="
M 147 378.65
L 147 393.8 289 393.8 289 378.65 147 378.65
M 57 251
L 57 242 18 242 18 251 57 251
M 63.1 260
L 62.15 263 162.65 263 161.65 260 63.1 260
M 18 260
L 18 263 57 263 57 260 18 260
M 158.65 251
L 155.7 242 68.85 242 65.95 251 158.65 251
M 361 374.65
L 361 389.8 503 389.8 503 374.65 361 374.65
M 286.85 233.3
L 283.85 230.3 281.05 227.5
Q 278.95 225.4 276.8 227.5
L 274.05 230.3 271.05 233.3 263.9 240.45
Q 261.8 242.55 263.9 244.7
L 267.7 248.5
Q 268.8 247.75 269.7 246.8 269.9 246.6 270.15 246.6 270.4 246.6 270.6 246.8
L 271.3 247.45
Q 271.4 247.55 271.5 247.8 271.5 248.05 271.35 248.25 270.5 249.4 269.55 250.35
L 276.8 257.6
Q 278.95 259.7 281.05 257.6
L 288.15 250.55
Q 287 249.55 286.05 248.25 285.9 248.05 285.9 247.8 286 247.55 286.15 247.45
L 286.85 246.8
Q 287 246.6 287.3 246.6 287.5 246.6 287.7 246.8 288.75 247.9 290 248.7
L 294 244.7
Q 296.1 242.55 294 240.45
L 286.85 233.3
M 286.45 235.8
Q 286.5 235.9 286.45 236.05
L 283.75 242.8
Q 283.75 242.9 283.65 242.95 283.5 243.05 283.4 243.05
L 281.1 243.05 273.15 251
Q 273.05 251.1 272.85 251.1 272.7 251.1 272.6 251 272.45 250.85 272.45 250.7
L 272.45 241.75
Q 272.45 241.6 272.6 241.5 272.7 241.35 272.85 241.35
L 275.05 241.35 277.15 235.75
Q 277.2 235.65 277.3 235.55 277.4 235.5 277.55 235.5
L 286.05 235.5
Q 286.2 235.5 286.3 235.6 286.4 235.65 286.45 235.8
M 374.45 280.3
Q 374.45 286.1 378.55 290.2 382.65 294.3 388.45 294.3 394.25 294.3 398.35 290.2 402.45 286.1 402.45 280.3
L 402.45 279.2 374.45 279.2 374.45 280.3
M 402.45 268.3
L 402.45 255.3 402.45 251.7 374.45 251.7 374.45 255.3 374.45 268.3 374.45 272.5 402.45 272.5 402.45 268.3
M 378.55 230.15
Q 378.5 230.2 378.4 230.3 377.05 231.7 376.15 233.3 374.45 236.3 374.45 240.05
L 374.45 245 402.45 245 402.45 240.05
Q 402.45 236.3 400.75 233.3 399.85 231.7 398.5 230.3 398.4 230.2 398.35 230.15 394.25 226.05 388.45 226.05 382.65 226.05 378.55 230.15
M 392 237.9
Q 392 236.45 393 235.45 394 234.45 395.45 234.45 396.9 234.45 397.9 235.45 398.9 236.45 398.9 237.9 398.9 239.35 397.9 240.35 396.9 241.35 395.45 241.35 394 241.35 393 240.35 392 239.35 392 237.9
M 124.85 107.95
Q 124.409375 108.2537109375 124 108.65 123.612890625 109.050390625 123.3 109.5 122.55 110.723828125 122.55 112.3 122.55 114.45 124 115.9 125.55 117.45 127.7 117.45 129.8 117.45 131.25 115.9 132.8 114.45 132.8 112.3 132.8 110.15 131.25 108.65 129.8 107.15 127.7 107.15 126.11796875 107.15 124.85 107.95
M 165.95 107.45
Q 165.15546875 107.15 164.2 107.15 162.1 107.15 160.55 108.65 159.05 110.15 159.05 112.3 159.05 114.45 160.55 115.9 162.1 117.45 164.2 117.45 166.35 117.45 167.8 115.9 169.35 114.45 169.35 112.3 169.35 110.5923828125 168.35 109.3 168.1189453125 108.95859375 167.8 108.65 166.9943359375 107.8166015625 165.95 107.45
M 138.9 126.9
Q 138.6 126.9 138.35 127.15 138.05 127.35 138 127.75 137.9 128.1 137.9 128.5 137.9 131.9 140.2 134.35 142.55 136.85 145.75 136.85 148.95 136.85 151.25 134.4
L 151.35 134.35
Q 153.6 131.9 153.6 128.5 153.6 128.15 153.6 127.85 153.6 127.45 153.35 127.15 153.05 126.85 152.65 126.85
L 152.6 126.85
Q 152.6 127.05 152.6 127.25 152.6 127.55 152.6 127.85 152.4 130.25 150.6 132.05
L 150.55 132.1
Q 148.55 134.1 145.75 134.1 142.95 134.1 140.9 132.05 139.15 130.3 138.95 127.9 138.9 127.55 138.9 127.25 138.9 127.1 138.9 126.9
M 139.35 125.45
Q 139.6 125.2 140 125.2
L 151.5 125.2
Q 151.85 125.2 152.15 125.45 152.3 125.55 152.4 125.7 152.45 125.55 152.5 125.45 152.55 125.1 152.4 124.8 152.25 124.45 151.95 124.3 145.75 121.35 139.6 124.3 139.25 124.45 139.1 124.8 138.95 125.1 139.05 125.45 139.05 125.55 139.15 125.7 139.2 125.55 139.35 125.45
M 444.65 85
L 443.7 82 345.15 82 344.15 85 444.65 85
M 440.8 73
L 437.9 64 351.1 64 348.1 73 440.8 73
M 488.8 85
L 488.8 82 449.8 82 449.8 85 488.8 85
M 488.8 73
L 488.8 64 449.8 64 449.8 73 488.8 73 Z"/>

<path fill="#EE5FBE" stroke="none" d="
M 271.3 247.45
L 270.6 246.8
Q 270.4 246.6 270.15 246.6 269.9 246.6 269.7 246.8 268.8 247.75 267.7 248.5
L 269.55 250.35
Q 270.5 249.4 271.35 248.25 271.5 248.05 271.5 247.8 271.4 247.55 271.3 247.45
M 287.7 246.8
Q 287.5 246.6 287.3 246.6 287 246.6 286.85 246.8
L 286.15 247.45
Q 286 247.55 285.9 247.8 285.9 248.05 286.05 248.25 287 249.55 288.15 250.55
L 288.15 250.6 290 248.7
Q 288.75 247.9 287.7 246.8 Z"/>

<path fill="#FFFFFF" stroke="none" d="
M 286.45 236.05
Q 286.5 235.9 286.45 235.8 286.4 235.65 286.3 235.6 286.2 235.5 286.05 235.5
L 277.55 235.5
Q 277.4 235.5 277.3 235.55 277.2 235.65 277.15 235.75
L 275.05 241.35 272.85 241.35
Q 272.7 241.35 272.6 241.5 272.45 241.6 272.45 241.75
L 272.45 250.7
Q 272.45 250.85 272.6 251 272.7 251.1 272.85 251.1 273.05 251.1 273.15 251
L 281.1 243.05 283.4 243.05
Q 283.5 243.05 283.65 242.95 283.75 242.9 283.75 242.8
L 286.45 236.05
M 134.15 105.9
Q 134.1 105.8 134.05 105.8 131.45 103.15 127.7 103.15 126.626171875 103.15 125.65 103.35 123.176953125 103.9087890625 121.25 105.8 121.15 105.85 121.15 105.9 120.302734375 106.747265625 119.7 107.7 118.55 109.7380859375 118.55 112.3 118.6 116.15 121.2 118.75 121.95 119.5 122.8 120.05 124.95 119.15 127.7 119.15 130.45 119.15 132.55 120.05 133.3 119.5 134 118.85 134.1 118.75 134.2 118.65 136.8 116.05 136.8 112.3 136.8 108.55 134.15 105.9
M 124 108.65
Q 124.409375 108.2537109375 124.85 107.95 126.11796875 107.15 127.7 107.15 129.8 107.15 131.25 108.65 132.8 110.15 132.8 112.3 132.8 114.45 131.25 115.9 129.8 117.45 127.7 117.45 125.55 117.45 124 115.9 122.55 114.45 122.55 112.3 122.55 110.723828125 123.3 109.5 123.612890625 109.050390625 124 108.65
M 166.25 103.35
Q 165.26796875 103.15 164.2 103.15 160.5 103.15 157.8 105.8
L 157.75 105.85
Q 155.05 108.5 155.05 112.3 155.05 116.15 157.75 118.75
L 157.8 118.8
Q 158.5 119.5 159.35 120.05 161.5 119.15 164.2 119.15 166.95 119.15 169.1 120.05 169.85 119.5 170.55 118.85 170.65 118.75 170.75 118.65 173.35 116.05 173.35 112.3 173.35 109.4408203125 171.8 107.2 171.3294921875 106.5294921875 170.7 105.9 170.65 105.8 170.6 105.8 168.7306640625 103.8947265625 166.25 103.35
M 164.2 107.15
Q 165.15546875 107.15 165.95 107.45 166.9943359375 107.8166015625 167.8 108.65 168.1189453125 108.95859375 168.35 109.3 169.35 110.5923828125 169.35 112.3 169.35 114.45 167.8 115.9 166.35 117.45 164.2 117.45 162.1 117.45 160.55 115.9 159.05 114.45 159.05 112.3 159.05 110.15 160.55 108.65 162.1 107.15 164.2 107.15
M 140 125.2
Q 139.6 125.2 139.35 125.45 139.2 125.55 139.15 125.7 139.05 125.85 139 126.05 138.95 126.5 138.9 126.9 138.9 127.1 138.9 127.25 138.9 127.55 138.95 127.9 139.15 130.3 140.9 132.05 142.95 134.1 145.75 134.1 148.55 134.1 150.55 132.1
L 150.6 132.05
Q 152.4 130.25 152.6 127.85 152.6 127.55 152.6 127.25 152.6 127.05 152.6 126.85 152.55 126.4 152.5 126 152.45 125.85 152.4 125.7 152.3 125.55 152.15 125.45 151.85 125.2 151.5 125.2
L 140 125.2 Z"/>

<path fill="#FF79D2" stroke="none" d="
M 393 235.45
Q 392 236.45 392 237.9 392 239.35 393 240.35 394 241.35 395.45 241.35 396.9 241.35 397.9 240.35 398.9 239.35 398.9 237.9 398.9 236.45 397.9 235.45 396.9 234.45 395.45 234.45 394 234.45 393 235.45 Z"/>

<path fill="#899B9F" stroke="none" d="
M 405.35 251.7
L 405.35 245 402.45 245 374.45 245 371.55 245 371.55 251.7 374.45 251.7 402.45 251.7 405.35 251.7
M 405.35 279.2
L 405.35 272.5 402.45 272.5 374.45 272.5 371.55 272.5 371.55 279.2 374.45 279.2 402.45 279.2 405.35 279.2 Z"/>

<path fill="#84959A" stroke="none" d="
M 261.2 275.8
Q 259.35 277.65 258.75 280.05 258.45 281.25 258.45 282.55 258.45 286.5 261.2 289.25 264 292.05 267.95 292.05
L 289.95 292.05
Q 293.9 292.05 296.65 289.25 299.45 286.5 299.45 282.55 299.45 281.25 299.15 280.05 298.5 277.65 296.65 275.8 293.9 273.05 289.95 273.05
L 267.95 273.05
Q 264 273.05 261.2 275.8
M 268 284
L 268 281 290 281 290 284 268 284 Z"/>

<path fill="#91A4A8" stroke="none" d="
M 34.95 143
L 34.95 149 108.95 149 115.1 149 122.85 122.6 97.65 122.6
Q 88.6 123.35 86.5 132.75 84.4 142.35 72.9 143
L 34.95 143
M 151 1
L 151 0.95 140.95 0.95 140.95 1 140.95 110.45
Q 140.95 112.6 142.4 114.05 143.8 115.45 146 115.45 148.15 115.45 149.55 114.05 151 112.6 151 110.45
L 151 1
M 121.15 105.9
Q 121.15 105.85 121.25 105.8 123.176953125 103.9087890625 125.65 103.35 120.9681640625 103.4123046875 116.6 101.6 117.2646484375 105.6458984375 119.7 107.7 120.302734375 106.747265625 121.15 105.9
M 170.7 105.9
Q 171.3294921875 106.5294921875 171.8 107.2 173.8115234375 105.182421875 174.4 101.6 170.44453125 103.241015625 166.25 103.35 168.7306640625 103.8947265625 170.6 105.8 170.65 105.8 170.7 105.9
M 64.45 113.1
Q 63.95 112.6 63.25 112.6 62.55 112.6 62 113.15 61.45 113.7 61.45 114.4 61.45 115.1 61.95 115.6
L 70.3 123.95
Q 70.8 124.45 71.5 124.45 72.2 124.45 72.75 123.9 73.3 123.35 73.3 122.65 73.3 121.95 72.8 121.45
L 64.45 113.1
M 70.3 105.55
Q 69.6 105.55 69.05 106.1 68.55 106.6 68.55 107.3 68.55 108 69.05 108.5
L 77.4 116.85
Q 77.9 117.35 78.6 117.35 79.3 117.35 79.8 116.85 80.35 116.3 80.35 115.6 80.35 114.9 79.85 114.4
L 71.5 106.05
Q 71 105.55 70.3 105.55
M 65.55 109.6
Q 65 110.15 65 110.85 65 111.55 65.5 112.05
L 73.85 120.4
Q 74.35 120.9 75.05 120.9 75.75 120.9 76.3 120.35 76.8 119.85 76.8 119.15 76.8 118.45 76.3 117.95
L 67.95 109.6
Q 67.45 109.1 66.75 109.1 66.05 109.1 65.55 109.6
M 228.65 112.6
Q 227.95 112.6 227.45 113.1
L 219.1 121.45
Q 218.6 121.95 218.6 122.65 218.6 123.35 219.15 123.9 219.7 124.45 220.4 124.45 221.1 124.45 221.6 123.95
L 229.95 115.6
Q 230.45 115.1 230.45 114.4 230.45 113.7 229.9 113.15 229.35 112.6 228.65 112.6
M 223.35 107.3
Q 223.35 106.6 222.85 106.1 222.3 105.55 221.6 105.55 220.9 105.55 220.4 106.05
L 212.05 114.4
Q 211.55 114.9 211.55 115.6 211.55 116.3 212.1 116.85 212.6 117.35 213.3 117.35 214 117.35 214.5 116.85
L 222.85 108.5
Q 223.35 108 223.35 107.3
M 225.15 109.1
Q 224.45 109.1 223.95 109.6
L 215.6 117.95
Q 215.1 118.45 215.1 119.15 215.1 119.85 215.6 120.35 216.15 120.9 216.85 120.9 217.55 120.9 218.05 120.4
L 226.4 112.05
Q 226.9 111.55 226.9 110.85 226.9 110.15 226.35 109.6 225.85 109.1 225.15 109.1
M 331 143
L 330.95 143 219 143
Q 207.5 142.35 205.4 132.75 203.3 123.35 194.25 122.6
L 169.05 122.6 176.8 149 182.95 149 331 149 331 143 Z"/>
</g>
</defs>

<g transform="matrix( 1, 0, 0, 1, 0,0) ">
<use xlink:href="#Layer0_0_FILL"/>
</g>
</svg>
