<svg xmlns="http://www.w3.org/2000/svg" xmlns:xlink="http://www.w3.org/1999/xlink">
  <defs>
    <linearGradient gradientUnits="userSpaceOnUse" x1="-819.2" x2="819.2" spreadMethod="pad" gradientTransform="matrix(0.00885009765625 0 0 0.013153076171875 73.15 115.7)" id="gradient0">
      <stop offset="0" stop-color="#EECC98"/>
      <stop offset="1" stop-color="#FFE0B1"/>
    </linearGradient>
    <linearGradient gradientUnits="userSpaceOnUse" x1="-819.2" x2="819.2" spreadMethod="pad" gradientTransform="matrix(-0.00885009765625 0 0 0.013153076171875 218.75 115.7)" id="gradient1">
      <stop offset="0" stop-color="#EECC98"/>
      <stop offset="1" stop-color="#FFE0B1"/>
    </linearGradient>
  </defs>
  <g>
    <path stroke="none" fill="#191919" d="M488.8 133 L488.8 126 488.8 49 449.8 49 449.8 101 433.45 50.15 433.45 12 412.8 12 412.8 48.75 356.15 48.75 337.5 105.2 337.5 126 337.5 133 337.5 161.15 344.4 181.25 359.35 181.25 353.3 161 353.3 144.4 393.8 144.4 393.8 173 381.8 173 381.8 193 415.05 193 415.05 162.5 426.8 162.5 426.8 144.25 436.55 144.25 436.55 161 430.15 181.4 445.15 181.4 449.8 166 449.8 242 468.8 242 468.8 254 488.8 254 488.8 133 M34.95 131.9 L34.95 149 108.95 149 108.95 223 182.95 223 182.95 149 330.95 149 330.95 132 330.95 75 182.95 75 182.95 1 108.95 1 108.95 75 34.95 75 34.95 131.9 M205.95 313 L205.95 319 241.95 319 241.95 355.95 315.95 355.95 315.95 319 424.95 319 424.95 313 424.95 209 315.95 209 315.95 172.05 241.95 172.05 241.95 209 205.95 209 205.95 313 M503 434.05 L503 360.75 469 361 469 326 431 326 431.25 360.75 361 361 361 434.05 361 441 361 465 361.25 467.4 396 467.4 396 503.75 452 503.75 488 503.75 487.6 467.4 503 467.4 503 465 503 441 503 434.05 M169.3 304 L169.3 283.2 150.65 226.75 94 226.75 94 190 73.35 190 73.35 228.15 57 279 57 227 18 227 18 304 18 311 18 432 38 432 38 420 57 420 57 344 61.65 359.4 76.65 359.4 70.25 339 70.25 322.25 80 322.25 80 340.5 91.75 340.5 91.75 371 125 371 125 351 113 351 113 322.4 153.5 322.4 153.5 339 147.45 359.25 162.4 359.25 169.3 339.15 169.3 311 169.3 304 M289 438.05 L289 365 218.75 364.75 219 330 181 330 181 365 147 364.75 147 438.05 147 445 147 469 147 471 162.4 471 162 507.4 198 507.4 254 507.4 254 471 288.8 471 289 469 289 445 289 438.05 M0 512 L0 0 512 0 512 512 0 512"/>
    <path stroke="none" fill="#FFE0B1" d="M138.25 121.7 L137.65 121.75 Q130.9 123 124.45 129.4 124.1 129.75 124.05 130.15 123.95 130.65 124.3 130.95 L124.95 132 125.65 132.5 126.55 132.5 Q134.6 128.95 141.75 127.65 144.65 127.25 145.15 126.1 L145.5 125 145.95 125 146 125 146.7 125 Q146.65 125.6 147.05 126.1 147.55 127.25 150.45 127.65 L152.55 128.1 Q149.3 129.55 143.7 129.3 142.85 129.25 142.25 129.85 141.65 130.4 141.6 131.2 L141.5 133.2 Q141.45 134.05 142.05 134.65 142.6 135.25 143.4 135.3 153.65 135.75 158.2 131.55 158.8 131 158.85 130.2 L158.85 129.85 Q162.15 130.95 165.65 132.5 L166.55 132.5 167.25 132 167.9 130.95 168.15 130.15 167.75 129.4 Q161.3 123 154.55 121.75 L153.75 121.65 Q153.5 118.85 151.5 116.8 149.25 114.55 146 114.55 L145.95 114.55 Q142.8 114.55 140.55 116.8 138.55 118.85 138.25 121.7 M488.8 133 L488.8 254 468.8 254 468.8 242 449.8 242 449.8 166 445.15 181.4 430.15 181.4 436.55 161 436.55 144.25 426.8 144.25 426.8 162.5 415.05 162.5 415.05 193 381.8 193 381.8 173 393.8 173 393.8 144.4 353.3 144.4 353.3 161 359.35 181.25 344.4 181.25 337.5 161.15 337.5 133 488.8 133 M330.95 132 L330.95 149 182.95 149 182.95 223 108.95 223 108.95 149 34.95 149 34.95 131.9 51.75 125.3 Q61 121.5 62.45 111.65 62.8 109.25 64.35 107.7 67.5 104.55 72 104.75 L76.1 104.95 Q71.9 105.4 69 108.2 65.9 111.3 65.9 115.7 L65.9 115.75 Q65.9 120.25 69 123.4 72 126.3 76.1 126.5 L76.3 126.5 Q77.95 126.5 79.2 123.4 80.35 120.3 80.4 115.95 L80.4 115.75 80.4 115.7 Q80.4 113.15 80 111 L89.6 109.8 95.95 89.75 Q99.75 82.5 108.95 83 130.15 83 147.2 87.75 163.5 92.1 182.95 83 L182.95 83.15 Q192.55 79.1 195.95 89.75 L202.3 109.8 211.9 111 Q211.5 113.15 211.5 115.7 L211.5 115.75 211.5 115.95 Q211.55 120.3 212.7 123.4 213.95 126.5 215.6 126.5 L215.8 126.5 Q219.9 126.3 222.9 123.4 226 120.25 226 115.75 L226 115.7 Q226 111.3 222.9 108.2 220 105.4 215.8 104.95 L219.9 104.75 Q224.4 104.55 227.55 107.7 229.1 109.25 229.45 111.65 230.9 121.5 240.15 125.3 L256.95 131.9 256.95 132 330.95 132 M166.35 112.3 Q166.35 110.15 164.8 108.65 163.35 107.15 161.2 107.15 159.1 107.15 157.55 108.65 156.05 110.15 156.05 112.3 156.05 114.45 157.55 115.9 159.1 117.45 161.2 117.45 163.35 117.45 164.8 115.9 166.35 114.45 166.35 112.3 M169.35 100.65 Q169.6 99.9 169.3 99.2 169 98.5 168.25 98.2 162.6 96.05 155 95.8 154.2 95.75 153.65 96.3 153.05 96.85 153.05 97.65 L153 99.5 Q153 100.25 153.5 100.9 154.05 101.4 154.8 101.45 161.35 101.7 166.25 103.5 L167.7 103.45 Q168.45 103.1 168.7 102.4 L169.35 100.65 M136.5 95.8 Q128.9 96.05 123.25 98.2 122.5 98.5 122.2 99.2 121.9 99.9 122.15 100.65 L122.8 102.4 Q123.05 103.1 123.8 103.45 L125.25 103.5 Q130.15 101.7 136.7 101.45 137.45 101.4 138 100.9 138.5 100.25 138.5 99.5 L138.45 97.65 Q138.45 96.85 137.85 96.3 137.3 95.75 136.5 95.8 M130.7 107.15 Q128.55 107.15 127 108.65 125.55 110.15 125.55 112.3 125.55 114.45 127 115.9 128.55 117.45 130.7 117.45 132.8 117.45 134.25 115.9 135.8 114.45 135.8 112.3 135.8 110.15 134.25 108.65 132.8 107.15 130.7 107.15 M169.3 311 L169.3 339.15 162.4 359.25 147.45 359.25 153.5 339 153.5 322.4 113 322.4 113 351 125 351 125 371 91.75 371 91.75 340.5 80 340.5 80 322.25 70.25 322.25 70.25 339 76.65 359.4 61.65 359.4 57 344 57 420 38 420 38 432 18 432 18 311 169.3 311"/>
    <path stroke="none" fill="#694C39" d="M424.95 313 L424.95 319 315.95 319 315.95 355.95 241.95 355.95 241.95 319 205.95 319 205.95 313 270.45 313 270.45 319 287.4 319 287.4 313 424.95 313 M503 465 L503 467.4 487.6 467.4 487.6 467.35 452 467.4 452 503.75 396 503.75 396 467.4 361.25 467.4 361 465 503 465 M166.35 112.3 Q166.35 114.45 164.8 115.9 163.35 117.45 161.2 117.45 159.1 117.45 157.55 115.9 156.05 114.45 156.05 112.3 156.05 110.15 157.55 108.65 159.1 107.15 161.2 107.15 163.35 107.15 164.8 108.65 166.35 110.15 166.35 112.3 M130.7 107.15 Q132.8 107.15 134.25 108.65 135.8 110.15 135.8 112.3 135.8 114.45 134.25 115.9 132.8 117.45 130.7 117.45 128.55 117.45 127 115.9 125.55 114.45 125.55 112.3 125.55 110.15 127 108.65 128.55 107.15 130.7 107.15 M289 469 L288.8 471 254 471 254 507.4 198 507.4 198 471.05 196.6 471.05 196.15 471.05 168.5 471 162.4 471 147 471 147 469 289 469"/>
    <path stroke="none" fill="url(#gradient0)" d="M80 111 Q80.4 113.15 80.4 115.7 L80.4 115.75 80.4 115.95 Q80.35 120.3 79.2 123.4 77.95 126.5 76.3 126.5 L76.1 126.5 Q72 126.3 69 123.4 65.9 120.25 65.9 115.75 L65.9 115.7 Q65.9 111.3 69 108.2 71.9 105.4 76.1 104.95 L76.3 104.95 Q77.95 104.95 79.2 108.2 L80 111"/>
    <path stroke="none" fill="url(#gradient1)" d="M215.8 104.95 Q220 105.4 222.9 108.2 226 111.3 226 115.7 L226 115.75 Q226 120.25 222.9 123.4 219.9 126.3 215.8 126.5 L215.6 126.5 Q213.95 126.5 212.7 123.4 211.55 120.3 211.5 115.95 L211.5 115.75 211.5 115.7 Q211.5 113.15 211.9 111 L212.7 108.2 Q213.95 104.95 215.6 104.95 L215.8 104.95"/>
    <path stroke="none" fill="#EECC98" d="M153.75 121.65 L153.75 121.9 153.75 122.05 Q153.75 123.25 151.5 124.15 L146.7 125 146 125 145.95 125 145.5 125 Q142.65 124.95 140.55 124.15 138.2 123.25 138.2 122.05 L138.2 121.9 138.25 121.7 Q138.55 118.85 140.55 116.8 142.8 114.55 145.95 114.55 L146 114.55 Q149.25 114.55 151.5 116.8 153.5 118.85 153.75 121.65 M152.55 128.1 Q155.6 128.75 158.85 129.85 L158.85 130.2 Q158.8 131 158.2 131.55 153.65 135.75 143.4 135.3 142.6 135.25 142.05 134.65 141.45 134.05 141.5 133.2 L141.6 131.2 Q141.65 130.4 142.25 129.85 142.85 129.25 143.7 129.3 149.3 129.55 152.55 128.1"/>
    <path stroke="none" fill="#A3BD6B" d="M488.75 103.7 L488.75 99.35 449.75 103.7 488.75 103.7 M337.5 126 L337.5 105.2 356.15 48.75 412.8 48.75 412.8 12 433.45 12 433.45 50.15 449.8 101 449.8 49 488.8 49 488.8 126 337.5 126 M424.95 313 L287.4 313 270.45 313 205.95 313 205.95 209 241.95 209 241.95 172.05 315.95 172.05 315.95 209 424.95 209 424.95 313 M18 304 L18 227 57 227 57 279 73.35 228.15 73.35 190 94 190 94 226.75 150.65 226.75 169.3 283.2 169.3 304 18 304 M18.05 281.7 L57.05 281.7 18.05 277.35 18.05 281.7 M277.85 242.95 Q277.4 243.45 277.4 244.05 L277.4 249.95 Q277.4 250.55 277.85 251 278.3 251.5 278.95 251.5 L279 251.5 Q279.6 251.5 280.05 251 280.55 250.55 280.55 249.95 L280.55 244.05 Q280.55 243.45 280.05 242.95 279.6 242.5 279 242.5 L278.95 242.5 Q278.3 242.5 277.85 242.95 M285 242.1 Q286.5 243.9 286.7 246.15 L286.75 246.5 286.75 247 286.75 247.45 286.75 247.8 Q286.45 250.55 284.45 252.55 282.15 254.8 278.95 254.8 275.65 254.8 273.4 252.55 271.35 250.45 271.2 247.6 L271.2 247.45 271.15 247 271.2 246.5 271.25 245.9 Q271.5 243.7 273 241.95 L273.4 241.5 Q274.9 239.95 276.85 239.45 L278.95 239.2 280.5 239.35 Q282.75 239.8 284.45 241.5 L285 242.1 M288.1 237.85 L285.45 235.75 Q283.2 234.4 280.5 234.1 L278.95 234 276.85 234.15 Q274.5 234.5 272.5 235.7 271.05 236.55 269.75 237.85 266.45 241.1 266 245.5 L266 246 266 246.5 265.95 247 266 247.75 266 248.5 Q266.45 252.9 269.75 256.2 273.5 260 278.95 260 284.35 260 288.1 256.2 291.7 252.65 291.95 247.75 L291.95 247 291.95 246.5 291.95 246.45 291.95 246.3 291.95 246.25 Q291.7 241.35 288.1 237.85"/>
    <path stroke="none" fill="#879C58" d="M488.75 103.7 L449.75 103.7 488.75 99.35 488.75 103.7 M488.8 126 L488.8 133 337.5 133 337.5 126 488.8 126 M18 304 L169.3 304 169.3 311 18 311 18 304 M18.05 281.7 L18.05 277.35 57.05 281.7 18.05 281.7"/>
    <path stroke="none" fill="#889176" d="M361 434.05 L361 361 431.25 360.75 431 326 469 326 469 361 503 360.75 503 434.05 361 434.05 M147 438.05 L147 364.75 181 365 181 330 219 330 218.75 364.75 289 365 289 438.05 147 438.05 M218.75 420 L218.75 416 182 416 182 420 218.75 420 M468 412 L431.25 412 431.25 416 468 416 468 412"/>
    <path stroke="none" fill="#69705A" d="M503 434.05 L503 441 466.6 441 450.25 448.5 434.4 441 361 441 361 434.05 503 434.05 M289 438.05 L289 445 215.6 445 199.75 452.5 183.4 445 147 445 147 438.05 289 438.05"/>
    <path stroke="none" fill="#333333" d="M503 441 L503 465 361 465 361 441 434.4 441 450.25 448.5 466.6 441 503 441 M487.6 467.4 L488 503.75 452 503.75 452 467.4 487.6 467.35 487.6 467.4 M289 445 L289 469 147 469 147 445 183.4 445 199.75 452.5 215.6 445 289 445 M198 507.4 L162 507.4 162.4 471 168.5 471 196.15 471.05 196.6 471.05 198 471.05 198 507.4"/>
    <path stroke="none" fill="#A4AF8E" d="M218.75 420 L182 420 182 416 218.75 416 218.75 420 M468 412 L468 416 431.25 416 431.25 412 468 412"/>
    <path stroke="none" fill="#FFCC66" d="M287.4 313 L287.4 319 270.45 319 270.45 313 287.4 313"/>
    <path stroke="none" fill="#8BA15B" d="M288.1 237.85 Q291.7 241.35 291.95 246.25 L291.95 246.3 291.95 246.45 291.95 246.5 291.95 247 291.95 247.75 Q291.7 252.65 288.1 256.2 284.35 260 278.95 260 273.5 260 269.75 256.2 266.45 252.9 266 248.5 L266 247.75 265.95 247 266 246.5 266 246 266 245.5 Q266.45 241.1 269.75 237.85 271.05 236.55 272.5 235.7 274.5 234.5 276.85 234.15 L278.95 234 280.5 234.1 Q283.2 234.4 285.45 235.75 L288.1 237.85 M285 242.1 L284.45 241.5 Q282.75 239.8 280.5 239.35 L278.95 239.2 276.85 239.45 Q274.9 239.95 273.4 241.5 L273 241.95 Q271.5 243.7 271.25 245.9 L271.2 246.5 271.15 247 271.2 247.45 271.2 247.6 Q271.35 250.45 273.4 252.55 275.65 254.8 278.95 254.8 282.15 254.8 284.45 252.55 286.45 250.55 286.75 247.8 L286.75 247.45 286.75 247 286.75 246.5 286.7 246.15 Q286.5 243.9 285 242.1 M277.85 242.95 Q278.3 242.5 278.95 242.5 L279 242.5 Q279.6 242.5 280.05 242.95 280.55 243.45 280.55 244.05 L280.55 249.95 Q280.55 250.55 280.05 251 279.6 251.5 279 251.5 L278.95 251.5 Q278.3 251.5 277.85 251 277.4 250.55 277.4 249.95 L277.4 244.05 Q277.4 243.45 277.85 242.95"/>
    <path stroke="none" fill="#D4946B" d="M34.95 131.9 L34.95 75 108.95 75 108.95 1 182.95 1 182.95 75 330.95 75 330.95 132 256.95 132 256.95 131.9 240.15 125.3 Q230.9 121.5 229.45 111.65 229.1 109.25 227.55 107.7 224.4 104.55 219.9 104.75 L215.8 104.95 215.6 104.95 Q213.95 104.95 212.7 108.2 L211.9 111 202.3 109.8 195.95 89.75 Q192.55 79.1 182.95 83.15 L182.95 83 Q163.5 92.1 147.2 87.75 130.15 83 108.95 83 99.75 82.5 95.95 89.75 L89.6 109.8 80 111 79.2 108.2 Q77.95 104.95 76.3 104.95 L76.1 104.95 72 104.75 Q67.5 104.55 64.35 107.7 62.8 109.25 62.45 111.65 61 121.5 51.75 125.3 L34.95 131.9 M153.75 121.65 L154.55 121.75 Q161.3 123 167.75 129.4 L168.15 130.15 167.9 130.95 167.25 132 166.55 132.5 165.65 132.5 Q162.15 130.95 158.85 129.85 155.6 128.75 152.55 128.1 L150.45 127.65 Q147.55 127.25 147.05 126.1 146.65 125.6 146.7 125 L151.5 124.15 Q153.75 123.25 153.75 122.05 L153.75 121.9 153.75 121.65 M169.35 100.65 L168.7 102.4 Q168.45 103.1 167.7 103.45 L166.25 103.5 Q161.35 101.7 154.8 101.45 154.05 101.4 153.5 100.9 153 100.25 153 99.5 L153.05 97.65 Q153.05 96.85 153.65 96.3 154.2 95.75 155 95.8 162.6 96.05 168.25 98.2 169 98.5 169.3 99.2 169.6 99.9 169.35 100.65 M136.5 95.8 Q137.3 95.75 137.85 96.3 138.45 96.85 138.45 97.65 L138.5 99.5 Q138.5 100.25 138 100.9 137.45 101.4 136.7 101.45 130.15 101.7 125.25 103.5 L123.8 103.45 Q123.05 103.1 122.8 102.4 L122.15 100.65 Q121.9 99.9 122.2 99.2 122.5 98.5 123.25 98.2 128.9 96.05 136.5 95.8 M138.25 121.7 L138.2 121.9 138.2 122.05 Q138.2 123.25 140.55 124.15 142.65 124.95 145.5 125 L145.15 126.1 Q144.65 127.25 141.75 127.65 134.6 128.95 126.55 132.5 L125.65 132.5 124.95 132 124.3 130.95 Q123.95 130.65 124.05 130.15 124.1 129.75 124.45 129.4 130.9 123 137.65 121.75 L138.25 121.7"/>
  </g>
</svg>