# Alias OBJ Model File
# Exported from SketchUp, (c) 2000-2012 Trimble Navigation Limited
# File units = meters

mtllib watercraftPack_004.mtl

g Mesh1 Group1 Model

usemtl Dark_metal
v -0.368645 4.51195e-016 4.55621
vt 48.4813 160.244
vn -0.131871 -0.924604 0.357376
v 0 0.414 5.76334
vt 78.5497 203.032
v -0.614408 0.414 5.53662
vt 52.7661 203.032
f 1/1/1 2/2/1 3/3/1

v 0 3.20593e-031 4.69223
vt 63.9514 160.244
f 2/2/1 1/1/1 4/4/1

vt 14.5136 -179.378
vn -4.75194e-031 -1 -1.20223e-017
v 0.842449 4.51195e-016 -4.05509
vt -33.1673 159.649
vt 5.99779e-060 -184.734
f 1/5/2 5/6/2 4/7/2

v -0.842449 4.51195e-016 4.05509
vt 33.1673 -159.649
f 6/8/2 5/6/2 1/5/2

v -0.842449 4.51195e-016 -4.05509
vt 33.1673 159.649
f 5/6/2 6/8/2 7/9/2

v -1.40408 0.414 4.70143
vt 185.095 54.1674
vn -0.593353 -0.804942 -4.34019e-019
vt -159.649 26.6977
vt 159.649 26.6977
f 8/10/3 7/11/3 6/12/3

v -1.40408 0.414 -4.05509
vt -159.649 54.1674
f 7/11/3 8/10/3 9/13/3

vt 185.095 47.3251
vn -0.779631 -0.626239 9.66032e-020
v -1.84747 0.966 -4.05509
vt -159.649 75.2002
vt -159.649 47.3251
f 8/14/4 10/15/4 9/16/4

v -1.84747 0.966 5.09638
vt 200.645 75.2002
f 10/15/4 8/14/4 11/17/4

vt 96.5182 133.632
vn -0.494854 -0.732261 0.467882
v -0.808431 0.966 6.19532
vt 155.366 165.543
vt 95.8239 165.543
f 8/18/5 12/19/5 11/20/5

vt 141.77 133.632
f 12/19/5 8/18/5 3/21/5

vt 93.2193 120.334
vn -0.317529 -0.899467 0.300222
vt 141.77 157.633
vt 96.5182 157.633
f 6/22/6 3/23/6 8/24/6

vt 120.371 120.334
f 3/23/6 6/22/6 1/25/6

vt 52.7661 175.992
vn -0.21719 -0.778709 0.588593
v 0 0.966 6.49363
vt 88.503 210.631
vt 54.5773 210.631
f 3/26/7 13/27/7 12/28/7

vt 78.5497 175.992
f 13/27/7 3/26/7 2/29/7

v 0.614408 0.414 5.53662
vt -52.7661 175.992
vn 0.21719 -0.778709 0.588593
vt -88.503 210.631
vt -78.5497 175.992
f 14/30/8 13/31/8 2/32/8

v 0.808431 0.966 6.19532
vt -54.5773 210.631
f 13/31/8 14/30/8 15/33/8

v 1.40408 0.414 4.70143
vt -96.5182 133.632
vn 0.494854 -0.732261 0.467882
vt -155.366 165.543
vt -141.77 133.632
f 16/34/9 15/35/9 14/36/9

v 1.84748 0.966 5.09638
vt -95.8239 165.543
f 15/35/9 16/34/9 17/37/9

vt -185.095 47.3251
vn 0.779631 -0.626239 -2.70199e-016
v 1.84748 0.966 -4.05509
vt 159.649 75.2002
vt -200.645 75.2002
f 16/38/10 18/39/10 17/40/10

v 1.40408 0.414 -4.05509
vt 159.649 47.3251
f 18/39/10 16/38/10 19/41/10

v 0.842449 4.51195e-016 4.05509
vn 0.593353 -0.804942 -7.80149e-016
vt 159.649 54.1674
vt -185.095 54.1674
f 20/11/11 19/42/11 16/43/11

f 19/42/11 20/11/11 5/12/11

v 0.368645 4.51195e-016 4.55621
vt -14.5136 -179.378
vt -33.1673 -159.649
f 21/44/2 5/6/2 20/45/2

f 4/7/2 5/6/2 21/44/2

vt -48.4813 160.244
vn 0.131871 -0.924604 0.357376
vt -78.5497 203.032
vt -63.9514 160.244
f 21/46/12 2/47/12 4/48/12

vt -52.7661 203.032
f 2/47/12 21/46/12 14/49/12

vt -93.2193 120.334
vn 0.317529 -0.899467 0.300222
vt -141.77 157.633
vt -120.371 120.334
f 20/50/13 14/51/13 21/52/13

vt -96.5182 157.633
f 14/51/13 20/50/13 16/53/13

vt -33.1673 1.77636e-014
vn 0 0 -1
vt 55.2788 16.2992
vt -55.2788 16.2992
f 5/54/14 9/55/14 19/56/14

vt 33.1673 1.77636e-014
f 9/55/14 5/54/14 7/57/14

vt 72.7352 38.0315
f 10/58/14 19/56/14 9/55/14

vt -72.7352 38.0315
f 19/56/14 10/58/14 18/59/14

usemtl Grey_metal_1
vt -72.7352 159.649
vn -4.45766e-017 -1 -5.38018e-018
vt 72.7352 -200.645
vt 72.7352 159.649
f 18/60/15 11/61/15 10/62/15

vt 31.828 -243.91
f 11/61/15 18/60/15 12/63/15

vt 1.69532e-015 -255.655
f 12/63/15 18/60/15 13/64/15

vt -31.828 -243.91
f 13/64/15 18/60/15 15/65/15

vt -72.7352 -200.645
f 15/65/15 18/60/15 17/66/15

usemtl Red_metal
vt 159.649 21.2792
vn 0.976 0.21777 -3.0675e-016
v 1.7551 1.38 5.0141
vt -197.405 37.9792
vt -200.645 21.2792
f 18/67/16 22/68/16 17/69/16

v 1.7551 1.38 -4.05509
vt 159.649 37.9792
f 22/68/16 18/67/16 23/70/16

vn 5.37808e-030 3.1e-015 -1
v 1.16108 1.104 -4.05509
vt -45.7117 43.4646
vt -69.0985 54.3307
f 18/59/17 24/71/17 23/72/17

v -1.16108 1.104 -4.05509
vt 45.7117 43.4646
f 24/71/17 18/59/17 25/73/17

f 10/58/17 25/73/17 18/59/17

v -1.7551 1.38 -4.05509
vt 69.0985 54.3307
f 25/73/17 10/58/17 26/74/17

vt -159.649 21.2792
vn -0.976 0.21777 -2.72707e-019
v -1.7551 1.38 5.0141
vt 197.405 37.9792
vt -159.649 37.9792
f 10/75/18 27/76/18 26/77/18

vt 200.645 21.2792
f 27/76/18 10/75/18 11/78/18

vt 95.8239 -18.1346
vn -0.69624 0.286184 0.658292
v -0.76801 1.38 6.05809
vt 152.534 -1.12388
vt 95.9685 -1.12388
f 11/79/19 28/80/19 27/81/19

vt 155.366 -18.1346
f 28/80/19 11/79/19 12/82/19

vt 54.5773 -42.223
vn -0.327276 0.325948 0.886932
v 0 1.38 6.34149
vt 86.4294 -24.9823
vt 54.2 -24.9823
f 12/83/20 29/84/20 28/85/20

vt 88.503 -42.223
f 29/84/20 12/83/20 13/86/20

vt -88.503 -42.223
vn 0.327276 0.325948 0.886932
v 0.76801 1.38 6.05809
vt -54.2 -24.9823
vt -86.4294 -24.9823
f 13/87/21 30/88/21 29/89/21

vt -54.5773 -42.223
f 30/88/21 13/87/21 15/90/21

vt -95.8239 -18.1346
vn 0.69624 0.286184 0.658292
vt -152.534 -1.12388
vt -155.366 -18.1346
f 17/91/22 30/92/22 15/93/22

vt -95.9685 -1.12388
f 30/92/22 17/91/22 22/94/22

v 1.5481 1.38 4.90524
vt 60.9489 -193.12
vn 2.56008e-031 1 -1.87151e-017
vt 30.2366 -238.508
vt 69.0985 -197.405
f 31/95/23 30/96/23 22/97/23

v 0.621247 1.38 5.88552
vt 24.4585 -231.713
f 32/98/23 30/96/23 31/95/23

v 0 1.38 6.11476
vt -1.39091e-029 -240.738
f 33/99/23 30/96/23 32/98/23

vt -1.39091e-029 -249.665
f 33/99/23 29/100/23 30/96/23

v -0.621247 1.38 5.88552
vt -24.4585 -231.713
f 34/101/23 29/100/23 33/99/23

vt -30.2366 -238.508
f 34/101/23 28/102/23 29/100/23

v -1.5481 1.38 4.90524
vt -60.9489 -193.12
f 35/103/23 28/102/23 34/101/23

vt -69.0985 -197.405
f 35/103/23 27/104/23 28/102/23

vt -69.0985 159.649
f 27/104/23 35/103/23 26/105/23

v -1.5481 1.38 -3.84809
vt -60.9489 151.5
f 36/106/23 26/105/23 35/103/23

v -1.16108 1.38 -4.05509
vt -45.7117 159.649
f 26/105/23 36/106/23 37/107/23

v -1.16108 1.38 -3.84809
vt -45.7117 151.5
f 37/107/23 36/106/23 38/108/23

v -1.5481 1.104 -3.84809
vt -60.9489 43.4646
vn -7.46113e-015 -3.42488e-031 1
vt -45.7117 54.3307
vt -60.9489 54.3307
f 39/109/24 38/110/24 36/111/24

v -1.16108 1.104 -3.84809
f 38/110/24 39/109/24 40/71/24

usemtl Grey_metal_1
vn 5.50854e-020 1 1.45947e-018
v -1.1341 1.104 4.99524
vt -44.6497 -196.663
f 39/106/25 41/112/25 40/108/25

v -1.5481 1.104 1.23583
vt -60.9489 -48.6548
f 42/113/25 41/112/25 39/106/25

v -1.5481 1.104 3.60189
vt -60.9489 -141.807
f 43/114/25 41/112/25 42/113/25

v -1.5481 1.104 4.90524
f 44/103/25 41/112/25 43/114/25

v -0.621247 1.104 5.88552
f 41/112/25 44/103/25 45/101/25

usemtl Red_metal
vt -98.4532 43.4646
vn 0.726632 0 -0.687027
vt -151.567 54.3307
vt -151.567 43.4646
f 44/115/26 34/116/26 45/117/26

vt -98.4532 54.3307
f 34/116/26 44/115/26 35/118/26

vt -141.807 43.4646
vn 1 0 -0
vt -193.12 54.3307
vt -193.12 43.4646
f 43/119/27 35/120/27 44/121/27

vt 151.5 54.3307
f 35/120/27 43/119/27 36/122/27

vt -48.6548 43.4646
f 36/122/27 43/119/27 42/123/27

vt 151.5 43.4646
f 36/122/27 42/123/27 39/124/27

vt -57.2687 54.3307
vn 0.346182 0 -0.938167
v 0 1.104 6.11476
vt -83.3393 43.4646
vt -57.2687 43.4646
f 34/125/28 46/126/28 45/127/28

vt -83.3393 54.3307
f 46/126/28 34/125/28 33/128/28

vt 83.3393 54.3307
vn -0.346182 0 -0.938167
v 0.621247 1.104 5.88552
vt 57.2687 43.4646
vt 83.3393 43.4646
f 33/129/29 47/130/29 46/131/29

vt 57.2687 54.3307
f 47/130/29 33/129/29 32/132/29

vt 98.4532 54.3307
vn -0.726632 0 -0.687027
vt 151.567 43.4646
vt 151.567 54.3307
f 31/133/30 47/134/30 32/135/30

v 1.5481 1.104 4.90524
vt 98.4532 43.4646
f 47/134/30 31/133/30 48/136/30

v 1.5481 1.38 -3.84809
vt -151.5 54.3307
vn -1 -9.70385e-015 2.04822e-015
vt 193.12 43.4646
vt 193.12 54.3307
f 49/137/31 48/138/31 31/139/31

v 1.5481 1.104 3.04989
vt 120.074 43.4646
f 48/138/31 49/137/31 50/140/31

v 1.5481 1.104 1.23583
vt 48.6548 43.4646
f 50/140/31 49/137/31 51/141/31

v 1.5481 1.104 -3.84809
vt -151.5 43.4646
f 51/141/31 49/137/31 52/142/31

vt 60.9489 54.3307
vn 7.46113e-015 1.0651e-031 1
v 1.16108 1.104 -3.84809
vt 60.9489 43.4646
f 49/143/32 53/73/32 52/144/32

v 1.16108 1.38 -3.84809
vt 45.7117 54.3307
f 53/73/32 49/143/32 54/145/32

vt 60.9489 151.5
v 1.16108 1.38 -4.05509
vt 45.7117 159.649
vt 45.7117 151.5
f 49/146/23 55/147/23 54/148/23

vt 69.0985 159.649
f 55/147/23 49/146/23 23/149/23

f 23/149/23 49/146/23 31/95/23

f 23/149/23 31/95/23 22/97/23

f 23/72/17 24/71/17 55/110/17

vn -1 0 -0
vt -159.649 54.3307
vt -159.649 43.4646
f 53/142/33 55/150/33 24/151/33

f 55/150/33 53/142/33 54/137/33

vn 0 1 -1.74375e-015
f 25/107/34 53/148/34 24/147/34

f 53/148/34 25/107/34 40/108/34

vt 159.649 43.4646
f 25/152/27 38/122/27 40/124/27

vt 159.649 54.3307
f 38/122/27 25/152/27 37/153/27

f 25/73/17 26/74/17 37/145/17

usemtl Grey_metal_1
v -1.1341 1.104 0.933911
vt -44.6497 -36.7682
f 40/108/25 56/154/25 53/148/25

f 56/154/25 40/108/25 41/112/25

vt 196.663 43.4646
v -1.1341 1.449 4.21524
vt 165.954 57.0472
vt 36.7682 43.4646
f 41/155/33 57/156/33 56/157/33

v -1.1341 1.449 4.99524
vt 196.663 57.0472
f 57/156/33 41/155/33 58/158/33

vt -44.6497 43.4646
vn 0 0 1
v 1.1341 1.449 4.99524
vt 44.6497 57.0472
vt -44.6497 57.0472
f 41/159/35 59/160/35 58/161/35

v 1.1341 1.104 4.99524
vt 44.6497 43.4646
f 59/160/35 41/159/35 60/162/35

vt 44.6497 -196.663
f 41/112/25 45/101/25 60/163/25

vt -2.39426e-018 -240.738
f 60/163/25 45/101/25 46/164/25

f 60/163/25 46/164/25 47/98/25

f 60/163/25 47/98/25 48/95/25

v 1.1341 1.104 0.933911
vt 44.6497 -36.7682
f 60/163/25 48/95/25 61/165/25

f 61/165/25 48/95/25 53/148/25

f 53/148/25 48/95/25 52/146/25

vt 60.9489 -48.6548
f 52/146/25 48/95/25 51/166/25

vt 60.9489 -120.074
f 51/166/25 48/95/25 50/167/25

f 53/148/25 56/154/25 61/165/25

v -1.1341 2.13831 0.933911
vt 44.6497 84.1856
vn -6.36549e-016 1.39592e-015 -1
f 62/168/36 61/159/36 56/162/36

v 1.1341 2.13831 0.933911
vt -44.6497 84.1856
f 61/159/36 62/168/36 63/169/36

usemtl Red_metal
vn 0 -1 2.13365e-015
v 1.2721 2.13831 0.813911
vt -50.0827 -32.0438
f 62/165/37 64/170/37 63/154/37

v -1.2721 2.13831 0.813911
vt 50.0827 -32.0438
f 62/165/37 65/171/37 64/170/37

v -1.2721 2.13831 5.04324
vt 50.0827 -198.553
f 65/171/37 62/165/37 66/172/37

v -1.1341 2.13831 4.21524
vt 44.6497 -165.954
f 67/173/37 66/172/37 62/165/37

v -1.0341 2.13831 4.90524
vt 40.7126 -193.12
f 68/174/37 66/172/37 67/173/37

v 1.2721 2.13831 5.04324
vt -50.0827 -198.553
f 66/172/37 68/174/37 69/175/37

v 1.0341 2.13831 4.90524
vt -40.7126 -193.12
f 69/175/37 68/174/37 70/176/37

usemtl Glass
v -1.0341 1.449 4.90524
vt -40.7126 57.0472
vt 40.7126 84.1856
vt -40.7126 84.1856
f 71/177/35 70/178/35 68/179/35

v 1.0341 1.449 4.90524
vt 40.7126 57.0472
f 70/178/35 71/177/35 72/180/35

usemtl Grey_metal_1
vn 0 1 -0
f 71/176/38 59/163/38 72/174/38

f 71/176/38 58/112/38 59/163/38

vt -44.6497 -165.954
f 58/112/38 71/176/38 57/181/38

v -1.0341 1.449 4.21524
vt -40.7126 -165.954
f 73/182/38 57/181/38 71/176/38

v -1.0341 2.13831 4.21524
f 74/179/35 57/161/35 73/177/35

f 57/161/35 74/179/35 67/169/35

usemtl Red_metal
vt 40.7126 -165.954
f 68/174/37 67/173/37 74/183/37

usemtl Dark_metal
vn -1.08616e-015 1 -1.24233e-015
f 74/182/39 62/154/39 67/181/39

f 62/154/39 74/182/39 63/165/39

v 1.0341 2.13831 4.21524
f 63/165/39 74/182/39 75/183/39

f 75/183/39 74/182/39 70/174/39

f 70/174/39 74/182/39 68/176/39

usemtl Glass
vt 165.954 84.1856
vt 193.12 57.0472
vt 193.12 84.1856
f 74/184/33 71/185/33 68/186/33

f 71/185/33 74/184/33 73/156/33

usemtl Red_metal
v 1.1341 2.13831 4.21524
f 76/181/37 70/176/37 75/182/37

f 69/175/37 70/176/37 76/181/37

f 69/175/37 76/181/37 64/170/37

f 63/154/37 64/170/37 76/181/37

usemtl Dark_metal
f 63/165/39 75/183/39 76/173/39

usemtl Grey_metal_1
v 1.0341 1.449 4.21524
f 77/180/35 76/168/35 75/178/35

v 1.1341 1.449 4.21524
f 76/168/35 77/180/35 78/160/35

f 77/183/38 59/163/38 78/173/38

f 72/174/38 59/163/38 77/183/38

usemtl Glass
vt -165.954 57.0472
vt -193.12 84.1856
vt -193.12 57.0472
f 77/187/27 70/188/27 72/189/27

vt -165.954 84.1856
f 70/188/27 77/187/27 75/190/27

usemtl Grey_metal_1
vt -196.663 57.0472
vt -36.7682 43.4646
f 59/191/27 61/192/27 78/187/27

vt -196.663 43.4646
f 61/192/27 59/191/27 60/193/27

f 78/187/27 61/192/27 76/190/27

vt -36.7682 84.1856
f 76/190/27 61/192/27 63/194/27

usemtl Red_metal
vt -32.0438 84.1856
v 1.2721 2.41431 5.04324
vt -198.553 95.0517
vt -198.553 84.1856
f 64/195/27 79/196/27 69/197/27

v 1.2721 2.41431 0.951911
vt -37.4768 95.0517
f 79/196/27 64/195/27 80/198/27

v 1.2721 2.27631 0.813911
vt -32.0438 89.6186
f 80/198/27 64/195/27 81/199/27

vt -50.0827 84.1856
v -1.2721 2.27631 0.813911
vt 50.0827 89.6186
vt -50.0827 89.6186
f 64/200/14 82/201/14 81/202/14

vt 50.0827 84.1856
f 82/201/14 64/200/14 65/203/14

vt 32.0438 84.1856
v -1.2721 2.41431 0.951911
vt 37.4768 95.0517
vt 32.0438 89.6186
f 65/204/33 83/205/33 82/206/33

vt 198.553 84.1856
f 66/207/33 83/205/33 65/204/33

v -1.2721 2.41431 5.04324
vt 198.553 95.0517
f 83/205/33 66/207/33 84/208/33

vt 50.0827 95.0517
vt -50.0827 95.0517
f 66/200/35 79/209/35 84/210/35

f 79/209/35 66/200/35 69/203/35

vn 0 1 -2.20562e-015
vt -50.0827 -37.4768
f 79/172/40 83/211/40 84/175/40

vt 50.0827 -37.4768
f 83/211/40 79/172/40 80/212/40

vt -50.0827 93.7118
vn 0 0.707107 -0.707107
vt 50.0827 86.0283
vt 50.0827 93.7118
f 80/213/41 82/214/41 83/215/41

vt -50.0827 86.0283
f 82/214/41 80/213/41 81/216/41

usemtl Grey_metal_1
vt 36.7682 84.1856
f 62/217/33 57/156/33 67/184/33

f 56/157/33 57/156/33 62/217/33

