# Alias OBJ Model File
# Exported from SketchUp, (c) 2000-2012 Trimble Navigation Limited
# File units = meters

mtllib watercraftPack_017.mtl

g Mesh1 Group1 Model

usemtl Dark_metal
v -0.8925 0.6 -0.70147
vt 35.1378 23.622
vn 0 0 -1
v 0.6783 0.2 -0.70147
vt -26.7047 7.87402
v -0.6783 0.2 -0.70147
vt 26.7047 7.87402
f 1/1/1 2/2/1 3/3/1

v 0.8925 0.6 -0.70147
vt -35.1378 23.622
f 2/2/1 1/1/1 4/4/1

usemtl Red_metal
v -0.847875 0.8 -0.70147
vt 33.3809 31.4961
f 5/5/1 4/4/1 1/1/1

v 0.847875 0.8 -0.70147
vt -33.3809 31.4961
f 4/4/1 5/5/1 6/6/1

v -0.551119 0.9 -0.70147
vt 21.6976 35.4331
f 6/6/1 5/5/1 7/7/1

vt -27.6169 -21.5754
vn -0.319334 0.947642 -2.56561e-018
v -0.551119 0.9 1.18011
vt 46.4608 -9.24658
vt -27.6169 -9.24658
f 5/8/2 8/9/2 7/10/2

v -0.847875 0.8 1.39641
vt 54.9766 -21.5754
f 8/9/2 5/8/2 9/11/2

vt -27.6169 15.4032
vn -0.976 0.21777 4.78118e-019
vt 54.9766 23.4708
vt -27.6169 23.4708
f 1/12/3 9/13/3 5/14/3

v -0.8925 0.6 1.45603
vt 57.324 15.4032
f 9/13/3 1/12/3 10/15/3

usemtl Dark_metal
vt -27.6169 37.4119
vn -0.881559 -0.472075 2.04573e-018
v -0.6783 0.2 1.16983
vt 46.0563 19.548
vt 57.324 37.4119
f 1/16/4 11/17/4 10/18/4

vt -27.6169 19.548
f 11/17/4 1/16/4 3/19/4

v -0.40698 0 -0.70147
vt -27.6169 12.8975
vn -0.593353 -0.804942 -0
vt 46.0563 26.1678
vt -27.6169 26.1678
f 12/20/5 11/21/5 3/22/5

v -0.40698 0 0.70147
vt 27.6169 12.8975
f 11/21/5 12/20/5 13/23/5

v 0.40698 0 -0.70147
vt -16.0228 27.6169
vn 0 -1 -0
vt 16.0228 -27.6169
vt 16.0228 27.6169
f 14/24/6 13/25/6 12/26/6

v -0.178089 0 1.0646
vt 7.01139 -41.9133
f 13/25/6 14/24/6 15/27/6

v 0 0 1.16317
vt 0 -45.7941
f 15/27/6 14/24/6 16/28/6

v 0.178089 0 1.0646
vt -7.01139 -41.9133
f 16/28/6 14/24/6 17/29/6

v 0.40698 0 0.70147
vt -16.0228 -27.6169
f 17/29/6 14/24/6 18/30/6

vt 27.6169 26.1678
vn 0.593353 -0.804942 -3.02697e-018
f 2/31/7 18/20/7 14/23/7

v 0.6783 0.2 1.16983
vt -46.0563 26.1678
f 18/20/7 2/31/7 19/32/7

vt 27.6169 37.4119
vn 0.881559 -0.472075 3.0686e-018
vt -46.0563 19.548
vt 27.6169 19.548
f 4/33/8 19/34/8 2/35/8

v 0.8925 0.6 1.45603
vt -57.324 37.4119
f 19/34/8 4/33/8 20/36/8

usemtl Red_metal
vt 27.6169 15.4032
vn 0.976 0.21777 8.28738e-019
v 0.847875 0.8 1.39641
vt -54.9766 23.4708
vt -57.324 15.4032
f 4/37/9 21/38/9 20/39/9

vt 27.6169 23.4708
f 21/38/9 4/37/9 6/40/9

v 0.551119 0.9 -0.70147
vt 27.6169 -9.24658
vn 0.319334 0.947642 2.92427e-019
vt -54.9766 -21.5754
vt 27.6169 -21.5754
f 22/41/10 21/42/10 6/43/10

v 0.551119 0.9 -0.0494775
vt 1.94793 -9.24658
f 23/44/10 21/42/10 22/41/10

v 0.551119 0.9 0.96056
vt -37.8173 -9.24658
f 24/45/10 21/42/10 23/44/10

v 0.551119 0.9 1.18011
vt -46.4608 -9.24658
f 21/42/10 24/45/10 25/46/10

usemtl Glass
v 0.413339 1.1995 0.96056
vt -37.8173 36.1016
vn 0.908481 0.417927 5.96576e-017
vt -46.4608 23.1223
vt -37.8173 23.1223
f 26/47/11 25/48/11 24/49/11

v 0.180872 1.1995 1.32936
vt -40.4782 16.3656
vn 0.66703 0.615055 0.42045
vt -27.7343 1.41104
vt -23.3147 16.3656
f 27/50/12 25/51/12 26/52/12

v 0.241162 0.9 1.67184
vt -50.619 1.41104
f 25/51/12 27/50/12 28/53/12

v 0 1.1995 1.42947
vt -27.2538 -4.60419
vn 0.326085 0.739315 0.589137
vt -23.5676 -22.1155
vt -19.1148 -4.60419
f 29/54/13 28/55/13 27/56/13

v 0 0.9 1.80532
vt -34.4196 -22.1155
f 28/55/13 29/54/13 30/57/13

v -0.180872 1.1995 1.32936
vt 19.1148 -4.60419
vn -0.326085 0.739315 0.589137
vt 34.4196 -22.1155
vt 27.2538 -4.60419
f 31/58/14 30/59/14 29/60/14

v -0.241162 0.9 1.67184
vt 23.5676 -22.1155
f 30/59/14 31/58/14 32/61/14

vt 40.4782 16.3656
vn -0.66703 0.615055 0.42045
vt 27.7343 1.41104
vt 50.619 1.41104
f 31/62/15 8/63/15 32/64/15

v -0.413339 1.1995 0.96056
vt 23.3147 16.3656
f 8/63/15 31/62/15 33/65/15

vt -7.12094 -52.3371
vn 0 1 -0
vt 16.2732 -37.8173
vt -16.2732 -37.8173
f 31/66/16 26/67/16 33/68/16

vt 0 -56.2785
f 26/67/16 31/66/16 29/69/16

vt 7.12094 -52.3371
f 26/67/16 29/69/16 27/70/16

usemtl Grey_metal_1
v -0.413339 1.1995 0.200523
vt -16.2732 -7.89459
f 26/67/16 34/71/16 33/68/16

v 0.413339 1.1995 0.200523
vt 16.2732 -7.89459
f 34/71/16 26/67/16 35/72/16

vn 0.908481 0.417927 2.39948e-018
vt 1.94793 23.1223
vt -7.89459 36.1016
f 26/47/17 23/73/17 35/74/17

f 23/73/17 26/47/17 24/49/17

vt -21.6976 25.9537
vn 1.15907e-017 0.640811 -0.767699
vt 16.2732 41.3131
vt -16.2732 41.3131
f 23/75/18 34/76/18 35/77/18

v -0.551119 0.9 -0.0494775
vt 21.6976 25.9537
f 34/76/18 23/75/18 36/78/18

usemtl Red_metal
vt 21.6976 1.94793
vt -21.6976 27.6169
vt -21.6976 1.94793
f 23/79/16 7/80/16 36/81/16

vt 21.6976 27.6169
f 7/80/16 23/79/16 22/82/16

vt -21.6976 35.4331
f 6/6/1 7/7/1 22/83/1

v -0.551119 0.9 0.96056
vt 37.8173 -9.24658
vt -1.94793 -9.24658
f 7/10/2 37/84/2 36/85/2

f 7/10/2 8/9/2 37/84/2

usemtl Glass
vt 37.8173 23.1223
vn -0.908481 0.417927 -0
vt 46.4608 23.1223
vt 37.8173 36.1016
f 37/86/19 8/87/19 33/88/19

usemtl Grey_metal_1
vt 7.89459 36.1016
vn -0.908481 0.417927 -4.79897e-018
f 34/89/20 37/86/20 33/88/20

vt -1.94793 23.1223
f 37/86/20 34/89/20 36/90/20

usemtl Red_metal
vt 27.7343 -32.2784
vn -0.222748 0.964712 0.140405
v -0.371019 0.8 2.15292
vt 63.9156 -47.2306
vt 50.619 -32.2784
f 8/91/21 38/92/21 32/93/21

vt 28.7083 -47.2306
f 38/92/21 8/91/21 9/94/21

vt 29.7573 2.50924
vn -0.799036 0.328438 0.503657
vt 63.9156 10.8457
vt 28.7083 10.8457
f 10/95/22 38/96/22 9/97/22

v -0.390546 0.6 2.25236
vt 66.8176 2.50924
f 38/96/22 10/95/22 39/98/22

usemtl Dark_metal
vt 29.7573 56.7677
vn -0.649501 -0.640734 0.4094
v -0.296815 0.2 1.77504
vt 52.8879 36.2561
vt 66.8176 56.7677
f 10/99/23 40/100/23 39/101/23

vt 24.7221 36.2561
f 40/100/23 10/99/23 11/102/23

vt 14.819 26.0998
vn -0.325791 -0.92287 0.205356
vt 52.8879 46.5459
vt 24.7221 46.5459
f 13/103/24 40/104/24 11/105/24

vt 31.7185 26.0998
f 40/104/24 13/103/24 15/106/24

vt 14.1628 38.434
vn -0.136814 -0.959262 0.247181
v 0 0.2 1.93933
vt 36.9745 66.3048
vt 23.6182 66.3048
f 15/107/25 41/108/25 40/109/25

vt 22.1765 38.434
f 41/108/25 15/107/25 16/110/25

vt -14.1628 38.434
vn 0.136814 -0.959262 0.247181
vt -36.9745 66.3048
vt -22.1765 38.434
f 17/111/26 41/112/26 16/113/26

v 0.296815 0.2 1.77504
vt -23.6182 66.3048
f 41/112/26 17/111/26 42/114/26

vt -14.819 26.0998
vn 0.325791 -0.92287 0.205356
vt -52.8879 46.5459
vt -31.7185 26.0998
f 18/115/27 42/116/27 17/117/27

vt -24.7221 46.5459
f 42/116/27 18/115/27 19/118/27

vt -29.7573 56.7677
vn 0.649501 -0.640734 0.4094
vt -52.8879 36.2561
vt -24.7221 36.2561
f 20/119/28 42/120/28 19/121/28

v 0.390546 0.6 2.25236
vt -66.8176 56.7677
f 42/120/28 20/119/28 43/122/28

usemtl Red_metal
vt -29.7573 2.50924
vn 0.799036 0.328438 0.503657
v 0.371019 0.8 2.15292
vt -63.9156 10.8457
vt -66.8176 2.50924
f 20/123/29 44/124/29 43/125/29

vt -28.7083 10.8457
f 44/124/29 20/123/29 21/126/29

vt -27.7343 -32.2784
vn 0.222748 0.964712 0.140405
vt -63.9156 -47.2306
vt -28.7083 -47.2306
f 25/127/30 44/128/30 21/129/30

vt -50.619 -32.2784
f 44/128/30 25/127/30 28/130/30

vt -34.4196 -53.7259
vn 0.0980256 0.979299 0.177102
vt -28.2667 -73.1755
vt -23.5676 -53.7259
f 30/131/31 44/132/31 28/133/31

v 0 0.8 2.35828
vt -44.962 -73.1755
f 44/132/31 30/131/31 45/134/31

vt 23.5676 -53.7259
vn -0.0980256 0.979299 0.177102
vt 44.962 -73.1755
vt 34.4196 -53.7259
f 32/135/32 45/136/32 30/137/32

vt 28.2667 -73.1755
f 45/136/32 32/135/32 38/138/32

vt 29.49 -15.6617
vn -0.436185 0.434414 0.788053
vt 44.962 -6.91968
vt 28.2667 -6.91968
f 39/139/33 45/140/33 38/141/33

v 0 0.6 2.46853
vt 47.064 -15.6617
f 45/140/33 39/139/33 46/142/33

usemtl Dark_metal
vt 23.6182 55.6976
vn -0.316584 -0.756718 0.571972
vt 47.064 79.7867
vt 29.49 79.7867
f 40/143/34 46/144/34 39/145/34

vt 36.9745 55.6976
f 46/144/34 40/143/34 41/146/34

vt -23.6182 55.6976
vn 0.316584 -0.756718 0.571972
vt -47.064 79.7867
vt -36.9745 55.6976
f 42/147/35 46/148/35 41/149/35

vt -29.49 79.7867
f 46/148/35 42/147/35 43/150/35

usemtl Red_metal
vt -28.2667 -6.91968
vn 0.436185 0.434414 0.788053
vt -47.064 -15.6617
vt -29.49 -15.6617
f 44/151/36 46/152/36 43/153/36

vt -44.962 -6.91968
f 46/152/36 44/151/36 45/154/36

usemtl Dark_metal
vt -16.0228 0
f 14/155/1 3/3/1 2/2/1

vt 16.0228 0
f 3/3/1 14/155/1 12/156/1

