<svg xmlns="http://www.w3.org/2000/svg" xmlns:xlink="http://www.w3.org/1999/xlink">
  <defs>
    <linearGradient gradientUnits="userSpaceOnUse" x1="-819.2" x2="819.2" spreadMethod="pad" gradientTransform="matrix(-0.00885009765625 0 0 0.013153076171875 218.75 119.7)" id="gradient0">
      <stop offset="0" stop-color="#775D36"/>
      <stop offset="1" stop-color="#957544"/>
    </linearGradient>
    <linearGradient gradientUnits="userSpaceOnUse" x1="-819.2" x2="819.2" spreadMethod="pad" gradientTransform="matrix(0.00885009765625 0 0 0.013153076171875 73.15 119.7)" id="gradient1">
      <stop offset="0" stop-color="#775D36"/>
      <stop offset="1" stop-color="#957544"/>
    </linearGradient>
  </defs>
  <g>
    <path stroke="none" fill="#191919" d="M498.95 66.05 L498.95 56.05 498.95 46.05 462.95 46.05 462.95 11.1 425.95 11.1 425.95 46.05 353.95 46.05 353.95 56.05 353.95 66.05 353.95 122.95 353.95 129.9 353.95 153.95 425.95 153.95 425.95 190.9 462.95 190.9 462.95 153.95 498.95 153.95 498.95 129.9 498.95 122.95 498.95 101 498.95 96.65 498.95 66.05 M182.95 153 L330.95 153 330.95 136 330.95 79 182.95 79 182.95 5 108.95 5 108.95 79 34.95 79 34.95 135.9 34.95 153 108.95 153 108.95 227 182.95 227 182.95 153 M420.95 306 L420.95 202 420.9 202 311.95 202 311.95 165.05 237.95 165.05 237.95 202 201.95 202 201.95 231.15 201.95 306 201.95 312 237.95 312 237.95 348.95 311.95 348.95 311.95 312 420.95 312 420.95 306 M504 418.95 L504 352 466 352 466 317.05 428 317.05 428 352 352 352 352 418.95 352 425.9 352 457.95 352 460.9 428 460.9 428 495.85 466 495.85 466 460.9 504 460.9 504 457.95 504 425.9 504 418.95 M164.95 250 L164.95 240 92.95 240 92.95 205.05 55.95 205.05 55.95 240 19.95 240 19.95 250 19.95 260 19.95 290.6 19.95 294.95 19.95 316.9 19.95 323.85 19.95 347.9 55.95 347.9 55.95 384.85 92.95 384.85 92.95 347.9 164.95 347.9 164.95 323.85 164.95 316.9 164.95 260 164.95 250 M291 429.95 L291 363 215 363 215 328.05 177 328.05 177 363 139 363 139 429.95 139 436.9 139 468.95 139 471.9 177 471.9 177 506.85 215 506.85 215 471.9 291 471.9 291 468.95 291 436.9 291 429.95 M512 512 L0 512 0 0 512 0 512 512"/>
    <path stroke="none" fill="#333333" d="M34.95 135.9 L34.95 79 108.95 79 108.95 5 182.95 5 182.95 79 330.95 79 330.95 136 256.95 136 256.95 135.9 240.15 129.3 Q230.9 125.5 229.45 115.65 229.1 113.25 227.55 111.7 224.4 108.55 219.9 108.75 L215.8 108.95 215.6 108.95 Q213.95 108.95 212.7 112.2 L211.9 115 202.3 113.8 195.95 93.75 Q192.55 83.1 182.95 87.15 L182.95 87 Q163.5 96.1 147.2 91.75 143.7 90.75 140.6 91.35 135.85 92.15 137.45 95.95 124.3 94.6 123.95 87.65 L108.95 87 Q99.75 86.5 95.95 93.75 L89.6 113.8 80 115 79.2 112.2 Q77.95 108.95 76.3 108.95 L76.1 108.95 72 108.75 Q67.5 108.55 64.35 111.7 62.8 113.25 62.45 115.65 61 125.5 51.75 129.3 L34.95 135.9 M504 425.9 L504 457.95 352 457.95 352 425.9 504 425.9 M171.95 102.75 L172 104.6 Q172 105.35 171.5 106 170.95 106.5 170.2 106.55 163.65 106.8 158.75 108.6 L157.3 108.55 Q156.55 108.2 156.3 107.5 L155.65 105.75 Q155.4 105 155.7 104.3 156 103.6 156.75 103.3 162.4 101.15 170 100.9 170.8 100.85 171.35 101.4 171.95 101.95 171.95 102.75 M167.8 119.9 Q166.35 121.45 164.2 121.45 162.1 121.45 160.55 119.9 159.05 118.45 159.05 116.3 159.05 114.15 160.55 112.65 162.1 111.15 164.2 111.15 166.35 111.15 167.8 112.65 169.35 114.15 169.35 116.3 169.35 118.45 167.8 119.9 M160.25 126.65 Q164.05 130.25 166.25 137.5 L166.25 138.15 165.85 138.65 159.75 142.65 159.2 142.8 158.6 142.6 158.25 142.1 Q155.2 132.3 150.95 128.35 L151.5 128.15 Q153.75 127.25 153.75 126.05 L153.75 125.9 Q153.7 124.45 153.15 123.2 157.2 123.75 160.25 126.65 M141.5 128.5 Q137.35 132.45 134.35 142.1 L134 142.6 133.4 142.8 132.85 142.65 126.75 138.65 126.35 138.15 126.35 137.5 Q128.65 129.9 132.75 126.3 135.4 123.95 138.85 123.3 138.3 124.5 138.2 125.9 L138.2 126.05 Q138.2 127.25 140.55 128.15 L141.5 128.5 M136.2 106.75 Q136.5 107.45 136.25 108.2 L135.6 109.95 Q135.35 110.65 134.6 111 L133.15 111.05 Q128.25 109.25 121.7 109 120.95 108.95 120.4 108.45 119.9 107.8 119.9 107.05 L119.95 105.2 Q119.95 104.4 120.55 103.85 121.1 103.3 121.9 103.35 129.5 103.6 135.15 105.75 135.9 106.05 136.2 106.75 M124 112.65 Q125.55 111.15 127.7 111.15 129.8 111.15 131.25 112.65 132.8 114.15 132.8 116.3 132.8 118.45 131.25 119.9 129.8 121.45 127.7 121.45 125.55 121.45 124 119.9 122.55 118.45 122.55 116.3 122.55 114.15 124 112.65 M291 436.9 L291 468.95 139 468.95 139 436.9 291 436.9"/>
    <path stroke="none" fill="#957544" d="M498.95 129.9 L498.95 153.95 462.95 153.95 462.95 190.9 425.95 190.9 425.95 153.95 353.95 153.95 353.95 129.9 498.95 129.9 M330.95 136 L330.95 153 182.95 153 182.95 129.55 Q177.85 140.7 172 140.35 169.2 130.1 160.25 126.65 157.2 123.75 153.15 123.2 L151.5 120.8 Q149.25 118.55 146 118.55 L145.95 118.55 Q142.8 118.55 140.55 120.8 139.45 121.95 138.85 123.3 135.4 123.95 132.75 126.3 122.9 129.5 119.95 140.35 114.05 140.7 108.95 129.35 L108.95 153 34.95 153 34.95 135.9 51.75 129.3 Q61 125.5 62.45 115.65 62.8 113.25 64.35 111.7 67.5 108.55 72 108.75 L76.1 108.95 Q71.9 109.4 69 112.2 65.9 115.3 65.9 119.7 L65.9 119.75 Q65.9 124.25 69 127.4 72 130.3 76.1 130.5 L76.3 130.5 Q77.95 130.5 79.2 127.4 80.35 124.3 80.4 119.95 L80.4 119.75 80.4 119.7 Q80.4 117.15 80 115 L89.6 113.8 95.95 93.75 Q99.75 86.5 108.95 87 L123.95 87.65 Q124.3 94.6 137.45 95.95 135.85 92.15 140.6 91.35 143.7 90.75 147.2 91.75 163.5 96.1 182.95 87 L182.95 87.15 Q192.55 83.1 195.95 93.75 L202.3 113.8 211.9 115 Q211.5 117.15 211.5 119.7 L211.5 119.75 211.5 119.95 Q211.55 124.3 212.7 127.4 213.95 130.5 215.6 130.5 L215.8 130.5 Q219.9 130.3 222.9 127.4 226 124.25 226 119.75 L226 119.7 Q226 115.3 222.9 112.2 220 109.4 215.8 108.95 L219.9 108.75 Q224.4 108.55 227.55 111.7 229.1 113.25 229.45 115.65 230.9 125.5 240.15 129.3 L256.95 135.9 256.95 136 330.95 136 M167.8 119.9 Q169.35 118.45 169.35 116.3 169.35 114.15 167.8 112.65 166.35 111.15 164.2 111.15 162.1 111.15 160.55 112.65 159.05 114.15 159.05 116.3 159.05 118.45 160.55 119.9 162.1 121.45 164.2 121.45 166.35 121.45 167.8 119.9 M171.95 102.75 Q171.95 101.95 171.35 101.4 170.8 100.85 170 100.9 162.4 101.15 156.75 103.3 156 103.6 155.7 104.3 155.4 105 155.65 105.75 L156.3 107.5 Q156.55 108.2 157.3 108.55 L158.75 108.6 Q163.65 106.8 170.2 106.55 170.95 106.5 171.5 106 172 105.35 172 104.6 L171.95 102.75 M136.2 106.75 Q135.9 106.05 135.15 105.75 129.5 103.6 121.9 103.35 121.1 103.3 120.55 103.85 119.95 104.4 119.95 105.2 L119.9 107.05 Q119.9 107.8 120.4 108.45 120.95 108.95 121.7 109 128.25 109.25 133.15 111.05 L134.6 111 Q135.35 110.65 135.6 109.95 L136.25 108.2 Q136.5 107.45 136.2 106.75 M124 112.65 Q122.55 114.15 122.55 116.3 122.55 118.45 124 119.9 125.55 121.45 127.7 121.45 129.8 121.45 131.25 119.9 132.8 118.45 132.8 116.3 132.8 114.15 131.25 112.65 129.8 111.15 127.7 111.15 125.55 111.15 124 112.65 M164.95 323.85 L164.95 347.9 92.95 347.9 92.95 384.85 55.95 384.85 55.95 347.9 19.95 347.9 19.95 323.85 164.95 323.85 M292.2 202 L274.95 227.1 257.65 202 292.2 202"/>
    <path stroke="none" fill="#85683B" d="M182.95 153 L182.95 227 108.95 227 108.95 153 108.95 129.35 Q114.05 140.7 119.95 140.35 122.9 129.5 132.75 126.3 128.65 129.9 126.35 137.5 L126.35 138.15 126.75 138.65 132.85 142.65 133.4 142.8 134 142.6 134.35 142.1 Q137.35 132.45 141.5 128.5 L145.95 129 146 129 150.95 128.35 Q155.2 132.3 158.25 142.1 L158.6 142.6 159.2 142.8 159.75 142.65 165.85 138.65 166.25 138.15 166.25 137.5 Q164.05 130.25 160.25 126.65 169.2 130.1 172 140.35 177.85 140.7 182.95 129.55 L182.95 153"/>
    <path stroke="none" fill="url(#gradient0)" d="M215.8 108.95 Q220 109.4 222.9 112.2 226 115.3 226 119.7 L226 119.75 Q226 124.25 222.9 127.4 219.9 130.3 215.8 130.5 L215.6 130.5 Q213.95 130.5 212.7 127.4 211.55 124.3 211.5 119.95 L211.5 119.75 211.5 119.7 Q211.5 117.15 211.9 115 L212.7 112.2 Q213.95 108.95 215.6 108.95 L215.8 108.95"/>
    <path stroke="none" fill="url(#gradient1)" d="M80 115 Q80.4 117.15 80.4 119.7 L80.4 119.75 80.4 119.95 Q80.35 124.3 79.2 127.4 77.95 130.5 76.3 130.5 L76.1 130.5 Q72 130.3 69 127.4 65.9 124.25 65.9 119.75 L65.9 119.7 Q65.9 115.3 69 112.2 71.9 109.4 76.1 108.95 L76.3 108.95 Q77.95 108.95 79.2 112.2 L80 115"/>
    <path stroke="none" fill="#889176" d="M353.95 56.05 L353.95 46.05 425.95 46.05 425.95 11.1 462.95 11.1 462.95 46.05 498.95 46.05 498.95 56.05 353.95 56.05 M409.05 247.95 L420.9 231.15 420.9 202 395 238.65 385.75 241.8 380.8 228.2 379.35 243.4 365.25 252 387.3 247.05 388.15 248.35 347.35 306 311.5 306 282.1 264.45 279.65 260.95 268.85 245.7 274.5 239.75 265 229.25 260.35 233.65 237.95 202 237.95 165.05 311.95 165.05 311.95 202 420.9 202 420.95 202 420.95 306 367.95 306 407.35 250.35 415.05 256.45 409.05 247.95 M201.95 306 L201.95 231.15 237.95 231.15 248 245.3 243 250 254.25 260.85 257 258.05 265.4 269.9 267.85 273.4 290.9 306 283.4 306 283.4 301 266.45 301 266.45 306 201.95 306 M378.95 378.15 Q377.55 376.7 376.1 378.15 L360.55 393.7 Q359.2 395.15 360.6 396.55 L368.7 404.7 Q370.15 406.1 371.55 404.7 L387.1 389.15 Q388.5 387.7 387.1 386.25 L378.95 378.15 M400.75 369.15 Q399 370.15 400 371.9 L411 390.95 Q412 392.65 413.75 391.65 L423.7 385.9 Q425.45 384.9 424.45 383.2 L413.45 364.15 Q412.45 362.4 410.7 363.4 405.75 366.3 400.75 369.15 M330.45 277.25 L333.05 263.85 325 274.1 319.7 271.05 317.45 250.95 314.05 270.55 303.1 278.8 318.7 277.6 327.8 282.05 321.7 295.2 333.45 285.45 349.55 289.35 330.45 277.25 M390.65 393.55 L385.6 396.45 Q383.45 397.7 384.7 399.9 L390.2 409.5 Q391.5 411.65 393.65 410.4 L398.65 407.5 Q399.75 406.9 399.9 406 400.25 405.15 399.6 404.05 L394.05 394.5 Q392.8 392.3 390.65 393.55 M477 369.4 Q478.4 367.95 477 366.5 L468.85 358.4 Q467.45 356.95 466 358.4 L450.45 373.95 Q449.1 375.4 450.5 376.8 L458.6 384.95 Q460.05 386.35 461.45 384.95 L477 369.4 M480.5 377.25 Q478.35 378.5 479.6 380.7 L485.1 390.3 Q486.4 392.45 488.55 391.2 L493.55 388.3 Q494.65 387.7 494.8 386.8 495.15 385.95 494.5 384.85 L488.95 375.3 Q487.7 373.1 485.55 374.35 L480.5 377.25 M352 418.95 L352 352 428 352 428 317.05 466 317.05 466 352 504 352 504 418.95 352 418.95 M19.95 250 L19.95 240 55.95 240 55.95 205.05 92.95 205.05 92.95 240 164.95 240 164.95 250 19.95 250 M274.95 227.1 L295.35 219.85 292.2 202 257.65 202 254.35 212.1 274.95 227.1 M285.45 237 Q284.95 237 284.5 237.4 284.1 237.85 284.1 238.35 L284.1 243.85 Q284.1 244.3 284.4 244.65 L285.1 245.15 294.85 247.95 295.6 247.95 305.35 245.15 306 244.65 306.3 243.85 306.3 238.35 305.85 237.4 304.9 237 285.45 237 M296.7 245.7 Q296.1 246.35 295.25 246.35 294.4 246.35 293.75 245.7 293.15 245.1 293.15 244.25 293.15 243.4 293.75 242.75 294.4 242.15 295.25 242.15 296.1 242.15 296.7 242.75 297.35 243.4 297.35 244.25 297.35 245.1 296.7 245.7 M307.55 252.75 Q307.55 250.75 305.55 250.75 L285.55 250.75 Q283.55 250.75 283.55 252.75 L283.55 259.25 Q283.55 261.25 285.55 261.25 L305.55 261.25 Q307.55 261.25 307.55 259.25 L307.55 252.75 M165.8 374.4 Q164.05 373.4 163.05 375.15 L152.05 394.2 Q151.05 395.9 152.8 396.9 L162.75 402.65 Q164.5 403.65 165.5 401.95 L176.5 382.9 Q177.5 381.15 175.75 380.15 L165.8 374.4 M200.05 391.55 L195 388.65 Q192.85 387.4 191.6 389.6 L186.05 399.15 Q185.4 400.25 185.75 401.1 185.9 402 187 402.6 L192 405.5 Q194.15 406.75 195.45 404.6 L200.95 395 Q202.2 392.8 200.05 391.55 M198.55 384.25 L214.1 399.8 Q215.5 401.2 216.95 399.8 L225.05 391.65 Q226.45 390.25 225.1 388.8 L209.55 373.25 Q208.1 371.8 206.7 373.25 L198.55 381.35 Q197.15 382.8 198.55 384.25 M139 429.95 L139 363 177 363 177 328.05 215 328.05 215 363 291 363 291 429.95 139 429.95 M262.15 388.4 L254 396.5 Q252.6 397.95 254 399.4 L269.55 414.95 Q270.95 416.35 272.4 414.95 L280.5 406.8 Q281.9 405.4 280.55 403.95 L265 388.4 Q263.55 386.95 262.15 388.4 M249.9 412.5 Q251.15 410.3 249 409.05 L243.95 406.15 Q241.8 404.9 240.55 407.1 L235 416.65 Q234.35 417.75 234.7 418.6 234.85 419.5 235.95 420.1 L240.95 423 Q243.1 424.25 244.4 422.1 L249.9 412.5 M177 417.95 L215 417.95 215 413.95 177 413.95 177 413.6 141 417.95 177 417.95 M466 406.95 L502 406.95 466 402.6 466 402.95 428 402.95 428 406.95 466 406.95"/>
    <path stroke="none" fill="#C6B088" d="M498.95 66.05 L498.95 96.65 462.95 101 498.95 101 498.95 122.95 353.95 122.95 353.95 66.05 498.95 66.05 M389.95 96.65 L389.95 101 425.95 101 389.95 96.65 M164.95 260 L164.95 316.9 19.95 316.9 19.95 294.95 55.95 294.95 19.95 290.6 19.95 260 164.95 260 M128.95 294.95 L128.95 290.6 92.95 294.95 128.95 294.95 M67.55 288.2 L73.65 288.2 85.65 304.45 78.75 285.8 84.2 273.15 71.25 282 61.1 282.75 59.85 268.3 54.55 282.6 38.7 287.3 61.25 288.2 65.65 301.1 67.55 288.2"/>
    <path stroke="none" fill="#A18E6D" d="M498.95 96.65 L498.95 101 462.95 101 498.95 96.65 M498.95 122.95 L498.95 129.9 353.95 129.9 353.95 122.95 498.95 122.95 M389.95 96.65 L425.95 101 389.95 101 389.95 96.65 M164.95 316.9 L164.95 323.85 19.95 323.85 19.95 316.9 164.95 316.9 M19.95 294.95 L19.95 290.6 55.95 294.95 19.95 294.95 M128.95 294.95 L92.95 294.95 128.95 290.6 128.95 294.95"/>
    <path stroke="none" fill="#97A183" d="M498.95 56.05 L498.95 66.05 353.95 66.05 353.95 56.05 498.95 56.05 M19.95 250 L164.95 250 164.95 260 19.95 260 19.95 250"/>
    <path stroke="none" fill="#694C39" d="M347.35 306 L367.95 306 420.95 306 420.95 312 311.95 312 311.95 348.95 237.95 348.95 237.95 312 201.95 312 201.95 306 266.45 306 266.45 312 283.4 312 283.4 306 290.9 306 311.5 306 347.35 306 M504 457.95 L504 460.9 466 460.9 466 495.85 428 495.85 428 460.9 352 460.9 352 457.95 504 457.95 M291 468.95 L291 471.9 215 471.9 215 506.85 177 506.85 177 471.9 139 471.9 139 468.95 291 468.95"/>
    <path stroke="none" fill="#D9C195" d="M260.35 233.65 L265 229.25 274.5 239.75 268.85 245.7 260.35 233.65 M292.2 202 L295.35 219.85 274.95 227.1 292.2 202 M274.95 227.1 L254.35 212.1 257.65 202 274.95 227.1 M257 258.05 L254.25 260.85 243 250 248 245.3 257 258.05 M307.55 252.75 L307.55 259.25 Q307.55 261.25 305.55 261.25 L285.55 261.25 Q283.55 261.25 283.55 259.25 L283.55 252.75 Q283.55 250.75 285.55 250.75 L305.55 250.75 Q307.55 250.75 307.55 252.75"/>
    <path stroke="none" fill="#747B64" d="M395 238.65 L388.15 248.35 387.3 247.05 365.25 252 379.35 243.4 380.8 228.2 385.75 241.8 395 238.65 M407.35 250.35 L409.05 247.95 415.05 256.45 407.35 250.35 M330.45 277.25 L349.55 289.35 333.45 285.45 321.7 295.2 327.8 282.05 318.7 277.6 303.1 278.8 314.05 270.55 317.45 250.95 319.7 271.05 325 274.1 333.05 263.85 330.45 277.25 M400.75 369.15 Q405.75 366.3 410.7 363.4 412.45 362.4 413.45 364.15 L424.45 383.2 Q425.45 384.9 423.7 385.9 L413.75 391.65 Q412 392.65 411 390.95 L400 371.9 Q399 370.15 400.75 369.15 M378.95 378.15 L387.1 386.25 Q388.5 387.7 387.1 389.15 L371.55 404.7 Q370.15 406.1 368.7 404.7 L360.6 396.55 Q359.2 395.15 360.55 393.7 L376.1 378.15 Q377.55 376.7 378.95 378.15 M480.5 377.25 L485.55 374.35 Q487.7 373.1 488.95 375.3 L494.5 384.85 Q495.15 385.95 494.8 386.8 494.65 387.7 493.55 388.3 L488.55 391.2 Q486.4 392.45 485.1 390.3 L479.6 380.7 Q478.35 378.5 480.5 377.25 M285.45 237 L304.9 237 305.85 237.4 306.3 238.35 306.3 243.85 306 244.65 305.35 245.15 295.6 247.95 294.85 247.95 285.1 245.15 284.4 244.65 Q284.1 244.3 284.1 243.85 L284.1 238.35 Q284.1 237.85 284.5 237.4 284.95 237 285.45 237 M296.7 245.7 Q297.35 245.1 297.35 244.25 297.35 243.4 296.7 242.75 296.1 242.15 295.25 242.15 294.4 242.15 293.75 242.75 293.15 243.4 293.15 244.25 293.15 245.1 293.75 245.7 294.4 246.35 295.25 246.35 296.1 246.35 296.7 245.7 M165.8 374.4 L175.75 380.15 Q177.5 381.15 176.5 382.9 L165.5 401.95 Q164.5 403.65 162.75 402.65 L152.8 396.9 Q151.05 395.9 152.05 394.2 L163.05 375.15 Q164.05 373.4 165.8 374.4 M198.55 384.25 Q197.15 382.8 198.55 381.35 L206.7 373.25 Q208.1 371.8 209.55 373.25 L225.1 388.8 Q226.45 390.25 225.05 391.65 L216.95 399.8 Q215.5 401.2 214.1 399.8 L198.55 384.25 M249.9 412.5 L244.4 422.1 Q243.1 424.25 240.95 423 L235.95 420.1 Q234.85 419.5 234.7 418.6 234.35 417.75 235 416.65 L240.55 407.1 Q241.8 404.9 243.95 406.15 L249 409.05 Q251.15 410.3 249.9 412.5"/>
    <path stroke="none" fill="#584030" d="M395 238.65 L420.9 202 420.9 231.15 409.05 247.95 407.35 250.35 367.95 306 347.35 306 388.15 248.35 395 238.65 M201.95 231.15 L201.95 202 237.95 202 260.35 233.65 268.85 245.7 279.65 260.95 277.75 271.85 265.4 269.9 257 258.05 248 245.3 237.95 231.15 201.95 231.15 M282.1 264.45 L311.5 306 290.9 306 267.85 273.4 280.2 275.35 282.1 264.45 M272.05 265.95 Q272.05 266.8 272.6 267.35 273.25 267.95 274.05 267.95 274.85 267.95 275.4 267.35 276.05 266.8 276.05 265.95 276.05 265.15 275.4 264.55 274.85 263.95 274.05 263.95 273.25 263.95 272.6 264.55 272.05 265.15 272.05 265.95 M268 258.2 Q267.45 258.8 267.45 259.6 267.45 260.45 268 261 268.65 261.6 269.45 261.6 270.25 261.6 270.8 261 271.45 260.45 271.45 259.6 271.45 258.8 270.8 258.2 270.25 257.6 269.45 257.6 268.65 257.6 268 258.2"/>
    <path stroke="none" fill="#4D382A" d="M268 258.2 Q268.65 257.6 269.45 257.6 270.25 257.6 270.8 258.2 271.45 258.8 271.45 259.6 271.45 260.45 270.8 261 270.25 261.6 269.45 261.6 268.65 261.6 268 261 267.45 260.45 267.45 259.6 267.45 258.8 268 258.2 M279.65 260.95 L282.1 264.45 280.2 275.35 267.85 273.4 265.4 269.9 277.75 271.85 279.65 260.95 M272.05 265.95 Q272.05 265.15 272.6 264.55 273.25 263.95 274.05 263.95 274.85 263.95 275.4 264.55 276.05 265.15 276.05 265.95 276.05 266.8 275.4 267.35 274.85 267.95 274.05 267.95 273.25 267.95 272.6 267.35 272.05 266.8 272.05 265.95"/>
    <path stroke="none" fill="#C3DAE2" d="M283.4 306 L283.4 312 266.45 312 266.45 306 266.45 301 283.4 301 283.4 306"/>
    <path stroke="none" fill="#B6A27D" d="M67.55 288.2 L65.65 301.1 61.25 288.2 38.7 287.3 54.55 282.6 59.85 268.3 61.1 282.75 71.25 282 84.2 273.15 78.75 285.8 85.65 304.45 73.65 288.2 67.55 288.2"/>
    <path stroke="none" fill="#A4AF8E" d="M390.65 393.55 Q392.8 392.3 394.05 394.5 L399.6 404.05 Q400.25 405.15 399.9 406 399.75 406.9 398.65 407.5 L393.65 410.4 Q391.5 411.65 390.2 409.5 L384.7 399.9 Q383.45 397.7 385.6 396.45 L390.65 393.55 M477 369.4 L461.45 384.95 Q460.05 386.35 458.6 384.95 L450.5 376.8 Q449.1 375.4 450.45 373.95 L466 358.4 Q467.45 356.95 468.85 358.4 L477 366.5 Q478.4 367.95 477 369.4 M200.05 391.55 Q202.2 392.8 200.95 395 L195.45 404.6 Q194.15 406.75 192 405.5 L187 402.6 Q185.9 402 185.75 401.1 185.4 400.25 186.05 399.15 L191.6 389.6 Q192.85 387.4 195 388.65 L200.05 391.55 M262.15 388.4 Q263.55 386.95 265 388.4 L280.55 403.95 Q281.9 405.4 280.5 406.8 L272.4 414.95 Q270.95 416.35 269.55 414.95 L254 399.4 Q252.6 397.95 254 396.5 L262.15 388.4 M177 413.95 L215 413.95 215 417.95 177 417.95 177 413.95 M466 402.95 L466 406.95 428 406.95 428 402.95 466 402.95"/>
    <path stroke="none" fill="#69705A" d="M466 402.95 L466 402.6 502 406.95 466 406.95 466 402.95 M504 418.95 L504 425.9 352 425.9 352 418.95 504 418.95 M139 429.95 L291 429.95 291 436.9 139 436.9 139 429.95 M177 413.95 L177 417.95 141 417.95 177 413.6 177 413.95"/>
    <path stroke="none" fill="#7E6339" d="M150.95 128.35 L146 129 145.95 129 141.5 128.5 140.55 128.15 Q138.2 127.25 138.2 126.05 L138.2 125.9 Q138.3 124.5 138.85 123.3 139.45 121.95 140.55 120.8 142.8 118.55 145.95 118.55 L146 118.55 Q149.25 118.55 151.5 120.8 L153.15 123.2 Q153.7 124.45 153.75 125.9 L153.75 126.05 Q153.75 127.25 151.5 128.15 L150.95 128.35"/>
  </g>
</svg>