<svg xmlns="http://www.w3.org/2000/svg" xmlns:xlink="http://www.w3.org/1999/xlink">
  <defs/>
  <g>
    <path stroke="none" fill="#191919" d="M498.95 88.05 L498.95 79.05 498.95 70.05 498.95 61.05 498.95 58.05 498.95 46.05 462.95 46.05 462.95 11.1 425.95 11.1 425.95 46.05 353.95 46.05 353.95 58.05 353.95 61.05 353.95 70.05 353.95 79.05 353.95 88.05 353.95 91.05 353.95 130.05 353.95 138.05 353.95 141.05 353.95 153.95 425.95 153.95 425.95 190.9 462.95 190.9 462.95 153.95 498.95 153.95 498.95 141.05 498.95 138.05 498.95 130.05 498.95 91.05 498.95 88.05 M182.95 153 L331 153 331 147 330.95 147 330.95 79 182.95 79 182.95 5 151 5 151 4.95 140.95 4.95 140.95 5 108.95 5 108.95 79 34.95 79 34.95 147 34.95 153 108.95 153 108.95 227 182.95 227 182.95 153 M420.95 226.3 L420.95 223.3 420.95 202 311.95 202 311.95 165.05 237.95 165.05 237.95 202 201.95 202 201.95 223.3 201.95 226.3 201.95 243.3 201.95 256.3 201.95 294 201.95 312 237.95 312 237.95 348.95 311.95 348.95 311.95 312 420.95 312 420.95 294 420.95 256.3 420.95 243.3 420.95 226.3 M352 366.25 L352 383.25 352 396.25 352 435.25 352 443.25 352 446.25 352 460.9 428 460.9 428 495.85 466 495.85 466 460.9 504 460.9 504 446.25 504 443.25 504 435.25 504 396.25 504 383.25 504 366.25 504 363.25 504 352 466 352 466 317.05 428 317.05 428 352 352 352 352 363.25 352 366.25 M164.95 252 L164.95 240 92.95 240 92.95 205.05 55.95 205.05 55.95 240 19.95 240 19.95 252 19.95 255 19.95 264 19.95 273 19.95 282 19.95 285 19.95 324 19.95 332 19.95 335 19.95 347.9 55.95 347.9 55.95 384.85 92.95 384.85 92.95 347.9 164.95 347.9 164.95 335 164.95 332 164.95 324 164.95 285 164.95 282 164.95 273 164.95 264 164.95 255 164.95 252 M291 374.25 L291 363 215 363 215 328.05 177 328.05 177 363 139 363 139 374.25 139 377.25 139 394.25 139 407.25 139 446.25 139 454.25 139 457.25 139 471.9 177 471.9 177 506.85 215 506.85 215 471.9 291 471.9 291 457.25 291 454.25 291 446.25 291 407.25 291 394.25 291 377.25 291 374.25 M512 512 L0 512 0 0 512 0 512 512"/>
    <path stroke="none" fill="#91A4A8" d="M330.95 147 L331 147 331 153 182.95 153 176.8 153 169.05 126.6 199.75 126.6 212 147 330.95 147 M108.95 153 L34.95 153 34.95 147 79.9 147 92.15 126.6 122.85 126.6 115.1 153 108.95 153 M140.95 5 L140.95 4.95 151 4.95 151 5 151 114.45 Q151 116.6 149.55 118.05 148.15 119.45 146 119.45 143.8 119.45 142.4 118.05 140.95 116.6 140.95 114.45 L140.95 5 M216 111.35 Q216.75 111.35 217.25 111.85 217.75 112.35 217.75 113.1 L217.75 124.85 Q217.75 125.6 217.25 126.1 216.75 126.6 216 126.6 215.25 126.6 214.75 126.1 214.25 125.6 214.25 124.85 L214.25 113.1 Q214.25 112.35 214.75 111.85 215.25 111.35 216 111.35 M221 111.35 Q221.75 111.35 222.25 111.85 222.75 112.35 222.75 113.1 L222.75 124.85 Q222.75 125.6 222.25 126.1 221.75 126.6 221 126.6 220.25 126.6 219.75 126.1 219.25 125.6 219.25 124.85 L219.25 113.1 Q219.25 112.35 219.75 111.85 220.25 111.35 221 111.35 M224.75 111.85 Q225.25 111.35 226 111.35 226.75 111.35 227.25 111.85 227.75 112.35 227.75 113.1 L227.75 124.85 Q227.75 125.6 227.25 126.1 226.75 126.6 226 126.6 225.25 126.6 224.75 126.1 224.25 125.6 224.25 124.85 L224.25 113.1 Q224.25 112.35 224.75 111.85 M67.65 113.1 L67.65 124.85 Q67.65 125.6 67.15 126.1 66.65 126.6 65.9 126.6 65.15 126.6 64.65 126.1 64.15 125.6 64.15 124.85 L64.15 113.1 Q64.15 112.35 64.65 111.85 65.15 111.35 65.9 111.35 66.65 111.35 67.15 111.85 67.65 112.35 67.65 113.1 M69.65 111.85 Q70.15 111.35 70.9 111.35 71.65 111.35 72.15 111.85 72.65 112.35 72.65 113.1 L72.65 124.85 Q72.65 125.6 72.15 126.1 71.65 126.6 70.9 126.6 70.15 126.6 69.65 126.1 69.15 125.6 69.15 124.85 L69.15 113.1 Q69.15 112.35 69.65 111.85 M77.65 113.1 L77.65 124.85 Q77.65 125.6 77.15 126.1 76.65 126.6 75.9 126.6 75.15 126.6 74.65 126.1 74.15 125.6 74.15 124.85 L74.15 113.1 Q74.15 112.35 74.65 111.85 75.15 111.35 75.9 111.35 76.65 111.35 77.15 111.85 77.65 112.35 77.65 113.1"/>
    <path stroke="none" fill="#A5BABF" d="M77.65 113.1 Q77.65 112.35 77.15 111.85 76.65 111.35 75.9 111.35 75.15 111.35 74.65 111.85 74.15 112.35 74.15 113.1 L74.15 124.85 Q74.15 125.6 74.65 126.1 75.15 126.6 75.9 126.6 76.65 126.6 77.15 126.1 77.65 125.6 77.65 124.85 L77.65 113.1 M498.95 91.05 L498.95 130.05 353.95 130.05 353.95 91.05 498.95 91.05 M498.95 141.05 L498.95 153.95 462.95 153.95 462.95 190.9 425.95 190.9 425.95 153.95 353.95 153.95 353.95 141.05 498.95 141.05 M353.95 58.05 L353.95 46.05 425.95 46.05 425.95 11.1 462.95 11.1 462.95 46.05 498.95 46.05 498.95 58.05 353.95 58.05 M182.95 153 L182.95 227 108.95 227 108.95 153 115.1 153 122.85 126.6 92.15 126.6 79.9 147 34.95 147 34.95 79 108.95 79 108.95 5 140.95 5 140.95 114.45 Q140.95 116.6 142.4 118.05 143.8 119.45 146 119.45 148.15 119.45 149.55 118.05 151 116.6 151 114.45 L151 5 182.95 5 182.95 79 330.95 79 330.95 147 212 147 199.75 126.6 169.05 126.6 176.8 153 182.95 153 M420.95 226.3 L420.95 243.3 411.95 243.3 411.95 240.55 406.95 240.55 406.95 232.55 Q406.95 229.05 405.15 226.3 L420.95 226.3 M420.95 256.3 L420.95 294 201.95 294 201.95 256.3 360.95 256.3 360.95 265.55 355.95 265.55 355.95 272.25 360.95 272.25 360.95 276.05 Q360.95 280.8 364.3 284.15 367.7 287.55 372.45 287.55 377.2 287.55 380.55 284.15 382.1 282.6 382.95 280.8 383.85 278.8 383.95 276.5 384.05 278.85 384.95 280.85 385.8 282.65 387.3 284.15 390.7 287.55 395.45 287.55 400.2 287.55 403.55 284.15 406.95 280.8 406.95 276.05 L406.95 272.25 411.95 272.25 411.95 265.55 406.95 265.55 406.95 256.3 420.95 256.3 M311.95 312 L311.95 348.95 237.95 348.95 237.95 312 311.95 312 M201.95 243.3 L201.95 226.3 267.05 226.3 259.9 233.45 Q257.8 235.55 259.9 237.7 L265.5 243.3 201.95 243.3 M201.95 223.3 L201.95 202 237.95 202 237.95 165.05 311.95 165.05 311.95 202 420.95 202 420.95 223.3 402.3 223.3 Q399.35 221.05 395.45 221.05 391.55 221.05 388.6 223.3 L379.3 223.3 Q376.35 221.05 372.45 221.05 368.55 221.05 365.6 223.3 L279.85 223.3 277.05 220.5 Q274.95 218.4 272.8 220.5 L270.05 223.3 201.95 223.3 M362.75 226.3 Q360.95 229.05 360.95 232.55 L360.95 240.55 355.95 240.55 355.95 243.3 284.4 243.3 290 237.7 Q292.1 235.55 290 233.45 L282.85 226.3 362.75 226.3 M382.95 227.8 L382.8 227.5 382.15 226.3 385.75 226.3 385.1 227.5 384.95 227.75 384.95 227.8 382.95 227.8 M352 363.25 L352 352 428 352 428 317.05 466 317.05 466 352 504 352 504 363.25 352 363.25 M452 396.25 L504 396.25 504 435.25 352 435.25 352 396.25 442 396.25 437.1 401.15 Q435.7 402.55 437.1 403.95 L445.6 412.45 Q447 413.85 448.4 412.45 L456.9 403.95 Q458.3 402.55 456.9 401.15 L452 396.25 M224.75 111.85 Q224.25 112.35 224.25 113.1 L224.25 124.85 Q224.25 125.6 224.75 126.1 225.25 126.6 226 126.6 226.75 126.6 227.25 126.1 227.75 125.6 227.75 124.85 L227.75 113.1 Q227.75 112.35 227.25 111.85 226.75 111.35 226 111.35 225.25 111.35 224.75 111.85 M221 111.35 Q220.25 111.35 219.75 111.85 219.25 112.35 219.25 113.1 L219.25 124.85 Q219.25 125.6 219.75 126.1 220.25 126.6 221 126.6 221.75 126.6 222.25 126.1 222.75 125.6 222.75 124.85 L222.75 113.1 Q222.75 112.35 222.25 111.85 221.75 111.35 221 111.35 M216 111.35 Q215.25 111.35 214.75 111.85 214.25 112.35 214.25 113.1 L214.25 124.85 Q214.25 125.6 214.75 126.1 215.25 126.6 216 126.6 216.75 126.6 217.25 126.1 217.75 125.6 217.75 124.85 L217.75 113.1 Q217.75 112.35 217.25 111.85 216.75 111.35 216 111.35 M170.7 109.9 L170.6 109.8 Q168 107.15 164.2 107.15 160.5 107.15 157.8 109.8 L157.75 109.85 Q155.05 112.5 155.05 116.3 155.05 120.15 157.75 122.75 L157.8 122.8 Q160.5 125.45 164.2 125.45 167.95 125.45 170.55 122.85 L170.75 122.65 Q173.35 120.05 173.35 116.3 173.35 112.55 170.7 109.9 M69.65 111.85 Q69.15 112.35 69.15 113.1 L69.15 124.85 Q69.15 125.6 69.65 126.1 70.15 126.6 70.9 126.6 71.65 126.6 72.15 126.1 72.65 125.6 72.65 124.85 L72.65 113.1 Q72.65 112.35 72.15 111.85 71.65 111.35 70.9 111.35 70.15 111.35 69.65 111.85 M67.65 113.1 Q67.65 112.35 67.15 111.85 66.65 111.35 65.9 111.35 65.15 111.35 64.65 111.85 64.15 112.35 64.15 113.1 L64.15 124.85 Q64.15 125.6 64.65 126.1 65.15 126.6 65.9 126.6 66.65 126.6 67.15 126.1 67.65 125.6 67.65 124.85 L67.65 113.1 M134.15 109.9 L134.05 109.8 Q131.45 107.15 127.7 107.15 123.95 107.15 121.25 109.8 L121.15 109.9 Q118.55 112.5 118.55 116.3 118.6 120.15 121.2 122.75 123.9 125.45 127.7 125.45 131.4 125.45 134 122.85 L134.2 122.65 Q136.8 120.05 136.8 116.3 136.8 112.55 134.15 109.9 M137 137.15 L154.05 137.15 Q156 137.15 157.35 135.8 158.7 134.45 158.7 132.5 L158.7 132.45 Q158.7 130.5 157.35 129.15 156 127.8 154.05 127.8 L137 127.8 Q135.05 127.8 133.7 129.15 132.35 130.5 132.35 132.45 L132.35 132.5 Q132.35 134.45 133.7 135.8 135.05 137.15 137 137.15 M19.95 252 L19.95 240 55.95 240 55.95 205.05 92.95 205.05 92.95 240 164.95 240 164.95 252 19.95 252 M164.95 285 L164.95 324 19.95 324 19.95 285 164.95 285 M164.95 335 L164.95 347.9 92.95 347.9 92.95 384.85 55.95 384.85 55.95 347.9 19.95 347.9 19.95 335 164.95 335 M139 374.25 L139 363 177 363 177 328.05 215 328.05 215 363 291 363 291 374.25 139 374.25 M291 407.25 L291 446.25 139 446.25 139 407.25 191 407.25 186.1 412.15 Q184.7 413.55 186.1 414.95 L194.6 423.45 Q196 424.85 197.4 423.45 L205.9 414.95 Q207.3 413.55 205.9 412.15 L201 407.25 291 407.25 M291 457.25 L291 471.9 215 471.9 215 506.85 177 506.85 177 471.9 139 471.9 139 457.25 291 457.25 M257.2 277.25 Q260 280.05 263.95 280.05 L285.95 280.05 Q289.9 280.05 292.65 277.25 295.45 274.5 295.45 270.55 295.45 266.6 292.65 263.8 289.9 261.05 285.95 261.05 L263.95 261.05 Q260 261.05 257.2 263.8 254.45 266.6 254.45 270.55 254.45 274.5 257.2 277.25 M504 446.25 L504 460.9 466 460.9 466 495.85 428 495.85 428 460.9 352 460.9 352 446.25 504 446.25"/>
    <path stroke="none" fill="#95A8AD" d="M498.95 88.05 L498.95 91.05 353.95 91.05 353.95 88.05 498.95 88.05 M498.95 130.05 L498.95 138.05 353.95 138.05 353.95 130.05 498.95 130.05 M353.95 79.05 L353.95 70.05 498.95 70.05 498.95 79.05 353.95 79.05 M420.95 243.3 L420.95 256.3 406.95 256.3 406.95 247.25 411.95 247.25 411.95 243.3 420.95 243.3 M420.95 294 L420.95 312 311.95 312 237.95 312 201.95 312 201.95 294 420.95 294 M201.95 256.3 L201.95 243.3 265.5 243.3 272.8 250.6 Q274.95 252.7 277.05 250.6 L284.4 243.3 355.95 243.3 355.95 247.25 360.95 247.25 360.95 256.3 201.95 256.3 M352 383.25 L504 383.25 504 396.25 452 396.25 448.4 392.65 Q447 391.25 445.6 392.65 L442 396.25 352 396.25 352 383.25 M164.95 264 L164.95 273 19.95 273 19.95 264 164.95 264 M164.95 282 L164.95 285 19.95 285 19.95 282 164.95 282 M164.95 324 L164.95 332 19.95 332 19.95 324 164.95 324 M291 394.25 L291 407.25 201 407.25 197.4 403.65 Q196 402.25 194.6 403.65 L191 407.25 139 407.25 139 394.25 291 394.25 M291 446.25 L291 454.25 139 454.25 139 446.25 291 446.25 M504 435.25 L504 443.25 352 443.25 352 435.25 504 435.25"/>
    <path stroke="none" fill="#E05848" d="M498.95 79.05 L498.95 88.05 353.95 88.05 353.95 79.05 498.95 79.05 M353.95 70.05 L353.95 61.05 498.95 61.05 498.95 70.05 353.95 70.05 M402.3 223.3 L403.55 224.4 405.15 226.3 Q406.95 229.05 406.95 232.55 L406.95 240.55 384.95 240.55 384.95 227.75 385.1 227.5 385.75 226.3 387.3 224.4 388.6 223.3 Q391.55 221.05 395.45 221.05 399.35 221.05 402.3 223.3 M406.95 247.25 L406.95 256.3 406.95 265.55 384.95 265.55 384.95 247.25 406.95 247.25 M406.95 272.25 L406.95 276.05 Q406.95 280.8 403.55 284.15 400.2 287.55 395.45 287.55 390.7 287.55 387.3 284.15 385.8 282.65 384.95 280.85 L384.95 272.25 406.95 272.25 M382.95 280.8 Q382.1 282.6 380.55 284.15 377.2 287.55 372.45 287.55 367.7 287.55 364.3 284.15 360.95 280.8 360.95 276.05 L360.95 272.25 382.95 272.25 382.95 280.8 M360.95 265.55 L360.95 256.3 360.95 247.25 382.95 247.25 382.95 265.55 360.95 265.55 M379.3 223.3 L380.55 224.4 382.15 226.3 382.8 227.5 382.95 227.8 382.95 240.55 360.95 240.55 360.95 232.55 Q360.95 229.05 362.75 226.3 L364.3 224.4 365.6 223.3 Q368.55 221.05 372.45 221.05 376.35 221.05 379.3 223.3 M402.4 228.45 Q401.4 227.45 399.95 227.45 398.5 227.45 397.5 228.45 396.5 229.45 396.5 230.9 396.5 232.35 397.5 233.35 398.5 234.35 399.95 234.35 401.4 234.35 402.4 233.35 403.4 232.35 403.4 230.9 403.4 229.45 402.4 228.45 M378.65 228.45 Q377.65 227.45 376.2 227.45 374.75 227.45 373.75 228.45 372.75 229.45 372.75 230.9 372.75 232.35 373.75 233.35 374.75 234.35 376.2 234.35 377.65 234.35 378.65 233.35 379.65 232.35 379.65 230.9 379.65 229.45 378.65 228.45 M284.4 243.3 L277.05 250.6 Q274.95 252.7 272.8 250.6 L265.5 243.3 259.9 237.7 Q257.8 235.55 259.9 233.45 L267.05 226.3 270.05 223.3 272.8 220.5 Q274.95 218.4 277.05 220.5 L279.85 223.3 282.85 226.3 290 233.45 Q292.1 235.55 290 237.7 L284.4 243.3 M352 383.25 L352 366.25 504 366.25 504 383.25 352 383.25 M167.8 119.9 Q166.35 121.45 164.2 121.45 162.1 121.45 160.55 119.9 159.05 118.45 159.05 116.3 159.05 114.15 160.55 112.65 162.1 111.15 164.2 111.15 166.35 111.15 167.8 112.65 169.35 114.15 169.35 116.3 169.35 118.45 167.8 119.9 M127.7 121.45 Q125.55 121.45 124 119.9 122.55 118.45 122.55 116.3 122.55 114.15 124 112.65 125.55 111.15 127.7 111.15 129.8 111.15 131.25 112.65 132.8 114.15 132.8 116.3 132.8 118.45 131.25 119.9 129.8 121.45 127.7 121.45 M164.95 255 L164.95 264 19.95 264 19.95 255 164.95 255 M164.95 273 L164.95 282 19.95 282 19.95 273 164.95 273 M291 377.25 L291 394.25 139 394.25 139 377.25 291 377.25 M282.45 229.05 L282.45 228.8 282.3 228.6 282.05 228.5 273.55 228.5 273.3 228.55 273.15 228.75 271.05 234.35 268.85 234.35 268.6 234.5 268.45 234.75 268.45 243.7 268.6 244 268.85 244.1 269.15 244 277.1 236.05 279.4 236.05 279.65 235.95 279.75 235.8 282.45 229.05"/>
    <path stroke="none" fill="#D2DDDF" d="M498.95 138.05 L498.95 141.05 353.95 141.05 353.95 138.05 498.95 138.05 M353.95 61.05 L353.95 58.05 498.95 58.05 498.95 61.05 353.95 61.05 M420.95 223.3 L420.95 226.3 405.15 226.3 403.55 224.4 402.3 223.3 420.95 223.3 M201.95 226.3 L201.95 223.3 270.05 223.3 267.05 226.3 201.95 226.3 M382.15 226.3 L380.55 224.4 379.3 223.3 388.6 223.3 387.3 224.4 385.75 226.3 382.15 226.3 M365.6 223.3 L364.3 224.4 362.75 226.3 282.85 226.3 279.85 223.3 365.6 223.3 M504 366.25 L352 366.25 352 363.25 504 363.25 504 366.25 M442 396.25 L445.6 392.65 Q447 391.25 448.4 392.65 L452 396.25 456.9 401.15 Q458.3 402.55 456.9 403.95 L448.4 412.45 Q447 413.85 445.6 412.45 L437.1 403.95 Q435.7 402.55 437.1 401.15 L442 396.25 M19.95 252 L164.95 252 164.95 255 19.95 255 19.95 252 M164.95 332 L164.95 335 19.95 335 19.95 332 164.95 332 M291 374.25 L291 377.25 139 377.25 139 374.25 291 374.25 M291 454.25 L291 457.25 139 457.25 139 454.25 291 454.25 M264 272 L264 269 286 269 286 272 264 272 M201 407.25 L205.9 412.15 Q207.3 413.55 205.9 414.95 L197.4 423.45 Q196 424.85 194.6 423.45 L186.1 414.95 Q184.7 413.55 186.1 412.15 L191 407.25 194.6 403.65 Q196 402.25 197.4 403.65 L201 407.25 M352 443.25 L504 443.25 504 446.25 352 446.25 352 443.25"/>
    <path stroke="none" fill="#899B9F" d="M406.95 240.55 L411.95 240.55 411.95 243.3 411.95 247.25 406.95 247.25 384.95 247.25 382.95 247.25 360.95 247.25 355.95 247.25 355.95 243.3 355.95 240.55 360.95 240.55 382.95 240.55 384.95 240.55 406.95 240.55 M360.95 272.25 L355.95 272.25 355.95 265.55 360.95 265.55 382.95 265.55 384.95 265.55 406.95 265.55 411.95 265.55 411.95 272.25 406.95 272.25 384.95 272.25 382.95 272.25 360.95 272.25"/>
    <path stroke="none" fill="#E95B4B" d="M378.65 228.45 Q379.65 229.45 379.65 230.9 379.65 232.35 378.65 233.35 377.65 234.35 376.2 234.35 374.75 234.35 373.75 233.35 372.75 232.35 372.75 230.9 372.75 229.45 373.75 228.45 374.75 227.45 376.2 227.45 377.65 227.45 378.65 228.45 M402.4 228.45 Q403.4 229.45 403.4 230.9 403.4 232.35 402.4 233.35 401.4 234.35 399.95 234.35 398.5 234.35 397.5 233.35 396.5 232.35 396.5 230.9 396.5 229.45 397.5 228.45 398.5 227.45 399.95 227.45 401.4 227.45 402.4 228.45"/>
    <path stroke="none" fill="#C94F40" d="M384.95 280.85 Q384.05 278.85 383.95 276.5 383.85 278.8 382.95 280.8 L382.95 272.25 384.95 272.25 384.95 280.85 M382.95 240.55 L382.95 227.8 384.95 227.8 384.95 227.75 384.95 240.55 382.95 240.55 M382.95 247.25 L384.95 247.25 384.95 265.55 382.95 265.55 382.95 247.25"/>
    <path stroke="none" fill="#FFFFFF" d="M170.7 109.9 Q173.35 112.55 173.35 116.3 173.35 120.05 170.75 122.65 L170.55 122.85 Q167.95 125.45 164.2 125.45 160.5 125.45 157.8 122.8 L157.75 122.75 Q155.05 120.15 155.05 116.3 155.05 112.5 157.75 109.85 L157.8 109.8 Q160.5 107.15 164.2 107.15 168 107.15 170.6 109.8 L170.7 109.9 M167.8 119.9 Q169.35 118.45 169.35 116.3 169.35 114.15 167.8 112.65 166.35 111.15 164.2 111.15 162.1 111.15 160.55 112.65 159.05 114.15 159.05 116.3 159.05 118.45 160.55 119.9 162.1 121.45 164.2 121.45 166.35 121.45 167.8 119.9 M134.15 109.9 Q136.8 112.55 136.8 116.3 136.8 120.05 134.2 122.65 L134 122.85 Q131.4 125.45 127.7 125.45 123.9 125.45 121.2 122.75 118.6 120.15 118.55 116.3 118.55 112.5 121.15 109.9 L121.25 109.8 Q123.95 107.15 127.7 107.15 131.45 107.15 134.05 109.8 L134.15 109.9 M127.7 121.45 Q129.8 121.45 131.25 119.9 132.8 118.45 132.8 116.3 132.8 114.15 131.25 112.65 129.8 111.15 127.7 111.15 125.55 111.15 124 112.65 122.55 114.15 122.55 116.3 122.55 118.45 124 119.9 125.55 121.45 127.7 121.45 M137 137.15 Q135.05 137.15 133.7 135.8 132.35 134.45 132.35 132.5 L132.35 132.45 Q132.35 130.5 133.7 129.15 135.05 127.8 137 127.8 L154.05 127.8 Q156 127.8 157.35 129.15 158.7 130.5 158.7 132.45 L158.7 132.5 Q158.7 134.45 157.35 135.8 156 137.15 154.05 137.15 L137 137.15 M282.45 229.05 L279.75 235.8 279.65 235.95 279.4 236.05 277.1 236.05 269.15 244 268.85 244.1 268.6 244 268.45 243.7 268.45 234.75 268.6 234.5 268.85 234.35 271.05 234.35 273.15 228.75 273.3 228.55 273.55 228.5 282.05 228.5 282.3 228.6 282.45 228.8 282.45 229.05"/>
    <path stroke="none" fill="#84959A" d="M257.2 277.25 Q254.45 274.5 254.45 270.55 254.45 266.6 257.2 263.8 260 261.05 263.95 261.05 L285.95 261.05 Q289.9 261.05 292.65 263.8 295.45 266.6 295.45 270.55 295.45 274.5 292.65 277.25 289.9 280.05 285.95 280.05 L263.95 280.05 Q260 280.05 257.2 277.25 M264 272 L286 272 286 269 264 269 264 272"/>
  </g>
</svg>