
<svg xmlns="http://www.w3.org/2000/svg" version="1.1" xmlns:xlink="http://www.w3.org/1999/xlink" preserveAspectRatio="none" x="0px" y="0px" width="512px" height="512px" viewBox="0 0 512 512">
<defs>
<linearGradient id="Gradient_1" gradientUnits="userSpaceOnUse" x1="65.9" y1="119.7" x2="80.4" y2="119.7" spreadMethod="pad">
<stop  offset="0%" stop-color="#EECC98"/>

<stop  offset="100%" stop-color="#FFE0B1"/>
</linearGradient>

<linearGradient id="Gradient_2" gradientUnits="userSpaceOnUse" x1="226" y1="119.7" x2="211.5" y2="119.7" spreadMethod="pad">
<stop  offset="0%" stop-color="#EECC98"/>

<stop  offset="100%" stop-color="#FFE0B1"/>
</linearGradient>

<g id="Layer0_0_FILL">
<path fill="#191919" stroke="none" d="
M 0 0
L 0 512 512 512 512 0 0 0
M 498.95 46.05
L 498.95 96.65 498.95 101 498.95 111 498.95 117.95 498.95 124.9 498.95 153.95 462.95 153.95 462.95 190.9 425.95 190.9 425.95 153.95 353.95 153.95 353.95 124.9 353.95 117.95 353.95 111 353.95 46.05 425.95 46.05 425.95 11.1 462.95 11.1 462.95 46.05 498.95 46.05
M 330.95 136
L 330.95 153 182.95 153 182.95 227 108.95 227 108.95 153 34.95 153 34.95 135.9 34.95 79 108.95 79 108.95 5 182.95 5 182.95 79 330.95 79 330.95 136
M 420.95 306
L 420.95 312 311.95 312 311.95 348.95 237.95 348.95 237.95 312 201.95 312 201.95 306 201.95 202 237.95 202 237.95 165.05 247.8 165.05 303.55 165.05 311.95 165.05 311.95 202 420.95 202 420.95 306
M 466 317.05
L 466 352 504 352 504 420.9 504 457.95 504 460.9 466 460.9 466 495.85 428 495.85 428 460.9 352 460.9 352 457.95 352 420.9 352 352 428 352 428 317.05 466 317.05
M 92.95 205.05
L 92.95 240 164.95 240 164.95 304.95 164.95 311.9 164.95 318.85 164.95 347.9 92.95 347.9 92.95 384.85 55.95 384.85 55.95 347.9 19.95 347.9 19.95 318.85 19.95 311.9 19.95 304.95 19.95 294.95 19.95 290.6 19.95 240 55.95 240 55.95 205.05 92.95 205.05
M 177 363
L 177 328.05 215 328.05 215 363 291 363 291 431.9 291 468.95 291 471.9 215 471.9 215 506.85 177 506.85 177 471.9 139 471.9 139 468.95 139 431.9 139 363 177 363 Z"/>

<path fill="#72523E" stroke="none" d="
M 291 468.95
L 291 431.9 139 431.9 139 468.95 291 468.95
M 269.15 440.45
L 270.6 438.1
Q 270.9 437.6 271.45 437.4 272 437.2 272.6 437.4 273.15 437.6 273.45 438.1
L 274.9 440.45 277.6 441.1
Q 278.15 441.25 278.55 441.75 278.9 442.2 278.9 442.8 278.85 443.35 278.5 443.85
L 276.7 445.95 276.9 448.7
Q 276.95 449.3 276.6 449.8 276.25 450.3 275.7 450.45 275.1 450.65 274.55 450.4
L 272 449.35 269.45 450.4
Q 268.9 450.65 268.35 450.45 267.75 450.3 267.45 449.8 267.1 449.3 267.1 448.7
L 267.35 445.95 265.55 443.85
Q 265.15 443.35 265.15 442.8 265.1 442.2 265.5 441.75 265.85 441.25 266.4 441.1
L 269.15 440.45
M 227.5 441.75
Q 227.85 441.25 228.4 441.1
L 231.15 440.45 232.6 438.1
Q 232.9 437.6 233.45 437.4 234 437.2 234.6 437.4 235.15 437.6 235.45 438.1
L 236.9 440.45 239.6 441.1
Q 240.15 441.25 240.55 441.75 240.9 442.2 240.9 442.8 240.85 443.35 240.5 443.85
L 238.7 445.95 238.9 448.7
Q 238.95 449.3 238.6 449.8 238.25 450.3 237.7 450.45 237.1 450.65 236.55 450.4
L 234 449.35 231.45 450.4
Q 230.9 450.65 230.35 450.45 229.75 450.3 229.45 449.8 229.1 449.3 229.1 448.7
L 229.35 445.95 227.55 443.85
Q 227.15 443.35 227.15 442.8 227.1 442.2 227.5 441.75
M 55.95 347.9
L 55.95 384.85 92.95 384.85 92.95 347.9 164.95 347.9 164.95 318.85 19.95 318.85 19.95 347.9 55.95 347.9
M 504 457.95
L 504 420.9 352 420.9 352 457.95 504 457.95
M 415.5 430.75
Q 415.9 431.2 415.85 431.8 415.85 432.35 415.45 432.85
L 413.65 434.95 413.9 437.7
Q 413.9 438.3 413.55 438.8 413.25 439.3 412.65 439.45 412.1 439.65 411.55 439.4
L 409 438.35 406.45 439.4
Q 405.9 439.65 405.3 439.45 404.75 439.3 404.4 438.8 404.05 438.3 404.1 437.7
L 404.3 434.95 402.5 432.85
Q 402.15 432.35 402.1 431.8 402.1 431.2 402.45 430.75 402.85 430.25 403.4 430.1
L 406.1 429.45 407.55 427.1
Q 407.85 426.6 408.4 426.4 409 426.2 409.55 426.4 410.1 426.6 410.4 427.1
L 411.85 429.45 414.6 430.1
Q 415.15 430.25 415.5 430.75
M 376.6 430.1
Q 377.15 430.25 377.5 430.75 377.9 431.2 377.85 431.8 377.85 432.35 377.45 432.85
L 375.65 434.95 375.9 437.7
Q 375.9 438.3 375.55 438.8 375.25 439.3 374.65 439.45 374.1 439.65 373.55 439.4
L 371 438.35 368.45 439.4
Q 367.9 439.65 367.3 439.45 366.75 439.3 366.4 438.8 366.05 438.3 366.1 437.7
L 366.3 434.95 364.5 432.85
Q 364.15 432.35 364.1 431.8 364.1 431.2 364.45 430.75 364.85 430.25 365.4 430.1
L 368.1 429.45 369.55 427.1
Q 369.85 426.6 370.4 426.4 371 426.2 371.55 426.4 372.1 426.6 372.4 427.1
L 373.85 429.45 376.6 430.1
M 247.8 165.05
L 237.95 165.05 237.95 202 201.95 202 201.95 306 254.25 306
Q 254.56015625 302.585546875 255.1 299.4 255.7810546875 295.7912109375 256.75 292.5 257.65625 289.60546875 258.8 286.95 260.37734375 283.3607421875 262.45 280.25 262.9599609375 279.4849609375 263.5 278.75
L 241.25 211.25 247.8 202 247.8 165.05
M 254.55 271.25
Q 254.8484375 271.2673828125 255.05 271.4 255.2943359375 271.5900390625 255.4 271.85
L 257.25 275.95
Q 257.4205078125 276.30546875 257.3 276.65 257.1716796875 277.0439453125 256.8 277.2
L 243.95 284.1
Q 243.7265625 284.2603515625 243.45 284.25 243.1775390625 284.2330078125 242.95 284.05 242.7185546875 283.9220703125 242.6 283.65
L 240.6 279.4
Q 240.4244140625 279.058203125 240.55 278.65 240.6865234375 278.302734375 241.05 278.1
L 254.05 271.35
Q 254.2990234375 271.239453125 254.55 271.25
M 222.45 233
L 222.45 219.4 226.8 230.05 237.55 239.9 222.45 233
M 347.95 306
L 384.45 298.25 420.95 306 420.95 202 311.95 202 311.95 165.05 303.55 165.05 303.55 202 302.1 202 308.65 211.25 286.4 278.75
Q 286.9423828125 279.484765625 287.45 280.25 288.3134765625 281.540234375 289.1 282.9 289.6828125 283.9712890625 290.2 285.05 291.9265625 288.5375 293.1 292.5 293.7779296875 294.65078125 294.25 296.95 295.221484375 301.2150390625 295.65 306
L 347.95 306
M 350 282.15
L 357.95 276.15 361.15 269.15 357.25 261.65 365.5 267.9 362.75 276.5 366.5 283.65 358.5 280.25 350 282.15
M 294.5 271.85
Q 294.6 271.6 294.8 271.45 295.05 271.25 295.3 271.25 295.6 271.25 295.85 271.4
L 308.85 278.15
Q 309.2 278.3 309.35 278.7 309.5 279.05 309.3 279.45
L 307.3 283.7
Q 307.2 283.9 306.95 284.1 306.7 284.25 306.45 284.25 306.15 284.25 305.9 284.15
L 293.05 277.25
Q 292.75 277.05 292.6 276.7 292.5 276.3 292.65 275.95
L 294.5 271.85
M 498.95 153.95
L 498.95 124.9 353.95 124.9 353.95 153.95 425.95 153.95 425.95 190.9 462.95 190.9 462.95 153.95 498.95 153.95 Z"/>

<path fill="#855F48" stroke="none" d="
M 228.4 441.1
Q 227.85 441.25 227.5 441.75 227.1 442.2 227.15 442.8 227.15 443.35 227.55 443.85
L 229.35 445.95 229.1 448.7
Q 229.1 449.3 229.45 449.8 229.75 450.3 230.35 450.45 230.9 450.65 231.45 450.4
L 234 449.35 236.55 450.4
Q 237.1 450.65 237.7 450.45 238.25 450.3 238.6 449.8 238.95 449.3 238.9 448.7
L 238.7 445.95 240.5 443.85
Q 240.85 443.35 240.9 442.8 240.9 442.2 240.55 441.75 240.15 441.25 239.6 441.1
L 236.9 440.45 235.45 438.1
Q 235.15 437.6 234.6 437.4 234 437.2 233.45 437.4 232.9 437.6 232.6 438.1
L 231.15 440.45 228.4 441.1
M 270.6 438.1
L 269.15 440.45 266.4 441.1
Q 265.85 441.25 265.5 441.75 265.1 442.2 265.15 442.8 265.15 443.35 265.55 443.85
L 267.35 445.95 267.1 448.7
Q 267.1 449.3 267.45 449.8 267.75 450.3 268.35 450.45 268.9 450.65 269.45 450.4
L 272 449.35 274.55 450.4
Q 275.1 450.65 275.7 450.45 276.25 450.3 276.6 449.8 276.95 449.3 276.9 448.7
L 276.7 445.95 278.5 443.85
Q 278.85 443.35 278.9 442.8 278.9 442.2 278.55 441.75 278.15 441.25 277.6 441.1
L 274.9 440.45 273.45 438.1
Q 273.15 437.6 272.6 437.4 272 437.2 271.45 437.4 270.9 437.6 270.6 438.1
M 291 471.9
L 291 468.95 139 468.95 139 471.9 177 471.9 177 506.85 215 506.85 215 471.9 291 471.9
M 377.5 430.75
Q 377.15 430.25 376.6 430.1
L 373.85 429.45 372.4 427.1
Q 372.1 426.6 371.55 426.4 371 426.2 370.4 426.4 369.85 426.6 369.55 427.1
L 368.1 429.45 365.4 430.1
Q 364.85 430.25 364.45 430.75 364.1 431.2 364.1 431.8 364.15 432.35 364.5 432.85
L 366.3 434.95 366.1 437.7
Q 366.05 438.3 366.4 438.8 366.75 439.3 367.3 439.45 367.9 439.65 368.45 439.4
L 371 438.35 373.55 439.4
Q 374.1 439.65 374.65 439.45 375.25 439.3 375.55 438.8 375.9 438.3 375.9 437.7
L 375.65 434.95 377.45 432.85
Q 377.85 432.35 377.85 431.8 377.9 431.2 377.5 430.75
M 415.85 431.8
Q 415.9 431.2 415.5 430.75 415.15 430.25 414.6 430.1
L 411.85 429.45 410.4 427.1
Q 410.1 426.6 409.55 426.4 409 426.2 408.4 426.4 407.85 426.6 407.55 427.1
L 406.1 429.45 403.4 430.1
Q 402.85 430.25 402.45 430.75 402.1 431.2 402.1 431.8 402.15 432.35 402.5 432.85
L 404.3 434.95 404.1 437.7
Q 404.05 438.3 404.4 438.8 404.75 439.3 405.3 439.45 405.9 439.65 406.45 439.4
L 409 438.35 411.55 439.4
Q 412.1 439.65 412.65 439.45 413.25 439.3 413.55 438.8 413.9 438.3 413.9 437.7
L 413.65 434.95 415.45 432.85
Q 415.85 432.35 415.85 431.8
M 504 460.9
L 504 457.95 352 457.95 352 460.9 428 460.9 428 495.85 466 495.85 466 460.9 504 460.9 Z"/>

<path fill="#34495E" stroke="none" d="
M 177 328.05
L 177 363 139 363 139 431.9 291 431.9 291 363 215 363 215 328.05 177 328.05
M 215 413.95
L 215 417.95 177 417.95 141 417.95 177 413.6 177 413.95 215 413.95
M 466 352
L 466 317.05 428 317.05 428 352 352 352 352 420.9 504 420.9 504 352 466 352
M 466 402.95
L 466 402.6 502 406.95 466 406.95 428 406.95 428 402.95 466 402.95 Z"/>

<path fill="#273748" stroke="none" d="
M 177 413.95
L 177 413.6 141 417.95 177 417.95 177 413.95
M 466 402.6
L 466 402.95 466 406.95 502 406.95 466 402.6 Z"/>

<path fill="#3C556D" stroke="none" d="
M 215 417.95
L 215 413.95 177 413.95 177 417.95 215 417.95
M 466 406.95
L 466 402.95 428 402.95 428 406.95 466 406.95 Z"/>

<path fill="#C9916C" stroke="none" d="
M 19.95 304.95
L 19.95 311.9 164.95 311.9 164.95 304.95 19.95 304.95
M 498.95 117.95
L 498.95 111 353.95 111 353.95 117.95 498.95 117.95 Z"/>

<path fill="#5B4231" stroke="none" d="
M 19.95 311.9
L 19.95 318.85 164.95 318.85 164.95 311.9 19.95 311.9
M 498.95 124.9
L 498.95 117.95 353.95 117.95 353.95 124.9 498.95 124.9 Z"/>

<path fill="#CB4F41" stroke="none" d="
M 19.95 290.6
L 19.95 294.95 55.95 294.95 19.95 290.6
M 38.45 247.75
L 38.45 261.35 53.55 268.25 42.8 258.4 38.45 247.75
M 128.95 294.95
L 128.95 290.6 92.95 294.95 128.95 294.95
M 139 267.25
L 130.75 261 134.65 268.5 131.45 275.5 123.5 281.5 132 279.6 140 283 136.25 275.85 139 267.25
M 498.95 101
L 498.95 96.65 462.95 101 498.95 101
M 389.95 101
L 425.95 101 389.95 96.65 389.95 101
M 375.4 86.25
L 360.3 79.35 371.05 89.2 375.4 99.85 375.4 86.25
M 460.35 61.1
L 451.85 63 443.85 59.6 447.6 66.75 444.85 75.35 453.1 81.6 449.2 74.1 452.4 67.1 460.35 61.1 Z"/>

<path fill="#E05848" stroke="none" d="
M 92.95 240
L 92.95 205.05 55.95 205.05 55.95 240 19.95 240 19.95 290.6 55.95 294.95 19.95 294.95 19.95 304.95 164.95 304.95 164.95 240 92.95 240
M 130.75 261
L 139 267.25 136.25 275.85 140 283 132 279.6 123.5 281.5 131.45 275.5 134.65 268.5 130.75 261
M 128.95 290.6
L 128.95 294.95 92.95 294.95 128.95 290.6
M 38.45 261.35
L 38.45 247.75 42.8 258.4 53.55 268.25 38.45 261.35
M 293.5 306
L 290.15 297.6
Q 273.3650390625 300.008984375 255.1 299.4 254.56015625 302.585546875 254.25 306
L 266.45 306 266.45 301 283.4 301 283.4 306 293.5 306
M 303.55 165.05
L 247.8 165.05 247.8 202
Q 259.136328125 239.0677734375 263.5 278.75 262.9599609375 279.4849609375 262.45 280.25 260.37734375 283.3607421875 258.8 286.95 268.9986328125 287.0529296875 278.6 286.3 282.0388671875 286.0455078125 285.4 285.65
L 284.85 284.3 289.1 282.9
Q 288.3134765625 281.540234375 287.45 280.25 286.9423828125 279.484765625 286.4 278.75 290.75 239.05 302.1 202
L 303.55 202 303.55 165.05
M 292.2 202
L 295.35 219.85 274.95 227.1 254.35 212.1 257.65 202 292.2 202
M 276.7 231.55
Q 276.7 230.45 277.45 229.65 278.25 228.9 279.35 228.9 280.45 228.9 281.2 229.65 282 230.45 282 231.55 282 232.65 281.2 233.4 280.45 234.2 279.35 234.2 278.25 234.2 277.45 233.4 276.7 232.65 276.7 231.55
M 282 240.05
Q 282 241.15 281.2 241.9 280.45 242.7 279.35 242.7 278.25 242.7 277.45 241.9 276.7 241.15 276.7 240.05 276.7 238.95 277.45 238.15 278.25 237.4 279.35 237.4 280.45 237.4 281.2 238.15 282 238.95 282 240.05
M 384.45 298.25
L 347.95 306 420.95 306 384.45 298.25
M 498.95 96.65
L 498.95 46.05 462.95 46.05 462.95 11.1 425.95 11.1 425.95 46.05 353.95 46.05 353.95 111 498.95 111 498.95 101 462.95 101 498.95 96.65
M 451.85 63
L 460.35 61.1 452.4 67.1 449.2 74.1 453.1 81.6 444.85 75.35 447.6 66.75 443.85 59.6 451.85 63
M 360.3 79.35
L 375.4 86.25 375.4 99.85 371.05 89.2 360.3 79.35
M 425.95 101
L 389.95 101 389.95 96.65 425.95 101 Z"/>

<path fill="#C3DAE2" stroke="none" d="
M 266.45 306
L 266.45 312 283.4 312 283.4 306 283.4 301 266.45 301 266.45 306 Z"/>

<path fill="#694B39" stroke="none" d="
M 263.5 278.75
Q 259.136328125 239.0677734375 247.8 202
L 241.25 211.25 263.5 278.75
M 308.65 211.25
L 302.1 202
Q 290.75 239.05 286.4 278.75
L 308.65 211.25 Z"/>

<path fill="#4F4F4F" stroke="none" d="
M 289.1 282.9
L 284.85 284.3 285.4 285.65 290.15 297.6 293.5 306 295.65 306
Q 295.221484375 301.2150390625 294.25 296.95 293.7779296875 294.65078125 293.1 292.5 291.9265625 288.5375 290.2 285.05 289.6828125 283.9712890625 289.1 282.9 Z"/>

<path fill="#333333" stroke="none" d="
M 258.8 286.95
Q 257.65625 289.60546875 256.75 292.5 255.7810546875 295.7912109375 255.1 299.4 273.3650390625 300.008984375 290.15 297.6
L 285.4 285.65
Q 282.0388671875 286.0455078125 278.6 286.3 268.9986328125 287.0529296875 258.8 286.95 Z"/>

<path fill="#7E5A44" stroke="none" d="
M 222.45 219.4
L 222.45 233 237.55 239.9 226.8 230.05 222.45 219.4
M 357.95 276.15
L 350 282.15 358.5 280.25 366.5 283.65 362.75 276.5 365.5 267.9 357.25 261.65 361.15 269.15 357.95 276.15 Z"/>

<path fill="#5D4232" stroke="none" d="
M 255.05 271.4
Q 254.8484375 271.2673828125 254.55 271.25 254.2990234375 271.239453125 254.05 271.35
L 241.05 278.1
Q 240.6865234375 278.302734375 240.55 278.65 240.4244140625 279.058203125 240.6 279.4
L 242.6 283.65
Q 242.7185546875 283.9220703125 242.95 284.05 243.1775390625 284.2330078125 243.45 284.25 243.7265625 284.2603515625 243.95 284.1
L 256.8 277.2
Q 257.1716796875 277.0439453125 257.3 276.65 257.4205078125 276.30546875 257.25 275.95
L 255.4 271.85
Q 255.2943359375 271.5900390625 255.05 271.4
M 294.8 271.45
Q 294.6 271.6 294.5 271.85
L 292.65 275.95
Q 292.5 276.3 292.6 276.7 292.75 277.05 293.05 277.25
L 305.9 284.15
Q 306.15 284.25 306.45 284.25 306.7 284.25 306.95 284.1 307.2 283.9 307.3 283.7
L 309.3 279.45
Q 309.5 279.05 309.35 278.7 309.2 278.3 308.85 278.15
L 295.85 271.4
Q 295.6 271.25 295.3 271.25 295.05 271.25 294.8 271.45 Z"/>

<path fill="#694C39" stroke="none" d="
M 281.2 241.9
Q 282 241.15 282 240.05 282 238.95 281.2 238.15 280.45 237.4 279.35 237.4 278.25 237.4 277.45 238.15 276.7 238.95 276.7 240.05 276.7 241.15 277.45 241.9 278.25 242.7 279.35 242.7 280.45 242.7 281.2 241.9
M 277.45 229.65
Q 276.7 230.45 276.7 231.55 276.7 232.65 277.45 233.4 278.25 234.2 279.35 234.2 280.45 234.2 281.2 233.4 282 232.65 282 231.55 282 230.45 281.2 229.65 280.45 228.9 279.35 228.9 278.25 228.9 277.45 229.65
M 420.95 312
L 420.95 306 347.95 306 295.65 306 293.5 306 283.4 306 283.4 312 266.45 312 266.45 306 254.25 306 201.95 306 201.95 312 237.95 312 237.95 348.95 311.95 348.95 311.95 312 420.95 312
M 162.95 132.6
Q 164.287890625 131.1134765625 164.9 129.15
L 164.9 129.15
Q 165.7 126.05 164.2 124.55 164.15 124.55 164.1 124.55 161.8 123 159.45 125.75 156.52578125 124.5431640625 153.75 123.75 153.7462890625 123.8279296875 153.75 123.9
L 153.75 124.05
Q 153.75 124.6076171875 153.25 125.1 152.7044921875 125.6681640625 151.5 126.15 149.25 127 146 127
L 145.95 127
Q 142.8 127 140.55 126.15 139.2974609375 125.6703125 138.7 125.1 138.3091796875 124.7099609375 138.2 124.25 136.269921875 124.91640625 134.25 125.75 131.9 123 129.6 124.55 129.55 124.55 129.5 124.55 128.25 125.8 128.6 128.15 128.6666015625 128.6333984375 128.8 129.15 129.4 131.1 130.75 132.6 130.75 132.65 130.8 132.7 133.3 134.4 136.4 134.75
L 136.4 134.8
Q 142.15390625 134.8 146.85 131.3 151.54609375 134.8 157.3 134.8
L 157.3 134.75
Q 160.4 134.4 162.9 132.7 162.95 132.65 162.95 132.6
M 122.55 116.3
Q 122.55 118.45 124 119.9 125.55 121.45 127.7 121.45 129.8 121.45 131.25 119.9 132.8 118.45 132.8 116.3 132.8 114.15 131.25 112.65 129.8 111.15 127.7 111.15 125.55 111.15 124 112.65 122.55 114.15 122.55 116.3
M 135.05 105.35
Q 134.7 104.75 133.9 104.55 128.05 103 120.45 103.6 119.7 103.65 119.2 104.25 118.65 104.9 118.75 105.7
L 118.9 107.5
Q 119 108.25 119.55 108.85 120.15 109.3 120.95 109.25 127.45 108.75 132.5 110 133.3 110.15 133.95 109.8 134.65 109.35 134.85 108.65
L 135.3 106.8
Q 135.45 106.05 135.05 105.35
M 164.2 121.45
Q 166.35 121.45 167.8 119.9 169.35 118.45 169.35 116.3 169.35 114.15 167.8 112.65 166.35 111.15 164.2 111.15 162.1 111.15 160.55 112.65 159.05 114.15 159.05 116.3 159.05 118.45 160.55 119.9 162.1 121.45 164.2 121.45
M 171.75 102.7
Q 171.35 102.1 170.55 102 162.95 101.15 157.1 102.4 156.3 102.6 155.9 103.25 155.5 103.9 155.65 104.7
L 156 106.5
Q 156.15 107.25 156.8 107.7 157.45 108.1 158.25 107.95 163.35 106.9 169.9 107.65 170.6 107.7 171.25 107.3 171.85 106.7 171.95 105.95
L 172.15 104.1
Q 172.3 103.35 171.75 102.7
M 330.95 136
L 330.95 79 182.95 79 182.95 5 108.95 5 108.95 79 34.95 79 34.95 135.9 51.75 129.3
Q 61 125.5 62.45 115.65 62.8 113.25 64.35 111.7 67.5 108.55 72 108.75 73.8 108.65 76.1 108.95
L 76.3 108.95
Q 77.95 108.95 79.2 112.2 79.7 113.5 80 115 80.4 117.15 80.4 119.7
L 80.4 119.75 84.8 115.9 88.45 118.65 89.6 113.8 95.95 93.75
Q 99.7537109375 86.49140625 108.95 87 118.1984375 87.405859375 132.85 89.6 147.5634765625 91.8357421875 155.5 93.95 163.4783203125 96.12109375 182.95 87 192.15 86.5 195.95 93.75
L 202.3 113.8 203.4 118.65 207.1 115.9 211.5 119.75 211.5 119.7
Q 211.5 117.15 211.9 115 212.2 113.5 212.7 112.2 213.95 108.95 215.6 108.95
L 215.8 108.95
Q 218.1 108.65 219.9 108.75 224.4 108.55 227.55 111.7 229.1 113.25 229.45 115.65 230.9 125.5 240.15 129.3
L 256.95 135.9 256.95 136 330.95 136 Z"/>

<path fill="#FFE0B1" stroke="none" d="
M 257.65 202
L 274.95 227.1 292.2 202 257.65 202
M 330.95 153
L 330.95 136 256.95 136 256.95 135.9 240.15 129.3
Q 230.9 125.5 229.45 115.65 229.1 113.25 227.55 111.7 224.4 108.55 219.9 108.75 218.1 108.65 215.8 108.95 220 109.4 222.9 112.2 226 115.3 226 119.7
L 226 119.75
Q 226 124.25 222.9 127.4 219.9 130.3 215.8 130.5
L 215.6 130.5
Q 213.95 130.5 212.7 127.4 211.55 124.3 211.5 119.95 211.5 119.85 211.5 119.75
L 207.1 115.9 203.4 118.65 202.3 113.8 195.95 93.75
Q 192.15 86.5 182.95 87 163.4783203125 96.12109375 155.5 93.95 147.5634765625 91.8357421875 132.85 89.6 118.1984375 87.405859375 108.95 87 99.7537109375 86.49140625 95.95 93.75
L 89.6 113.8 88.45 118.65 84.8 115.9 80.4 119.75
Q 80.4 119.85 80.4 119.95 80.35 124.3 79.2 127.4 77.95 130.5 76.3 130.5
L 76.1 130.5
Q 72 130.3 69 127.4 65.9 124.25 65.9 119.75
L 65.9 119.7
Q 65.9 115.3 69 112.2 71.9 109.4 76.1 108.95 73.8 108.65 72 108.75 67.5 108.55 64.35 111.7 62.8 113.25 62.45 115.65 61 125.5 51.75 129.3
L 34.95 135.9 34.95 153 108.95 153 108.95 129.3
Q 114.06015625 140.7125 119.95 140.35 122.2201171875 131.9853515625 128.6 128.15 128.25 125.8 129.5 124.55 129.55 124.55 129.6 124.55 131.9 123 134.25 125.75 136.269921875 124.91640625 138.2 124.25 138.2 124.16796875 138.2 124.05
L 138.2 123.9
Q 138.45 120.95 140.55 118.8 142.8 116.55 145.95 116.55
L 146 116.55
Q 149.25 116.55 151.5 118.8 153.5486328125 120.8974609375 153.75 123.75 156.52578125 124.5431640625 159.45 125.75 161.8 123 164.1 124.55 164.15 124.55 164.2 124.55 165.7 126.05 164.9 129.15
L 164.9 129.15
Q 170.0126953125 133.026953125 172 140.35 177.8380859375 140.7091796875 182.95 129.5
L 182.95 153 330.95 153
M 170.55 102
Q 171.35 102.1 171.75 102.7 172.3 103.35 172.15 104.1
L 171.95 105.95
Q 171.85 106.7 171.25 107.3 170.6 107.7 169.9 107.65 163.35 106.9 158.25 107.95 157.45 108.1 156.8 107.7 156.15 107.25 156 106.5
L 155.65 104.7
Q 155.5 103.9 155.9 103.25 156.3 102.6 157.1 102.4 162.95 101.15 170.55 102
M 167.8 119.9
Q 166.35 121.45 164.2 121.45 162.1 121.45 160.55 119.9 159.05 118.45 159.05 116.3 159.05 114.15 160.55 112.65 162.1 111.15 164.2 111.15 166.35 111.15 167.8 112.65 169.35 114.15 169.35 116.3 169.35 118.45 167.8 119.9
M 133.9 104.55
Q 134.7 104.75 135.05 105.35 135.45 106.05 135.3 106.8
L 134.85 108.65
Q 134.65 109.35 133.95 109.8 133.3 110.15 132.5 110 127.45 108.75 120.95 109.25 120.15 109.3 119.55 108.85 119 108.25 118.9 107.5
L 118.75 105.7
Q 118.65 104.9 119.2 104.25 119.7 103.65 120.45 103.6 128.05 103 133.9 104.55
M 124 119.9
Q 122.55 118.45 122.55 116.3 122.55 114.15 124 112.65 125.55 111.15 127.7 111.15 129.8 111.15 131.25 112.65 132.8 114.15 132.8 116.3 132.8 118.45 131.25 119.9 129.8 121.45 127.7 121.45 125.55 121.45 124 119.9
M 182.95 227
L 182.95 153 108.95 153 108.95 227 182.95 227 Z"/>

<path fill="#C64D3F" stroke="none" d="
M 257.65 202
L 254.35 212.1 274.95 227.1 257.65 202
M 295.35 219.85
L 292.2 202 274.95 227.1 295.35 219.85 Z"/>

<path fill="#EECC98" stroke="none" d="
M 146 116.55
L 145.95 116.55
Q 142.8 116.55 140.55 118.8 138.45 120.95 138.2 123.9
L 138.2 124.05
Q 138.2 124.16796875 138.2 124.25 138.3091796875 124.7099609375 138.7 125.1 139.2974609375 125.6703125 140.55 126.15 142.8 127 145.95 127
L 146 127
Q 149.25 127 151.5 126.15 152.7044921875 125.6681640625 153.25 125.1 153.75 124.6076171875 153.75 124.05
L 153.75 123.9
Q 153.7462890625 123.8279296875 153.75 123.75 153.5486328125 120.8974609375 151.5 118.8 149.25 116.55 146 116.55 Z"/>

<path fill="#E7E2DA" stroke="none" d="
M 164.9 129.15
Q 164.287890625 131.1134765625 162.95 132.6 162.95 132.65 162.9 132.7 160.4 134.4 157.3 134.75
L 157.3 134.8
Q 151.54609375 134.8 146.85 131.3 142.15390625 134.8 136.4 134.8
L 136.4 134.75
Q 133.3 134.4 130.8 132.7 130.75 132.65 130.75 132.6 129.4 131.1 128.8 129.15 128.6666015625 128.6333984375 128.6 128.15 122.2201171875 131.9853515625 119.95 140.35 114.06015625 140.7125 108.95 129.3
L 108.95 153 182.95 153 182.95 129.5
Q 177.8380859375 140.7091796875 172 140.35 170.0126953125 133.026953125 164.9 129.15 Z"/>

<path fill="url(#Gradient_1)" stroke="none" d="
M 76.3 108.95
L 76.1 108.95
Q 71.9 109.4 69 112.2 65.9 115.3 65.9 119.7
L 65.9 119.75
Q 65.9 124.25 69 127.4 72 130.3 76.1 130.5
L 76.3 130.5
Q 77.95 130.5 79.2 127.4 80.35 124.3 80.4 119.95 80.4 119.85 80.4 119.75
L 80.4 119.7
Q 80.4 117.15 80 115 79.7 113.5 79.2 112.2 77.95 108.95 76.3 108.95 Z"/>

<path fill="url(#Gradient_2)" stroke="none" d="
M 226 119.7
Q 226 115.3 222.9 112.2 220 109.4 215.8 108.95
L 215.6 108.95
Q 213.95 108.95 212.7 112.2 212.2 113.5 211.9 115 211.5 117.15 211.5 119.7
L 211.5 119.75
Q 211.5 119.85 211.5 119.95 211.55 124.3 212.7 127.4 213.95 130.5 215.6 130.5
L 215.8 130.5
Q 219.9 130.3 222.9 127.4 226 124.25 226 119.75
L 226 119.7 Z"/>
</g>
</defs>

<g transform="matrix( 1, 0, 0, 1, 0,0) ">
<use xlink:href="#Layer0_0_FILL"/>
</g>
</svg>
