<svg xmlns="http://www.w3.org/2000/svg" xmlns:xlink="http://www.w3.org/1999/xlink">
  <defs>
    <linearGradient gradientUnits="userSpaceOnUse" x1="-819.2" x2="819.2" spreadMethod="pad" gradientTransform="matrix(0.00885009765625 0 0 0.013153076171875 218.75 119.7)" id="gradient0">
      <stop offset="0" stop-color="#1ABC9C"/>
      <stop offset="1" stop-color="#138C74"/>
    </linearGradient>
    <linearGradient gradientUnits="userSpaceOnUse" x1="-819.2" x2="819.2" spreadMethod="pad" gradientTransform="matrix(-0.00885009765625 0 0 0.013153076171875 73.15 119.7)" id="gradient1">
      <stop offset="0" stop-color="#1ABC9C"/>
      <stop offset="1" stop-color="#138C74"/>
    </linearGradient>
  </defs>
  <g>
    <path stroke="none" fill="#191919" d="M498.95 96.65 L498.95 46.05 462.95 46.05 462.95 11.1 425.95 11.1 425.95 46.05 353.95 46.05 353.95 153.95 425.95 153.95 425.95 190.9 462.95 190.9 462.95 153.95 498.95 153.95 498.95 101 498.95 96.65 M330.95 136 L330.95 79 182.95 79 182.95 5 108.95 5 108.95 79 34.95 79 34.95 135.9 34.95 153 108.95 153 108.95 227 182.95 227 182.95 153 330.95 153 330.95 136 M420.95 292.5 L420.95 202 398.65 202 311.95 202 311.95 165.05 260.25 165.05 237.95 165.05 237.95 202 201.95 202 201.95 312 237.95 312 237.95 348.95 311.95 348.95 311.95 312 420.95 312 420.95 304.75 420.95 303.55 420.95 292.5 M352 356.85 L352 364.25 352 422.5 352 426.5 352 460.9 428 460.9 428 495.85 466 495.85 466 460.9 504 460.9 504 442 504 426.5 504 422.5 504 364.25 504 356.85 504 352 466 352 466 317.05 428 317.05 428 352 352 352 352 356.85 M164.95 270 L164.95 240 92.95 240 92.95 205.05 55.95 205.05 55.95 240 19.95 240 19.95 270 19.95 277.75 19.95 290.6 19.95 294.95 19.95 347.9 55.95 347.9 55.95 384.85 92.95 384.85 92.95 347.9 164.95 347.9 164.95 277.75 164.95 270 M139 367.85 L139 375.25 139 433.5 139 437.5 139 453 139 471.9 177 471.9 177 506.85 215 506.85 215 471.9 291 471.9 291 437.5 291 433.5 291 375.25 291 367.85 291 363 215 363 215 328.05 177 328.05 177 363 139 363 139 367.85 M512 0 L512 512 0 512 0 0 512 0"/>
    <path stroke="none" fill="#FFFFFF" d="M158.9 131.35 L159.9 129.4 Q160.15 128.95 160.55 128.8 160.95 128.55 161.4 128.65 161.9 128.7 162.2 129.05 L162.6 129.8 163.15 132.7 163.9 136.7 156.35 136.3 156.4 136.1 158.9 131.35 M140.65 135.5 L133.65 135.15 134.45 130.8 134.65 129.6 Q134.7 129.1 135.05 128.85 135.35 128.5 135.85 128.45 L136.7 128.6 137.35 129.2 137.7 129.85 140.65 135.5"/>
    <path stroke="none" fill="#333333" d="M140.65 135.5 L137.7 129.85 148.55 129.3 148.65 129.35 156.1 130.6 158.9 131.35 156.4 136.1 156.35 136.3 140.65 135.5 M163.15 132.7 L165.95 133.85 166.7 134.55 166.85 135.6 166.25 136.45 165.25 136.75 163.9 136.7 163.15 132.7 M133.65 135.15 L132.3 135.05 Q131.8 135 131.45 134.7 131.05 134.4 130.95 133.9 130.8 133.4 131 132.95 131.15 132.45 131.6 132.2 132.9 131.4 134.45 130.8 L133.65 135.15"/>
    <path stroke="none" fill="#C6B088" d="M391.7 291.05 L420.95 292.5 420.95 303.55 403.25 302.2 400.45 303.35 399.4 301.9 346.95 297.95 311.95 297.95 259.5 301.9 267.2 291.05 272.35 290.9 311.95 289.3 346.95 289.3 386.55 290.9 391.7 291.05 M420.95 304.75 L420.95 312 311.95 312 311.95 348.95 237.95 348.95 237.95 312 237.95 304.75 311.95 302.5 346.95 302.5 420.95 304.75 M352 364.25 L352 356.85 504 356.85 504 364.25 491.55 364.25 487.65 359.85 483.85 364.25 466 364.25 428 376.5 390 376.5 352 364.25 M139 375.25 L139 367.85 291 367.85 291 375.25 271.2 381.65 265.1 377.85 263.9 384 253 387.5 215 387.5 204.4 384.1 203.75 379.75 198.2 382.1 177 375.25 159.15 375.25 155.35 370.85 151.45 375.25 139 375.25 M255.65 302.2 L237.95 303.55 237.95 295.1 245.6 298.2 250.35 296.35 252 300.75 255.65 302.2"/>
    <path stroke="none" fill="#694C39" d="M398.65 202 L420.95 202 420.95 292.5 391.7 291.05 368.6 260.5 365.85 257.1 368.05 255.2 368.55 254.75 Q388.95 236 398.65 202 M237.95 312 L201.95 312 201.95 202 237.95 202 237.95 165.05 260.25 165.05 260.25 202 Q264.15 215.7 269.8 226.9 L269.75 226.9 269.65 226.95 265.8 229.75 265.65 230.1 265.65 230.5 266.05 231.25 266.25 231.5 266.6 231.5 271.2 230.1 271.3 230.05 271.4 230 Q273.75 234.25 276.35 238.2 L276.3 238.2 276.15 238.3 272.75 241.65 272.55 242.05 272.65 242.4 273.1 243.15 273.4 243.35 273.75 243.3 278.1 241.15 278.2 241.1 278.3 241.05 283.75 247.95 283.4 248.4 283.3 248.6 281.45 253.1 Q281.3 253.35 281.4 253.55 L281.6 253.85 282.3 254.35 282.65 254.45 282.95 254.2 286 250.45 290.35 254.75 290.85 255.2 293.05 257.1 290.3 260.5 267.2 291.05 259.5 301.9 258.45 303.35 255.65 302.2 252 300.75 250.35 296.35 245.6 298.2 237.95 295.1 237.95 303.55 237.95 304.75 237.95 312 M365.65 262.4 L386.55 290.9 346.95 289.3 311.95 289.3 272.35 290.9 293.25 262.4 Q301.95 267.55 311.95 269 L346.95 269 Q356.95 267.55 365.65 262.4 M19.95 270 L19.95 240 55.95 240 55.95 205.05 92.95 205.05 92.95 240 164.95 240 164.95 270 19.95 270 M69.5 253.35 L64.6 247.75 64.15 247.5 63.6 247.6 62.45 248.4 62.15 248.8 62.2 249.35 65.5 256.3 65.6 256.5 70.3 261.8 70.8 262.05 71.35 261.95 72.35 261.2 72.65 260.8 72.6 260.25 69.6 253.5 69.5 253.35"/>
    <path stroke="none" fill="#C3DAE2" d="M504 426.5 L504 442 504 460.9 466 460.9 466 495.85 428 495.85 428 460.9 352 460.9 352 426.5 428 426.5 448.5 416 466 426.5 504 426.5 M139 437.5 L177 437.5 194.5 427 215 437.5 291 437.5 291 471.9 215 471.9 215 506.85 177 506.85 177 471.9 139 471.9 139 453 139 437.5 M194.5 442.5 L215 453 253 453 215 447.5 194.5 437 177 447.5 139 453 177 453 194.5 442.5 M504 442 L466 436.5 448.5 426 428 436.5 390 442 428 442 448.5 431.5 466 442 504 442"/>
    <path stroke="none" fill="#B8A47E" d="M352 356.85 L352 352 428 352 428 317.05 466 317.05 466 352 504 352 504 356.85 352 356.85 M291 367.85 L139 367.85 139 363 177 363 177 328.05 215 328.05 215 363 291 363 291 367.85"/>
    <path stroke="none" fill="#1ABC9C" d="M498.95 101 L498.95 153.95 462.95 153.95 462.95 190.9 425.95 190.9 425.95 153.95 353.95 153.95 353.95 46.05 425.95 46.05 425.95 11.1 462.95 11.1 462.95 46.05 498.95 46.05 498.95 96.65 462.95 101 498.95 101 M410.95 65.75 Q411.5 65.15 411.5 64.4 411.5 63.6 410.95 63.05 410.4 62.5 409.6 62.5 408.8 62.5 408.25 63.05 407.7 63.6 407.7 64.4 407.7 65.15 408.25 65.75 408.8 66.3 409.6 66.3 410.4 66.3 410.95 65.75 M413.75 66.55 Q413.2 67.1 413.2 67.9 413.2 68.65 413.75 69.25 414.3 69.8 415.1 69.8 415.9 69.8 416.45 69.25 417 68.65 417 67.9 417 67.1 416.45 66.55 415.9 66 415.1 66 414.3 66 413.75 66.55 M413.6 57.3 Q414.4 57.3 414.95 56.75 415.5 56.15 415.5 55.4 415.5 54.6 414.95 54.05 414.4 53.5 413.6 53.5 412.8 53.5 412.25 54.05 411.7 54.6 411.7 55.4 411.7 56.15 412.25 56.75 412.8 57.3 413.6 57.3 M464.8 70.7 L457.55 59.05 457.35 74.7 452.2 83.45 439.65 76.2 448.35 88.75 443.1 104.35 456.8 86.45 469.8 90.25 460.35 81.3 463.8 76.3 484.05 75.75 464.8 70.7 M480.65 87.05 Q479.85 87.05 479.3 87.6 478.75 88.15 478.75 88.95 478.75 89.7 479.3 90.3 479.85 90.85 480.65 90.85 481.45 90.85 482 90.3 482.55 89.7 482.55 88.95 482.55 88.15 482 87.6 481.45 87.05 480.65 87.05 M388.85 120.75 L394.85 108.6 384.4 116.35 380.05 112.05 383.05 92.05 374.75 110.15 362 115.2 377.4 118.15 385.1 124.75 375.75 135.85 389.6 129.5 404.1 137.35 388.85 120.75 M365.8 145.55 Q365.8 144.75 365.25 144.2 364.7 143.65 363.9 143.65 363.35 143.65 362.95 143.9 L362.55 144.2 Q362 144.75 362 145.55 362 146.3 362.55 146.9 L362.95 147.2 363.9 147.45 Q364.7 147.45 365.25 146.9 365.8 146.3 365.8 145.55 M370.4 142.7 Q371.35 143.65 372.7 143.65 374.05 143.65 375 142.7 375.95 141.75 375.95 140.4 375.95 139.05 375 138.1 374.05 137.15 372.7 137.15 371.35 137.15 370.4 138.1 369.45 139.05 369.45 140.4 369.45 141.75 370.4 142.7 M366.15 129.5 Q365.35 129.5 364.8 130.05 364.25 130.6 364.25 131.4 364.25 132.15 364.8 132.75 365.35 133.3 366.15 133.3 366.95 133.3 367.5 132.75 368.05 132.15 368.05 131.4 368.05 130.6 367.5 130.05 366.95 129.5 366.15 129.5 M216.05 109 L219.9 108.75 Q224.4 108.55 227.55 111.7 232.9 117.05 230.8 125.6 L239.75 123.6 243.85 130.75 243.95 130.75 251.85 130.75 256.95 135.9 256.95 136 272.35 131.45 285.75 136.25 298.6 130.25 312.85 138 324.35 130.95 330.95 136 330.95 153 182.95 153 182.95 227 108.95 227 108.95 153 34.95 153 34.95 135.9 40.05 130.75 48.05 130.75 52.15 123.6 61.1 125.6 Q59 117.05 64.35 111.7 67.5 108.55 72 108.75 L75.85 109 Q71.9 109.4 69 112.2 65.9 115.3 65.9 119.7 L65.9 119.75 Q65.9 124.25 69 127.4 72 130.3 76.1 130.5 L76.3 130.5 Q77.95 130.5 79.2 127.4 80.35 124.3 80.4 119.95 L83.75 116.85 88.65 119.95 93.15 91.05 97.55 95.75 108.95 87.15 108.95 87 132.1 94.75 134.5 91 149.85 98.25 151 91.35 173.5 92.95 171.65 88.6 182.95 87 182.95 87.15 194.35 95.75 198.75 91.05 203.25 119.95 208.15 116.85 211.5 119.95 Q211.55 124.3 212.7 127.4 213.95 130.5 215.6 130.5 L215.8 130.5 Q219.9 130.3 222.9 127.4 226 124.25 226 119.75 L226 119.7 Q226 115.3 222.9 112.2 220 109.4 216.05 109 M440.55 136.6 Q440 137.15 440 137.95 440 138.7 440.55 139.3 441.1 139.85 441.9 139.85 442.7 139.85 443.25 139.3 443.8 138.7 443.8 137.95 443.8 137.15 443.25 136.6 442.7 136.05 441.9 136.05 441.1 136.05 440.55 136.6 M438 127.95 Q438.55 127.35 438.55 126.6 438.55 125.8 438 125.25 437.45 124.7 436.65 124.7 435.85 124.7 435.3 125.25 L434.95 125.75 434.75 126.6 434.95 127.45 435.3 127.95 Q435.85 128.5 436.65 128.5 437.45 128.5 438 127.95 M447.95 127.2 Q447.95 125.85 447 124.9 446.05 123.95 444.7 123.95 443.35 123.95 442.4 124.9 441.45 125.85 441.45 127.2 441.45 128.55 442.4 129.5 443.35 130.45 444.7 130.45 446.05 130.45 447 129.5 447.95 128.55 447.95 127.2 M447 146.75 Q446.45 146.2 445.65 146.2 444.85 146.2 444.3 146.75 443.75 147.3 443.75 148.1 443.75 148.85 444.3 149.45 444.85 150 445.65 150 446.45 150 447 149.45 447.55 148.85 447.55 148.1 447.55 147.3 447 146.75 M425.95 101 L389.95 96.65 389.95 101 425.95 101 M398.65 202 Q388.95 236 368.55 254.75 L368.05 255.2 365.85 257.1 368.6 260.5 365.65 262.4 Q356.95 267.55 346.95 269 L311.95 269 Q301.95 267.55 293.25 262.4 L290.3 260.5 293.05 257.1 290.85 255.2 290.35 254.75 286 250.45 286.15 250.25 286.2 250.15 288.2 245.35 288.2 244.95 288 244.6 287.25 244.1 286.95 244 Q286.75 244.05 286.65 244.2 L283.75 247.95 278.3 241.05 281.8 237.6 281.95 237.25 281.9 236.9 281.4 236.05 281.15 235.85 280.8 235.9 276.35 238.2 Q273.75 234.25 271.4 230 L275.35 227.15 275.55 226.85 275.55 226.45 275.1 225.6 274.9 225.3 274.5 225.3 269.8 226.9 Q264.15 215.7 260.25 202 L260.25 165.05 311.95 165.05 311.95 202 398.65 202 M504 364.25 L504 422.5 466 422.5 448.5 412 428 422.5 383.35 422.5 379.95 411.2 389.65 408.15 404.9 411.55 395.2 401.85 394.7 382 389.55 401.55 383.9 403.8 377.35 392.55 378.05 406.05 357.45 415.3 373.9 413.8 381.75 422.5 352 422.5 352 364.25 390 376.5 428 376.5 466 364.25 483.85 364.25 487.65 359.85 491.55 364.25 504 364.25 M179.7 104.85 Q178.9 104.85 178.35 105.4 177.8 105.95 177.8 106.75 177.8 107.5 178.35 108.1 178.9 108.65 179.7 108.65 180.5 108.65 181.05 108.1 181.6 107.5 181.6 106.75 181.6 105.95 181.05 105.4 180.5 104.85 179.7 104.85 M182.55 120.6 Q183.1 120 183.1 119.25 183.1 118.45 182.55 117.9 182 117.35 181.2 117.35 180.4 117.35 179.85 117.9 179.3 118.45 179.3 119.25 179.3 120 179.85 120.6 180.4 121.15 181.2 121.15 182 121.15 182.55 120.6 M168.2 113.85 L171.6 113.6 172.75 113.2 173.4 112.25 Q173.55 111.65 173.35 111.1 L171.4 106.05 Q171.2 105.45 170.7 105.1 170.15 104.8 169.55 104.85 162.3 105.45 157 110.1 156.6 110.5 156.5 111.1 156.35 111.7 156.55 112.25 L158.1 115.85 158.75 116.65 159.75 116.9 160.75 116.65 161.35 116.3 Q161.35 117.9 162.45 119 163.65 120.15 165.2 120.15 166.8 120.15 167.9 119 169.05 117.9 169.05 116.3 169.05 114.85 168.2 113.85 M177.05 114.4 Q176.5 113.85 175.7 113.85 174.9 113.85 174.35 114.4 173.8 114.95 173.8 115.75 173.8 116.5 174.35 117.1 174.9 117.65 175.7 117.65 176.5 117.65 177.05 117.1 177.6 116.5 177.6 115.75 177.6 114.95 177.05 114.4 M162.05 101.35 Q162.6 100.75 162.6 100 162.6 99.2 162.05 98.65 161.5 98.1 160.7 98.1 159.9 98.1 159.35 98.65 158.8 99.2 158.8 100 158.8 100.75 159.35 101.35 159.9 101.9 160.7 101.9 161.5 101.9 162.05 101.35 M163.15 132.7 L162.6 129.8 162.2 129.05 Q161.9 128.7 161.4 128.65 160.95 128.55 160.55 128.8 160.15 128.95 159.9 129.4 L158.9 131.35 156.1 130.6 148.65 129.35 148.55 129.3 137.7 129.85 137.35 129.2 136.7 128.6 135.85 128.45 Q135.35 128.5 135.05 128.85 134.7 129.1 134.65 129.6 L134.45 130.8 Q132.9 131.4 131.6 132.2 131.15 132.45 131 132.95 130.8 133.4 130.95 133.9 131.05 134.4 131.45 134.7 131.8 135 132.3 135.05 L133.65 135.15 140.65 135.5 156.35 136.3 163.9 136.7 165.25 136.75 166.25 136.45 166.85 135.6 166.7 134.55 165.95 133.85 163.15 132.7 M80.6 130.05 Q80.05 130.6 80.05 131.4 80.05 132.15 80.6 132.75 81.15 133.3 81.95 133.3 82.75 133.3 83.3 132.75 83.85 132.15 83.85 131.4 83.85 130.6 83.3 130.05 82.75 129.5 81.95 129.5 81.15 129.5 80.6 130.05 M130.5 115.95 L131.05 116.25 132 116.55 132.95 116.25 133.6 115.5 135.1 112 135.15 110.9 134.65 109.95 Q129.55 105.45 122.55 104.85 121.95 104.8 121.45 105.1 120.9 105.45 120.7 106.05 L118.85 110.9 Q118.65 111.45 118.8 112 118.9 112.6 119.45 112.9 119.95 113.3 120.55 113.3 L123.9 113.55 Q122.8 114.65 122.8 116.3 122.8 117.9 123.9 119 125.05 120.15 126.7 120.15 128.25 120.15 129.35 119 130.5 117.9 130.5 116.3 L130.5 115.95 M155.75 122.8 L155.75 122.6 Q155.5 118.9 152.9 116.2 150.1 113.4 145.95 113.4 142 113.4 139.1 116.2 136.5 118.9 136.15 122.6 L136.15 122.8 Q136.15 124.15 138.45 125.15 L139.1 125.4 Q141.4 126.35 144.35 126.5 L145.95 126.5 Q150.1 126.5 152.9 125.4 155.75 124.3 155.75 122.8 M115.1 147.15 Q115.1 146.35 114.55 145.8 114 145.25 113.2 145.25 112.4 145.25 111.85 145.8 111.3 146.35 111.3 147.15 111.3 147.9 111.85 148.5 112.4 149.05 113.2 149.05 114 149.05 114.55 148.5 115.1 147.9 115.1 147.15 M120.8 135.65 Q120.25 135.1 119.45 135.1 118.65 135.1 118.1 135.65 117.55 136.2 117.55 137 117.55 137.75 118.1 138.35 118.65 138.9 119.45 138.9 120.25 138.9 120.8 138.35 121.35 137.75 121.35 137 121.35 136.2 120.8 135.65 M112.85 124.3 Q112.3 124.85 112.3 125.65 112.3 126.4 112.85 127 113.4 127.55 114.2 127.55 115 127.55 115.55 127 116.1 126.4 116.1 125.65 116.1 124.85 115.55 124.3 115 123.75 114.2 123.75 113.4 123.75 112.85 124.3 M94 126.25 Q94 124.9 93.05 123.95 92.1 123 90.75 123 89.4 123 88.45 123.95 87.5 124.9 87.5 126.25 87.5 127.6 88.45 128.55 89.4 129.5 90.75 129.5 92.1 129.5 93.05 128.55 94 127.6 94 126.25 M92.3 117.25 Q92.3 118 92.85 118.6 93.4 119.15 94.2 119.15 95 119.15 95.55 118.6 96.1 118 96.1 117.25 96.1 116.45 95.55 115.9 95 115.35 94.2 115.35 93.4 115.35 92.85 115.9 92.3 116.45 92.3 117.25 M122.25 129.5 Q123.6 129.5 124.55 128.55 125.5 127.6 125.5 126.25 125.5 124.9 124.55 123.95 123.6 123 122.25 123 120.9 123 119.95 123.95 119 124.9 119 126.25 119 127.6 119.95 128.55 120.9 129.5 122.25 129.5 M164.95 277.75 L164.95 347.9 92.95 347.9 92.95 384.85 55.95 384.85 55.95 347.9 19.95 347.9 19.95 294.95 55.95 294.95 19.95 290.6 19.95 277.75 29.35 277.75 35.6 271.5 41.85 277.75 77.85 277.75 82.1 273.5 86.35 277.75 146.85 277.75 151.1 273.5 155.35 277.75 164.95 277.75 M128.95 290.6 L92.95 294.95 128.95 294.95 128.95 290.6 M135.8 286.9 Q135.8 287.65 136.35 288.25 136.9 288.8 137.7 288.8 138.5 288.8 139.05 288.25 139.6 287.65 139.6 286.9 139.6 286.1 139.05 285.55 138.5 285 137.7 285 136.9 285 136.35 285.55 135.8 286.1 135.8 286.9 M69.5 253.35 L69.6 253.5 72.6 260.25 72.65 260.8 72.35 261.2 71.35 261.95 70.8 262.05 70.3 261.8 65.6 256.5 65.5 256.3 62.2 249.35 62.15 248.8 62.45 248.4 63.6 247.6 64.15 247.5 64.6 247.75 69.5 253.35 M79.85 319.2 Q79.3 319.75 79.3 320.55 79.3 321.3 79.85 321.9 80.4 322.45 81.2 322.45 82 322.45 82.55 321.9 83.1 321.3 83.1 320.55 83.1 319.75 82.55 319.2 82 318.65 81.2 318.65 80.4 318.65 79.85 319.2 M77.45 308.5 Q76.65 308.5 76.1 309.05 75.55 309.6 75.55 310.4 75.55 311.15 76.1 311.75 76.65 312.3 77.45 312.3 78.25 312.3 78.8 311.75 79.35 311.15 79.35 310.4 79.35 309.6 78.8 309.05 78.25 308.5 77.45 308.5 M72.2 300.95 Q73 300.95 73.55 300.4 74.1 299.8 74.1 299.05 74.1 298.25 73.55 297.7 73 297.15 72.2 297.15 71.4 297.15 70.85 297.7 70.3 298.25 70.3 299.05 70.3 299.8 70.85 300.4 71.4 300.95 72.2 300.95 M77.95 301.95 Q78.9 302.9 80.25 302.9 81.6 302.9 82.55 301.95 83.5 301 83.5 299.65 83.5 298.3 82.55 297.35 81.6 296.4 80.25 296.4 78.9 296.4 77.95 297.35 77 298.3 77 299.65 77 301 77.95 301.95 M59.1 302.05 L50.8 320.15 38.05 325.2 53.45 328.15 61.15 334.75 51.8 345.85 65.65 339.5 80.15 347.35 64.9 330.75 70.9 318.6 60.45 326.35 56.1 322.05 59.1 302.05 M153.2 313.75 Q153.95 313.75 154.5 313.2 155.05 312.6 155.05 311.85 155.05 311.05 154.5 310.5 153.95 309.95 153.15 309.95 152.35 309.95 151.8 310.5 151.4 310.9 151.3 311.45 L145.8 304.85 149.65 288.8 137.6 307.85 124.3 305.2 134.5 313.3 131.45 318.6 111.35 320.9 130.95 324.2 139.15 335.25 138 319.6 142.4 310.45 155.55 316.6 153.2 313.75 M27.85 338.5 Q27.85 337.7 27.3 337.15 26.75 336.6 25.95 336.6 L25 336.85 24.6 337.15 Q24.05 337.7 24.05 338.5 24.05 339.25 24.6 339.85 L25 340.15 25.95 340.4 Q26.75 340.4 27.3 339.85 27.85 339.25 27.85 338.5 M29.55 325.7 Q30.1 325.1 30.1 324.35 30.1 323.55 29.55 323 29 322.45 28.2 322.45 27.4 322.45 26.85 323 26.3 323.55 26.3 324.35 26.3 325.1 26.85 325.7 27.4 326.25 28.2 326.25 29 326.25 29.55 325.7 M34.75 330.1 Q33.4 330.1 32.45 331.05 31.5 332 31.5 333.35 31.5 334.7 32.45 335.65 33.4 336.6 34.75 336.6 36.1 336.6 37.05 335.65 38 334.7 38 333.35 38 332 37.05 331.05 36.1 330.1 34.75 330.1 M152.75 324.35 Q152.75 325.1 153.3 325.7 153.85 326.25 154.65 326.25 155.45 326.25 156 325.7 156.55 325.1 156.55 324.35 156.55 323.55 156 323 155.45 322.45 154.65 322.45 153.85 322.45 153.3 323 152.75 323.55 152.75 324.35 M147.8 319.5 Q147.25 320.05 147.25 320.85 147.25 321.6 147.8 322.2 148.35 322.75 149.15 322.75 149.95 322.75 150.5 322.2 151.05 321.6 151.05 320.85 151.05 320.05 150.5 319.5 149.95 318.95 149.15 318.95 148.35 318.95 147.8 319.5 M139 375.25 L151.45 375.25 155.35 370.85 159.15 375.25 177 375.25 198.2 382.1 203.75 379.75 204.4 384.1 215 387.5 253 387.5 263.9 384 265.1 377.85 271.2 381.65 291 375.25 291 433.5 215 433.5 194.5 423 177 433.5 139 433.5 139 375.25 M299.1 219.35 Q298.55 219.9 298.55 220.7 298.55 221.45 299.1 222.05 299.65 222.6 300.45 222.6 301.25 222.6 301.8 222.05 302.35 221.45 302.35 220.7 302.35 219.9 301.8 219.35 301.25 218.8 300.45 218.8 299.65 218.8 299.1 219.35 M287.25 217.5 Q287.25 216.15 286.3 215.2 285.35 214.25 284 214.25 282.65 214.25 281.7 215.2 280.75 216.15 280.75 217.5 280.75 218.85 281.7 219.8 282.65 220.75 284 220.75 285.35 220.75 286.3 219.8 287.25 218.85 287.25 217.5 M300.95 228.85 Q298.8 228.25 297 228.8 295.2 229.45 294.85 230.85 294.45 232.25 295.7 233.6 297 235 299.15 235.6 301.35 236.15 303.1 235.6 304.9 235.05 305.3 233.65 305.65 232.25 304.4 230.8 303.15 229.4 300.95 228.85 M279.85 226.9 Q279.3 227.45 279.3 228.25 279.3 229 279.85 229.6 280.4 230.15 281.2 230.15 282 230.15 282.55 229.6 283.1 229 283.1 228.25 283.1 227.45 282.55 226.9 282 226.35 281.2 226.35 280.4 226.35 279.85 226.9 M275.95 215 Q275.15 215 274.6 215.55 274.05 216.1 274.05 216.9 274.05 217.65 274.6 218.25 275.15 218.8 275.95 218.8 276.75 218.8 277.3 218.25 277.85 217.65 277.85 216.9 277.85 216.1 277.3 215.55 276.75 215 275.95 215 M243.4 411.25 L253.1 401.55 237.85 404.95 228.15 401.9 232.3 388 222.1 399.3 205.65 397.8 226.25 407.05 225.55 420.55 232.1 409.3 237.75 411.55 242.9 431.1 243.4 411.25 M177 417.95 L215 417.95 215 413.95 177 413.95 177 413.6 141 417.95 177 417.95 M466 406.95 L502 406.95 466 402.6 466 402.95 428 402.95 428 406.95 466 406.95"/>
    <path stroke="none" fill="#CBE4EC" d="M504 422.5 L504 426.5 466 426.5 448.5 416 428 426.5 352 426.5 352 422.5 381.75 422.5 384.1 425.1 383.35 422.5 428 422.5 448.5 412 466 422.5 504 422.5 M291 433.5 L291 437.5 215 437.5 194.5 427 177 437.5 139 437.5 139 433.5 177 433.5 194.5 423 215 433.5 291 433.5"/>
    <path stroke="none" fill="#B5CAD2" d="M194.5 442.5 L177 453 139 453 177 447.5 194.5 437 215 447.5 253 453 215 453 194.5 442.5 M504 442 L466 442 448.5 431.5 428 442 390 442 428 436.5 448.5 426 466 436.5 504 442"/>
    <path stroke="none" fill="#17A88B" d="M498.95 96.65 L498.95 101 462.95 101 498.95 96.65 M464.8 70.7 L484.05 75.75 463.8 76.3 460.35 81.3 469.8 90.25 456.8 86.45 443.1 104.35 448.35 88.75 439.65 76.2 452.2 83.45 457.35 74.7 457.55 59.05 464.8 70.7 M388.85 120.75 L404.1 137.35 389.6 129.5 375.75 135.85 385.1 124.75 377.4 118.15 362 115.2 374.75 110.15 383.05 92.05 380.05 112.05 384.4 116.35 394.85 108.6 388.85 120.75 M425.95 101 L389.95 101 389.95 96.65 425.95 101 M19.95 294.95 L19.95 290.6 55.95 294.95 19.95 294.95 M128.95 290.6 L128.95 294.95 92.95 294.95 128.95 290.6 M59.1 302.05 L56.1 322.05 60.45 326.35 70.9 318.6 64.9 330.75 80.15 347.35 65.65 339.5 51.8 345.85 61.15 334.75 53.45 328.15 38.05 325.2 50.8 320.15 59.1 302.05 M153.2 313.75 L155.55 316.6 142.4 310.45 138 319.6 139.15 335.25 130.95 324.2 111.35 320.9 131.45 318.6 134.5 313.3 124.3 305.2 137.6 307.85 149.65 288.8 145.8 304.85 151.3 311.45 151.25 311.85 Q151.25 312.6 151.8 313.2 152.35 313.75 153.15 313.75 L153.2 313.75 M243.4 411.25 L242.9 431.1 237.75 411.55 232.1 409.3 225.55 420.55 226.25 407.05 205.65 397.8 222.1 399.3 232.3 388 228.15 401.9 237.85 404.95 253.1 401.55 243.4 411.25 M177 417.95 L141 417.95 177 413.6 177 413.95 177 417.95 M466 402.95 L466 402.6 502 406.95 466 406.95 466 402.95 M381.75 422.5 L373.9 413.8 357.45 415.3 378.05 406.05 377.35 392.55 383.9 403.8 389.55 401.55 394.7 382 395.2 401.85 404.9 411.55 389.65 408.15 379.95 411.2 383.35 422.5 384.1 425.1 381.75 422.5"/>
    <path stroke="none" fill="#1CD0AC" d="M177 413.95 L215 413.95 215 417.95 177 417.95 177 413.95 M466 402.95 L466 406.95 428 406.95 428 402.95 466 402.95"/>
    <path stroke="none" fill="#543D2E" d="M368.6 260.5 L391.7 291.05 386.55 290.9 365.65 262.4 368.6 260.5 M293.25 262.4 L272.35 290.9 267.2 291.05 290.3 260.5 293.25 262.4 M19.95 270 L164.95 270 164.95 277.75 155.35 277.75 151.1 273.5 146.85 277.75 86.35 277.75 82.1 273.5 77.85 277.75 41.85 277.75 35.6 271.5 29.35 277.75 19.95 277.75 19.95 270 M283.75 247.95 L286.65 244.2 Q286.75 244.05 286.95 244 L287.25 244.1 288 244.6 288.2 244.95 288.2 245.35 286.2 250.15 286.15 250.25 286 250.45 282.95 254.2 282.65 254.45 282.3 254.35 281.6 253.85 281.4 253.55 Q281.3 253.35 281.45 253.1 L283.3 248.6 283.4 248.4 283.75 247.95 M269.8 226.9 L274.5 225.3 274.9 225.3 275.1 225.6 275.55 226.45 275.55 226.85 275.35 227.15 271.4 230 271.3 230.05 271.2 230.1 266.6 231.5 266.25 231.5 266.05 231.25 265.65 230.5 265.65 230.1 265.8 229.75 269.65 226.95 269.75 226.9 269.8 226.9 M276.35 238.2 L280.8 235.9 281.15 235.85 281.4 236.05 281.9 236.9 281.95 237.25 281.8 237.6 278.3 241.05 278.2 241.1 278.1 241.15 273.75 243.3 273.4 243.35 273.1 243.15 272.65 242.4 272.55 242.05 272.75 241.65 276.15 238.3 276.3 238.2 276.35 238.2"/>
    <path stroke="none" fill="#412E23" d="M330.95 136 L324.35 130.95 312.85 138 298.6 130.25 285.75 136.25 272.35 131.45 256.95 136 256.95 135.9 251.85 130.75 243.95 130.75 243.85 130.75 239.75 123.6 230.8 125.6 Q232.9 117.05 227.55 111.7 224.4 108.55 219.9 108.75 L216.05 109 215.8 108.95 215.6 108.95 Q213.95 108.95 212.7 112.2 211.5 115.3 211.5 119.7 L211.5 119.75 211.5 119.95 208.15 116.85 203.25 119.95 198.75 91.05 194.35 95.75 182.95 87.15 182.95 87 171.65 88.6 173.5 92.95 151 91.35 149.85 98.25 134.5 91 132.1 94.75 108.95 87 108.95 87.15 97.55 95.75 93.15 91.05 88.65 119.95 83.75 116.85 80.4 119.95 80.4 119.75 80.4 119.7 Q80.4 115.3 79.2 112.2 77.95 108.95 76.3 108.95 L76.1 108.95 75.85 109 72 108.75 Q67.5 108.55 64.35 111.7 59 117.05 61.1 125.6 L52.15 123.6 48.05 130.75 40.05 130.75 34.95 135.9 34.95 79 108.95 79 108.95 5 182.95 5 182.95 79 330.95 79 330.95 136"/>
    <path stroke="none" fill="url(#gradient0)" d="M211.5 119.95 L211.5 119.75 211.5 119.7 Q211.5 115.3 212.7 112.2 213.95 108.95 215.6 108.95 L215.8 108.95 216.05 109 Q220 109.4 222.9 112.2 226 115.3 226 119.7 L226 119.75 Q226 124.25 222.9 127.4 219.9 130.3 215.8 130.5 L215.6 130.5 Q213.95 130.5 212.7 127.4 211.55 124.3 211.5 119.95"/>
    <path stroke="none" fill="url(#gradient1)" d="M75.85 109 L76.1 108.95 76.3 108.95 Q77.95 108.95 79.2 112.2 80.4 115.3 80.4 119.7 L80.4 119.75 80.4 119.95 Q80.35 124.3 79.2 127.4 77.95 130.5 76.3 130.5 L76.1 130.5 Q72 130.3 69 127.4 65.9 124.25 65.9 119.75 L65.9 119.7 Q65.9 115.3 69 112.2 71.9 109.4 75.85 109"/>
    <path stroke="none" fill="#B19E79" d="M420.95 303.55 L420.95 304.75 346.95 302.5 311.95 302.5 237.95 304.75 237.95 303.55 255.65 302.2 258.45 303.35 259.5 301.9 311.95 297.95 346.95 297.95 399.4 301.9 400.45 303.35 403.25 302.2 420.95 303.55"/>
    <path stroke="none" fill="#1CD0AD" d="M413.6 57.3 Q412.8 57.3 412.25 56.75 411.7 56.15 411.7 55.4 411.7 54.6 412.25 54.05 412.8 53.5 413.6 53.5 414.4 53.5 414.95 54.05 415.5 54.6 415.5 55.4 415.5 56.15 414.95 56.75 414.4 57.3 413.6 57.3 M413.75 66.55 Q414.3 66 415.1 66 415.9 66 416.45 66.55 417 67.1 417 67.9 417 68.65 416.45 69.25 415.9 69.8 415.1 69.8 414.3 69.8 413.75 69.25 413.2 68.65 413.2 67.9 413.2 67.1 413.75 66.55 M410.95 65.75 Q410.4 66.3 409.6 66.3 408.8 66.3 408.25 65.75 407.7 65.15 407.7 64.4 407.7 63.6 408.25 63.05 408.8 62.5 409.6 62.5 410.4 62.5 410.95 63.05 411.5 63.6 411.5 64.4 411.5 65.15 410.95 65.75 M480.65 87.05 Q481.45 87.05 482 87.6 482.55 88.15 482.55 88.95 482.55 89.7 482 90.3 481.45 90.85 480.65 90.85 479.85 90.85 479.3 90.3 478.75 89.7 478.75 88.95 478.75 88.15 479.3 87.6 479.85 87.05 480.65 87.05 M366.15 129.5 Q366.95 129.5 367.5 130.05 368.05 130.6 368.05 131.4 368.05 132.15 367.5 132.75 366.95 133.3 366.15 133.3 365.35 133.3 364.8 132.75 364.25 132.15 364.25 131.4 364.25 130.6 364.8 130.05 365.35 129.5 366.15 129.5 M370.4 142.7 Q369.45 141.75 369.45 140.4 369.45 139.05 370.4 138.1 371.35 137.15 372.7 137.15 374.05 137.15 375 138.1 375.95 139.05 375.95 140.4 375.95 141.75 375 142.7 374.05 143.65 372.7 143.65 371.35 143.65 370.4 142.7 M365.8 145.55 Q365.8 146.3 365.25 146.9 364.7 147.45 363.9 147.45 L362.95 147.2 362.55 146.9 Q362 146.3 362 145.55 362 144.75 362.55 144.2 L362.95 143.9 Q363.35 143.65 363.9 143.65 364.7 143.65 365.25 144.2 365.8 144.75 365.8 145.55 M447 146.75 Q447.55 147.3 447.55 148.1 447.55 148.85 447 149.45 446.45 150 445.65 150 444.85 150 444.3 149.45 443.75 148.85 443.75 148.1 443.75 147.3 444.3 146.75 444.85 146.2 445.65 146.2 446.45 146.2 447 146.75 M447.95 127.2 Q447.95 128.55 447 129.5 446.05 130.45 444.7 130.45 443.35 130.45 442.4 129.5 441.45 128.55 441.45 127.2 441.45 125.85 442.4 124.9 443.35 123.95 444.7 123.95 446.05 123.95 447 124.9 447.95 125.85 447.95 127.2 M438 127.95 Q437.45 128.5 436.65 128.5 435.85 128.5 435.3 127.95 L434.95 127.45 434.75 126.6 434.95 125.75 435.3 125.25 Q435.85 124.7 436.65 124.7 437.45 124.7 438 125.25 438.55 125.8 438.55 126.6 438.55 127.35 438 127.95 M440.55 136.6 Q441.1 136.05 441.9 136.05 442.7 136.05 443.25 136.6 443.8 137.15 443.8 137.95 443.8 138.7 443.25 139.3 442.7 139.85 441.9 139.85 441.1 139.85 440.55 139.3 440 138.7 440 137.95 440 137.15 440.55 136.6 M182.55 120.6 Q182 121.15 181.2 121.15 180.4 121.15 179.85 120.6 179.3 120 179.3 119.25 179.3 118.45 179.85 117.9 180.4 117.35 181.2 117.35 182 117.35 182.55 117.9 183.1 118.45 183.1 119.25 183.1 120 182.55 120.6 M179.7 104.85 Q180.5 104.85 181.05 105.4 181.6 105.95 181.6 106.75 181.6 107.5 181.05 108.1 180.5 108.65 179.7 108.65 178.9 108.65 178.35 108.1 177.8 107.5 177.8 106.75 177.8 105.95 178.35 105.4 178.9 104.85 179.7 104.85 M162.05 101.35 Q161.5 101.9 160.7 101.9 159.9 101.9 159.35 101.35 158.8 100.75 158.8 100 158.8 99.2 159.35 98.65 159.9 98.1 160.7 98.1 161.5 98.1 162.05 98.65 162.6 99.2 162.6 100 162.6 100.75 162.05 101.35 M177.05 114.4 Q177.6 114.95 177.6 115.75 177.6 116.5 177.05 117.1 176.5 117.65 175.7 117.65 174.9 117.65 174.35 117.1 173.8 116.5 173.8 115.75 173.8 114.95 174.35 114.4 174.9 113.85 175.7 113.85 176.5 113.85 177.05 114.4 M80.6 130.05 Q81.15 129.5 81.95 129.5 82.75 129.5 83.3 130.05 83.85 130.6 83.85 131.4 83.85 132.15 83.3 132.75 82.75 133.3 81.95 133.3 81.15 133.3 80.6 132.75 80.05 132.15 80.05 131.4 80.05 130.6 80.6 130.05 M122.25 129.5 Q120.9 129.5 119.95 128.55 119 127.6 119 126.25 119 124.9 119.95 123.95 120.9 123 122.25 123 123.6 123 124.55 123.95 125.5 124.9 125.5 126.25 125.5 127.6 124.55 128.55 123.6 129.5 122.25 129.5 M92.3 117.25 Q92.3 116.45 92.85 115.9 93.4 115.35 94.2 115.35 95 115.35 95.55 115.9 96.1 116.45 96.1 117.25 96.1 118 95.55 118.6 95 119.15 94.2 119.15 93.4 119.15 92.85 118.6 92.3 118 92.3 117.25 M94 126.25 Q94 127.6 93.05 128.55 92.1 129.5 90.75 129.5 89.4 129.5 88.45 128.55 87.5 127.6 87.5 126.25 87.5 124.9 88.45 123.95 89.4 123 90.75 123 92.1 123 93.05 123.95 94 124.9 94 126.25 M112.85 124.3 Q113.4 123.75 114.2 123.75 115 123.75 115.55 124.3 116.1 124.85 116.1 125.65 116.1 126.4 115.55 127 115 127.55 114.2 127.55 113.4 127.55 112.85 127 112.3 126.4 112.3 125.65 112.3 124.85 112.85 124.3 M120.8 135.65 Q121.35 136.2 121.35 137 121.35 137.75 120.8 138.35 120.25 138.9 119.45 138.9 118.65 138.9 118.1 138.35 117.55 137.75 117.55 137 117.55 136.2 118.1 135.65 118.65 135.1 119.45 135.1 120.25 135.1 120.8 135.65 M115.1 147.15 Q115.1 147.9 114.55 148.5 114 149.05 113.2 149.05 112.4 149.05 111.85 148.5 111.3 147.9 111.3 147.15 111.3 146.35 111.85 145.8 112.4 145.25 113.2 145.25 114 145.25 114.55 145.8 115.1 146.35 115.1 147.15 M135.8 286.9 Q135.8 286.1 136.35 285.55 136.9 285 137.7 285 138.5 285 139.05 285.55 139.6 286.1 139.6 286.9 139.6 287.65 139.05 288.25 138.5 288.8 137.7 288.8 136.9 288.8 136.35 288.25 135.8 287.65 135.8 286.9 M77.95 301.95 Q77 301 77 299.65 77 298.3 77.95 297.35 78.9 296.4 80.25 296.4 81.6 296.4 82.55 297.35 83.5 298.3 83.5 299.65 83.5 301 82.55 301.95 81.6 302.9 80.25 302.9 78.9 302.9 77.95 301.95 M72.2 300.95 Q71.4 300.95 70.85 300.4 70.3 299.8 70.3 299.05 70.3 298.25 70.85 297.7 71.4 297.15 72.2 297.15 73 297.15 73.55 297.7 74.1 298.25 74.1 299.05 74.1 299.8 73.55 300.4 73 300.95 72.2 300.95 M77.45 308.5 Q78.25 308.5 78.8 309.05 79.35 309.6 79.35 310.4 79.35 311.15 78.8 311.75 78.25 312.3 77.45 312.3 76.65 312.3 76.1 311.75 75.55 311.15 75.55 310.4 75.55 309.6 76.1 309.05 76.65 308.5 77.45 308.5 M79.85 319.2 Q80.4 318.65 81.2 318.65 82 318.65 82.55 319.2 83.1 319.75 83.1 320.55 83.1 321.3 82.55 321.9 82 322.45 81.2 322.45 80.4 322.45 79.85 321.9 79.3 321.3 79.3 320.55 79.3 319.75 79.85 319.2 M34.75 330.1 Q36.1 330.1 37.05 331.05 38 332 38 333.35 38 334.7 37.05 335.65 36.1 336.6 34.75 336.6 33.4 336.6 32.45 335.65 31.5 334.7 31.5 333.35 31.5 332 32.45 331.05 33.4 330.1 34.75 330.1 M29.55 325.7 Q29 326.25 28.2 326.25 27.4 326.25 26.85 325.7 26.3 325.1 26.3 324.35 26.3 323.55 26.85 323 27.4 322.45 28.2 322.45 29 322.45 29.55 323 30.1 323.55 30.1 324.35 30.1 325.1 29.55 325.7 M27.85 338.5 Q27.85 339.25 27.3 339.85 26.75 340.4 25.95 340.4 L25 340.15 24.6 339.85 Q24.05 339.25 24.05 338.5 24.05 337.7 24.6 337.15 L25 336.85 25.95 336.6 Q26.75 336.6 27.3 337.15 27.85 337.7 27.85 338.5 M151.3 311.45 Q151.4 310.9 151.8 310.5 152.35 309.95 153.15 309.95 153.95 309.95 154.5 310.5 155.05 311.05 155.05 311.85 155.05 312.6 154.5 313.2 153.95 313.75 153.2 313.75 L153.15 313.75 Q152.35 313.75 151.8 313.2 151.25 312.6 151.25 311.85 L151.3 311.45 M147.8 319.5 Q148.35 318.95 149.15 318.95 149.95 318.95 150.5 319.5 151.05 320.05 151.05 320.85 151.05 321.6 150.5 322.2 149.95 322.75 149.15 322.75 148.35 322.75 147.8 322.2 147.25 321.6 147.25 320.85 147.25 320.05 147.8 319.5 M152.75 324.35 Q152.75 323.55 153.3 323 153.85 322.45 154.65 322.45 155.45 322.45 156 323 156.55 323.55 156.55 324.35 156.55 325.1 156 325.7 155.45 326.25 154.65 326.25 153.85 326.25 153.3 325.7 152.75 325.1 152.75 324.35 M287.25 217.5 Q287.25 218.85 286.3 219.8 285.35 220.75 284 220.75 282.65 220.75 281.7 219.8 280.75 218.85 280.75 217.5 280.75 216.15 281.7 215.2 282.65 214.25 284 214.25 285.35 214.25 286.3 215.2 287.25 216.15 287.25 217.5 M299.1 219.35 Q299.65 218.8 300.45 218.8 301.25 218.8 301.8 219.35 302.35 219.9 302.35 220.7 302.35 221.45 301.8 222.05 301.25 222.6 300.45 222.6 299.65 222.6 299.1 222.05 298.55 221.45 298.55 220.7 298.55 219.9 299.1 219.35 M275.95 215 Q276.75 215 277.3 215.55 277.85 216.1 277.85 216.9 277.85 217.65 277.3 218.25 276.75 218.8 275.95 218.8 275.15 218.8 274.6 218.25 274.05 217.65 274.05 216.9 274.05 216.1 274.6 215.55 275.15 215 275.95 215 M279.85 226.9 Q280.4 226.35 281.2 226.35 282 226.35 282.55 226.9 283.1 227.45 283.1 228.25 283.1 229 282.55 229.6 282 230.15 281.2 230.15 280.4 230.15 279.85 229.6 279.3 229 279.3 228.25 279.3 227.45 279.85 226.9"/>
    <path stroke="none" fill="#FFCC00" d="M161.35 116.3 Q164.65 114.4 168.2 113.85 169.05 114.85 169.05 116.3 169.05 117.9 167.9 119 166.8 120.15 165.2 120.15 163.65 120.15 162.45 119 161.35 117.9 161.35 116.3 M130.5 115.95 L130.5 116.3 Q130.5 117.9 129.35 119 128.25 120.15 126.7 120.15 125.05 120.15 123.9 119 122.8 117.9 122.8 116.3 122.8 114.65 123.9 113.55 127.25 114.15 130.5 115.95"/>
    <path stroke="none" fill="#138C74" d="M161.35 116.3 L160.75 116.65 159.75 116.9 158.75 116.65 158.1 115.85 156.55 112.25 Q156.35 111.7 156.5 111.1 156.6 110.5 157 110.1 162.3 105.45 169.55 104.85 170.15 104.8 170.7 105.1 171.2 105.45 171.4 106.05 L173.35 111.1 Q173.55 111.65 173.4 112.25 L172.75 113.2 171.6 113.6 168.2 113.85 Q164.65 114.4 161.35 116.3 M155.75 122.8 Q155.75 124.3 152.9 125.4 150.1 126.5 145.95 126.5 L144.35 126.5 Q141.4 126.35 139.1 125.4 L138.45 125.15 Q136.15 124.15 136.15 122.8 L136.15 122.6 Q136.5 118.9 139.1 116.2 142 113.4 145.95 113.4 150.1 113.4 152.9 116.2 155.5 118.9 155.75 122.6 L155.75 122.8 M123.9 113.55 L120.55 113.3 Q119.95 113.3 119.45 112.9 118.9 112.6 118.8 112 118.65 111.45 118.85 110.9 L120.7 106.05 Q120.9 105.45 121.45 105.1 121.95 104.8 122.55 104.85 129.55 105.45 134.65 109.95 L135.15 110.9 135.1 112 133.6 115.5 132.95 116.25 132 116.55 131.05 116.25 130.5 115.95 Q127.25 114.15 123.9 113.55 M300.95 228.85 Q303.15 229.4 304.4 230.8 305.65 232.25 305.3 233.65 304.9 235.05 303.1 235.6 301.35 236.15 299.15 235.6 297 235 295.7 233.6 294.45 232.25 294.85 230.85 295.2 229.45 297 228.8 298.8 228.25 300.95 228.85"/>
  </g>
</svg>