
<svg xmlns="http://www.w3.org/2000/svg" version="1.1" xmlns:xlink="http://www.w3.org/1999/xlink" preserveAspectRatio="none" x="0px" y="0px" width="512px" height="512px" viewBox="0 0 512 512">
<defs>
<g id="Layer0_0_FILL">
<path fill="#191919" stroke="none" d="
M 512 512
L 512 0 0 0 0 512 512 512
M 498.95 61.05
L 498.95 70.05 498.95 79.05 498.95 82.05 498.95 85.05 498.95 123.05 498.95 138.05 498.95 141.05 498.95 153.95 462.95 153.95 462.95 190.9 425.95 190.9 425.95 153.95 353.95 153.95 353.95 141.05 353.95 138.05 353.95 123.05 353.95 85.05 353.95 82.05 353.95 79.05 353.95 70.05 353.95 61.05 353.95 58.05 353.95 46.05 425.95 46.05 425.95 11.1 462.95 11.1 462.95 46.05 498.95 46.05 498.95 58.05 498.95 61.05
M 330.95 147
L 331 147 331 153 182.95 153 182.95 227 108.95 227 108.95 153 34.95 153 34.95 147 34.95 79 108.95 79 108.95 5 140.95 5 140.95 4.95 151 4.95 151 5 182.95 5 182.95 79 330.95 79 330.95 147
M 420.95 223.3
L 420.95 226.3 420.95 248.3 420.95 261.3 420.95 294 420.95 312 311.95 312 311.95 348.95 237.95 348.95 237.95 312 201.95 312 201.95 294 201.95 261.3 201.95 248.3 201.95 226.3 201.95 223.3 201.95 202 237.95 202 237.95 165.05 311.95 165.05 311.95 202 420.95 202 420.95 223.3
M 352 363.25
L 352 352 428 352 428 317.05 466 317.05 466 352 504 352 504 363.25 504 366.25 504 381.25 504 384.25 504 396.25 504 435.25 504 443.25 504 446.25 504 460.9 466 460.9 466 495.85 428 495.85 428 460.9 352 460.9 352 446.25 352 443.25 352 435.25 352 396.25 352 384.25 352 381.25 352 366.25 352 363.25
M 92.95 205.05
L 92.95 240 164.95 240 164.95 252 164.95 255 164.95 264 164.95 273 164.95 276 164.95 279 164.95 317 164.95 332 164.95 335 164.95 347.9 92.95 347.9 92.95 384.85 55.95 384.85 55.95 347.9 19.95 347.9 19.95 335 19.95 332 19.95 317 19.95 279 19.95 276 19.95 273 19.95 264 19.95 255 19.95 252 19.95 240 55.95 240 55.95 205.05 92.95 205.05
M 139 374.25
L 139 363 177 363 177 328.05 215 328.05 215 363 291 363 291 374.25 291 377.25 291 392.25 291 395.25 291 407.25 291 446.25 291 454.25 291 457.25 291 471.9 215 471.9 215 506.85 177 506.85 177 471.9 139 471.9 139 457.25 139 454.25 139 446.25 139 407.25 139 395.25 139 392.25 139 377.25 139 374.25 Z"/>

<path fill="#D2DDDF" stroke="none" d="
M 205.9 414.95
Q 207.3 413.55 205.9 412.15
L 201 407.25 197.4 403.65
Q 196 402.25 194.6 403.65
L 191 407.25 186.1 412.15
Q 184.7 413.55 186.1 414.95
L 194.6 423.45
Q 196 424.85 197.4 423.45
L 205.9 414.95
M 291 457.25
L 291 454.25 139 454.25 139 457.25 291 457.25
M 139 374.25
L 139 377.25 291 377.25 291 374.25 139 374.25
M 19.95 332
L 19.95 335 164.95 335 164.95 332 19.95 332
M 19.95 252
L 19.95 255 164.95 255 164.95 252 19.95 252
M 504 446.25
L 504 443.25 352 443.25 352 446.25 504 446.25
M 448.4 392.65
Q 447 391.25 445.6 392.65
L 442 396.25 437.1 401.15
Q 435.7 402.55 437.1 403.95
L 445.6 412.45
Q 447 413.85 448.4 412.45
L 456.9 403.95
Q 458.3 402.55 456.9 401.15
L 452 396.25 448.4 392.65
M 352 363.25
L 352 366.25 504 366.25 504 363.25 352 363.25
M 243.3 226.25
L 243.35 226.3 267 226.3 270 223.3 201.95 223.3 201.95 226.3 242.3 226.3
Q 242.37578125 226.137109375 242.55 226.05 242.75 225.95 242.95 226 243.1 226.05 243.3 226.25
M 372.15 226.3
Q 373.0361328125 224.7021484375 374.4 223.3
L 279.85 223.3 282.85 226.3 306.1 226.3 306.15 226.25
Q 306.3 226.05 306.45 226
L 306.55 226
Q 306.7 225.95 306.9 226.05 307.0482421875 226.161328125 307.1 226.3
L 372.15 226.3
M 264 274
L 264 277 286 277 286 274 264 274
M 420.95 226.3
L 420.95 223.3 394.5 223.3
Q 395.865625 224.7021484375 396.75 226.3
L 420.95 226.3
M 498.95 141.05
L 498.95 138.05 353.95 138.05 353.95 141.05 498.95 141.05
M 498.95 61.05
L 498.95 58.05 353.95 58.05 353.95 61.05 498.95 61.05 Z"/>

<path fill="#A5BABF" stroke="none" d="
M 291 446.25
L 291 407.25 201 407.25 205.9 412.15
Q 207.3 413.55 205.9 414.95
L 197.4 423.45
Q 196 424.85 194.6 423.45
L 186.1 414.95
Q 184.7 413.55 186.1 412.15
L 191 407.25 139 407.25 139 446.25 291 446.25
M 291 471.9
L 291 457.25 139 457.25 139 471.9 177 471.9 177 506.85 215 506.85 215 471.9 291 471.9
M 139 392.25
L 139 395.25 291 395.25 291 392.25 139 392.25
M 139 363
L 139 374.25 291 374.25 291 363 215 363 215 328.05 177 328.05 177 363 139 363
M 19.95 279
L 19.95 317 164.95 317 164.95 279 19.95 279
M 55.95 347.9
L 55.95 384.85 92.95 384.85 92.95 347.9 164.95 347.9 164.95 335 19.95 335 19.95 347.9 55.95 347.9
M 92.95 240
L 92.95 205.05 55.95 205.05 55.95 240 19.95 240 19.95 252 164.95 252 164.95 240 92.95 240
M 504 460.9
L 504 446.25 352 446.25 352 460.9 428 460.9 428 495.85 466 495.85 466 460.9 504 460.9
M 504 435.25
L 504 396.25 452 396.25 456.9 401.15
Q 458.3 402.55 456.9 403.95
L 448.4 412.45
Q 447 413.85 445.6 412.45
L 437.1 403.95
Q 435.7 402.55 437.1 401.15
L 442 396.25 352 396.25 352 435.25 504 435.25
M 352 381.25
L 352 384.25 504 384.25 504 381.25 352 381.25
M 352 352
L 352 363.25 504 363.25 504 352 466 352 466 317.05 428 317.05 428 352 352 352
M 237.95 312
L 237.95 348.95 311.95 348.95 311.95 312 237.95 312
M 243.35 226.3
L 244.45 227.55
Q 244.5 227.6 244.6 227.8 244.6 227.9 244.6 228.1 243.8 230.7 244.45 233.65 245.45 238.65 249.85 241.5 254.05 244.3 259.2 243.3 261.71953125 242.8154296875 263.7 241.5
L 259.9 237.7
Q 257.8 235.55 259.9 233.45
L 267 226.3 243.35 226.3
M 290 237.7
L 286 241.65
Q 287.86640625 242.851171875 290.2 243.3 295.35 244.3 299.65 241.5 303.95 238.65 304.95 233.65 305.6 230.7 304.9 228.1 304.8 227.9 304.9 227.8 304.9 227.6 305 227.55
L 306.1 226.3 282.85 226.3 290 233.45
Q 292.1 235.55 290 237.7
M 370.45 233.05
Q 370.45 229.32421875 372.15 226.3
L 307.1 226.3
Q 307.137109375 226.3482421875 307.15 226.4 309.15 230.5 308.1 235.25 307.25 239.5 304.4 242.45 303.2 243.6 301.8 244.6 296.65 247.85 290.7 246.7 286.8609375 245.9603515625 284.15 243.55
L 284.1 243.55 277.05 250.6
Q 274.95 252.7 272.8 250.6
L 265.5 243.3
Q 262.724609375 245.924609375 258.7 246.7 252.75 247.85 247.7 244.6 245.65 243.3 244.25 241.6 242.05 238.9 241.3 235.25 240.3 230.5 242.25 226.4 242.25 226.35 242.3 226.35 242.3064453125 226.32421875 242.3 226.3
L 201.95 226.3 201.95 248.3 265.5 248.3 272.8 255.6
Q 273.2546875 256.044140625 273.7 256.3 274.9390625 256.9994140625 276.15 256.3 276.605859375 256.044140625 277.05 255.6
L 284.4 248.3 370.45 248.3 370.45 244.7 367.55 244.7 367.55 238 370.45 238 370.45 233.05
M 420.95 248.3
L 420.95 226.3 396.75 226.3
Q 398.45 229.3244140625 398.45 233.05
L 398.45 238 401.35 238 401.35 244.7 398.45 244.7 398.45 248.3 420.95 248.3
M 420.95 294
L 420.95 261.3 398.45 261.3 398.45 265.5 401.35 265.5 401.35 272.2 398.45 272.2 398.45 273.3
Q 398.45 279.1 394.35 283.2 390.25 287.3 384.45 287.3 378.65 287.3 374.55 283.2 370.45 279.1 370.45 273.3
L 370.45 272.2 367.55 272.2 367.55 265.5 370.45 265.5 370.45 261.3 201.95 261.3 201.95 294 420.95 294
M 254.45 275.55
Q 254.45 274.234765625 254.75 273.05 255.365625 270.6677734375 257.2 268.8 260 266.05 263.95 266.05
L 285.95 266.05
Q 289.9 266.05 292.65 268.8 294.5177734375 270.6677734375 295.15 273.05 295.45 274.234765625 295.45 275.55 295.45 279.5 292.65 282.25 289.9 285.05 285.95 285.05
L 263.95 285.05
Q 260 285.05 257.2 282.25 254.45 279.5 254.45 275.55
M 420.95 223.3
L 420.95 202 311.95 202 311.95 165.05 237.95 165.05 237.95 202 201.95 202 201.95 223.3 270 223.3 272.8 220.5
Q 274.95 218.4 277.05 220.5
L 279.85 223.3 374.4 223.3
Q 374.4751953125 223.2248046875 374.55 223.15 378.65 219.05 384.45 219.05 390.25 219.05 394.35 223.15 394.424609375 223.224609375 394.5 223.3
L 420.95 223.3
M 330.95 147
L 330.95 79 182.95 79 182.95 5 151 5 151 114.45
Q 151 116.6 149.55 118.05 148.15 119.45 146 119.45 143.8 119.45 142.4 118.05 140.95 116.6 140.95 114.45
L 140.95 5 108.95 5 108.95 79 34.95 79 34.95 147 72.9 147
Q 84.4166015625 146.35703125 86.5 136.75 88.591015625 127.34609375 97.65 126.6
L 122.85 126.6 115.1 153 108.95 153 108.95 227 182.95 227 182.95 153 176.8 153 169.05 126.6 194.25 126.6
Q 203.3 127.35 205.4 136.75 207.5 146.35 219 147
L 330.95 147
M 222.85 110.1
Q 223.35 110.6 223.35 111.3 223.35 112 222.85 112.5
L 214.5 120.85
Q 214 121.35 213.3 121.35 212.6 121.35 212.1 120.85 211.55 120.3 211.55 119.6 211.55 118.9 212.05 118.4
L 220.4 110.05
Q 220.9 109.55 221.6 109.55 222.3 109.55 222.85 110.1
M 228.65 116.6
Q 229.35 116.6 229.9 117.15 230.45 117.7 230.45 118.4 230.45 119.1 229.95 119.6
L 221.6 127.95
Q 221.1 128.45 220.4 128.45 219.7 128.45 219.15 127.9 218.6 127.35 218.6 126.65 218.6 125.95 219.1 125.45
L 227.45 117.1
Q 227.95 116.6 228.65 116.6
M 226.9 114.85
Q 226.9 115.55 226.4 116.05
L 218.05 124.4
Q 217.55 124.9 216.85 124.9 216.15 124.9 215.6 124.35 215.1 123.85 215.1 123.15 215.1 122.45 215.6 121.95
L 223.95 113.6
Q 224.45 113.1 225.15 113.1 225.85 113.1 226.35 113.6 226.9 114.15 226.9 114.85
M 68.55 111.3
Q 68.55 110.6 69.05 110.1 69.6 109.55 70.3 109.55 71 109.55 71.5 110.05
L 79.85 118.4
Q 80.35 118.9 80.35 119.6 80.35 120.3 79.8 120.85 79.3 121.35 78.6 121.35 77.9 121.35 77.4 120.85
L 69.05 112.5
Q 68.55 112 68.55 111.3
M 66.75 113.1
Q 67.45 113.1 67.95 113.6
L 76.3 121.95
Q 76.8 122.45 76.8 123.15 76.8 123.85 76.3 124.35 75.75 124.9 75.05 124.9 74.35 124.9 73.85 124.4
L 65.5 116.05
Q 65 115.55 65 114.85 65 114.15 65.55 113.6 66.05 113.1 66.75 113.1
M 63.25 116.6
Q 63.95 116.6 64.45 117.1
L 72.8 125.45
Q 73.3 125.95 73.3 126.65 73.3 127.35 72.75 127.9 72.2 128.45 71.5 128.45 70.8 128.45 70.3 127.95
L 61.95 119.6
Q 61.45 119.1 61.45 118.4 61.45 117.7 62 117.15 62.55 116.6 63.25 116.6
M 139 129.4
Q 138.946875 129.0869140625 139.1 128.75 139.25625 128.455859375 139.55 128.3 145.75 125.34375 151.9 128.3 152.24375 128.455859375 152.4 128.75 152.553125 129.0869140625 152.45 129.4 152.441015625 129.5732421875 152.35 129.7 152.4517578125 129.83125 152.5 130 152.56875 130.4126953125 152.6 130.85
L 152.65 130.85
Q 153.0490234375 130.8630859375 153.3 131.15 153.6017578125 131.4453125 153.6 131.85 153.6 132.15 153.6 132.5 153.593359375 135.8931640625 151.3 138.3
L 151.25 138.4
Q 148.9580078125 140.854296875 145.75 140.85 142.5287109375 140.8578125 140.15 138.3 137.9064453125 135.8931640625 137.9 132.5 137.9056640625 132.1125 137.95 131.7 138.0341796875 131.3591796875 138.3 131.1 138.58515625 130.9142578125 138.9 130.9 138.9291015625 130.475 139 130.05 139.02734375 129.8580078125 139.1 129.7 139.0587890625 129.5724609375 139 129.4
M 164.2 107.15
Q 165.251953125 107.1556640625 166.2 107.35 170.4302734375 107.2470703125 174.4 105.6 173.8115234375 109.1818359375 171.8 111.2 173.3490234375 113.437890625 173.35 116.3 173.33828125 120.051171875 170.7 122.6 170.62890625 122.7279296875 170.5 122.8 169.847265625 123.51328125 169.1 124 166.9603515625 123.15 164.2 123.15 161.4921875 123.15 159.3 124 158.5123046875 123.50390625 157.75 122.75 157.749609375 122.750390625 157.7 122.7 155.070703125 120.1275390625 155.05 116.3 155.0595703125 112.4869140625 157.7 109.8
L 157.75 109.75
Q 160.5001953125 107.1345703125 164.2 107.15
M 134 109.75
Q 134.076171875 109.8244140625 134.1 109.85 136.7986328125 112.5271484375 136.8 116.3 136.78828125 120.051171875 134.15 122.6 134.0779296875 122.72890625 133.95 122.8 133.297265625 123.5138671875 132.55 124 130.425390625 123.15 127.7 123.15 124.9568359375 123.15 122.75 124 121.9341796875 123.48515625 121.15 122.7 118.5794921875 120.1330078125 118.55 116.3 118.56171875 113.750390625 119.7 111.7 117.2640625 109.642578125 116.6 105.6 120.957421875 107.4078125 125.6 107.35 126.6138671875 107.1494140625 127.7 107.15 131.42890625 107.1564453125 134 109.75
M 498.95 123.05
L 498.95 85.05 353.95 85.05 353.95 123.05 498.95 123.05
M 498.95 153.95
L 498.95 141.05 353.95 141.05 353.95 153.95 425.95 153.95 425.95 190.9 462.95 190.9 462.95 153.95 498.95 153.95
M 498.95 58.05
L 498.95 46.05 462.95 46.05 462.95 11.1 425.95 11.1 425.95 46.05 353.95 46.05 353.95 58.05 498.95 58.05 Z"/>

<path fill="#95A8AD" stroke="none" d="
M 291 454.25
L 291 446.25 139 446.25 139 454.25 291 454.25
M 291 395.25
L 139 395.25 139 407.25 191 407.25 194.6 403.65
Q 196 402.25 197.4 403.65
L 201 407.25 291 407.25 291 395.25
M 19.95 317
L 19.95 332 164.95 332 164.95 317 19.95 317
M 19.95 264
L 19.95 273 164.95 273 164.95 264 19.95 264
M 19.95 276
L 19.95 279 164.95 279 164.95 276 19.95 276
M 504 443.25
L 504 435.25 352 435.25 352 443.25 504 443.25
M 445.6 392.65
Q 447 391.25 448.4 392.65
L 452 396.25 504 396.25 504 384.25 352 384.25 352 396.25 442 396.25 445.6 392.65
M 244.45 227.55
L 243.35 226.3 243.3 226.25
Q 243.1 226.05 242.95 226 242.75 225.95 242.55 226.05 242.37578125 226.137109375 242.3 226.3 242.3064453125 226.32421875 242.3 226.35 242.25 226.35 242.25 226.4 240.3 230.5 241.3 235.25 242.05 238.9 244.25 241.6 245.65 243.3 247.7 244.6 252.75 247.85 258.7 246.7 262.724609375 245.924609375 265.5 243.3
L 263.7 241.5
Q 261.71953125 242.8154296875 259.2 243.3 254.05 244.3 249.85 241.5 245.45 238.65 244.45 233.65 243.8 230.7 244.6 228.1 244.6 227.9 244.6 227.8 244.5 227.6 244.45 227.55
M 286 241.65
L 284.15 243.55
Q 286.8609375 245.9603515625 290.7 246.7 296.65 247.85 301.8 244.6 303.2 243.6 304.4 242.45 307.25 239.5 308.1 235.25 309.15 230.5 307.15 226.4 307.137109375 226.3482421875 307.1 226.3 307.0482421875 226.161328125 306.9 226.05 306.7 225.95 306.55 226
L 306.45 226
Q 306.3 226.05 306.15 226.25
L 306.1 226.3 305 227.55
Q 304.9 227.6 304.9 227.8 304.8 227.9 304.9 228.1 305.6 230.7 304.95 233.65 303.95 238.65 299.65 241.5 295.35 244.3 290.2 243.3 287.86640625 242.851171875 286 241.65
M 420.95 312
L 420.95 294 201.95 294 201.95 312 237.95 312 311.95 312 420.95 312
M 370.45 261.3
L 370.45 248.3 284.4 248.3 277.05 255.6
Q 276.605859375 256.044140625 276.15 256.3 274.9390625 256.9994140625 273.7 256.3 273.2546875 256.044140625 272.8 255.6
L 265.5 248.3 201.95 248.3 201.95 261.3 370.45 261.3
M 420.95 261.3
L 420.95 248.3 398.45 248.3 398.45 261.3 420.95 261.3
M 498.95 138.05
L 498.95 123.05 353.95 123.05 353.95 138.05 498.95 138.05
M 498.95 79.05
L 498.95 70.05 353.95 70.05 353.95 79.05 498.95 79.05
M 498.95 85.05
L 498.95 82.05 353.95 82.05 353.95 85.05 498.95 85.05 Z"/>

<path fill="#FF66CC" stroke="none" d="
M 139 377.25
L 139 392.25 291 392.25 291 377.25 139 377.25
M 19.95 273
L 19.95 276 164.95 276 164.95 273 19.95 273
M 19.95 255
L 19.95 264 164.95 264 164.95 255 19.95 255
M 352 366.25
L 352 381.25 504 381.25 504 366.25 352 366.25
M 286 241.65
L 290 237.7
Q 292.1 235.55 290 233.45
L 282.85 226.3 279.85 223.3 277.05 220.5
Q 274.95 218.4 272.8 220.5
L 270 223.3 267 226.3 259.9 233.45
Q 257.8 235.55 259.9 237.7
L 263.7 241.5
Q 264.7796875 240.7734375 265.7 239.8 265.9 239.6 266.15 239.6 266.4 239.6 266.6 239.8
L 267.3 240.45
Q 267.4 240.55 267.5 240.8 267.5 241.05 267.35 241.25 266.5130859375 242.40078125 265.5 243.3
L 272.8 250.6
Q 274.95 252.7 277.05 250.6
L 284.1 243.55
Q 282.9900390625 242.542578125 282.05 241.25 281.9 241.05 281.9 240.8 282 240.55 282.15 240.45
L 282.85 239.8
Q 283 239.6 283.3 239.6 283.5 239.6 283.7 239.8 284.7443359375 240.9044921875 286 241.65
M 282.3 228.6
Q 282.4 228.65 282.45 228.8 282.5 228.9 282.45 229.05
L 279.75 235.8
Q 279.75 235.9 279.65 235.95 279.5 236.05 279.4 236.05
L 277.1 236.05 269.15 244
Q 269.05 244.1 268.85 244.1 268.7 244.1 268.6 244 268.45 243.85 268.45 243.7
L 268.45 234.75
Q 268.45 234.6 268.6 234.5 268.7 234.35 268.85 234.35
L 271.05 234.35 273.15 228.75
Q 273.2 228.65 273.3 228.55 273.4 228.5 273.55 228.5
L 282.05 228.5
Q 282.2 228.5 282.3 228.6
M 370.45 273.3
Q 370.45 279.1 374.55 283.2 378.65 287.3 384.45 287.3 390.25 287.3 394.35 283.2 398.45 279.1 398.45 273.3
L 398.45 272.2 370.45 272.2 370.45 273.3
M 398.45 244.7
L 370.45 244.7 370.45 248.3 370.45 261.3 370.45 265.5 398.45 265.5 398.45 261.3 398.45 248.3 398.45 244.7
M 374.55 223.15
Q 374.4751953125 223.2248046875 374.4 223.3 373.0361328125 224.7021484375 372.15 226.3 370.45 229.32421875 370.45 233.05
L 370.45 238 398.45 238 398.45 233.05
Q 398.45 229.3244140625 396.75 226.3 395.865625 224.7021484375 394.5 223.3 394.424609375 223.224609375 394.35 223.15 390.25 219.05 384.45 219.05 378.65 219.05 374.55 223.15
M 391.45 227.45
Q 392.9 227.45 393.9 228.45 394.9 229.45 394.9 230.9 394.9 232.35 393.9 233.35 392.9 234.35 391.45 234.35 390 234.35 389 233.35 388 232.35 388 230.9 388 229.45 389 228.45 390 227.45 391.45 227.45
M 124.85 111.95
Q 124.409375 112.2537109375 124 112.65 123.612890625 113.050390625 123.3 113.5 122.55 114.723828125 122.55 116.3 122.55 118.45 124 119.9 125.55 121.45 127.7 121.45 129.8 121.45 131.25 119.9 132.8 118.45 132.8 116.3 132.8 114.15 131.25 112.65 129.8 111.15 127.7 111.15 126.11796875 111.15 124.85 111.95
M 167.8 112.65
Q 166.9943359375 111.8166015625 165.95 111.45 165.15546875 111.15 164.2 111.15 162.1 111.15 160.55 112.65 159.05 114.15 159.05 116.3 159.05 118.45 160.55 119.9 162.1 121.45 164.2 121.45 166.35 121.45 167.8 119.9 169.35 118.45 169.35 116.3 169.35 114.5923828125 168.35 113.3 168.1189453125 112.95859375 167.8 112.65
M 140.9 136.05
Q 139.15 134.3 138.95 131.9 138.9 131.55 138.9 131.25 138.9 131.075 138.9 130.9 138.58515625 130.9142578125 138.3 131.1 138.0341796875 131.3591796875 137.95 131.7 137.9056640625 132.1125 137.9 132.5 137.9064453125 135.8931640625 140.15 138.3 142.5287109375 140.8578125 145.75 140.85 148.9580078125 140.854296875 151.25 138.4
L 151.3 138.3
Q 153.593359375 135.8931640625 153.6 132.5 153.6 132.15 153.6 131.85 153.6017578125 131.4453125 153.3 131.15 153.0490234375 130.8630859375 152.65 130.85
L 152.6 130.85
Q 152.6 131.0470703125 152.6 131.25 152.6 131.55 152.6 131.85 152.4 134.25 150.6 136.05
L 150.55 136.1
Q 148.55 138.1 145.75 138.1 142.95 138.1 140.9 136.05
M 139.1 128.75
Q 138.946875 129.0869140625 139 129.4 139.0587890625 129.5724609375 139.1 129.7 139.214453125 129.562890625 139.35 129.45 139.6 129.2 140 129.2
L 151.5 129.2
Q 151.85 129.2 152.15 129.45 152.2794921875 129.5537109375 152.35 129.7 152.441015625 129.5732421875 152.45 129.4 152.553125 129.0869140625 152.4 128.75 152.24375 128.455859375 151.9 128.3 145.75 125.34375 139.55 128.3 139.25625 128.455859375 139.1 128.75
M 498.95 82.05
L 498.95 79.05 353.95 79.05 353.95 82.05 498.95 82.05
M 498.95 70.05
L 498.95 61.05 353.95 61.05 353.95 70.05 498.95 70.05 Z"/>

<path fill="#EE5FBE" stroke="none" d="
M 267.35 241.25
Q 267.5 241.05 267.5 240.8 267.4 240.55 267.3 240.45
L 266.6 239.8
Q 266.4 239.6 266.15 239.6 265.9 239.6 265.7 239.8 264.7796875 240.7734375 263.7 241.5
L 265.5 243.3
Q 266.5130859375 242.40078125 267.35 241.25
M 284.1 243.55
L 284.15 243.55 286 241.65
Q 284.7443359375 240.9044921875 283.7 239.8 283.5 239.6 283.3 239.6 283 239.6 282.85 239.8
L 282.15 240.45
Q 282 240.55 281.9 240.8 281.9 241.05 282.05 241.25 282.9900390625 242.542578125 284.1 243.55 Z"/>

<path fill="#FFFFFF" stroke="none" d="
M 282.45 228.8
Q 282.4 228.65 282.3 228.6 282.2 228.5 282.05 228.5
L 273.55 228.5
Q 273.4 228.5 273.3 228.55 273.2 228.65 273.15 228.75
L 271.05 234.35 268.85 234.35
Q 268.7 234.35 268.6 234.5 268.45 234.6 268.45 234.75
L 268.45 243.7
Q 268.45 243.85 268.6 244 268.7 244.1 268.85 244.1 269.05 244.1 269.15 244
L 277.1 236.05 279.4 236.05
Q 279.5 236.05 279.65 235.95 279.75 235.9 279.75 235.8
L 282.45 229.05
Q 282.5 228.9 282.45 228.8
M 134.1 109.85
Q 134.076171875 109.8244140625 134 109.75 131.42890625 107.1564453125 127.7 107.15 126.6138671875 107.1494140625 125.6 107.35 123.1541015625 107.9060546875 121.2 109.75 121.174609375 109.8328125 121.1 109.85 120.29140625 110.736328125 119.7 111.7 118.56171875 113.750390625 118.55 116.3 118.5794921875 120.1330078125 121.15 122.7 121.9341796875 123.48515625 122.75 124 124.9568359375 123.15 127.7 123.15 130.425390625 123.15 132.55 124 133.297265625 123.5138671875 133.95 122.8 134.0779296875 122.72890625 134.15 122.6 136.78828125 120.051171875 136.8 116.3 136.7986328125 112.5271484375 134.1 109.85
M 124 112.65
Q 124.409375 112.2537109375 124.85 111.95 126.11796875 111.15 127.7 111.15 129.8 111.15 131.25 112.65 132.8 114.15 132.8 116.3 132.8 118.45 131.25 119.9 129.8 121.45 127.7 121.45 125.55 121.45 124 119.9 122.55 118.45 122.55 116.3 122.55 114.723828125 123.3 113.5 123.612890625 113.050390625 124 112.65
M 171.8 111.2
Q 171.3203125 110.515234375 170.65 109.85 170.626171875 109.8244140625 170.55 109.75 168.7080078125 107.8931640625 166.2 107.35 165.251953125 107.1556640625 164.2 107.15 160.5001953125 107.1345703125 157.75 109.75
L 157.7 109.8
Q 155.0595703125 112.4869140625 155.05 116.3 155.070703125 120.1275390625 157.7 122.7 157.749609375 122.750390625 157.75 122.75 158.5123046875 123.50390625 159.3 124 161.4921875 123.15 164.2 123.15 166.9603515625 123.15 169.1 124 169.847265625 123.51328125 170.5 122.8 170.62890625 122.7279296875 170.7 122.6 173.33828125 120.051171875 173.35 116.3 173.3490234375 113.437890625 171.8 111.2
M 165.95 111.45
Q 166.9943359375 111.8166015625 167.8 112.65 168.1189453125 112.95859375 168.35 113.3 169.35 114.5923828125 169.35 116.3 169.35 118.45 167.8 119.9 166.35 121.45 164.2 121.45 162.1 121.45 160.55 119.9 159.05 118.45 159.05 116.3 159.05 114.15 160.55 112.65 162.1 111.15 164.2 111.15 165.15546875 111.15 165.95 111.45
M 140 129.2
Q 139.6 129.2 139.35 129.45 139.214453125 129.562890625 139.1 129.7 139.02734375 129.8580078125 139 130.05 138.9291015625 130.475 138.9 130.9 138.9 131.075 138.9 131.25 138.9 131.55 138.95 131.9 139.15 134.3 140.9 136.05 142.95 138.1 145.75 138.1 148.55 138.1 150.55 136.1
L 150.6 136.05
Q 152.4 134.25 152.6 131.85 152.6 131.55 152.6 131.25 152.6 131.0470703125 152.6 130.85 152.56875 130.4126953125 152.5 130 152.4517578125 129.83125 152.35 129.7 152.2794921875 129.5537109375 152.15 129.45 151.85 129.2 151.5 129.2
L 140 129.2 Z"/>

<path fill="#899B9F" stroke="none" d="
M 398.45 272.2
L 401.35 272.2 401.35 265.5 398.45 265.5 370.45 265.5 367.55 265.5 367.55 272.2 370.45 272.2 398.45 272.2
M 370.45 238
L 367.55 238 367.55 244.7 370.45 244.7 398.45 244.7 401.35 244.7 401.35 238 398.45 238 370.45 238 Z"/>

<path fill="#FF79D2" stroke="none" d="
M 393.9 228.45
Q 392.9 227.45 391.45 227.45 390 227.45 389 228.45 388 229.45 388 230.9 388 232.35 389 233.35 390 234.35 391.45 234.35 392.9 234.35 393.9 233.35 394.9 232.35 394.9 230.9 394.9 229.45 393.9 228.45 Z"/>

<path fill="#84959A" stroke="none" d="
M 254.75 273.05
Q 254.45 274.234765625 254.45 275.55 254.45 279.5 257.2 282.25 260 285.05 263.95 285.05
L 285.95 285.05
Q 289.9 285.05 292.65 282.25 295.45 279.5 295.45 275.55 295.45 274.234765625 295.15 273.05 294.5177734375 270.6677734375 292.65 268.8 289.9 266.05 285.95 266.05
L 263.95 266.05
Q 260 266.05 257.2 268.8 255.365625 270.6677734375 254.75 273.05
M 264 277
L 264 274 286 274 286 277 264 277 Z"/>

<path fill="#91A4A8" stroke="none" d="
M 34.95 147
L 34.95 153 108.95 153 115.1 153 122.85 126.6 97.65 126.6
Q 88.591015625 127.34609375 86.5 136.75 84.4166015625 146.35703125 72.9 147
L 34.95 147
M 151 5
L 151 4.95 140.95 4.95 140.95 5 140.95 114.45
Q 140.95 116.6 142.4 118.05 143.8 119.45 146 119.45 148.15 119.45 149.55 118.05 151 116.6 151 114.45
L 151 5
M 121.1 109.85
Q 121.174609375 109.8328125 121.2 109.75 123.1541015625 107.9060546875 125.6 107.35 120.957421875 107.4078125 116.6 105.6 117.2640625 109.642578125 119.7 111.7 120.29140625 110.736328125 121.1 109.85
M 170.65 109.85
Q 171.3203125 110.515234375 171.8 111.2 173.8115234375 109.1818359375 174.4 105.6 170.4302734375 107.2470703125 166.2 107.35 168.7080078125 107.8931640625 170.55 109.75 170.626171875 109.8244140625 170.65 109.85
M 64.45 117.1
Q 63.95 116.6 63.25 116.6 62.55 116.6 62 117.15 61.45 117.7 61.45 118.4 61.45 119.1 61.95 119.6
L 70.3 127.95
Q 70.8 128.45 71.5 128.45 72.2 128.45 72.75 127.9 73.3 127.35 73.3 126.65 73.3 125.95 72.8 125.45
L 64.45 117.1
M 67.95 113.6
Q 67.45 113.1 66.75 113.1 66.05 113.1 65.55 113.6 65 114.15 65 114.85 65 115.55 65.5 116.05
L 73.85 124.4
Q 74.35 124.9 75.05 124.9 75.75 124.9 76.3 124.35 76.8 123.85 76.8 123.15 76.8 122.45 76.3 121.95
L 67.95 113.6
M 69.05 110.1
Q 68.55 110.6 68.55 111.3 68.55 112 69.05 112.5
L 77.4 120.85
Q 77.9 121.35 78.6 121.35 79.3 121.35 79.8 120.85 80.35 120.3 80.35 119.6 80.35 118.9 79.85 118.4
L 71.5 110.05
Q 71 109.55 70.3 109.55 69.6 109.55 69.05 110.1
M 226.4 116.05
Q 226.9 115.55 226.9 114.85 226.9 114.15 226.35 113.6 225.85 113.1 225.15 113.1 224.45 113.1 223.95 113.6
L 215.6 121.95
Q 215.1 122.45 215.1 123.15 215.1 123.85 215.6 124.35 216.15 124.9 216.85 124.9 217.55 124.9 218.05 124.4
L 226.4 116.05
M 229.9 117.15
Q 229.35 116.6 228.65 116.6 227.95 116.6 227.45 117.1
L 219.1 125.45
Q 218.6 125.95 218.6 126.65 218.6 127.35 219.15 127.9 219.7 128.45 220.4 128.45 221.1 128.45 221.6 127.95
L 229.95 119.6
Q 230.45 119.1 230.45 118.4 230.45 117.7 229.9 117.15
M 223.35 111.3
Q 223.35 110.6 222.85 110.1 222.3 109.55 221.6 109.55 220.9 109.55 220.4 110.05
L 212.05 118.4
Q 211.55 118.9 211.55 119.6 211.55 120.3 212.1 120.85 212.6 121.35 213.3 121.35 214 121.35 214.5 120.85
L 222.85 112.5
Q 223.35 112 223.35 111.3
M 331 147
L 330.95 147 219 147
Q 207.5 146.35 205.4 136.75 203.3 127.35 194.25 126.6
L 169.05 126.6 176.8 153 182.95 153 331 153 331 147 Z"/>
</g>
</defs>

<g transform="matrix( 1, 0, 0, 1, 0,0) ">
<use xlink:href="#Layer0_0_FILL"/>
</g>
</svg>
