
<svg xmlns="http://www.w3.org/2000/svg" version="1.1" xmlns:xlink="http://www.w3.org/1999/xlink" preserveAspectRatio="none" x="0px" y="0px" width="512px" height="512px" viewBox="0 0 512 512">
<defs>
<linearGradient id="Gradient_1" gradientUnits="userSpaceOnUse" x1="65.9" y1="119.7" x2="80.4" y2="119.7" spreadMethod="pad">
<stop  offset="0%" stop-color="#EECC98"/>

<stop  offset="100%" stop-color="#FFE0B1"/>
</linearGradient>

<linearGradient id="Gradient_2" gradientUnits="userSpaceOnUse" x1="226" y1="119.7" x2="211.5" y2="119.7" spreadMethod="pad">
<stop  offset="0%" stop-color="#EECC98"/>

<stop  offset="100%" stop-color="#FFE0B1"/>
</linearGradient>

<g id="Layer0_0_FILL">
<path fill="#191919" stroke="none" d="
M 0 0
L 0 512 512 512 512 0 0 0
M 498.95 46.05
L 498.95 96.65 498.95 101 498.95 122.95 498.95 129.9 498.95 153.95 462.95 153.95 462.95 190.9 425.95 190.9 425.95 153.95 353.95 153.95 353.95 129.9 353.95 122.95 353.95 46.05 425.95 46.05 425.95 11.1 462.95 11.1 462.95 46.05 498.95 46.05
M 330.95 79
L 330.95 153 182.95 153 182.95 227 108.95 227 108.95 153 34.95 153 34.95 79 108.95 79 108.95 5 182.95 5 182.95 79 330.95 79
M 466 317.05
L 466 352 504 352 504 433.95 504 440.9 504 457.95 504 460.9 466 460.9 466 495.85 428 495.85 428 460.9 352 460.9 352 457.95 352 440.9 352 433.95 352 352 428 352 428 317.05 466 317.05
M 420.95 202
L 420.95 312 311.95 312 311.95 348.95 237.95 348.95 237.95 312 201.95 312 201.95 202 237.95 202 237.95 165.05 311.95 165.05 311.95 202 420.95 202
M 92.95 205.05
L 92.95 240 164.95 240 164.95 316.9 164.95 323.85 164.95 347.9 92.95 347.9 92.95 384.85 55.95 384.85 55.95 347.9 19.95 347.9 19.95 323.85 19.95 316.9 19.95 294.95 19.95 290.6 19.95 240 55.95 240 55.95 205.05 92.95 205.05
M 177 363
L 177 328.05 215 328.05 215 363 291 363 291 444.95 291 451.9 291 468.95 291 471.9 215 471.9 215 506.85 177 506.85 177 471.9 139 471.9 139 468.95 139 451.9 139 444.95 139 363 177 363 Z"/>

<path fill="#BAC6CB" stroke="none" d="
M 291 451.9
L 291 444.95 139 444.95 139 451.9 291 451.9
M 177 413.95
L 177 413.6 141 417.95 177 417.95 177 413.95
M 207.1 417.95
Q 207.1 417.8765625 207.1 417.8
L 207.1 413.95 207.1 412.3
Q 207.1 411.8 206.65 411.35 206.25 410.95 205.7 410.95
L 186.25 410.95
Q 185.75 410.95 185.3 411.35 184.9 411.8 184.9 412.3
L 184.9 413.95 184.9 417.8
Q 184.9 417.8765625 184.9 417.95 184.9509765625 418.3095703125 185.2 418.6 185.45 418.95 185.9 419.1
L 195.65 421.9
Q 196 422 196.4 421.9
L 206.15 419.1
Q 206.55 418.95 206.8 418.6 207.0490234375 418.3095703125 207.1 417.95
M 504 440.9
L 504 433.95 352 433.95 352 440.9 504 440.9
M 458.1 402.95
L 458.1 401.3
Q 458.1 400.8 457.7 400.35 457.25 399.95 456.75 399.95
L 437.3 399.95
Q 436.75 399.95 436.35 400.35 435.9 400.8 435.9 401.3
L 435.9 402.95 435.9 406.8
Q 435.9 406.9 435.9 406.95 435.95 407.3 436.2 407.6 436.45 407.95 436.85 408.1
L 446.6 410.9
Q 447 411 447.35 410.9
L 457.1 408.1
Q 457.55 407.95 457.8 407.6 458.05 407.3 458.1 406.95 458.1 406.9 458.1 406.8
L 458.1 402.95
M 466 402.6
L 466 402.95 466 406.95 502 406.95 466 402.6 Z"/>

<path fill="#694C39" stroke="none" d="
M 291 468.95
L 291 451.9 139 451.9 139 468.95 291 468.95
M 504 457.95
L 504 440.9 352 440.9 352 457.95 504 457.95 Z"/>

<path fill="#986D51" stroke="none" d="
M 291 471.9
L 291 468.95 139 468.95 139 471.9 177 471.9 177 506.85 215 506.85 215 471.9 291 471.9
M 504 460.9
L 504 457.95 352 457.95 352 460.9 428 460.9 428 495.85 466 495.85 466 460.9 504 460.9 Z"/>

<path fill="#CBD9DE" stroke="none" d="
M 177 328.05
L 177 363 139 363 139 444.95 291 444.95 291 363 215 363 215 328.05 177 328.05
M 207.1 412.3
L 207.1 413.95 215 413.95 215 417.95 207.1 417.95
Q 207.0490234375 418.3095703125 206.8 418.6 206.55 418.95 206.15 419.1
L 196.4 421.9
Q 196 422 195.65 421.9
L 185.9 419.1
Q 185.45 418.95 185.2 418.6 184.9509765625 418.3095703125 184.9 417.95
L 177 417.95 141 417.95 177 413.6 177 413.95 184.9 413.95 184.9 412.3
Q 184.9 411.8 185.3 411.35 185.75 410.95 186.25 410.95
L 205.7 410.95
Q 206.25 410.95 206.65 411.35 207.1 411.8 207.1 412.3
M 19.95 316.9
L 19.95 323.85 164.95 323.85 164.95 316.9 19.95 316.9
M 19.95 290.6
L 19.95 294.95 55.95 294.95 19.95 290.6
M 128.95 294.95
L 128.95 290.6 92.95 294.95 128.95 294.95
M 303.7 218.6
Q 302 207.6 296.5 202
L 275.8 228.6 255.15 202
Q 247.2 206.45 246.2 216.65 251.4 214.35 257.1 215 251.7 219.15 252.3 224.45 262.001953125 224.2171875 270.8 226.85 271.42734375 227.036328125 272.05 227.25
L 272.05 312 237.95 312 237.95 348.95 311.95 348.95 311.95 312 279.55 312 279.55 226.4
Q 288.948046875 221.70390625 299.35 224.45 299.95 219.15 294.55 215 299.15 215.85 303.7 218.6
M 275.8 243.35
Q 274.85 243.35 274.15 242.65 273.45 242 273.45 241.05 273.45 240.1 274.15 239.4 274.85 238.7 275.8 238.7 276.75 238.7 277.4 239.4 278.15 240.1 278.15 241.05 278.15 242 277.4 242.65 276.75 243.35 275.8 243.35
M 273.45 256.45
Q 273.45 255.45 274.15 254.75 274.85 254.1 275.8 254.1 276.75 254.1 277.4 254.75 278.15 255.45 278.15 256.45 278.15 257.4 277.4 258.05 276.75 258.75 275.8 258.75 274.85 258.75 274.15 258.05 273.45 257.4 273.45 256.45
M 274.15 270.15
Q 274.85 269.5 275.8 269.5 276.75 269.5 277.4 270.15 278.15 270.85 278.15 271.8 278.15 272.75 277.4 273.45 276.75 274.15 275.8 274.15 274.85 274.15 274.15 273.45 273.45 272.75 273.45 271.8 273.45 270.85 274.15 270.15
M 273.45 287.2
Q 273.45 286.2 274.15 285.5 274.85 284.85 275.8 284.85 276.75 284.85 277.4 285.5 278.15 286.2 278.15 287.2 278.15 288.15 277.4 288.8 276.75 289.5 275.8 289.5 274.85 289.5 274.15 288.8 273.45 288.15 273.45 287.2
M 299.05 256.6
L 298.6 250.55 292.55 250.95 293 257 299.05 256.6
M 285.1 245.15
L 292.4 247.25 297.75 246.95 297.75 246.7 297.15 246.7
Q 296 246.7 296 245.55
L 296 241.15
Q 296 240 297.15 240
L 300.3 240
Q 301.45 240 301.45 241.15
L 301.45 245.55
Q 301.45 246.05 301.2 246.3
L 305.35 245.15
Q 305.75 245 306 244.65 306.3 244.3 306.3 243.85
L 306.3 238.35
Q 306.3 237.85 305.85 237.4 305.45 237 304.9 237
L 285.45 237
Q 284.95 237 284.5 237.4 284.1 237.85 284.1 238.35
L 284.1 243.85
Q 284.1 244.3 284.4 244.65 284.65 245 285.1 245.15
M 466 352
L 466 317.05 428 317.05 428 352 352 352 352 433.95 504 433.95 504 352 466 352
M 466 402.95
L 466 402.6 502 406.95 466 406.95 458.1 406.95
Q 458.05 407.3 457.8 407.6 457.55 407.95 457.1 408.1
L 447.35 410.9
Q 447 411 446.6 410.9
L 436.85 408.1
Q 436.45 407.95 436.2 407.6 435.95 407.3 435.9 406.95
L 428 406.95 428 402.95 435.9 402.95 435.9 401.3
Q 435.9 400.8 436.35 400.35 436.75 399.95 437.3 399.95
L 456.75 399.95
Q 457.25 399.95 457.7 400.35 458.1 400.8 458.1 401.3
L 458.1 402.95 466 402.95
M 498.95 101
L 498.95 96.65 462.95 101 498.95 101
M 498.95 129.9
L 498.95 122.95 353.95 122.95 353.95 129.9 498.95 129.9
M 389.95 101
L 425.95 101 389.95 96.65 389.95 101 Z"/>

<path fill="#E9F9FF" stroke="none" d="
M 184.9 417.95
Q 184.9 417.8765625 184.9 417.8
L 184.9 413.95 177 413.95 177 417.95 184.9 417.95
M 207.1 417.8
Q 207.1 417.8765625 207.1 417.95
L 215 417.95 215 413.95 207.1 413.95 207.1 417.8
M 92.95 240
L 92.95 205.05 55.95 205.05 55.95 240 19.95 240 19.95 290.6 55.95 294.95 19.95 294.95 19.95 316.9 164.95 316.9 164.95 240 92.95 240
M 128.95 290.6
L 128.95 294.95 92.95 294.95 128.95 290.6
M 274.15 285.5
Q 273.45 286.2 273.45 287.2 273.45 288.15 274.15 288.8 274.85 289.5 275.8 289.5 276.75 289.5 277.4 288.8 278.15 288.15 278.15 287.2 278.15 286.2 277.4 285.5 276.75 284.85 275.8 284.85 274.85 284.85 274.15 285.5
M 275.8 269.5
Q 274.85 269.5 274.15 270.15 273.45 270.85 273.45 271.8 273.45 272.75 274.15 273.45 274.85 274.15 275.8 274.15 276.75 274.15 277.4 273.45 278.15 272.75 278.15 271.8 278.15 270.85 277.4 270.15 276.75 269.5 275.8 269.5
M 274.15 254.75
Q 273.45 255.45 273.45 256.45 273.45 257.4 274.15 258.05 274.85 258.75 275.8 258.75 276.75 258.75 277.4 258.05 278.15 257.4 278.15 256.45 278.15 255.45 277.4 254.75 276.75 254.1 275.8 254.1 274.85 254.1 274.15 254.75
M 274.15 242.65
Q 274.85 243.35 275.8 243.35 276.75 243.35 277.4 242.65 278.15 242 278.15 241.05 278.15 240.1 277.4 239.4 276.75 238.7 275.8 238.7 274.85 238.7 274.15 239.4 273.45 240.1 273.45 241.05 273.45 242 274.15 242.65
M 420.95 312
L 420.95 202 311.95 202 311.95 165.05 237.95 165.05 237.95 202 201.95 202 201.95 312 237.95 312 272.05 312 272.05 227.25
Q 271.42734375 227.036328125 270.8 226.85 262.001953125 224.2171875 252.3 224.45 251.7 219.15 257.1 215 251.4 214.35 246.2 216.65 247.2 206.45 255.15 202
L 296.5 202
Q 302 207.6 303.7 218.6 299.15 215.85 294.55 215 299.95 219.15 299.35 224.45 288.948046875 221.70390625 279.55 226.4
L 279.55 312 311.95 312 420.95 312
M 292.4 247.25
L 285.1 245.15
Q 284.65 245 284.4 244.65 284.1 244.3 284.1 243.85
L 284.1 238.35
Q 284.1 237.85 284.5 237.4 284.95 237 285.45 237
L 304.9 237
Q 305.45 237 305.85 237.4 306.3 237.85 306.3 238.35
L 306.3 243.85
Q 306.3 244.3 306 244.65 305.75 245 305.35 245.15
L 301.2 246.3
Q 300.95 246.7 300.3 246.7
L 299.9 246.7 299.9 246.8 305.1 246.5
Q 308.6 246.25 308.8 249.75
L 309.25 257.35
Q 309.45 260.9 305.95 261.15
L 293.25 261.9
Q 289.75 262.1 289.55 258.55
L 289.1 250.95
Q 288.9 247.45 292.4 247.25
M 435.9 406.95
Q 435.9 406.9 435.9 406.8
L 435.9 402.95 428 402.95 428 406.95 435.9 406.95
M 466 406.95
L 466 402.95 458.1 402.95 458.1 406.8
Q 458.1 406.9 458.1 406.95
L 466 406.95
M 498.95 96.65
L 498.95 46.05 462.95 46.05 462.95 11.1 425.95 11.1 425.95 46.05 353.95 46.05 353.95 122.95 498.95 122.95 498.95 101 462.95 101 498.95 96.65
M 425.95 101
L 389.95 101 389.95 96.65 425.95 101 Z"/>

<path fill="#FFE0B1" stroke="none" d="
M 55.95 347.9
L 55.95 384.85 92.95 384.85 92.95 347.9 164.95 347.9 164.95 323.85 19.95 323.85 19.95 347.9 55.95 347.9
M 330.95 153
L 330.95 79 182.95 79 182.95 5 108.95 5 108.95 79 34.95 79 34.95 153 108.95 153 108.95 227 182.95 227 182.95 153 330.95 153
M 195.95 93.75
Q 195.661328125 92.8408203125 195.3 92.05 220.763671875 87.869140625 246.2 101.1 250.96328125 119.219140625 243.1 130.45
L 240.15 129.25
Q 230.9134765625 125.489453125 229.45 115.65 229.1236328125 113.2736328125 227.55 111.7 224.4 108.55 219.9 108.75 218.1 108.65 215.8 108.95 220 109.4 222.9 112.2 226 115.3 226 119.7
L 226 119.75
Q 226 124.25 222.9 127.4 219.9 130.3 215.8 130.5
L 215.6 130.5
Q 213.95 130.5 212.7 127.4 211.55 124.3 211.5 119.95 211.5 119.85 211.5 119.75
L 211.5 119.7
Q 211.5 117.1291015625 211.9 115
L 202.3 113.75 195.95 93.75
M 96.55 92.05
Q 96.25 92.85 95.95 93.75
L 89.6 113.8 80 115
Q 80.4 117.15 80.4 119.7
L 80.4 119.75
Q 80.4 119.85 80.4 119.95 80.35 124.3 79.2 127.4 77.95 130.5 76.3 130.5
L 76.1 130.5
Q 72 130.3 69 127.4 65.9 124.25 65.9 119.75
L 65.9 119.7
Q 65.9 115.3 69 112.2 71.9 109.4 76.1 108.95 73.8 108.65 72 108.75 67.5 108.55 64.35 111.7 62.8 113.25 62.45 115.65 61 125.5 51.75 129.3
L 48.75 130.45
Q 40.95 119.2 45.7 101.1 71.15 87.85 96.55 92.05
M 164.95 125.8
L 164.95 125.8
Q 162.5140625 128.3021484375 159.05 128.3 156.0025390625 128.2986328125 153.7 126.35 153.4880859375 127.223046875 152 127.9 153.20234375 128.5025390625 154.25 129.35 156.75 131.45 157.8 132.9 158 133.2 158 133.55 158 133.9 157.85 134.2 157.75 134.55 157.4 134.75 147.7 141 135.75 136.1 135.3 135.9 135.1 135.5 134.8 135.05 134.95 134.6 135.45 131.55 138.25 129.35 139.1810546875 128.5740234375 140.2 128 138.4443359375 127.2666015625 138.2 126.3 135.95234375 128.301953125 132.85 128.3 129.3876953125 128.2984375 126.9 125.8 124.4568359375 123.367578125 124.45 119.9 124.4482421875 116.4392578125 126.85 113.95
L 126.9 113.9
Q 129.3892578125 111.4982421875 132.85 111.5 136.317578125 111.5068359375 138.75 113.95 140.2990234375 115.4923828125 140.9 117.4 143.08671875 115.7486328125 145.95 115.75 148.826953125 115.7556640625 151 117.45 151.559375 115.5046875 153.05 113.95
L 153.1 113.9
Q 155.5892578125 111.4982421875 159.05 111.5 162.517578125 111.5068359375 164.95 113.95 167.4484375 116.4376953125 167.45 119.9 167.4521484375 123.3640625 164.95 125.8
M 167.7 107.45
Q 167 107.75 166.25 107.5 161.35 105.7 154.8 105.45 154.05 105.4 153.5 104.9 153 104.25 153 103.5
L 153.05 101.65
Q 153.05 100.85 153.65 100.3 154.2 99.75 155 99.8 162.6 100.05 168.25 102.2 169 102.5 169.3 103.2 169.6 103.9 169.35 104.65
L 168.7 106.4
Q 168.45 107.1 167.7 107.45
M 136.5 99.8
Q 137.3 99.75 137.85 100.3 138.45 100.85 138.45 101.65
L 138.5 103.5
Q 138.5 104.25 138 104.9 137.45 105.4 136.7 105.45 130.15 105.7 125.25 107.5 124.5 107.75 123.8 107.45 123.05 107.1 122.8 106.4
L 122.15 104.65
Q 121.9 103.9 122.2 103.2 122.5 102.5 123.25 102.2 128.9 100.05 136.5 99.8
M 498.95 153.95
L 498.95 129.9 353.95 129.9 353.95 153.95 425.95 153.95 425.95 190.9 462.95 190.9 462.95 153.95 498.95 153.95 Z"/>

<path fill="#FFFFFF" stroke="none" d="
M 255.15 202
L 275.8 228.6 296.5 202 255.15 202
M 307.05 249.85
Q 306.95 248.1 305.2 248.25
L 299.85 248.6
Q 299.8 248.8 299.6 249 299.25 249.3 298.85 249.3
L 298.8 249.3
Q 298.35 249.3 298.05 249 297.9 248.85 297.85 248.7
L 292.5 249
Q 290.75 249.1 290.85 250.85
L 291.3 258.45
Q 291.4 260.25 293.15 260.15
L 305.85 259.4
Q 307.6 259.25 307.5 257.45
L 307.05 249.85
M 298.6 250.55
L 299.05 256.6 293 257 292.55 250.95 298.6 250.55
M 129 116.05
Q 127.4515625 117.678125 127.45 119.9 127.44296875 122.1322265625 129 123.7 130.612109375 125.3013671875 132.85 125.3 135.0681640625 125.29765625 136.6 123.7
L 136.65 123.65
Q 137.81640625 122.547265625 138.1 121.05 138.137890625 120.848828125 138.2 120.65 138.2517578125 120.2771484375 138.25 119.9 138.2513671875 117.662109375 136.65 116.05 135.0822265625 114.49296875 132.85 114.5 130.628125 114.5015625 129 116.05
L 129 116.05
M 162.85 123.65
Q 164.44765625 122.1181640625 164.45 119.9 164.4513671875 117.662109375 162.85 116.05 161.2822265625 114.49296875 159.05 114.5 156.828125 114.5015625 155.2 116.05
L 155.2 116.05
Q 153.6515625 117.6783203125 153.65 119.9 153.6478515625 120.3705078125 153.7 120.85
L 153.7 120.9
Q 154.0259765625 122.5162109375 155.2 123.7 156.812109375 125.3013671875 159.05 125.3 161.2681640625 125.29765625 162.8 123.7
L 162.85 123.65 Z"/>

<path fill="#D3E2E7" stroke="none" d="
M 297.75 246.95
L 292.4 247.25
Q 288.9 247.45 289.1 250.95
L 289.55 258.55
Q 289.75 262.1 293.25 261.9
L 305.95 261.15
Q 309.45 260.9 309.25 257.35
L 308.8 249.75
Q 308.6 246.25 305.1 246.5
L 299.9 246.8 299.9 248.25
Q 299.9 248.4 299.85 248.6
L 305.2 248.25
Q 306.95 248.1 307.05 249.85
L 307.5 257.45
Q 307.6 259.25 305.85 259.4
L 293.15 260.15
Q 291.4 260.25 291.3 258.45
L 290.85 250.85
Q 290.75 249.1 292.5 249
L 297.85 248.7
Q 297.75 248.5 297.75 248.25
L 297.75 246.95 Z"/>

<path fill="#D9D9D9" stroke="none" d="
M 297.75 246
L 297.75 246.7 297.75 246.95 297.75 248.25
Q 297.75 248.5 297.85 248.7 297.9 248.85 298.05 249 298.35 249.3 298.8 249.3
L 298.85 249.3
Q 299.25 249.3 299.6 249 299.8 248.8 299.85 248.6 299.9 248.4 299.9 248.25
L 299.9 246.8 299.9 246.7 299.9 246
Q 299.9 245.6 299.6 245.25 299.25 244.95 298.85 244.95
L 298.8 244.95
Q 298.35 244.95 298.05 245.25 297.75 245.6 297.75 246 Z"/>

<path fill="#CCCCCC" stroke="none" d="
M 301.45 241.15
Q 301.45 240 300.3 240
L 297.15 240
Q 296 240 296 241.15
L 296 245.55
Q 296 246.7 297.15 246.7
L 297.75 246.7 297.75 246
Q 297.75 245.6 298.05 245.25 298.35 244.95 298.8 244.95
L 298.85 244.95
Q 299.25 244.95 299.6 245.25 299.9 245.6 299.9 246
L 299.9 246.7 300.3 246.7
Q 300.95 246.7 301.2 246.3 301.45 246.05 301.45 245.55
L 301.45 241.15 Z"/>

<path fill="#999999" stroke="none" d="
M 137.85 100.3
Q 137.3 99.75 136.5 99.8 128.9 100.05 123.25 102.2 122.5 102.5 122.2 103.2 121.9 103.9 122.15 104.65
L 122.8 106.4
Q 123.05 107.1 123.8 107.45 124.5 107.75 125.25 107.5 130.15 105.7 136.7 105.45 137.45 105.4 138 104.9 138.5 104.25 138.5 103.5
L 138.45 101.65
Q 138.45 100.85 137.85 100.3
M 166.25 107.5
Q 167 107.75 167.7 107.45 168.45 107.1 168.7 106.4
L 169.35 104.65
Q 169.6 103.9 169.3 103.2 169 102.5 168.25 102.2 162.6 100.05 155 99.8 154.2 99.75 153.65 100.3 153.05 100.85 153.05 101.65
L 153 103.5
Q 153 104.25 153.5 104.9 154.05 105.4 154.8 105.45 161.35 105.7 166.25 107.5
M 140.55 128.15
Q 140.378515625 128.084375 140.2 128 139.1810546875 128.5740234375 138.25 129.35 135.45 131.55 134.95 134.6 134.8 135.05 135.1 135.5 135.3 135.9 135.75 136.1 147.7 141 157.4 134.75 157.75 134.55 157.85 134.2 158 133.9 158 133.55 158 133.2 157.8 132.9 156.75 131.45 154.25 129.35 153.20234375 128.5025390625 152 127.9 151.7861328125 128.035546875 151.5 128.15 149.25 129 146 129
L 145.95 129
Q 142.8 129 140.55 128.15
M 95.95 93.75
Q 96.25 92.85 96.55 92.05 71.15 87.85 45.7 101.1 40.95 119.2 48.75 130.45
L 51.75 129.3
Q 61 125.5 62.45 115.65 62.8 113.25 64.35 111.7 67.5 108.55 72 108.75 73.8 108.65 76.1 108.95
L 76.3 108.95
Q 77.95 108.95 79.2 112.2 79.7 113.5 80 115
L 89.6 113.8 95.95 93.75
M 195.3 92.05
Q 195.661328125 92.8408203125 195.95 93.75
L 202.3 113.75 211.9 115
Q 212.201171875 113.488671875 212.7 112.2 213.95 108.95 215.6 108.95
L 215.8 108.95
Q 218.1 108.65 219.9 108.75 224.4 108.55 227.55 111.7 229.1236328125 113.2736328125 229.45 115.65 230.9134765625 125.489453125 240.15 129.25
L 243.1 130.45
Q 250.96328125 119.219140625 246.2 101.1 220.763671875 87.869140625 195.3 92.05 Z"/>

<path fill="#EECC98" stroke="none" d="
M 150.8 121.65
Q 150.367578125 120.92265625 149.75 120.3 148.1822265625 118.74296875 145.95 118.75 143.710546875 118.7515625 142.1 120.3
L 142.1 120.3
Q 141.4859375 120.9271484375 141.05 121.65 140.5943359375 124.0224609375 138.75 125.8
L 138.75 125.8
Q 138.495703125 126.0837890625 138.2 126.3 138.4443359375 127.2666015625 140.2 128 140.378515625 128.084375 140.55 128.15 142.8 129 145.95 129
L 146 129
Q 149.25 129 151.5 128.15 151.7861328125 128.035546875 152 127.9 153.4880859375 127.223046875 153.7 126.35 153.398046875 126.0994140625 153.1 125.8 151.3099609375 124.01953125 150.8 121.65 Z"/>

<path fill="#707070" stroke="none" d="
M 164.95 125.8
L 164.95 125.8
Q 167.4521484375 123.3640625 167.45 119.9 167.4484375 116.4376953125 164.95 113.95 162.517578125 111.5068359375 159.05 111.5 155.5892578125 111.4982421875 153.1 113.9
L 153.05 113.95
Q 151.559375 115.5046875 151 117.45 148.826953125 115.7556640625 145.95 115.75 143.08671875 115.7486328125 140.9 117.4 140.2990234375 115.4923828125 138.75 113.95 136.317578125 111.5068359375 132.85 111.5 129.3892578125 111.4982421875 126.9 113.9
L 126.85 113.95
Q 124.4482421875 116.4392578125 124.45 119.9 124.4568359375 123.367578125 126.9 125.8 129.3876953125 128.2984375 132.85 128.3 135.95234375 128.301953125 138.2 126.3 138.495703125 126.0837890625 138.75 125.8
L 138.75 125.8
Q 140.5943359375 124.0224609375 141.05 121.65 141.4859375 120.9271484375 142.1 120.3
L 142.1 120.3
Q 143.710546875 118.7515625 145.95 118.75 148.1822265625 118.74296875 149.75 120.3 150.367578125 120.92265625 150.8 121.65 151.3099609375 124.01953125 153.1 125.8 153.398046875 126.0994140625 153.7 126.35 156.0025390625 128.2986328125 159.05 128.3 162.5140625 128.3021484375 164.95 125.8
M 164.45 119.9
Q 164.44765625 122.1181640625 162.85 123.65
L 162.8 123.7
Q 161.2681640625 125.29765625 159.05 125.3 156.812109375 125.3013671875 155.2 123.7 154.0259765625 122.5162109375 153.7 120.9
L 153.7 120.85
Q 153.6478515625 120.3705078125 153.65 119.9 153.6515625 117.6783203125 155.2 116.05
L 155.2 116.05
Q 156.828125 114.5015625 159.05 114.5 161.2822265625 114.49296875 162.85 116.05 164.4513671875 117.662109375 164.45 119.9
M 127.45 119.9
Q 127.4515625 117.678125 129 116.05
L 129 116.05
Q 130.628125 114.5015625 132.85 114.5 135.0822265625 114.49296875 136.65 116.05 138.2513671875 117.662109375 138.25 119.9 138.2517578125 120.2771484375 138.2 120.65 138.137890625 120.848828125 138.1 121.05 137.81640625 122.547265625 136.65 123.65
L 136.6 123.7
Q 135.0681640625 125.29765625 132.85 125.3 130.612109375 125.3013671875 129 123.7 127.44296875 122.1322265625 127.45 119.9 Z"/>

<path fill="url(#Gradient_1)" stroke="none" d="
M 76.3 108.95
L 76.1 108.95
Q 71.9 109.4 69 112.2 65.9 115.3 65.9 119.7
L 65.9 119.75
Q 65.9 124.25 69 127.4 72 130.3 76.1 130.5
L 76.3 130.5
Q 77.95 130.5 79.2 127.4 80.35 124.3 80.4 119.95 80.4 119.85 80.4 119.75
L 80.4 119.7
Q 80.4 117.15 80 115 79.7 113.5 79.2 112.2 77.95 108.95 76.3 108.95 Z"/>

<path fill="url(#Gradient_2)" stroke="none" d="
M 226 119.7
Q 226 115.3 222.9 112.2 220 109.4 215.8 108.95
L 215.6 108.95
Q 213.95 108.95 212.7 112.2 212.201171875 113.488671875 211.9 115 211.5 117.1291015625 211.5 119.7
L 211.5 119.75
Q 211.5 119.85 211.5 119.95 211.55 124.3 212.7 127.4 213.95 130.5 215.6 130.5
L 215.8 130.5
Q 219.9 130.3 222.9 127.4 226 124.25 226 119.75
L 226 119.7 Z"/>
</g>
</defs>

<g transform="matrix( 1, 0, 0, 1, 0,0) ">
<use xlink:href="#Layer0_0_FILL"/>
</g>
</svg>
